<svg width="1920" height="298" viewBox="0 0 1920 298" fill="none" xmlns="http://www.w3.org/2000/svg">
<path d="M1201.11 207.074L1228.18 236.384L1205.61 257.991L1176.3 226.412C1158.26 235.985 1138.1 240.855 1117.68 240.571C1048.74 240.571 1003 192.915 1003 120.743C1003 48.5708 1048.58 0.914062 1117.52 0.914062C1186.47 0.914062 1231.89 48.5388 1231.89 120.743C1231.89 156.509 1220.6 186.139 1201.11 207.074ZM1147.95 195.823L1121.55 167.057L1144.44 145.45L1171.8 175.431C1181.38 161.559 1186.95 143.213 1186.95 120.647C1186.95 70.0817 1159.55 39.1417 1117.68 39.1417C1075.81 39.1417 1048.42 70.0817 1048.42 120.647C1048.42 171.212 1075.81 202.152 1117.68 202.152C1128.07 202.314 1138.35 200.151 1147.79 195.823H1147.95Z" stroke="#262626" stroke-miterlimit="10"/>
<path d="M1421.65 235.425L1404.9 216.439C1385.6 232.327 1361.31 240.875 1336.31 240.571C1286.35 240.571 1257.68 211.58 1257.68 173.449C1257.68 142.189 1275.74 123.203 1307.64 107.094C1290.54 87.4369 1282.84 73.597 1282.84 55.9535C1282.84 25.6527 1306.33 0.849609 1347.24 0.849609C1383.97 0.849609 1411.36 21.146 1411.36 54.0038C1411.36 78.1677 1394.61 99.1034 1363.99 114.733L1403.94 159.193C1408.76 147.53 1411.38 135.081 1411.68 122.468H1449.04C1448.2 145.446 1441.55 167.836 1429.71 187.544L1472.57 235.201L1421.65 235.425ZM1382.05 190.677L1328.26 130.778C1310.84 140.367 1300.23 151.714 1300.23 170.38C1300.23 189.047 1314.38 205.827 1339.83 205.827C1355.26 206.006 1370.24 200.616 1382.02 190.645L1382.05 190.677ZM1323.75 56.0493C1323.75 65.6381 1329.85 76.9851 1343.37 91.7839L1344.05 92.423C1363.67 81.4917 1373.68 70.049 1373.68 56.0493C1373.68 43.2642 1363.03 33.4835 1348.55 33.4835C1334.07 33.4835 1323.72 42.4652 1323.72 56.0175L1323.75 56.0493Z" stroke="#262626" stroke-miterlimit="10"/>
<path d="M1623.88 184.851H1523.36L1505.65 235.416H1460.9L1548.19 6.05078H1599.11L1688 235.416H1641.91L1623.88 184.851ZM1610.68 147.806L1601.64 123.003C1593.61 102.067 1582.65 71.4467 1573.32 44.4062C1563.95 71.4467 1553.02 101.939 1545.29 123.003L1536.59 147.806H1610.68Z" stroke="#262626" stroke-miterlimit="10"/>
<rect x="951" y="172" width="969" height="126" fill="white"/>
<path d="M-4.76837e-05 172L1920 172" stroke="#262626" stroke-width="0.75"/>
</svg>
