<svg width="522" height="982" viewBox="0 0 522 982" fill="none" xmlns="http://www.w3.org/2000/svg">
<path d="M21.6387 195.712C41.1457 195.712 58.2592 184.223 60.6527 161.724H44.4966C42.5818 175.128 32.5291 181.59 21.6387 181.59C6.44001 181.59 -2.77495 170.341 -2.77495 151.193C-2.77495 132.164 6.44001 120.795 21.6387 120.795C32.0504 120.795 40.9064 125.941 43.8982 137.909H60.2937C56.5838 116.846 40.5473 106.674 21.6387 106.674C-3.0143 106.674 -19.6491 123.667 -19.6491 151.193C-19.6491 178.718 -2.65528 195.712 21.6387 195.712ZM109.687 132.045V166.631C109.687 177.641 102.506 182.188 95.9241 182.188C88.1452 182.188 84.3156 178.359 84.3156 170.46L84.3156 132.045H69.2366L69.2366 172.973C69.2366 187.693 77.9728 195.233 90.778 195.233C99.634 195.233 106.096 190.805 110.165 184.821V193.797H124.766L124.766 132.045H109.687ZM170.051 131.087C160.477 131.087 154.613 136.114 151.621 143.055V132.045H137.021L137.021 193.797H152.1L152.1 162.442C152.1 150.714 158.802 145.209 169.932 145.209H173.761V131.327C172.445 131.087 171.368 131.087 170.051 131.087ZM233.805 193.797C232.13 191.403 231.292 186.497 231.292 182.069L231.292 149.158C231.292 138.028 223.992 130.609 205.562 130.609C186.294 130.609 178.635 138.627 177.798 151.671H192.637C193.236 144.132 196.826 141.858 205.442 141.858C214.179 141.858 216.692 144.73 216.692 149.517C216.692 154.065 213.7 155.86 207.956 156.578L198.621 157.416C181.148 159.091 174.925 166.391 174.925 176.683C174.925 188.651 184.021 195.233 197.185 195.233C206.28 195.233 212.982 192.002 217.051 186.257C217.29 189.249 217.769 192.121 218.726 193.797H233.805ZM200.775 184.462C193.834 184.462 190.363 181.231 190.363 176.085C190.363 171.178 193.116 168.186 201.493 167.229L209.631 166.272C212.862 165.913 215.136 165.195 216.692 163.758V169.383C216.692 180.154 208.793 184.462 200.775 184.462ZM273.111 143.533V132.045H260.904V114.093H245.945V132.045H236.371V143.533H245.945V178.478C245.945 189.848 252.168 194.276 265.213 194.276C267.606 194.276 270.359 194.036 273.111 193.797V182.308H267.965C262.939 182.308 260.904 180.992 260.904 176.923V143.533H273.111ZM309.493 195.233C328.282 195.233 340.848 182.547 340.848 162.921C340.848 143.294 328.282 130.609 309.493 130.609C290.704 130.609 278.019 143.294 278.019 162.921C278.019 182.547 290.704 195.233 309.493 195.233ZM309.493 182.787C299.68 182.787 293.457 175.965 293.457 162.921C293.457 149.876 299.68 143.055 309.493 143.055C319.187 143.055 325.53 149.876 325.53 162.921C325.53 175.965 319.187 182.787 309.493 182.787ZM383.339 131.087C373.765 131.087 367.901 136.114 364.909 143.055V132.045H350.309V193.797H365.388V162.442C365.388 150.714 372.09 145.209 383.219 145.209H387.049V131.327C385.733 131.087 384.655 131.087 383.339 131.087ZM395.307 124.026L410.146 124.026V109.905H395.307V124.026ZM395.187 193.797H410.266V132.045H395.187V193.797ZM477.947 193.797C476.271 191.403 475.434 186.497 475.434 182.069V149.158C475.434 138.028 468.133 130.609 449.703 130.609C430.436 130.609 422.777 138.627 421.939 151.671H436.779C437.377 144.132 440.967 141.858 449.584 141.858C458.32 141.858 460.833 144.73 460.833 149.517C460.833 154.065 457.841 155.86 452.097 156.578L442.762 157.416C425.29 159.091 419.067 166.391 419.067 176.683C419.067 188.651 428.162 195.233 441.326 195.233C450.421 195.233 457.123 192.002 461.192 186.257C461.432 189.249 461.91 192.121 462.868 193.797L477.947 193.797ZM444.916 184.462C437.975 184.462 434.505 181.231 434.505 176.085C434.505 171.178 437.257 168.186 445.634 167.229L453.772 166.272C457.004 165.913 459.277 165.195 460.833 163.758V169.383C460.833 180.154 452.935 184.462 444.916 184.462ZM486.579 193.797H501.658V108.588H486.579V193.797ZM16.4927 228.588H-16.0589L-16.0589 313.797H16.4927C44.2573 313.797 59.2166 297.162 59.2166 271.193C59.2166 245.223 44.2573 228.588 16.4927 228.588ZM16.2533 299.915H0.0972436L0.0972436 242.471H16.2533C32.7685 242.471 42.4621 252.284 42.4621 271.193C42.4621 290.101 32.7685 299.915 16.2533 299.915ZM68.8888 244.026H83.7285V229.905H68.8888V244.026ZM68.7691 313.797H83.8481L83.8481 252.045H68.7691L68.7691 313.797ZM120.294 315.472C137.527 315.472 147.699 308.531 147.699 296.085C147.699 285.434 141.117 279.929 126.278 277.296L118.499 276.099C111.797 274.903 108.207 273.107 108.207 268.56C108.207 264.132 111.677 261.379 118.977 261.379C126.756 261.379 131.663 263.653 132.022 271.552H146.263C145.785 258.866 138.006 250.609 118.977 250.609C102.462 250.609 93.3669 257.669 93.3669 269.278C93.3669 279.809 100.308 285.673 113.592 287.947L120.653 289.144C129.987 290.7 132.74 292.854 132.74 297.282C132.74 301.949 129.269 304.702 120.533 304.702C111.558 304.702 107.608 301.949 106.771 294.17H92.0505C93.0079 309.13 102.702 315.472 120.294 315.472ZM183.485 315.233C199.282 315.233 210.771 305.898 212.446 290.819H197.367C196.17 298.957 190.306 302.667 183.485 302.667C174.749 302.667 168.406 296.444 168.406 282.921C168.406 269.398 174.509 263.174 183.485 263.174C190.187 263.174 195.692 266.645 197.128 274.304H212.207C210.412 259.824 199.641 250.609 183.485 250.609C165.055 250.609 152.968 263.174 152.968 282.921C152.968 302.667 165.175 315.233 183.485 315.233ZM249.656 315.233C268.445 315.233 281.011 302.547 281.011 282.921C281.011 263.294 268.445 250.609 249.656 250.609C230.867 250.609 218.181 263.294 218.181 282.921C218.181 302.547 230.867 315.233 249.656 315.233ZM249.656 302.787C239.842 302.787 233.619 295.965 233.619 282.921C233.619 269.876 239.842 263.055 249.656 263.055C259.349 263.055 265.692 269.876 265.692 282.921C265.692 295.965 259.349 302.787 249.656 302.787ZM329.402 252.045L329.402 286.631C329.402 297.641 322.222 302.188 315.64 302.188C307.861 302.188 304.031 298.359 304.031 290.46L304.031 252.045H288.952L288.952 292.973C288.952 307.693 297.688 315.233 310.494 315.233C319.349 315.233 325.812 310.805 329.881 304.821V313.797H344.481L344.481 252.045H329.402ZM389.767 251.087C380.193 251.087 374.329 256.114 371.337 263.055V252.045H356.737L356.737 313.797H371.816V282.442C371.816 270.714 378.517 265.209 389.647 265.209H393.477V251.327C392.16 251.087 391.083 251.087 389.767 251.087ZM424.623 315.472C441.856 315.472 452.029 308.531 452.029 296.085C452.029 285.434 445.447 279.929 430.607 277.296L422.828 276.099C416.126 274.903 412.536 273.107 412.536 268.56C412.536 264.132 416.007 261.379 423.307 261.379C431.086 261.379 435.992 263.653 436.351 271.552H450.593C450.114 258.866 442.335 250.609 423.307 250.609C406.792 250.609 397.696 257.669 397.696 269.278C397.696 279.809 404.637 285.673 417.921 287.947L424.982 289.144C434.317 290.7 437.069 292.854 437.069 297.282C437.069 301.949 433.599 304.702 424.862 304.702C415.887 304.702 411.938 301.949 411.1 294.17H396.38C397.337 309.13 407.031 315.472 424.623 315.472ZM518.331 283.998C518.331 264.371 506.723 250.609 487.814 250.609C469.504 250.609 457.297 263.533 457.297 282.921C457.297 302.667 469.863 315.233 488.054 315.233C502.893 315.233 513.664 307.215 516.776 294.649H502.295C500.021 300.154 495.354 303.505 488.173 303.505C479.437 303.505 473.214 298.598 472.137 287.588H518.331V283.998ZM487.695 262.337C496.67 262.337 502.056 268.32 503.252 277.057H472.257C473.693 266.884 479.676 262.337 487.695 262.337Z" fill="#C8E6FA"/>
<path d="M281.46 43.0895H293.318V47.5282C293.318 48.2257 293.064 48.4159 292.303 48.4159C291.606 48.4159 289.006 48.4793 286.977 48.2891C287.801 49.8743 288.879 52.0936 289.386 53.9325C286.216 52.2839 283.553 50.5084 281.46 48.6695V43.0895ZM263.515 27.1739L269.222 24.9545C268.778 23.7498 267.954 22.1645 267.066 20.5159H274.866C274.105 21.2768 273.344 22.0377 272.52 22.6718C273.09 22.9889 273.724 23.3693 274.422 23.8132H273.344V27.1739H263.515ZM301.117 36.6852H281.46V33.6416H304.288V27.1739H281.46V24.1936C282.411 23.1157 283.363 21.8475 284.25 20.5159H287.294C288.689 22.7986 290.02 25.335 290.528 27.047L297.249 24.8911C296.805 23.6864 295.981 22.1011 295.03 20.5159H305.365V14.2384H287.738C288.308 13.0336 288.816 11.8289 289.26 10.6875L281.841 8.84863C280.509 12.6532 278.417 16.4577 275.817 19.438V14.2384H262.12C262.691 13.097 263.198 11.8923 263.642 10.8143L256.54 8.84863C254.448 14.0482 250.77 19.3745 246.775 22.7352C248.551 23.6864 251.595 25.652 253.053 26.8568C254.828 25.1448 256.667 22.9889 258.316 20.5159H259.394C260.725 22.7352 261.994 25.335 262.628 27.1739H249.185V33.6416H273.344V36.6852H253.243V54.313H261.233V43.0895H273.344V47.5282C267.954 53.6789 258.126 58.4345 247.6 60.527C249.185 62.0489 251.278 64.9657 252.292 66.868C260.218 64.712 267.574 60.9709 273.344 55.9616V68.58H281.46V56.1518C286.723 60.4002 293.888 64.395 302.005 66.4241C303.019 64.4584 305.175 61.4148 306.76 59.7661C300.483 58.6248 294.586 56.5957 289.767 54.1227C293.191 54.1227 296.044 54.0593 298.2 53.1716C300.483 52.2205 301.117 50.6986 301.117 47.5282V36.6852ZM342.46 50.3182H348.04C349.245 53.1082 350.766 55.5811 352.478 57.737C349.118 58.2443 345.694 58.6882 342.46 59.132V50.3182ZM345.63 39.6655H355.078V43.9773H345.63V39.6655ZM345.63 29.203H355.078V33.388H345.63V29.203ZM329.461 18.36H363.004V22.7986H329.461V18.36ZM365.097 50.3182C363.258 51.7132 360.848 53.2984 358.629 54.63C357.298 53.2984 356.156 51.9034 355.142 50.3182H365.097ZM367.316 50.3182H373.974V43.9773H362.053V39.6655H371.184V33.388H362.053V29.203H370.677V12.0191H321.852V30.7248C321.852 40.8068 321.345 55.0739 315.067 64.8389C316.969 65.5364 320.267 67.502 321.788 68.7068C328.446 58.3077 329.461 41.8214 329.461 30.7248V29.203H338.719V33.388H330.729V39.6655H338.719V43.9773H329.017V50.3182H335.548V60.0198C333.202 60.3368 330.983 60.5905 329.08 60.7807L330.095 67.6289C336.69 66.6143 345.503 65.4095 353.747 64.078L353.493 58.9418C357.615 63.5707 363.068 66.8045 370.296 68.58C371.248 66.6143 373.213 63.8243 374.735 62.3659C370.423 61.5416 366.682 60.21 363.575 58.3711C366.238 56.9761 369.218 55.2007 371.818 53.3618L367.316 50.3182ZM404.284 11.2582H387.227V16.965H404.284V11.2582ZM398.323 51.9034V59.1955H392.807V51.9034H398.323ZM404.537 46.0064H386.656V67.6289H392.807V65.0925H404.537V46.0064ZM386.846 42.8993H404.41V37.2559H386.846V42.8993ZM404.41 28.5689H386.846V34.3391H404.41V28.5689ZM415.444 26.2227C418.931 22.9889 421.975 19.3111 423.94 16.0773C426.16 19.3111 429.394 22.9889 432.945 26.2227H415.444ZM413.098 32.3734H435.164V28.125C436.813 29.52 438.525 30.7248 440.173 31.7393C441.251 29.5834 442.71 26.9202 444.168 25.1448C437.827 22.0377 431.423 15.6968 427.111 9.35591H420.326C417.6 14.3652 412.273 20.5159 406.503 24.5107V19.755H384.056V25.7155H404.601L404.157 25.9691C405.362 27.6177 407.01 30.2809 407.771 32.1198C409.61 31.0418 411.385 29.7102 413.098 28.3152V32.3734ZM430.662 49.1134V42.1384H434.023V49.1134H430.662ZM422.545 49.1134V42.1384H425.716V49.1134H422.545ZM414.556 49.1134V42.1384H417.6V49.1134H414.556ZM440.49 36.178H408.278V68.1361H414.556V55.0105H417.6V67.6923H422.545V55.0105H425.716V67.6923H430.662V55.0105H434.023V61.8586C434.023 62.3659 433.896 62.5561 433.388 62.5561C432.945 62.5561 431.867 62.5561 430.725 62.4927C431.486 64.1414 432.31 66.5509 432.501 68.263C435.1 68.263 437.003 68.1361 438.525 67.185C440.11 66.1705 440.49 64.5852 440.49 61.922V36.178ZM486.652 57.737H494.261V27.2373H510.494V20.2623H504.09L509.226 16.965C507.831 14.7457 504.724 11.5118 502.251 9.35591L496.48 12.78C498.763 14.9993 501.363 17.9795 502.758 20.2623H494.261V9.86318H486.652V20.2623H470.863V27.2373H486.652V57.737ZM496.861 32.3734C499.968 38.7143 503.012 47.0209 503.899 52.157L511.001 49.5573C509.987 44.3577 506.626 36.3048 503.392 30.1541L496.861 32.3734ZM476.38 30.7882C475.048 37.6364 472.512 44.7382 469.088 49.1134C470.927 49.9377 474.224 51.7766 475.746 52.8545C479.106 47.9086 482.087 40.1093 483.799 32.1832L476.38 30.7882ZM469.658 20.3257C467.503 17.3455 462.874 13.4141 459.069 10.7509L453.489 15.3164C457.23 18.1064 461.732 22.2914 463.698 25.335L469.658 20.3257ZM468.073 33.8952H453.426V40.8068H460.718V54.1861C457.928 56.342 454.757 58.4345 452.031 60.0198L455.708 67.8825C459.196 65.2193 461.986 62.7464 464.776 60.2734C468.898 65.2193 474.097 66.9948 481.896 67.3118C489.442 67.6289 502.187 67.502 509.796 67.1216C510.177 64.9657 511.318 61.288 512.143 59.5125C503.709 60.1466 489.442 60.3368 482.023 60.0198C475.429 59.7661 470.673 58.0541 468.073 53.8057V33.8952Z" fill="#262626"/>
<path d="M289.122 389.101V376.593C289.122 376.455 289.095 376.318 289.042 376.19C288.99 376.062 288.913 375.946 288.816 375.848C288.719 375.75 288.604 375.673 288.477 375.62C288.351 375.567 288.215 375.541 288.078 375.541H272.129C271.992 375.541 271.856 375.567 271.73 375.62C271.603 375.673 271.488 375.75 271.391 375.848C271.294 375.946 271.217 376.062 271.165 376.19C271.112 376.318 271.085 376.455 271.085 376.593V389.101H289.122ZM287.092 378.209V386.433C287.092 386.619 287.019 386.798 286.889 386.93C286.758 387.061 286.582 387.135 286.397 387.135H273.809C273.625 387.135 273.448 387.061 273.318 386.93C273.188 386.798 273.115 386.619 273.115 386.433V378.209C273.115 378.023 273.188 377.844 273.318 377.712C273.448 377.58 273.625 377.506 273.809 377.506H286.397C286.582 377.506 286.758 377.58 286.889 377.712C287.019 377.844 287.092 378.023 287.092 378.209Z" fill="#262626"/>
<path d="M274.472 384.374L275.279 385.773C275.324 385.849 275.398 385.905 275.483 385.928C275.569 385.95 275.66 385.937 275.737 385.892L279.764 383.48C279.867 383.42 279.984 383.388 280.103 383.388C280.223 383.388 280.34 383.42 280.443 383.48L284.47 385.892C284.507 385.916 284.549 385.932 284.593 385.939C284.636 385.946 284.681 385.944 284.723 385.933C284.766 385.922 284.806 385.902 284.841 385.874C284.875 385.846 284.904 385.812 284.925 385.773L285.735 384.374L281.461 381.81C281.363 381.749 281.282 381.664 281.226 381.562C281.17 381.461 281.14 381.346 281.141 381.23V379.044C281.141 378.959 281.107 378.876 281.047 378.816C280.987 378.755 280.906 378.721 280.821 378.721H279.092V381.243C279.092 381.359 279.063 381.474 279.007 381.575C278.951 381.677 278.87 381.762 278.772 381.822L274.472 384.374Z" fill="#262626"/>
<path d="M288.763 392.15H271.04C270.763 392.15 270.498 392.262 270.302 392.46C270.107 392.657 269.997 392.926 269.997 393.206V402.246C269.997 402.432 269.923 402.611 269.793 402.743C269.663 402.874 269.486 402.948 269.302 402.948H266.379V405.121H292.855V402.945H290.499C290.314 402.945 290.138 402.871 290.007 402.739C289.877 402.608 289.804 402.429 289.804 402.243V393.206C289.804 393.067 289.778 392.93 289.726 392.802C289.673 392.674 289.597 392.558 289.5 392.46C289.404 392.362 289.289 392.284 289.162 392.231C289.036 392.178 288.9 392.15 288.763 392.15ZM287.652 394.818V402.246C287.652 402.432 287.579 402.611 287.449 402.743C287.319 402.874 287.142 402.948 286.958 402.948H284.163C284.117 402.949 284.071 402.94 284.028 402.922C283.986 402.905 283.947 402.879 283.914 402.846C283.881 402.813 283.855 402.774 283.838 402.731C283.82 402.688 283.811 402.642 283.811 402.595V394.469C283.81 394.422 283.819 394.375 283.837 394.332C283.854 394.288 283.88 394.249 283.913 394.216C283.946 394.183 283.985 394.156 284.028 394.139C284.071 394.121 284.117 394.112 284.163 394.112H286.958C287.049 394.112 287.14 394.131 287.224 394.166C287.309 394.202 287.386 394.254 287.45 394.319C287.515 394.385 287.566 394.463 287.601 394.548C287.635 394.634 287.653 394.726 287.652 394.818ZM281.871 394.469V402.595C281.871 402.642 281.862 402.687 281.845 402.73C281.828 402.773 281.803 402.812 281.771 402.845C281.738 402.878 281.7 402.904 281.658 402.921C281.616 402.939 281.571 402.948 281.525 402.948H278.279C278.186 402.948 278.097 402.911 278.032 402.845C277.966 402.779 277.93 402.689 277.93 402.595V394.469C277.93 394.375 277.966 394.285 278.032 394.219C278.097 394.153 278.186 394.116 278.279 394.116H281.525C281.571 394.116 281.616 394.125 281.658 394.143C281.7 394.16 281.738 394.186 281.771 394.219C281.803 394.252 281.828 394.291 281.845 394.334C281.862 394.377 281.871 394.422 281.871 394.469ZM272.843 394.112H275.641C275.733 394.113 275.821 394.151 275.885 394.217C275.95 394.283 275.986 394.372 275.986 394.465V402.592C275.986 402.685 275.95 402.775 275.885 402.841C275.821 402.907 275.733 402.944 275.641 402.945H272.843C272.751 402.945 272.661 402.927 272.577 402.892C272.493 402.856 272.416 402.805 272.351 402.739C272.287 402.674 272.236 402.597 272.201 402.511C272.166 402.426 272.148 402.335 272.148 402.243V394.815C272.148 394.723 272.166 394.631 272.201 394.546C272.236 394.461 272.287 394.384 272.351 394.318C272.416 394.253 272.493 394.201 272.577 394.166C272.661 394.131 272.751 394.112 272.843 394.112Z" fill="#262626"/>
<path d="M262.012 397.643C261.46 398.662 261.001 399.729 260.642 400.832C260.194 402.369 259.978 403.964 260.002 405.566H262.432C262.432 402.182 263.277 400.525 264.173 398.767C264.726 397.749 265.183 396.681 265.54 395.577C265.99 394.041 266.205 392.445 266.18 390.844H263.751C263.751 394.227 262.905 395.885 262.012 397.643Z" fill="#262626"/>
<path d="M267.656 378.209L261.404 374L260.12 375.982L266.952 380.56L267.852 379.184C267.903 379.107 267.938 379.021 267.956 378.93C267.973 378.839 267.973 378.746 267.955 378.655C267.937 378.565 267.901 378.478 267.85 378.402C267.799 378.325 267.733 378.26 267.656 378.209Z" fill="#262626"/>
<path d="M261.375 381.531L260.095 383.497L266.456 387.725L267.349 386.349C267.45 386.194 267.485 386.004 267.448 385.822C267.411 385.64 267.304 385.48 267.15 385.378L261.375 381.531Z" fill="#262626"/>
<path d="M270.741 661.564H268.417V664.967C268.417 665.061 268.38 665.151 268.314 665.217C268.249 665.283 268.16 665.32 268.068 665.32H260.9V667.415H268.068C268.16 667.415 268.248 667.452 268.313 667.517C268.379 667.583 268.416 667.672 268.417 667.765V670.264C268.417 670.451 268.49 670.629 268.62 670.761C268.75 670.893 268.927 670.967 269.111 670.967H270.741V667.765C270.742 667.672 270.779 667.583 270.844 667.517C270.909 667.452 270.998 667.415 271.09 667.415H274.893C275.077 667.415 275.254 667.341 275.384 667.209C275.515 667.078 275.588 666.899 275.588 666.713V665.327H271.106C271.013 665.327 270.924 665.29 270.859 665.223C270.794 665.157 270.757 665.067 270.757 664.974L270.741 661.564Z" fill="#262626"/>
<path d="M290.106 691.508H281.504C281.32 691.508 281.143 691.434 281.013 691.302C280.882 691.17 280.809 690.992 280.809 690.805V684.119C280.809 683.868 280.876 683.621 281.003 683.404C281.129 683.188 281.311 683.01 281.53 682.889L291.188 677.534C291.268 677.489 291.339 677.43 291.396 677.358C291.453 677.286 291.496 677.204 291.522 677.115C291.547 677.027 291.555 676.934 291.545 676.843C291.535 676.751 291.508 676.662 291.464 676.582L290.676 675.128L281.837 680.043C281.731 680.101 281.612 680.131 281.492 680.129C281.372 680.127 281.254 680.093 281.15 680.031C281.047 679.969 280.961 679.881 280.901 679.775C280.841 679.669 280.81 679.549 280.809 679.428V672.152H278.379V691.653C278.379 692.212 278.599 692.747 278.989 693.142C279.379 693.536 279.908 693.758 280.46 693.758H291.025C291.577 693.758 292.106 693.536 292.496 693.142C292.887 692.747 293.106 692.212 293.106 691.653V686.797H291.476C291.292 686.797 291.115 686.871 290.985 687.003C290.855 687.134 290.782 687.313 290.782 687.499V690.808C290.781 690.991 290.71 691.166 290.584 691.296C290.458 691.427 290.287 691.503 290.106 691.508Z" fill="#262626"/>
<path d="M282.663 670.978H284.292C284.477 670.978 284.653 670.904 284.784 670.772C284.914 670.64 284.987 670.462 284.987 670.275V667.776C284.986 667.729 284.995 667.682 285.012 667.639C285.029 667.595 285.055 667.556 285.087 667.522C285.12 667.489 285.158 667.462 285.201 667.444C285.244 667.426 285.29 667.416 285.336 667.416H292.149C292.333 667.416 292.51 667.342 292.64 667.211C292.77 667.079 292.843 666.9 292.843 666.714V665.328H285.336C285.244 665.328 285.155 665.291 285.089 665.225C285.024 665.159 284.987 665.069 284.987 664.975V661.572H282.663V664.975C282.663 665.022 282.654 665.067 282.636 665.11C282.619 665.153 282.593 665.192 282.561 665.225C282.528 665.257 282.49 665.283 282.448 665.301C282.405 665.319 282.36 665.328 282.314 665.328H277.906V667.416H282.314C282.406 667.416 282.494 667.453 282.56 667.519C282.625 667.584 282.662 667.673 282.663 667.766V670.978Z" fill="#262626"/>
<path d="M266.691 677.358C264.591 678.546 262.42 679.773 260 683.468L261.998 684.805C263.752 682.127 265.321 680.965 266.918 680.016C266.971 679.985 267.031 679.968 267.092 679.968C267.153 679.967 267.213 679.983 267.266 680.013C267.319 680.044 267.363 680.088 267.393 680.142C267.424 680.195 267.44 680.256 267.44 680.317V693.965H269.175C269.359 693.965 269.535 693.891 269.664 693.76C269.794 693.629 269.867 693.451 269.867 693.265V678.828C269.868 678.659 269.909 678.493 269.986 678.343C270.064 678.193 270.175 678.064 270.312 677.967C271.999 676.721 273.437 675.163 274.55 673.376L272.553 672.035C270.453 675.231 268.625 676.264 266.691 677.358Z" fill="#262626"/>
<path d="M268.935 956.573H270.392V954.605C270.392 954.512 270.428 954.422 270.493 954.356C270.558 954.29 270.646 954.253 270.738 954.252H274.73C274.914 954.252 275.091 954.178 275.221 954.046C275.351 953.914 275.424 953.736 275.424 953.549V952.286H270.738C270.646 952.286 270.559 952.249 270.494 952.183C270.429 952.118 270.393 952.029 270.392 951.937V949.994H268.24V951.937C268.24 952.03 268.202 952.119 268.137 952.184C268.072 952.25 267.983 952.286 267.892 952.286H261.255V954.252H267.892C267.984 954.252 268.073 954.289 268.138 954.355C268.204 954.421 268.24 954.511 268.24 954.605V955.871C268.24 956.057 268.314 956.236 268.444 956.368C268.574 956.499 268.751 956.573 268.935 956.573Z" fill="#262626"/>
<path d="M279.461 956.916V958.418C279.461 958.512 279.425 958.602 279.359 958.668C279.294 958.734 279.205 958.771 279.113 958.771H270.872V960.737H279.113C279.158 960.736 279.203 960.745 279.246 960.762C279.288 960.78 279.327 960.805 279.359 960.838C279.392 960.87 279.417 960.909 279.435 960.952C279.452 960.994 279.461 961.04 279.461 961.086V962.326C279.461 962.373 279.452 962.418 279.435 962.461C279.417 962.504 279.392 962.542 279.359 962.575C279.327 962.607 279.288 962.633 279.246 962.65C279.203 962.668 279.158 962.676 279.113 962.676H272.665C272.389 962.676 272.124 962.787 271.929 962.984C271.734 963.182 271.624 963.449 271.624 963.728V971.531H279.113C279.158 971.531 279.203 971.54 279.246 971.557C279.288 971.574 279.327 971.6 279.359 971.633C279.392 971.665 279.417 971.704 279.435 971.746C279.452 971.789 279.461 971.835 279.461 971.881V973.422C279.461 973.516 279.425 973.606 279.359 973.672C279.294 973.738 279.205 973.775 279.113 973.775H270.28V975.74H279.113C279.205 975.74 279.293 975.777 279.358 975.843C279.424 975.908 279.461 975.997 279.461 976.09V977.819C279.461 978.005 279.535 978.184 279.665 978.316C279.795 978.448 279.972 978.522 280.156 978.522H281.613V976.09C281.614 975.998 281.65 975.909 281.715 975.844C281.78 975.778 281.867 975.741 281.959 975.74H290.1C290.284 975.74 290.461 975.666 290.591 975.535C290.721 975.403 290.795 975.224 290.795 975.038V973.775H281.959C281.867 973.774 281.779 973.737 281.714 973.671C281.649 973.605 281.613 973.515 281.613 973.422V971.881C281.613 971.788 281.649 971.699 281.714 971.634C281.779 971.568 281.867 971.531 281.959 971.531H289.45V963.728C289.45 963.449 289.34 963.182 289.145 962.984C288.95 962.787 288.685 962.676 288.409 962.676H281.959C281.913 962.676 281.868 962.667 281.826 962.649C281.784 962.632 281.746 962.606 281.714 962.574C281.682 962.541 281.657 962.503 281.639 962.46C281.622 962.418 281.613 962.372 281.613 962.326V961.086C281.613 960.994 281.649 960.905 281.714 960.839C281.779 960.773 281.867 960.737 281.959 960.737H289.511C289.695 960.737 289.872 960.663 290.002 960.531C290.132 960.399 290.205 960.22 290.205 960.034V958.771H281.959C281.867 958.77 281.779 958.733 281.714 958.667C281.649 958.601 281.613 958.511 281.613 958.418V957.615C281.612 957.43 281.538 957.252 281.408 957.121C281.278 956.99 281.102 956.916 280.918 956.916H279.461ZM279.461 964.784V965.875C279.461 965.921 279.452 965.967 279.435 966.009C279.417 966.052 279.392 966.091 279.359 966.123C279.327 966.156 279.288 966.182 279.246 966.199C279.203 966.216 279.158 966.225 279.113 966.225H274.246C274.201 966.225 274.155 966.216 274.113 966.199C274.071 966.182 274.032 966.156 274 966.123C273.967 966.091 273.942 966.052 273.924 966.009C273.906 965.967 273.897 965.921 273.897 965.875V964.784C273.897 964.69 273.934 964.6 274 964.534C274.065 964.468 274.154 964.431 274.246 964.431H279.113C279.205 964.431 279.294 964.468 279.359 964.534C279.425 964.6 279.461 964.69 279.461 964.784ZM273.897 969.424V968.332C273.897 968.239 273.934 968.149 274 968.083C274.065 968.017 274.154 967.979 274.246 967.979H279.113C279.205 967.979 279.294 968.017 279.359 968.083C279.425 968.149 279.461 968.239 279.461 968.332V969.424C279.461 969.517 279.425 969.607 279.359 969.673C279.294 969.739 279.205 969.776 279.113 969.776H274.246C274.154 969.776 274.065 969.739 274 969.673C273.934 969.607 273.897 969.517 273.897 969.424ZM281.613 969.424V968.332C281.613 968.239 281.649 968.15 281.714 968.084C281.779 968.018 281.867 967.98 281.959 967.979H286.828C286.874 967.979 286.919 967.989 286.962 968.006C287.004 968.024 287.042 968.05 287.075 968.083C287.107 968.116 287.133 968.155 287.15 968.197C287.168 968.24 287.177 968.286 287.177 968.332V969.424C287.177 969.47 287.168 969.516 287.15 969.559C287.133 969.601 287.107 969.64 287.075 969.673C287.042 969.706 287.004 969.732 286.962 969.75C286.919 969.767 286.874 969.776 286.828 969.776H281.959C281.867 969.776 281.779 969.738 281.714 969.672C281.649 969.606 281.613 969.517 281.613 969.424ZM287.177 964.784V965.875C287.177 965.921 287.168 965.967 287.15 966.009C287.133 966.052 287.107 966.091 287.075 966.123C287.042 966.156 287.004 966.182 286.961 966.199C286.919 966.216 286.874 966.225 286.828 966.225H281.959C281.867 966.225 281.779 966.188 281.714 966.122C281.649 966.057 281.613 965.968 281.613 965.875V964.784C281.613 964.691 281.649 964.601 281.714 964.535C281.779 964.469 281.867 964.432 281.959 964.431H286.828C286.921 964.431 287.009 964.468 287.075 964.534C287.14 964.6 287.177 964.69 287.177 964.784Z" fill="#262626"/>
<path d="M284.264 951.937V949.965H282.112V951.937C282.111 952.03 282.074 952.119 282.009 952.184C281.944 952.25 281.855 952.286 281.763 952.286H277.253V954.252H281.763C281.856 954.252 281.945 954.289 282.01 954.355C282.075 954.421 282.112 954.511 282.112 954.605V956.353H283.569C283.753 956.353 283.93 956.279 284.06 956.147C284.19 956.015 284.264 955.837 284.264 955.65V954.605C284.263 954.558 284.272 954.513 284.289 954.47C284.306 954.427 284.332 954.388 284.364 954.355C284.396 954.322 284.434 954.296 284.476 954.279C284.518 954.261 284.564 954.252 284.609 954.252H291.249C291.433 954.252 291.61 954.178 291.74 954.046C291.871 953.914 291.944 953.735 291.944 953.549V952.286H284.609C284.518 952.286 284.43 952.249 284.365 952.184C284.3 952.118 284.264 952.029 284.264 951.937Z" fill="#262626"/>
<path d="M266.502 975.615V969.628C266.503 969.07 266.721 968.534 267.11 968.139L269.031 966.196V963.981C267.703 964.019 266.391 963.675 265.247 962.99C263.827 962.162 262.209 961.743 260.57 961.78V963.991C261.9 963.954 263.213 964.299 264.357 964.985C264.97 965.324 265.613 965.602 266.278 965.817L260.003 972.16L261.575 973.75L263.672 971.622C263.701 971.593 263.738 971.573 263.779 971.565C263.819 971.557 263.861 971.561 263.899 971.577C263.937 971.593 263.97 971.62 263.992 971.654C264.015 971.689 264.027 971.73 264.027 971.771V975.527C264.027 975.992 263.845 976.437 263.522 976.767L260 980.329L261.572 981.915L264.642 978.801C264.773 978.669 264.949 978.596 265.133 978.596C265.318 978.596 265.494 978.669 265.625 978.801L267.485 980.682C267.872 981.073 268.331 981.383 268.836 981.595C269.342 981.807 269.883 981.916 270.43 981.915H291.56V980.5C291.559 980.314 291.485 980.136 291.355 980.005C291.225 979.873 291.049 979.799 290.865 979.798H270.622C270.162 979.798 269.72 979.614 269.393 979.286L267.002 976.864C266.841 976.7 266.713 976.505 266.628 976.29C266.542 976.076 266.499 975.846 266.502 975.615Z" fill="#262626"/>
<path d="M269.022 961.221V959.016C267.693 959.053 266.38 958.708 265.238 958.022C263.817 957.194 262.199 956.775 260.56 956.811V959.016C261.89 958.979 263.202 959.322 264.348 960.006C265.767 960.836 267.383 961.256 269.022 961.221Z" fill="#262626"/>
</svg>
