<svg width="1422" height="111" viewBox="0 0 1422 111" fill="none" xmlns="http://www.w3.org/2000/svg">
<path d="M2.214 15.588C5.022 15.48 9.144 15.318 13.032 15.102C13.41 15.462 13.716 15.786 13.95 16.056L15.66 15.228C14.796 14.274 13.104 12.924 11.79 12.024L10.188 12.78C10.53 13.014 10.908 13.284 11.268 13.572L7.164 13.716C7.524 13.194 7.92 12.582 8.262 11.97L6.012 11.682C5.76 12.312 5.346 13.086 4.932 13.788C3.888 13.824 2.934 13.86 2.106 13.878L2.214 15.588ZM13.194 23.436C11.196 25.47 7.146 26.442 2.826 26.856C3.222 27.342 3.618 28.044 3.798 28.566C8.406 27.954 12.546 26.766 14.922 24.264L13.194 23.436ZM11.232 21.654C9.63 22.932 6.48 23.868 3.744 24.3C4.14 24.732 4.572 25.38 4.788 25.83C7.758 25.2 10.89 24.084 12.834 22.464L11.232 21.654ZM9.324 20.016C8.118 20.844 5.814 21.636 4.05 22.05C4.482 22.41 4.914 22.932 5.184 23.31C7.056 22.788 9.342 21.888 10.836 20.79L9.324 20.016ZM17.298 19.278C17.028 18.486 16.272 17.316 15.552 16.488L14.058 17.1C14.256 17.352 14.454 17.622 14.634 17.91L12.888 18C13.194 17.406 13.536 16.722 13.86 16.092L11.916 15.66C11.736 16.362 11.43 17.316 11.124 18.072C10.638 17.64 10.17 17.172 9.774 16.668H7.92C7.668 17.01 7.38 17.37 7.038 17.712C6.858 17.316 6.642 16.92 6.426 16.578L4.932 17.01C5.094 17.28 5.256 17.586 5.4 17.892L3.978 18.018C4.338 17.442 4.716 16.794 5.058 16.182L3.132 15.732C2.916 16.452 2.538 17.406 2.142 18.18C1.692 18.216 1.242 18.252 0.864 18.27L1.008 19.8L5.094 19.35C3.762 20.286 2.16 21.096 0.468 21.6C0.828 21.996 1.224 22.662 1.404 23.112C4.446 22.086 7.434 20.196 8.928 18.27C10.566 20.34 13.752 22.122 16.56 22.986C16.83 22.482 17.19 21.834 17.586 21.366C16.002 20.988 14.382 20.34 12.924 19.422C13.698 19.332 14.526 19.26 15.372 19.152C15.516 19.458 15.624 19.728 15.714 19.962L17.298 19.278ZM22.842 21.114H24.732V19.35H22.788L22.752 17.838H24.732V16.074H22.698L22.662 14.778C23.544 14.436 24.516 14.004 25.38 13.59V18.216H28.062V22.59H27.036V18.828H25.344V22.59H22.896L22.842 21.114ZM35.838 22.59H34.11C34.272 19.89 34.344 15.948 34.344 12.798H30.294V14.652H32.382C32.382 15.12 32.382 15.588 32.364 16.074H30.51V17.838H32.328C32.31 18.36 32.292 18.864 32.274 19.368H30.492V21.132H32.202C32.166 21.636 32.13 22.14 32.112 22.59H29.88V16.542H27.198V15.336H29.952V13.554H27.198V11.97H25.38V13.23L24.012 11.916C23.472 12.33 22.68 12.834 21.888 13.266L20.682 12.942L20.97 22.59H19.296V24.588H24.084C22.896 25.452 20.952 26.496 19.368 27.09C19.872 27.486 20.628 28.134 21.006 28.566C22.644 27.882 24.822 26.73 26.244 25.74L24.66 24.588H30.042L28.746 25.758C30.564 26.64 32.562 27.828 33.696 28.584L35.802 27.126C34.65 26.424 32.706 25.434 30.924 24.588H35.838V22.59ZM50.814 26.028H44.424V23.58H50.814V26.028ZM48.456 16.146H46.278V21.69H42.336V28.566H44.424V27.9H50.814V28.548H53.01V21.69H48.456V19.728H54.072V17.838H48.456V16.146ZM47.754 13.842V11.772H45.522V13.842H39.114V18.378C39.114 20.97 38.988 24.75 37.512 27.324C38.016 27.558 38.97 28.17 39.366 28.53C40.986 25.722 41.256 21.276 41.256 18.378V15.876H54.306V13.842H47.754ZM59.13 15.12H70.092V17.19H72.288V13.176H65.7V11.772H63.504V13.176H57.024V17.19H59.13V15.12ZM70.614 18.198C69.966 18.81 69.012 19.548 68.112 20.16C67.824 19.494 67.572 18.792 67.374 18.072H69.426V16.272H59.76V18.072H62.388C60.804 18.882 58.806 19.512 56.88 19.89C57.222 20.304 57.762 21.15 57.978 21.564C59.4 21.186 60.876 20.664 62.244 20.034C62.406 20.178 62.55 20.322 62.694 20.466C61.344 21.384 58.95 22.374 57.132 22.806C57.528 23.22 57.978 23.958 58.212 24.426C59.922 23.832 62.136 22.752 63.666 21.726C63.792 21.924 63.9 22.14 64.008 22.356C62.226 23.868 59.094 25.344 56.502 25.992C56.898 26.46 57.366 27.234 57.618 27.774C59.868 27 62.532 25.65 64.494 24.21C64.566 25.164 64.314 25.902 63.9 26.226C63.612 26.55 63.27 26.604 62.82 26.604C62.352 26.604 61.776 26.568 61.092 26.514C61.488 27.108 61.668 27.972 61.704 28.566C62.226 28.602 62.784 28.62 63.234 28.602C64.17 28.602 64.764 28.422 65.43 27.846C67.212 26.55 67.338 22.068 63.954 19.116C64.494 18.792 64.998 18.45 65.448 18.072H65.484C66.51 22.266 68.292 25.578 71.496 27.288C71.838 26.694 72.522 25.848 72.99 25.434C71.298 24.678 69.966 23.4 68.976 21.816C70.02 21.222 71.262 20.412 72.288 19.638L70.614 18.198Z" fill="#262626"/>
<path d="M5.1 89.38V92.215H2.295V89.38H5.1ZM2.295 96.22V93.235H5.1V96.22H2.295ZM6.135 97.255V88.375H1.245V98.635H2.295V97.255H6.135ZM8.505 95.35C8.58 94.675 8.595 94.015 8.595 93.4V92.725H12.78V95.35H8.505ZM12.78 89.14V91.705H8.595V89.14H12.78ZM13.86 88.09H7.515V93.4C7.515 95.725 7.26 98.545 4.74 100.48C4.965 100.63 5.385 101.005 5.565 101.245C7.26 99.94 8.025 98.155 8.355 96.37H12.78V99.67C12.78 99.94 12.675 100.03 12.39 100.045C12.15 100.045 11.205 100.06 10.23 100.03C10.41 100.315 10.59 100.81 10.65 101.11C11.925 101.11 12.75 101.08 13.23 100.915C13.71 100.72 13.86 100.375 13.86 99.67V88.09ZM26.805 90.265H19.095V88.96H26.805V90.265ZM26.805 92.455H19.095V91.12H26.805V92.455ZM27.93 88.06H18V93.355H27.93V88.06ZM23.535 99.775V98.155H27.9V97.255H23.535V95.845H28.515V94.885H23.535V93.685H22.395V94.885H19.395C19.635 94.495 19.875 94.075 20.07 93.67L18.975 93.37C18.375 94.675 17.34 95.965 16.23 96.805C16.515 96.955 16.965 97.3 17.175 97.51C17.685 97.045 18.225 96.475 18.72 95.845H22.395V97.255H18.21V98.155H22.395V99.775H16.455V100.765H29.46V99.775H23.535ZM34.905 93.1C34.305 92.605 33.09 91.96 32.13 91.585L31.53 92.395C32.505 92.83 33.69 93.52 34.29 94.03L34.905 93.1ZM32.955 100.93C33.78 99.55 34.77 97.69 35.505 96.115L34.68 95.41C33.855 97.105 32.775 99.055 32.01 100.21L32.955 100.93ZM32.325 88.375C33.285 88.825 34.455 89.56 35.025 90.1L35.685 89.215C35.085 88.66 33.9 87.985 32.94 87.58L32.325 88.375ZM45.24 96.64H41.01V94.435H44.415V93.415H41.01V91.285H44.88V90.235H42.54C42.99 89.59 43.53 88.66 43.98 87.82L42.81 87.43C42.495 88.21 41.91 89.305 41.46 90.01L42.075 90.235H38.64L39.36 89.905C39.12 89.23 38.505 88.21 37.935 87.475L36.945 87.88C37.455 88.585 37.995 89.56 38.25 90.235H36.165V91.285H39.885V93.415H36.6V94.435H39.885V96.64H35.79V97.705H39.885V101.14H41.01V97.705H45.24V96.64ZM49.005 95.05C49.02 94.45 49.035 93.865 49.035 93.355V92.53H51.3V95.05H49.005ZM51.3 89.035V91.495H49.035V89.035H51.3ZM52.335 88H48.015V93.355C48.015 95.56 47.94 98.53 46.905 100.63C47.175 100.735 47.625 100.99 47.82 101.17C48.495 99.76 48.81 97.885 48.945 96.115H51.3V99.805C51.3 100.015 51.225 100.075 51.015 100.09C50.835 100.105 50.205 100.105 49.515 100.09C49.665 100.375 49.815 100.87 49.83 101.155C50.85 101.155 51.45 101.14 51.825 100.945C52.215 100.75 52.335 100.42 52.335 99.82V88ZM59.19 94.135C58.845 95.41 58.335 96.535 57.69 97.495C57 96.505 56.46 95.365 56.055 94.135H59.19ZM59.76 93.07L59.565 93.1H54.705V89.08H58.905V90.91C58.905 91.09 58.845 91.15 58.605 91.15C58.38 91.165 57.6 91.165 56.685 91.15C56.835 91.42 57 91.795 57.045 92.095C58.17 92.095 58.92 92.095 59.4 91.945C59.85 91.78 59.985 91.495 59.985 90.925V88.045H53.655V101.155H54.705V94.135H55.08C55.575 95.68 56.235 97.12 57.075 98.335C56.385 99.145 55.605 99.79 54.78 100.24C55.005 100.435 55.29 100.81 55.44 101.065C56.265 100.585 57.03 99.94 57.705 99.145C58.425 99.985 59.235 100.66 60.135 101.17C60.3 100.9 60.6 100.525 60.855 100.315C59.91 99.85 59.07 99.175 58.35 98.35C59.295 97.015 60.015 95.335 60.405 93.295L59.76 93.07ZM68.715 95.935C68.34 95.605 67.02 94.45 66.315 93.895C67.11 92.89 67.8 91.78 68.265 90.625L67.635 90.205L67.44 90.25H66.135V87.46H65.04V90.25H62.685V91.27H66.855C65.82 93.265 63.945 95.155 62.16 96.19C62.34 96.4 62.625 96.91 62.745 97.195C63.51 96.7 64.29 96.07 65.04 95.32V101.14H66.135V94.93C66.81 95.56 67.635 96.4 68.025 96.835L68.715 95.935ZM72.795 99.625V93.4H75.99V92.32H72.795V87.565H71.685V92.32H68.475V93.4H71.685V99.625H67.89V100.72H76.29V99.625H72.795Z" fill="#262626"/>
<path d="M108.54 90.52H104.19V89.44H107.625V88.6H104.19V87.46H103.11V88.6H99.75V89.44H103.11V90.52H98.94V91.36H108.54V90.52ZM101.19 92.98H106.185V94.48H101.19V92.98ZM107.22 95.29C106.695 95.71 106.005 96.22 105.42 96.58C104.925 96.19 104.505 95.755 104.19 95.29H107.22ZM103.095 99.205H104.145V96.58C105.12 97.66 106.485 98.5 107.955 98.92C108.09 98.665 108.36 98.275 108.6 98.065C107.7 97.855 106.845 97.51 106.095 97.045C106.8 96.64 107.64 96.1 108.33 95.575L107.505 95.05L107.28 95.245V92.17H100.17V95.29H102.72C101.775 96.31 100.305 97.12 98.865 97.66C99.075 97.855 99.42 98.29 99.54 98.515C100.785 97.975 102.09 97.21 103.095 96.265V99.205ZM98.655 90.265C98.19 89.53 97.155 88.51 96.24 87.82L95.385 88.45C96.3 89.17 97.305 90.205 97.755 90.955L98.655 90.265ZM98.205 93.325H95.25V94.375H97.155V98.215C96.48 98.845 95.715 99.475 95.085 99.94L95.67 101.005C96.405 100.36 97.095 99.73 97.755 99.085C98.685 100.255 100.035 100.78 102 100.855C103.68 100.93 106.845 100.9 108.525 100.825C108.57 100.495 108.75 99.985 108.885 99.73C107.085 99.85 103.635 99.895 101.985 99.82C100.23 99.76 98.91 99.25 98.205 98.14V93.325ZM113.37 94.315H116.85V95.77H113.37V94.315ZM113.37 92.065H116.85V93.49H113.37V92.065ZM121.665 92.065V93.49H117.975V92.065H121.665ZM121.665 95.77H117.975V94.315H121.665V95.77ZM122.79 96.64V91.18H117.975V89.92H123.99V88.87H117.975V87.46H116.85V88.87H110.985V89.92H116.85V91.18H112.29V96.64H115.92C114.585 98.035 112.5 99.325 110.61 99.985C110.88 100.21 111.21 100.63 111.39 100.915C113.295 100.135 115.425 98.71 116.85 97.105V101.14H117.975V97.06C119.415 98.68 121.605 100.165 123.555 100.945C123.72 100.63 124.065 100.21 124.335 99.985C122.415 99.34 120.285 98.05 118.92 96.64H122.79ZM139.44 90.22C139.14 89.545 138.405 88.54 137.67 87.835L136.845 88.255C137.535 88.975 138.255 89.995 138.54 90.7L139.44 90.22ZM130.155 89.68C129.945 90.205 129.675 90.79 129.42 91.225H127.74C128.025 90.715 128.265 90.205 128.46 89.68H130.155ZM131.28 93.64H129.945V92.14H131.28V93.64ZM131.28 96.055H129.945V94.51H131.28V96.055ZM127.83 93.64V92.14H129.12V93.64H127.83ZM129.12 94.51V96.055H127.83V94.51H129.12ZM126.93 92.5V96.985H132.21V91.225H130.41C130.8 90.595 131.175 89.845 131.475 89.17L130.83 88.735L130.635 88.795H128.79C128.925 88.39 129.045 87.985 129.15 87.595L128.13 87.46C127.8 88.855 127.11 90.685 126.015 92.065C126.255 92.17 126.6 92.47 126.78 92.695L126.93 92.5ZM126.705 101.14C127.44 100.39 127.71 99.1 127.86 97.855L127.05 97.66C126.93 98.83 126.645 100.015 125.97 100.675L126.705 101.14ZM128.37 97.81C128.535 98.695 128.61 99.82 128.55 100.555L129.36 100.435C129.39 99.715 129.3 98.575 129.12 97.705L128.37 97.81ZM129.78 97.78C130.08 98.56 130.335 99.565 130.38 100.24L131.145 100.06C131.07 99.4 130.815 98.38 130.485 97.63L129.78 97.78ZM132.78 99.31C132.63 98.785 132.285 98.005 131.94 97.375L131.235 97.63C131.58 98.245 131.895 99.07 132.03 99.595L132.78 99.31ZM137.175 99.925C136.815 99.925 136.755 99.85 136.755 99.43V93.22H136.2C136.215 92.95 136.23 92.68 136.245 92.425H139.74V91.39H136.29C136.29 91.135 136.29 90.895 136.29 90.655V87.445H135.27V90.64C135.27 90.88 135.27 91.135 135.27 91.39H132.555V92.425H135.225C135.075 95.035 134.445 98.065 132 100.435C132.27 100.6 132.66 100.96 132.84 101.155C134.385 99.64 135.24 97.855 135.72 96.07V99.43C135.72 100.585 135.99 100.915 137.025 100.915H138.495C139.44 100.915 139.71 100.345 139.8 98.35C139.515 98.275 139.095 98.095 138.87 97.915C138.825 99.625 138.75 99.925 138.405 99.925H137.175ZM149.34 89.335C149.04 89.86 148.62 90.43 148.23 90.865H144.615C145.095 90.37 145.53 89.845 145.92 89.335H149.34ZM152.385 93.55H148.86V91.81H152.385V93.55ZM152.385 96.205H148.86V94.435H152.385V96.205ZM144.45 94.435H147.795V96.205H144.45V94.435ZM144.45 91.81H147.795V93.55H144.45V91.81ZM143.385 97.15H153.51V90.865H149.58C150.075 90.25 150.585 89.5 150.915 88.84L150.15 88.375L149.97 88.42H146.58C146.76 88.15 146.925 87.895 147.075 87.64L145.83 87.4C145.05 88.84 143.58 90.655 141.57 91.96C141.825 92.14 142.2 92.515 142.365 92.785C142.725 92.53 143.055 92.275 143.385 92.005V97.15ZM142.485 101.185C143.4 100.45 144.18 99.22 144.645 98.035L143.58 97.735C143.145 98.845 142.35 100 141.495 100.615L142.485 101.185ZM146.07 98.125C146.25 99.055 146.37 100.255 146.37 100.975L147.495 100.84C147.48 100.135 147.33 98.95 147.135 98.05L146.07 98.125ZM149.04 98.155C149.475 99.055 149.91 100.255 150.06 100.975L151.125 100.705C150.96 99.985 150.495 98.8 150.06 97.945L149.04 98.155ZM151.965 98.05C152.835 98.995 153.81 100.3 154.2 101.155L155.265 100.66C154.83 99.79 153.84 98.515 152.97 97.615L151.965 98.05ZM157.785 94.24C158.685 93.82 159.33 93.145 159.75 92.47L159.27 92.23H162.24L161.43 92.425C161.685 92.86 161.91 93.43 161.955 93.805L162.885 93.565C162.795 93.19 162.57 92.65 162.315 92.23H164.955L164.295 92.425C164.61 92.845 164.91 93.415 165.015 93.79L165.915 93.505C165.795 93.13 165.525 92.62 165.195 92.23H168L167.445 92.56C168.225 92.995 169.185 93.73 169.665 94.24L170.46 93.715C170.04 93.28 169.185 92.665 168.42 92.23H170.265V91.48H164.325V90.79H169.065V90.1H164.325V89.44H169.77V88.69H166.8C167.07 88.405 167.385 88.045 167.67 87.67L166.455 87.43C166.275 87.775 165.9 88.33 165.63 88.69H161.685L162 88.57C161.82 88.255 161.4 87.775 161.04 87.43L160.035 87.745C160.305 88.015 160.605 88.375 160.815 88.69H158.04V89.44H163.26V90.1H158.79V90.79H163.26V91.48H157.335V92.23H158.91C158.505 92.785 157.875 93.34 157.11 93.64L157.785 94.24ZM170.31 99.01V98.29H164.085C164.16 98.065 164.235 97.825 164.28 97.555H170.49V96.79H164.28V96.13H169.17V95.455H164.28V94.795H169.5V94.09H167.19C167.4 93.865 167.61 93.625 167.82 93.37L166.755 93.085C166.575 93.37 166.305 93.76 166.035 94.09H161.625C161.415 93.775 161.07 93.4 160.755 93.13L159.87 93.43C160.095 93.61 160.32 93.85 160.5 94.09H158.175V94.795H163.23V95.455H158.535V96.13H163.23V96.79H157.185V97.555H163.245C163.185 97.825 163.11 98.065 163.005 98.29H157.365V99.01H162.51C161.685 99.82 160.11 100.195 157.095 100.375C157.26 100.57 157.44 100.945 157.5 101.17C161.145 100.9 162.885 100.33 163.725 99.025C164.925 100.42 167.19 101.005 170.13 101.155C170.25 100.9 170.475 100.525 170.7 100.3C168.12 100.255 166.005 99.91 164.85 99.01H170.31Z" fill="#262626"/>
<path d="M196.86 97.525H200.97V98.35H196.965V99.04H200.97V99.925H192.18V99.04H195.99V98.35H192.18V97.66C193.605 97.48 195.195 97.195 196.29 96.82L195.54 96.205C194.745 96.505 193.35 96.775 192.045 96.97L191.07 96.73V101.17H192.18V100.69H200.97V101.155H202.065V96.79H196.86V97.525ZM196.005 92.44H192.585V91.645H196.005V92.44ZM196.005 93.835H192.585V93.1H196.005V93.835ZM196.005 95.275H192.585V94.51H196.005V95.275ZM199.5 90.175V89.365H203.115V88.465H199.5V87.46H198.405V88.465H194.52V87.46H193.44V88.465H189.945V89.365H193.44V89.86L192.525 89.71C192.03 90.745 191.085 92.095 189.795 93.07C190.035 93.22 190.365 93.535 190.53 93.745C190.905 93.43 191.265 93.1 191.58 92.755V96.355H192.585V96.04H202.725V95.275H197.04V94.51H201.51V93.835H197.04V93.1H201.465V92.44H197.04V91.645H202.17V90.88H196.92C197.1 90.565 197.28 90.22 197.46 89.86L196.335 89.695C196.245 90.025 196.065 90.49 195.9 90.88H193.02C193.17 90.64 193.305 90.385 193.44 90.145V90.175H194.52V89.365H198.405V90.175H199.5ZM215.7 97.315V98.23H208.32V97.315H215.7ZM208.32 99.91V98.95H215.7V99.91H208.32ZM207.24 101.185H208.32V100.69H215.7V101.155H216.81V96.55H207.24V101.185ZM212.445 90.91H215.64V91.795H212.445V90.91ZM212.445 89.23H215.64V90.07H212.445V89.23ZM212.445 95.02V94.135H217.56V93.37H212.445V92.545H216.735V90.91H218.565V90.07H216.735V88.48H212.445V87.43H211.35V88.48H206.925V89.23H211.35V90.07H205.35V90.91H211.35V91.795H206.76V92.545H211.35V93.37H206.34V94.135H211.35V95.02H205.32V95.845H218.58V95.02H212.445ZM233.94 88.78C233.505 88.345 232.59 87.76 231.855 87.385L231.27 88.015C232.035 88.42 232.92 89.035 233.355 89.485L233.94 88.78ZM232.845 92.875V94.375H230.715V92.875H232.845ZM230.715 96.79V95.245H232.845V96.79H230.715ZM227.76 96.79V95.245H229.71V96.79H227.76ZM229.71 92.875V94.375H227.76V92.875H229.71ZM234.165 90.55V89.53H230.715V87.445H229.71V89.53H226.47V90.01C225.93 89.26 224.91 88.21 224.085 87.46H223.065C222.57 88.645 221.61 90.16 220.26 91.3C220.455 91.435 220.785 91.78 220.95 92.005C221.16 91.81 221.37 91.615 221.565 91.42V92.095H223.11V93.685H220.77V94.66H223.11V99.175C222.18 99.37 221.325 99.535 220.635 99.655L220.86 100.675C222.405 100.345 224.475 99.895 226.44 99.445L226.35 98.515C225.6 98.665 224.82 98.83 224.085 98.98V94.66H226.23V93.685H224.085V92.095H225.75V91.135H221.82C222.645 90.235 223.26 89.275 223.71 88.465C224.52 89.23 225.39 90.325 225.825 91L226.47 90.28V90.55H229.71V91.915H226.755V101.14H227.76V97.765H229.71V101.125H230.715V97.765H232.845V99.895C232.845 100.06 232.785 100.12 232.635 100.12C232.47 100.135 231.99 100.135 231.435 100.105C231.57 100.375 231.735 100.84 231.765 101.125C232.59 101.125 233.085 101.11 233.43 100.93C233.775 100.75 233.865 100.435 233.865 99.91V91.915H230.715V90.55H234.165ZM225.36 98.215C225.585 97.525 225.87 96.46 226.11 95.545L225.24 95.32C225.12 96.115 224.835 97.3 224.625 98.02L225.36 98.215ZM221.115 95.65C221.4 96.55 221.625 97.705 221.655 98.485L222.48 98.275C222.435 97.51 222.195 96.355 221.88 95.455L221.115 95.65ZM249.63 94.105H243.45V92.635C245.115 91.735 247.08 90.34 248.355 89.05L247.545 88.435L247.275 88.495H237.66V89.575H246.105C245.235 90.325 244.08 91.12 243.015 91.705H242.31V94.105H236.115V95.215H242.31V99.7C242.31 99.97 242.22 100.045 241.89 100.06C241.575 100.075 240.465 100.075 239.265 100.03C239.46 100.345 239.655 100.855 239.745 101.17C241.17 101.185 242.145 101.155 242.7 100.975C243.255 100.795 243.45 100.45 243.45 99.7V95.215H249.63V94.105Z" fill="#262626"/>
<path d="M274.545 90.325C273.395 90.325 272.49 90.71 271.83 91.48C271.17 92.25 270.84 93.305 270.84 94.645C270.84 95.975 271.145 97.03 271.755 97.81C272.375 98.58 273.3 98.965 274.53 98.965C274.99 98.965 275.43 98.925 275.85 98.845C276.27 98.765 276.685 98.665 277.095 98.545V99.715C276.695 99.865 276.28 99.975 275.85 100.045C275.43 100.115 274.925 100.15 274.335 100.15C273.245 100.15 272.335 99.925 271.605 99.475C270.875 99.025 270.325 98.385 269.955 97.555C269.595 96.725 269.415 95.75 269.415 94.63C269.415 93.55 269.61 92.6 270 91.78C270.4 90.95 270.985 90.305 271.755 89.845C272.525 89.375 273.46 89.14 274.56 89.14C275.69 89.14 276.675 89.35 277.515 89.77L276.975 90.91C276.645 90.76 276.275 90.625 275.865 90.505C275.465 90.385 275.025 90.325 274.545 90.325ZM282.748 91.825C283.728 91.825 284.453 92.04 284.923 92.47C285.393 92.9 285.628 93.585 285.628 94.525V100H284.668L284.413 98.86H284.353C284.003 99.3 283.633 99.625 283.243 99.835C282.853 100.045 282.323 100.15 281.653 100.15C280.923 100.15 280.318 99.96 279.838 99.58C279.358 99.19 279.118 98.585 279.118 97.765C279.118 96.965 279.433 96.35 280.063 95.92C280.693 95.48 281.663 95.24 282.973 95.2L284.338 95.155V94.675C284.338 94.005 284.193 93.54 283.903 93.28C283.613 93.02 283.203 92.89 282.673 92.89C282.253 92.89 281.853 92.955 281.473 93.085C281.093 93.205 280.738 93.345 280.408 93.505L280.003 92.515C280.353 92.325 280.768 92.165 281.248 92.035C281.728 91.895 282.228 91.825 282.748 91.825ZM284.323 96.07L283.138 96.115C282.138 96.155 281.443 96.315 281.053 96.595C280.673 96.875 280.483 97.27 280.483 97.78C280.483 98.23 280.618 98.56 280.888 98.77C281.168 98.98 281.523 99.085 281.953 99.085C282.623 99.085 283.183 98.9 283.633 98.53C284.093 98.15 284.323 97.57 284.323 96.79V96.07ZM292.266 92.98H290.241V100H288.921V92.98H287.511V92.365L288.921 91.915V91.45C288.921 90.41 289.146 89.665 289.596 89.215C290.056 88.755 290.701 88.525 291.531 88.525C291.841 88.525 292.131 88.555 292.401 88.615C292.671 88.665 292.901 88.725 293.091 88.795L292.746 89.83C292.586 89.78 292.401 89.73 292.191 89.68C291.981 89.63 291.766 89.605 291.546 89.605C291.106 89.605 290.776 89.755 290.556 90.055C290.346 90.345 290.241 90.805 290.241 91.435V91.96H292.266V92.98ZM297.272 91.81C297.952 91.81 298.542 91.96 299.042 92.26C299.542 92.56 299.922 92.985 300.182 93.535C300.452 94.075 300.587 94.71 300.587 95.44V96.235H295.082C295.102 97.145 295.332 97.84 295.772 98.32C296.222 98.79 296.847 99.025 297.647 99.025C298.157 99.025 298.607 98.98 298.997 98.89C299.397 98.79 299.807 98.65 300.227 98.47V99.625C299.817 99.805 299.412 99.935 299.012 100.015C298.612 100.105 298.137 100.15 297.587 100.15C296.817 100.15 296.142 99.995 295.562 99.685C294.982 99.375 294.527 98.915 294.197 98.305C293.877 97.695 293.717 96.94 293.717 96.04C293.717 95.16 293.862 94.405 294.152 93.775C294.452 93.145 294.867 92.66 295.397 92.32C295.937 91.98 296.562 91.81 297.272 91.81ZM297.257 92.89C296.627 92.89 296.127 93.095 295.757 93.505C295.397 93.905 295.182 94.465 295.112 95.185H299.207C299.197 94.505 299.037 93.955 298.727 93.535C298.417 93.105 297.927 92.89 297.257 92.89ZM312.2 90.325C311.05 90.325 310.145 90.71 309.485 91.48C308.825 92.25 308.495 93.305 308.495 94.645C308.495 95.975 308.8 97.03 309.41 97.81C310.03 98.58 310.955 98.965 312.185 98.965C312.645 98.965 313.085 98.925 313.505 98.845C313.925 98.765 314.34 98.665 314.75 98.545V99.715C314.35 99.865 313.935 99.975 313.505 100.045C313.085 100.115 312.58 100.15 311.99 100.15C310.9 100.15 309.99 99.925 309.26 99.475C308.53 99.025 307.98 98.385 307.61 97.555C307.25 96.725 307.07 95.75 307.07 94.63C307.07 93.55 307.265 92.6 307.655 91.78C308.055 90.95 308.64 90.305 309.41 89.845C310.18 89.375 311.115 89.14 312.215 89.14C313.345 89.14 314.33 89.35 315.17 89.77L314.63 90.91C314.3 90.76 313.93 90.625 313.52 90.505C313.12 90.385 312.68 90.325 312.2 90.325ZM324.348 95.965C324.348 97.295 324.008 98.325 323.328 99.055C322.658 99.785 321.748 100.15 320.598 100.15C319.888 100.15 319.253 99.99 318.693 99.67C318.143 99.34 317.708 98.865 317.388 98.245C317.068 97.615 316.908 96.855 316.908 95.965C316.908 94.635 317.238 93.61 317.898 92.89C318.568 92.17 319.483 91.81 320.643 91.81C321.363 91.81 322.003 91.975 322.563 92.305C323.123 92.625 323.558 93.095 323.868 93.715C324.188 94.325 324.348 95.075 324.348 95.965ZM318.273 95.965C318.273 96.915 318.458 97.67 318.828 98.23C319.208 98.78 319.808 99.055 320.628 99.055C321.438 99.055 322.033 98.78 322.413 98.23C322.793 97.67 322.983 96.915 322.983 95.965C322.983 95.015 322.793 94.27 322.413 93.73C322.033 93.19 321.433 92.92 320.613 92.92C319.793 92.92 319.198 93.19 318.828 93.73C318.458 94.27 318.273 95.015 318.273 95.965ZM330.715 91.81C331.705 91.81 332.5 92.155 333.1 92.845C333.71 93.535 334.015 94.575 334.015 95.965C334.015 97.335 333.71 98.375 333.1 99.085C332.5 99.795 331.7 100.15 330.7 100.15C330.08 100.15 329.565 100.035 329.155 99.805C328.755 99.575 328.44 99.3 328.21 98.98H328.12C328.13 99.15 328.145 99.365 328.165 99.625C328.195 99.885 328.21 100.11 328.21 100.3V103.6H326.89V91.96H327.97L328.15 93.055H328.21C328.45 92.705 328.765 92.41 329.155 92.17C329.545 91.93 330.065 91.81 330.715 91.81ZM330.475 92.92C329.655 92.92 329.075 93.15 328.735 93.61C328.395 94.07 328.22 94.77 328.21 95.71V95.965C328.21 96.955 328.37 97.72 328.69 98.26C329.02 98.79 329.625 99.055 330.505 99.055C330.985 99.055 331.385 98.925 331.705 98.665C332.025 98.395 332.26 98.025 332.41 97.555C332.57 97.085 332.65 96.55 332.65 95.95C332.65 95.03 332.47 94.295 332.11 93.745C331.76 93.195 331.215 92.92 330.475 92.92ZM337.243 88.945C337.443 88.945 337.618 89.015 337.768 89.155C337.928 89.285 338.008 89.495 338.008 89.785C338.008 90.075 337.928 90.29 337.768 90.43C337.618 90.56 337.443 90.625 337.243 90.625C337.023 90.625 336.838 90.56 336.688 90.43C336.538 90.29 336.463 90.075 336.463 89.785C336.463 89.495 336.538 89.285 336.688 89.155C336.838 89.015 337.023 88.945 337.243 88.945ZM337.888 91.96V100H336.568V91.96H337.888ZM343.571 99.07C343.771 99.07 343.976 99.055 344.186 99.025C344.396 98.995 344.566 98.955 344.696 98.905V99.91C344.556 99.98 344.356 100.035 344.096 100.075C343.836 100.125 343.586 100.15 343.346 100.15C342.926 100.15 342.536 100.08 342.176 99.94C341.826 99.79 341.541 99.535 341.321 99.175C341.101 98.815 340.991 98.31 340.991 97.66V92.98H339.851V92.35L341.006 91.825L341.531 90.115H342.311V91.96H344.636V92.98H342.311V97.63C342.311 98.12 342.426 98.485 342.656 98.725C342.896 98.955 343.201 99.07 343.571 99.07ZM349.8 91.825C350.78 91.825 351.505 92.04 351.975 92.47C352.445 92.9 352.68 93.585 352.68 94.525V100H351.72L351.465 98.86H351.405C351.055 99.3 350.685 99.625 350.295 99.835C349.905 100.045 349.375 100.15 348.705 100.15C347.975 100.15 347.37 99.96 346.89 99.58C346.41 99.19 346.17 98.585 346.17 97.765C346.17 96.965 346.485 96.35 347.115 95.92C347.745 95.48 348.715 95.24 350.025 95.2L351.39 95.155V94.675C351.39 94.005 351.245 93.54 350.955 93.28C350.665 93.02 350.255 92.89 349.725 92.89C349.305 92.89 348.905 92.955 348.525 93.085C348.145 93.205 347.79 93.345 347.46 93.505L347.055 92.515C347.405 92.325 347.82 92.165 348.3 92.035C348.78 91.895 349.28 91.825 349.8 91.825ZM351.375 96.07L350.19 96.115C349.19 96.155 348.495 96.315 348.105 96.595C347.725 96.875 347.535 97.27 347.535 97.78C347.535 98.23 347.67 98.56 347.94 98.77C348.22 98.98 348.575 99.085 349.005 99.085C349.675 99.085 350.235 98.9 350.685 98.53C351.145 98.15 351.375 97.57 351.375 96.79V96.07Z" fill="#262626"/>
<path d="M379.365 96.145C378.99 95.77 377.355 94.24 376.8 93.775V92.875H379.425V91.81H376.8V89.14C377.7 88.915 378.555 88.66 379.23 88.375L378.405 87.55C377.13 88.135 374.79 88.645 372.78 88.96C372.915 89.2 373.065 89.575 373.125 89.83C373.95 89.71 374.835 89.56 375.705 89.38V91.81H372.81V92.875H375.495C374.79 94.645 373.575 96.655 372.495 97.735C372.675 98.02 372.96 98.47 373.08 98.785C373.995 97.765 374.97 96.13 375.705 94.495V101.095H376.8V94.915C377.475 95.605 378.33 96.52 378.675 97L379.365 96.145ZM386.415 100.765C386.085 99.16 385.065 96.655 384.015 94.735L382.965 95.065C383.55 96.16 384.12 97.45 384.54 98.65C383.1 98.8 381.66 98.95 380.385 99.085C381.255 95.98 382.23 91.495 382.815 87.97L381.57 87.76C381.09 91.3 380.1 96.085 379.23 99.205C378.705 99.25 378.24 99.295 377.82 99.34L378.09 100.495C379.89 100.285 382.425 99.97 384.885 99.64C385.05 100.195 385.185 100.705 385.26 101.14L386.415 100.765ZM399.84 90.25H395.49V88.84H399.84V90.25ZM399.84 92.515H395.49V91.09H399.84V92.515ZM400.92 87.94H394.47V93.415H400.92V87.94ZM392.235 91.57C392.07 93.505 391.725 95.14 391.23 96.46C390.705 96.04 390.15 95.62 389.64 95.26C389.895 94.12 390.18 92.845 390.45 91.57H392.235ZM392.67 90.505L392.475 90.535H390.66C390.885 89.485 391.08 88.465 391.245 87.55L390.165 87.445C390.015 88.375 389.82 89.44 389.61 90.535H388.11V91.57H389.415C389.04 93.4 388.635 95.215 388.305 96.475L389.22 96.97L389.385 96.325C389.85 96.685 390.315 97.075 390.78 97.48C390.12 98.77 389.265 99.685 388.23 100.255C388.455 100.48 388.74 100.9 388.89 101.155C390 100.48 390.9 99.535 391.59 98.23C392.145 98.77 392.61 99.28 392.94 99.715L393.645 98.8C393.285 98.32 392.715 97.765 392.07 97.195C392.745 95.515 393.165 93.355 393.315 90.61L392.67 90.505ZM394.965 99.565V97.99H400.29V99.565H394.965ZM400.29 95.545V97.045H394.965V95.545H400.29ZM393.915 94.585V101.125H394.965V100.54H400.29V101.05H401.37V94.585H393.915ZM406.905 98.095C406.275 98.905 405.15 99.67 404.115 100.195C404.355 100.36 404.79 100.765 404.955 100.96C406.02 100.36 407.22 99.415 407.955 98.44L406.905 98.095ZM412.425 98.59C413.505 99.25 414.78 100.24 415.38 100.915L416.325 100.33C415.68 99.64 414.375 98.695 413.325 98.05L412.425 98.59ZM408.105 93.49C408.645 92.995 409.125 92.425 409.53 91.795H411.255C411.63 92.425 412.095 92.98 412.635 93.49H408.105ZM413.25 95.245H407.49V94.285H413.25V95.245ZM413.25 97H407.49V95.995H413.25V97ZM415.335 91.78C414.96 92.2 414.33 92.77 413.805 93.22C413.235 92.8 412.74 92.32 412.35 91.795H415.125V90.88H410.04C410.22 90.52 410.37 90.145 410.505 89.74L409.695 89.575H415.59V91.21H416.655V88.585H410.925V87.46H409.83V88.585H404.115V91.21H405.135V89.575H409.395C409.245 90.04 409.065 90.475 408.855 90.88H405.735V91.795H408.27C407.91 92.29 407.475 92.725 406.995 93.1C406.59 92.695 405.93 92.185 405.405 91.825L404.67 92.41C405.18 92.77 405.78 93.28 406.17 93.685C405.42 94.165 404.55 94.54 403.59 94.825C403.83 95.035 404.19 95.47 404.355 95.68C405.105 95.41 405.81 95.08 406.455 94.705V97.78H409.845V99.97C409.845 100.135 409.8 100.195 409.575 100.21C409.335 100.225 408.585 100.225 407.745 100.195C407.895 100.465 408.06 100.855 408.135 101.14C409.2 101.14 409.905 101.155 410.355 100.99C410.82 100.84 410.94 100.555 410.94 100V97.78H414.33V94.72C415.005 95.095 415.755 95.395 416.535 95.62C416.67 95.35 416.97 94.945 417.21 94.735C416.25 94.525 415.335 94.165 414.54 93.7C415.08 93.325 415.71 92.815 416.265 92.32L415.335 91.78ZM425.4 94.15H428.4V95.68H425.4V94.15ZM425.4 91.825H428.4V93.19H425.4V91.825ZM421.62 89.14H430.575V90.85H421.62V89.14ZM430.92 96.73C430.35 97.195 429.435 97.81 428.67 98.245C428.19 97.78 427.785 97.24 427.47 96.64H432.555V95.68H429.435V94.15H431.955V93.19H429.435V91.825H431.67V88.165H420.495V92.53C420.495 94.93 420.375 98.23 418.875 100.585C419.145 100.69 419.64 100.975 419.85 101.155C421.395 98.725 421.62 95.08 421.62 92.53V91.825H424.35V93.19H422.115V94.15H424.35V95.68H421.665V96.64H423.555V99.655C422.91 99.76 422.325 99.85 421.83 99.91L422.01 100.945C423.57 100.675 425.745 100.315 427.8 99.97L427.755 98.995C426.675 99.175 425.595 99.34 424.59 99.505V96.64H426.435C427.44 98.935 429.345 100.495 432.045 101.17C432.165 100.885 432.465 100.48 432.705 100.24C431.4 99.985 430.275 99.505 429.36 98.83C430.14 98.425 431.04 97.855 431.76 97.315L430.92 96.73ZM446.55 88.57H436.08V89.665H446.55V88.57ZM437.355 94.735C436.695 96.43 435.615 98.065 434.385 99.115C434.67 99.265 435.18 99.61 435.39 99.79C436.59 98.65 437.76 96.865 438.495 95.035L437.355 94.735ZM444.03 95.17C445.125 96.625 446.235 98.56 446.655 99.79L447.75 99.31C447.315 98.05 446.145 96.145 445.05 94.75L444.03 95.17ZM434.745 92.185V93.28H440.73V99.67C440.73 99.91 440.64 99.985 440.355 99.985C440.085 100 439.11 100 438.09 99.97C438.255 100.3 438.435 100.795 438.495 101.125C439.8 101.125 440.685 101.11 441.21 100.93C441.735 100.75 441.915 100.405 441.915 99.7V93.28H447.87V92.185H434.745ZM454.485 92.215V93.4H451.905V92.215H454.485ZM451.905 95.38V94.18H454.485V95.38H451.905ZM453.405 97.18C453.69 97.57 453.975 98.005 454.23 98.455C453.435 98.665 452.64 98.86 451.905 99.04V96.235H455.475V91.39H453.81V89.965H452.85V91.39H450.975C451.995 90.4 452.73 89.32 453.24 88.405C454.065 89.14 454.92 90.205 455.355 90.895L456.09 90.07C455.595 89.305 454.545 88.225 453.63 87.46H452.565C452.01 88.645 451.02 90.175 449.58 91.3C449.805 91.435 450.135 91.78 450.285 92.005C450.495 91.825 450.705 91.645 450.9 91.465V99.28L449.88 99.52L450.225 100.54C451.47 100.21 453.105 99.745 454.68 99.295C454.92 99.775 455.1 100.225 455.22 100.6L456.165 100.15C455.865 99.22 455.07 97.825 454.275 96.775L453.405 97.18ZM462.075 97.36V99.415H458.07V97.36H462.075ZM462.405 89.995V91.45H457.14V89.995H462.405ZM461.46 94.255H458.07V92.38H461.46V94.255ZM462.48 95.17V91.585H463.455V89.065H460.245V87.445H459.18V89.065H456.135V91.585H457.05V101.14H458.07V100.375H462.075V101.02H463.095V96.43H458.07V95.17H462.48Z" fill="#262626"/>
<path d="M496.78 99.325H485.05V89.29H496.405V88.24H483.94V101.17H485.05V100.375H496.78V99.325ZM492.565 98.605V94.36H495.85V93.37H488.125V93.325V91.81C490.39 91.615 492.985 91.285 494.68 90.73L493.795 89.965C492.55 90.385 490.3 90.715 488.245 90.925L487.06 90.64V93.31C487.06 94.705 486.91 96.505 485.785 97.9C486.04 98.035 486.43 98.395 486.58 98.635C487.63 97.375 487.99 95.755 488.095 94.36H491.5V98.605H492.565ZM508.75 92.815C510.01 94.495 511.105 96.82 511.45 98.38L512.545 97.855C512.185 96.28 511.06 94.015 509.725 92.32L508.75 92.815ZM500.05 92.815C499.855 94.735 499.36 96.91 498.355 98.215L499.36 98.83C500.425 97.39 500.89 95.035 501.13 93.025L500.05 92.815ZM502.66 88.375C504.46 89.005 506.62 90.115 507.79 90.97L508.495 89.995C507.31 89.215 505.15 88.12 503.365 87.52L502.66 88.375ZM502.555 91.6V99.085C502.555 100.54 502.99 100.945 504.58 100.945H507.49C509.11 100.945 509.47 100.12 509.62 97.3C509.305 97.225 508.84 97.015 508.585 96.79C508.465 99.385 508.33 99.925 507.43 99.925H504.67C503.845 99.925 503.68 99.79 503.68 99.1V91.6H502.555ZM520.045 96.88V95.485H521.665V96.88H520.045ZM524.14 95.485V96.88H522.565V95.485H524.14ZM519.82 88.96H521.32V90.73H519.82V88.96ZM522.175 88.96H523.735V90.73H522.175V88.96ZM524.575 88.96H526.165V90.73H524.575V88.96ZM527.485 92.62H520.675C520.87 92.29 521.05 91.96 521.2 91.615H527.155V88.075H518.875V91.615H520.09C519.55 92.68 518.74 93.685 517.84 94.375C517.78 92.95 517.57 91.585 516.97 90.28C517.57 89.545 518.095 88.78 518.515 88.015L517.57 87.535C517.27 88.12 516.88 88.72 516.43 89.305C516.055 88.72 515.575 88.15 514.96 87.58L514.18 88.15C514.855 88.795 515.365 89.455 515.755 90.145C515.185 90.805 514.555 91.405 513.91 91.9C514.15 92.065 514.51 92.38 514.66 92.59C515.185 92.155 515.71 91.675 516.205 91.15C516.445 91.795 516.61 92.47 516.7 93.175C516.055 94.48 514.9 95.875 513.895 96.595C514.135 96.805 514.45 97.18 514.615 97.435C515.365 96.805 516.175 95.845 516.82 94.84C516.82 95.05 516.82 95.275 516.82 95.485C516.82 97.42 516.685 99.355 516.31 99.835C516.205 99.985 516.085 100.045 515.875 100.075C515.56 100.105 515.05 100.105 514.42 100.06C514.615 100.36 514.705 100.78 514.72 101.125C515.29 101.155 515.845 101.14 516.295 101.05C516.67 101.005 516.94 100.84 517.12 100.585C517.72 99.775 517.855 97.66 517.855 95.5C517.855 95.155 517.855 94.795 517.84 94.45C518.08 94.615 518.44 94.93 518.605 95.08C519.1 94.66 519.595 94.135 520.045 93.55H526.42C526.3 98.02 526.15 99.595 525.865 99.97C525.745 100.15 525.625 100.18 525.43 100.18C525.295 100.18 525.07 100.18 524.8 100.165L525.43 99.94C525.25 99.34 524.8 98.455 524.305 97.78L523.54 98.05C523.69 98.275 523.84 98.53 523.99 98.785L522.565 98.905V97.645H525.025V94.72H522.565V93.85H521.665V94.72H519.175V97.645H521.665V98.98C520.465 99.07 519.355 99.16 518.515 99.22L518.635 100.165C520.15 100.015 522.295 99.82 524.38 99.595C524.455 99.805 524.53 99.985 524.575 100.165C524.455 100.15 524.335 100.15 524.2 100.135C524.335 100.39 524.44 100.825 524.455 101.11C525.025 101.14 525.58 101.14 525.91 101.095C526.3 101.05 526.54 100.96 526.78 100.615C527.185 100.09 527.32 98.32 527.485 93.13V92.62ZM533.155 87.505C532.315 89.785 530.935 92.02 529.45 93.46C529.66 93.7 529.99 94.315 530.095 94.57C530.605 94.045 531.115 93.445 531.58 92.785V101.125H532.69V91.06C533.275 90.025 533.815 88.93 534.22 87.85L533.155 87.505ZM543.22 91.015V89.95H536.98C537.28 89.29 537.565 88.615 537.805 87.925L536.74 87.64C536.005 89.83 534.79 91.99 533.44 93.385C533.695 93.565 534.13 93.94 534.31 94.135C535.06 93.295 535.795 92.215 536.44 91.015H537.475V101.14H538.6V97.51H543.085V96.46H538.6V94.195H542.875V93.16H538.6V91.015H543.22ZM552.4 99.595V95.785H557.215V94.705H552.4V91.435H557.77V90.34H552.4V87.46H551.26V90.34H548.215C548.545 89.575 548.815 88.765 549.055 87.94L547.93 87.7C547.345 89.83 546.385 91.9 545.155 93.22C545.455 93.37 545.95 93.7 546.175 93.88C546.73 93.205 547.255 92.38 547.735 91.435H551.26V94.705H546.805V95.785H551.26V99.595H545.185V100.675H558.475V99.595H552.4ZM564.58 89.185C563.95 88.765 562.69 88.075 561.775 87.64L561.16 88.435C562.075 88.93 563.32 89.65 563.935 90.085L564.58 89.185ZM563.815 93.235C563.155 92.815 561.91 92.155 561.04 91.72L560.425 92.53C561.34 93.01 562.57 93.73 563.185 94.15L563.815 93.235ZM561.715 100.945C562.6 99.565 563.65 97.705 564.43 96.13L563.62 95.395C562.75 97.09 561.595 99.07 560.785 100.195L561.715 100.945ZM572.005 99.475H566.68V96.385H572.005V99.475ZM574.045 92.89V91.81H569.935V89.215C571.225 88.99 572.425 88.705 573.4 88.375L572.53 87.505C570.865 88.105 567.85 88.57 565.27 88.84C565.375 89.095 565.525 89.515 565.585 89.785C566.65 89.68 567.775 89.545 568.87 89.38V91.81H564.55V92.89H568.87V95.35H565.645V101.14H566.68V100.51H572.005V101.065H573.07V95.35H569.935V92.89H574.045ZM577.495 89.44H587.905V90.91H588.955V88.54H583.225V87.445H582.13V88.54H576.475V90.91H577.495V89.44ZM582.19 90.805C582.175 91.03 582.16 91.27 582.13 91.51H579.46L579.55 90.805H582.19ZM586.015 91.51H583.075L583.12 90.805H586.075L586.015 91.51ZM582.925 92.935C582.955 92.71 582.985 92.455 583 92.2H585.97L585.91 92.935H582.925ZM579.37 92.2H582.07C582.04 92.455 582.01 92.71 581.98 92.935H579.28L579.37 92.2ZM578.185 93.61H586.87L586.99 92.275H589.315V91.435H587.065L587.17 90.145H578.635L578.47 91.435H576.13V92.275H578.365L578.185 93.61ZM579.025 97.6H586.45V98.29H579.025V97.6ZM579.025 96.25H586.45V96.94H579.025V96.25ZM579.025 94.93H586.45V95.59H579.025V94.93ZM587.56 98.965V94.24H577.945V98.965H580.705C579.79 99.565 577.69 100.15 575.965 100.405C576.175 100.615 576.475 100.975 576.625 101.185C578.395 100.885 580.495 100.27 581.65 99.535L580.765 98.965H587.56ZM583.675 99.61C585.52 100.135 587.335 100.735 588.415 101.155L589.375 100.495C588.175 100.075 586.21 99.475 584.41 98.98L583.675 99.61ZM600.325 87.505C599.635 88.93 598.195 90.505 596.68 91.375C596.875 91.615 597.115 92.005 597.22 92.275C598.735 91.345 600.145 89.83 600.88 88.495C601.72 89.875 603.22 91.345 604.63 92.215C604.765 91.915 605.005 91.495 605.215 91.255C603.79 90.505 602.275 89.035 601.36 87.505H600.325ZM603.01 91.03H598.915V91.9H603.01V91.03ZM598.42 93.61H599.8V95.5H598.42V93.61ZM597.625 96.28H600.625V92.845H597.625V96.28ZM603.625 95.5H602.17V93.61H603.625V95.5ZM604.45 92.845H601.36V96.28H604.45V92.845ZM591.775 100.315C592.33 99.505 592.465 98.08 592.54 96.76L591.865 96.64C591.805 97.9 591.655 99.22 591.16 99.97L591.775 100.315ZM592.825 96.91C592.96 97.78 593.035 98.89 593.005 99.625L593.62 99.535C593.635 98.815 593.545 97.72 593.395 96.835L592.825 96.91ZM592.87 93.445H594.19V94.84H592.87V93.445ZM594.19 88.96V90.34H592.87V88.96H594.19ZM594.19 92.575H592.87V91.21H594.19V92.575ZM595.09 94.84V93.445H596.68V92.575H595.09V91.21H596.665V90.34H595.09V88.96H596.95V88.045H591.955V95.725H596.125C596.08 96.7 596.035 97.48 595.99 98.11C595.825 97.6 595.48 96.895 595.15 96.37L594.655 96.55C595 97.165 595.36 97.96 595.51 98.5L595.975 98.305C595.885 99.445 595.78 99.97 595.63 100.15C595.54 100.285 595.42 100.315 595.24 100.315C595.045 100.315 594.61 100.315 594.115 100.255C594.25 100.495 594.34 100.885 594.355 101.14C594.85 101.155 595.36 101.155 595.63 101.125C595.99 101.095 596.215 101.005 596.41 100.735C596.77 100.3 596.905 98.995 597.04 95.26C597.055 95.125 597.055 94.84 597.055 94.84H595.09ZM594.895 99.04C594.835 98.395 594.58 97.39 594.265 96.64L593.74 96.745C594.025 97.51 594.25 98.515 594.325 99.16L594.895 99.04ZM600.91 99.805C600.595 99.37 599.95 98.725 599.38 98.215C599.515 97.75 599.62 97.27 599.695 96.745L598.75 96.685C598.51 98.38 597.91 99.7 596.725 100.525C596.95 100.675 597.31 101.02 597.43 101.185C598.135 100.645 598.675 99.94 599.065 99.07C599.545 99.55 600.01 100.075 600.28 100.45L600.91 99.805ZM602.455 96.67C602.215 98.35 601.585 99.655 600.415 100.48C600.64 100.63 600.985 100.975 601.135 101.14C601.81 100.63 602.335 99.985 602.725 99.175C603.355 99.85 604.015 100.615 604.375 101.14L605.095 100.57C604.675 99.97 603.805 99.025 603.07 98.305C603.235 97.825 603.355 97.3 603.43 96.73L602.455 96.67ZM608.275 89.605H618.925V91.33H620.035V88.57H614.125V87.46H613V88.57H607.21V91.33H608.275V89.605ZM614.125 99.715V97.84H618.925V96.85H614.125V95.125C615.355 95.095 616.63 95.05 617.875 95.005C618.235 95.335 618.535 95.65 618.76 95.92L619.6 95.29C618.895 94.42 617.38 93.205 616.12 92.41L615.325 92.965C615.805 93.295 616.33 93.685 616.825 94.09C614.95 94.15 613.06 94.195 611.38 94.24C611.845 93.58 612.34 92.8 612.76 92.095H618.58V91.105H608.725V92.095H611.485C611.125 92.8 610.645 93.625 610.21 94.27C609.445 94.285 608.74 94.285 608.125 94.3L608.185 95.32C609.505 95.275 611.185 95.23 613 95.17V96.85H608.395V97.84H613V99.715H607.03V100.72H620.23V99.715H614.125Z" fill="#262626"/>
<path d="M645.045 90.325C643.895 90.325 642.99 90.71 642.33 91.48C641.67 92.25 641.34 93.305 641.34 94.645C641.34 95.975 641.645 97.03 642.255 97.81C642.875 98.58 643.8 98.965 645.03 98.965C645.49 98.965 645.93 98.925 646.35 98.845C646.77 98.765 647.185 98.665 647.595 98.545V99.715C647.195 99.865 646.78 99.975 646.35 100.045C645.93 100.115 645.425 100.15 644.835 100.15C643.745 100.15 642.835 99.925 642.105 99.475C641.375 99.025 640.825 98.385 640.455 97.555C640.095 96.725 639.915 95.75 639.915 94.63C639.915 93.55 640.11 92.6 640.5 91.78C640.9 90.95 641.485 90.305 642.255 89.845C643.025 89.375 643.96 89.14 645.06 89.14C646.19 89.14 647.175 89.35 648.015 89.77L647.475 90.91C647.145 90.76 646.775 90.625 646.365 90.505C645.965 90.385 645.525 90.325 645.045 90.325ZM651.523 88.6V91.945C651.523 92.345 651.498 92.72 651.448 93.07H651.538C651.798 92.66 652.148 92.35 652.588 92.14C653.038 91.93 653.523 91.825 654.043 91.825C655.013 91.825 655.743 92.06 656.233 92.53C656.733 92.99 656.983 93.735 656.983 94.765V100H655.678V94.855C655.678 93.565 655.078 92.92 653.878 92.92C652.978 92.92 652.358 93.175 652.018 93.685C651.688 94.185 651.523 94.905 651.523 95.845V100H650.203V88.6H651.523ZM660.6 88.945C660.8 88.945 660.975 89.015 661.125 89.155C661.285 89.285 661.365 89.495 661.365 89.785C661.365 90.075 661.285 90.29 661.125 90.43C660.975 90.56 660.8 90.625 660.6 90.625C660.38 90.625 660.195 90.56 660.045 90.43C659.895 90.29 659.82 90.075 659.82 89.785C659.82 89.495 659.895 89.285 660.045 89.155C660.195 89.015 660.38 88.945 660.6 88.945ZM661.245 91.96V100H659.925V91.96H661.245ZM665.562 100H664.242V88.6H665.562V100ZM669.879 100H668.559V88.6H669.879V100ZM677.403 100V89.29H678.753V98.8H683.433V100H677.403ZM688.584 91.825C689.564 91.825 690.289 92.04 690.759 92.47C691.229 92.9 691.464 93.585 691.464 94.525V100H690.504L690.249 98.86H690.189C689.839 99.3 689.469 99.625 689.079 99.835C688.689 100.045 688.159 100.15 687.489 100.15C686.759 100.15 686.154 99.96 685.674 99.58C685.194 99.19 684.954 98.585 684.954 97.765C684.954 96.965 685.269 96.35 685.899 95.92C686.529 95.48 687.499 95.24 688.809 95.2L690.174 95.155V94.675C690.174 94.005 690.029 93.54 689.739 93.28C689.449 93.02 689.039 92.89 688.509 92.89C688.089 92.89 687.689 92.955 687.309 93.085C686.929 93.205 686.574 93.345 686.244 93.505L685.839 92.515C686.189 92.325 686.604 92.165 687.084 92.035C687.564 91.895 688.064 91.825 688.584 91.825ZM690.159 96.07L688.974 96.115C687.974 96.155 687.279 96.315 686.889 96.595C686.509 96.875 686.319 97.27 686.319 97.78C686.319 98.23 686.454 98.56 686.724 98.77C687.004 98.98 687.359 99.085 687.789 99.085C688.459 99.085 689.019 98.9 689.469 98.53C689.929 98.15 690.159 97.57 690.159 96.79V96.07ZM698.267 91.81C699.227 91.81 699.952 92.045 700.442 92.515C700.932 92.985 701.177 93.735 701.177 94.765V100H699.872V94.855C699.872 93.565 699.272 92.92 698.072 92.92C697.182 92.92 696.567 93.17 696.227 93.67C695.887 94.17 695.717 94.89 695.717 95.83V100H694.397V91.96H695.462L695.657 93.055H695.732C695.992 92.635 696.352 92.325 696.812 92.125C697.272 91.915 697.757 91.81 698.267 91.81ZM712.88 94.54C712.88 96.35 712.385 97.715 711.395 98.635C710.415 99.545 709.045 100 707.285 100H704.3V89.29H707.6C708.67 89.29 709.6 89.49 710.39 89.89C711.19 90.29 711.805 90.88 712.235 91.66C712.665 92.44 712.88 93.4 712.88 94.54ZM711.455 94.585C711.455 93.155 711.1 92.11 710.39 91.45C709.69 90.78 708.695 90.445 707.405 90.445H705.65V98.845H707.105C710.005 98.845 711.455 97.425 711.455 94.585ZM716.712 91.69C716.607 90.805 716.262 89.47 715.842 88.435L715.077 88.615C715.467 89.65 715.812 91.015 715.887 91.9L716.712 91.69ZM718.047 93.505H719.697V92.455H718.047V87.49H717.027V92.455H714.912V93.505H716.847C716.382 95.155 715.527 97.105 714.747 98.17C714.942 98.455 715.227 98.965 715.347 99.295C715.932 98.395 716.562 96.985 717.027 95.53V101.125H718.047V95.215C718.497 95.995 719.037 96.985 719.232 97.48L719.982 96.625C719.697 96.16 718.452 94.345 718.047 93.835V93.505ZM718.932 91.915C719.307 91.09 719.772 89.695 720.117 88.585L719.202 88.36C718.992 89.35 718.572 90.82 718.242 91.69L718.932 91.915ZM722.232 97.915V96.805H726.552V97.915H722.232ZM726.552 94.885V95.995H722.232V94.885H726.552ZM727.602 94.03H721.167V101.14H722.232V98.71H726.552V100C726.552 100.165 726.507 100.225 726.312 100.225C726.132 100.225 725.517 100.225 724.842 100.21C724.992 100.48 725.112 100.855 725.157 101.14C726.087 101.14 726.702 101.125 727.092 100.975C727.497 100.81 727.602 100.54 727.602 100V94.03ZM724.842 92.275V91.255H727.887V90.445H724.842V89.53H728.217V88.675H724.842V87.475H723.777V88.675H720.642V89.53H723.777V90.445H721.017V91.255H723.777V92.275H720.222V93.13H728.592V92.275H724.842ZM743.997 88.54H740.652V87.49H739.587V88.54H736.422V89.365H743.997V88.54ZM739.167 95.59H741.117V96.4H739.167V95.59ZM739.167 94.075H741.117V94.87H739.167V94.075ZM731.577 99.145V97.63H735.057V99.145H731.577ZM732.267 91.78V92.815C732.267 93.535 732.162 94.435 731.577 95.215V91.78H732.267ZM732.912 89.05H733.602V90.865H732.912V89.05ZM735.057 94.285C735.027 94.3 734.967 94.315 734.847 94.315H734.427C734.292 94.315 734.262 94.3 734.262 94.105V91.78H735.057V94.285ZM735.057 96.745H731.577V95.515C731.712 95.59 731.847 95.71 731.922 95.8C732.717 94.945 732.912 93.7 732.912 92.815V91.78H733.632V94.105C733.632 94.84 733.797 94.975 734.382 94.975H734.982H735.057V96.745ZM737.562 90.73H739.002V91.795H737.562V90.73ZM741.252 90.73H742.722V91.795H741.252V90.73ZM743.397 97.465C742.962 97.795 742.287 98.23 741.687 98.56C741.372 98.14 741.117 97.675 740.907 97.18H744.072V96.4H742.047V95.59H743.457V94.87H742.047V94.075H743.772V93.34H742.047V92.515H743.517V90.01H740.487V92.515H741.117V93.34H739.167V92.515H739.782V90.01H736.782V92.515H738.237V93.34H736.632V94.075H738.237V94.87H736.947V95.59H738.237V96.4H736.257V97.18H738.897C738.102 97.81 736.977 98.335 735.912 98.695V90.865H734.382V89.05H736.092V88.12H730.452V89.05H732.132V90.865H730.752V101.035H731.577V100.03H735.057V100.81H735.912V98.74C736.092 98.92 736.362 99.28 736.482 99.445C736.977 99.25 737.502 99.01 737.997 98.725V99.955C737.532 100.045 737.097 100.105 736.722 100.165L736.917 100.975C738.117 100.765 739.617 100.495 741.102 100.21L741.042 99.46C740.322 99.58 739.602 99.7 738.927 99.805V98.17C739.332 97.885 739.722 97.585 740.037 97.27C740.682 99.055 741.867 100.495 743.517 101.17C743.652 100.93 743.952 100.57 744.162 100.375C743.412 100.12 742.752 99.7 742.212 99.16C742.797 98.845 743.457 98.47 743.982 98.065L743.397 97.465ZM752.397 93.835V92.35H754.497V92.425C754.497 92.875 754.467 93.355 754.317 93.835H752.397ZM752.397 90.025H754.497V91.48H752.397V90.025ZM757.752 91.48H755.502V90.025H757.752V91.48ZM757.752 93.835H755.337C755.457 93.355 755.502 92.875 755.502 92.41V92.35H757.752V93.835ZM758.817 94.75V89.125H755.112C755.337 88.675 755.577 88.135 755.787 87.61L754.512 87.46C754.437 87.94 754.227 88.6 754.032 89.125H751.392V94.75H753.837C753.372 95.365 752.592 95.92 751.272 96.34C751.497 96.52 751.767 96.865 751.902 97.105C753.567 96.475 754.482 95.635 754.977 94.75H758.817ZM749.337 90.025V95.995H747.312V90.025H749.337ZM750.327 89.005H746.322V98.305H747.312V97.03H750.327V89.005ZM759.507 97.12H756.657V94.81H755.592V97.12H750.477V98.11H755.592V101.14H756.657V98.11H759.507V97.12ZM762.432 100.915C763.182 99.535 764.097 97.645 764.772 96.055L763.902 95.425C763.167 97.12 762.162 99.1 761.442 100.27L762.432 100.915ZM764.322 93.1C763.722 92.71 762.597 92.11 761.787 91.705L761.172 92.53C761.997 92.965 763.107 93.61 763.677 94.015L764.322 93.1ZM761.697 88.525C762.492 88.975 763.572 89.665 764.112 90.085L764.772 89.185C764.217 88.795 763.122 88.15 762.342 87.73L761.697 88.525ZM770.502 91.315H769.077V89.305H770.502V91.315ZM773.262 94.39C773.217 94.405 773.157 94.42 772.977 94.42H771.762C771.417 94.42 771.357 94.39 771.357 94.135V92.305H773.262V94.39ZM766.542 99.445V97.72H773.262V99.445H766.542ZM768.207 92.305V92.815C768.207 93.61 767.892 94.57 766.542 95.305V92.305H768.207ZM773.097 95.335H773.262V96.76H766.542V95.485C766.737 95.635 766.962 95.86 767.067 96.01C768.687 95.155 769.107 93.895 769.107 92.83V92.305H770.472V94.15C770.472 95.095 770.727 95.335 771.672 95.335H773.097ZM774.882 89.305V88.285H764.982V89.305H768.072V91.315H765.522V101.14H766.542V100.435H773.262V101.095H774.327V91.315H771.522V89.305H774.882Z" fill="#262626"/>
<path d="M794.22 93.55V94.765H807.84V93.55H794.22ZM816.345 88.285H809.925V89.29H816.345V88.285ZM814.89 91.87V94.48H811.53V91.87H814.89ZM815.97 95.5V90.85H810.465V94.885C810.465 96.58 810.36 98.86 809.34 100.48C809.565 100.615 810.03 100.975 810.195 101.155C811.23 99.595 811.485 97.315 811.53 95.5H815.97ZM823.38 92.515H818.055V90.115C819.81 89.695 821.73 89.125 823.08 88.465L822.09 87.64C821.115 88.195 819.435 88.75 817.845 89.155L816.96 88.93V92.905C816.96 95.17 816.75 98.155 814.68 100.36C814.95 100.495 815.34 100.87 815.505 101.11C817.53 98.95 817.98 95.935 818.04 93.595H820.62V101.14H821.73V93.595H823.38V92.515ZM832.365 90.52C833.085 90.985 833.895 91.66 834.405 92.2C834.105 92.53 833.82 92.83 833.55 93.085C833.025 93.1 832.545 93.115 832.125 93.13L832.26 94.015C833.025 93.97 833.925 93.925 834.9 93.88V97.39H835.905V93.82C836.475 93.79 837.06 93.745 837.645 93.715C837.78 93.925 837.9 94.12 837.99 94.3L838.755 93.865C838.44 93.235 837.69 92.395 836.985 91.81L836.25 92.185C836.52 92.41 836.79 92.68 837.03 92.95C836.205 92.995 835.38 93.025 834.615 93.055C835.5 92.2 836.505 91.075 837.285 90.13L836.4 89.74C836.025 90.28 835.53 90.91 834.99 91.54C834.75 91.3 834.465 91.03 834.135 90.775C834.63 90.28 835.17 89.575 835.65 88.945L835.335 88.81C836.4 88.66 837.405 88.465 838.17 88.225L837.465 87.505C836.25 87.895 833.94 88.21 832.05 88.375C832.17 88.57 832.275 88.915 832.305 89.125C833.01 89.08 833.775 89.005 834.525 88.915C834.255 89.365 833.88 89.905 833.535 90.325C833.34 90.19 833.145 90.07 832.965 89.95L832.365 90.52ZM836.49 94.75C837.09 95.395 837.72 96.31 837.96 96.91L838.785 96.52C838.515 95.89 837.87 95.02 837.255 94.39L836.49 94.75ZM833.415 94.48C833.085 95.215 832.575 95.965 832.005 96.535C832.245 96.625 832.605 96.88 832.77 97.045C833.34 96.46 833.925 95.545 834.3 94.72L833.415 94.48ZM830.28 97.48C831.15 97.9 832.17 98.575 832.65 99.115L833.355 98.455C832.86 97.915 831.825 97.285 830.94 96.895L830.28 97.48ZM830.085 95.02C830.55 95.455 831.03 96.07 831.24 96.505L832.035 96.085C831.81 95.665 831.3 95.065 830.835 94.645L830.085 95.02ZM830.505 89.275H828.345V88.555H830.505V89.275ZM830.505 90.67H828.345V89.935H830.505V90.67ZM830.505 92.05H828.345V91.3H830.505V92.05ZM831.42 87.895H827.445V92.725H831.42V87.895ZM826.845 94.63C826.5 95.425 825.885 96.19 825.195 96.715C825.435 96.85 825.81 97.105 825.99 97.27C826.665 96.67 827.37 95.785 827.775 94.87L826.845 94.63ZM826.02 100.885C827.07 100.255 827.655 99.235 828.03 98.17L827.1 97.81C826.755 98.785 826.095 99.745 825.105 100.285L826.02 100.885ZM829.455 97.36V94.27H832.005V93.415H826.665V88.78H825.75V94.27H828.48V97.36H829.455ZM830.94 100.03C830.175 100.03 830.04 99.97 830.04 99.61V97.825H828.96V99.61C828.96 100.69 829.335 100.96 830.865 100.96H833.73C834.9 100.96 835.23 100.585 835.365 99.025C835.065 98.965 834.615 98.815 834.405 98.665C834.345 99.865 834.24 100.03 833.625 100.03H830.94ZM835.185 98.275C836.205 98.965 837.3 100.03 837.75 100.81L838.71 100.24C838.2 99.46 837.09 98.44 836.055 97.765L835.185 98.275ZM845.52 94.615V97.75H842.94V94.615H845.52ZM846.555 93.64H841.92V100H842.94V98.74H846.555V93.64ZM850.47 91.285H844.365V92.275H850.47V91.285ZM852.96 93.625H847.83V101.17H848.895V94.6H851.91V98.26C851.91 98.455 851.85 98.5 851.625 98.515C851.415 98.545 850.695 98.545 849.87 98.515C849.99 98.785 850.155 99.22 850.185 99.52C851.31 99.52 852.015 99.52 852.435 99.34C852.855 99.16 852.96 98.845 852.96 98.29V93.625ZM846.66 87.415C845.43 89.185 842.835 91.21 840.195 92.425C840.435 92.665 840.735 93.07 840.87 93.34C843.465 92.08 846 90.115 847.29 88.48C848.745 90.205 851.49 92.155 853.83 93.235C854.025 92.905 854.295 92.515 854.565 92.245C852.15 91.285 849.465 89.41 847.785 87.415H846.66ZM862.275 87.67V99.595C862.275 99.895 862.155 100 861.84 100C861.555 100.015 860.475 100.03 859.38 99.985C859.56 100.3 859.77 100.825 859.845 101.14C861.24 101.155 862.17 101.125 862.71 100.945C863.235 100.75 863.46 100.42 863.46 99.595V87.67H862.275ZM865.86 91.45C867.135 93.595 868.335 96.385 868.695 98.155L869.865 97.66C869.49 95.875 868.23 93.145 866.91 91.045L865.86 91.45ZM858.36 91.15C858 93.16 857.175 95.74 855.84 97.315C856.14 97.435 856.62 97.705 856.89 97.9C858.24 96.235 859.11 93.55 859.59 91.375L858.36 91.15ZM881.415 90.34C880.935 89.785 879.9 89.02 879.06 88.51L878.49 89.26C879.345 89.815 880.365 90.625 880.845 91.195L881.415 90.34ZM880.77 93.925C880.245 93.385 879.135 92.71 878.25 92.245L877.725 93.025C878.625 93.505 879.69 94.27 880.215 94.825L880.77 93.925ZM876.435 88.345C876.21 89.35 875.79 90.835 875.445 91.72L876.165 91.96C876.57 91.12 877.035 89.71 877.395 88.585L876.435 88.345ZM873.315 91.69C873.21 90.79 872.865 89.44 872.43 88.405L871.62 88.6C872.01 89.65 872.355 91.03 872.43 91.93L873.315 91.69ZM874.95 93.505H877.395V92.455H874.95V87.505H873.915V92.455H871.515V93.505H873.615C873.09 95.185 872.145 97.12 871.275 98.17C871.455 98.44 871.725 98.935 871.845 99.25C872.595 98.245 873.36 96.58 873.915 94.975V101.14H874.95V94.99C875.49 95.83 876.195 96.985 876.465 97.54L877.2 96.67C876.87 96.16 875.37 94.18 874.95 93.715V93.505ZM885.18 96.58L885.015 95.56L883.245 95.875V87.46H882.195V96.07L877.365 96.925L877.545 97.96L882.195 97.12V101.14H883.245V96.925L885.18 96.58ZM891.495 96.985L889.86 97.525V93.805H891.36V92.77H889.86V89.515H891.585V88.465H886.935V89.515H888.795V92.77H887.1V93.805H888.795V97.855C888.03 98.11 887.34 98.32 886.785 98.485L887.04 99.61C888.375 99.175 890.085 98.59 891.69 98.05L891.495 96.985ZM893.34 91.93H895.62V93.835H893.34V91.93ZM893.34 89.11H895.62V91H893.34V89.11ZM898.875 91H896.58V89.11H898.875V91ZM898.875 93.835H896.58V91.93H898.875V93.835ZM896.67 99.64V97.585H900.165V96.565H896.67V94.81H899.94V88.135H892.32V94.81H895.545V96.565H892.14V97.585H895.545V99.64H890.985V100.66H900.645V99.64H896.67Z" fill="#262626"/>
<path d="M921.925 101.125H923.035V93.1C923.56 92.275 924.025 91.39 924.415 90.49L923.335 90.16C922.465 92.29 921.01 94.33 919.435 95.62C919.675 95.815 920.095 96.235 920.26 96.46C920.83 95.95 921.385 95.35 921.925 94.675V101.125ZM933.085 89.125H927.04V87.445H925.9V89.125H919.96V90.16H933.085V89.125ZM929.83 95.035C929.47 94.54 928.72 93.82 928.09 93.34L927.385 93.88C928.03 94.39 928.765 95.14 929.095 95.65L929.83 95.035ZM931.36 92.8C930.775 94.63 929.845 96.1 928.645 97.27C927.745 96.34 926.995 95.275 926.455 94.105C926.77 93.685 927.07 93.25 927.34 92.8H931.36ZM931.99 91.81L931.78 91.87H927.88C928.12 91.405 928.345 90.94 928.54 90.475L927.445 90.16C926.74 92.05 925.3 94.24 923.59 95.59C923.83 95.77 924.175 96.13 924.37 96.355C924.865 95.935 925.345 95.455 925.795 94.93C926.35 96.055 927.055 97.075 927.88 97.96C926.635 98.98 925.165 99.73 923.59 100.24C923.815 100.42 924.16 100.885 924.295 101.155C925.87 100.6 927.355 99.805 928.645 98.725C929.83 99.805 931.21 100.645 932.77 101.17C932.95 100.87 933.28 100.42 933.52 100.21C931.99 99.76 930.595 98.98 929.425 97.99C930.895 96.52 932.035 94.615 932.695 92.155L931.99 91.81ZM948.685 89.965V88.96H942.955V87.46H941.815V88.96H936.31V93.25C936.31 95.41 936.205 98.44 934.975 100.57C935.23 100.69 935.695 100.99 935.89 101.2C937.18 98.935 937.36 95.56 937.36 93.25V89.965H948.685ZM937.885 100.9H944.53V99.91H937.885V100.9ZM940.195 94.075V92.35C941.275 92.245 942.43 92.11 943.54 91.945C943.57 92.68 943.615 93.4 943.675 94.075H940.195ZM948.61 95.08V94.075H944.74C944.665 93.355 944.635 92.59 944.62 91.765C945.61 91.6 946.54 91.405 947.32 91.18L946.45 90.37C944.95 90.82 942.31 91.24 939.955 91.48L939.145 91.24V97.87C938.62 97.93 938.155 97.975 937.735 98.02L937.87 99.04C939.43 98.83 941.665 98.575 943.795 98.305L943.78 97.315C942.565 97.465 941.32 97.615 940.195 97.75V95.08H943.78C944.245 98.485 945.28 100.795 947.185 100.795C948.175 100.795 948.55 100.225 948.715 98.125C948.43 98.05 948.07 97.855 947.815 97.63C947.755 99.13 947.62 99.745 947.245 99.745C946.075 99.745 945.22 97.93 944.845 95.08H948.61ZM955.405 93.94L953.725 94.435V91.48H955.39V90.46H953.725V87.46H952.645V90.46H950.575V91.48H952.645V94.75C951.805 94.99 951.025 95.2 950.395 95.365L950.68 96.46L952.645 95.845V99.865C952.645 100.075 952.585 100.15 952.375 100.15C952.18 100.15 951.565 100.15 950.89 100.135C951.04 100.42 951.175 100.87 951.22 101.14C952.21 101.14 952.81 101.11 953.2 100.96C953.575 100.78 953.725 100.465 953.725 99.865V95.515L955.555 94.945L955.405 93.94ZM962.08 96.19V99.475H957.34V96.19H962.08ZM956.275 101.125H957.34V100.48H962.08V101.08H963.19V95.17H956.275V101.125ZM957.01 92.26V93.265H962.365V92.26H957.01ZM959.08 87.475C958.3 89.095 956.62 91.12 954.94 92.32C955.15 92.56 955.435 92.95 955.555 93.235C957.235 91.99 958.81 90.1 959.65 88.6C960.58 90.085 962.275 91.99 963.82 93.175C964 92.86 964.255 92.44 964.48 92.17C962.905 91.12 961.195 89.23 960.115 87.475H959.08ZM969.865 91.45C968.935 93.37 967.42 95.2 965.83 96.355C966.085 96.55 966.55 96.925 966.73 97.135C967.36 96.61 968.005 95.98 968.62 95.275V101.14H969.715V93.88C970.18 93.205 970.6 92.515 970.96 91.795L969.865 91.45ZM974.755 89.89V91.54H975.865V89.89H979.39V88.81H975.865V87.445H974.755V88.81H970.99V87.445H969.88V88.81H966.295V89.89H969.88V91.45H970.99V89.89H974.755ZM975.025 99.88C974.26 99.88 974.11 99.745 974.11 99.13V96.19C975.82 95.485 977.71 94.615 979.045 93.73L978.19 92.905C977.23 93.64 975.64 94.495 974.11 95.17V91.585H973.015V99.115C973.015 100.54 973.435 100.93 974.935 100.93H977.785C979.18 100.93 979.51 100.255 979.66 98.035C979.36 97.96 978.91 97.765 978.64 97.57C978.55 99.49 978.43 99.88 977.725 99.88H975.025ZM987.951 100H986.601V89.29H992.586V90.475H987.951V94.27H992.301V95.455H987.951V100ZM995.97 100H994.65V88.6H995.97V100ZM1002.01 91.825C1002.99 91.825 1003.72 92.04 1004.19 92.47C1004.66 92.9 1004.89 93.585 1004.89 94.525V100H1003.93L1003.68 98.86H1003.62C1003.27 99.3 1002.9 99.625 1002.51 99.835C1002.12 100.045 1001.59 100.15 1000.92 100.15C1000.19 100.15 999.582 99.96 999.102 99.58C998.622 99.19 998.382 98.585 998.382 97.765C998.382 96.965 998.697 96.35 999.327 95.92C999.957 95.48 1000.93 95.24 1002.24 95.2L1003.6 95.155V94.675C1003.6 94.005 1003.46 93.54 1003.17 93.28C1002.88 93.02 1002.47 92.89 1001.94 92.89C1001.52 92.89 1001.12 92.955 1000.74 93.085C1000.36 93.205 1000 93.345 999.672 93.505L999.267 92.515C999.617 92.325 1000.03 92.165 1000.51 92.035C1000.99 91.895 1001.49 91.825 1002.01 91.825ZM1003.59 96.07L1002.4 96.115C1001.4 96.155 1000.71 96.315 1000.32 96.595C999.937 96.875 999.747 97.27 999.747 97.78C999.747 98.23 999.882 98.56 1000.15 98.77C1000.43 98.98 1000.79 99.085 1001.22 99.085C1001.89 99.085 1002.45 98.9 1002.9 98.53C1003.36 98.15 1003.59 97.57 1003.59 96.79V96.07ZM1009.6 100L1006.55 91.96H1007.96L1009.67 96.7C1009.75 96.92 1009.84 97.165 1009.93 97.435C1010.02 97.705 1010.1 97.965 1010.17 98.215C1010.24 98.465 1010.29 98.67 1010.32 98.83H1010.38C1010.41 98.67 1010.46 98.465 1010.54 98.215C1010.62 97.955 1010.71 97.695 1010.8 97.435C1010.89 97.165 1010.97 96.92 1011.05 96.7L1012.76 91.96H1014.17L1011.11 100H1009.6ZM1022.88 95.965C1022.88 97.295 1022.54 98.325 1021.86 99.055C1021.19 99.785 1020.28 100.15 1019.13 100.15C1018.42 100.15 1017.79 99.99 1017.23 99.67C1016.68 99.34 1016.24 98.865 1015.92 98.245C1015.6 97.615 1015.44 96.855 1015.44 95.965C1015.44 94.635 1015.77 93.61 1016.43 92.89C1017.1 92.17 1018.02 91.81 1019.18 91.81C1019.9 91.81 1020.54 91.975 1021.1 92.305C1021.66 92.625 1022.09 93.095 1022.4 93.715C1022.72 94.325 1022.88 95.075 1022.88 95.965ZM1016.81 95.965C1016.81 96.915 1016.99 97.67 1017.36 98.23C1017.74 98.78 1018.34 99.055 1019.16 99.055C1019.97 99.055 1020.57 98.78 1020.95 98.23C1021.33 97.67 1021.52 96.915 1021.52 95.965C1021.52 95.015 1021.33 94.27 1020.95 93.73C1020.57 93.19 1019.97 92.92 1019.15 92.92C1018.33 92.92 1017.73 93.19 1017.36 93.73C1016.99 94.27 1016.81 95.015 1016.81 95.965ZM1029.17 91.81C1029.32 91.81 1029.48 91.82 1029.65 91.84C1029.82 91.85 1029.98 91.87 1030.12 91.9L1029.95 93.115C1029.82 93.085 1029.68 93.06 1029.52 93.04C1029.36 93.02 1029.21 93.01 1029.08 93.01C1028.67 93.01 1028.29 93.125 1027.93 93.355C1027.57 93.575 1027.28 93.89 1027.06 94.3C1026.85 94.7 1026.74 95.17 1026.74 95.71V100H1025.42V91.96H1026.5L1026.65 93.43H1026.71C1026.96 92.99 1027.29 92.61 1027.7 92.29C1028.12 91.97 1028.61 91.81 1029.17 91.81ZM1043.41 95.965C1043.41 97.295 1043.07 98.325 1042.39 99.055C1041.72 99.785 1040.81 100.15 1039.66 100.15C1038.95 100.15 1038.31 99.99 1037.75 99.67C1037.2 99.34 1036.77 98.865 1036.45 98.245C1036.13 97.615 1035.97 96.855 1035.97 95.965C1035.97 94.635 1036.3 93.61 1036.96 92.89C1037.63 92.17 1038.54 91.81 1039.7 91.81C1040.42 91.81 1041.06 91.975 1041.62 92.305C1042.18 92.625 1042.62 93.095 1042.93 93.715C1043.25 94.325 1043.41 95.075 1043.41 95.965ZM1037.33 95.965C1037.33 96.915 1037.52 97.67 1037.89 98.23C1038.27 98.78 1038.87 99.055 1039.69 99.055C1040.5 99.055 1041.09 98.78 1041.47 98.23C1041.85 97.67 1042.04 96.915 1042.04 95.965C1042.04 95.015 1041.85 94.27 1041.47 93.73C1041.09 93.19 1040.49 92.92 1039.67 92.92C1038.85 92.92 1038.26 93.19 1037.89 93.73C1037.52 94.27 1037.33 95.015 1037.33 95.965ZM1049.65 92.98H1047.63V100H1046.31V92.98H1044.9V92.365L1046.31 91.915V91.45C1046.31 90.41 1046.53 89.665 1046.98 89.215C1047.44 88.755 1048.09 88.525 1048.92 88.525C1049.23 88.525 1049.52 88.555 1049.79 88.615C1050.06 88.665 1050.29 88.725 1050.48 88.795L1050.13 89.83C1049.97 89.78 1049.79 89.73 1049.58 89.68C1049.37 89.63 1049.15 89.605 1048.93 89.605C1048.49 89.605 1048.16 89.755 1047.94 90.055C1047.73 90.345 1047.63 90.805 1047.63 91.435V91.96H1049.65V92.98ZM1058.59 99.07C1058.79 99.07 1058.99 99.055 1059.2 99.025C1059.41 98.995 1059.58 98.955 1059.71 98.905V99.91C1059.57 99.98 1059.37 100.035 1059.11 100.075C1058.85 100.125 1058.6 100.15 1058.36 100.15C1057.94 100.15 1057.55 100.08 1057.19 99.94C1056.84 99.79 1056.56 99.535 1056.34 99.175C1056.12 98.815 1056.01 98.31 1056.01 97.66V92.98H1054.87V92.35L1056.02 91.825L1056.55 90.115H1057.33V91.96H1059.65V92.98H1057.33V97.63C1057.33 98.12 1057.44 98.485 1057.67 98.725C1057.91 98.955 1058.22 99.07 1058.59 99.07ZM1063.09 88.6V91.945C1063.09 92.345 1063.07 92.72 1063.02 93.07H1063.11C1063.37 92.66 1063.72 92.35 1064.16 92.14C1064.61 91.93 1065.09 91.825 1065.61 91.825C1066.58 91.825 1067.31 92.06 1067.8 92.53C1068.3 92.99 1068.55 93.735 1068.55 94.765V100H1067.25V94.855C1067.25 93.565 1066.65 92.92 1065.45 92.92C1064.55 92.92 1063.93 93.175 1063.59 93.685C1063.26 94.185 1063.09 94.905 1063.09 95.845V100H1061.77V88.6H1063.09ZM1074.6 91.81C1075.28 91.81 1075.87 91.96 1076.37 92.26C1076.87 92.56 1077.25 92.985 1077.51 93.535C1077.78 94.075 1077.91 94.71 1077.91 95.44V96.235H1072.41C1072.43 97.145 1072.66 97.84 1073.1 98.32C1073.55 98.79 1074.17 99.025 1074.97 99.025C1075.48 99.025 1075.93 98.98 1076.32 98.89C1076.72 98.79 1077.13 98.65 1077.55 98.47V99.625C1077.14 99.805 1076.74 99.935 1076.34 100.015C1075.94 100.105 1075.46 100.15 1074.91 100.15C1074.14 100.15 1073.47 99.995 1072.89 99.685C1072.31 99.375 1071.85 98.915 1071.52 98.305C1071.2 97.695 1071.04 96.94 1071.04 96.04C1071.04 95.16 1071.19 94.405 1071.48 93.775C1071.78 93.145 1072.19 92.66 1072.72 92.32C1073.26 91.98 1073.89 91.81 1074.6 91.81ZM1074.58 92.89C1073.95 92.89 1073.45 93.095 1073.08 93.505C1072.72 93.905 1072.51 94.465 1072.44 95.185H1076.53C1076.52 94.505 1076.36 93.955 1076.05 93.535C1075.74 93.105 1075.25 92.89 1074.58 92.89ZM1093.43 100H1091.85L1086.12 91.105H1086.06C1086.08 91.455 1086.11 91.89 1086.14 92.41C1086.17 92.93 1086.18 93.465 1086.18 94.015V100H1084.94V89.29H1086.5L1092.21 98.155H1092.27C1092.26 97.995 1092.25 97.755 1092.23 97.435C1092.22 97.115 1092.2 96.77 1092.18 96.4C1092.17 96.02 1092.17 95.665 1092.17 95.335V89.29H1093.43V100ZM1097.28 88.945C1097.48 88.945 1097.65 89.015 1097.8 89.155C1097.96 89.285 1098.04 89.495 1098.04 89.785C1098.04 90.075 1097.96 90.29 1097.8 90.43C1097.65 90.56 1097.48 90.625 1097.28 90.625C1097.06 90.625 1096.87 90.56 1096.72 90.43C1096.57 90.29 1096.5 90.075 1096.5 89.785C1096.5 89.495 1096.57 89.285 1096.72 89.155C1096.87 89.015 1097.06 88.945 1097.28 88.945ZM1097.92 91.96V100H1096.6V91.96H1097.92ZM1103.77 91.81C1104.3 91.81 1104.78 91.91 1105.2 92.11C1105.63 92.31 1105.99 92.615 1106.29 93.025H1106.37L1106.55 91.96H1107.6V100.135C1107.6 101.285 1107.3 102.15 1106.71 102.73C1106.13 103.31 1105.23 103.6 1104 103.6C1102.82 103.6 1101.85 103.43 1101.1 103.09V101.875C1101.89 102.295 1102.88 102.505 1104.07 102.505C1104.76 102.505 1105.3 102.3 1105.69 101.89C1106.09 101.49 1106.29 100.94 1106.29 100.24V99.925C1106.29 99.805 1106.3 99.635 1106.31 99.415C1106.32 99.185 1106.33 99.025 1106.34 98.935H1106.28C1105.74 99.745 1104.91 100.15 1103.79 100.15C1102.75 100.15 1101.93 99.785 1101.34 99.055C1100.76 98.325 1100.47 97.305 1100.47 95.995C1100.47 94.715 1100.76 93.7 1101.34 92.95C1101.93 92.19 1102.74 91.81 1103.77 91.81ZM1103.95 92.92C1103.28 92.92 1102.76 93.19 1102.39 93.73C1102.02 94.26 1101.84 95.02 1101.84 96.01C1101.84 97 1102.02 97.76 1102.38 98.29C1102.74 98.81 1103.27 99.07 1103.98 99.07C1104.79 99.07 1105.38 98.855 1105.75 98.425C1106.12 97.985 1106.31 97.28 1106.31 96.31V95.995C1106.31 94.905 1106.12 94.12 1105.74 93.64C1105.36 93.16 1104.76 92.92 1103.95 92.92ZM1111.92 88.6V91.945C1111.92 92.345 1111.89 92.72 1111.84 93.07H1111.93C1112.19 92.66 1112.54 92.35 1112.98 92.14C1113.43 91.93 1113.92 91.825 1114.44 91.825C1115.41 91.825 1116.14 92.06 1116.63 92.53C1117.13 92.99 1117.38 93.735 1117.38 94.765V100H1116.07V94.855C1116.07 93.565 1115.47 92.92 1114.27 92.92C1113.37 92.92 1112.75 93.175 1112.41 93.685C1112.08 94.185 1111.92 94.905 1111.92 95.845V100H1110.6V88.6H1111.92ZM1123.01 99.07C1123.21 99.07 1123.41 99.055 1123.62 99.025C1123.83 98.995 1124 98.955 1124.13 98.905V99.91C1123.99 99.98 1123.79 100.035 1123.53 100.075C1123.27 100.125 1123.02 100.15 1122.78 100.15C1122.36 100.15 1121.97 100.08 1121.61 99.94C1121.26 99.79 1120.98 99.535 1120.76 99.175C1120.54 98.815 1120.43 98.31 1120.43 97.66V92.98H1119.29V92.35L1120.44 91.825L1120.97 90.115H1121.75V91.96H1124.07V92.98H1121.75V97.63C1121.75 98.12 1121.86 98.485 1122.09 98.725C1122.33 98.955 1122.64 99.07 1123.01 99.07Z" fill="#262626"/>
<path d="M1153.3 90.97C1152.97 92.635 1152.25 94.09 1151.17 95.02C1151.44 95.14 1151.89 95.455 1152.1 95.62C1152.61 95.14 1153.05 94.54 1153.42 93.85C1154.31 94.585 1155.25 95.425 1155.76 95.995L1156.56 95.23C1155.96 94.615 1154.8 93.655 1153.86 92.92C1154.07 92.365 1154.25 91.78 1154.37 91.15L1153.3 90.97ZM1146.24 90.97C1145.8 92.905 1144.87 94.51 1143.51 95.53C1143.76 95.695 1144.2 96.055 1144.39 96.25C1145.13 95.635 1145.77 94.84 1146.28 93.895C1146.82 94.42 1147.38 94.975 1147.68 95.35L1148.44 94.585C1148.07 94.15 1147.38 93.49 1146.75 92.935C1146.97 92.38 1147.18 91.795 1147.33 91.165L1146.24 90.97ZM1150.53 90.625H1156.48V89.53H1150.53V87.46H1149.39V89.53H1143.64V90.625H1149.39V94.285C1148.01 96.46 1145.53 98.53 1143.12 99.52C1143.37 99.745 1143.73 100.18 1143.9 100.45C1145.89 99.52 1147.9 97.9 1149.39 95.995V101.14H1150.53V95.95C1151.98 97.9 1154.02 99.58 1156.09 100.495C1156.26 100.195 1156.63 99.745 1156.92 99.505C1154.37 98.545 1151.86 96.43 1150.53 94.18V90.625ZM1165.96 94.885H1170.9V93.85H1165.96V88.915H1164.94V93.85H1160V94.885H1164.94V99.82H1165.96V94.885ZM1177 89.47V96.475H1175.48V89.47H1177ZM1177.9 97.405V88.555H1174.58V98.845H1175.48V97.405H1177.9ZM1180.67 90.46C1180.69 89.515 1180.7 88.525 1180.7 87.505H1179.73C1179.73 88.54 1179.73 89.53 1179.72 90.46H1178.44V91.465H1179.69C1179.58 95.41 1179.14 98.575 1177.25 100.48C1177.49 100.63 1177.85 100.96 1178.03 101.2C1180.07 99.07 1180.54 95.695 1180.66 91.465H1181.95C1181.78 97.21 1181.61 99.205 1181.28 99.655C1181.14 99.865 1181.03 99.895 1180.84 99.895C1180.62 99.895 1180.18 99.895 1179.7 99.85C1179.85 100.135 1179.95 100.555 1179.95 100.855C1180.45 100.9 1180.94 100.885 1181.28 100.855C1181.63 100.795 1181.89 100.675 1182.13 100.315C1182.58 99.67 1182.75 97.585 1182.94 90.985C1182.95 90.865 1182.95 90.46 1182.95 90.46H1180.67ZM1184.46 98.335V90.205H1186.32V98.335H1184.46ZM1183.54 89.2V100.6H1184.46V99.34H1186.32V100.48H1187.28V89.2H1183.54ZM1192.87 89.875V95.74H1190.99V89.875H1192.87ZM1193.87 96.76V88.84H1190V98.08H1190.99V96.76H1193.87ZM1198.42 95.425L1197.8 95.635C1197.83 95.17 1197.85 94.705 1197.85 94.225V87.58H1196.78V89.98H1194.28V91.015H1196.78V93.085H1194.38V94.105H1196.78V94.21C1196.78 94.81 1196.77 95.41 1196.69 96.01C1195.55 96.385 1194.47 96.73 1193.68 96.955L1194.11 97.96C1194.83 97.705 1195.64 97.405 1196.48 97.075C1196.15 98.395 1195.42 99.58 1193.9 100.48C1194.17 100.645 1194.55 100.99 1194.73 101.2C1196.63 100.045 1197.4 98.425 1197.7 96.61L1198.57 96.265L1198.42 95.425ZM1203.2 96.22H1200.26V94.105H1202.87V93.085H1200.26V91.015H1203.05V89.98H1200.26V87.55H1199.18V101.125H1200.26V97.255H1203.2V96.22Z" fill="#262626"/>
<path d="M1228.51 96.07V99.265H1224.49V96.07H1228.51ZM1223.44 101.14H1224.49V100.3H1228.51V100.93H1229.59V95.035H1223.44V101.14ZM1222.98 88.255V89.275H1225.42C1225.11 91.45 1224.19 92.845 1222.44 93.7C1222.66 93.88 1223.07 94.285 1223.23 94.465C1225.08 93.43 1226.11 91.81 1226.49 89.275H1228.83C1228.65 91.72 1228.47 92.68 1228.21 92.95C1228.08 93.1 1227.94 93.115 1227.72 93.115C1227.46 93.115 1226.86 93.115 1226.22 93.055C1226.37 93.34 1226.49 93.76 1226.52 94.09C1227.18 94.12 1227.82 94.135 1228.18 94.09C1228.59 94.06 1228.86 93.955 1229.11 93.655C1229.52 93.22 1229.7 91.975 1229.92 88.75C1229.94 88.585 1229.95 88.255 1229.95 88.255H1222.98ZM1235.49 88.225L1235.31 88.27H1230.91V101.155H1232.01V89.32H1234.8C1234.3 90.505 1233.58 92.125 1232.92 93.37C1234.54 94.66 1235.01 95.785 1235.01 96.715C1235.02 97.255 1234.9 97.69 1234.57 97.87C1234.38 97.99 1234.12 98.035 1233.87 98.05C1233.54 98.065 1233.09 98.065 1232.59 98.02C1232.8 98.335 1232.91 98.83 1232.92 99.13C1233.39 99.16 1233.91 99.16 1234.32 99.115C1234.71 99.07 1235.07 98.95 1235.32 98.785C1235.89 98.425 1236.12 97.735 1236.1 96.82C1236.1 95.77 1235.7 94.585 1234.09 93.22C1234.83 91.87 1235.67 90.175 1236.3 88.765L1235.49 88.225ZM1242.85 88.435H1238.63V89.41H1242.85V88.435ZM1238.53 95.245C1238.53 96.58 1238.45 98.17 1238.02 99.43C1238.23 99.52 1238.56 99.745 1238.69 99.925C1239.23 98.53 1239.31 96.805 1239.31 95.26V93.49H1238.53V95.245ZM1243.18 92.41V91.435H1238.24V92.41H1240.3V101.125H1241.26V92.41H1243.18ZM1243.06 93.475H1242.28V98.965H1243.06V93.475ZM1243.55 100.63C1244.34 99.82 1244.62 98.38 1244.8 97.03L1243.93 96.82C1243.81 98.095 1243.47 99.43 1242.75 100.195L1243.55 100.63ZM1245.54 97.24C1245.71 98.17 1245.82 99.385 1245.81 100.195L1246.61 100.06C1246.63 99.265 1246.51 98.05 1246.3 97.12L1245.54 97.24ZM1247.19 97.105C1247.5 97.87 1247.8 98.875 1247.91 99.535L1248.66 99.31C1248.54 98.665 1248.24 97.675 1247.89 96.91L1247.19 97.105ZM1245.1 93.67H1247.47V95.05H1245.1V93.67ZM1247.47 89.23V90.565H1245.1V89.23H1247.47ZM1247.47 92.785H1245.1V91.435H1247.47V92.785ZM1248.43 95.05V93.67H1251.06V92.785H1248.43V91.435H1251V90.565H1248.43V89.23H1251.4V88.255H1244.1V96.025H1250.61C1250.47 98.74 1250.31 99.79 1250.07 100.075C1249.93 100.21 1249.81 100.24 1249.59 100.24C1249.35 100.24 1248.76 100.225 1248.13 100.165C1248.28 100.435 1248.39 100.84 1248.4 101.11C1249.05 101.14 1249.69 101.155 1250.02 101.125C1250.43 101.095 1250.67 100.99 1250.92 100.705C1251.3 100.255 1251.46 98.995 1251.64 95.515C1251.64 95.365 1251.66 95.05 1251.66 95.05H1248.43ZM1250.41 98.26C1250.21 97.78 1249.78 97.06 1249.36 96.52L1248.75 96.775C1249.14 97.33 1249.57 98.08 1249.74 98.575L1250.41 98.26ZM1257.92 87.97H1254.23V88.87H1257.92V87.97ZM1258.34 89.935H1253.53V90.85H1258.34V89.935ZM1257.95 91.96H1254.14V92.845H1257.95V91.96ZM1254.14 94.84H1257.95V93.94H1254.14V94.84ZM1257.02 96.865V99.37H1255.03V96.865H1257.02ZM1257.95 100.27V95.95H1254.13V100.975H1255.03V100.27H1257.95ZM1260.76 92.92V93.775H1265.16V92.92H1263.34V91.48H1264.93V90.625H1263.34V89.335H1262.43V90.625H1260.88V91.48H1262.43V92.92H1260.76ZM1263.98 95.785V97.93H1261.83V95.785H1263.98ZM1264.84 98.785V94.93H1260.97V99.37H1261.83V98.785H1264.84ZM1266.79 88.075H1259.09V93.415C1259.09 95.62 1259 98.545 1257.84 100.615C1258.09 100.735 1258.54 101.05 1258.7 101.23C1259.95 99.04 1260.12 95.74 1260.12 93.415V89.05H1265.77V99.73C1265.77 99.985 1265.7 100.045 1265.47 100.045C1265.22 100.06 1264.44 100.075 1263.64 100.03C1263.77 100.33 1263.92 100.84 1263.97 101.125C1265.08 101.125 1265.83 101.11 1266.24 100.93C1266.66 100.75 1266.79 100.39 1266.79 99.73V88.075ZM1270.18 100.915C1270.93 99.535 1271.84 97.645 1272.52 96.055L1271.65 95.425C1270.91 97.12 1269.91 99.1 1269.19 100.27L1270.18 100.915ZM1272.07 93.1C1271.47 92.71 1270.34 92.11 1269.53 91.705L1268.92 92.53C1269.74 92.965 1270.85 93.61 1271.42 94.015L1272.07 93.1ZM1269.44 88.525C1270.24 88.975 1271.32 89.665 1271.86 90.085L1272.52 89.185C1271.96 88.795 1270.87 88.15 1270.09 87.73L1269.44 88.525ZM1278.25 91.315H1276.82V89.305H1278.25V91.315ZM1281.01 94.39C1280.96 94.405 1280.9 94.42 1280.72 94.42H1279.51C1279.16 94.42 1279.1 94.39 1279.1 94.135V92.305H1281.01V94.39ZM1274.29 99.445V97.72H1281.01V99.445H1274.29ZM1275.95 92.305V92.815C1275.95 93.61 1275.64 94.57 1274.29 95.305V92.305H1275.95ZM1280.84 95.335H1281.01V96.76H1274.29V95.485C1274.48 95.635 1274.71 95.86 1274.81 96.01C1276.43 95.155 1276.85 93.895 1276.85 92.83V92.305H1278.22V94.15C1278.22 95.095 1278.47 95.335 1279.42 95.335H1280.84ZM1282.63 89.305V88.285H1272.73V89.305H1275.82V91.315H1273.27V101.14H1274.29V100.435H1281.01V101.095H1282.07V91.315H1279.27V89.305H1282.63ZM1295.68 97.135C1295.68 98.085 1295.33 98.825 1294.64 99.355C1293.95 99.885 1293.02 100.15 1291.85 100.15C1291.25 100.15 1290.7 100.105 1290.19 100.015C1289.68 99.925 1289.25 99.8 1288.91 99.64V98.35C1289.27 98.51 1289.72 98.655 1290.25 98.785C1290.79 98.915 1291.34 98.98 1291.91 98.98C1292.7 98.98 1293.3 98.825 1293.71 98.515C1294.12 98.205 1294.33 97.785 1294.33 97.255C1294.33 96.905 1294.25 96.61 1294.1 96.37C1293.95 96.13 1293.69 95.91 1293.32 95.71C1292.95 95.51 1292.45 95.29 1291.81 95.05C1290.89 94.72 1290.2 94.315 1289.74 93.835C1289.28 93.355 1289.05 92.7 1289.05 91.87C1289.05 91.31 1289.19 90.825 1289.48 90.415C1289.77 90.005 1290.17 89.69 1290.68 89.47C1291.19 89.25 1291.79 89.14 1292.47 89.14C1293.05 89.14 1293.58 89.195 1294.07 89.305C1294.56 89.415 1295.01 89.56 1295.42 89.74L1295 90.895C1294.63 90.735 1294.23 90.6 1293.79 90.49C1293.35 90.38 1292.9 90.325 1292.44 90.325C1291.77 90.325 1291.26 90.47 1290.92 90.76C1290.58 91.04 1290.41 91.415 1290.41 91.885C1290.41 92.245 1290.49 92.545 1290.64 92.785C1290.79 93.025 1291.03 93.245 1291.37 93.445C1291.71 93.635 1292.17 93.835 1292.75 94.045C1293.38 94.275 1293.91 94.525 1294.34 94.795C1294.78 95.055 1295.11 95.37 1295.33 95.74C1295.56 96.11 1295.68 96.575 1295.68 97.135ZM1301.15 91.825C1302.13 91.825 1302.85 92.04 1303.32 92.47C1303.79 92.9 1304.03 93.585 1304.03 94.525V100H1303.07L1302.81 98.86H1302.75C1302.4 99.3 1302.03 99.625 1301.64 99.835C1301.25 100.045 1300.72 100.15 1300.05 100.15C1299.32 100.15 1298.72 99.96 1298.24 99.58C1297.76 99.19 1297.52 98.585 1297.52 97.765C1297.52 96.965 1297.83 96.35 1298.46 95.92C1299.09 95.48 1300.06 95.24 1301.37 95.2L1302.74 95.155V94.675C1302.74 94.005 1302.59 93.54 1302.3 93.28C1302.01 93.02 1301.6 92.89 1301.07 92.89C1300.65 92.89 1300.25 92.955 1299.87 93.085C1299.49 93.205 1299.14 93.345 1298.81 93.505L1298.4 92.515C1298.75 92.325 1299.17 92.165 1299.65 92.035C1300.13 91.895 1300.63 91.825 1301.15 91.825ZM1302.72 96.07L1301.54 96.115C1300.54 96.155 1299.84 96.315 1299.45 96.595C1299.07 96.875 1298.88 97.27 1298.88 97.78C1298.88 98.23 1299.02 98.56 1299.29 98.77C1299.57 98.98 1299.92 99.085 1300.35 99.085C1301.02 99.085 1301.58 98.9 1302.03 98.53C1302.49 98.15 1302.72 97.57 1302.72 96.79V96.07ZM1313.53 99.985L1312.15 95.455C1312.02 95.045 1311.91 94.645 1311.81 94.255C1311.71 93.865 1311.64 93.555 1311.6 93.325H1311.54C1311.5 93.555 1311.43 93.865 1311.34 94.255C1311.25 94.645 1311.14 95.05 1311 95.47L1309.56 99.985H1308.06L1305.85 91.945H1307.22L1308.33 96.235C1308.44 96.665 1308.54 97.1 1308.64 97.54C1308.74 97.98 1308.81 98.345 1308.85 98.635H1308.91C1308.94 98.465 1308.99 98.255 1309.05 98.005C1309.11 97.755 1309.17 97.495 1309.24 97.225C1309.31 96.945 1309.38 96.695 1309.45 96.475L1310.88 91.945H1312.32L1313.7 96.475C1313.8 96.825 1313.9 97.2 1314.01 97.6C1314.12 98 1314.2 98.34 1314.24 98.62H1314.3C1314.33 98.37 1314.39 98.025 1314.49 97.585C1314.6 97.145 1314.72 96.695 1314.84 96.235L1315.96 91.945H1317.31L1315.08 99.985H1313.53ZM1328.02 91.81C1328.93 91.81 1329.61 92.045 1330.06 92.515C1330.51 92.985 1330.74 93.735 1330.74 94.765V100H1329.43V94.825C1329.43 93.555 1328.89 92.92 1327.8 92.92C1327.02 92.92 1326.46 93.145 1326.12 93.595C1325.79 94.045 1325.62 94.7 1325.62 95.56V100H1324.32V94.825C1324.32 93.555 1323.77 92.92 1322.67 92.92C1321.86 92.92 1321.3 93.17 1320.99 93.67C1320.68 94.17 1320.52 94.89 1320.52 95.83V100H1319.2V91.96H1320.27L1320.46 93.055H1320.54C1320.79 92.635 1321.12 92.325 1321.54 92.125C1321.97 91.915 1322.43 91.81 1322.91 91.81C1324.17 91.81 1324.99 92.26 1325.37 93.16H1325.44C1325.71 92.7 1326.08 92.36 1326.54 92.14C1327 91.92 1327.49 91.81 1328.02 91.81ZM1336.72 91.825C1337.7 91.825 1338.42 92.04 1338.89 92.47C1339.36 92.9 1339.6 93.585 1339.6 94.525V100H1338.64L1338.38 98.86H1338.32C1337.97 99.3 1337.6 99.625 1337.21 99.835C1336.82 100.045 1336.29 100.15 1335.62 100.15C1334.89 100.15 1334.29 99.96 1333.81 99.58C1333.33 99.19 1333.09 98.585 1333.09 97.765C1333.09 96.965 1333.4 96.35 1334.03 95.92C1334.66 95.48 1335.63 95.24 1336.94 95.2L1338.31 95.155V94.675C1338.31 94.005 1338.16 93.54 1337.87 93.28C1337.58 93.02 1337.17 92.89 1336.64 92.89C1336.22 92.89 1335.82 92.955 1335.44 93.085C1335.06 93.205 1334.71 93.345 1334.38 93.505L1333.97 92.515C1334.32 92.325 1334.74 92.165 1335.22 92.035C1335.7 91.895 1336.2 91.825 1336.72 91.825ZM1338.29 96.07L1337.11 96.115C1336.11 96.155 1335.41 96.315 1335.02 96.595C1334.64 96.875 1334.45 97.27 1334.45 97.78C1334.45 98.23 1334.59 98.56 1334.86 98.77C1335.14 98.98 1335.49 99.085 1335.92 99.085C1336.59 99.085 1337.15 98.9 1337.6 98.53C1338.06 98.15 1338.29 97.57 1338.29 96.79V96.07ZM1343.85 88.6V91.945C1343.85 92.345 1343.83 92.72 1343.78 93.07H1343.87C1344.13 92.66 1344.48 92.35 1344.92 92.14C1345.37 91.93 1345.85 91.825 1346.37 91.825C1347.34 91.825 1348.07 92.06 1348.56 92.53C1349.06 92.99 1349.31 93.735 1349.31 94.765V100H1348.01V94.855C1348.01 93.565 1347.41 92.92 1346.21 92.92C1345.31 92.92 1344.69 93.175 1344.35 93.685C1344.02 94.185 1343.85 94.905 1343.85 95.845V100H1342.53V88.6H1343.85ZM1361.37 90.325C1360.22 90.325 1359.31 90.71 1358.65 91.48C1357.99 92.25 1357.66 93.305 1357.66 94.645C1357.66 95.975 1357.97 97.03 1358.58 97.81C1359.2 98.58 1360.12 98.965 1361.35 98.965C1361.81 98.965 1362.25 98.925 1362.67 98.845C1363.09 98.765 1363.51 98.665 1363.92 98.545V99.715C1363.52 99.865 1363.1 99.975 1362.67 100.045C1362.25 100.115 1361.75 100.15 1361.16 100.15C1360.07 100.15 1359.16 99.925 1358.43 99.475C1357.7 99.025 1357.15 98.385 1356.78 97.555C1356.42 96.725 1356.24 95.75 1356.24 94.63C1356.24 93.55 1356.43 92.6 1356.82 91.78C1357.22 90.95 1357.81 90.305 1358.58 89.845C1359.35 89.375 1360.28 89.14 1361.38 89.14C1362.51 89.14 1363.5 89.35 1364.34 89.77L1363.8 90.91C1363.47 90.76 1363.1 90.625 1362.69 90.505C1362.29 90.385 1361.85 90.325 1361.37 90.325ZM1373.52 95.965C1373.52 97.295 1373.18 98.325 1372.5 99.055C1371.83 99.785 1370.92 100.15 1369.77 100.15C1369.06 100.15 1368.42 99.99 1367.86 99.67C1367.31 99.34 1366.88 98.865 1366.56 98.245C1366.24 97.615 1366.08 96.855 1366.08 95.965C1366.08 94.635 1366.41 93.61 1367.07 92.89C1367.74 92.17 1368.65 91.81 1369.81 91.81C1370.53 91.81 1371.17 91.975 1371.73 92.305C1372.29 92.625 1372.73 93.095 1373.04 93.715C1373.36 94.325 1373.52 95.075 1373.52 95.965ZM1367.44 95.965C1367.44 96.915 1367.63 97.67 1368 98.23C1368.38 98.78 1368.98 99.055 1369.8 99.055C1370.61 99.055 1371.2 98.78 1371.58 98.23C1371.96 97.67 1372.15 96.915 1372.15 95.965C1372.15 95.015 1371.96 94.27 1371.58 93.73C1371.2 93.19 1370.6 92.92 1369.78 92.92C1368.96 92.92 1368.37 93.19 1368 93.73C1367.63 94.27 1367.44 95.015 1367.44 95.965ZM1379.28 100.15C1378.56 100.15 1377.93 100.005 1377.38 99.715C1376.83 99.425 1376.39 98.975 1376.07 98.365C1375.76 97.755 1375.61 96.975 1375.61 96.025C1375.61 95.035 1375.77 94.23 1376.09 93.61C1376.42 92.99 1376.87 92.535 1377.44 92.245C1378.01 91.955 1378.65 91.81 1379.37 91.81C1379.77 91.81 1380.16 91.855 1380.54 91.945C1380.93 92.025 1381.25 92.125 1381.49 92.245L1381.08 93.34C1380.84 93.25 1380.56 93.165 1380.24 93.085C1379.92 93.005 1379.62 92.965 1379.34 92.965C1377.76 92.965 1376.97 93.98 1376.97 96.01C1376.97 96.98 1377.16 97.725 1377.54 98.245C1377.93 98.755 1378.51 99.01 1379.27 99.01C1379.7 99.01 1380.08 98.965 1380.42 98.875C1380.76 98.785 1381.07 98.675 1381.35 98.545V99.715C1381.08 99.855 1380.78 99.96 1380.45 100.03C1380.13 100.11 1379.74 100.15 1379.28 100.15ZM1385.02 88.6V94.555C1385.02 94.715 1385.01 94.925 1384.99 95.185C1384.98 95.445 1384.97 95.67 1384.96 95.86H1385.02C1385.08 95.78 1385.17 95.665 1385.29 95.515C1385.41 95.365 1385.53 95.215 1385.65 95.065C1385.78 94.905 1385.89 94.775 1385.98 94.675L1388.55 91.96H1390.09L1386.84 95.395L1390.32 100H1388.73L1385.94 96.25L1385.02 97.045V100H1383.72V88.6H1385.02ZM1394.86 99.07C1395.06 99.07 1395.27 99.055 1395.48 99.025C1395.69 98.995 1395.86 98.955 1395.99 98.905V99.91C1395.85 99.98 1395.65 100.035 1395.39 100.075C1395.13 100.125 1394.88 100.15 1394.64 100.15C1394.22 100.15 1393.83 100.08 1393.47 99.94C1393.12 99.79 1392.83 99.535 1392.61 99.175C1392.39 98.815 1392.28 98.31 1392.28 97.66V92.98H1391.14V92.35L1392.3 91.825L1392.82 90.115H1393.6V91.96H1395.93V92.98H1393.6V97.63C1393.6 98.12 1393.72 98.485 1393.95 98.725C1394.19 98.955 1394.49 99.07 1394.86 99.07ZM1401.09 91.825C1402.07 91.825 1402.8 92.04 1403.27 92.47C1403.74 92.9 1403.97 93.585 1403.97 94.525V100H1403.01L1402.76 98.86H1402.7C1402.35 99.3 1401.98 99.625 1401.59 99.835C1401.2 100.045 1400.67 100.15 1400 100.15C1399.27 100.15 1398.66 99.96 1398.18 99.58C1397.7 99.19 1397.46 98.585 1397.46 97.765C1397.46 96.965 1397.78 96.35 1398.41 95.92C1399.04 95.48 1400.01 95.24 1401.32 95.2L1402.68 95.155V94.675C1402.68 94.005 1402.54 93.54 1402.25 93.28C1401.96 93.02 1401.55 92.89 1401.02 92.89C1400.6 92.89 1400.2 92.955 1399.82 93.085C1399.44 93.205 1399.08 93.345 1398.75 93.505L1398.35 92.515C1398.7 92.325 1399.11 92.165 1399.59 92.035C1400.07 91.895 1400.57 91.825 1401.09 91.825ZM1402.67 96.07L1401.48 96.115C1400.48 96.155 1399.79 96.315 1399.4 96.595C1399.02 96.875 1398.83 97.27 1398.83 97.78C1398.83 98.23 1398.96 98.56 1399.23 98.77C1399.51 98.98 1399.87 99.085 1400.3 99.085C1400.97 99.085 1401.53 98.9 1401.98 98.53C1402.44 98.15 1402.67 97.57 1402.67 96.79V96.07ZM1407.58 88.945C1407.78 88.945 1407.96 89.015 1408.11 89.155C1408.27 89.285 1408.35 89.495 1408.35 89.785C1408.35 90.075 1408.27 90.29 1408.11 90.43C1407.96 90.56 1407.78 90.625 1407.58 90.625C1407.36 90.625 1407.18 90.56 1407.03 90.43C1406.88 90.29 1406.8 90.075 1406.8 89.785C1406.8 89.495 1406.88 89.285 1407.03 89.155C1407.18 89.015 1407.36 88.945 1407.58 88.945ZM1408.23 91.96V100H1406.91V91.96H1408.23ZM1412.54 100H1411.22V88.6H1412.54V100ZM1420.78 97.78C1420.78 98.56 1420.49 99.15 1419.91 99.55C1419.33 99.95 1418.55 100.15 1417.57 100.15C1417.01 100.15 1416.52 100.105 1416.11 100.015C1415.71 99.925 1415.36 99.8 1415.05 99.64V98.44C1415.37 98.6 1415.75 98.75 1416.2 98.89C1416.66 99.02 1417.13 99.085 1417.6 99.085C1418.27 99.085 1418.75 98.98 1419.05 98.77C1419.35 98.55 1419.5 98.26 1419.5 97.9C1419.5 97.7 1419.45 97.52 1419.34 97.36C1419.23 97.2 1419.03 97.04 1418.74 96.88C1418.46 96.72 1418.05 96.54 1417.52 96.34C1417 96.14 1416.56 95.94 1416.19 95.74C1415.82 95.54 1415.53 95.3 1415.33 95.02C1415.13 94.74 1415.03 94.38 1415.03 93.94C1415.03 93.26 1415.31 92.735 1415.86 92.365C1416.42 91.995 1417.15 91.81 1418.05 91.81C1418.54 91.81 1418.99 91.86 1419.41 91.96C1419.84 92.06 1420.24 92.19 1420.61 92.35L1420.16 93.4C1419.82 93.26 1419.47 93.14 1419.1 93.04C1418.73 92.94 1418.35 92.89 1417.96 92.89C1417.42 92.89 1417 92.98 1416.71 93.16C1416.43 93.33 1416.29 93.565 1416.29 93.865C1416.29 94.095 1416.36 94.285 1416.49 94.435C1416.62 94.585 1416.83 94.735 1417.13 94.885C1417.44 95.035 1417.85 95.205 1418.36 95.395C1418.87 95.585 1419.31 95.78 1419.67 95.98C1420.03 96.18 1420.3 96.425 1420.49 96.715C1420.68 96.995 1420.78 97.35 1420.78 97.78Z" fill="#262626"/>
</svg>
