<svg width="1418" height="110" viewBox="0 0 1418 110" fill="none" xmlns="http://www.w3.org/2000/svg">
<path d="M2.214 15.588C5.022 15.48 9.144 15.318 13.032 15.102C13.41 15.462 13.716 15.786 13.95 16.056L15.66 15.228C14.796 14.274 13.104 12.924 11.79 12.024L10.188 12.78C10.53 13.014 10.908 13.284 11.268 13.572L7.164 13.716C7.524 13.194 7.92 12.582 8.262 11.97L6.012 11.682C5.76 12.312 5.346 13.086 4.932 13.788C3.888 13.824 2.934 13.86 2.106 13.878L2.214 15.588ZM13.194 23.436C11.196 25.47 7.146 26.442 2.826 26.856C3.222 27.342 3.618 28.044 3.798 28.566C8.406 27.954 12.546 26.766 14.922 24.264L13.194 23.436ZM11.232 21.654C9.63 22.932 6.48 23.868 3.744 24.3C4.14 24.732 4.572 25.38 4.788 25.83C7.758 25.2 10.89 24.084 12.834 22.464L11.232 21.654ZM9.324 20.016C8.118 20.844 5.814 21.636 4.05 22.05C4.482 22.41 4.914 22.932 5.184 23.31C7.056 22.788 9.342 21.888 10.836 20.79L9.324 20.016ZM17.298 19.278C17.028 18.486 16.272 17.316 15.552 16.488L14.058 17.1C14.256 17.352 14.454 17.622 14.634 17.91L12.888 18C13.194 17.406 13.536 16.722 13.86 16.092L11.916 15.66C11.736 16.362 11.43 17.316 11.124 18.072C10.638 17.64 10.17 17.172 9.774 16.668H7.92C7.668 17.01 7.38 17.37 7.038 17.712C6.858 17.316 6.642 16.92 6.426 16.578L4.932 17.01C5.094 17.28 5.256 17.586 5.4 17.892L3.978 18.018C4.338 17.442 4.716 16.794 5.058 16.182L3.132 15.732C2.916 16.452 2.538 17.406 2.142 18.18C1.692 18.216 1.242 18.252 0.864 18.27L1.008 19.8L5.094 19.35C3.762 20.286 2.16 21.096 0.468 21.6C0.828 21.996 1.224 22.662 1.404 23.112C4.446 22.086 7.434 20.196 8.928 18.27C10.566 20.34 13.752 22.122 16.56 22.986C16.83 22.482 17.19 21.834 17.586 21.366C16.002 20.988 14.382 20.34 12.924 19.422C13.698 19.332 14.526 19.26 15.372 19.152C15.516 19.458 15.624 19.728 15.714 19.962L17.298 19.278ZM22.842 21.114H24.732V19.35H22.788L22.752 17.838H24.732V16.074H22.698L22.662 14.778C23.544 14.436 24.516 14.004 25.38 13.59V18.216H28.062V22.59H27.036V18.828H25.344V22.59H22.896L22.842 21.114ZM35.838 22.59H34.11C34.272 19.89 34.344 15.948 34.344 12.798H30.294V14.652H32.382C32.382 15.12 32.382 15.588 32.364 16.074H30.51V17.838H32.328C32.31 18.36 32.292 18.864 32.274 19.368H30.492V21.132H32.202C32.166 21.636 32.13 22.14 32.112 22.59H29.88V16.542H27.198V15.336H29.952V13.554H27.198V11.97H25.38V13.23L24.012 11.916C23.472 12.33 22.68 12.834 21.888 13.266L20.682 12.942L20.97 22.59H19.296V24.588H24.084C22.896 25.452 20.952 26.496 19.368 27.09C19.872 27.486 20.628 28.134 21.006 28.566C22.644 27.882 24.822 26.73 26.244 25.74L24.66 24.588H30.042L28.746 25.758C30.564 26.64 32.562 27.828 33.696 28.584L35.802 27.126C34.65 26.424 32.706 25.434 30.924 24.588H35.838V22.59ZM50.814 26.028H44.424V23.58H50.814V26.028ZM48.456 16.146H46.278V21.69H42.336V28.566H44.424V27.9H50.814V28.548H53.01V21.69H48.456V19.728H54.072V17.838H48.456V16.146ZM47.754 13.842V11.772H45.522V13.842H39.114V18.378C39.114 20.97 38.988 24.75 37.512 27.324C38.016 27.558 38.97 28.17 39.366 28.53C40.986 25.722 41.256 21.276 41.256 18.378V15.876H54.306V13.842H47.754ZM59.13 15.12H70.092V17.19H72.288V13.176H65.7V11.772H63.504V13.176H57.024V17.19H59.13V15.12ZM70.614 18.198C69.966 18.81 69.012 19.548 68.112 20.16C67.824 19.494 67.572 18.792 67.374 18.072H69.426V16.272H59.76V18.072H62.388C60.804 18.882 58.806 19.512 56.88 19.89C57.222 20.304 57.762 21.15 57.978 21.564C59.4 21.186 60.876 20.664 62.244 20.034C62.406 20.178 62.55 20.322 62.694 20.466C61.344 21.384 58.95 22.374 57.132 22.806C57.528 23.22 57.978 23.958 58.212 24.426C59.922 23.832 62.136 22.752 63.666 21.726C63.792 21.924 63.9 22.14 64.008 22.356C62.226 23.868 59.094 25.344 56.502 25.992C56.898 26.46 57.366 27.234 57.618 27.774C59.868 27 62.532 25.65 64.494 24.21C64.566 25.164 64.314 25.902 63.9 26.226C63.612 26.55 63.27 26.604 62.82 26.604C62.352 26.604 61.776 26.568 61.092 26.514C61.488 27.108 61.668 27.972 61.704 28.566C62.226 28.602 62.784 28.62 63.234 28.602C64.17 28.602 64.764 28.422 65.43 27.846C67.212 26.55 67.338 22.068 63.954 19.116C64.494 18.792 64.998 18.45 65.448 18.072H65.484C66.51 22.266 68.292 25.578 71.496 27.288C71.838 26.694 72.522 25.848 72.99 25.434C71.298 24.678 69.966 23.4 68.976 21.816C70.02 21.222 71.262 20.412 72.288 19.638L70.614 18.198Z" fill="#262626"/>
<path d="M4.76 90.088V92.734H2.142V90.088H4.76ZM2.142 96.472V93.686H4.76V96.472H2.142ZM5.726 97.438V89.15H1.162V98.726H2.142V97.438H5.726ZM7.938 95.66C8.008 95.03 8.022 94.414 8.022 93.84V93.21H11.928V95.66H7.938ZM11.928 89.864V92.258H8.022V89.864H11.928ZM12.936 88.884H7.014V93.84C7.014 96.01 6.776 98.642 4.424 100.448C4.634 100.588 5.026 100.938 5.194 101.162C6.776 99.944 7.49 98.278 7.798 96.612H11.928V99.692C11.928 99.944 11.83 100.028 11.564 100.042C11.34 100.042 10.458 100.056 9.548 100.028C9.716 100.294 9.884 100.756 9.94 101.036C11.13 101.036 11.9 101.008 12.348 100.854C12.796 100.672 12.936 100.35 12.936 99.692V88.884ZM25.018 90.914H17.822V89.696H25.018V90.914ZM25.018 92.958H17.822V91.712H25.018V92.958ZM26.068 88.856H16.8V93.798H26.068V88.856ZM21.966 99.79V98.278H26.04V97.438H21.966V96.122H26.614V95.226H21.966V94.106H20.902V95.226H18.102C18.326 94.862 18.55 94.47 18.732 94.092L17.71 93.812C17.15 95.03 16.184 96.234 15.148 97.018C15.414 97.158 15.834 97.48 16.03 97.676C16.506 97.242 17.01 96.71 17.472 96.122H20.902V97.438H16.996V98.278H20.902V99.79H15.358V100.714H27.496V99.79H21.966ZM32.578 93.56C32.018 93.098 30.884 92.496 29.988 92.146L29.428 92.902C30.338 93.308 31.444 93.952 32.004 94.428L32.578 93.56ZM30.758 100.868C31.528 99.58 32.452 97.844 33.138 96.374L32.368 95.716C31.598 97.298 30.59 99.118 29.876 100.196L30.758 100.868ZM30.17 89.15C31.066 89.57 32.158 90.256 32.69 90.76L33.306 89.934C32.746 89.416 31.64 88.786 30.744 88.408L30.17 89.15ZM42.224 96.864H38.276V94.806H41.454V93.854H38.276V91.866H41.888V90.886H39.704C40.124 90.284 40.628 89.416 41.048 88.632L39.956 88.268C39.662 88.996 39.116 90.018 38.696 90.676L39.27 90.886H36.064L36.736 90.578C36.512 89.948 35.938 88.996 35.406 88.31L34.482 88.688C34.958 89.346 35.462 90.256 35.7 90.886H33.754V91.866H37.226V93.854H34.16V94.806H37.226V96.864H33.404V97.858H37.226V101.064H38.276V97.858H42.224V96.864ZM45.738 95.38C45.752 94.82 45.766 94.274 45.766 93.798V93.028H47.88V95.38H45.738ZM47.88 89.766V92.062H45.766V89.766H47.88ZM48.846 88.8H44.814V93.798C44.814 95.856 44.744 98.628 43.778 100.588C44.03 100.686 44.45 100.924 44.632 101.092C45.262 99.776 45.556 98.026 45.682 96.374H47.88V99.818C47.88 100.014 47.81 100.07 47.614 100.084C47.446 100.098 46.858 100.098 46.214 100.084C46.354 100.35 46.494 100.812 46.508 101.078C47.46 101.078 48.02 101.064 48.37 100.882C48.734 100.7 48.846 100.392 48.846 99.832V88.8ZM55.244 94.526C54.922 95.716 54.446 96.766 53.844 97.662C53.2 96.738 52.696 95.674 52.318 94.526H55.244ZM55.776 93.532L55.594 93.56H51.058V89.808H54.978V91.516C54.978 91.684 54.922 91.74 54.698 91.74C54.488 91.754 53.76 91.754 52.906 91.74C53.046 91.992 53.2 92.342 53.242 92.622C54.292 92.622 54.992 92.622 55.44 92.482C55.86 92.328 55.986 92.062 55.986 91.53V88.842H50.078V101.078H51.058V94.526H51.408C51.87 95.968 52.486 97.312 53.27 98.446C52.626 99.202 51.898 99.804 51.128 100.224C51.338 100.406 51.604 100.756 51.744 100.994C52.514 100.546 53.228 99.944 53.858 99.202C54.53 99.986 55.286 100.616 56.126 101.092C56.28 100.84 56.56 100.49 56.798 100.294C55.916 99.86 55.132 99.23 54.46 98.46C55.342 97.214 56.014 95.646 56.378 93.742L55.776 93.532ZM64.134 96.206C63.784 95.898 62.552 94.82 61.894 94.302C62.636 93.364 63.28 92.328 63.714 91.25L63.126 90.858L62.944 90.9H61.726V88.296H60.704V90.9H58.506V91.852H62.398C61.432 93.714 59.682 95.478 58.016 96.444C58.184 96.64 58.45 97.116 58.562 97.382C59.276 96.92 60.004 96.332 60.704 95.632V101.064H61.726V95.268C62.356 95.856 63.126 96.64 63.49 97.046L64.134 96.206ZM67.942 99.65V93.84H70.924V92.832H67.942V88.394H66.906V92.832H63.91V93.84H66.906V99.65H63.364V100.672H71.204V99.65H67.942Z" fill="#262626"/>
<path d="M122.104 91.152H118.044V90.144H121.25V89.36H118.044V88.296H117.036V89.36H113.9V90.144H117.036V91.152H113.144V91.936H122.104V91.152ZM115.244 93.448H119.906V94.848H115.244V93.448ZM120.872 95.604C120.382 95.996 119.738 96.472 119.192 96.808C118.73 96.444 118.338 96.038 118.044 95.604H120.872ZM117.022 99.258H118.002V96.808C118.912 97.816 120.186 98.6 121.558 98.992C121.684 98.754 121.936 98.39 122.16 98.194C121.32 97.998 120.522 97.676 119.822 97.242C120.48 96.864 121.264 96.36 121.908 95.87L121.138 95.38L120.928 95.562V92.692H114.292V95.604H116.672C115.79 96.556 114.418 97.312 113.074 97.816C113.27 97.998 113.592 98.404 113.704 98.614C114.866 98.11 116.084 97.396 117.022 96.514V99.258ZM112.878 90.914C112.444 90.228 111.478 89.276 110.624 88.632L109.826 89.22C110.68 89.892 111.618 90.858 112.038 91.558L112.878 90.914ZM112.458 93.77H109.7V94.75H111.478V98.334C110.848 98.922 110.134 99.51 109.546 99.944L110.092 100.938C110.778 100.336 111.422 99.748 112.038 99.146C112.906 100.238 114.166 100.728 116 100.798C117.568 100.868 120.522 100.84 122.09 100.77C122.132 100.462 122.3 99.986 122.426 99.748C120.746 99.86 117.526 99.902 115.986 99.832C114.348 99.776 113.116 99.3 112.458 98.264V93.77ZM126.612 94.694H129.86V96.052H126.612V94.694ZM126.612 92.594H129.86V93.924H126.612V92.594ZM134.354 92.594V93.924H130.91V92.594H134.354ZM134.354 96.052H130.91V94.694H134.354V96.052ZM135.404 96.864V91.768H130.91V90.592H136.524V89.612H130.91V88.296H129.86V89.612H124.386V90.592H129.86V91.768H125.604V96.864H128.992C127.746 98.166 125.8 99.37 124.036 99.986C124.288 100.196 124.596 100.588 124.764 100.854C126.542 100.126 128.53 98.796 129.86 97.298V101.064H130.91V97.256C132.254 98.768 134.298 100.154 136.118 100.882C136.272 100.588 136.594 100.196 136.846 99.986C135.054 99.384 133.066 98.18 131.792 96.864H135.404ZM150.944 90.872C150.664 90.242 149.978 89.304 149.292 88.646L148.522 89.038C149.166 89.71 149.838 90.662 150.104 91.32L150.944 90.872ZM142.278 90.368C142.082 90.858 141.83 91.404 141.592 91.81H140.024C140.29 91.334 140.514 90.858 140.696 90.368H142.278ZM143.328 94.064H142.082V92.664H143.328V94.064ZM143.328 96.318H142.082V94.876H143.328V96.318ZM140.108 94.064V92.664H141.312V94.064H140.108ZM141.312 94.876V96.318H140.108V94.876H141.312ZM139.268 93V97.186H144.196V91.81H142.516C142.88 91.222 143.23 90.522 143.51 89.892L142.908 89.486L142.726 89.542H141.004C141.13 89.164 141.242 88.786 141.34 88.422L140.388 88.296C140.08 89.598 139.436 91.306 138.414 92.594C138.638 92.692 138.96 92.972 139.128 93.182L139.268 93ZM139.058 101.064C139.744 100.364 139.996 99.16 140.136 97.998L139.38 97.816C139.268 98.908 139.002 100.014 138.372 100.63L139.058 101.064ZM140.612 97.956C140.766 98.782 140.836 99.832 140.78 100.518L141.536 100.406C141.564 99.734 141.48 98.67 141.312 97.858L140.612 97.956ZM141.928 97.928C142.208 98.656 142.446 99.594 142.488 100.224L143.202 100.056C143.132 99.44 142.894 98.488 142.586 97.788L141.928 97.928ZM144.728 99.356C144.588 98.866 144.266 98.138 143.944 97.55L143.286 97.788C143.608 98.362 143.902 99.132 144.028 99.622L144.728 99.356ZM148.83 99.93C148.494 99.93 148.438 99.86 148.438 99.468V93.672H147.92C147.934 93.42 147.948 93.168 147.962 92.93H151.224V91.964H148.004C148.004 91.726 148.004 91.502 148.004 91.278V88.282H147.052V91.264C147.052 91.488 147.052 91.726 147.052 91.964H144.518V92.93H147.01C146.87 95.366 146.282 98.194 144 100.406C144.252 100.56 144.616 100.896 144.784 101.078C146.226 99.664 147.024 97.998 147.472 96.332V99.468C147.472 100.546 147.724 100.854 148.69 100.854H150.062C150.944 100.854 151.196 100.322 151.28 98.46C151.014 98.39 150.622 98.222 150.412 98.054C150.37 99.65 150.3 99.93 149.978 99.93H148.83ZM160.184 90.046C159.904 90.536 159.512 91.068 159.148 91.474H155.774C156.222 91.012 156.628 90.522 156.992 90.046H160.184ZM163.026 93.98H159.736V92.356H163.026V93.98ZM163.026 96.458H159.736V94.806H163.026V96.458ZM155.62 94.806H158.742V96.458H155.62V94.806ZM155.62 92.356H158.742V93.98H155.62V92.356ZM154.626 97.34H164.076V91.474H160.408C160.87 90.9 161.346 90.2 161.654 89.584L160.94 89.15L160.772 89.192H157.608C157.776 88.94 157.93 88.702 158.07 88.464L156.908 88.24C156.18 89.584 154.808 91.278 152.932 92.496C153.17 92.664 153.52 93.014 153.674 93.266C154.01 93.028 154.318 92.79 154.626 92.538V97.34ZM153.786 101.106C154.64 100.42 155.368 99.272 155.802 98.166L154.808 97.886C154.402 98.922 153.66 100 152.862 100.574L153.786 101.106ZM157.132 98.25C157.3 99.118 157.412 100.238 157.412 100.91L158.462 100.784C158.448 100.126 158.308 99.02 158.126 98.18L157.132 98.25ZM159.904 98.278C160.31 99.118 160.716 100.238 160.856 100.91L161.85 100.658C161.696 99.986 161.262 98.88 160.856 98.082L159.904 98.278ZM162.634 98.18C163.446 99.062 164.356 100.28 164.72 101.078L165.714 100.616C165.308 99.804 164.384 98.614 163.572 97.774L162.634 98.18ZM168.066 94.624C168.906 94.232 169.508 93.602 169.9 92.972L169.452 92.748H172.224L171.468 92.93C171.706 93.336 171.916 93.868 171.958 94.218L172.826 93.994C172.742 93.644 172.532 93.14 172.294 92.748H174.758L174.142 92.93C174.436 93.322 174.716 93.854 174.814 94.204L175.654 93.938C175.542 93.588 175.29 93.112 174.982 92.748H177.6L177.082 93.056C177.81 93.462 178.706 94.148 179.154 94.624L179.896 94.134C179.504 93.728 178.706 93.154 177.992 92.748H179.714V92.048H174.17V91.404H178.594V90.76H174.17V90.144H179.252V89.444H176.48C176.732 89.178 177.026 88.842 177.292 88.492L176.158 88.268C175.99 88.59 175.64 89.108 175.388 89.444H171.706L172 89.332C171.832 89.038 171.44 88.59 171.104 88.268L170.166 88.562C170.418 88.814 170.698 89.15 170.894 89.444H168.304V90.144H173.176V90.76H169.004V91.404H173.176V92.048H167.646V92.748H169.116C168.738 93.266 168.15 93.784 167.436 94.064L168.066 94.624ZM179.756 99.076V98.404H173.946C174.016 98.194 174.086 97.97 174.128 97.718H179.924V97.004H174.128V96.388H178.692V95.758H174.128V95.142H179V94.484H176.844C177.04 94.274 177.236 94.05 177.432 93.812L176.438 93.546C176.27 93.812 176.018 94.176 175.766 94.484H171.65C171.454 94.19 171.132 93.84 170.838 93.588L170.012 93.868C170.222 94.036 170.432 94.26 170.6 94.484H168.43V95.142H173.148V95.758H168.766V96.388H173.148V97.004H167.506V97.718H173.162C173.106 97.97 173.036 98.194 172.938 98.404H167.674V99.076H172.476C171.706 99.832 170.236 100.182 167.422 100.35C167.576 100.532 167.744 100.882 167.8 101.092C171.202 100.84 172.826 100.308 173.61 99.09C174.73 100.392 176.844 100.938 179.588 101.078C179.7 100.84 179.91 100.49 180.12 100.28C177.712 100.238 175.738 99.916 174.66 99.076H179.756Z" fill="#262626"/>
<path d="M225.336 97.69H229.172V98.46H225.434V99.104H229.172V99.93H220.968V99.104H224.524V98.46H220.968V97.816C222.298 97.648 223.782 97.382 224.804 97.032L224.104 96.458C223.362 96.738 222.06 96.99 220.842 97.172L219.932 96.948V101.092H220.968V100.644H229.172V101.078H230.194V97.004H225.336V97.69ZM224.538 92.944H221.346V92.202H224.538V92.944ZM224.538 94.246H221.346V93.56H224.538V94.246ZM224.538 95.59H221.346V94.876H224.538V95.59ZM227.8 90.83V90.074H231.174V89.234H227.8V88.296H226.778V89.234H223.152V88.296H222.144V89.234H218.882V90.074H222.144V90.536L221.29 90.396C220.828 91.362 219.946 92.622 218.742 93.532C218.966 93.672 219.274 93.966 219.428 94.162C219.778 93.868 220.114 93.56 220.408 93.238V96.598H221.346V96.304H230.81V95.59H225.504V94.876H229.676V94.246H225.504V93.56H229.634V92.944H225.504V92.202H230.292V91.488H225.392C225.56 91.194 225.728 90.872 225.896 90.536L224.846 90.382C224.762 90.69 224.594 91.124 224.44 91.488H221.752C221.892 91.264 222.018 91.026 222.144 90.802V90.83H223.152V90.074H226.778V90.83H227.8ZM242.92 97.494V98.348H236.032V97.494H242.92ZM236.032 99.916V99.02H242.92V99.916H236.032ZM235.024 101.106H236.032V100.644H242.92V101.078H243.956V96.78H235.024V101.106ZM239.882 91.516H242.864V92.342H239.882V91.516ZM239.882 89.948H242.864V90.732H239.882V89.948ZM239.882 95.352V94.526H244.656V93.812H239.882V93.042H243.886V91.516H245.594V90.732H243.886V89.248H239.882V88.268H238.86V89.248H234.73V89.948H238.86V90.732H233.26V91.516H238.86V92.342H234.576V93.042H238.86V93.812H234.184V94.526H238.86V95.352H233.232V96.122H245.608V95.352H239.882ZM259.944 89.528C259.538 89.122 258.684 88.576 257.998 88.226L257.452 88.814C258.166 89.192 258.992 89.766 259.398 90.186L259.944 89.528ZM258.922 93.35V94.75H256.934V93.35H258.922ZM256.934 97.004V95.562H258.922V97.004H256.934ZM254.176 97.004V95.562H255.996V97.004H254.176ZM255.996 93.35V94.75H254.176V93.35H255.996ZM260.154 91.18V90.228H256.934V88.282H255.996V90.228H252.972V90.676C252.468 89.976 251.516 88.996 250.746 88.296H249.794C249.332 89.402 248.436 90.816 247.176 91.88C247.358 92.006 247.666 92.328 247.82 92.538C248.016 92.356 248.212 92.174 248.394 91.992V92.622H249.836V94.106H247.652V95.016H249.836V99.23C248.968 99.412 248.17 99.566 247.526 99.678L247.736 100.63C249.178 100.322 251.11 99.902 252.944 99.482L252.86 98.614C252.16 98.754 251.432 98.908 250.746 99.048V95.016H252.748V94.106H250.746V92.622H252.3V91.726H248.632C249.402 90.886 249.976 89.99 250.396 89.234C251.152 89.948 251.964 90.97 252.37 91.6L252.972 90.928V91.18H255.996V92.454H253.238V101.064H254.176V97.914H255.996V101.05H256.934V97.914H258.922V99.902C258.922 100.056 258.866 100.112 258.726 100.112C258.572 100.126 258.124 100.126 257.606 100.098C257.732 100.35 257.886 100.784 257.914 101.05C258.684 101.05 259.146 101.036 259.468 100.868C259.79 100.7 259.874 100.406 259.874 99.916V92.454H256.934V91.18H260.154ZM251.936 98.334C252.146 97.69 252.412 96.696 252.636 95.842L251.824 95.632C251.712 96.374 251.446 97.48 251.25 98.152L251.936 98.334ZM247.974 95.94C248.24 96.78 248.45 97.858 248.478 98.586L249.248 98.39C249.206 97.676 248.982 96.598 248.688 95.758L247.974 95.94ZM274.588 94.498H268.82V93.126C270.374 92.286 272.208 90.984 273.398 89.78L272.642 89.206L272.39 89.262H263.416V90.27H271.298C270.486 90.97 269.408 91.712 268.414 92.258H267.756V94.498H261.974V95.534H267.756V99.72C267.756 99.972 267.672 100.042 267.364 100.056C267.07 100.07 266.034 100.07 264.914 100.028C265.096 100.322 265.278 100.798 265.362 101.092C266.692 101.106 267.602 101.078 268.12 100.91C268.638 100.742 268.82 100.42 268.82 99.72V95.534H274.588V94.498Z" fill="#262626"/>
<path d="M319.874 96.402C319.524 96.052 317.998 94.624 317.48 94.19V93.35H319.93V92.356H317.48V89.864C318.32 89.654 319.118 89.416 319.748 89.15L318.978 88.38C317.788 88.926 315.604 89.402 313.728 89.696C313.854 89.92 313.994 90.27 314.05 90.508C314.82 90.396 315.646 90.256 316.458 90.088V92.356H313.756V93.35H316.262C315.604 95.002 314.47 96.878 313.462 97.886C313.63 98.152 313.896 98.572 314.008 98.866C314.862 97.914 315.772 96.388 316.458 94.862V101.022H317.48V95.254C318.11 95.898 318.908 96.752 319.23 97.2L319.874 96.402ZM326.454 100.714C326.146 99.216 325.194 96.878 324.214 95.086L323.234 95.394C323.78 96.416 324.312 97.62 324.704 98.74C323.36 98.88 322.016 99.02 320.826 99.146C321.638 96.248 322.548 92.062 323.094 88.772L321.932 88.576C321.484 91.88 320.56 96.346 319.748 99.258C319.258 99.3 318.824 99.342 318.432 99.384L318.684 100.462C320.364 100.266 322.73 99.972 325.026 99.664C325.18 100.182 325.306 100.658 325.376 101.064L326.454 100.714ZM338.984 90.9H334.924V89.584H338.984V90.9ZM338.984 93.014H334.924V91.684H338.984V93.014ZM339.992 88.744H333.972V93.854H339.992V88.744ZM331.886 92.132C331.732 93.938 331.41 95.464 330.948 96.696C330.458 96.304 329.94 95.912 329.464 95.576C329.702 94.512 329.968 93.322 330.22 92.132H331.886ZM332.292 91.138L332.11 91.166H330.416C330.626 90.186 330.808 89.234 330.962 88.38L329.954 88.282C329.814 89.15 329.632 90.144 329.436 91.166H328.036V92.132H329.254C328.904 93.84 328.526 95.534 328.218 96.71L329.072 97.172L329.226 96.57C329.66 96.906 330.094 97.27 330.528 97.648C329.912 98.852 329.114 99.706 328.148 100.238C328.358 100.448 328.624 100.84 328.764 101.078C329.8 100.448 330.64 99.566 331.284 98.348C331.802 98.852 332.236 99.328 332.544 99.734L333.202 98.88C332.866 98.432 332.334 97.914 331.732 97.382C332.362 95.814 332.754 93.798 332.894 91.236L332.292 91.138ZM334.434 99.594V98.124H339.404V99.594H334.434ZM339.404 95.842V97.242H334.434V95.842H339.404ZM333.454 94.946V101.05H334.434V100.504H339.404V100.98H340.412V94.946H333.454ZM345.578 98.222C344.99 98.978 343.94 99.692 342.974 100.182C343.198 100.336 343.604 100.714 343.758 100.896C344.752 100.336 345.872 99.454 346.558 98.544L345.578 98.222ZM350.73 98.684C351.738 99.3 352.928 100.224 353.488 100.854L354.37 100.308C353.768 99.664 352.55 98.782 351.57 98.18L350.73 98.684ZM346.698 93.924C347.202 93.462 347.65 92.93 348.028 92.342H349.638C349.988 92.93 350.422 93.448 350.926 93.924H346.698ZM351.5 95.562H346.124V94.666H351.5V95.562ZM351.5 97.2H346.124V96.262H351.5V97.2ZM353.446 92.328C353.096 92.72 352.508 93.252 352.018 93.672C351.486 93.28 351.024 92.832 350.66 92.342H353.25V91.488H348.504C348.672 91.152 348.812 90.802 348.938 90.424L348.182 90.27H353.684V91.796H354.678V89.346H349.33V88.296H348.308V89.346H342.974V91.796H343.926V90.27H347.902C347.762 90.704 347.594 91.11 347.398 91.488H344.486V92.342H346.852C346.516 92.804 346.11 93.21 345.662 93.56C345.284 93.182 344.668 92.706 344.178 92.37L343.492 92.916C343.968 93.252 344.528 93.728 344.892 94.106C344.192 94.554 343.38 94.904 342.484 95.17C342.708 95.366 343.044 95.772 343.198 95.968C343.898 95.716 344.556 95.408 345.158 95.058V97.928H348.322V99.972C348.322 100.126 348.28 100.182 348.07 100.196C347.846 100.21 347.146 100.21 346.362 100.182C346.502 100.434 346.656 100.798 346.726 101.064C347.72 101.064 348.378 101.078 348.798 100.924C349.232 100.784 349.344 100.518 349.344 100V97.928H352.508V95.072C353.138 95.422 353.838 95.702 354.566 95.912C354.692 95.66 354.972 95.282 355.196 95.086C354.3 94.89 353.446 94.554 352.704 94.12C353.208 93.77 353.796 93.294 354.314 92.832L353.446 92.328ZM362.84 94.54H365.64V95.968H362.84V94.54ZM362.84 92.37H365.64V93.644H362.84V92.37ZM359.312 89.864H367.67V91.46H359.312V89.864ZM367.992 96.948C367.46 97.382 366.606 97.956 365.892 98.362C365.444 97.928 365.066 97.424 364.772 96.864H369.518V95.968H366.606V94.54H368.958V93.644H366.606V92.37H368.692V88.954H358.262V93.028C358.262 95.268 358.15 98.348 356.75 100.546C357.002 100.644 357.464 100.91 357.66 101.078C359.102 98.81 359.312 95.408 359.312 93.028V92.37H361.86V93.644H359.774V94.54H361.86V95.968H359.354V96.864H361.118V99.678C360.516 99.776 359.97 99.86 359.508 99.916L359.676 100.882C361.132 100.63 363.162 100.294 365.08 99.972L365.038 99.062C364.03 99.23 363.022 99.384 362.084 99.538V96.864H363.806C364.744 99.006 366.522 100.462 369.042 101.092C369.154 100.826 369.434 100.448 369.658 100.224C368.44 99.986 367.39 99.538 366.536 98.908C367.264 98.53 368.104 97.998 368.776 97.494L367.992 96.948ZM382.58 89.332H372.808V90.354H382.58V89.332ZM373.998 95.086C373.382 96.668 372.374 98.194 371.226 99.174C371.492 99.314 371.968 99.636 372.164 99.804C373.284 98.74 374.376 97.074 375.062 95.366L373.998 95.086ZM380.228 95.492C381.25 96.85 382.286 98.656 382.678 99.804L383.7 99.356C383.294 98.18 382.202 96.402 381.18 95.1L380.228 95.492ZM371.562 92.706V93.728H377.148V99.692C377.148 99.916 377.064 99.986 376.798 99.986C376.546 100 375.636 100 374.684 99.972C374.838 100.28 375.006 100.742 375.062 101.05C376.28 101.05 377.106 101.036 377.596 100.868C378.086 100.7 378.254 100.378 378.254 99.72V93.728H383.812V92.706H371.562ZM389.986 92.734V93.84H387.578V92.734H389.986ZM387.578 95.688V94.568H389.986V95.688H387.578ZM388.978 97.368C389.244 97.732 389.51 98.138 389.748 98.558C389.006 98.754 388.264 98.936 387.578 99.104V96.486H390.91V91.964H389.356V90.634H388.46V91.964H386.71C387.662 91.04 388.348 90.032 388.824 89.178C389.594 89.864 390.392 90.858 390.798 91.502L391.484 90.732C391.022 90.018 390.042 89.01 389.188 88.296H388.194C387.676 89.402 386.752 90.83 385.408 91.88C385.618 92.006 385.926 92.328 386.066 92.538C386.262 92.37 386.458 92.202 386.64 92.034V99.328L385.688 99.552L386.01 100.504C387.172 100.196 388.698 99.762 390.168 99.342C390.392 99.79 390.56 100.21 390.672 100.56L391.554 100.14C391.274 99.272 390.532 97.97 389.79 96.99L388.978 97.368ZM397.07 97.536V99.454H393.332V97.536H397.07ZM397.378 90.662V92.02H392.464V90.662H397.378ZM396.496 94.638H393.332V92.888H396.496V94.638ZM397.448 95.492V92.146H398.358V89.794H395.362V88.282H394.368V89.794H391.526V92.146H392.38V101.064H393.332V100.35H397.07V100.952H398.022V96.668H393.332V95.492H397.448Z" fill="#262626"/>
<path d="M450.328 99.37H439.38V90.004H449.978V89.024H438.344V101.092H439.38V100.35H450.328V99.37ZM446.394 98.698V94.736H449.46V93.812H442.25V93.77V92.356C444.364 92.174 446.786 91.866 448.368 91.348L447.542 90.634C446.38 91.026 444.28 91.334 442.362 91.53L441.256 91.264V93.756C441.256 95.058 441.116 96.738 440.066 98.04C440.304 98.166 440.668 98.502 440.808 98.726C441.788 97.55 442.124 96.038 442.222 94.736H445.4V98.698H446.394ZM461.5 93.294C462.676 94.862 463.698 97.032 464.02 98.488L465.042 97.998C464.706 96.528 463.656 94.414 462.41 92.832L461.5 93.294ZM453.38 93.294C453.198 95.086 452.736 97.116 451.798 98.334L452.736 98.908C453.73 97.564 454.164 95.366 454.388 93.49L453.38 93.294ZM455.816 89.15C457.496 89.738 459.512 90.774 460.604 91.572L461.262 90.662C460.156 89.934 458.14 88.912 456.474 88.352L455.816 89.15ZM455.718 92.16V99.146C455.718 100.504 456.124 100.882 457.608 100.882H460.324C461.836 100.882 462.172 100.112 462.312 97.48C462.018 97.41 461.584 97.214 461.346 97.004C461.234 99.426 461.108 99.93 460.268 99.93H457.692C456.922 99.93 456.768 99.804 456.768 99.16V92.16H455.718ZM472.042 97.088V95.786H473.554V97.088H472.042ZM475.864 95.786V97.088H474.394V95.786H475.864ZM471.832 89.696H473.232V91.348H471.832V89.696ZM474.03 89.696H475.486V91.348H474.03V89.696ZM476.27 89.696H477.754V91.348H476.27V89.696ZM478.986 93.112H472.63C472.812 92.804 472.98 92.496 473.12 92.174H478.678V88.87H470.95V92.174H472.084C471.58 93.168 470.824 94.106 469.984 94.75C469.928 93.42 469.732 92.146 469.172 90.928C469.732 90.242 470.222 89.528 470.614 88.814L469.732 88.366C469.452 88.912 469.088 89.472 468.668 90.018C468.318 89.472 467.87 88.94 467.296 88.408L466.568 88.94C467.198 89.542 467.674 90.158 468.038 90.802C467.506 91.418 466.918 91.978 466.316 92.44C466.54 92.594 466.876 92.888 467.016 93.084C467.506 92.678 467.996 92.23 468.458 91.74C468.682 92.342 468.836 92.972 468.92 93.63C468.318 94.848 467.24 96.15 466.302 96.822C466.526 97.018 466.82 97.368 466.974 97.606C467.674 97.018 468.43 96.122 469.032 95.184C469.032 95.38 469.032 95.59 469.032 95.786C469.032 97.592 468.906 99.398 468.556 99.846C468.458 99.986 468.346 100.042 468.15 100.07C467.856 100.098 467.38 100.098 466.792 100.056C466.974 100.336 467.058 100.728 467.072 101.05C467.604 101.078 468.122 101.064 468.542 100.98C468.892 100.938 469.144 100.784 469.312 100.546C469.872 99.79 469.998 97.816 469.998 95.8C469.998 95.478 469.998 95.142 469.984 94.82C470.208 94.974 470.544 95.268 470.698 95.408C471.16 95.016 471.622 94.526 472.042 93.98H477.992C477.88 98.152 477.74 99.622 477.474 99.972C477.362 100.14 477.25 100.168 477.068 100.168C476.942 100.168 476.732 100.168 476.48 100.154L477.068 99.944C476.9 99.384 476.48 98.558 476.018 97.928L475.304 98.18C475.444 98.39 475.584 98.628 475.724 98.866L474.394 98.978V97.802H476.69V95.072H474.394V94.26H473.554V95.072H471.23V97.802H473.554V99.048C472.434 99.132 471.398 99.216 470.614 99.272L470.726 100.154C472.14 100.014 474.142 99.832 476.088 99.622C476.158 99.818 476.228 99.986 476.27 100.154C476.158 100.14 476.046 100.14 475.92 100.126C476.046 100.364 476.144 100.77 476.158 101.036C476.69 101.064 477.208 101.064 477.516 101.022C477.88 100.98 478.104 100.896 478.328 100.574C478.706 100.084 478.832 98.432 478.986 93.588V93.112ZM484.278 88.338C483.494 90.466 482.206 92.552 480.82 93.896C481.016 94.12 481.324 94.694 481.422 94.932C481.898 94.442 482.374 93.882 482.808 93.266V101.05H483.844V91.656C484.39 90.69 484.894 89.668 485.272 88.66L484.278 88.338ZM493.672 91.614V90.62H487.848C488.128 90.004 488.394 89.374 488.618 88.73L487.624 88.464C486.938 90.508 485.804 92.524 484.544 93.826C484.782 93.994 485.188 94.344 485.356 94.526C486.056 93.742 486.742 92.734 487.344 91.614H488.31V101.064H489.36V97.676H493.546V96.696H489.36V94.582H493.35V93.616H489.36V91.614H493.672ZM502.24 99.622V96.066H506.734V95.058H502.24V92.006H507.252V90.984H502.24V88.296H501.176V90.984H498.334C498.642 90.27 498.894 89.514 499.118 88.744L498.068 88.52C497.522 90.508 496.626 92.44 495.478 93.672C495.758 93.812 496.22 94.12 496.43 94.288C496.948 93.658 497.438 92.888 497.886 92.006H501.176V95.058H497.018V96.066H501.176V99.622H495.506V100.63H507.91V99.622H502.24ZM513.608 89.906C513.02 89.514 511.844 88.87 510.99 88.464L510.416 89.206C511.27 89.668 512.432 90.34 513.006 90.746L513.608 89.906ZM512.894 93.686C512.278 93.294 511.116 92.678 510.304 92.272L509.73 93.028C510.584 93.476 511.732 94.148 512.306 94.54L512.894 93.686ZM510.934 100.882C511.76 99.594 512.74 97.858 513.468 96.388L512.712 95.702C511.9 97.284 510.822 99.132 510.066 100.182L510.934 100.882ZM520.538 99.51H515.568V96.626H520.538V99.51ZM522.442 93.364V92.356H518.606V89.934C519.81 89.724 520.93 89.458 521.84 89.15L521.028 88.338C519.474 88.898 516.66 89.332 514.252 89.584C514.35 89.822 514.49 90.214 514.546 90.466C515.54 90.368 516.59 90.242 517.612 90.088V92.356H513.58V93.364H517.612V95.66H514.602V101.064H515.568V100.476H520.538V100.994H521.532V95.66H518.606V93.364H522.442ZM525.662 90.144H535.378V91.516H536.358V89.304H531.01V88.282H529.988V89.304H524.71V91.516H525.662V90.144ZM530.044 91.418C530.03 91.628 530.016 91.852 529.988 92.076H527.496L527.58 91.418H530.044ZM533.614 92.076H530.87L530.912 91.418H533.67L533.614 92.076ZM530.73 93.406C530.758 93.196 530.786 92.958 530.8 92.72H533.572L533.516 93.406H530.73ZM527.412 92.72H529.932C529.904 92.958 529.876 93.196 529.848 93.406H527.328L527.412 92.72ZM526.306 94.036H534.412L534.524 92.79H536.694V92.006H534.594L534.692 90.802H526.726L526.572 92.006H524.388V92.79H526.474L526.306 94.036ZM527.09 97.76H534.02V98.404H527.09V97.76ZM527.09 96.5H534.02V97.144H527.09V96.5ZM527.09 95.268H534.02V95.884H527.09V95.268ZM535.056 99.034V94.624H526.082V99.034H528.658C527.804 99.594 525.844 100.14 524.234 100.378C524.43 100.574 524.71 100.91 524.85 101.106C526.502 100.826 528.462 100.252 529.54 99.566L528.714 99.034H535.056ZM531.43 99.636C533.152 100.126 534.846 100.686 535.854 101.078L536.75 100.462C535.63 100.07 533.796 99.51 532.116 99.048L531.43 99.636ZM546.97 88.338C546.326 89.668 544.982 91.138 543.568 91.95C543.75 92.174 543.974 92.538 544.072 92.79C545.486 91.922 546.802 90.508 547.488 89.262C548.272 90.55 549.672 91.922 550.988 92.734C551.114 92.454 551.338 92.062 551.534 91.838C550.204 91.138 548.79 89.766 547.936 88.338H546.97ZM549.476 91.628H545.654V92.44H549.476V91.628ZM545.192 94.036H546.48V95.8H545.192V94.036ZM544.45 96.528H547.25V93.322H544.45V96.528ZM550.05 95.8H548.692V94.036H550.05V95.8ZM550.82 93.322H547.936V96.528H550.82V93.322ZM538.99 100.294C539.508 99.538 539.634 98.208 539.704 96.976L539.074 96.864C539.018 98.04 538.878 99.272 538.416 99.972L538.99 100.294ZM539.97 97.116C540.096 97.928 540.166 98.964 540.138 99.65L540.712 99.566C540.726 98.894 540.642 97.872 540.502 97.046L539.97 97.116ZM540.012 93.882H541.244V95.184H540.012V93.882ZM541.244 89.696V90.984H540.012V89.696H541.244ZM541.244 93.07H540.012V91.796H541.244V93.07ZM542.084 95.184V93.882H543.568V93.07H542.084V91.796H543.554V90.984H542.084V89.696H543.82V88.842H539.158V96.01H543.05C543.008 96.92 542.966 97.648 542.924 98.236C542.77 97.76 542.448 97.102 542.14 96.612L541.678 96.78C542 97.354 542.336 98.096 542.476 98.6L542.91 98.418C542.826 99.482 542.728 99.972 542.588 100.14C542.504 100.266 542.392 100.294 542.224 100.294C542.042 100.294 541.636 100.294 541.174 100.238C541.3 100.462 541.384 100.826 541.398 101.064C541.86 101.078 542.336 101.078 542.588 101.05C542.924 101.022 543.134 100.938 543.316 100.686C543.652 100.28 543.778 99.062 543.904 95.576C543.918 95.45 543.918 95.184 543.918 95.184H542.084ZM541.902 99.104C541.846 98.502 541.608 97.564 541.314 96.864L540.824 96.962C541.09 97.676 541.3 98.614 541.37 99.216L541.902 99.104ZM547.516 99.818C547.222 99.412 546.62 98.81 546.088 98.334C546.214 97.9 546.312 97.452 546.382 96.962L545.5 96.906C545.276 98.488 544.716 99.72 543.61 100.49C543.82 100.63 544.156 100.952 544.268 101.106C544.926 100.602 545.43 99.944 545.794 99.132C546.242 99.58 546.676 100.07 546.928 100.42L547.516 99.818ZM548.958 96.892C548.734 98.46 548.146 99.678 547.054 100.448C547.264 100.588 547.586 100.91 547.726 101.064C548.356 100.588 548.846 99.986 549.21 99.23C549.798 99.86 550.414 100.574 550.75 101.064L551.422 100.532C551.03 99.972 550.218 99.09 549.532 98.418C549.686 97.97 549.798 97.48 549.868 96.948L548.958 96.892ZM554.39 90.298H564.33V91.908H565.366V89.332H559.85V88.296H558.8V89.332H553.396V91.908H554.39V90.298ZM559.85 99.734V97.984H564.33V97.06H559.85V95.45C560.998 95.422 562.188 95.38 563.35 95.338C563.686 95.646 563.966 95.94 564.176 96.192L564.96 95.604C564.302 94.792 562.888 93.658 561.712 92.916L560.97 93.434C561.418 93.742 561.908 94.106 562.37 94.484C560.62 94.54 558.856 94.582 557.288 94.624C557.722 94.008 558.184 93.28 558.576 92.622H564.008V91.698H554.81V92.622H557.386C557.05 93.28 556.602 94.05 556.196 94.652C555.482 94.666 554.824 94.666 554.25 94.68L554.306 95.632C555.538 95.59 557.106 95.548 558.8 95.492V97.06H554.502V97.984H558.8V99.734H553.228V100.672H565.548V99.734H559.85Z" fill="#262626"/>
<path d="M609.642 90.97C608.569 90.97 607.724 91.3293 607.108 92.048C606.492 92.7667 606.184 93.7513 606.184 95.002C606.184 96.2433 606.469 97.228 607.038 97.956C607.617 98.6747 608.48 99.034 609.628 99.034C610.067 99.034 610.482 98.9967 610.874 98.922C611.266 98.8473 611.649 98.754 612.022 98.642V99.734C611.649 99.874 611.261 99.9767 610.86 100.042C610.468 100.107 609.997 100.14 609.446 100.14C608.429 100.14 607.579 99.93 606.898 99.51C606.217 99.09 605.703 98.4927 605.358 97.718C605.022 96.9433 604.854 96.0333 604.854 94.988C604.854 93.98 605.036 93.0933 605.4 92.328C605.773 91.5533 606.319 90.9513 607.038 90.522C607.757 90.0833 608.629 89.864 609.656 89.864C610.711 89.864 611.63 90.06 612.414 90.452L611.91 91.516C611.602 91.376 611.257 91.25 610.874 91.138C610.501 91.026 610.09 90.97 609.642 90.97ZM615.688 92.482C615.688 92.8553 615.664 93.2053 615.618 93.532H615.702C615.944 93.1493 616.271 92.86 616.682 92.664C617.102 92.468 617.554 92.37 618.04 92.37C618.954 92.37 619.64 92.5893 620.098 93.028C620.555 93.4573 620.784 94.1527 620.784 95.114V100H619.566V95.198C619.566 93.994 619.006 93.392 617.886 93.392C617.046 93.392 616.467 93.63 616.15 94.106C615.842 94.5727 615.688 95.2447 615.688 96.122V100H614.456V89.36H615.688V92.482ZM624.16 89.682C624.347 89.682 624.51 89.7473 624.65 89.878C624.799 89.9993 624.874 90.1953 624.874 90.466C624.874 90.7273 624.799 90.9233 624.65 91.054C624.51 91.1847 624.347 91.25 624.16 91.25C623.955 91.25 623.782 91.1847 623.642 91.054C623.502 90.9233 623.432 90.7273 623.432 90.466C623.432 90.1953 623.502 89.9993 623.642 89.878C623.782 89.7473 623.955 89.682 624.16 89.682ZM624.762 92.496V100H623.53V92.496H624.762ZM628.791 100H627.559V89.36H628.791V100ZM632.821 100H631.589V89.36H632.821V100ZM639.843 100V90.004H641.103V98.88H645.471V100H639.843ZM650.279 92.37C651.193 92.37 651.87 92.5707 652.309 92.972C652.747 93.3733 652.967 94.0127 652.967 94.89V100H652.071L651.833 98.936H651.777C651.45 99.3467 651.105 99.65 650.741 99.846C650.386 100.042 649.891 100.14 649.257 100.14C648.575 100.14 648.011 99.9627 647.563 99.608C647.115 99.244 646.891 98.6793 646.891 97.914C646.891 97.1673 647.185 96.5933 647.773 96.192C648.361 95.7813 649.266 95.5573 650.489 95.52L651.763 95.478V95.03C651.763 94.4047 651.627 93.9707 651.357 93.728C651.086 93.4853 650.703 93.364 650.209 93.364C649.817 93.364 649.443 93.4247 649.089 93.546C648.734 93.658 648.403 93.7887 648.095 93.938L647.717 93.014C648.043 92.8367 648.431 92.6873 648.879 92.566C649.327 92.4353 649.793 92.37 650.279 92.37ZM650.643 96.374C649.709 96.4113 649.061 96.5607 648.697 96.822C648.342 97.0833 648.165 97.452 648.165 97.928C648.165 98.348 648.291 98.656 648.543 98.852C648.804 99.048 649.135 99.146 649.537 99.146C650.171 99.146 650.699 98.9733 651.119 98.628C651.539 98.2733 651.749 97.732 651.749 97.004V96.332L650.643 96.374ZM659.316 92.356C660.212 92.356 660.889 92.5753 661.346 93.014C661.804 93.4433 662.032 94.1433 662.032 95.114V100H660.814V95.198C660.814 93.994 660.254 93.392 659.134 93.392C658.304 93.392 657.73 93.6253 657.412 94.092C657.095 94.5587 656.936 95.2307 656.936 96.108V100H655.704V92.496H656.698L656.88 93.518H656.95C657.193 93.126 657.529 92.8367 657.958 92.65C658.388 92.454 658.84 92.356 659.316 92.356ZM672.955 94.904C672.955 96.5933 672.493 97.8673 671.569 98.726C670.654 99.5753 669.375 100 667.733 100H664.947V90.004H668.027C669.035 90.004 669.907 90.1907 670.645 90.564C671.382 90.9373 671.951 91.488 672.353 92.216C672.754 92.9347 672.955 93.8307 672.955 94.904ZM671.625 94.946C671.625 93.6113 671.293 92.636 670.631 92.02C669.977 91.3947 669.049 91.082 667.845 91.082H666.207V98.922H667.565C670.271 98.922 671.625 97.5967 671.625 94.946ZM676.531 92.244C676.433 91.418 676.111 90.172 675.719 89.206L675.005 89.374C675.369 90.34 675.691 91.614 675.761 92.44L676.531 92.244ZM677.777 93.938H679.317V92.958H677.777V88.324H676.825V92.958H674.851V93.938H676.657C676.223 95.478 675.425 97.298 674.697 98.292C674.879 98.558 675.145 99.034 675.257 99.342C675.803 98.502 676.391 97.186 676.825 95.828V101.05H677.777V95.534C678.197 96.262 678.701 97.186 678.883 97.648L679.583 96.85C679.317 96.416 678.155 94.722 677.777 94.246V93.938ZM678.603 92.454C678.953 91.684 679.387 90.382 679.709 89.346L678.855 89.136C678.659 90.06 678.267 91.432 677.959 92.244L678.603 92.454ZM681.683 98.054V97.018H685.715V98.054H681.683ZM685.715 95.226V96.262H681.683V95.226H685.715ZM686.695 94.428H680.689V101.064H681.683V98.796H685.715V100C685.715 100.154 685.673 100.21 685.491 100.21C685.323 100.21 684.749 100.21 684.119 100.196C684.259 100.448 684.371 100.798 684.413 101.064C685.281 101.064 685.855 101.05 686.219 100.91C686.597 100.756 686.695 100.504 686.695 100V94.428ZM684.119 92.79V91.838H686.961V91.082H684.119V90.228H687.269V89.43H684.119V88.31H683.125V89.43H680.199V90.228H683.125V91.082H680.549V91.838H683.125V92.79H679.807V93.588H687.619V92.79H684.119ZM701.997 89.304H698.875V88.324H697.881V89.304H694.927V90.074H701.997V89.304ZM697.489 95.884H699.309V96.64H697.489V95.884ZM697.489 94.47H699.309V95.212H697.489V94.47ZM690.405 99.202V97.788H693.653V99.202H690.405ZM691.049 92.328V93.294C691.049 93.966 690.951 94.806 690.405 95.534V92.328H691.049ZM691.651 89.78H692.295V91.474H691.651V89.78ZM693.653 94.666C693.625 94.68 693.569 94.694 693.457 94.694H693.065C692.939 94.694 692.911 94.68 692.911 94.498V92.328H693.653V94.666ZM693.653 96.962H690.405V95.814C690.531 95.884 690.657 95.996 690.727 96.08C691.469 95.282 691.651 94.12 691.651 93.294V92.328H692.323V94.498C692.323 95.184 692.477 95.31 693.023 95.31H693.583H693.653V96.962ZM695.991 91.348H697.335V92.342H695.991V91.348ZM699.435 91.348H700.807V92.342H699.435V91.348ZM701.437 97.634C701.031 97.942 700.401 98.348 699.841 98.656C699.547 98.264 699.309 97.83 699.113 97.368H702.067V96.64H700.177V95.884H701.493V95.212H700.177V94.47H701.787V93.784H700.177V93.014H701.549V90.676H698.721V93.014H699.309V93.784H697.489V93.014H698.063V90.676H695.263V93.014H696.621V93.784H695.123V94.47H696.621V95.212H695.417V95.884H696.621V96.64H694.773V97.368H697.237C696.495 97.956 695.445 98.446 694.451 98.782V91.474H693.023V89.78H694.619V88.912H689.355V89.78H690.923V91.474H689.635V100.966H690.405V100.028H693.653V100.756H694.451V98.824C694.619 98.992 694.871 99.328 694.983 99.482C695.445 99.3 695.935 99.076 696.397 98.81V99.958C695.963 100.042 695.557 100.098 695.207 100.154L695.389 100.91C696.509 100.714 697.909 100.462 699.295 100.196L699.239 99.496C698.567 99.608 697.895 99.72 697.265 99.818V98.292C697.643 98.026 698.007 97.746 698.301 97.452C698.903 99.118 700.009 100.462 701.549 101.092C701.675 100.868 701.955 100.532 702.151 100.35C701.451 100.112 700.835 99.72 700.331 99.216C700.877 98.922 701.493 98.572 701.983 98.194L701.437 97.634ZM709.837 94.246V92.86H711.797V92.93C711.797 93.35 711.769 93.798 711.629 94.246H709.837ZM709.837 90.69H711.797V92.048H709.837V90.69ZM714.835 92.048H712.735V90.69H714.835V92.048ZM714.835 94.246H712.581C712.693 93.798 712.735 93.35 712.735 92.916V92.86H714.835V94.246ZM715.829 95.1V89.85H712.371C712.581 89.43 712.805 88.926 713.001 88.436L711.811 88.296C711.741 88.744 711.545 89.36 711.363 89.85H708.899V95.1H711.181C710.747 95.674 710.019 96.192 708.787 96.584C708.997 96.752 709.249 97.074 709.375 97.298C710.929 96.71 711.783 95.926 712.245 95.1H715.829ZM706.981 90.69V96.262H705.091V90.69H706.981ZM707.905 89.738H704.167V98.418H705.091V97.228H707.905V89.738ZM716.473 97.312H713.813V95.156H712.819V97.312H708.045V98.236H712.819V101.064H713.813V98.236H716.473V97.312ZM719.203 100.854C719.903 99.566 720.757 97.802 721.387 96.318L720.575 95.73C719.889 97.312 718.951 99.16 718.279 100.252L719.203 100.854ZM720.967 93.56C720.407 93.196 719.357 92.636 718.601 92.258L718.027 93.028C718.797 93.434 719.833 94.036 720.365 94.414L720.967 93.56ZM718.517 89.29C719.259 89.71 720.267 90.354 720.771 90.746L721.387 89.906C720.869 89.542 719.847 88.94 719.119 88.548L718.517 89.29ZM726.735 91.894H725.405V90.018H726.735V91.894ZM729.311 94.764C729.269 94.778 729.213 94.792 729.045 94.792H727.911C727.589 94.792 727.533 94.764 727.533 94.526V92.818H729.311V94.764ZM723.039 99.482V97.872H729.311V99.482H723.039ZM724.593 92.818V93.294C724.593 94.036 724.299 94.932 723.039 95.618V92.818H724.593ZM729.157 95.646H729.311V96.976H723.039V95.786C723.221 95.926 723.431 96.136 723.529 96.276C725.041 95.478 725.433 94.302 725.433 93.308V92.818H726.707V94.54C726.707 95.422 726.945 95.646 727.827 95.646H729.157ZM730.823 90.018V89.066H721.583V90.018H724.467V91.894H722.087V101.064H723.039V100.406H729.311V101.022H730.305V91.894H727.687V90.018H730.823Z" fill="#262626"/>
<path d="M769.672 93.98V95.114H782.384V93.98H769.672ZM790.322 89.066H784.33V90.004H790.322V89.066ZM788.964 92.412V94.848H785.828V92.412H788.964ZM789.972 95.8V91.46H784.834V95.226C784.834 96.808 784.736 98.936 783.784 100.448C783.994 100.574 784.428 100.91 784.582 101.078C785.548 99.622 785.786 97.494 785.828 95.8H789.972ZM796.888 93.014H791.918V90.774C793.556 90.382 795.348 89.85 796.608 89.234L795.684 88.464C794.774 88.982 793.206 89.5 791.722 89.878L790.896 89.668V93.378C790.896 95.492 790.7 98.278 788.768 100.336C789.02 100.462 789.384 100.812 789.538 101.036C791.428 99.02 791.848 96.206 791.904 94.022H794.312V101.064H795.348V94.022H796.888V93.014ZM805.274 91.152C805.946 91.586 806.702 92.216 807.178 92.72C806.898 93.028 806.632 93.308 806.38 93.546C805.89 93.56 805.442 93.574 805.05 93.588L805.176 94.414C805.89 94.372 806.73 94.33 807.64 94.288V97.564H808.578V94.232C809.11 94.204 809.656 94.162 810.202 94.134C810.328 94.33 810.44 94.512 810.524 94.68L811.238 94.274C810.944 93.686 810.244 92.902 809.586 92.356L808.9 92.706C809.152 92.916 809.404 93.168 809.628 93.42C808.858 93.462 808.088 93.49 807.374 93.518C808.2 92.72 809.138 91.67 809.866 90.788L809.04 90.424C808.69 90.928 808.228 91.516 807.724 92.104C807.5 91.88 807.234 91.628 806.926 91.39C807.388 90.928 807.892 90.27 808.34 89.682L808.046 89.556C809.04 89.416 809.978 89.234 810.692 89.01L810.034 88.338C808.9 88.702 806.744 88.996 804.98 89.15C805.092 89.332 805.19 89.654 805.218 89.85C805.876 89.808 806.59 89.738 807.29 89.654C807.038 90.074 806.688 90.578 806.366 90.97C806.184 90.844 806.002 90.732 805.834 90.62L805.274 91.152ZM809.124 95.1C809.684 95.702 810.272 96.556 810.496 97.116L811.266 96.752C811.014 96.164 810.412 95.352 809.838 94.764L809.124 95.1ZM806.254 94.848C805.946 95.534 805.47 96.234 804.938 96.766C805.162 96.85 805.498 97.088 805.652 97.242C806.184 96.696 806.73 95.842 807.08 95.072L806.254 94.848ZM803.328 97.648C804.14 98.04 805.092 98.67 805.54 99.174L806.198 98.558C805.736 98.054 804.77 97.466 803.944 97.102L803.328 97.648ZM803.146 95.352C803.58 95.758 804.028 96.332 804.224 96.738L804.966 96.346C804.756 95.954 804.28 95.394 803.846 95.002L803.146 95.352ZM803.538 89.99H801.522V89.318H803.538V89.99ZM803.538 91.292H801.522V90.606H803.538V91.292ZM803.538 92.58H801.522V91.88H803.538V92.58ZM804.392 88.702H800.682V93.21H804.392V88.702ZM800.122 94.988C799.8 95.73 799.226 96.444 798.582 96.934C798.806 97.06 799.156 97.298 799.324 97.452C799.954 96.892 800.612 96.066 800.99 95.212L800.122 94.988ZM799.352 100.826C800.332 100.238 800.878 99.286 801.228 98.292L800.36 97.956C800.038 98.866 799.422 99.762 798.498 100.266L799.352 100.826ZM802.558 97.536V94.652H804.938V93.854H799.954V89.528H799.1V94.652H801.648V97.536H802.558ZM803.944 100.028C803.23 100.028 803.104 99.972 803.104 99.636V97.97H802.096V99.636C802.096 100.644 802.446 100.896 803.874 100.896H806.548C807.64 100.896 807.948 100.546 808.074 99.09C807.794 99.034 807.374 98.894 807.178 98.754C807.122 99.874 807.024 100.028 806.45 100.028H803.944ZM807.906 98.39C808.858 99.034 809.88 100.028 810.3 100.756L811.196 100.224C810.72 99.496 809.684 98.544 808.718 97.914L807.906 98.39ZM817.552 94.974V97.9H815.144V94.974H817.552ZM818.518 94.064H814.192V100H815.144V98.824H818.518V94.064ZM822.172 91.866H816.474V92.79H822.172V91.866ZM824.496 94.05H819.708V101.092H820.702V94.96H823.516V98.376C823.516 98.558 823.46 98.6 823.25 98.614C823.054 98.642 822.382 98.642 821.612 98.614C821.724 98.866 821.878 99.272 821.906 99.552C822.956 99.552 823.614 99.552 824.006 99.384C824.398 99.216 824.496 98.922 824.496 98.404V94.05ZM818.616 88.254C817.468 89.906 815.046 91.796 812.582 92.93C812.806 93.154 813.086 93.532 813.212 93.784C815.634 92.608 818 90.774 819.204 89.248C820.562 90.858 823.124 92.678 825.308 93.686C825.49 93.378 825.742 93.014 825.994 92.762C823.74 91.866 821.234 90.116 819.666 88.254H818.616ZM833.19 88.492V99.622C833.19 99.902 833.078 100 832.784 100C832.518 100.014 831.51 100.028 830.488 99.986C830.656 100.28 830.852 100.77 830.922 101.064C832.224 101.078 833.092 101.05 833.596 100.882C834.086 100.7 834.296 100.392 834.296 99.622V88.492H833.19ZM836.536 92.02C837.726 94.022 838.846 96.626 839.182 98.278L840.274 97.816C839.924 96.15 838.748 93.602 837.516 91.642L836.536 92.02ZM829.536 91.74C829.2 93.616 828.43 96.024 827.184 97.494C827.464 97.606 827.912 97.858 828.164 98.04C829.424 96.486 830.236 93.98 830.684 91.95L829.536 91.74ZM851.054 90.984C850.606 90.466 849.64 89.752 848.856 89.276L848.324 89.976C849.122 90.494 850.074 91.25 850.522 91.782L851.054 90.984ZM850.452 94.33C849.962 93.826 848.926 93.196 848.1 92.762L847.61 93.49C848.45 93.938 849.444 94.652 849.934 95.17L850.452 94.33ZM846.406 89.122C846.196 90.06 845.804 91.446 845.482 92.272L846.154 92.496C846.532 91.712 846.966 90.396 847.302 89.346L846.406 89.122ZM843.494 92.244C843.396 91.404 843.074 90.144 842.668 89.178L841.912 89.36C842.276 90.34 842.598 91.628 842.668 92.468L843.494 92.244ZM845.02 93.938H847.302V92.958H845.02V88.338H844.054V92.958H841.814V93.938H843.774C843.284 95.506 842.402 97.312 841.59 98.292C841.758 98.544 842.01 99.006 842.122 99.3C842.822 98.362 843.536 96.808 844.054 95.31V101.064H845.02V95.324C845.524 96.108 846.182 97.186 846.434 97.704L847.12 96.892C846.812 96.416 845.412 94.568 845.02 94.134V93.938ZM854.568 96.808L854.414 95.856L852.762 96.15V88.296H851.782V96.332L847.274 97.13L847.442 98.096L851.782 97.312V101.064H852.762V97.13L854.568 96.808ZM860.462 97.186L858.936 97.69V94.218H860.336V93.252H858.936V90.214H860.546V89.234H856.206V90.214H857.942V93.252H856.36V94.218H857.942V97.998C857.228 98.236 856.584 98.432 856.066 98.586L856.304 99.636C857.55 99.23 859.146 98.684 860.644 98.18L860.462 97.186ZM862.184 92.468H864.312V94.246H862.184V92.468ZM862.184 89.836H864.312V91.6H862.184V89.836ZM867.35 91.6H865.208V89.836H867.35V91.6ZM867.35 94.246H865.208V92.468H867.35V94.246ZM865.292 99.664V97.746H868.554V96.794H865.292V95.156H868.344V88.926H861.232V95.156H864.242V96.794H861.064V97.746H864.242V99.664H859.986V100.616H869.002V99.664H865.292Z" fill="#262626"/>
<path d="M909.73 101.05H910.766V93.56C911.256 92.79 911.69 91.964 912.054 91.124L911.046 90.816C910.234 92.804 908.876 94.708 907.406 95.912C907.63 96.094 908.022 96.486 908.176 96.696C908.708 96.22 909.226 95.66 909.73 95.03V101.05ZM920.146 89.85H914.504V88.282H913.44V89.85H907.896V90.816H920.146V89.85ZM917.108 95.366C916.772 94.904 916.072 94.232 915.484 93.784L914.826 94.288C915.428 94.764 916.114 95.464 916.422 95.94L917.108 95.366ZM918.536 93.28C917.99 94.988 917.122 96.36 916.002 97.452C915.162 96.584 914.462 95.59 913.958 94.498C914.252 94.106 914.532 93.7 914.784 93.28H918.536ZM919.124 92.356L918.928 92.412H915.288C915.512 91.978 915.722 91.544 915.904 91.11L914.882 90.816C914.224 92.58 912.88 94.624 911.284 95.884C911.508 96.052 911.83 96.388 912.012 96.598C912.474 96.206 912.922 95.758 913.342 95.268C913.86 96.318 914.518 97.27 915.288 98.096C914.126 99.048 912.754 99.748 911.284 100.224C911.494 100.392 911.816 100.826 911.942 101.078C913.412 100.56 914.798 99.818 916.002 98.81C917.108 99.818 918.396 100.602 919.852 101.092C920.02 100.812 920.328 100.392 920.552 100.196C919.124 99.776 917.822 99.048 916.73 98.124C918.102 96.752 919.166 94.974 919.782 92.678L919.124 92.356ZM934.706 90.634V89.696H929.358V88.296H928.294V89.696H923.156V93.7C923.156 95.716 923.058 98.544 921.91 100.532C922.148 100.644 922.582 100.924 922.764 101.12C923.968 99.006 924.136 95.856 924.136 93.7V90.634H934.706ZM924.626 100.84H930.828V99.916H924.626V100.84ZM926.782 94.47V92.86C927.79 92.762 928.868 92.636 929.904 92.482C929.932 93.168 929.974 93.84 930.03 94.47H926.782ZM934.636 95.408V94.47H931.024C930.954 93.798 930.926 93.084 930.912 92.314C931.836 92.16 932.704 91.978 933.432 91.768L932.62 91.012C931.22 91.432 928.756 91.824 926.558 92.048L925.802 91.824V98.012C925.312 98.068 924.878 98.11 924.486 98.152L924.612 99.104C926.068 98.908 928.154 98.67 930.142 98.418L930.128 97.494C928.994 97.634 927.832 97.774 926.782 97.9V95.408H930.128C930.562 98.586 931.528 100.742 933.306 100.742C934.23 100.742 934.58 100.21 934.734 98.25C934.468 98.18 934.132 97.998 933.894 97.788C933.838 99.188 933.712 99.762 933.362 99.762C932.27 99.762 931.472 98.068 931.122 95.408H934.636ZM940.978 94.344L939.41 94.806V92.048H940.964V91.096H939.41V88.296H938.402V91.096H936.47V92.048H938.402V95.1C937.618 95.324 936.89 95.52 936.302 95.674L936.568 96.696L938.402 96.122V99.874C938.402 100.07 938.346 100.14 938.15 100.14C937.968 100.14 937.394 100.14 936.764 100.126C936.904 100.392 937.03 100.812 937.072 101.064C937.996 101.064 938.556 101.036 938.92 100.896C939.27 100.728 939.41 100.434 939.41 99.874V95.814L941.118 95.282L940.978 94.344ZM947.208 96.444V99.51H942.784V96.444H947.208ZM941.79 101.05H942.784V100.448H947.208V101.008H948.244V95.492H941.79V101.05ZM942.476 92.776V93.714H947.474V92.776H942.476ZM944.408 88.31C943.68 89.822 942.112 91.712 940.544 92.832C940.74 93.056 941.006 93.42 941.118 93.686C942.686 92.524 944.156 90.76 944.94 89.36C945.808 90.746 947.39 92.524 948.832 93.63C949 93.336 949.238 92.944 949.448 92.692C947.978 91.712 946.382 89.948 945.374 88.31H944.408ZM954.474 92.02C953.606 93.812 952.192 95.52 950.708 96.598C950.946 96.78 951.38 97.13 951.548 97.326C952.136 96.836 952.738 96.248 953.312 95.59V101.064H954.334V94.288C954.768 93.658 955.16 93.014 955.496 92.342L954.474 92.02ZM959.038 90.564V92.104H960.074V90.564H963.364V89.556H960.074V88.282H959.038V89.556H955.524V88.282H954.488V89.556H951.142V90.564H954.488V92.02H955.524V90.564H959.038ZM959.29 99.888C958.576 99.888 958.436 99.762 958.436 99.188V96.444C960.032 95.786 961.796 94.974 963.042 94.148L962.244 93.378C961.348 94.064 959.864 94.862 958.436 95.492V92.146H957.414V99.174C957.414 100.504 957.806 100.868 959.206 100.868H961.866C963.168 100.868 963.476 100.238 963.616 98.166C963.336 98.096 962.916 97.914 962.664 97.732C962.58 99.524 962.468 99.888 961.81 99.888H959.29ZM971.355 100H970.095V90.004H975.681V91.11H971.355V94.652H975.415V95.758H971.355V100ZM978.838 100H977.606V89.36H978.838V100ZM984.478 92.37C985.393 92.37 986.069 92.5707 986.508 92.972C986.947 93.3733 987.166 94.0127 987.166 94.89V100H986.27L986.032 98.936H985.976C985.649 99.3467 985.304 99.65 984.94 99.846C984.585 100.042 984.091 100.14 983.456 100.14C982.775 100.14 982.21 99.9627 981.762 99.608C981.314 99.244 981.09 98.6793 981.09 97.914C981.09 97.1673 981.384 96.5933 981.972 96.192C982.56 95.7813 983.465 95.5573 984.688 95.52L985.962 95.478V95.03C985.962 94.4047 985.827 93.9707 985.556 93.728C985.285 93.4853 984.903 93.364 984.408 93.364C984.016 93.364 983.643 93.4247 983.288 93.546C982.933 93.658 982.602 93.7887 982.294 93.938L981.916 93.014C982.243 92.8367 982.63 92.6873 983.078 92.566C983.526 92.4353 983.993 92.37 984.478 92.37ZM984.842 96.374C983.909 96.4113 983.26 96.5607 982.896 96.822C982.541 97.0833 982.364 97.452 982.364 97.928C982.364 98.348 982.49 98.656 982.742 98.852C983.003 99.048 983.335 99.146 983.736 99.146C984.371 99.146 984.898 98.9733 985.318 98.628C985.738 98.2733 985.948 97.732 985.948 97.004V96.332L984.842 96.374ZM991.556 100L988.714 92.496H990.03L991.626 96.92C991.7 97.1253 991.78 97.354 991.864 97.606C991.948 97.858 992.022 98.1007 992.088 98.334C992.153 98.558 992.2 98.7493 992.228 98.908H992.284C992.321 98.7493 992.372 98.5533 992.438 98.32C992.512 98.0867 992.592 97.844 992.676 97.592C992.769 97.34 992.848 97.116 992.914 96.92L994.51 92.496H995.826L992.97 100H991.556ZM1003.96 96.234C1003.96 97.4753 1003.64 98.4367 1003 99.118C1002.38 99.7993 1001.53 100.14 1000.46 100.14C999.794 100.14 999.202 99.9907 998.679 99.692C998.166 99.384 997.76 98.9407 997.461 98.362C997.162 97.774 997.013 97.0647 997.013 96.234C997.013 94.9927 997.326 94.036 997.951 93.364C998.576 92.692 999.426 92.356 1000.5 92.356C1001.18 92.356 1001.78 92.51 1002.29 92.818C1002.81 93.1167 1003.22 93.5553 1003.51 94.134C1003.81 94.7033 1003.96 95.4033 1003.96 96.234ZM998.287 96.234C998.287 97.1207 998.46 97.8253 998.805 98.348C999.16 98.8613 999.72 99.118 1000.48 99.118C1001.24 99.118 1001.8 98.8613 1002.15 98.348C1002.51 97.8253 1002.68 97.1207 1002.68 96.234C1002.68 95.3473 1002.51 94.652 1002.15 94.148C1001.8 93.644 1001.24 93.392 1000.47 93.392C999.706 93.392 999.15 93.644 998.805 94.148C998.46 94.652 998.287 95.3473 998.287 96.234ZM1009.83 92.356C1009.97 92.356 1010.12 92.3653 1010.28 92.384C1010.45 92.3933 1010.59 92.412 1010.71 92.44L1010.56 93.574C1010.44 93.546 1010.3 93.5227 1010.15 93.504C1010.01 93.4853 1009.88 93.476 1009.75 93.476C1009.36 93.476 1009 93.5833 1008.67 93.798C1008.33 94.0033 1008.06 94.2973 1007.86 94.68C1007.66 95.0533 1007.56 95.492 1007.56 95.996V100H1006.33V92.496H1007.34L1007.48 93.868H1007.53C1007.78 93.4573 1008.09 93.1027 1008.47 92.804C1008.85 92.5053 1009.31 92.356 1009.83 92.356ZM1023.11 96.234C1023.11 97.4753 1022.8 98.4367 1022.16 99.118C1021.54 99.7993 1020.69 100.14 1019.61 100.14C1018.95 100.14 1018.36 99.9907 1017.84 99.692C1017.32 99.384 1016.92 98.9407 1016.62 98.362C1016.32 97.774 1016.17 97.0647 1016.17 96.234C1016.17 94.9927 1016.48 94.036 1017.11 93.364C1017.73 92.692 1018.58 92.356 1019.66 92.356C1020.34 92.356 1020.93 92.51 1021.45 92.818C1021.97 93.1167 1022.38 93.5553 1022.67 94.134C1022.96 94.7033 1023.11 95.4033 1023.11 96.234ZM1017.44 96.234C1017.44 97.1207 1017.62 97.8253 1017.96 98.348C1018.32 98.8613 1018.88 99.118 1019.64 99.118C1020.4 99.118 1020.95 98.8613 1021.31 98.348C1021.66 97.8253 1021.84 97.1207 1021.84 96.234C1021.84 95.3473 1021.66 94.652 1021.31 94.148C1020.95 93.644 1020.39 93.392 1019.63 93.392C1018.86 93.392 1018.31 93.644 1017.96 94.148C1017.62 94.652 1017.44 95.3473 1017.44 96.234ZM1028.94 93.448H1027.05V100H1025.82V93.448H1024.51V92.874L1025.82 92.454V92.02C1025.82 91.0493 1026.04 90.354 1026.47 89.934C1026.9 89.5047 1027.49 89.29 1028.26 89.29C1028.56 89.29 1028.83 89.318 1029.07 89.374C1029.32 89.4207 1029.54 89.4767 1029.71 89.542L1029.39 90.508C1029.24 90.4613 1029.07 90.4147 1028.87 90.368C1028.68 90.3213 1028.48 90.298 1028.27 90.298C1027.86 90.298 1027.55 90.438 1027.35 90.718C1027.15 90.9887 1027.05 91.418 1027.05 92.006V92.496H1028.94V93.448ZM1037.28 99.132C1037.47 99.132 1037.66 99.118 1037.86 99.09C1038.05 99.0527 1038.21 99.0153 1038.33 98.978V99.916C1038.2 99.9813 1038.01 100.033 1037.77 100.07C1037.53 100.117 1037.3 100.14 1037.07 100.14C1036.68 100.14 1036.32 100.075 1035.98 99.944C1035.65 99.804 1035.39 99.566 1035.18 99.23C1034.98 98.894 1034.87 98.4227 1034.87 97.816V93.448H1033.81V92.86L1034.89 92.37L1035.38 90.774H1036.11V92.496H1038.28V93.448H1036.11V97.788C1036.11 98.2453 1036.21 98.586 1036.43 98.81C1036.65 99.0247 1036.94 99.132 1037.28 99.132ZM1041.49 92.482C1041.49 92.8553 1041.46 93.2053 1041.42 93.532H1041.5C1041.74 93.1493 1042.07 92.86 1042.48 92.664C1042.9 92.468 1043.35 92.37 1043.84 92.37C1044.75 92.37 1045.44 92.5893 1045.9 93.028C1046.35 93.4573 1046.58 94.1527 1046.58 95.114V100H1045.36V95.198C1045.36 93.994 1044.8 93.392 1043.68 93.392C1042.84 93.392 1042.27 93.63 1041.95 94.106C1041.64 94.5727 1041.49 95.2447 1041.49 96.122V100H1040.25V89.36H1041.49V92.482ZM1052.23 92.356C1052.87 92.356 1053.42 92.496 1053.88 92.776C1054.34 93.056 1054.7 93.4527 1054.94 93.966C1055.19 94.47 1055.32 95.0627 1055.32 95.744V96.486H1050.18C1050.2 97.3353 1050.42 97.984 1050.83 98.432C1051.25 98.8707 1051.83 99.09 1052.58 99.09C1053.05 99.09 1053.47 99.048 1053.84 98.964C1054.21 98.8707 1054.59 98.74 1054.98 98.572V99.65C1054.6 99.818 1054.22 99.9393 1053.85 100.014C1053.48 100.098 1053.03 100.14 1052.52 100.14C1051.81 100.14 1051.18 99.9953 1050.63 99.706C1050.09 99.4167 1049.66 98.9873 1049.36 98.418C1049.06 97.8393 1048.91 97.1347 1048.91 96.304C1048.91 95.4827 1049.04 94.778 1049.31 94.19C1049.59 93.602 1049.98 93.1493 1050.48 92.832C1050.98 92.5147 1051.56 92.356 1052.23 92.356ZM1052.21 93.364C1051.62 93.364 1051.16 93.5553 1050.81 93.938C1050.48 94.3113 1050.28 94.834 1050.21 95.506H1054.03C1054.02 94.8713 1053.87 94.358 1053.58 93.966C1053.29 93.5647 1052.84 93.364 1052.21 93.364ZM1069.8 100H1068.33L1062.98 91.698H1062.93C1062.94 92.0247 1062.97 92.4307 1063 92.916C1063.02 93.4013 1063.04 93.9007 1063.04 94.414V100H1061.88V90.004H1063.33L1068.67 98.278H1068.72C1068.71 98.1287 1068.7 97.9047 1068.68 97.606C1068.67 97.3073 1068.66 96.9807 1068.64 96.626C1068.63 96.2713 1068.62 95.9447 1068.62 95.646V90.004H1069.8V100ZM1073.39 89.682C1073.58 89.682 1073.74 89.7473 1073.88 89.878C1074.03 89.9993 1074.11 90.1953 1074.11 90.466C1074.11 90.7273 1074.03 90.9233 1073.88 91.054C1073.74 91.1847 1073.58 91.25 1073.39 91.25C1073.19 91.25 1073.02 91.1847 1072.88 91.054C1072.74 90.9233 1072.67 90.7273 1072.67 90.466C1072.67 90.1953 1072.74 89.9993 1072.88 89.878C1073.02 89.7473 1073.19 89.682 1073.39 89.682ZM1074 92.496V100H1072.76V92.496H1074ZM1079.45 92.356C1079.95 92.356 1080.39 92.4493 1080.78 92.636C1081.18 92.8227 1081.53 93.1073 1081.81 93.49H1081.88L1082.04 92.496H1083.02V100.126C1083.02 101.199 1082.75 102.007 1082.2 102.548C1081.66 103.089 1080.81 103.36 1079.66 103.36C1078.56 103.36 1077.66 103.201 1076.96 102.884V101.75C1077.7 102.142 1078.62 102.338 1079.73 102.338C1080.38 102.338 1080.88 102.147 1081.25 101.764C1081.62 101.391 1081.81 100.877 1081.81 100.224V99.93C1081.81 99.818 1081.81 99.6593 1081.82 99.454C1081.83 99.2393 1081.84 99.09 1081.85 99.006H1081.79C1081.29 99.762 1080.51 100.14 1079.47 100.14C1078.5 100.14 1077.74 99.7993 1077.19 99.118C1076.64 98.4367 1076.37 97.4847 1076.37 96.262C1076.37 95.0673 1076.64 94.12 1077.19 93.42C1077.74 92.7107 1078.49 92.356 1079.45 92.356ZM1079.62 93.392C1079 93.392 1078.51 93.644 1078.17 94.148C1077.82 94.6427 1077.65 95.352 1077.65 96.276C1077.65 97.2 1077.82 97.9093 1078.15 98.404C1078.5 98.8893 1079 99.132 1079.65 99.132C1080.41 99.132 1080.96 98.9313 1081.3 98.53C1081.65 98.1193 1081.82 97.4613 1081.82 96.556V96.262C1081.82 95.2353 1081.64 94.5027 1081.29 94.064C1080.93 93.616 1080.38 93.392 1079.62 93.392ZM1087.06 92.482C1087.06 92.8553 1087.04 93.2053 1086.99 93.532H1087.07C1087.32 93.1493 1087.64 92.86 1088.05 92.664C1088.47 92.468 1088.93 92.37 1089.41 92.37C1090.33 92.37 1091.01 92.5893 1091.47 93.028C1091.93 93.4573 1092.15 94.1527 1092.15 95.114V100H1090.94V95.198C1090.94 93.994 1090.38 93.392 1089.26 93.392C1088.42 93.392 1087.84 93.63 1087.52 94.106C1087.21 94.5727 1087.06 95.2447 1087.06 96.122V100H1085.83V89.36H1087.06V92.482ZM1097.41 99.132C1097.59 99.132 1097.78 99.118 1097.98 99.09C1098.18 99.0527 1098.34 99.0153 1098.46 98.978V99.916C1098.33 99.9813 1098.14 100.033 1097.9 100.07C1097.65 100.117 1097.42 100.14 1097.2 100.14C1096.8 100.14 1096.44 100.075 1096.1 99.944C1095.78 99.804 1095.51 99.566 1095.31 99.23C1095.1 98.894 1095 98.4227 1095 97.816V93.448H1093.93V92.86L1095.01 92.37L1095.5 90.774H1096.23V92.496H1098.4V93.448H1096.23V97.788C1096.23 98.2453 1096.34 98.586 1096.55 98.81C1096.78 99.0247 1097.06 99.132 1097.41 99.132Z" fill="#262626"/>
<path d="M1146.08 91.572C1145.77 93.126 1145.1 94.484 1144.09 95.352C1144.34 95.464 1144.76 95.758 1144.96 95.912C1145.44 95.464 1145.84 94.904 1146.19 94.26C1147.02 94.946 1147.9 95.73 1148.38 96.262L1149.12 95.548C1148.56 94.974 1147.48 94.078 1146.6 93.392C1146.79 92.874 1146.96 92.328 1147.07 91.74L1146.08 91.572ZM1139.49 91.572C1139.08 93.378 1138.21 94.876 1136.94 95.828C1137.18 95.982 1137.58 96.318 1137.76 96.5C1138.45 95.926 1139.05 95.184 1139.53 94.302C1140.03 94.792 1140.55 95.31 1140.83 95.66L1141.54 94.946C1141.19 94.54 1140.55 93.924 1139.96 93.406C1140.17 92.888 1140.37 92.342 1140.51 91.754L1139.49 91.572ZM1143.49 91.25H1149.05V90.228H1143.49V88.296H1142.43V90.228H1137.06V91.25H1142.43V94.666C1141.14 96.696 1138.83 98.628 1136.57 99.552C1136.81 99.762 1137.15 100.168 1137.3 100.42C1139.16 99.552 1141.04 98.04 1142.43 96.262V101.064H1143.49V96.22C1144.85 98.04 1146.75 99.608 1148.68 100.462C1148.84 100.182 1149.19 99.762 1149.45 99.538C1147.07 98.642 1144.74 96.668 1143.49 94.568V91.25ZM1157.9 95.226H1162.5V94.26H1157.9V89.654H1156.94V94.26H1152.34V95.226H1156.94V99.832H1157.9V95.226ZM1168.2 90.172V96.71H1166.79V90.172H1168.2ZM1169.04 97.578V89.318H1165.95V98.922H1166.79V97.578H1169.04ZM1171.63 91.096C1171.64 90.214 1171.66 89.29 1171.66 88.338H1170.75C1170.75 89.304 1170.75 90.228 1170.73 91.096H1169.54V92.034H1170.71C1170.61 95.716 1170.2 98.67 1168.44 100.448C1168.66 100.588 1169 100.896 1169.17 101.12C1171.07 99.132 1171.5 95.982 1171.62 92.034H1172.82C1172.67 97.396 1172.5 99.258 1172.19 99.678C1172.06 99.874 1171.97 99.902 1171.78 99.902C1171.57 99.902 1171.17 99.902 1170.72 99.86C1170.86 100.126 1170.96 100.518 1170.96 100.798C1171.42 100.84 1171.88 100.826 1172.19 100.798C1172.53 100.742 1172.76 100.63 1172.99 100.294C1173.41 99.692 1173.56 97.746 1173.74 91.586C1173.76 91.474 1173.76 91.096 1173.76 91.096H1171.63ZM1175.16 98.446V90.858H1176.89V98.446H1175.16ZM1174.3 89.92V100.56H1175.16V99.384H1176.89V100.448H1177.79V89.92H1174.3ZM1183.01 90.55V96.024H1181.26V90.55H1183.01ZM1183.95 96.976V89.584H1180.34V98.208H1181.26V96.976H1183.95ZM1188.19 95.73L1187.62 95.926C1187.65 95.492 1187.66 95.058 1187.66 94.61V88.408H1186.67V90.648H1184.33V91.614H1186.67V93.546H1184.43V94.498H1186.67V94.596C1186.67 95.156 1186.65 95.716 1186.58 96.276C1185.52 96.626 1184.51 96.948 1183.77 97.158L1184.17 98.096C1184.85 97.858 1185.6 97.578 1186.39 97.27C1186.08 98.502 1185.39 99.608 1183.98 100.448C1184.23 100.602 1184.58 100.924 1184.75 101.12C1186.53 100.042 1187.24 98.53 1187.52 96.836L1188.33 96.514L1188.19 95.73ZM1192.66 96.472H1189.91V94.498H1192.35V93.546H1189.91V91.614H1192.52V90.648H1189.91V88.38H1188.91V101.05H1189.91V97.438H1192.66V96.472Z" fill="#262626"/>
<path d="M1237.08 96.332V99.314H1233.32V96.332H1237.08ZM1232.34 101.064H1233.32V100.28H1237.08V100.868H1238.08V95.366H1232.34V101.064ZM1231.91 89.038V89.99H1234.19C1233.9 92.02 1233.04 93.322 1231.41 94.12C1231.62 94.288 1231.99 94.666 1232.15 94.834C1233.87 93.868 1234.84 92.356 1235.19 89.99H1237.37C1237.2 92.272 1237.03 93.168 1236.8 93.42C1236.67 93.56 1236.54 93.574 1236.33 93.574C1236.1 93.574 1235.54 93.574 1234.93 93.518C1235.07 93.784 1235.19 94.176 1235.21 94.484C1235.83 94.512 1236.43 94.526 1236.77 94.484C1237.15 94.456 1237.4 94.358 1237.64 94.078C1238.01 93.672 1238.18 92.51 1238.39 89.5C1238.41 89.346 1238.42 89.038 1238.42 89.038H1231.91ZM1243.59 89.01L1243.42 89.052H1239.32V101.078H1240.34V90.032H1242.94C1242.48 91.138 1241.81 92.65 1241.19 93.812C1242.7 95.016 1243.14 96.066 1243.14 96.934C1243.15 97.438 1243.04 97.844 1242.73 98.012C1242.55 98.124 1242.31 98.166 1242.07 98.18C1241.77 98.194 1241.35 98.194 1240.88 98.152C1241.08 98.446 1241.18 98.908 1241.19 99.188C1241.63 99.216 1242.12 99.216 1242.49 99.174C1242.86 99.132 1243.19 99.02 1243.43 98.866C1243.96 98.53 1244.17 97.886 1244.16 97.032C1244.16 96.052 1243.78 94.946 1242.28 93.672C1242.97 92.412 1243.75 90.83 1244.34 89.514L1243.59 89.01ZM1250.46 89.206H1246.53V90.116H1250.46V89.206ZM1246.43 95.562C1246.43 96.808 1246.36 98.292 1245.95 99.468C1246.15 99.552 1246.46 99.762 1246.58 99.93C1247.09 98.628 1247.16 97.018 1247.16 95.576V93.924H1246.43V95.562ZM1250.77 92.916V92.006H1246.16V92.916H1248.08V101.05H1248.98V92.916H1250.77ZM1250.66 93.91H1249.93V99.034H1250.66V93.91ZM1251.12 100.588C1251.85 99.832 1252.11 98.488 1252.28 97.228L1251.47 97.032C1251.36 98.222 1251.03 99.468 1250.36 100.182L1251.12 100.588ZM1252.97 97.424C1253.13 98.292 1253.23 99.426 1253.22 100.182L1253.97 100.056C1253.99 99.314 1253.88 98.18 1253.68 97.312L1252.97 97.424ZM1254.51 97.298C1254.8 98.012 1255.08 98.95 1255.18 99.566L1255.88 99.356C1255.77 98.754 1255.49 97.83 1255.16 97.116L1254.51 97.298ZM1252.56 94.092H1254.77V95.38H1252.56V94.092ZM1254.77 89.948V91.194H1252.56V89.948H1254.77ZM1254.77 93.266H1252.56V92.006H1254.77V93.266ZM1255.67 95.38V94.092H1258.12V93.266H1255.67V92.006H1258.06V91.194H1255.67V89.948H1258.44V89.038H1251.62V96.29H1257.7C1257.57 98.824 1257.42 99.804 1257.19 100.07C1257.07 100.196 1256.96 100.224 1256.75 100.224C1256.52 100.224 1255.98 100.21 1255.39 100.154C1255.53 100.406 1255.63 100.784 1255.64 101.036C1256.24 101.064 1256.84 101.078 1257.15 101.05C1257.53 101.022 1257.75 100.924 1257.99 100.658C1258.34 100.238 1258.5 99.062 1258.66 95.814C1258.66 95.674 1258.68 95.38 1258.68 95.38H1255.67ZM1257.52 98.376C1257.33 97.928 1256.93 97.256 1256.54 96.752L1255.96 96.99C1256.33 97.508 1256.73 98.208 1256.89 98.67L1257.52 98.376ZM1264.53 88.772H1261.09V89.612H1264.53V88.772ZM1264.92 90.606H1260.43V91.46H1264.92V90.606ZM1264.56 92.496H1261V93.322H1264.56V92.496ZM1261 95.184H1264.56V94.344H1261V95.184ZM1263.69 97.074V99.412H1261.83V97.074H1263.69ZM1264.56 100.252V96.22H1260.99V100.91H1261.83V100.252H1264.56ZM1267.18 93.392V94.19H1271.28V93.392H1269.58V92.048H1271.07V91.25H1269.58V90.046H1268.73V91.25H1267.29V92.048H1268.73V93.392H1267.18ZM1270.19 96.066V98.068H1268.17V96.066H1270.19ZM1270.98 98.866V95.268H1267.37V99.412H1268.17V98.866H1270.98ZM1272.8 88.87H1265.62V93.854C1265.62 95.912 1265.54 98.642 1264.45 100.574C1264.68 100.686 1265.1 100.98 1265.26 101.148C1266.42 99.104 1266.57 96.024 1266.57 93.854V89.78H1271.85V99.748C1271.85 99.986 1271.78 100.042 1271.57 100.042C1271.33 100.056 1270.61 100.07 1269.86 100.028C1269.99 100.308 1270.13 100.784 1270.17 101.05C1271.21 101.05 1271.91 101.036 1272.29 100.868C1272.68 100.7 1272.8 100.364 1272.8 99.748V88.87ZM1275.97 100.854C1276.67 99.566 1277.52 97.802 1278.15 96.318L1277.34 95.73C1276.65 97.312 1275.72 99.16 1275.04 100.252L1275.97 100.854ZM1277.73 93.56C1277.17 93.196 1276.12 92.636 1275.37 92.258L1274.79 93.028C1275.56 93.434 1276.6 94.036 1277.13 94.414L1277.73 93.56ZM1275.28 89.29C1276.02 89.71 1277.03 90.354 1277.54 90.746L1278.15 89.906C1277.63 89.542 1276.61 88.94 1275.88 88.548L1275.28 89.29ZM1283.5 91.894H1282.17V90.018H1283.5V91.894ZM1286.08 94.764C1286.03 94.778 1285.98 94.792 1285.81 94.792H1284.68C1284.35 94.792 1284.3 94.764 1284.3 94.526V92.818H1286.08V94.764ZM1279.8 99.482V97.872H1286.08V99.482H1279.8ZM1281.36 92.818V93.294C1281.36 94.036 1281.06 94.932 1279.8 95.618V92.818H1281.36ZM1285.92 95.646H1286.08V96.976H1279.8V95.786C1279.99 95.926 1280.2 96.136 1280.29 96.276C1281.81 95.478 1282.2 94.302 1282.2 93.308V92.818H1283.47V94.54C1283.47 95.422 1283.71 95.646 1284.59 95.646H1285.92ZM1287.59 90.018V89.066H1278.35V90.018H1281.23V91.894H1278.85V101.064H1279.8V100.406H1286.08V101.022H1287.07V91.894H1284.45V90.018H1287.59ZM1299.76 97.326C1299.76 98.2127 1299.44 98.9033 1298.8 99.398C1298.15 99.8927 1297.29 100.14 1296.19 100.14C1295.63 100.14 1295.12 100.098 1294.64 100.014C1294.16 99.93 1293.77 99.8133 1293.45 99.664V98.46C1293.79 98.6093 1294.2 98.7447 1294.7 98.866C1295.2 98.9873 1295.72 99.048 1296.25 99.048C1297 99.048 1297.56 98.9033 1297.93 98.614C1298.31 98.3247 1298.5 97.9327 1298.5 97.438C1298.5 97.1113 1298.43 96.836 1298.29 96.612C1298.15 96.388 1297.91 96.1827 1297.57 95.996C1297.23 95.8 1296.76 95.5947 1296.15 95.38C1295.3 95.072 1294.66 94.694 1294.22 94.246C1293.79 93.798 1293.58 93.1867 1293.58 92.412C1293.58 91.88 1293.71 91.4273 1293.98 91.054C1294.25 90.6713 1294.63 90.3773 1295.1 90.172C1295.59 89.9667 1296.14 89.864 1296.77 89.864C1297.32 89.864 1297.82 89.9153 1298.28 90.018C1298.74 90.1207 1299.15 90.256 1299.53 90.424L1299.13 91.502C1298.79 91.3527 1298.41 91.2267 1298 91.124C1297.6 91.0213 1297.18 90.97 1296.74 90.97C1296.12 90.97 1295.64 91.1053 1295.33 91.376C1295.01 91.6373 1294.85 91.9873 1294.85 92.426C1294.85 92.762 1294.92 93.042 1295.06 93.266C1295.2 93.49 1295.43 93.6907 1295.75 93.868C1296.06 94.0453 1296.49 94.2367 1297.03 94.442C1297.62 94.6567 1298.12 94.89 1298.52 95.142C1298.93 95.3847 1299.24 95.6787 1299.44 96.024C1299.66 96.3693 1299.76 96.8033 1299.76 97.326ZM1304.87 92.37C1305.79 92.37 1306.46 92.5707 1306.9 92.972C1307.34 93.3733 1307.56 94.0127 1307.56 94.89V100H1306.66L1306.43 98.936H1306.37C1306.04 99.3467 1305.7 99.65 1305.33 99.846C1304.98 100.042 1304.48 100.14 1303.85 100.14C1303.17 100.14 1302.6 99.9627 1302.16 99.608C1301.71 99.244 1301.48 98.6793 1301.48 97.914C1301.48 97.1673 1301.78 96.5933 1302.37 96.192C1302.95 95.7813 1303.86 95.5573 1305.08 95.52L1306.36 95.478V95.03C1306.36 94.4047 1306.22 93.9707 1305.95 93.728C1305.68 93.4853 1305.3 93.364 1304.8 93.364C1304.41 93.364 1304.04 93.4247 1303.68 93.546C1303.33 93.658 1303 93.7887 1302.69 93.938L1302.31 93.014C1302.64 92.8367 1303.02 92.6873 1303.47 92.566C1303.92 92.4353 1304.39 92.37 1304.87 92.37ZM1305.24 96.374C1304.3 96.4113 1303.65 96.5607 1303.29 96.822C1302.94 97.0833 1302.76 97.452 1302.76 97.928C1302.76 98.348 1302.88 98.656 1303.14 98.852C1303.4 99.048 1303.73 99.146 1304.13 99.146C1304.76 99.146 1305.29 98.9733 1305.71 98.628C1306.13 98.2733 1306.34 97.732 1306.34 97.004V96.332L1305.24 96.374ZM1315.14 95.758C1315.02 95.3753 1314.91 95.002 1314.82 94.638C1314.74 94.2647 1314.67 93.9753 1314.62 93.77H1314.57C1314.53 93.9753 1314.47 94.2647 1314.39 94.638C1314.3 95.002 1314.19 95.38 1314.06 95.772L1312.72 99.986H1311.32L1309.26 92.482H1310.54L1311.57 96.486C1311.67 96.8873 1311.77 97.2933 1311.87 97.704C1311.96 98.1147 1312.02 98.4553 1312.06 98.726H1312.12C1312.16 98.5673 1312.2 98.3713 1312.24 98.138C1312.3 97.9047 1312.36 97.662 1312.43 97.41C1312.49 97.1487 1312.56 96.9153 1312.62 96.71L1313.95 92.482H1315.3L1316.58 96.71C1316.69 97.0273 1316.78 97.3727 1316.88 97.746C1316.98 98.1193 1317.05 98.4413 1317.09 98.712H1317.14C1317.17 98.4787 1317.23 98.1567 1317.33 97.746C1317.43 97.3353 1317.54 96.9153 1317.65 96.486L1318.7 92.482H1319.96L1317.87 99.986H1316.43L1315.14 95.758ZM1329.96 92.356C1330.81 92.356 1331.44 92.5753 1331.86 93.014C1332.28 93.4433 1332.49 94.1433 1332.49 95.114V100H1331.27V95.17C1331.27 93.9847 1330.76 93.392 1329.75 93.392C1329.02 93.392 1328.5 93.602 1328.18 94.022C1327.87 94.442 1327.72 95.0533 1327.72 95.856V100H1326.5V95.17C1326.5 93.9847 1325.98 93.392 1324.96 93.392C1324.2 93.392 1323.68 93.6253 1323.39 94.092C1323.1 94.5587 1322.96 95.2307 1322.96 96.108V100H1321.72V92.496H1322.72L1322.9 93.518H1322.97C1323.2 93.126 1323.52 92.8367 1323.91 92.65C1324.31 92.454 1324.73 92.356 1325.18 92.356C1326.36 92.356 1327.12 92.776 1327.48 93.616H1327.55C1327.8 93.1867 1328.14 92.8693 1328.57 92.664C1329.01 92.4587 1329.47 92.356 1329.96 92.356ZM1338.07 92.37C1338.98 92.37 1339.66 92.5707 1340.1 92.972C1340.54 93.3733 1340.76 94.0127 1340.76 94.89V100H1339.86L1339.62 98.936H1339.57C1339.24 99.3467 1338.9 99.65 1338.53 99.846C1338.18 100.042 1337.68 100.14 1337.05 100.14C1336.37 100.14 1335.8 99.9627 1335.35 99.608C1334.91 99.244 1334.68 98.6793 1334.68 97.914C1334.68 97.1673 1334.98 96.5933 1335.56 96.192C1336.15 95.7813 1337.06 95.5573 1338.28 95.52L1339.55 95.478V95.03C1339.55 94.4047 1339.42 93.9707 1339.15 93.728C1338.88 93.4853 1338.49 93.364 1338 93.364C1337.61 93.364 1337.23 93.4247 1336.88 93.546C1336.53 93.658 1336.19 93.7887 1335.89 93.938L1335.51 93.014C1335.83 92.8367 1336.22 92.6873 1336.67 92.566C1337.12 92.4353 1337.58 92.37 1338.07 92.37ZM1338.43 96.374C1337.5 96.4113 1336.85 96.5607 1336.49 96.822C1336.13 97.0833 1335.96 97.452 1335.96 97.928C1335.96 98.348 1336.08 98.656 1336.33 98.852C1336.6 99.048 1336.93 99.146 1337.33 99.146C1337.96 99.146 1338.49 98.9733 1338.91 98.628C1339.33 98.2733 1339.54 97.732 1339.54 97.004V96.332L1338.43 96.374ZM1344.73 92.482C1344.73 92.8553 1344.7 93.2053 1344.66 93.532H1344.74C1344.98 93.1493 1345.31 92.86 1345.72 92.664C1346.14 92.468 1346.59 92.37 1347.08 92.37C1347.99 92.37 1348.68 92.5893 1349.14 93.028C1349.59 93.4573 1349.82 94.1527 1349.82 95.114V100H1348.61V95.198C1348.61 93.994 1348.05 93.392 1346.93 93.392C1346.09 93.392 1345.51 93.63 1345.19 94.106C1344.88 94.5727 1344.73 95.2447 1344.73 96.122V100H1343.5V89.36H1344.73V92.482ZM1361.08 90.97C1360.01 90.97 1359.16 91.3293 1358.54 92.048C1357.93 92.7667 1357.62 93.7513 1357.62 95.002C1357.62 96.2433 1357.91 97.228 1358.47 97.956C1359.05 98.6747 1359.92 99.034 1361.06 99.034C1361.5 99.034 1361.92 98.9967 1362.31 98.922C1362.7 98.8473 1363.09 98.754 1363.46 98.642V99.734C1363.09 99.874 1362.7 99.9767 1362.3 100.042C1361.9 100.107 1361.43 100.14 1360.88 100.14C1359.87 100.14 1359.02 99.93 1358.33 99.51C1357.65 99.09 1357.14 98.4927 1356.79 97.718C1356.46 96.9433 1356.29 96.0333 1356.29 94.988C1356.29 93.98 1356.47 93.0933 1356.84 92.328C1357.21 91.5533 1357.76 90.9513 1358.47 90.522C1359.19 90.0833 1360.07 89.864 1361.09 89.864C1362.15 89.864 1363.07 90.06 1363.85 90.452L1363.35 91.516C1363.04 91.376 1362.69 91.25 1362.31 91.138C1361.94 91.026 1361.53 90.97 1361.08 90.97ZM1372.42 96.234C1372.42 97.4753 1372.1 98.4367 1371.46 99.118C1370.84 99.7993 1369.99 100.14 1368.92 100.14C1368.25 100.14 1367.66 99.9907 1367.14 99.692C1366.62 99.384 1366.22 98.9407 1365.92 98.362C1365.62 97.774 1365.47 97.0647 1365.47 96.234C1365.47 94.9927 1365.78 94.036 1366.41 93.364C1367.04 92.692 1367.88 92.356 1368.96 92.356C1369.64 92.356 1370.24 92.51 1370.75 92.818C1371.27 93.1167 1371.68 93.5553 1371.97 94.134C1372.27 94.7033 1372.42 95.4033 1372.42 96.234ZM1366.75 96.234C1366.75 97.1207 1366.92 97.8253 1367.26 98.348C1367.62 98.8613 1368.18 99.118 1368.94 99.118C1369.7 99.118 1370.26 98.8613 1370.61 98.348C1370.96 97.8253 1371.14 97.1207 1371.14 96.234C1371.14 95.3473 1370.96 94.652 1370.61 94.148C1370.26 93.644 1369.7 93.392 1368.93 93.392C1368.16 93.392 1367.61 93.644 1367.26 94.148C1366.92 94.652 1366.75 95.3473 1366.75 96.234ZM1377.8 100.14C1377.14 100.14 1376.54 100.005 1376.02 99.734C1375.51 99.4633 1375.1 99.0433 1374.8 98.474C1374.51 97.9047 1374.37 97.1767 1374.37 96.29C1374.37 95.366 1374.52 94.6147 1374.83 94.036C1375.14 93.4573 1375.55 93.0327 1376.08 92.762C1376.61 92.4913 1377.21 92.356 1377.88 92.356C1378.27 92.356 1378.63 92.398 1378.99 92.482C1379.34 92.5567 1379.63 92.65 1379.86 92.762L1379.48 93.784C1379.25 93.7 1378.99 93.6207 1378.69 93.546C1378.4 93.4713 1378.12 93.434 1377.85 93.434C1376.38 93.434 1375.64 94.3813 1375.64 96.276C1375.64 97.1813 1375.82 97.8767 1376.17 98.362C1376.54 98.838 1377.08 99.076 1377.78 99.076C1378.2 99.076 1378.55 99.034 1378.86 98.95C1379.18 98.866 1379.47 98.7633 1379.73 98.642V99.734C1379.48 99.8647 1379.2 99.9627 1378.89 100.028C1378.59 100.103 1378.23 100.14 1377.8 100.14ZM1383.15 94.918C1383.15 95.0673 1383.14 95.2633 1383.13 95.506C1383.12 95.7487 1383.11 95.9587 1383.1 96.136H1383.15C1383.21 96.0613 1383.29 95.954 1383.41 95.814C1383.52 95.674 1383.63 95.534 1383.74 95.394C1383.86 95.2447 1383.97 95.1233 1384.05 95.03L1386.44 92.496H1387.89L1384.85 95.702L1388.1 100H1386.61L1384.01 96.5L1383.15 97.242V100H1381.94V89.36H1383.15V94.918ZM1392.34 99.132C1392.53 99.132 1392.72 99.118 1392.91 99.09C1393.11 99.0527 1393.27 99.0153 1393.39 98.978V99.916C1393.26 99.9813 1393.07 100.033 1392.83 100.07C1392.59 100.117 1392.35 100.14 1392.13 100.14C1391.74 100.14 1391.37 100.075 1391.04 99.944C1390.71 99.804 1390.45 99.566 1390.24 99.23C1390.03 98.894 1389.93 98.4227 1389.93 97.816V93.448H1388.87V92.86L1389.95 92.37L1390.44 90.774H1391.16V92.496H1393.33V93.448H1391.16V97.788C1391.16 98.2453 1391.27 98.586 1391.49 98.81C1391.71 99.0247 1391.99 99.132 1392.34 99.132ZM1398.15 92.37C1399.07 92.37 1399.75 92.5707 1400.18 92.972C1400.62 93.3733 1400.84 94.0127 1400.84 94.89V100H1399.95L1399.71 98.936H1399.65C1399.33 99.3467 1398.98 99.65 1398.62 99.846C1398.26 100.042 1397.77 100.14 1397.13 100.14C1396.45 100.14 1395.89 99.9627 1395.44 99.608C1394.99 99.244 1394.77 98.6793 1394.77 97.914C1394.77 97.1673 1395.06 96.5933 1395.65 96.192C1396.24 95.7813 1397.14 95.5573 1398.36 95.52L1399.64 95.478V95.03C1399.64 94.4047 1399.5 93.9707 1399.23 93.728C1398.96 93.4853 1398.58 93.364 1398.08 93.364C1397.69 93.364 1397.32 93.4247 1396.96 93.546C1396.61 93.658 1396.28 93.7887 1395.97 93.938L1395.59 93.014C1395.92 92.8367 1396.31 92.6873 1396.75 92.566C1397.2 92.4353 1397.67 92.37 1398.15 92.37ZM1398.52 96.374C1397.59 96.4113 1396.94 96.5607 1396.57 96.822C1396.22 97.0833 1396.04 97.452 1396.04 97.928C1396.04 98.348 1396.17 98.656 1396.42 98.852C1396.68 99.048 1397.01 99.146 1397.41 99.146C1398.05 99.146 1398.57 98.9733 1398.99 98.628C1399.41 98.2733 1399.62 97.732 1399.62 97.004V96.332L1398.52 96.374ZM1404.21 89.682C1404.4 89.682 1404.56 89.7473 1404.7 89.878C1404.85 89.9993 1404.92 90.1953 1404.92 90.466C1404.92 90.7273 1404.85 90.9233 1404.7 91.054C1404.56 91.1847 1404.4 91.25 1404.21 91.25C1404 91.25 1403.83 91.1847 1403.69 91.054C1403.55 90.9233 1403.48 90.7273 1403.48 90.466C1403.48 90.1953 1403.55 89.9993 1403.69 89.878C1403.83 89.7473 1404 89.682 1404.21 89.682ZM1404.81 92.496V100H1403.58V92.496H1404.81ZM1408.84 100H1407.61V89.36H1408.84V100ZM1416.52 97.928C1416.52 98.656 1416.25 99.2067 1415.71 99.58C1415.17 99.9533 1414.44 100.14 1413.53 100.14C1413.01 100.14 1412.55 100.098 1412.17 100.014C1411.8 99.93 1411.47 99.8133 1411.18 99.664V98.544C1411.48 98.6933 1411.83 98.8333 1412.25 98.964C1412.68 99.0853 1413.12 99.146 1413.56 99.146C1414.18 99.146 1414.63 99.048 1414.91 98.852C1415.19 98.6467 1415.33 98.376 1415.33 98.04C1415.33 97.8533 1415.28 97.6853 1415.18 97.536C1415.08 97.3867 1414.89 97.2373 1414.62 97.088C1414.36 96.9387 1413.98 96.7707 1413.49 96.584C1413 96.3973 1412.59 96.2107 1412.24 96.024C1411.9 95.8373 1411.63 95.6133 1411.44 95.352C1411.26 95.0907 1411.16 94.7547 1411.16 94.344C1411.16 93.7093 1411.42 93.2193 1411.93 92.874C1412.46 92.5287 1413.14 92.356 1413.98 92.356C1414.43 92.356 1414.86 92.4027 1415.25 92.496C1415.65 92.58 1416.03 92.7013 1416.37 92.86L1415.95 93.84C1415.63 93.7093 1415.3 93.5973 1414.96 93.504C1414.61 93.4107 1414.26 93.364 1413.89 93.364C1413.39 93.364 1413 93.448 1412.73 93.616C1412.47 93.7747 1412.34 93.994 1412.34 94.274C1412.34 94.4793 1412.4 94.6567 1412.52 94.806C1412.64 94.946 1412.84 95.086 1413.12 95.226C1413.41 95.3567 1413.79 95.5153 1414.27 95.702C1414.75 95.8793 1415.15 96.0613 1415.49 96.248C1415.82 96.4347 1416.08 96.6633 1416.26 96.934C1416.44 97.1953 1416.52 97.5267 1416.52 97.928Z" fill="#262626"/>
</svg>
