<svg width="261" height="97" viewBox="0 0 261 97" fill="none" xmlns="http://www.w3.org/2000/svg">
<path d="M1.476 10.392C3.348 10.32 6.096 10.212 8.688 10.068C8.94 10.308 9.144 10.524 9.3 10.704L10.44 10.152C9.864 9.516 8.736 8.616 7.86 8.016L6.792 8.52C7.02 8.676 7.272 8.856 7.512 9.048L4.776 9.144C5.016 8.796 5.28 8.388 5.508 7.98L4.008 7.788C3.84 8.208 3.564 8.724 3.288 9.192C2.592 9.216 1.956 9.24 1.404 9.252L1.476 10.392ZM8.796 15.624C7.464 16.98 4.764 17.628 1.884 17.904C2.148 18.228 2.412 18.696 2.532 19.044C5.604 18.636 8.364 17.844 9.948 16.176L8.796 15.624ZM7.488 14.436C6.42 15.288 4.32 15.912 2.496 16.2C2.76 16.488 3.048 16.92 3.192 17.22C5.172 16.8 7.26 16.056 8.556 14.976L7.488 14.436ZM6.216 13.344C5.412 13.896 3.876 14.424 2.7 14.7C2.988 14.94 3.276 15.288 3.456 15.54C4.704 15.192 6.228 14.592 7.224 13.86L6.216 13.344ZM11.532 12.852C11.352 12.324 10.848 11.544 10.368 10.992L9.372 11.4C9.504 11.568 9.636 11.748 9.756 11.94L8.592 12C8.796 11.604 9.024 11.148 9.24 10.728L7.944 10.44C7.824 10.908 7.62 11.544 7.416 12.048C7.092 11.76 6.78 11.448 6.516 11.112H5.28C5.112 11.34 4.92 11.58 4.692 11.808C4.572 11.544 4.428 11.28 4.284 11.052L3.288 11.34C3.396 11.52 3.504 11.724 3.6 11.928L2.652 12.012C2.892 11.628 3.144 11.196 3.372 10.788L2.088 10.488C1.944 10.968 1.692 11.604 1.428 12.12C1.128 12.144 0.828 12.168 0.576 12.18L0.672 13.2L3.396 12.9C2.508 13.524 1.44 14.064 0.312 14.4C0.552 14.664 0.816 15.108 0.936 15.408C2.964 14.724 4.956 13.464 5.952 12.18C7.044 13.56 9.168 14.748 11.04 15.324C11.22 14.988 11.46 14.556 11.724 14.244C10.668 13.992 9.588 13.56 8.616 12.948C9.132 12.888 9.684 12.84 10.248 12.768C10.344 12.972 10.416 13.152 10.476 13.308L11.532 12.852ZM15.228 14.076H16.488V12.9H15.192L15.168 11.892H16.488V10.716H15.132L15.108 9.852C15.696 9.624 16.344 9.336 16.92 9.06V12.144H18.708V15.06H18.024V12.552H16.896V15.06H15.264L15.228 14.076ZM23.892 15.06H22.74C22.848 13.26 22.896 10.632 22.896 8.532H20.196V9.768H21.588C21.588 10.08 21.588 10.392 21.576 10.716H20.34V11.892H21.552C21.54 12.24 21.528 12.576 21.516 12.912H20.328V14.088H21.468C21.444 14.424 21.42 14.76 21.408 15.06H19.92V11.028H18.132V10.224H19.968V9.036H18.132V7.98H16.92V8.82L16.008 7.944C15.648 8.22 15.12 8.556 14.592 8.844L13.788 8.628L13.98 15.06H12.864V16.392H16.056C15.264 16.968 13.968 17.664 12.912 18.06C13.248 18.324 13.752 18.756 14.004 19.044C15.096 18.588 16.548 17.82 17.496 17.16L16.44 16.392H20.028L19.164 17.172C20.376 17.76 21.708 18.552 22.464 19.056L23.868 18.084C23.1 17.616 21.804 16.956 20.616 16.392H23.892V15.06ZM33.876 17.352H29.616V15.72H33.876V17.352ZM32.304 10.764H30.852V14.46H28.224V19.044H29.616V18.6H33.876V19.032H35.34V14.46H32.304V13.152H36.048V11.892H32.304V10.764ZM31.836 9.228V7.848H30.348V9.228H26.076V12.252C26.076 13.98 25.992 16.5 25.008 18.216C25.344 18.372 25.98 18.78 26.244 19.02C27.324 17.148 27.504 14.184 27.504 12.252V10.584H36.204V9.228H31.836ZM39.42 10.08H46.728V11.46H48.192V8.784H43.8V7.848H42.336V8.784H38.016V11.46H39.42V10.08ZM47.076 12.132C46.644 12.54 46.008 13.032 45.408 13.44C45.216 12.996 45.048 12.528 44.916 12.048H46.284V10.848H39.84V12.048H41.592C40.536 12.588 39.204 13.008 37.92 13.26C38.148 13.536 38.508 14.1 38.652 14.376C39.6 14.124 40.584 13.776 41.496 13.356C41.604 13.452 41.7 13.548 41.796 13.644C40.896 14.256 39.3 14.916 38.088 15.204C38.352 15.48 38.652 15.972 38.808 16.284C39.948 15.888 41.424 15.168 42.444 14.484C42.528 14.616 42.6 14.76 42.672 14.904C41.484 15.912 39.396 16.896 37.668 17.328C37.932 17.64 38.244 18.156 38.412 18.516C39.912 18 41.688 17.1 42.996 16.14C43.044 16.776 42.876 17.268 42.6 17.484C42.408 17.7 42.18 17.736 41.88 17.736C41.568 17.736 41.184 17.712 40.728 17.676C40.992 18.072 41.112 18.648 41.136 19.044C41.484 19.068 41.856 19.08 42.156 19.068C42.78 19.068 43.176 18.948 43.62 18.564C44.808 17.7 44.892 14.712 42.636 12.744C42.996 12.528 43.332 12.3 43.632 12.048H43.656C44.34 14.844 45.528 17.052 47.664 18.192C47.892 17.796 48.348 17.232 48.66 16.956C47.532 16.452 46.644 15.6 45.984 14.544C46.68 14.148 47.508 13.608 48.192 13.092L47.076 12.132Z" fill="#262626"/>
<path d="M2.72 35.336V36.848H1.224V35.336H2.72ZM1.224 38.984V37.392H2.72V38.984H1.224ZM3.272 39.536V34.8H0.664V40.272H1.224V39.536H3.272ZM4.536 38.52C4.576 38.16 4.584 37.808 4.584 37.48V37.12H6.816V38.52H4.536ZM6.816 35.208V36.576H4.584V35.208H6.816ZM7.392 34.648H4.008V37.48C4.008 38.72 3.872 40.224 2.528 41.256C2.648 41.336 2.872 41.536 2.968 41.664C3.872 40.968 4.28 40.016 4.456 39.064H6.816V40.824C6.816 40.968 6.76 41.016 6.608 41.024C6.48 41.024 5.976 41.032 5.456 41.016C5.552 41.168 5.648 41.432 5.68 41.592C6.36 41.592 6.8 41.576 7.056 41.488C7.312 41.384 7.392 41.2 7.392 40.824V34.648ZM14.056 35.808H9.944V35.112H14.056V35.808ZM14.056 36.976H9.944V36.264H14.056V36.976ZM14.656 34.632H9.36V37.456H14.656V34.632ZM12.312 40.88V40.016H14.64V39.536H12.312V38.784H14.968V38.272H12.312V37.632H11.704V38.272H10.104C10.232 38.064 10.36 37.84 10.464 37.624L9.88 37.464C9.56 38.16 9.008 38.848 8.416 39.296C8.568 39.376 8.808 39.56 8.92 39.672C9.192 39.424 9.48 39.12 9.744 38.784H11.704V39.536H9.472V40.016H11.704V40.88H8.536V41.408H15.472V40.88H12.312ZM18.136 37.32C17.816 37.056 17.168 36.712 16.656 36.512L16.336 36.944C16.856 37.176 17.488 37.544 17.808 37.816L18.136 37.32ZM17.096 41.496C17.536 40.76 18.064 39.768 18.456 38.928L18.016 38.552C17.576 39.456 17 40.496 16.592 41.112L17.096 41.496ZM16.76 34.8C17.272 35.04 17.896 35.432 18.2 35.72L18.552 35.248C18.232 34.952 17.6 34.592 17.088 34.376L16.76 34.8ZM23.648 39.208H21.392V38.032H23.208V37.488H21.392V36.352H23.456V35.792H22.208C22.448 35.448 22.736 34.952 22.976 34.504L22.352 34.296C22.184 34.712 21.872 35.296 21.632 35.672L21.96 35.792H20.128L20.512 35.616C20.384 35.256 20.056 34.712 19.752 34.32L19.224 34.536C19.496 34.912 19.784 35.432 19.92 35.792H18.808V36.352H20.792V37.488H19.04V38.032H20.792V39.208H18.608V39.776H20.792V41.608H21.392V39.776H23.648V39.208ZM25.416 38.36C25.424 38.04 25.432 37.728 25.432 37.456V37.016H26.64V38.36H25.416ZM26.64 35.152V36.464H25.432V35.152H26.64ZM27.192 34.6H24.888V37.456C24.888 38.632 24.848 40.216 24.296 41.336C24.44 41.392 24.68 41.528 24.784 41.624C25.144 40.872 25.312 39.872 25.384 38.928H26.64V40.896C26.64 41.008 26.6 41.04 26.488 41.048C26.392 41.056 26.056 41.056 25.688 41.048C25.768 41.2 25.848 41.464 25.856 41.616C26.4 41.616 26.72 41.608 26.92 41.504C27.128 41.4 27.192 41.224 27.192 40.904V34.6ZM30.848 37.872C30.664 38.552 30.392 39.152 30.048 39.664C29.68 39.136 29.392 38.528 29.176 37.872H30.848ZM31.152 37.304L31.048 37.32H28.456V35.176H30.696V36.152C30.696 36.248 30.664 36.28 30.536 36.28C30.416 36.288 30 36.288 29.512 36.28C29.592 36.424 29.68 36.624 29.704 36.784C30.304 36.784 30.704 36.784 30.96 36.704C31.2 36.616 31.272 36.464 31.272 36.16V34.624H27.896V41.616H28.456V37.872H28.656C28.92 38.696 29.272 39.464 29.72 40.112C29.352 40.544 28.936 40.888 28.496 41.128C28.616 41.232 28.768 41.432 28.848 41.568C29.288 41.312 29.696 40.968 30.056 40.544C30.44 40.992 30.872 41.352 31.352 41.624C31.44 41.48 31.6 41.28 31.736 41.168C31.232 40.92 30.784 40.56 30.4 40.12C30.904 39.408 31.288 38.512 31.496 37.424L31.152 37.304ZM35.688 38.832C35.488 38.656 34.784 38.04 34.408 37.744C34.832 37.208 35.2 36.616 35.448 36L35.112 35.776L35.008 35.8H34.312V34.312H33.728V35.8H32.472V36.344H34.696C34.144 37.408 33.144 38.416 32.192 38.968C32.288 39.08 32.44 39.352 32.504 39.504C32.912 39.24 33.328 38.904 33.728 38.504V41.608H34.312V38.296C34.672 38.632 35.112 39.08 35.32 39.312L35.688 38.832ZM37.864 40.8V37.48H39.568V36.904H37.864V34.368H37.272V36.904H35.56V37.48H37.272V40.8H35.248V41.384H39.728V40.8H37.864Z" fill="#262626"/>
<path d="M56.488 35.944H54.168V35.368H56V34.92H54.168V34.312H53.592V34.92H51.8V35.368H53.592V35.944H51.368V36.392H56.488V35.944ZM52.568 37.256H55.232V38.056H52.568V37.256ZM55.784 38.488C55.504 38.712 55.136 38.984 54.824 39.176C54.56 38.968 54.336 38.736 54.168 38.488H55.784ZM53.584 40.576H54.144V39.176C54.664 39.752 55.392 40.2 56.176 40.424C56.248 40.288 56.392 40.08 56.52 39.968C56.04 39.856 55.584 39.672 55.184 39.424C55.56 39.208 56.008 38.92 56.376 38.64L55.936 38.36L55.816 38.464V36.824H52.024V38.488H53.384C52.88 39.032 52.096 39.464 51.328 39.752C51.44 39.856 51.624 40.088 51.688 40.208C52.352 39.92 53.048 39.512 53.584 39.008V40.576ZM51.216 35.808C50.968 35.416 50.416 34.872 49.928 34.504L49.472 34.84C49.96 35.224 50.496 35.776 50.736 36.176L51.216 35.808ZM50.976 37.44H49.4V38H50.416V40.048C50.056 40.384 49.648 40.72 49.312 40.968L49.624 41.536C50.016 41.192 50.384 40.856 50.736 40.512C51.232 41.136 51.952 41.416 53 41.456C53.896 41.496 55.584 41.48 56.48 41.44C56.504 41.264 56.6 40.992 56.672 40.856C55.712 40.92 53.872 40.944 52.992 40.904C52.056 40.872 51.352 40.6 50.976 40.008V37.44ZM58.824 37.968H60.68V38.744H58.824V37.968ZM58.824 36.768H60.68V37.528H58.824V36.768ZM63.248 36.768V37.528H61.28V36.768H63.248ZM63.248 38.744H61.28V37.968H63.248V38.744ZM63.848 39.208V36.296H61.28V35.624H64.488V35.064H61.28V34.312H60.68V35.064H57.552V35.624H60.68V36.296H58.248V39.208H60.184C59.472 39.952 58.36 40.64 57.352 40.992C57.496 41.112 57.672 41.336 57.768 41.488C58.784 41.072 59.92 40.312 60.68 39.456V41.608H61.28V39.432C62.048 40.296 63.216 41.088 64.256 41.504C64.344 41.336 64.528 41.112 64.672 40.992C63.648 40.648 62.512 39.96 61.784 39.208H63.848ZM72.488 35.784C72.328 35.424 71.936 34.888 71.544 34.512L71.104 34.736C71.472 35.12 71.856 35.664 72.008 36.04L72.488 35.784ZM67.536 35.496C67.424 35.776 67.28 36.088 67.144 36.32H66.248C66.4 36.048 66.528 35.776 66.632 35.496H67.536ZM68.136 37.608H67.424V36.808H68.136V37.608ZM68.136 38.896H67.424V38.072H68.136V38.896ZM66.296 37.608V36.808H66.984V37.608H66.296ZM66.984 38.072V38.896H66.296V38.072H66.984ZM65.816 37V39.392H68.632V36.32H67.672C67.88 35.984 68.08 35.584 68.24 35.224L67.896 34.992L67.792 35.024H66.808C66.88 34.808 66.944 34.592 67 34.384L66.456 34.312C66.28 35.056 65.912 36.032 65.328 36.768C65.456 36.824 65.64 36.984 65.736 37.104L65.816 37ZM65.696 41.608C66.088 41.208 66.232 40.52 66.312 39.856L65.88 39.752C65.816 40.376 65.664 41.008 65.304 41.36L65.696 41.608ZM66.584 39.832C66.672 40.304 66.712 40.904 66.68 41.296L67.112 41.232C67.128 40.848 67.08 40.24 66.984 39.776L66.584 39.832ZM67.336 39.816C67.496 40.232 67.632 40.768 67.656 41.128L68.064 41.032C68.024 40.68 67.888 40.136 67.712 39.736L67.336 39.816ZM68.936 40.632C68.856 40.352 68.672 39.936 68.488 39.6L68.112 39.736C68.296 40.064 68.464 40.504 68.536 40.784L68.936 40.632ZM71.28 40.96C71.088 40.96 71.056 40.92 71.056 40.696V37.384H70.76C70.768 37.24 70.776 37.096 70.784 36.96H72.648V36.408H70.808C70.808 36.272 70.808 36.144 70.808 36.016V34.304H70.264V36.008C70.264 36.136 70.264 36.272 70.264 36.408H68.816V36.96H70.24C70.16 38.352 69.824 39.968 68.52 41.232C68.664 41.32 68.872 41.512 68.968 41.616C69.792 40.808 70.248 39.856 70.504 38.904V40.696C70.504 41.312 70.648 41.488 71.2 41.488H71.984C72.488 41.488 72.632 41.184 72.68 40.12C72.528 40.08 72.304 39.984 72.184 39.888C72.16 40.8 72.12 40.96 71.936 40.96H71.28ZM77.528 35.312C77.368 35.592 77.144 35.896 76.936 36.128H75.008C75.264 35.864 75.496 35.584 75.704 35.312H77.528ZM79.152 37.56H77.272V36.632H79.152V37.56ZM79.152 38.976H77.272V38.032H79.152V38.976ZM74.92 38.032H76.704V38.976H74.92V38.032ZM74.92 36.632H76.704V37.56H74.92V36.632ZM74.352 39.48H79.752V36.128H77.656C77.92 35.8 78.192 35.4 78.368 35.048L77.96 34.8L77.864 34.824H76.056C76.152 34.68 76.24 34.544 76.32 34.408L75.656 34.28C75.24 35.048 74.456 36.016 73.384 36.712C73.52 36.808 73.72 37.008 73.808 37.152C74 37.016 74.176 36.88 74.352 36.736V39.48ZM73.872 41.632C74.36 41.24 74.776 40.584 75.024 39.952L74.456 39.792C74.224 40.384 73.8 41 73.344 41.328L73.872 41.632ZM75.784 40C75.88 40.496 75.944 41.136 75.944 41.52L76.544 41.448C76.536 41.072 76.456 40.44 76.352 39.96L75.784 40ZM77.368 40.016C77.6 40.496 77.832 41.136 77.912 41.52L78.48 41.376C78.392 40.992 78.144 40.36 77.912 39.904L77.368 40.016ZM78.928 39.96C79.392 40.464 79.912 41.16 80.12 41.616L80.688 41.352C80.456 40.888 79.928 40.208 79.464 39.728L78.928 39.96ZM81.792 37.928C82.272 37.704 82.616 37.344 82.84 36.984L82.584 36.856H84.168L83.736 36.96C83.872 37.192 83.992 37.496 84.016 37.696L84.512 37.568C84.464 37.368 84.344 37.08 84.208 36.856H85.616L85.264 36.96C85.432 37.184 85.592 37.488 85.648 37.688L86.128 37.536C86.064 37.336 85.92 37.064 85.744 36.856H87.24L86.944 37.032C87.36 37.264 87.872 37.656 88.128 37.928L88.552 37.648C88.328 37.416 87.872 37.088 87.464 36.856H88.448V36.456H85.28V36.088H87.808V35.72H85.28V35.368H88.184V34.968H86.6C86.744 34.816 86.912 34.624 87.064 34.424L86.416 34.296C86.32 34.48 86.12 34.776 85.976 34.968H83.872L84.04 34.904C83.944 34.736 83.72 34.48 83.528 34.296L82.992 34.464C83.136 34.608 83.296 34.8 83.408 34.968H81.928V35.368H84.712V35.72H82.328V36.088H84.712V36.456H81.552V36.856H82.392C82.176 37.152 81.84 37.448 81.432 37.608L81.792 37.928ZM88.472 40.472V40.088H85.152C85.192 39.968 85.232 39.84 85.256 39.696H88.568V39.288H85.256V38.936H87.864V38.576H85.256V38.224H88.04V37.848H86.808C86.92 37.728 87.032 37.6 87.144 37.464L86.576 37.312C86.48 37.464 86.336 37.672 86.192 37.848H83.84C83.728 37.68 83.544 37.48 83.376 37.336L82.904 37.496C83.024 37.592 83.144 37.72 83.24 37.848H82V38.224H84.696V38.576H82.192V38.936H84.696V39.288H81.472V39.696H84.704C84.672 39.84 84.632 39.968 84.576 40.088H81.568V40.472H84.312C83.872 40.904 83.032 41.104 81.424 41.2C81.512 41.304 81.608 41.504 81.64 41.624C83.584 41.48 84.512 41.176 84.96 40.48C85.6 41.224 86.808 41.536 88.376 41.616C88.44 41.48 88.56 41.28 88.68 41.16C87.304 41.136 86.176 40.952 85.56 40.472H88.472Z" fill="#262626"/>
<path d="M102.192 39.68H104.384V40.12H102.248V40.488H104.384V40.96H99.696V40.488H101.728V40.12H99.696V39.752C100.456 39.656 101.304 39.504 101.888 39.304L101.488 38.976C101.064 39.136 100.32 39.28 99.624 39.384L99.104 39.256V41.624H99.696V41.368H104.384V41.616H104.968V39.288H102.192V39.68ZM101.736 36.968H99.912V36.544H101.736V36.968ZM101.736 37.712H99.912V37.32H101.736V37.712ZM101.736 38.48H99.912V38.072H101.736V38.48ZM103.6 35.76V35.328H105.528V34.848H103.6V34.312H103.016V34.848H100.944V34.312H100.368V34.848H98.504V35.328H100.368V35.592L99.88 35.512C99.616 36.064 99.112 36.784 98.424 37.304C98.552 37.384 98.728 37.552 98.816 37.664C99.016 37.496 99.208 37.32 99.376 37.136V39.056H99.912V38.888H105.32V38.48H102.288V38.072H104.672V37.712H102.288V37.32H104.648V36.968H102.288V36.544H105.024V36.136H102.224C102.32 35.968 102.416 35.784 102.512 35.592L101.912 35.504C101.864 35.68 101.768 35.928 101.68 36.136H100.144C100.224 36.008 100.296 35.872 100.368 35.744V35.76H100.944V35.328H103.016V35.76H103.6ZM112 39.568V40.056H108.064V39.568H112ZM108.064 40.952V40.44H112V40.952H108.064ZM107.488 41.632H108.064V41.368H112V41.616H112.592V39.16H107.488V41.632ZM110.264 36.152H111.968V36.624H110.264V36.152ZM110.264 35.256H111.968V35.704H110.264V35.256ZM110.264 38.344V37.872H112.992V37.464H110.264V37.024H112.552V36.152H113.528V35.704H112.552V34.856H110.264V34.296H109.68V34.856H107.32V35.256H109.68V35.704H106.48V36.152H109.68V36.624H107.232V37.024H109.68V37.464H107.008V37.872H109.68V38.344H106.464V38.784H113.536V38.344H110.264ZM121.488 35.016C121.256 34.784 120.768 34.472 120.376 34.272L120.064 34.608C120.472 34.824 120.944 35.152 121.176 35.392L121.488 35.016ZM120.904 37.2V38H119.768V37.2H120.904ZM119.768 39.288V38.464H120.904V39.288H119.768ZM118.192 39.288V38.464H119.232V39.288H118.192ZM119.232 37.2V38H118.192V37.2H119.232ZM121.608 35.96V35.416H119.768V34.304H119.232V35.416H117.504V35.672C117.216 35.272 116.672 34.712 116.232 34.312H115.688C115.424 34.944 114.912 35.752 114.192 36.36C114.296 36.432 114.472 36.616 114.56 36.736C114.672 36.632 114.784 36.528 114.888 36.424V36.784H115.712V37.632H114.464V38.152H115.712V40.56C115.216 40.664 114.76 40.752 114.392 40.816L114.512 41.36C115.336 41.184 116.44 40.944 117.488 40.704L117.44 40.208C117.04 40.288 116.624 40.376 116.232 40.456V38.152H117.376V37.632H116.232V36.784H117.12V36.272H115.024C115.464 35.792 115.792 35.28 116.032 34.848C116.464 35.256 116.928 35.84 117.16 36.2L117.504 35.816V35.96H119.232V36.688H117.656V41.608H118.192V39.808H119.232V41.6H119.768V39.808H120.904V40.944C120.904 41.032 120.872 41.064 120.792 41.064C120.704 41.072 120.448 41.072 120.152 41.056C120.224 41.2 120.312 41.448 120.328 41.6C120.768 41.6 121.032 41.592 121.216 41.496C121.4 41.4 121.448 41.232 121.448 40.952V36.688H119.768V35.96H121.608ZM116.912 40.048C117.032 39.68 117.184 39.112 117.312 38.624L116.848 38.504C116.784 38.928 116.632 39.56 116.52 39.944L116.912 40.048ZM114.648 38.68C114.8 39.16 114.92 39.776 114.936 40.192L115.376 40.08C115.352 39.672 115.224 39.056 115.056 38.576L114.648 38.68ZM129.616 37.856H126.32V37.072C127.208 36.592 128.256 35.848 128.936 35.16L128.504 34.832L128.36 34.864H123.232V35.44H127.736C127.272 35.84 126.656 36.264 126.088 36.576H125.712V37.856H122.408V38.448H125.712V40.84C125.712 40.984 125.664 41.024 125.488 41.032C125.32 41.04 124.728 41.04 124.088 41.016C124.192 41.184 124.296 41.456 124.344 41.624C125.104 41.632 125.624 41.616 125.92 41.52C126.216 41.424 126.32 41.24 126.32 40.84V38.448H129.616V37.856Z" fill="#262626"/>
<path d="M142.224 35.84C141.611 35.84 141.128 36.0453 140.776 36.456C140.424 36.8667 140.248 37.4293 140.248 38.144C140.248 38.8533 140.411 39.416 140.736 39.832C141.067 40.2427 141.56 40.448 142.216 40.448C142.461 40.448 142.696 40.4267 142.92 40.384C143.144 40.3413 143.365 40.288 143.584 40.224V40.848C143.371 40.928 143.149 40.9867 142.92 41.024C142.696 41.0613 142.427 41.08 142.112 41.08C141.531 41.08 141.045 40.96 140.656 40.72C140.267 40.48 139.973 40.1387 139.776 39.696C139.584 39.2533 139.488 38.7333 139.488 38.136C139.488 37.56 139.592 37.0533 139.8 36.616C140.013 36.1733 140.325 35.8293 140.736 35.584C141.147 35.3333 141.645 35.208 142.232 35.208C142.835 35.208 143.36 35.32 143.808 35.544L143.52 36.152C143.344 36.072 143.147 36 142.928 35.936C142.715 35.872 142.48 35.84 142.224 35.84ZM146.359 36.64C146.881 36.64 147.268 36.7547 147.519 36.984C147.769 37.2133 147.895 37.5787 147.895 38.08V41H147.383L147.247 40.392H147.215C147.028 40.6267 146.831 40.8 146.623 40.912C146.415 41.024 146.132 41.08 145.775 41.08C145.385 41.08 145.063 40.9787 144.807 40.776C144.551 40.568 144.423 40.2453 144.423 39.808C144.423 39.3813 144.591 39.0533 144.927 38.824C145.263 38.5893 145.78 38.4613 146.479 38.44L147.207 38.416V38.16C147.207 37.8027 147.129 37.5547 146.975 37.416C146.82 37.2773 146.601 37.208 146.319 37.208C146.095 37.208 145.881 37.2427 145.679 37.312C145.476 37.376 145.287 37.4507 145.111 37.536L144.895 37.008C145.081 36.9067 145.303 36.8213 145.559 36.752C145.815 36.6773 146.081 36.64 146.359 36.64ZM147.199 38.904L146.567 38.928C146.033 38.9493 145.663 39.0347 145.455 39.184C145.252 39.3333 145.151 39.544 145.151 39.816C145.151 40.056 145.223 40.232 145.367 40.344C145.516 40.456 145.705 40.512 145.935 40.512C146.292 40.512 146.591 40.4133 146.831 40.216C147.076 40.0133 147.199 39.704 147.199 39.288V38.904ZM151.195 37.256H150.115V41H149.411V37.256H148.659V36.928L149.411 36.688V36.44C149.411 35.8853 149.531 35.488 149.771 35.248C150.016 35.0027 150.36 34.88 150.803 34.88C150.968 34.88 151.123 34.896 151.267 34.928C151.411 34.9547 151.534 34.9867 151.635 35.024L151.451 35.576C151.366 35.5493 151.267 35.5227 151.155 35.496C151.043 35.4693 150.928 35.456 150.811 35.456C150.576 35.456 150.4 35.536 150.283 35.696C150.171 35.8507 150.115 36.096 150.115 36.432V36.712H151.195V37.256ZM153.625 36.632C153.988 36.632 154.302 36.712 154.569 36.872C154.836 37.032 155.038 37.2587 155.177 37.552C155.321 37.84 155.393 38.1787 155.393 38.568V38.992H152.457C152.468 39.4773 152.59 39.848 152.825 40.104C153.065 40.3547 153.398 40.48 153.825 40.48C154.097 40.48 154.337 40.456 154.545 40.408C154.758 40.3547 154.977 40.28 155.201 40.184V40.8C154.982 40.896 154.766 40.9653 154.553 41.008C154.34 41.056 154.086 41.08 153.793 41.08C153.382 41.08 153.022 40.9973 152.713 40.832C152.404 40.6667 152.161 40.4213 151.985 40.096C151.814 39.7707 151.729 39.368 151.729 38.888C151.729 38.4187 151.806 38.016 151.961 37.68C152.121 37.344 152.342 37.0853 152.625 36.904C152.913 36.7227 153.246 36.632 153.625 36.632ZM153.617 37.208C153.281 37.208 153.014 37.3173 152.817 37.536C152.625 37.7493 152.51 38.048 152.473 38.432H154.657C154.652 38.0693 154.566 37.776 154.401 37.552C154.236 37.3227 153.974 37.208 153.617 37.208ZM161.107 35.84C160.493 35.84 160.011 36.0453 159.659 36.456C159.307 36.8667 159.131 37.4293 159.131 38.144C159.131 38.8533 159.293 39.416 159.619 39.832C159.949 40.2427 160.443 40.448 161.099 40.448C161.344 40.448 161.579 40.4267 161.803 40.384C162.027 40.3413 162.248 40.288 162.467 40.224V40.848C162.253 40.928 162.032 40.9867 161.803 41.024C161.579 41.0613 161.309 41.08 160.995 41.08C160.413 41.08 159.928 40.96 159.539 40.72C159.149 40.48 158.856 40.1387 158.659 39.696C158.467 39.2533 158.371 38.7333 158.371 38.136C158.371 37.56 158.475 37.0533 158.683 36.616C158.896 36.1733 159.208 35.8293 159.619 35.584C160.029 35.3333 160.528 35.208 161.115 35.208C161.717 35.208 162.243 35.32 162.691 35.544L162.403 36.152C162.227 36.072 162.029 36 161.811 35.936C161.597 35.872 161.363 35.84 161.107 35.84ZM167.345 38.848C167.345 39.5573 167.164 40.1067 166.802 40.496C166.444 40.8853 165.959 41.08 165.346 41.08C164.967 41.08 164.628 40.9947 164.33 40.824C164.036 40.648 163.804 40.3947 163.634 40.064C163.463 39.728 163.378 39.3227 163.378 38.848C163.378 38.1387 163.554 37.592 163.906 37.208C164.263 36.824 164.751 36.632 165.37 36.632C165.754 36.632 166.095 36.72 166.394 36.896C166.692 37.0667 166.924 37.3173 167.09 37.648C167.26 37.9733 167.345 38.3733 167.345 38.848ZM164.106 38.848C164.106 39.3547 164.204 39.7573 164.402 40.056C164.604 40.3493 164.924 40.496 165.362 40.496C165.794 40.496 166.111 40.3493 166.314 40.056C166.516 39.7573 166.618 39.3547 166.618 38.848C166.618 38.3413 166.516 37.944 166.314 37.656C166.111 37.368 165.791 37.224 165.354 37.224C164.916 37.224 164.599 37.368 164.402 37.656C164.204 37.944 164.106 38.3413 164.106 38.848ZM170.501 36.632C171.029 36.632 171.453 36.816 171.773 37.184C172.099 37.552 172.261 38.1067 172.261 38.848C172.261 39.5787 172.099 40.1333 171.773 40.512C171.453 40.8907 171.027 41.08 170.493 41.08C170.163 41.08 169.888 41.0187 169.669 40.896C169.456 40.7733 169.288 40.6267 169.165 40.456H169.117C169.123 40.5467 169.131 40.6613 169.141 40.8C169.157 40.9387 169.165 41.0587 169.165 41.16V42.92H168.461V36.712H169.037L169.133 37.296H169.165C169.293 37.1093 169.461 36.952 169.669 36.824C169.877 36.696 170.155 36.632 170.501 36.632ZM170.373 37.224C169.936 37.224 169.627 37.3467 169.445 37.592C169.264 37.8373 169.171 38.2107 169.165 38.712V38.848C169.165 39.376 169.251 39.784 169.421 40.072C169.597 40.3547 169.92 40.496 170.389 40.496C170.645 40.496 170.859 40.4267 171.029 40.288C171.2 40.144 171.325 39.9467 171.405 39.696C171.491 39.4453 171.533 39.16 171.533 38.84C171.533 38.3493 171.437 37.9573 171.245 37.664C171.059 37.3707 170.768 37.224 170.373 37.224ZM173.743 35.104C173.85 35.104 173.943 35.1413 174.023 35.216C174.108 35.2853 174.151 35.3973 174.151 35.552C174.151 35.7067 174.108 35.8213 174.023 35.896C173.943 35.9653 173.85 36 173.743 36C173.626 36 173.527 35.9653 173.447 35.896C173.367 35.8213 173.327 35.7067 173.327 35.552C173.327 35.3973 173.367 35.2853 173.447 35.216C173.527 35.1413 173.626 35.104 173.743 35.104ZM174.087 36.712V41H173.383V36.712H174.087ZM176.878 40.504C176.984 40.504 177.094 40.496 177.206 40.48C177.318 40.464 177.408 40.4427 177.478 40.416V40.952C177.403 40.9893 177.296 41.0187 177.158 41.04C177.019 41.0667 176.886 41.08 176.758 41.08C176.534 41.08 176.326 41.0427 176.134 40.968C175.947 40.888 175.795 40.752 175.678 40.56C175.56 40.368 175.502 40.0987 175.502 39.752V37.256H174.894V36.92L175.51 36.64L175.79 35.728H176.206V36.712H177.446V37.256H176.206V39.736C176.206 39.9973 176.267 40.192 176.39 40.32C176.518 40.4427 176.68 40.504 176.878 40.504ZM179.96 36.64C180.483 36.64 180.87 36.7547 181.12 36.984C181.371 37.2133 181.496 37.5787 181.496 38.08V41H180.984L180.848 40.392H180.816C180.63 40.6267 180.432 40.8 180.224 40.912C180.016 41.024 179.734 41.08 179.376 41.08C178.987 41.08 178.664 40.9787 178.408 40.776C178.152 40.568 178.024 40.2453 178.024 39.808C178.024 39.3813 178.192 39.0533 178.528 38.824C178.864 38.5893 179.382 38.4613 180.08 38.44L180.808 38.416V38.16C180.808 37.8027 180.731 37.5547 180.576 37.416C180.422 37.2773 180.203 37.208 179.92 37.208C179.696 37.208 179.483 37.2427 179.28 37.312C179.078 37.376 178.888 37.4507 178.712 37.536L178.496 37.008C178.683 36.9067 178.904 36.8213 179.16 36.752C179.416 36.6773 179.683 36.64 179.96 36.64ZM180.8 38.904L180.168 38.928C179.635 38.9493 179.264 39.0347 179.056 39.184C178.854 39.3333 178.752 39.544 178.752 39.816C178.752 40.056 178.824 40.232 178.968 40.344C179.118 40.456 179.307 40.512 179.536 40.512C179.894 40.512 180.192 40.4133 180.432 40.216C180.678 40.0133 180.8 39.704 180.8 39.288V38.904Z" fill="#262626"/>
<path d="M195.928 38.944C195.728 38.744 194.856 37.928 194.56 37.68V37.2H195.96V36.632H194.56V35.208C195.04 35.088 195.496 34.952 195.856 34.8L195.416 34.36C194.736 34.672 193.488 34.944 192.416 35.112C192.488 35.24 192.568 35.44 192.6 35.576C193.04 35.512 193.512 35.432 193.976 35.336V36.632H192.432V37.2H193.864C193.488 38.144 192.84 39.216 192.264 39.792C192.36 39.944 192.512 40.184 192.576 40.352C193.064 39.808 193.584 38.936 193.976 38.064V41.584H194.56V38.288C194.92 38.656 195.376 39.144 195.56 39.4L195.928 38.944ZM199.688 41.408C199.512 40.552 198.968 39.216 198.408 38.192L197.848 38.368C198.16 38.952 198.464 39.64 198.688 40.28C197.92 40.36 197.152 40.44 196.472 40.512C196.936 38.856 197.456 36.464 197.768 34.584L197.104 34.472C196.848 36.36 196.32 38.912 195.856 40.576C195.576 40.6 195.328 40.624 195.104 40.648L195.248 41.264C196.208 41.152 197.56 40.984 198.872 40.808C198.96 41.104 199.032 41.376 199.072 41.608L199.688 41.408ZM206.608 35.8H204.288V35.048H206.608V35.8ZM206.608 37.008H204.288V36.248H206.608V37.008ZM207.184 34.568H203.744V37.488H207.184V34.568ZM202.552 36.504C202.464 37.536 202.28 38.408 202.016 39.112C201.736 38.888 201.44 38.664 201.168 38.472C201.304 37.864 201.456 37.184 201.6 36.504H202.552ZM202.784 35.936L202.68 35.952H201.712C201.832 35.392 201.936 34.848 202.024 34.36L201.448 34.304C201.368 34.8 201.264 35.368 201.152 35.952H200.352V36.504H201.048C200.848 37.48 200.632 38.448 200.456 39.12L200.944 39.384L201.032 39.04C201.28 39.232 201.528 39.44 201.776 39.656C201.424 40.344 200.968 40.832 200.416 41.136C200.536 41.256 200.688 41.48 200.768 41.616C201.36 41.256 201.84 40.752 202.208 40.056C202.504 40.344 202.752 40.616 202.928 40.848L203.304 40.36C203.112 40.104 202.808 39.808 202.464 39.504C202.824 38.608 203.048 37.456 203.128 35.992L202.784 35.936ZM204.008 40.768V39.928H206.848V40.768H204.008ZM206.848 38.624V39.424H204.008V38.624H206.848ZM203.448 38.112V41.6H204.008V41.288H206.848V41.56H207.424V38.112H203.448ZM210.136 39.984C209.8 40.416 209.2 40.824 208.648 41.104C208.776 41.192 209.008 41.408 209.096 41.512C209.664 41.192 210.304 40.688 210.696 40.168L210.136 39.984ZM213.08 40.248C213.656 40.6 214.336 41.128 214.656 41.488L215.16 41.176C214.816 40.808 214.12 40.304 213.56 39.96L213.08 40.248ZM210.776 37.528C211.064 37.264 211.32 36.96 211.536 36.624H212.456C212.656 36.96 212.904 37.256 213.192 37.528H210.776ZM213.52 38.464H210.448V37.952H213.52V38.464ZM213.52 39.4H210.448V38.864H213.52V39.4ZM214.632 36.616C214.432 36.84 214.096 37.144 213.816 37.384C213.512 37.16 213.248 36.904 213.04 36.624H214.52V36.136H211.808C211.904 35.944 211.984 35.744 212.056 35.528L211.624 35.44H214.768V36.312H215.336V34.912H212.28V34.312H211.696V34.912H208.648V36.312H209.192V35.44H211.464C211.384 35.688 211.288 35.92 211.176 36.136H209.512V36.624H210.864C210.672 36.888 210.44 37.12 210.184 37.32C209.968 37.104 209.616 36.832 209.336 36.64L208.944 36.952C209.216 37.144 209.536 37.416 209.744 37.632C209.344 37.888 208.88 38.088 208.368 38.24C208.496 38.352 208.688 38.584 208.776 38.696C209.176 38.552 209.552 38.376 209.896 38.176V39.816H211.704V40.984C211.704 41.072 211.68 41.104 211.56 41.112C211.432 41.12 211.032 41.12 210.584 41.104C210.664 41.248 210.752 41.456 210.792 41.608C211.36 41.608 211.736 41.616 211.976 41.528C212.224 41.448 212.288 41.296 212.288 41V39.816H214.096V38.184C214.456 38.384 214.856 38.544 215.272 38.664C215.344 38.52 215.504 38.304 215.632 38.192C215.12 38.08 214.632 37.888 214.208 37.64C214.496 37.44 214.832 37.168 215.128 36.904L214.632 36.616ZM219.76 37.88H221.36V38.696H219.76V37.88ZM219.76 36.64H221.36V37.368H219.76V36.64ZM217.744 35.208H222.52V36.12H217.744V35.208ZM222.704 39.256C222.4 39.504 221.912 39.832 221.504 40.064C221.248 39.816 221.032 39.528 220.864 39.208H223.576V38.696H221.912V37.88H223.256V37.368H221.912V36.64H223.104V34.688H217.144V37.016C217.144 38.296 217.08 40.056 216.28 41.312C216.424 41.368 216.688 41.52 216.8 41.616C217.624 40.32 217.744 38.376 217.744 37.016V36.64H219.2V37.368H218.008V37.88H219.2V38.696H217.768V39.208H218.776V40.816C218.432 40.872 218.12 40.92 217.856 40.952L217.952 41.504C218.784 41.36 219.944 41.168 221.04 40.984L221.016 40.464C220.44 40.56 219.864 40.648 219.328 40.736V39.208H220.312C220.848 40.432 221.864 41.264 223.304 41.624C223.368 41.472 223.528 41.256 223.656 41.128C222.96 40.992 222.36 40.736 221.872 40.376C222.288 40.16 222.768 39.856 223.152 39.568L222.704 39.256ZM230.8 34.904H225.216V35.488H230.8V34.904ZM225.896 38.192C225.544 39.096 224.968 39.968 224.312 40.528C224.464 40.608 224.736 40.792 224.848 40.888C225.488 40.28 226.112 39.328 226.504 38.352L225.896 38.192ZM229.456 38.424C230.04 39.2 230.632 40.232 230.856 40.888L231.44 40.632C231.208 39.96 230.584 38.944 230 38.2L229.456 38.424ZM224.504 36.832V37.416H227.696V40.824C227.696 40.952 227.648 40.992 227.496 40.992C227.352 41 226.832 41 226.288 40.984C226.376 41.16 226.472 41.424 226.504 41.6C227.2 41.6 227.672 41.592 227.952 41.496C228.232 41.4 228.328 41.216 228.328 40.84V37.416H231.504V36.832H224.504ZM234.792 36.848V37.48H233.416V36.848H234.792ZM233.416 38.536V37.896H234.792V38.536H233.416ZM234.216 39.496C234.368 39.704 234.52 39.936 234.656 40.176C234.232 40.288 233.808 40.392 233.416 40.488V38.992H235.32V36.408H234.432V35.648H233.92V36.408H232.92C233.464 35.88 233.856 35.304 234.128 34.816C234.568 35.208 235.024 35.776 235.256 36.144L235.648 35.704C235.384 35.296 234.824 34.72 234.336 34.312H233.768C233.472 34.944 232.944 35.76 232.176 36.36C232.296 36.432 232.472 36.616 232.552 36.736C232.664 36.64 232.776 36.544 232.88 36.448V40.616L232.336 40.744L232.52 41.288C233.184 41.112 234.056 40.864 234.896 40.624C235.024 40.88 235.12 41.12 235.184 41.32L235.688 41.08C235.528 40.584 235.104 39.84 234.68 39.28L234.216 39.496ZM238.84 39.592V40.688H236.704V39.592H238.84ZM239.016 35.664V36.44H236.208V35.664H239.016ZM238.512 37.936H236.704V36.936H238.512V37.936ZM239.056 38.424V36.512H239.576V35.168H237.864V34.304H237.296V35.168H235.672V36.512H236.16V41.608H236.704V41.2H238.84V41.544H239.384V39.096H236.704V38.424H239.056Z" fill="#262626"/>
<path d="M7.616 65.64H1.36V60.288H7.416V59.728H0.768V66.624H1.36V66.2H7.616V65.64ZM5.368 65.256V62.992H7.12V62.464H3V62.44V61.632C4.208 61.528 5.592 61.352 6.496 61.056L6.024 60.648C5.36 60.872 4.16 61.048 3.064 61.16L2.432 61.008V62.432C2.432 63.176 2.352 64.136 1.752 64.88C1.888 64.952 2.096 65.144 2.176 65.272C2.736 64.6 2.928 63.736 2.984 62.992H4.8V65.256H5.368ZM13.76 62.168C14.432 63.064 15.016 64.304 15.2 65.136L15.784 64.856C15.592 64.016 14.992 62.808 14.28 61.904L13.76 62.168ZM9.12 62.168C9.016 63.192 8.752 64.352 8.216 65.048L8.752 65.376C9.32 64.608 9.568 63.352 9.696 62.28L9.12 62.168ZM10.512 59.8C11.472 60.136 12.624 60.728 13.248 61.184L13.624 60.664C12.992 60.248 11.84 59.664 10.888 59.344L10.512 59.8ZM10.456 61.52V65.512C10.456 66.288 10.688 66.504 11.536 66.504H13.088C13.952 66.504 14.144 66.064 14.224 64.56C14.056 64.52 13.808 64.408 13.672 64.288C13.608 65.672 13.536 65.96 13.056 65.96H11.584C11.144 65.96 11.056 65.888 11.056 65.52V61.52H10.456ZM19.544 64.336V63.592H20.408V64.336H19.544ZM21.728 63.592V64.336H20.888V63.592H21.728ZM19.424 60.112H20.224V61.056H19.424V60.112ZM20.68 60.112H21.512V61.056H20.68V60.112ZM21.96 60.112H22.808V61.056H21.96V60.112ZM23.512 62.064H19.88C19.984 61.888 20.08 61.712 20.16 61.528H23.336V59.64H18.92V61.528H19.568C19.28 62.096 18.848 62.632 18.368 63C18.336 62.24 18.224 61.512 17.904 60.816C18.224 60.424 18.504 60.016 18.728 59.608L18.224 59.352C18.064 59.664 17.856 59.984 17.616 60.296C17.416 59.984 17.16 59.68 16.832 59.376L16.416 59.68C16.776 60.024 17.048 60.376 17.256 60.744C16.952 61.096 16.616 61.416 16.272 61.68C16.4 61.768 16.592 61.936 16.672 62.048C16.952 61.816 17.232 61.56 17.496 61.28C17.624 61.624 17.712 61.984 17.76 62.36C17.416 63.056 16.8 63.8 16.264 64.184C16.392 64.296 16.56 64.496 16.648 64.632C17.048 64.296 17.48 63.784 17.824 63.248C17.824 63.36 17.824 63.48 17.824 63.592C17.824 64.624 17.752 65.656 17.552 65.912C17.496 65.992 17.432 66.024 17.32 66.04C17.152 66.056 16.88 66.056 16.544 66.032C16.648 66.192 16.696 66.416 16.704 66.6C17.008 66.616 17.304 66.608 17.544 66.56C17.744 66.536 17.888 66.448 17.984 66.312C18.304 65.88 18.376 64.752 18.376 63.6C18.376 63.416 18.376 63.224 18.368 63.04C18.496 63.128 18.688 63.296 18.776 63.376C19.04 63.152 19.304 62.872 19.544 62.56H22.944C22.88 64.944 22.8 65.784 22.648 65.984C22.584 66.08 22.52 66.096 22.416 66.096C22.344 66.096 22.224 66.096 22.08 66.088L22.416 65.968C22.32 65.648 22.08 65.176 21.816 64.816L21.408 64.96C21.488 65.08 21.568 65.216 21.648 65.352L20.888 65.416V64.744H22.2V63.184H20.888V62.72H20.408V63.184H19.08V64.744H20.408V65.456C19.768 65.504 19.176 65.552 18.728 65.584L18.792 66.088C19.6 66.008 20.744 65.904 21.856 65.784C21.896 65.896 21.936 65.992 21.96 66.088C21.896 66.08 21.832 66.08 21.76 66.072C21.832 66.208 21.888 66.44 21.896 66.592C22.2 66.608 22.496 66.608 22.672 66.584C22.88 66.56 23.008 66.512 23.136 66.328C23.352 66.048 23.424 65.104 23.512 62.336V62.064ZM26.296 59.336C25.848 60.552 25.112 61.744 24.32 62.512C24.432 62.64 24.608 62.968 24.664 63.104C24.936 62.824 25.208 62.504 25.456 62.152V66.6H26.048V61.232C26.36 60.68 26.648 60.096 26.864 59.52L26.296 59.336ZM31.664 61.208V60.64H28.336C28.496 60.288 28.648 59.928 28.776 59.56L28.208 59.408C27.816 60.576 27.168 61.728 26.448 62.472C26.584 62.568 26.816 62.768 26.912 62.872C27.312 62.424 27.704 61.848 28.048 61.208H28.6V66.608H29.2V64.672H31.592V64.112H29.2V62.904H31.48V62.352H29.2V61.208H31.664ZM36.32 65.784V63.752H38.888V63.176H36.32V61.432H39.184V60.848H36.32V59.312H35.712V60.848H34.088C34.264 60.44 34.408 60.008 34.536 59.568L33.936 59.44C33.624 60.576 33.112 61.68 32.456 62.384C32.616 62.464 32.88 62.64 33 62.736C33.296 62.376 33.576 61.936 33.832 61.432H35.712V63.176H33.336V63.752H35.712V65.784H32.472V66.36H39.56V65.784H36.32ZM42.576 60.232C42.24 60.008 41.568 59.64 41.08 59.408L40.752 59.832C41.24 60.096 41.904 60.48 42.232 60.712L42.576 60.232ZM42.168 62.392C41.816 62.168 41.152 61.816 40.688 61.584L40.36 62.016C40.848 62.272 41.504 62.656 41.832 62.88L42.168 62.392ZM41.048 66.504C41.52 65.768 42.08 64.776 42.496 63.936L42.064 63.544C41.6 64.448 40.984 65.504 40.552 66.104L41.048 66.504ZM46.536 65.72H43.696V64.072H46.536V65.72ZM47.624 62.208V61.632H45.432V60.248C46.12 60.128 46.76 59.976 47.28 59.8L46.816 59.336C45.928 59.656 44.32 59.904 42.944 60.048C43 60.184 43.08 60.408 43.112 60.552C43.68 60.496 44.28 60.424 44.864 60.336V61.632H42.56V62.208H44.864V63.52H43.144V66.608H43.696V66.272H46.536V66.568H47.104V63.52H45.432V62.208H47.624ZM49.224 60.368H54.776V61.152H55.336V59.888H52.28V59.304H51.696V59.888H48.68V61.152H49.224V60.368ZM51.728 61.096C51.72 61.216 51.712 61.344 51.696 61.472H50.272L50.32 61.096H51.728ZM53.768 61.472H52.2L52.224 61.096H53.8L53.768 61.472ZM52.12 62.232C52.136 62.112 52.152 61.976 52.16 61.84H53.744L53.712 62.232H52.12ZM50.224 61.84H51.664C51.648 61.976 51.632 62.112 51.616 62.232H50.176L50.224 61.84ZM49.592 62.592H54.224L54.288 61.88H55.528V61.432H54.328L54.384 60.744H49.832L49.744 61.432H48.496V61.88H49.688L49.592 62.592ZM50.04 64.72H54V65.088H50.04V64.72ZM50.04 64H54V64.368H50.04V64ZM50.04 63.296H54V63.648H50.04V63.296ZM54.592 65.448V62.928H49.464V65.448H50.936C50.448 65.768 49.328 66.08 48.408 66.216C48.52 66.328 48.68 66.52 48.76 66.632C49.704 66.472 50.824 66.144 51.44 65.752L50.968 65.448H54.592ZM52.52 65.792C53.504 66.072 54.472 66.392 55.048 66.616L55.56 66.264C54.92 66.04 53.872 65.72 52.912 65.456L52.52 65.792ZM61.16 59.336C60.792 60.096 60.024 60.936 59.216 61.4C59.32 61.528 59.448 61.736 59.504 61.88C60.312 61.384 61.064 60.576 61.456 59.864C61.904 60.6 62.704 61.384 63.456 61.848C63.528 61.688 63.656 61.464 63.768 61.336C63.008 60.936 62.2 60.152 61.712 59.336H61.16ZM62.592 61.216H60.408V61.68H62.592V61.216ZM60.144 62.592H60.88V63.6H60.144V62.592ZM59.72 64.016H61.32V62.184H59.72V64.016ZM62.92 63.6H62.144V62.592H62.92V63.6ZM63.36 62.184H61.712V64.016H63.36V62.184ZM56.6 66.168C56.896 65.736 56.968 64.976 57.008 64.272L56.648 64.208C56.616 64.88 56.536 65.584 56.272 65.984L56.6 66.168ZM57.16 64.352C57.232 64.816 57.272 65.408 57.256 65.8L57.584 65.752C57.592 65.368 57.544 64.784 57.464 64.312L57.16 64.352ZM57.184 62.504H57.888V63.248H57.184V62.504ZM57.888 60.112V60.848H57.184V60.112H57.888ZM57.888 62.04H57.184V61.312H57.888V62.04ZM58.368 63.248V62.504H59.216V62.04H58.368V61.312H59.208V60.848H58.368V60.112H59.36V59.624H56.696V63.72H58.92C58.896 64.24 58.872 64.656 58.848 64.992C58.76 64.72 58.576 64.344 58.4 64.064L58.136 64.16C58.32 64.488 58.512 64.912 58.592 65.2L58.84 65.096C58.792 65.704 58.736 65.984 58.656 66.08C58.608 66.152 58.544 66.168 58.448 66.168C58.344 66.168 58.112 66.168 57.848 66.136C57.92 66.264 57.968 66.472 57.976 66.608C58.24 66.616 58.512 66.616 58.656 66.6C58.848 66.584 58.968 66.536 59.072 66.392C59.264 66.16 59.336 65.464 59.408 63.472C59.416 63.4 59.416 63.248 59.416 63.248H58.368ZM58.264 65.488C58.232 65.144 58.096 64.608 57.928 64.208L57.648 64.264C57.8 64.672 57.92 65.208 57.96 65.552L58.264 65.488ZM61.472 65.896C61.304 65.664 60.96 65.32 60.656 65.048C60.728 64.8 60.784 64.544 60.824 64.264L60.32 64.232C60.192 65.136 59.872 65.84 59.24 66.28C59.36 66.36 59.552 66.544 59.616 66.632C59.992 66.344 60.28 65.968 60.488 65.504C60.744 65.76 60.992 66.04 61.136 66.24L61.472 65.896ZM62.296 64.224C62.168 65.12 61.832 65.816 61.208 66.256C61.328 66.336 61.512 66.52 61.592 66.608C61.952 66.336 62.232 65.992 62.44 65.56C62.776 65.92 63.128 66.328 63.32 66.608L63.704 66.304C63.48 65.984 63.016 65.48 62.624 65.096C62.712 64.84 62.776 64.56 62.816 64.256L62.296 64.224ZM65.16 60.456H70.84V61.376H71.432V59.904H68.28V59.312H67.68V59.904H64.592V61.376H65.16V60.456ZM68.28 65.848V64.848H70.84V64.32H68.28V63.4C68.936 63.384 69.616 63.36 70.28 63.336C70.472 63.512 70.632 63.68 70.752 63.824L71.2 63.488C70.824 63.024 70.016 62.376 69.344 61.952L68.92 62.248C69.176 62.424 69.456 62.632 69.72 62.848C68.72 62.88 67.712 62.904 66.816 62.928C67.064 62.576 67.328 62.16 67.552 61.784H70.656V61.256H65.4V61.784H66.872C66.68 62.16 66.424 62.6 66.192 62.944C65.784 62.952 65.408 62.952 65.08 62.96L65.112 63.504C65.816 63.48 66.712 63.456 67.68 63.424V64.32H65.224V64.848H67.68V65.848H64.496V66.384H71.536V65.848H68.28Z" fill="#262626"/>
<path d="M84.224 60.84C83.6107 60.84 83.128 61.0453 82.776 61.456C82.424 61.8667 82.248 62.4293 82.248 63.144C82.248 63.8533 82.4107 64.416 82.736 64.832C83.0667 65.2427 83.56 65.448 84.216 65.448C84.4613 65.448 84.696 65.4267 84.92 65.384C85.144 65.3413 85.3653 65.288 85.584 65.224V65.848C85.3707 65.928 85.1493 65.9867 84.92 66.024C84.696 66.0613 84.4267 66.08 84.112 66.08C83.5307 66.08 83.0453 65.96 82.656 65.72C82.2667 65.48 81.9733 65.1387 81.776 64.696C81.584 64.2533 81.488 63.7333 81.488 63.136C81.488 62.56 81.592 62.0533 81.8 61.616C82.0133 61.1733 82.3253 60.8293 82.736 60.584C83.1467 60.3333 83.6453 60.208 84.232 60.208C84.8347 60.208 85.36 60.32 85.808 60.544L85.52 61.152C85.344 61.072 85.1467 61 84.928 60.936C84.7147 60.872 84.48 60.84 84.224 60.84ZM87.4387 59.92V61.704C87.4387 61.9173 87.4254 62.1173 87.3987 62.304H87.4467C87.5854 62.0853 87.772 61.92 88.0067 61.808C88.2467 61.696 88.5054 61.64 88.7827 61.64C89.3 61.64 89.6894 61.7653 89.9507 62.016C90.2174 62.2613 90.3507 62.6587 90.3507 63.208V66H89.6547V63.256C89.6547 62.568 89.3347 62.224 88.6947 62.224C88.2147 62.224 87.884 62.36 87.7027 62.632C87.5267 62.8987 87.4387 63.2827 87.4387 63.784V66H86.7347V59.92H87.4387ZM92.04 60.104C92.1467 60.104 92.24 60.1413 92.32 60.216C92.4053 60.2853 92.448 60.3973 92.448 60.552C92.448 60.7067 92.4053 60.8213 92.32 60.896C92.24 60.9653 92.1467 61 92.04 61C91.9227 61 91.824 60.9653 91.744 60.896C91.664 60.8213 91.624 60.7067 91.624 60.552C91.624 60.3973 91.664 60.2853 91.744 60.216C91.824 60.1413 91.9227 60.104 92.04 60.104ZM92.384 61.712V66H91.68V61.712H92.384ZM94.4465 66H93.7425V59.92H94.4465V66ZM96.509 66H95.805V59.92H96.509V66ZM100.042 66V60.288H100.762V65.36H103.258V66H100.042ZM105.765 61.64C106.288 61.64 106.674 61.7547 106.925 61.984C107.176 62.2133 107.301 62.5787 107.301 63.08V66H106.789L106.653 65.392H106.621C106.434 65.6267 106.237 65.8 106.029 65.912C105.821 66.024 105.538 66.08 105.181 66.08C104.792 66.08 104.469 65.9787 104.213 65.776C103.957 65.568 103.829 65.2453 103.829 64.808C103.829 64.3813 103.997 64.0533 104.333 63.824C104.669 63.5893 105.186 63.4613 105.885 63.44L106.613 63.416V63.16C106.613 62.8027 106.536 62.5547 106.381 62.416C106.226 62.2773 106.008 62.208 105.725 62.208C105.501 62.208 105.288 62.2427 105.085 62.312C104.882 62.376 104.693 62.4507 104.517 62.536L104.301 62.008C104.488 61.9067 104.709 61.8213 104.965 61.752C105.221 61.6773 105.488 61.64 105.765 61.64ZM106.605 63.904L105.973 63.928C105.44 63.9493 105.069 64.0347 104.861 64.184C104.658 64.3333 104.557 64.544 104.557 64.816C104.557 65.056 104.629 65.232 104.773 65.344C104.922 65.456 105.112 65.512 105.341 65.512C105.698 65.512 105.997 65.4133 106.237 65.216C106.482 65.0133 106.605 64.704 106.605 64.288V63.904ZM110.689 61.632C111.201 61.632 111.588 61.7573 111.849 62.008C112.111 62.2587 112.241 62.6587 112.241 63.208V66H111.545V63.256C111.545 62.568 111.225 62.224 110.585 62.224C110.111 62.224 109.783 62.3573 109.601 62.624C109.42 62.8907 109.329 63.2747 109.329 63.776V66H108.625V61.712H109.193L109.297 62.296H109.337C109.476 62.072 109.668 61.9067 109.913 61.8C110.159 61.688 110.417 61.632 110.689 61.632ZM118.243 63.088C118.243 64.0533 117.979 64.7813 117.451 65.272C116.928 65.7573 116.197 66 115.259 66H113.667V60.288H115.427C115.997 60.288 116.493 60.3947 116.915 60.608C117.341 60.8213 117.669 61.136 117.899 61.552C118.128 61.968 118.243 62.48 118.243 63.088ZM117.483 63.112C117.483 62.3493 117.293 61.792 116.915 61.44C116.541 61.0827 116.011 60.904 115.323 60.904H114.387V65.384H115.163C116.709 65.384 117.483 64.6267 117.483 63.112ZM120.046 61.568C119.99 61.096 119.806 60.384 119.582 59.832L119.174 59.928C119.382 60.48 119.566 61.208 119.606 61.68L120.046 61.568ZM120.758 62.536H121.638V61.976H120.758V59.328H120.214V61.976H119.086V62.536H120.118C119.87 63.416 119.414 64.456 118.998 65.024C119.102 65.176 119.254 65.448 119.318 65.624C119.63 65.144 119.966 64.392 120.214 63.616V66.6H120.758V63.448C120.998 63.864 121.286 64.392 121.39 64.656L121.79 64.2C121.638 63.952 120.974 62.984 120.758 62.712V62.536ZM121.23 61.688C121.43 61.248 121.678 60.504 121.862 59.912L121.374 59.792C121.262 60.32 121.038 61.104 120.862 61.568L121.23 61.688ZM122.99 64.888V64.296H125.294V64.888H122.99ZM125.294 63.272V63.864H122.99V63.272H125.294ZM125.854 62.816H122.422V66.608H122.99V65.312H125.294V66C125.294 66.088 125.27 66.12 125.166 66.12C125.07 66.12 124.742 66.12 124.382 66.112C124.462 66.256 124.526 66.456 124.55 66.608C125.046 66.608 125.374 66.6 125.582 66.52C125.798 66.432 125.854 66.288 125.854 66V62.816ZM124.382 61.88V61.336H126.006V60.904H124.382V60.416H126.182V59.96H124.382V59.32H123.814V59.96H122.142V60.416H123.814V60.904H122.342V61.336H123.814V61.88H121.918V62.336H126.382V61.88H124.382ZM134.358 59.888H132.574V59.328H132.006V59.888H130.318V60.328H134.358V59.888ZM131.782 63.648H132.822V64.08H131.782V63.648ZM131.782 62.84H132.822V63.264H131.782V62.84ZM127.734 65.544V64.736H129.59V65.544H127.734ZM128.102 61.616V62.168C128.102 62.552 128.046 63.032 127.734 63.448V61.616H128.102ZM128.446 60.16H128.814V61.128H128.446V60.16ZM129.59 62.952C129.574 62.96 129.542 62.968 129.478 62.968H129.254C129.182 62.968 129.166 62.96 129.166 62.856V61.616H129.59V62.952ZM129.59 64.264H127.734V63.608C127.806 63.648 127.878 63.712 127.918 63.76C128.342 63.304 128.446 62.64 128.446 62.168V61.616H128.83V62.856C128.83 63.248 128.918 63.32 129.23 63.32H129.55H129.59V64.264ZM130.926 61.056H131.694V61.624H130.926V61.056ZM132.894 61.056H133.678V61.624H132.894V61.056ZM134.038 64.648C133.806 64.824 133.446 65.056 133.126 65.232C132.958 65.008 132.822 64.76 132.71 64.496H134.398V64.08H133.318V63.648H134.07V63.264H133.318V62.84H134.238V62.448H133.318V62.008H134.102V60.672H132.486V62.008H132.822V62.448H131.782V62.008H132.11V60.672H130.51V62.008H131.286V62.448H130.43V62.84H131.286V63.264H130.598V63.648H131.286V64.08H130.23V64.496H131.638C131.214 64.832 130.614 65.112 130.046 65.304V61.128H129.23V60.16H130.142V59.664H127.134V60.16H128.03V61.128H127.294V66.552H127.734V66.016H129.59V66.432H130.046V65.328C130.142 65.424 130.286 65.616 130.35 65.704C130.614 65.6 130.894 65.472 131.158 65.32V65.976C130.91 66.024 130.678 66.056 130.478 66.088L130.582 66.52C131.222 66.408 132.022 66.264 132.814 66.112L132.782 65.712C132.398 65.776 132.014 65.84 131.654 65.896V65.024C131.87 64.872 132.078 64.712 132.246 64.544C132.59 65.496 133.222 66.264 134.102 66.624C134.174 66.496 134.334 66.304 134.446 66.2C134.046 66.064 133.694 65.84 133.406 65.552C133.718 65.384 134.07 65.184 134.35 64.968L134.038 64.648ZM138.598 62.712V61.92H139.718V61.96C139.718 62.2 139.702 62.456 139.622 62.712H138.598ZM138.598 60.68H139.718V61.456H138.598V60.68ZM141.454 61.456H140.254V60.68H141.454V61.456ZM141.454 62.712H140.166C140.23 62.456 140.254 62.2 140.254 61.952V61.92H141.454V62.712ZM142.022 63.2V60.2H140.046C140.166 59.96 140.294 59.672 140.406 59.392L139.726 59.312C139.686 59.568 139.574 59.92 139.47 60.2H138.062V63.2H139.366C139.118 63.528 138.702 63.824 137.998 64.048C138.118 64.144 138.262 64.328 138.334 64.456C139.222 64.12 139.71 63.672 139.974 63.2H142.022ZM136.966 60.68V63.864H135.886V60.68H136.966ZM137.494 60.136H135.358V65.096H135.886V64.416H137.494V60.136ZM142.39 64.464H140.87V63.232H140.302V64.464H137.574V64.992H140.302V66.608H140.87V64.992H142.39V64.464ZM143.71 66.488C144.11 65.752 144.598 64.744 144.958 63.896L144.494 63.56C144.102 64.464 143.566 65.52 143.182 66.144L143.71 66.488ZM144.718 62.32C144.398 62.112 143.798 61.792 143.366 61.576L143.038 62.016C143.478 62.248 144.07 62.592 144.374 62.808L144.718 62.32ZM143.318 59.88C143.742 60.12 144.318 60.488 144.606 60.712L144.958 60.232C144.662 60.024 144.078 59.68 143.662 59.456L143.318 59.88ZM148.014 61.368H147.254V60.296H148.014V61.368ZM149.486 63.008C149.462 63.016 149.43 63.024 149.334 63.024H148.686C148.502 63.024 148.47 63.008 148.47 62.872V61.896H149.486V63.008ZM145.902 65.704V64.784H149.486V65.704H145.902ZM146.79 61.896V62.168C146.79 62.592 146.622 63.104 145.902 63.496V61.896H146.79ZM149.398 63.512H149.486V64.272H145.902V63.592C146.006 63.672 146.126 63.792 146.182 63.872C147.046 63.416 147.27 62.744 147.27 62.176V61.896H147.998V62.88C147.998 63.384 148.134 63.512 148.638 63.512H149.398ZM150.35 60.296V59.752H145.07V60.296H146.718V61.368H145.358V66.608H145.902V66.232H149.486V66.584H150.054V61.368H148.558V60.296H150.35Z" fill="#262626"/>
<path d="M160.384 62.56V63.208H167.648V62.56H160.384ZM171.944 59.752H168.52V60.288H171.944V59.752ZM171.168 61.664V63.056H169.376V61.664H171.168ZM171.744 63.6V61.12H168.808V63.272C168.808 64.176 168.752 65.392 168.208 66.256C168.328 66.328 168.576 66.52 168.664 66.616C169.216 65.784 169.352 64.568 169.376 63.6H171.744ZM175.696 62.008H172.856V60.728C173.792 60.504 174.816 60.2 175.536 59.848L175.008 59.408C174.488 59.704 173.592 60 172.744 60.216L172.272 60.096V62.216C172.272 63.424 172.16 65.016 171.056 66.192C171.2 66.264 171.408 66.464 171.496 66.592C172.576 65.44 172.816 63.832 172.848 62.584H174.224V66.608H174.816V62.584H175.696V62.008ZM180.248 60.944C180.632 61.192 181.064 61.552 181.336 61.84C181.176 62.016 181.024 62.176 180.88 62.312C180.6 62.32 180.344 62.328 180.12 62.336L180.192 62.808C180.6 62.784 181.08 62.76 181.6 62.736V64.608H182.136V62.704C182.44 62.688 182.752 62.664 183.064 62.648C183.136 62.76 183.2 62.864 183.248 62.96L183.656 62.728C183.488 62.392 183.088 61.944 182.712 61.632L182.32 61.832C182.464 61.952 182.608 62.096 182.736 62.24C182.296 62.264 181.856 62.28 181.448 62.296C181.92 61.84 182.456 61.24 182.872 60.736L182.4 60.528C182.2 60.816 181.936 61.152 181.648 61.488C181.52 61.36 181.368 61.216 181.192 61.08C181.456 60.816 181.744 60.44 182 60.104L181.832 60.032C182.4 59.952 182.936 59.848 183.344 59.72L182.968 59.336C182.32 59.544 181.088 59.712 180.08 59.8C180.144 59.904 180.2 60.088 180.216 60.2C180.592 60.176 181 60.136 181.4 60.088C181.256 60.328 181.056 60.616 180.872 60.84C180.768 60.768 180.664 60.704 180.568 60.64L180.248 60.944ZM182.448 63.2C182.768 63.544 183.104 64.032 183.232 64.352L183.672 64.144C183.528 63.808 183.184 63.344 182.856 63.008L182.448 63.2ZM180.808 63.056C180.632 63.448 180.36 63.848 180.056 64.152C180.184 64.2 180.376 64.336 180.464 64.424C180.768 64.112 181.08 63.624 181.28 63.184L180.808 63.056ZM179.136 64.656C179.6 64.88 180.144 65.24 180.4 65.528L180.776 65.176C180.512 64.888 179.96 64.552 179.488 64.344L179.136 64.656ZM179.032 63.344C179.28 63.576 179.536 63.904 179.648 64.136L180.072 63.912C179.952 63.688 179.68 63.368 179.432 63.144L179.032 63.344ZM179.256 60.28H178.104V59.896H179.256V60.28ZM179.256 61.024H178.104V60.632H179.256V61.024ZM179.256 61.76H178.104V61.36H179.256V61.76ZM179.744 59.544H177.624V62.12H179.744V59.544ZM177.304 63.136C177.12 63.56 176.792 63.968 176.424 64.248C176.552 64.32 176.752 64.456 176.848 64.544C177.208 64.224 177.584 63.752 177.8 63.264L177.304 63.136ZM176.864 66.472C177.424 66.136 177.736 65.592 177.936 65.024L177.44 64.832C177.256 65.352 176.904 65.864 176.376 66.152L176.864 66.472ZM178.696 64.592V62.944H180.056V62.488H177.208V60.016H176.72V62.944H178.176V64.592H178.696ZM179.488 66.016C179.08 66.016 179.008 65.984 179.008 65.792V64.84H178.432V65.792C178.432 66.368 178.632 66.512 179.448 66.512H180.976C181.6 66.512 181.776 66.312 181.848 65.48C181.688 65.448 181.448 65.368 181.336 65.288C181.304 65.928 181.248 66.016 180.92 66.016H179.488ZM181.752 65.08C182.296 65.448 182.88 66.016 183.12 66.432L183.632 66.128C183.36 65.712 182.768 65.168 182.216 64.808L181.752 65.08ZM187.024 63.128V64.8H185.648V63.128H187.024ZM187.576 62.608H185.104V66H185.648V65.328H187.576V62.608ZM189.664 61.352H186.408V61.88H189.664V61.352ZM190.992 62.6H188.256V66.624H188.824V63.12H190.432V65.072C190.432 65.176 190.4 65.2 190.28 65.208C190.168 65.224 189.784 65.224 189.344 65.208C189.408 65.352 189.496 65.584 189.512 65.744C190.112 65.744 190.488 65.744 190.712 65.648C190.936 65.552 190.992 65.384 190.992 65.088V62.6ZM187.632 59.288C186.976 60.232 185.592 61.312 184.184 61.96C184.312 62.088 184.472 62.304 184.544 62.448C185.928 61.776 187.28 60.728 187.968 59.856C188.744 60.776 190.208 61.816 191.456 62.392C191.56 62.216 191.704 62.008 191.848 61.864C190.56 61.352 189.128 60.352 188.232 59.288H187.632ZM195.72 59.424V65.784C195.72 65.944 195.656 66 195.488 66C195.336 66.008 194.76 66.016 194.176 65.992C194.272 66.16 194.384 66.44 194.424 66.608C195.168 66.616 195.664 66.6 195.952 66.504C196.232 66.4 196.352 66.224 196.352 65.784V59.424H195.72ZM197.632 61.44C198.312 62.584 198.952 64.072 199.144 65.016L199.768 64.752C199.568 63.8 198.896 62.344 198.192 61.224L197.632 61.44ZM193.632 61.28C193.44 62.352 193 63.728 192.288 64.568C192.448 64.632 192.704 64.776 192.848 64.88C193.568 63.992 194.032 62.56 194.288 61.4L193.632 61.28ZM205.688 60.848C205.432 60.552 204.88 60.144 204.432 59.872L204.128 60.272C204.584 60.568 205.128 61 205.384 61.304L205.688 60.848ZM205.344 62.76C205.064 62.472 204.472 62.112 204 61.864L203.72 62.28C204.2 62.536 204.768 62.944 205.048 63.24L205.344 62.76ZM203.032 59.784C202.912 60.32 202.688 61.112 202.504 61.584L202.888 61.712C203.104 61.264 203.352 60.512 203.544 59.912L203.032 59.784ZM201.368 61.568C201.312 61.088 201.128 60.368 200.896 59.816L200.464 59.92C200.672 60.48 200.856 61.216 200.896 61.696L201.368 61.568ZM202.24 62.536H203.544V61.976H202.24V59.336H201.688V61.976H200.408V62.536H201.528C201.248 63.432 200.744 64.464 200.28 65.024C200.376 65.168 200.52 65.432 200.584 65.6C200.984 65.064 201.392 64.176 201.688 63.32V66.608H202.24V63.328C202.528 63.776 202.904 64.392 203.048 64.688L203.44 64.224C203.264 63.952 202.464 62.896 202.24 62.648V62.536ZM207.696 64.176L207.608 63.632L206.664 63.8V59.312H206.104V63.904L203.528 64.36L203.624 64.912L206.104 64.464V66.608H206.664V64.36L207.696 64.176ZM210.824 64.392L209.952 64.68V62.696H210.752V62.144H209.952V60.408H210.872V59.848H208.392V60.408H209.384V62.144H208.48V62.696H209.384V64.856C208.976 64.992 208.608 65.104 208.312 65.192L208.448 65.792C209.16 65.56 210.072 65.248 210.928 64.96L210.824 64.392ZM211.808 61.696H213.024V62.712H211.808V61.696ZM211.808 60.192H213.024V61.2H211.808V60.192ZM214.76 61.2H213.536V60.192H214.76V61.2ZM214.76 62.712H213.536V61.696H214.76V62.712ZM213.584 65.808V64.712H215.448V64.168H213.584V63.232H215.328V59.672H211.264V63.232H212.984V64.168H211.168V64.712H212.984V65.808H210.552V66.352H215.704V65.808H213.584Z" fill="#262626"/>
<path d="M1.56 91.6H2.152V87.32C2.432 86.88 2.68 86.408 2.888 85.928L2.312 85.752C1.848 86.888 1.072 87.976 0.232 88.664C0.36 88.768 0.584 88.992 0.672 89.112C0.976 88.84 1.272 88.52 1.56 88.16V91.6ZM7.512 85.2H4.288V84.304H3.68V85.2H0.512V85.752H7.512V85.2ZM5.776 88.352C5.584 88.088 5.184 87.704 4.848 87.448L4.472 87.736C4.816 88.008 5.208 88.408 5.384 88.68L5.776 88.352ZM6.592 87.16C6.28 88.136 5.784 88.92 5.144 89.544C4.664 89.048 4.264 88.48 3.976 87.856C4.144 87.632 4.304 87.4 4.448 87.16H6.592ZM6.928 86.632L6.816 86.664H4.736C4.864 86.416 4.984 86.168 5.088 85.92L4.504 85.752C4.128 86.76 3.36 87.928 2.448 88.648C2.576 88.744 2.76 88.936 2.864 89.056C3.128 88.832 3.384 88.576 3.624 88.296C3.92 88.896 4.296 89.44 4.736 89.912C4.072 90.456 3.288 90.856 2.448 91.128C2.568 91.224 2.752 91.472 2.824 91.616C3.664 91.32 4.456 90.896 5.144 90.32C5.776 90.896 6.512 91.344 7.344 91.624C7.44 91.464 7.616 91.224 7.744 91.112C6.928 90.872 6.184 90.456 5.56 89.928C6.344 89.144 6.952 88.128 7.304 86.816L6.928 86.632ZM15.592 85.648V85.112H12.536V84.312H11.928V85.112H8.992V87.4C8.992 88.552 8.936 90.168 8.28 91.304C8.416 91.368 8.664 91.528 8.768 91.64C9.456 90.432 9.552 88.632 9.552 87.4V85.648H15.592ZM9.832 91.48H13.376V90.952H9.832V91.48ZM11.064 87.84V86.92C11.64 86.864 12.256 86.792 12.848 86.704C12.864 87.096 12.888 87.48 12.92 87.84H11.064ZM15.552 88.376V87.84H13.488C13.448 87.456 13.432 87.048 13.424 86.608C13.952 86.52 14.448 86.416 14.864 86.296L14.4 85.864C13.6 86.104 12.192 86.328 10.936 86.456L10.504 86.328V89.864C10.224 89.896 9.976 89.92 9.752 89.944L9.824 90.488C10.656 90.376 11.848 90.24 12.984 90.096L12.976 89.568C12.328 89.648 11.664 89.728 11.064 89.8V88.376H12.976C13.224 90.192 13.776 91.424 14.792 91.424C15.32 91.424 15.52 91.12 15.608 90C15.456 89.96 15.264 89.856 15.128 89.736C15.096 90.536 15.024 90.864 14.824 90.864C14.2 90.864 13.744 89.896 13.544 88.376H15.552ZM18.936 87.768L18.04 88.032V86.456H18.928V85.912H18.04V84.312H17.464V85.912H16.36V86.456H17.464V88.2C17.016 88.328 16.6 88.44 16.264 88.528L16.416 89.112L17.464 88.784V90.928C17.464 91.04 17.432 91.08 17.32 91.08C17.216 91.08 16.888 91.08 16.528 91.072C16.608 91.224 16.68 91.464 16.704 91.608C17.232 91.608 17.552 91.592 17.76 91.512C17.96 91.416 18.04 91.248 18.04 90.928V88.608L19.016 88.304L18.936 87.768ZM22.496 88.968V90.72H19.968V88.968H22.496ZM19.4 91.6H19.968V91.256H22.496V91.576H23.088V88.424H19.4V91.6ZM19.792 86.872V87.408H22.648V86.872H19.792ZM20.896 84.32C20.48 85.184 19.584 86.264 18.688 86.904C18.8 87.032 18.952 87.24 19.016 87.392C19.912 86.728 20.752 85.72 21.2 84.92C21.696 85.712 22.6 86.728 23.424 87.36C23.52 87.192 23.656 86.968 23.776 86.824C22.936 86.264 22.024 85.256 21.448 84.32H20.896ZM26.408 86.44C25.912 87.464 25.104 88.44 24.256 89.056C24.392 89.16 24.64 89.36 24.736 89.472C25.072 89.192 25.416 88.856 25.744 88.48V91.608H26.328V87.736C26.576 87.376 26.8 87.008 26.992 86.624L26.408 86.44ZM29.016 85.608V86.488H29.608V85.608H31.488V85.032H29.608V84.304H29.016V85.032H27.008V84.304H26.416V85.032H24.504V85.608H26.416V86.44H27.008V85.608H29.016ZM29.16 90.936C28.752 90.936 28.672 90.864 28.672 90.536V88.968C29.584 88.592 30.592 88.128 31.304 87.656L30.848 87.216C30.336 87.608 29.488 88.064 28.672 88.424V86.512H28.088V90.528C28.088 91.288 28.312 91.496 29.112 91.496H30.632C31.376 91.496 31.552 91.136 31.632 89.952C31.472 89.912 31.232 89.808 31.088 89.704C31.04 90.728 30.976 90.936 30.6 90.936H29.16ZM35.5741 91H34.8541V85.288H38.0461V85.92H35.5741V87.944H37.8941V88.576H35.5741V91ZM39.6106 91H38.9066V84.92H39.6106V91ZM42.5931 86.64C43.1157 86.64 43.5024 86.7547 43.7531 86.984C44.0037 87.2133 44.1291 87.5787 44.1291 88.08V91H43.6171L43.4811 90.392H43.4491C43.2624 90.6267 43.0651 90.8 42.8571 90.912C42.6491 91.024 42.3664 91.08 42.0091 91.08C41.6197 91.08 41.2971 90.9787 41.0411 90.776C40.7851 90.568 40.6571 90.2453 40.6571 89.808C40.6571 89.3813 40.8251 89.0533 41.1611 88.824C41.4971 88.5893 42.0144 88.4613 42.7131 88.44L43.4411 88.416V88.16C43.4411 87.8027 43.3637 87.5547 43.2091 87.416C43.0544 87.2773 42.8357 87.208 42.5531 87.208C42.3291 87.208 42.1157 87.2427 41.9131 87.312C41.7104 87.376 41.5211 87.4507 41.3451 87.536L41.1291 87.008C41.3157 86.9067 41.5371 86.8213 41.7931 86.752C42.0491 86.6773 42.3157 86.64 42.5931 86.64ZM43.4331 88.904L42.8011 88.928C42.2677 88.9493 41.8971 89.0347 41.6891 89.184C41.4864 89.3333 41.3851 89.544 41.3851 89.816C41.3851 90.056 41.4571 90.232 41.6011 90.344C41.7504 90.456 41.9397 90.512 42.1691 90.512C42.5264 90.512 42.8251 90.4133 43.0651 90.216C43.3104 90.0133 43.4331 89.704 43.4331 89.288V88.904ZM46.3974 91L44.7734 86.712H45.5254L46.4374 89.24C46.4801 89.3573 46.5254 89.488 46.5734 89.632C46.6214 89.776 46.6641 89.9147 46.7014 90.048C46.7388 90.1813 46.7654 90.2907 46.7814 90.376H46.8134C46.8294 90.2907 46.8588 90.1813 46.9014 90.048C46.9441 89.9093 46.9894 89.7707 47.0374 89.632C47.0854 89.488 47.1308 89.3573 47.1734 89.24L48.0854 86.712H48.8374L47.2054 91H46.3974ZM53.2439 88.848C53.2439 89.5573 53.0626 90.1067 52.6999 90.496C52.3426 90.8853 51.8573 91.08 51.2439 91.08C50.8653 91.08 50.5266 90.9947 50.2279 90.824C49.9346 90.648 49.7026 90.3947 49.5319 90.064C49.3613 89.728 49.2759 89.3227 49.2759 88.848C49.2759 88.1387 49.4519 87.592 49.8039 87.208C50.1613 86.824 50.6493 86.632 51.2679 86.632C51.6519 86.632 51.9933 86.72 52.2919 86.896C52.5906 87.0667 52.8226 87.3173 52.9879 87.648C53.1586 87.9733 53.2439 88.3733 53.2439 88.848ZM50.0039 88.848C50.0039 89.3547 50.1026 89.7573 50.2999 90.056C50.5026 90.3493 50.8226 90.496 51.2599 90.496C51.6919 90.496 52.0093 90.3493 52.2119 90.056C52.4146 89.7573 52.5159 89.3547 52.5159 88.848C52.5159 88.3413 52.4146 87.944 52.2119 87.656C52.0093 87.368 51.6893 87.224 51.2519 87.224C50.8146 87.224 50.4973 87.368 50.2999 87.656C50.1026 87.944 50.0039 88.3413 50.0039 88.848ZM56.3597 86.632C56.4397 86.632 56.525 86.6373 56.6157 86.648C56.7064 86.6533 56.789 86.664 56.8637 86.68L56.7757 87.328C56.7064 87.312 56.629 87.2987 56.5437 87.288C56.4584 87.2773 56.381 87.272 56.3117 87.272C56.093 87.272 55.8877 87.3333 55.6957 87.456C55.5037 87.5733 55.349 87.7413 55.2317 87.96C55.1197 88.1733 55.0637 88.424 55.0637 88.712V91H54.3597V86.712H54.9357L55.0157 87.496H55.0477C55.181 87.2613 55.357 87.0587 55.5757 86.888C55.7997 86.7173 56.061 86.632 56.3597 86.632ZM63.4705 88.848C63.4705 89.5573 63.2892 90.1067 62.9265 90.496C62.5692 90.8853 62.0838 91.08 61.4705 91.08C61.0918 91.08 60.7532 90.9947 60.4545 90.824C60.1612 90.648 59.9292 90.3947 59.7585 90.064C59.5878 89.728 59.5025 89.3227 59.5025 88.848C59.5025 88.1387 59.6785 87.592 60.0305 87.208C60.3878 86.824 60.8758 86.632 61.4945 86.632C61.8785 86.632 62.2198 86.72 62.5185 86.896C62.8172 87.0667 63.0492 87.3173 63.2145 87.648C63.3852 87.9733 63.4705 88.3733 63.4705 88.848ZM60.2305 88.848C60.2305 89.3547 60.3292 89.7573 60.5265 90.056C60.7292 90.3493 61.0492 90.496 61.4865 90.496C61.9185 90.496 62.2358 90.3493 62.4385 90.056C62.6412 89.7573 62.7425 89.3547 62.7425 88.848C62.7425 88.3413 62.6412 87.944 62.4385 87.656C62.2358 87.368 61.9158 87.224 61.4785 87.224C61.0412 87.224 60.7238 87.368 60.5265 87.656C60.3292 87.944 60.2305 88.3413 60.2305 88.848ZM66.5623 87.256H65.4823V91H64.7783V87.256H64.0263V86.928L64.7783 86.688V86.44C64.7783 85.8853 64.8983 85.488 65.1383 85.248C65.3836 85.0027 65.7276 84.88 66.1703 84.88C66.3356 84.88 66.4903 84.896 66.6343 84.928C66.7783 84.9547 66.9009 84.9867 67.0023 85.024L66.8183 85.576C66.7329 85.5493 66.6343 85.5227 66.5223 85.496C66.4103 85.4693 66.2956 85.456 66.1783 85.456C65.9436 85.456 65.7676 85.536 65.6503 85.696C65.5383 85.8507 65.4823 86.096 65.4823 86.432V86.712H66.5623V87.256ZM70.8464 90.504C70.953 90.504 71.0624 90.496 71.1744 90.48C71.2864 90.464 71.377 90.4427 71.4464 90.416V90.952C71.3717 90.9893 71.265 91.0187 71.1264 91.04C70.9877 91.0667 70.8544 91.08 70.7264 91.08C70.5024 91.08 70.2944 91.0427 70.1024 90.968C69.9157 90.888 69.7637 90.752 69.6464 90.56C69.529 90.368 69.4704 90.0987 69.4704 89.752V87.256H68.8624V86.92L69.4784 86.64L69.7584 85.728H70.1744V86.712H71.4144V87.256H70.1744V89.736C70.1744 89.9973 70.2357 90.192 70.3584 90.32C70.4864 90.4427 70.649 90.504 70.8464 90.504ZM73.009 84.92V86.704C73.009 86.9173 72.9957 87.1173 72.969 87.304H73.017C73.1557 87.0853 73.3423 86.92 73.577 86.808C73.817 86.696 74.0757 86.64 74.353 86.64C74.8703 86.64 75.2597 86.7653 75.521 87.016C75.7877 87.2613 75.921 87.6587 75.921 88.208V91H75.225V88.256C75.225 87.568 74.905 87.224 74.265 87.224C73.785 87.224 73.4543 87.36 73.273 87.632C73.097 87.8987 73.009 88.2827 73.009 88.784V91H72.305V84.92H73.009ZM78.9063 86.632C79.269 86.632 79.5836 86.712 79.8503 86.872C80.117 87.032 80.3196 87.2587 80.4583 87.552C80.6023 87.84 80.6743 88.1787 80.6743 88.568V88.992H77.7383C77.749 89.4773 77.8716 89.848 78.1063 90.104C78.3463 90.3547 78.6796 90.48 79.1063 90.48C79.3783 90.48 79.6183 90.456 79.8263 90.408C80.0396 90.3547 80.2583 90.28 80.4823 90.184V90.8C80.2636 90.896 80.0476 90.9653 79.8343 91.008C79.621 91.056 79.3676 91.08 79.0743 91.08C78.6636 91.08 78.3036 90.9973 77.9943 90.832C77.685 90.6667 77.4423 90.4213 77.2663 90.096C77.0956 89.7707 77.0103 89.368 77.0103 88.888C77.0103 88.4187 77.0876 88.016 77.2423 87.68C77.4023 87.344 77.6236 87.0853 77.9063 86.904C78.1943 86.7227 78.5276 86.632 78.9063 86.632ZM78.8983 87.208C78.5623 87.208 78.2956 87.3173 78.0983 87.536C77.9063 87.7493 77.7916 88.048 77.7543 88.432H79.9383C79.933 88.0693 79.8476 87.776 79.6823 87.552C79.517 87.3227 79.2556 87.208 78.8983 87.208ZM88.4681 91H87.6281L84.5721 86.256H84.5401C84.5507 86.4427 84.5641 86.6747 84.5801 86.952C84.5961 87.2293 84.6041 87.5147 84.6041 87.808V91H83.9401V85.288H84.7721L87.8201 90.016H87.8521C87.8467 89.9307 87.8387 89.8027 87.8281 89.632C87.8227 89.4613 87.8147 89.2773 87.8041 89.08C87.7987 88.8773 87.7961 88.688 87.7961 88.512V85.288H88.4681V91ZM90.2822 85.104C90.3889 85.104 90.4822 85.1413 90.5622 85.216C90.6475 85.2853 90.6902 85.3973 90.6902 85.552C90.6902 85.7067 90.6475 85.8213 90.5622 85.896C90.4822 85.9653 90.3889 86 90.2822 86C90.1649 86 90.0662 85.9653 89.9862 85.896C89.9062 85.8213 89.8662 85.7067 89.8662 85.552C89.8662 85.3973 89.9062 85.2853 89.9862 85.216C90.0662 85.1413 90.1649 85.104 90.2822 85.104ZM90.6262 86.712V91H89.9222V86.712H90.6262ZM93.5047 86.632C93.7874 86.632 94.0407 86.6853 94.2647 86.792C94.494 86.8987 94.6887 87.0613 94.8487 87.28H94.8887L94.9847 86.712H95.5447V91.072C95.5447 91.6853 95.3874 92.1467 95.0727 92.456C94.7634 92.7653 94.2807 92.92 93.6247 92.92C92.9954 92.92 92.4807 92.8293 92.0807 92.648V92C92.502 92.224 93.03 92.336 93.6647 92.336C94.0327 92.336 94.3207 92.2267 94.5287 92.008C94.742 91.7947 94.8487 91.5013 94.8487 91.128V90.96C94.8487 90.896 94.8514 90.8053 94.8567 90.688C94.862 90.5653 94.8674 90.48 94.8727 90.432H94.8407C94.5527 90.864 94.11 91.08 93.5127 91.08C92.958 91.08 92.5234 90.8853 92.2087 90.496C91.8994 90.1067 91.7447 89.5627 91.7447 88.864C91.7447 88.1813 91.8994 87.64 92.2087 87.24C92.5234 86.8347 92.9554 86.632 93.5047 86.632ZM93.6007 87.224C93.2434 87.224 92.966 87.368 92.7687 87.656C92.5714 87.9387 92.4727 88.344 92.4727 88.872C92.4727 89.4 92.5687 89.8053 92.7607 90.088C92.9527 90.3653 93.238 90.504 93.6167 90.504C94.0487 90.504 94.3634 90.3893 94.5607 90.16C94.758 89.9253 94.8567 89.5493 94.8567 89.032V88.864C94.8567 88.2827 94.7554 87.864 94.5527 87.608C94.35 87.352 94.0327 87.224 93.6007 87.224ZM97.6106 84.92V86.704C97.6106 86.9173 97.5972 87.1173 97.5706 87.304H97.6186C97.7572 87.0853 97.9439 86.92 98.1786 86.808C98.4186 86.696 98.6772 86.64 98.9546 86.64C99.4719 86.64 99.8612 86.7653 100.123 87.016C100.389 87.2613 100.523 87.6587 100.523 88.208V91H99.8266V88.256C99.8266 87.568 99.5066 87.224 98.8666 87.224C98.3866 87.224 98.0559 87.36 97.8746 87.632C97.6986 87.8987 97.6106 88.2827 97.6106 88.784V91H96.9066V84.92H97.6106ZM103.284 90.504C103.391 90.504 103.5 90.496 103.612 90.48C103.724 90.464 103.815 90.4427 103.884 90.416V90.952C103.809 90.9893 103.703 91.0187 103.564 91.04C103.425 91.0667 103.292 91.08 103.164 91.08C102.94 91.08 102.732 91.0427 102.54 90.968C102.353 90.888 102.201 90.752 102.084 90.56C101.967 90.368 101.908 90.0987 101.908 89.752V87.256H101.3V86.92L101.916 86.64L102.196 85.728H102.612V86.712H103.852V87.256H102.612V89.736C102.612 89.9973 102.673 90.192 102.796 90.32C102.924 90.4427 103.087 90.504 103.284 90.504Z" fill="#262626"/>
<path d="M121.76 86.184C121.584 87.072 121.2 87.848 120.624 88.344C120.768 88.408 121.008 88.576 121.12 88.664C121.392 88.408 121.624 88.088 121.824 87.72C122.296 88.112 122.8 88.56 123.072 88.864L123.496 88.456C123.176 88.128 122.56 87.616 122.056 87.224C122.168 86.928 122.264 86.616 122.328 86.28L121.76 86.184ZM117.992 86.184C117.76 87.216 117.264 88.072 116.536 88.616C116.672 88.704 116.904 88.896 117.008 89C117.4 88.672 117.744 88.248 118.016 87.744C118.304 88.024 118.6 88.32 118.76 88.52L119.168 88.112C118.968 87.88 118.6 87.528 118.264 87.232C118.384 86.936 118.496 86.624 118.576 86.288L117.992 86.184ZM120.28 86H123.456V85.416H120.28V84.312H119.672V85.416H116.608V86H119.672V87.952C118.936 89.112 117.616 90.216 116.328 90.744C116.464 90.864 116.656 91.096 116.744 91.24C117.808 90.744 118.88 89.88 119.672 88.864V91.608H120.28V88.84C121.056 89.88 122.144 90.776 123.248 91.264C123.336 91.104 123.536 90.864 123.688 90.736C122.328 90.224 120.992 89.096 120.28 87.896V86ZM128.272 88.272H130.904V87.72H128.272V85.088H127.728V87.72H125.096V88.272H127.728V90.904H128.272V88.272ZM133.92 85.384V89.12H133.112V85.384H133.92ZM134.4 89.616V84.896H132.632V90.384H133.112V89.616H134.4ZM135.88 85.912C135.888 85.408 135.896 84.88 135.896 84.336H135.376C135.376 84.888 135.376 85.416 135.368 85.912H134.688V86.448H135.352C135.296 88.552 135.064 90.24 134.056 91.256C134.184 91.336 134.376 91.512 134.472 91.64C135.56 90.504 135.808 88.704 135.872 86.448H136.56C136.472 89.512 136.376 90.576 136.2 90.816C136.128 90.928 136.072 90.944 135.968 90.944C135.848 90.944 135.616 90.944 135.36 90.92C135.44 91.072 135.496 91.296 135.496 91.456C135.76 91.48 136.024 91.472 136.2 91.456C136.392 91.424 136.528 91.36 136.656 91.168C136.896 90.824 136.984 89.712 137.088 86.192C137.096 86.128 137.096 85.912 137.096 85.912H135.88ZM137.896 90.112V85.776H138.888V90.112H137.896ZM137.408 85.24V91.32H137.896V90.648H138.888V91.256H139.4V85.24H137.408ZM142.144 85.6V88.728H141.144V85.6H142.144ZM142.68 89.272V85.048H140.616V89.976H141.144V89.272H142.68ZM145.104 88.56L144.776 88.672C144.792 88.424 144.8 88.176 144.8 87.92V84.376H144.232V85.656H142.896V86.208H144.232V87.312H142.952V87.856H144.232V87.912C144.232 88.232 144.224 88.552 144.184 88.872C143.576 89.072 143 89.256 142.576 89.376L142.808 89.912C143.192 89.776 143.624 89.616 144.072 89.44C143.896 90.144 143.504 90.776 142.696 91.256C142.84 91.344 143.04 91.528 143.136 91.64C144.152 91.024 144.56 90.16 144.72 89.192L145.184 89.008L145.104 88.56ZM147.656 88.984H146.088V87.856H147.48V87.312H146.088V86.208H147.576V85.656H146.088V84.36H145.512V91.6H146.088V89.536H147.656V88.984Z" fill="#262626"/>
<path d="M162.472 88.904V90.608H160.328V88.904H162.472ZM159.768 91.608H160.328V91.16H162.472V91.496H163.048V88.352H159.768V91.608ZM159.52 84.736V85.28H160.824C160.656 86.44 160.168 87.184 159.232 87.64C159.352 87.736 159.568 87.952 159.656 88.048C160.64 87.496 161.192 86.632 161.392 85.28H162.64C162.544 86.584 162.448 87.096 162.312 87.24C162.24 87.32 162.168 87.328 162.048 87.328C161.912 87.328 161.592 87.328 161.248 87.296C161.328 87.448 161.392 87.672 161.408 87.848C161.76 87.864 162.104 87.872 162.296 87.848C162.512 87.832 162.656 87.776 162.792 87.616C163.008 87.384 163.104 86.72 163.224 85C163.232 84.912 163.24 84.736 163.24 84.736H159.52ZM166.192 84.72L166.096 84.744H163.752V91.616H164.336V85.304H165.824C165.56 85.936 165.176 86.8 164.824 87.464C165.688 88.152 165.936 88.752 165.936 89.248C165.944 89.536 165.88 89.768 165.704 89.864C165.6 89.928 165.464 89.952 165.328 89.96C165.152 89.968 164.912 89.968 164.648 89.944C164.76 90.112 164.816 90.376 164.824 90.536C165.072 90.552 165.352 90.552 165.568 90.528C165.776 90.504 165.968 90.44 166.104 90.352C166.408 90.16 166.528 89.792 166.52 89.304C166.52 88.744 166.304 88.112 165.448 87.384C165.84 86.664 166.288 85.76 166.624 85.008L166.192 84.72ZM169.88 84.832H167.632V85.352H169.88V84.832ZM167.576 88.464C167.576 89.176 167.536 90.024 167.304 90.696C167.416 90.744 167.592 90.864 167.664 90.96C167.952 90.216 167.992 89.296 167.992 88.472V87.528H167.576V88.464ZM170.056 86.952V86.432H167.424V86.952H168.52V91.6H169.032V86.952H170.056ZM169.992 87.52H169.576V90.448H169.992V87.52ZM170.256 91.336C170.672 90.904 170.824 90.136 170.92 89.416L170.456 89.304C170.392 89.984 170.208 90.696 169.824 91.104L170.256 91.336ZM171.312 89.528C171.408 90.024 171.464 90.672 171.456 91.104L171.888 91.032C171.896 90.608 171.832 89.96 171.72 89.464L171.312 89.528ZM172.192 89.456C172.36 89.864 172.52 90.4 172.576 90.752L172.976 90.632C172.912 90.288 172.752 89.76 172.568 89.352L172.192 89.456ZM171.08 87.624H172.344V88.36H171.08V87.624ZM172.344 85.256V85.968H171.08V85.256H172.344ZM172.344 87.152H171.08V86.432H172.344V87.152ZM172.856 88.36V87.624H174.256V87.152H172.856V86.432H174.224V85.968H172.856V85.256H174.44V84.736H170.544V88.88H174.016C173.944 90.328 173.856 90.888 173.728 91.04C173.656 91.112 173.592 91.128 173.472 91.128C173.344 91.128 173.032 91.12 172.696 91.088C172.776 91.232 172.832 91.448 172.84 91.592C173.184 91.608 173.528 91.616 173.704 91.6C173.92 91.584 174.048 91.528 174.184 91.376C174.384 91.136 174.472 90.464 174.568 88.608C174.568 88.528 174.576 88.36 174.576 88.36H172.856ZM173.912 90.072C173.808 89.816 173.576 89.432 173.352 89.144L173.024 89.28C173.232 89.576 173.464 89.976 173.552 90.24L173.912 90.072ZM177.68 84.584H175.712V85.064H177.68V84.584ZM177.904 85.632H175.336V86.12H177.904V85.632ZM177.696 86.712H175.664V87.184H177.696V86.712ZM175.664 88.248H177.696V87.768H175.664V88.248ZM177.2 89.328V90.664H176.136V89.328H177.2ZM177.696 91.144V88.84H175.656V91.52H176.136V91.144H177.696ZM179.192 87.224V87.68H181.536V87.224H180.568V86.456H181.416V86H180.568V85.312H180.08V86H179.256V86.456H180.08V87.224H179.192ZM180.912 88.752V89.896H179.76V88.752H180.912ZM181.368 90.352V88.296H179.304V90.664H179.76V90.352H181.368ZM182.408 84.64H178.304V87.488C178.304 88.664 178.256 90.224 177.632 91.328C177.768 91.392 178.008 91.56 178.096 91.656C178.76 90.488 178.848 88.728 178.848 87.488V85.16H181.864V90.856C181.864 90.992 181.824 91.024 181.704 91.024C181.568 91.032 181.152 91.04 180.728 91.016C180.8 91.176 180.88 91.448 180.904 91.6C181.496 91.6 181.896 91.592 182.112 91.496C182.336 91.4 182.408 91.208 182.408 90.856V84.64ZM183.976 91.488C184.376 90.752 184.864 89.744 185.224 88.896L184.76 88.56C184.368 89.464 183.832 90.52 183.448 91.144L183.976 91.488ZM184.984 87.32C184.664 87.112 184.064 86.792 183.632 86.576L183.304 87.016C183.744 87.248 184.336 87.592 184.64 87.808L184.984 87.32ZM183.584 84.88C184.008 85.12 184.584 85.488 184.872 85.712L185.224 85.232C184.928 85.024 184.344 84.68 183.928 84.456L183.584 84.88ZM188.28 86.368H187.52V85.296H188.28V86.368ZM189.752 88.008C189.728 88.016 189.696 88.024 189.6 88.024H188.952C188.768 88.024 188.736 88.008 188.736 87.872V86.896H189.752V88.008ZM186.168 90.704V89.784H189.752V90.704H186.168ZM187.056 86.896V87.168C187.056 87.592 186.888 88.104 186.168 88.496V86.896H187.056ZM189.664 88.512H189.752V89.272H186.168V88.592C186.272 88.672 186.392 88.792 186.448 88.872C187.312 88.416 187.536 87.744 187.536 87.176V86.896H188.264V87.88C188.264 88.384 188.4 88.512 188.904 88.512H189.664ZM190.616 85.296V84.752H185.336V85.296H186.984V86.368H185.624V91.608H186.168V91.232H189.752V91.584H190.32V86.368H188.824V85.296H190.616ZM197.094 89.472C197.094 89.9787 196.91 90.3733 196.542 90.656C196.174 90.9387 195.678 91.08 195.054 91.08C194.734 91.08 194.438 91.056 194.166 91.008C193.894 90.96 193.667 90.8933 193.486 90.808V90.12C193.678 90.2053 193.915 90.2827 194.198 90.352C194.486 90.4213 194.782 90.456 195.086 90.456C195.507 90.456 195.827 90.3733 196.046 90.208C196.265 90.0427 196.374 89.8187 196.374 89.536C196.374 89.3493 196.334 89.192 196.254 89.064C196.174 88.936 196.035 88.8187 195.838 88.712C195.641 88.6053 195.371 88.488 195.03 88.36C194.539 88.184 194.171 87.968 193.926 87.712C193.681 87.456 193.558 87.1067 193.558 86.664C193.558 86.3653 193.635 86.1067 193.79 85.888C193.945 85.6693 194.158 85.5013 194.43 85.384C194.702 85.2667 195.019 85.208 195.382 85.208C195.691 85.208 195.977 85.2373 196.238 85.296C196.499 85.3547 196.739 85.432 196.958 85.528L196.734 86.144C196.537 86.0587 196.321 85.9867 196.086 85.928C195.851 85.8693 195.611 85.84 195.366 85.84C195.009 85.84 194.739 85.9173 194.558 86.072C194.377 86.2213 194.286 86.4213 194.286 86.672C194.286 86.864 194.326 87.024 194.406 87.152C194.486 87.28 194.617 87.3973 194.798 87.504C194.979 87.6053 195.225 87.712 195.534 87.824C195.87 87.9467 196.153 88.08 196.382 88.224C196.617 88.3627 196.793 88.5307 196.91 88.728C197.033 88.9253 197.094 89.1733 197.094 89.472ZM199.773 86.64C200.295 86.64 200.682 86.7547 200.933 86.984C201.183 87.2133 201.309 87.5787 201.309 88.08V91H200.797L200.661 90.392H200.629C200.442 90.6267 200.245 90.8 200.037 90.912C199.829 91.024 199.546 91.08 199.189 91.08C198.799 91.08 198.477 90.9787 198.221 90.776C197.965 90.568 197.837 90.2453 197.837 89.808C197.837 89.3813 198.005 89.0533 198.341 88.824C198.677 88.5893 199.194 88.4613 199.893 88.44L200.621 88.416V88.16C200.621 87.8027 200.543 87.5547 200.389 87.416C200.234 87.2773 200.015 87.208 199.733 87.208C199.509 87.208 199.295 87.2427 199.093 87.312C198.89 87.376 198.701 87.4507 198.525 87.536L198.309 87.008C198.495 86.9067 198.717 86.8213 198.973 86.752C199.229 86.6773 199.495 86.64 199.773 86.64ZM200.613 88.904L199.981 88.928C199.447 88.9493 199.077 89.0347 198.869 89.184C198.666 89.3333 198.565 89.544 198.565 89.816C198.565 90.056 198.637 90.232 198.781 90.344C198.93 90.456 199.119 90.512 199.349 90.512C199.706 90.512 200.005 90.4133 200.245 90.216C200.49 90.0133 200.613 89.704 200.613 89.288V88.904ZM206.137 90.992L205.401 88.576C205.332 88.3573 205.27 88.144 205.217 87.936C205.164 87.728 205.126 87.5627 205.105 87.44H205.073C205.052 87.5627 205.017 87.728 204.969 87.936C204.921 88.144 204.86 88.36 204.785 88.584L204.017 90.992H203.217L202.041 86.704H202.769L203.361 88.992C203.42 89.2213 203.476 89.4533 203.529 89.688C203.582 89.9227 203.62 90.1173 203.641 90.272H203.673C203.689 90.1813 203.713 90.0693 203.745 89.936C203.777 89.8027 203.812 89.664 203.849 89.52C203.886 89.3707 203.924 89.2373 203.961 89.12L204.721 86.704H205.489L206.225 89.12C206.278 89.3067 206.334 89.5067 206.393 89.72C206.452 89.9333 206.492 90.1147 206.513 90.264H206.545C206.561 90.1307 206.596 89.9467 206.649 89.712C206.708 89.4773 206.769 89.2373 206.833 88.992L207.433 86.704H208.153L206.961 90.992H206.137ZM213.626 86.632C214.112 86.632 214.474 86.7573 214.714 87.008C214.954 87.2587 215.074 87.6587 215.074 88.208V91H214.378V88.24C214.378 87.5627 214.088 87.224 213.506 87.224C213.09 87.224 212.792 87.344 212.61 87.584C212.434 87.824 212.346 88.1733 212.346 88.632V91H211.65V88.24C211.65 87.5627 211.357 87.224 210.77 87.224C210.338 87.224 210.04 87.3573 209.874 87.624C209.709 87.8907 209.626 88.2747 209.626 88.776V91H208.922V86.712H209.49L209.594 87.296H209.634C209.768 87.072 209.946 86.9067 210.17 86.8C210.4 86.688 210.642 86.632 210.898 86.632C211.57 86.632 212.008 86.872 212.21 87.352H212.25C212.394 87.1067 212.589 86.9253 212.834 86.808C213.08 86.6907 213.344 86.632 213.626 86.632ZM218.023 86.64C218.545 86.64 218.932 86.7547 219.183 86.984C219.433 87.2133 219.559 87.5787 219.559 88.08V91H219.047L218.911 90.392H218.879C218.692 90.6267 218.495 90.8 218.287 90.912C218.079 91.024 217.796 91.08 217.439 91.08C217.049 91.08 216.727 90.9787 216.471 90.776C216.215 90.568 216.087 90.2453 216.087 89.808C216.087 89.3813 216.255 89.0533 216.591 88.824C216.927 88.5893 217.444 88.4613 218.143 88.44L218.871 88.416V88.16C218.871 87.8027 218.793 87.5547 218.639 87.416C218.484 87.2773 218.265 87.208 217.983 87.208C217.759 87.208 217.545 87.2427 217.343 87.312C217.14 87.376 216.951 87.4507 216.775 87.536L216.559 87.008C216.745 86.9067 216.967 86.8213 217.223 86.752C217.479 86.6773 217.745 86.64 218.023 86.64ZM218.863 88.904L218.231 88.928C217.697 88.9493 217.327 89.0347 217.119 89.184C216.916 89.3333 216.815 89.544 216.815 89.816C216.815 90.056 216.887 90.232 217.031 90.344C217.18 90.456 217.369 90.512 217.599 90.512C217.956 90.512 218.255 90.4133 218.495 90.216C218.74 90.0133 218.863 89.704 218.863 89.288V88.904ZM221.587 84.92V86.704C221.587 86.9173 221.574 87.1173 221.547 87.304H221.595C221.734 87.0853 221.92 86.92 222.155 86.808C222.395 86.696 222.654 86.64 222.931 86.64C223.448 86.64 223.838 86.7653 224.099 87.016C224.366 87.2613 224.499 87.6587 224.499 88.208V91H223.803V88.256C223.803 87.568 223.483 87.224 222.843 87.224C222.363 87.224 222.032 87.36 221.851 87.632C221.675 87.8987 221.587 88.2827 221.587 88.784V91H220.883V84.92H221.587ZM230.451 85.84C229.837 85.84 229.355 86.0453 229.003 86.456C228.651 86.8667 228.475 87.4293 228.475 88.144C228.475 88.8533 228.637 89.416 228.963 89.832C229.293 90.2427 229.787 90.448 230.443 90.448C230.688 90.448 230.923 90.4267 231.147 90.384C231.371 90.3413 231.592 90.288 231.811 90.224V90.848C231.597 90.928 231.376 90.9867 231.147 91.024C230.923 91.0613 230.653 91.08 230.339 91.08C229.757 91.08 229.272 90.96 228.883 90.72C228.493 90.48 228.2 90.1387 228.003 89.696C227.811 89.2533 227.715 88.7333 227.715 88.136C227.715 87.56 227.819 87.0533 228.027 86.616C228.24 86.1733 228.552 85.8293 228.963 85.584C229.373 85.3333 229.872 85.208 230.459 85.208C231.061 85.208 231.587 85.32 232.035 85.544L231.747 86.152C231.571 86.072 231.373 86 231.155 85.936C230.941 85.872 230.707 85.84 230.451 85.84ZM236.689 88.848C236.689 89.5573 236.508 90.1067 236.145 90.496C235.788 90.8853 235.303 91.08 234.689 91.08C234.311 91.08 233.972 90.9947 233.673 90.824C233.38 90.648 233.148 90.3947 232.977 90.064C232.807 89.728 232.721 89.3227 232.721 88.848C232.721 88.1387 232.897 87.592 233.249 87.208C233.607 86.824 234.095 86.632 234.713 86.632C235.097 86.632 235.439 86.72 235.737 86.896C236.036 87.0667 236.268 87.3173 236.433 87.648C236.604 87.9733 236.689 88.3733 236.689 88.848ZM233.449 88.848C233.449 89.3547 233.548 89.7573 233.745 90.056C233.948 90.3493 234.268 90.496 234.705 90.496C235.137 90.496 235.455 90.3493 235.657 90.056C235.86 89.7573 235.961 89.3547 235.961 88.848C235.961 88.3413 235.86 87.944 235.657 87.656C235.455 87.368 235.135 87.224 234.697 87.224C234.26 87.224 233.943 87.368 233.745 87.656C233.548 87.944 233.449 88.3413 233.449 88.848ZM239.525 91.08C239.141 91.08 238.802 91.0027 238.509 90.848C238.216 90.6933 237.984 90.4533 237.813 90.128C237.648 89.8027 237.565 89.3867 237.565 88.88C237.565 88.352 237.65 87.9227 237.821 87.592C237.997 87.2613 238.237 87.0187 238.541 86.864C238.845 86.7093 239.189 86.632 239.573 86.632C239.786 86.632 239.994 86.656 240.197 86.704C240.405 86.7467 240.573 86.8 240.701 86.864L240.485 87.448C240.357 87.4 240.208 87.3547 240.037 87.312C239.866 87.2693 239.706 87.248 239.557 87.248C238.714 87.248 238.293 87.7893 238.293 88.872C238.293 89.3893 238.394 89.7867 238.597 90.064C238.805 90.336 239.112 90.472 239.517 90.472C239.746 90.472 239.952 90.448 240.133 90.4C240.314 90.352 240.48 90.2933 240.629 90.224V90.848C240.485 90.9227 240.325 90.9787 240.149 91.016C239.978 91.0587 239.77 91.08 239.525 91.08ZM242.345 84.92V88.096C242.345 88.1813 242.339 88.2933 242.329 88.432C242.323 88.5707 242.318 88.6907 242.313 88.792H242.345C242.377 88.7493 242.425 88.688 242.489 88.608C242.553 88.528 242.617 88.448 242.681 88.368C242.75 88.2827 242.809 88.2133 242.857 88.16L244.225 86.712H245.049L243.313 88.544L245.169 91H244.321L242.833 89L242.345 89.424V91H241.649V84.92H242.345ZM247.354 90.504C247.461 90.504 247.57 90.496 247.682 90.48C247.794 90.464 247.885 90.4427 247.954 90.416V90.952C247.88 90.9893 247.773 91.0187 247.634 91.04C247.496 91.0667 247.362 91.08 247.234 91.08C247.01 91.08 246.802 91.0427 246.61 90.968C246.424 90.888 246.272 90.752 246.154 90.56C246.037 90.368 245.978 90.0987 245.978 89.752V87.256H245.37V86.92L245.986 86.64L246.266 85.728H246.682V86.712H247.922V87.256H246.682V89.736C246.682 89.9973 246.744 90.192 246.866 90.32C246.994 90.4427 247.157 90.504 247.354 90.504ZM250.437 86.64C250.959 86.64 251.346 86.7547 251.597 86.984C251.847 87.2133 251.973 87.5787 251.973 88.08V91H251.461L251.325 90.392H251.293C251.106 90.6267 250.909 90.8 250.701 90.912C250.493 91.024 250.21 91.08 249.853 91.08C249.463 91.08 249.141 90.9787 248.885 90.776C248.629 90.568 248.501 90.2453 248.501 89.808C248.501 89.3813 248.669 89.0533 249.005 88.824C249.341 88.5893 249.858 88.4613 250.557 88.44L251.285 88.416V88.16C251.285 87.8027 251.207 87.5547 251.053 87.416C250.898 87.2773 250.679 87.208 250.397 87.208C250.173 87.208 249.959 87.2427 249.757 87.312C249.554 87.376 249.365 87.4507 249.189 87.536L248.973 87.008C249.159 86.9067 249.381 86.8213 249.637 86.752C249.893 86.6773 250.159 86.64 250.437 86.64ZM251.277 88.904L250.645 88.928C250.111 88.9493 249.741 89.0347 249.533 89.184C249.33 89.3333 249.229 89.544 249.229 89.816C249.229 90.056 249.301 90.232 249.445 90.344C249.594 90.456 249.783 90.512 250.013 90.512C250.37 90.512 250.669 90.4133 250.909 90.216C251.154 90.0133 251.277 89.704 251.277 89.288V88.904ZM253.657 85.104C253.764 85.104 253.857 85.1413 253.937 85.216C254.023 85.2853 254.065 85.3973 254.065 85.552C254.065 85.7067 254.023 85.8213 253.937 85.896C253.857 85.9653 253.764 86 253.657 86C253.54 86 253.441 85.9653 253.361 85.896C253.281 85.8213 253.241 85.7067 253.241 85.552C253.241 85.3973 253.281 85.2853 253.361 85.216C253.441 85.1413 253.54 85.104 253.657 85.104ZM254.001 86.712V91H253.297V86.712H254.001ZM256.064 91H255.36V84.92H256.064V91ZM260.214 89.816C260.214 90.232 260.06 90.5467 259.75 90.76C259.441 90.9733 259.025 91.08 258.502 91.08C258.204 91.08 257.945 91.056 257.726 91.008C257.513 90.96 257.324 90.8933 257.158 90.808V90.168C257.329 90.2533 257.534 90.3333 257.774 90.408C258.02 90.4773 258.268 90.512 258.518 90.512C258.876 90.512 259.134 90.456 259.294 90.344C259.454 90.2267 259.534 90.072 259.534 89.88C259.534 89.7733 259.505 89.6773 259.446 89.592C259.388 89.5067 259.281 89.4213 259.126 89.336C258.977 89.2507 258.761 89.1547 258.478 89.048C258.201 88.9413 257.964 88.8347 257.766 88.728C257.569 88.6213 257.417 88.4933 257.31 88.344C257.204 88.1947 257.15 88.0027 257.15 87.768C257.15 87.4053 257.297 87.1253 257.59 86.928C257.889 86.7307 258.278 86.632 258.758 86.632C259.02 86.632 259.262 86.6587 259.486 86.712C259.716 86.7653 259.929 86.8347 260.126 86.92L259.886 87.48C259.705 87.4053 259.516 87.3413 259.318 87.288C259.121 87.2347 258.918 87.208 258.71 87.208C258.422 87.208 258.201 87.256 258.046 87.352C257.897 87.4427 257.822 87.568 257.822 87.728C257.822 87.8507 257.857 87.952 257.926 88.032C257.996 88.112 258.11 88.192 258.27 88.272C258.436 88.352 258.654 88.4427 258.926 88.544C259.198 88.6453 259.43 88.7493 259.622 88.856C259.814 88.9627 259.961 89.0933 260.062 89.248C260.164 89.3973 260.214 89.5867 260.214 89.816Z" fill="#262626"/>
</svg>
