<svg width="33" height="32" viewBox="0 0 33 32" fill="none" xmlns="http://www.w3.org/2000/svg">
<path d="M29.1219 15.1008V2.5933C29.1219 2.45484 29.0948 2.31774 29.0424 2.18986C28.9899 2.06198 28.9129 1.94584 28.816 1.84808C28.719 1.75032 28.6039 1.67288 28.4773 1.62019C28.3507 1.5675 28.2151 1.54059 28.0782 1.54102H12.1287C11.9918 1.54059 11.8561 1.5675 11.7295 1.62019C11.6029 1.67288 11.4879 1.75032 11.3909 1.84808C11.2939 1.94584 11.217 2.06198 11.1645 2.18986C11.112 2.31774 11.085 2.45484 11.085 2.5933V15.1008H29.1219ZM27.0922 4.20894V12.4329C27.0922 12.6192 27.019 12.7979 26.8887 12.9297C26.7584 13.0615 26.5817 13.1355 26.3974 13.1355H13.8094C13.6252 13.1355 13.4485 13.0615 13.3182 12.9297C13.1879 12.7979 13.1147 12.6192 13.1147 12.4329V4.20894C13.1147 4.0226 13.1879 3.8439 13.3182 3.71213C13.4485 3.58037 13.6252 3.50635 13.8094 3.50635H26.3974C26.5817 3.50635 26.7584 3.58037 26.8887 3.71213C27.019 3.8439 27.0922 4.0226 27.0922 4.20894Z" fill="#262626"/>
<path d="M14.4722 10.3738L15.2789 11.7726C15.3243 11.8495 15.3978 11.9052 15.4835 11.9276C15.5692 11.9501 15.6602 11.9374 15.7367 11.8924L19.7641 9.48022C19.8672 9.41965 19.9843 9.38775 20.1035 9.38775C20.2227 9.38775 20.3398 9.41965 20.4428 9.48022L24.4702 11.8924C24.5074 11.9164 24.5491 11.9324 24.5926 11.9394C24.6362 11.9464 24.6807 11.9441 24.7234 11.9329C24.7661 11.9216 24.806 11.9016 24.8407 11.874C24.8753 11.8464 24.904 11.8119 24.9248 11.7726L25.7348 10.3738L21.4609 7.80953C21.3628 7.74889 21.2818 7.66371 21.2257 7.56219C21.1696 7.46068 21.1404 7.34626 21.1407 7.22998V5.04448C21.1407 4.95861 21.107 4.87624 21.047 4.81552C20.9869 4.7548 20.9055 4.7207 20.8206 4.7207H19.0918V7.24292C19.0922 7.35921 19.0629 7.47362 19.0069 7.57514C18.9508 7.67665 18.8698 7.76183 18.7717 7.82248L14.4722 10.3738Z" fill="#262626"/>
<path d="M28.7634 18.1504H11.0402C10.7634 18.1504 10.498 18.2616 10.3023 18.4595C10.1065 18.6575 9.99659 18.926 9.99659 19.2059V28.2458C9.99659 28.4321 9.92339 28.6108 9.79311 28.7426C9.66282 28.8743 9.48612 28.9484 9.30187 28.9484H6.37897V31.1209H32.8548V28.9451H30.4985C30.3143 28.9451 30.1376 28.8711 30.0073 28.7393C29.877 28.6076 29.8038 28.4289 29.8038 28.2425V19.2059C29.8042 19.0674 29.7776 18.9303 29.7255 18.8022C29.6734 18.6742 29.5969 18.5578 29.5002 18.4597C29.4035 18.3617 29.2887 18.2839 29.1623 18.2308C29.0358 18.1777 28.9003 18.1504 28.7634 18.1504V18.1504ZM27.6525 20.8183V28.2458C27.6525 28.4321 27.5793 28.6108 27.449 28.7426C27.3187 28.8743 27.142 28.9484 26.9577 28.9484H24.1629C24.1168 28.9488 24.0711 28.94 24.0284 28.9224C23.9857 28.9049 23.9468 28.879 23.9141 28.8462C23.8813 28.8133 23.8553 28.7743 23.8376 28.7313C23.8199 28.6882 23.8107 28.6421 23.8107 28.5955V20.4686C23.8103 20.4217 23.8191 20.3752 23.8367 20.3318C23.8542 20.2884 23.8802 20.249 23.9129 20.2158C23.9457 20.1827 23.9847 20.1565 24.0276 20.1387C24.0705 20.121 24.1165 20.112 24.1629 20.1125H26.9577C27.0492 20.1125 27.1399 20.1308 27.2243 20.1663C27.3088 20.2018 27.3856 20.2538 27.4501 20.3194C27.5147 20.385 27.5658 20.4628 27.6005 20.5484C27.6352 20.6341 27.6529 20.7258 27.6525 20.8183V20.8183ZM21.8707 20.4686V28.5955C21.8711 28.6417 21.8625 28.6875 21.8453 28.7303C21.8281 28.7731 21.8027 28.812 21.7705 28.8448C21.7384 28.8776 21.7001 28.9037 21.658 28.9215C21.6158 28.9392 21.5706 28.9484 21.5249 28.9484H18.2787C18.1861 28.9484 18.0974 28.9112 18.0319 28.845C17.9665 28.7788 17.9297 28.6891 17.9297 28.5955V20.4686C17.9297 20.375 17.9665 20.2853 18.0319 20.2191C18.0974 20.1529 18.1861 20.1157 18.2787 20.1157H21.5249C21.5706 20.1157 21.6158 20.1249 21.658 20.1426C21.7001 20.1604 21.7384 20.1865 21.7705 20.2193C21.8027 20.2521 21.8281 20.291 21.8453 20.3338C21.8625 20.3766 21.8711 20.4224 21.8707 20.4686V20.4686ZM12.8427 20.1125H15.6407C15.7327 20.1133 15.8206 20.1509 15.8854 20.217C15.9501 20.2831 15.9865 20.3724 15.9865 20.4654V28.5922C15.9865 28.6853 15.9501 28.7745 15.8854 28.8406C15.8206 28.9067 15.7327 28.9443 15.6407 28.9451H12.8427C12.7514 28.9451 12.6611 28.927 12.5768 28.8916C12.4925 28.8563 12.4159 28.8046 12.3514 28.7393C12.2869 28.6741 12.2357 28.5967 12.2008 28.5114C12.1659 28.4262 12.1479 28.3348 12.1479 28.2425V20.8151C12.1479 20.7228 12.1659 20.6315 12.2008 20.5462C12.2357 20.461 12.2869 20.3835 12.3514 20.3183C12.4159 20.253 12.4925 20.2013 12.5768 20.166C12.6611 20.1306 12.7514 20.1125 12.8427 20.1125V20.1125Z" fill="#262626"/>
<path d="M2.01221 23.6431C1.46002 24.6615 1.00137 25.7291 0.641999 26.8323C0.194202 28.3686 -0.0216592 29.9644 0.00171343 31.5659H2.4316C2.4316 28.1824 3.27677 26.5247 4.17317 24.7666C4.72555 23.7486 5.18319 22.681 5.54018 21.5774C5.98957 20.0414 6.20546 18.4453 6.18046 16.8438H3.75058C3.75058 20.2272 2.90541 21.885 2.01221 23.6431Z" fill="#262626"/>
<path d="M7.65634 4.20911L1.40395 0L0.120178 1.98152L6.95202 6.55974L7.85162 5.18368C7.90256 5.10688 7.93793 5.02062 7.95569 4.9299C7.97345 4.83918 7.97325 4.74581 7.95509 4.65517C7.93693 4.56454 7.90116 4.47845 7.84988 4.40188C7.7986 4.32532 7.73283 4.25979 7.65634 4.20911Z" fill="#262626"/>
<path d="M1.37511 7.53125L0.0945435 9.49658L6.45578 13.7251L7.34897 12.3491C7.44968 12.1935 7.48535 12.004 7.44814 11.8219C7.41094 11.6399 7.3039 11.4801 7.15048 11.3777L1.37511 7.53125Z" fill="#262626"/>
</svg>
