<svg width="34" height="33" viewBox="0 0 34 33" fill="none" xmlns="http://www.w3.org/2000/svg">
<path d="M10.7408 0.564453H8.41655V3.96736C8.41655 4.06096 8.37979 4.15073 8.31435 4.21691C8.24891 4.2831 8.16015 4.32029 8.0676 4.32029H0.899597V6.41512H8.0676C8.1596 6.41511 8.24788 6.45186 8.31323 6.51734C8.37858 6.58283 8.41571 6.67176 8.41655 6.7648V9.26436C8.41655 9.4507 8.48975 9.62941 8.62003 9.76117C8.75032 9.89293 8.92702 9.96695 9.11127 9.96695H10.7408V6.7648C10.7416 6.67176 10.7788 6.58283 10.8441 6.51734C10.9095 6.45186 10.9978 6.41511 11.0897 6.41512H14.893C15.0773 6.41512 15.254 6.3411 15.3843 6.20934C15.5146 6.07757 15.5878 5.89887 15.5878 5.71252V4.32675H11.1058C11.0132 4.32675 10.9244 4.28958 10.859 4.22339C10.7936 4.15721 10.7568 4.06744 10.7568 3.97384L10.7408 0.564453Z" fill="#262626"/>
<path d="M30.1062 30.5078H21.504C21.3197 30.5078 21.143 30.4337 21.0128 30.302C20.8825 30.1702 20.8093 29.9915 20.8093 29.8052V23.1192C20.8091 22.8676 20.876 22.6206 21.0027 22.4041C21.1294 22.1877 21.3114 22.0096 21.5296 21.8888L31.1883 16.5335C31.2684 16.4895 31.339 16.4299 31.3962 16.3582C31.4535 16.2864 31.4961 16.2039 31.5217 16.1155C31.5472 16.027 31.5553 15.9343 31.5453 15.8427C31.5354 15.7511 31.5076 15.6623 31.4636 15.5816L30.6761 14.1279L21.8369 19.0428C21.7312 19.1012 21.6124 19.1308 21.492 19.1286C21.3715 19.1265 21.2538 19.0928 21.1501 19.0308C21.0465 18.9687 20.9606 18.8805 20.9008 18.7748C20.8411 18.6691 20.8095 18.5494 20.8093 18.4276V11.1523H18.3794V30.6535C18.3794 31.2116 18.5986 31.7469 18.9889 32.1416C19.3791 32.5363 19.9084 32.758 20.4603 32.758H31.025C31.5769 32.758 32.1062 32.5363 32.4965 32.1416C32.8867 31.7469 33.106 31.2116 33.106 30.6535V25.7968H31.4764C31.2922 25.7968 31.1155 25.8708 30.9852 26.0026C30.8549 26.1344 30.7817 26.3131 30.7817 26.4994V29.8084C30.781 29.9909 30.71 30.1659 30.584 30.2964C30.4579 30.4269 30.2866 30.5027 30.1062 30.5078Z" fill="#262626"/>
<path d="M22.663 9.978H24.2925C24.4767 9.978 24.6534 9.90398 24.7837 9.77222C24.914 9.64046 24.9872 9.46175 24.9872 9.27541V6.77584C24.9863 6.72895 24.9947 6.68235 25.0119 6.63879C25.0291 6.59522 25.0546 6.55555 25.0871 6.52209C25.1196 6.48863 25.1584 6.46205 25.2011 6.44392C25.2439 6.42578 25.2898 6.41644 25.3361 6.41645H32.1488C32.333 6.41645 32.5097 6.34243 32.64 6.21067C32.7703 6.0789 32.8435 5.9002 32.8435 5.71385V4.32808H25.3361C25.2436 4.32808 25.1548 4.29091 25.0894 4.22472C25.0239 4.15854 24.9872 4.06877 24.9872 3.97517V0.572266H22.663V3.97517C22.663 4.02152 22.6539 4.06741 22.6364 4.11022C22.6189 4.15304 22.5931 4.19195 22.5607 4.22472C22.5283 4.25749 22.4899 4.28349 22.4475 4.30122C22.4052 4.31896 22.3598 4.32808 22.314 4.32808H17.9056V6.41645H22.314C22.406 6.41644 22.4943 6.45319 22.5596 6.51867C22.625 6.58416 22.6621 6.67309 22.663 6.76613V9.978Z" fill="#262626"/>
<path d="M6.69098 16.3581C4.59085 17.5463 2.42028 18.7734 0 22.4677L1.9977 23.8049C3.75208 21.1273 5.32078 19.9649 6.91829 19.0163C6.97081 18.9848 7.03061 18.968 7.09163 18.9675C7.15265 18.967 7.21271 18.9829 7.26571 19.0135C7.31871 19.0441 7.36276 19.0883 7.39339 19.1417C7.42403 19.195 7.44016 19.2557 7.44012 19.3174V32.9646H9.17529C9.35869 32.9646 9.53458 32.8909 9.66426 32.7598C9.79394 32.6286 9.8668 32.4507 9.8668 32.2653V17.828C9.86786 17.659 9.90879 17.4927 9.98619 17.3429C10.0636 17.1931 10.1752 17.0641 10.3118 16.9668C11.999 15.7211 13.4373 14.1632 14.5505 12.3756L12.5528 11.0352C10.4527 14.2308 8.62464 15.2637 6.69098 16.3581Z" fill="#262626"/>
</svg>
