<svg width="32" height="33" viewBox="0 0 32 33" fill="none" xmlns="http://www.w3.org/2000/svg">
<path d="M8.93517 7.5733H10.3918V5.60473C10.3918 5.51169 10.4281 5.42242 10.4929 5.35632C10.5576 5.29023 10.6456 5.25266 10.7376 5.2518H14.7298C14.914 5.2518 15.0907 5.17779 15.221 5.04602C15.3513 4.91426 15.4245 4.73555 15.4245 4.54921V3.28647H10.7376C10.6461 3.28563 10.5587 3.24853 10.494 3.18314C10.4293 3.11774 10.3927 3.02929 10.3918 2.93681V0.994141H8.24047V2.93681C8.23962 3.02984 8.20249 3.11878 8.13714 3.18426C8.07179 3.24975 7.9835 3.28648 7.8915 3.28647H1.25494V5.2518H7.8915C7.98405 5.2518 8.07281 5.28899 8.13825 5.35518C8.20369 5.42136 8.24047 5.51113 8.24047 5.60473V6.87069C8.24047 7.05703 8.31365 7.23574 8.44394 7.3675C8.57422 7.49927 8.75092 7.5733 8.93517 7.5733Z" fill="#262626"/>
<path d="M19.4615 7.91602V9.41833C19.4615 9.51193 19.4247 9.6017 19.3593 9.66788C19.2938 9.73407 19.2051 9.77125 19.1125 9.77125H10.8721V11.7366H19.1125C19.1582 11.7362 19.2035 11.7449 19.2458 11.7623C19.2881 11.7796 19.3266 11.8053 19.3591 11.8378C19.3915 11.8704 19.4173 11.9091 19.4349 11.9517C19.4524 11.9943 19.4615 12.0401 19.4615 12.0863V13.3263C19.4615 13.3725 19.4524 13.4183 19.4349 13.4609C19.4173 13.5035 19.3915 13.5422 19.3591 13.5748C19.3266 13.6073 19.2881 13.6329 19.2458 13.6503C19.2035 13.6677 19.1582 13.6764 19.1125 13.676H12.6649C12.3889 13.676 12.1243 13.7869 11.9291 13.9842C11.734 14.1816 11.6244 14.4492 11.6244 14.7283V22.5313H19.1125C19.1582 22.5309 19.2035 22.5396 19.2458 22.557C19.2881 22.5744 19.3266 22.6001 19.3591 22.6326C19.3915 22.6651 19.4173 22.7038 19.4349 22.7464C19.4524 22.7891 19.4615 22.8348 19.4615 22.881V24.4222C19.4615 24.5158 19.4247 24.6056 19.3593 24.6717C19.2938 24.7379 19.2051 24.7751 19.1125 24.7751H10.2798V26.7404H19.1125C19.2045 26.7404 19.2928 26.7772 19.3581 26.8427C19.4235 26.9081 19.4606 26.9971 19.4615 27.0901V28.8191C19.4615 29.0054 19.5347 29.1841 19.665 29.3159C19.7952 29.4477 19.972 29.5217 20.1562 29.5217H21.6128V27.0901C21.6137 26.9976 21.6504 26.9092 21.715 26.8438C21.7797 26.7784 21.8671 26.7413 21.9586 26.7404H30.0998C30.2841 26.7404 30.4608 26.6664 30.5911 26.5346C30.7214 26.4029 30.7945 26.2242 30.7945 26.0378V24.7751H21.9586C21.8666 24.7743 21.7787 24.7367 21.7139 24.6706C21.6492 24.6045 21.6128 24.5152 21.6128 24.4222V22.881C21.6128 22.7883 21.6493 22.6993 21.7141 22.6337C21.7789 22.5682 21.8669 22.5313 21.9586 22.5313H29.4499V14.7283C29.4499 14.4492 29.3403 14.1816 29.1452 13.9842C28.9501 13.7869 28.6854 13.676 28.4095 13.676H21.9586C21.9132 13.676 21.8682 13.667 21.8263 13.6494C21.7843 13.6318 21.7462 13.6061 21.7141 13.5736C21.682 13.5411 21.6565 13.5026 21.6392 13.4602C21.6218 13.4177 21.6128 13.3722 21.6128 13.3263V12.0863C21.6128 11.9935 21.6493 11.9046 21.7141 11.839C21.7789 11.7734 21.8669 11.7366 21.9586 11.7366H29.5108C29.695 11.7366 29.8717 11.6626 30.002 11.5308C30.1323 11.399 30.2055 11.2203 30.2055 11.034V9.77125H21.9586C21.8666 9.7704 21.7787 9.73285 21.7139 9.66675C21.6492 9.60066 21.6128 9.51137 21.6128 9.41833V8.61537C21.612 8.42959 21.5384 8.25171 21.4082 8.12065C21.2781 7.98959 21.1018 7.91601 20.9181 7.91602H19.4615ZM19.4615 15.7838V16.8749C19.4615 16.9211 19.4524 16.9669 19.4349 17.0095C19.4173 17.0521 19.3915 17.0908 19.3591 17.1233C19.3266 17.1559 19.2881 17.1815 19.2458 17.1989C19.2035 17.2163 19.1582 17.225 19.1125 17.2246H14.2464C14.2007 17.225 14.1554 17.2163 14.1131 17.1989C14.0707 17.1815 14.0322 17.1559 13.9998 17.1233C13.9674 17.0908 13.9416 17.0521 13.924 17.0095C13.9065 16.9669 13.8974 16.9211 13.8974 16.8749V15.7838C13.8974 15.6902 13.9342 15.6004 13.9996 15.5343C14.065 15.4681 14.1538 15.4309 14.2464 15.4309H19.1125C19.2051 15.4309 19.2938 15.4681 19.3593 15.5343C19.4247 15.6004 19.4615 15.6902 19.4615 15.7838ZM13.8974 20.4235V19.3324C13.8974 19.2388 13.9342 19.149 13.9996 19.0829C14.065 19.0167 14.1538 18.9795 14.2464 18.9795H19.1125C19.2051 18.9795 19.2938 19.0167 19.3593 19.0829C19.4247 19.149 19.4615 19.2388 19.4615 19.3324V20.4235C19.4615 20.5171 19.4247 20.6069 19.3593 20.6731C19.2938 20.7393 19.2051 20.7764 19.1125 20.7764H14.2464C14.1538 20.7764 14.065 20.7393 13.9996 20.6731C13.9342 20.6069 13.8974 20.5171 13.8974 20.4235ZM21.6128 20.4235V19.3324C21.6128 19.2394 21.6492 19.1501 21.7139 19.084C21.7787 19.0179 21.8666 18.9803 21.9586 18.9795H26.828C26.8738 18.9795 26.9192 18.9886 26.9615 19.0063C27.0038 19.0241 27.0423 19.0501 27.0747 19.0829C27.1071 19.1156 27.1328 19.1545 27.1504 19.1973C27.1679 19.2402 27.1769 19.2861 27.1769 19.3324V20.4235C27.1769 20.4699 27.1679 20.5158 27.1504 20.5586C27.1328 20.6014 27.1071 20.6403 27.0747 20.6731C27.0423 20.7059 27.0038 20.7319 26.9615 20.7496C26.9192 20.7673 26.8738 20.7764 26.828 20.7764H21.9586C21.8666 20.7756 21.7787 20.738 21.7139 20.6719C21.6492 20.6059 21.6128 20.5166 21.6128 20.4235ZM27.1769 15.7838V16.8749C27.1769 16.9211 27.1679 16.9669 27.1503 17.0095C27.1327 17.0521 27.107 17.0908 27.0745 17.1233C27.0421 17.1559 27.0036 17.1815 26.9613 17.1989C26.9189 17.2163 26.8736 17.225 26.828 17.2246H21.9586C21.8669 17.2246 21.7789 17.1878 21.7141 17.1222C21.6493 17.0566 21.6128 16.9677 21.6128 16.8749V15.7838C21.6128 15.6908 21.6492 15.6015 21.7139 15.5354C21.7787 15.4693 21.8666 15.4317 21.9586 15.4309H26.828C26.9205 15.4309 27.0093 15.4681 27.0747 15.5343C27.1402 15.6004 27.1769 15.6902 27.1769 15.7838Z" fill="#262626"/>
<path d="M24.2636 2.93666V0.964844H22.1123V2.93666C22.1114 3.0297 22.0743 3.11863 22.0089 3.18412C21.9436 3.2496 21.8553 3.28633 21.7633 3.28632H17.2525V5.25166H21.7633C21.8558 5.25166 21.9446 5.28884 22.0101 5.35503C22.0755 5.42121 22.1123 5.51098 22.1123 5.60458V7.35299H23.5689C23.7532 7.35299 23.9299 7.27895 24.0601 7.14719C24.1904 7.01543 24.2636 6.83672 24.2636 6.65038V5.60458C24.2632 5.55839 24.2718 5.51257 24.289 5.46977C24.3062 5.42697 24.3316 5.38804 24.3638 5.35523C24.3959 5.32241 24.4341 5.29637 24.4763 5.27859C24.5185 5.26082 24.5637 5.25165 24.6094 5.25166H31.2491C31.4334 5.25166 31.6101 5.17764 31.7404 5.04588C31.8706 4.91411 31.9438 4.7354 31.9438 4.54906V3.28632H24.6094C24.5177 3.28632 24.4297 3.2495 24.3649 3.18392C24.3 3.11834 24.2636 3.0294 24.2636 2.93666Z" fill="#262626"/>
<path d="M6.5021 26.6146V20.6279C6.50251 20.0697 6.72117 19.5343 7.11038 19.1385L9.03124 17.1959V14.9813C7.70271 15.0187 6.39082 14.6752 5.24715 13.9905C3.8269 13.1618 2.2091 12.743 0.569844 12.7796V14.991C1.89976 14.9539 3.21288 15.2985 4.35714 15.985C4.96976 16.3236 5.61297 16.6022 6.278 16.8171L0.00320456 23.1599L1.5751 24.7496L3.67203 22.6224C3.70113 22.5929 3.73824 22.5728 3.77864 22.5647C3.81904 22.5566 3.86091 22.5607 3.89897 22.5767C3.93702 22.5926 3.96955 22.6196 3.99241 22.6543C4.01527 22.6889 4.02745 22.7297 4.0274 22.7713V26.5272C4.02678 26.9917 3.84502 27.4373 3.52157 27.7672L0 31.3288L1.57189 32.9153L4.64207 29.8005C4.77278 29.6695 4.9494 29.5959 5.13348 29.5959C5.31756 29.5959 5.4942 29.6695 5.62491 29.8005L7.48494 31.6817C7.87163 32.073 8.33079 32.3833 8.83617 32.595C9.34155 32.8067 9.88326 32.9155 10.4303 32.9153H31.5597V31.5004C31.5589 31.3143 31.4854 31.1361 31.3553 31.0045C31.2252 30.8729 31.049 30.7986 30.865 30.7978H10.6223C10.1619 30.7977 9.72016 30.6138 9.39298 30.2862L7.00152 27.8644C6.8405 27.6999 6.71343 27.5048 6.62769 27.2902C6.54195 27.0756 6.49926 26.846 6.5021 26.6146Z" fill="#262626"/>
<path d="M9.02161 12.2205V10.0156C7.69265 10.0531 6.38045 9.70844 5.23752 9.02159C3.81684 8.194 2.19937 7.77524 0.560242 7.81067V10.0156C1.88969 9.97895 3.2024 10.3224 4.34754 11.0064C5.76653 11.8356 7.38313 12.2555 9.02161 12.2205Z" fill="#262626"/>
</svg>
