<svg width="1720" height="338" viewBox="0 0 1720 338" fill="none" xmlns="http://www.w3.org/2000/svg">
<path d="M75.9309 2.99414V91.7635H59.0984V53.8573H17.8324V91.7635H1V2.99414H17.8324V38.6549H59.0984V2.99414H75.9309Z" fill="#262626"/>
<path d="M93.0129 58.3482V2.99414H109.845V58.4812C109.845 72.4361 117.463 79.0561 130.171 79.0561C142.878 79.0561 150.496 72.4029 150.496 58.4812V2.99414H167.328V58.3482C167.328 81.4179 152.991 93.643 130.171 93.643C107.866 93.643 93.0129 81.4179 93.0129 58.3482Z" fill="#262626"/>
<path d="M235.29 72.1867H196.386L189.533 91.7635H172.201L205.983 2.99414H225.693L260.106 91.7635H242.275L235.29 72.1867ZM230.183 57.8492L226.691 48.252C223.58 40.1518 219.339 28.2927 215.713 17.8306C212.104 28.3093 207.862 40.1518 204.868 48.252L201.542 57.8492H230.183Z" fill="#262626"/>
<path d="M329.565 76.6443V91.7302H270.452V2.99414H287.284V76.6443H329.565Z" fill="#262626"/>
<path d="M342.655 2.99414H359.487V91.7635H342.655V2.99414Z" fill="#262626"/>
<path d="M394.782 18.0801V39.0208H438.792V53.4914H394.782V76.6443H443.2V91.7302H378V2.99414H443.45V18.0801H394.782Z" fill="#262626"/>
<path d="M532.552 2.99414V91.7635H513.856L489.173 52.2439C483.551 43.3952 477.813 34.164 473.322 25.6314C473.821 41.3328 473.821 55.5705 473.821 68.6439V91.83H457.621V2.99414H476.316L501.132 42.5137C506.122 50.6139 512.359 60.8098 516.85 69.1263C516.468 53.4249 516.351 39.1871 516.351 26.1138V2.99414H532.552Z" fill="#262626"/>
<path d="M652.258 31.9186C652.258 49.0005 641.28 60.7266 620.839 60.7266H598.651V91.7635H581.818V2.99414H620.839C641.28 2.99414 652.258 14.7036 652.258 31.9186ZM635.309 31.9186C635.309 22.6874 629.937 17.4481 620.09 17.4481H598.651V46.2561H620.09C629.937 46.2561 635.309 41.1498 635.309 31.9186Z" stroke="#262626" stroke-miterlimit="10"/>
<path d="M683.312 18.0801V39.0208H727.322V53.4914H683.312V76.6443H731.697V91.7302H666.479V2.99414H731.946V18.0801H683.312Z" stroke="#262626" stroke-miterlimit="10"/>
<path d="M819.218 91.7635H801.887C800.204 88.4929 799.39 84.8442 799.525 81.1684L799.143 71.4382C798.644 60.0946 793.903 56.9843 784.938 56.9843H762.983V91.7635H746.15V2.99414H786.435C806.877 2.99414 817.721 13.0903 817.721 28.0598C817.721 38.2724 812.482 45.8902 802.885 49.25C812.732 52.3603 815.359 58.9802 815.725 68.1948L816.474 81.4179C816.462 85.0479 817.408 88.6169 819.218 91.7635V91.7635ZM785.437 43.7612C794.535 43.7612 800.407 39.0208 800.407 29.9227C800.407 21.1905 794.552 16.8327 784.822 16.8327H762.983V43.7612H785.437Z" stroke="#262626" stroke-miterlimit="10"/>
<path d="M849.773 18.0801V39.0208H891.538V53.4914H849.773V91.7469H832.94V2.99414H895.613V18.0801H849.773Z" stroke="#262626" stroke-miterlimit="10"/>
<path d="M904.012 47.3723C904.012 19.4458 921.726 1 948.405 1C975.084 1 992.665 19.4458 992.665 47.3723C992.665 75.2988 974.968 93.7613 948.405 93.7613C921.843 93.7613 904.012 75.3155 904.012 47.3723ZM975.217 47.3723C975.217 27.8121 964.622 15.77 948.405 15.77C932.188 15.77 921.593 27.7456 921.593 47.3723C921.593 66.999 932.188 78.9747 948.405 78.9747C964.622 78.9747 975.217 66.9658 975.217 47.3723V47.3723Z" stroke="#262626" stroke-miterlimit="10"/>
<path d="M1080.45 91.7635H1063.12C1061.43 88.4944 1060.61 84.8457 1060.74 81.1684L1060.38 71.4382C1059.88 60.0946 1055.14 56.9843 1046.16 56.9843H1024.22V91.7635H1007.39V2.99414H1047.65C1068.11 2.99414 1078.96 13.0903 1078.96 28.0598C1078.96 38.2724 1073.72 45.8902 1064.12 49.25C1073.97 52.3603 1076.58 58.9802 1076.96 68.1948L1077.71 81.4179C1077.69 85.049 1078.64 88.6199 1080.45 91.7635V91.7635ZM1046.66 43.7612C1055.77 43.7612 1061.63 39.0208 1061.63 29.9227C1061.63 21.1905 1055.77 16.8327 1046.04 16.8327H1024.22V43.7612H1046.66Z" stroke="#262626" stroke-miterlimit="10"/>
<path d="M1188.68 2.99516V91.7645H1172.6V64.7195C1172.6 51.247 1172.73 36.7764 1173.1 20.6925C1171.1 27.4288 1169.11 33.4166 1166.36 41.1509L1148.43 91.7645H1134.59L1116.5 41.1509C1113.87 33.533 1111.87 27.5619 1109.84 20.942C1110.23 36.9095 1110.34 51.3634 1110.34 64.7195V91.7645H1094.14V2.99516H1118.58L1133.91 46.1407C1136.54 54.1078 1139.27 62.7735 1141.51 70.1918C1143.76 62.4741 1146.64 53.2429 1149.38 45.2425L1164.22 2.97852L1188.68 2.99516Z" stroke="#262626" stroke-miterlimit="10"/>
<path d="M1207.15 2.99414H1223.98V91.7635H1207.15V2.99414Z" stroke="#262626" stroke-miterlimit="10"/>
<path d="M1317.37 2.99414V91.7635H1298.66L1273.98 52.2439C1268.37 43.3952 1262.63 34.164 1258.14 25.6314C1258.64 41.3328 1258.64 55.5705 1258.64 68.6439V91.83H1242.42V2.99414H1261.14L1285.95 42.5137C1290.94 50.6139 1297.16 60.8098 1301.65 69.1263C1301.29 53.4249 1301.15 39.1871 1301.15 26.1138V2.99414H1317.37Z" stroke="#262626" stroke-miterlimit="10"/>
<path d="M1418 43.894V91.7632H1405.77L1403.4 80.1202C1397.18 88.9689 1386.95 93.8257 1374.47 93.8257C1348.91 93.8257 1332.07 75.3799 1332.07 47.4368C1332.07 19.4936 1348.91 1.06445 1375.97 1.06445C1398.42 1.06445 1414.01 13.406 1417 32.6668H1399.67C1397.18 22.3212 1388.31 15.8344 1376.1 15.8344C1359.77 15.8344 1349.66 27.9431 1349.66 47.4368C1349.66 66.9304 1360.02 79.1223 1376.72 79.1223C1389.81 79.1223 1400.67 70.5065 1401.53 57.4996H1378.35V43.9106L1418 43.894Z" stroke="#262626" stroke-miterlimit="10"/>
<path d="M71.44 153.722C71.44 170.804 60.479 182.514 40.0206 182.514H17.8324V213.567H1V124.781H40.0206C60.479 124.781 71.44 136.524 71.44 153.722ZM54.4912 153.722C54.4912 144.491 49.1354 139.252 39.2721 139.252H17.8324V168.126H39.2721C49.1354 168.126 54.4912 162.937 54.4912 153.722Z" stroke="#262626" stroke-miterlimit="10"/>
<path d="M84.0475 180.152V124.781H100.88V180.268C100.88 194.24 108.481 200.843 121.205 200.843C133.929 200.843 141.531 194.19 141.531 180.268V124.781H158.363V180.152C158.363 203.222 144.025 215.43 121.205 215.43C98.9006 215.43 84.0475 203.222 84.0475 180.152Z" stroke="#262626" stroke-miterlimit="10"/>
<path d="M247.881 188.086C247.881 203.288 237.901 213.517 216.961 213.517H175.412V124.781H215.563C236.005 124.781 244.238 135.626 244.238 147.735C244.321 151.719 243.246 155.642 241.144 159.028C239.042 162.414 236.003 165.118 232.396 166.812C242.891 170.671 247.881 179.27 247.881 188.086ZM192.277 138.57V161.773H214.349C223.065 161.773 227.556 157.149 227.556 149.797C227.556 143.144 223.065 138.57 214.349 138.57H192.277ZM230.683 187.337C230.683 179.021 225.194 174.979 216.096 174.979H192.277V199.546H216.096C225.56 199.596 230.683 195.105 230.683 187.387V187.337Z" stroke="#262626" stroke-miterlimit="10"/>
<path d="M320.583 198.481V213.567H261.47V124.781H278.319V198.481H320.583Z" stroke="#262626" stroke-miterlimit="10"/>
<path d="M333.673 124.781H350.506V213.567H333.673V124.781Z" stroke="#262626" stroke-miterlimit="10"/>
<path d="M365.226 169.176C365.226 140.501 382.557 122.787 408.238 122.787C427.948 122.787 444.647 133.399 448.506 155.338H431.424C428.314 142.863 419.083 137.507 408.238 137.507C392.404 137.507 382.806 149.35 382.806 169.11C382.806 188.869 392.404 200.712 408.238 200.712C419.582 200.712 430.06 193.976 432.056 180.021H448.889C446.394 203.456 428.563 215.432 408.238 215.432C382.923 215.565 365.226 197.851 365.226 169.176Z" stroke="#262626" stroke-miterlimit="10"/>
<path d="M489.772 184.262H506.405C506.654 198.234 516.002 201.976 528.344 201.976C539.987 201.976 546.307 197.485 546.307 189.135C546.307 182.15 541.683 179.023 528.011 176.278L520.543 174.781C503.328 171.555 491.984 163.937 491.984 147.853C491.984 133.149 503.627 122.787 524.901 122.787C549.85 122.787 560.428 134.513 561.06 151.229H544.727C544.095 141.749 539.238 136.376 525.15 136.376C514.422 136.376 509.183 140.618 509.183 147.354C509.183 154.456 513.308 157.699 526.514 160.444L534.248 161.941C555.206 166.066 563.672 174.166 563.672 188.254C563.672 205.835 549.966 215.565 527.761 215.565C504.126 215.565 489.905 204.72 489.772 184.262Z" fill="#262626"/>
<path d="M647.784 153.722C647.784 170.804 636.806 182.514 616.364 182.514H594.16V213.567H577.327V124.781H616.348C636.79 124.781 647.784 136.524 647.784 153.722ZM630.835 153.722C630.835 144.491 625.463 139.252 615.616 139.252H594.16V168.126H615.599C625.446 168.126 630.818 162.937 630.818 153.722H630.835Z" fill="#262626"/>
<path d="M705.633 193.99H666.729L659.859 213.567H642.528L676.326 124.781H696.019L730.432 213.567H712.652L705.633 193.99ZM700.51 179.653L697.017 170.056C693.907 161.939 689.665 150.096 686.056 139.618C682.43 150.096 678.189 161.939 675.195 170.056L671.868 179.653H700.51Z" fill="#262626"/>
<path d="M732.312 169.176C732.312 140.501 749.643 122.787 775.324 122.787C795.034 122.787 811.734 133.399 815.609 155.338H798.527C795.4 142.863 786.185 137.507 775.324 137.507C759.49 137.507 749.893 149.35 749.893 169.11C749.893 188.869 759.49 200.712 775.324 200.712C786.668 200.712 797.146 193.976 799.142 180.021H815.975C813.48 203.456 795.65 215.432 775.324 215.432C750.009 215.565 732.312 197.851 732.312 169.176Z" fill="#262626"/>
<path d="M847.145 139.851V160.808H891.172V175.262H847.145V198.465H895.613V213.551H830.312V124.781H895.779V139.851H847.145Z" fill="#262626"/>
<path d="M17.8324 261.672V282.613H59.5974V297.083H17.8324V335.339H1V246.586H63.7224V261.672H17.8324Z" fill="#262626"/>
<path d="M93.5117 261.672V282.613H137.539V297.083H93.5117V320.269H141.897V335.355H76.6793V246.586H142.146V261.672H93.5117Z" fill="#262626"/>
<path d="M151.993 306.061H168.626C168.875 320.016 178.239 323.758 190.581 323.758C202.224 323.758 208.528 319.267 208.528 310.918C208.528 303.932 203.92 300.822 190.331 298.077L182.847 296.58C165.632 293.254 154.288 285.736 154.288 269.652C154.288 254.932 165.931 244.586 187.204 244.586C212.154 244.586 222.749 256.229 223.364 273.011H207.014C206.399 263.531 201.542 258.175 187.437 258.175C176.726 258.175 171.486 262.416 171.486 269.153C171.486 276.255 175.595 279.498 188.818 282.243L196.552 283.74C217.493 287.848 225.976 295.965 225.976 310.053C225.976 327.634 212.254 337.347 190.065 337.347C166.33 337.347 152.126 326.503 151.993 306.061Z" fill="#262626"/>
<path d="M303.484 261.672H275.076V335.355H258.11V261.672H229.685V246.586H303.484V261.672Z" fill="#262626"/>
<path d="M315.843 246.586H332.675V335.355H315.843V246.586Z" fill="#262626"/>
<path d="M427.948 246.586L396.146 335.355H376.453L343.902 246.586H361.849L377.95 292.476C380.811 301.191 383.804 310.672 386.416 320.153C388.911 310.672 391.905 301.191 394.732 292.476L410.434 246.586H427.948Z" fill="#262626"/>
<path d="M482.187 315.778H443.283L436.414 335.355H419.083L452.88 246.586H472.59L507.004 335.355H489.173L482.187 315.778ZM477.065 301.441L473.572 291.844C470.461 283.744 466.22 271.884 462.611 261.422C458.985 271.901 454.743 283.744 451.766 291.844L448.439 301.441H477.065Z" fill="#262626"/>
<path d="M576.446 320.269V335.355H517.349V246.586H534.182V320.269H576.446Z" fill="#262626"/>
<path d="M1160.61 157.072H1155.97V166.018H1157.63V158.584H1160.61V157.072ZM1172.72 162.182H1168.91V161.328C1169.13 161.496 1169.44 161.846 1169.58 162.056C1170.07 161.79 1170.46 161.398 1170.77 160.936C1171.19 161.328 1171.61 161.748 1171.86 162.042L1172.62 161.328C1172.31 161.006 1171.71 160.488 1171.21 160.068C1171.32 159.788 1171.42 159.494 1171.47 159.2L1170.37 159.074C1170.24 159.956 1169.78 160.838 1168.91 161.3V158.976H1172.72V162.182ZM1174.3 157.744H1167.41V163.428H1174.3V157.744ZM1166.63 158.542C1166.1 158.08 1165.02 157.52 1164.21 157.184L1163.27 158.444C1164.11 158.808 1165.16 159.438 1165.66 159.914L1166.63 158.542ZM1165.87 162.224C1165.34 161.776 1164.28 161.244 1163.45 160.95L1162.55 162.196C1163.38 162.56 1164.42 163.148 1164.91 163.61L1165.87 162.224ZM1165.05 164.59C1164.33 166.228 1163.44 167.992 1162.79 169.07L1164.28 170.05C1164.99 168.692 1165.73 167.082 1166.35 165.584L1165.05 164.59ZM1168.42 165.542H1169.2V168.356H1168.42V165.542ZM1171.22 165.542V168.356H1170.44V165.542H1171.22ZM1173.26 165.542V168.356H1172.47V165.542H1173.26ZM1174.83 168.356V164.142H1166.94V168.356H1165.77V169.798H1175.69V168.356H1174.83ZM1177.63 170.288H1182.28V161.342H1180.61V168.776H1177.63V170.288ZM1202.52 159.494H1196.11V158.794H1202.52V159.494ZM1202.52 161.3H1196.11V160.586H1202.52V161.3ZM1204.22 157.618H1194.5V162.476H1204.22V157.618ZM1200.35 167.054H1204.67V165.612H1200.35V164.562H1205.55V163.092H1193.2V164.562H1198.66V168.118C1197.76 167.838 1197.08 167.32 1196.64 166.368C1196.76 165.962 1196.87 165.542 1196.97 165.094L1195.3 164.842C1194.98 166.718 1194.12 168.202 1192.7 169.084C1193.07 169.322 1193.72 169.938 1193.96 170.246C1194.77 169.686 1195.41 168.944 1195.92 168.02C1197.09 169.644 1198.83 169.994 1201.39 169.994H1205.38C1205.46 169.518 1205.72 168.79 1205.94 168.412C1204.95 168.454 1202.26 168.454 1201.47 168.454C1201.1 168.454 1200.72 168.44 1200.35 168.412V167.054ZM1215.04 163.442C1215.01 165.514 1214.97 166.256 1214.84 166.466C1214.75 166.592 1214.65 166.634 1214.49 166.634C1214.34 166.634 1214.07 166.634 1213.72 166.592C1213.89 165.598 1213.93 164.59 1213.93 163.722V163.442H1215.04ZM1219.34 161.972C1219.13 162.924 1218.86 163.82 1218.51 164.632C1218.36 163.442 1218.26 162.056 1218.19 160.586H1220.86V159.074H1220.09L1220.68 158.71C1220.43 158.248 1219.84 157.562 1219.32 157.072L1218.19 157.744C1218.57 158.136 1218.97 158.64 1219.25 159.074H1218.16C1218.15 158.43 1218.15 157.786 1218.16 157.128H1216.59C1216.59 157.772 1216.61 158.416 1216.62 159.074H1212.41V163.722C1212.41 164.576 1212.38 165.57 1212.18 166.508L1211.99 165.486L1210.91 165.864V162H1212V160.46H1210.91V157.324H1209.37V160.46H1208.15V162H1209.37V166.41C1208.82 166.592 1208.33 166.76 1207.91 166.872L1208.45 168.538C1209.51 168.104 1210.83 167.558 1212.06 167.054C1211.86 167.838 1211.5 168.608 1210.94 169.238C1211.29 169.448 1211.92 169.98 1212.14 170.26C1213.04 169.294 1213.49 167.978 1213.71 166.634C1213.91 166.984 1214.02 167.53 1214.06 167.95C1214.54 167.964 1214.98 167.95 1215.26 167.894C1215.6 167.838 1215.81 167.712 1216.03 167.404C1216.31 167.026 1216.37 165.78 1216.41 162.658C1216.43 162.476 1216.43 162.098 1216.43 162.098H1213.93V160.586H1216.68C1216.76 162.882 1216.96 165.066 1217.34 166.746C1216.62 167.712 1215.75 168.51 1214.72 169.126C1215.07 169.364 1215.66 169.952 1215.88 170.232C1216.61 169.742 1217.27 169.168 1217.84 168.496C1218.25 169.462 1218.78 170.05 1219.46 170.05C1220.54 170.05 1220.98 169.448 1221.19 167.292C1220.81 167.138 1220.33 166.774 1220.02 166.424C1219.98 167.852 1219.87 168.51 1219.66 168.51C1219.39 168.51 1219.14 167.978 1218.92 167.054C1219.77 165.71 1220.39 164.086 1220.84 162.252L1219.34 161.972ZM1236.01 160.53V158.906H1230.45V157.086H1228.68V158.906H1223.24V160.53H1228.69V162H1224.56V168.538H1226.24V163.624H1228.69V170.232H1230.43V163.624H1233.1V166.704C1233.1 166.858 1233.03 166.928 1232.81 166.928C1232.58 166.928 1231.76 166.928 1231.06 166.9C1231.29 167.348 1231.55 168.062 1231.62 168.538C1232.71 168.538 1233.51 168.51 1234.09 168.258C1234.67 168.006 1234.84 167.53 1234.84 166.732V162H1230.43V160.53H1236.01ZM1245.25 163.498C1245.03 164.016 1244.61 164.758 1244.27 165.248L1245 165.528H1243.87V163.428H1242.3V165.528H1240.86L1241.79 165.164C1241.65 164.688 1241.26 164.044 1240.86 163.54L1239.61 164.044C1239.93 164.478 1240.25 165.08 1240.41 165.528H1238.83V166.802H1241.36C1240.56 167.628 1239.43 168.384 1238.38 168.804C1238.7 169.098 1239.18 169.658 1239.4 170.036C1240.42 169.532 1241.47 168.706 1242.3 167.768V170.176H1243.87V168.09C1244.71 168.622 1245.55 169.224 1246.02 169.658L1247.11 168.664C1246.47 168.132 1245.25 167.362 1244.27 166.802H1247.11V165.528H1245.45C1245.81 165.094 1246.26 164.52 1246.71 163.946L1245.25 163.498ZM1240.21 161.902C1240.6 161.482 1241 161.006 1241.35 160.488V161.328H1249.54V160.124H1241.58C1241.7 159.956 1241.81 159.774 1241.91 159.592H1250.73V158.346H1242.55C1242.66 158.094 1242.77 157.842 1242.87 157.576L1241.11 157.142C1240.51 158.836 1239.37 160.46 1238.06 161.44C1238.49 161.678 1239.26 162.196 1239.61 162.504L1239.75 162.378V163.148H1247.3C1247.38 167.11 1247.77 170.19 1249.82 170.19C1250.85 170.19 1251.16 169.42 1251.29 167.628C1250.95 167.39 1250.53 166.956 1250.22 166.578C1250.19 167.768 1250.12 168.524 1249.93 168.524C1249.14 168.524 1248.95 165.444 1248.96 161.902H1240.21ZM1257.07 163.26H1262.72V163.974H1257.07V163.26ZM1257.07 161.356H1262.72V162.07H1257.07V161.356ZM1257.07 159.48H1262.72V160.166H1257.07V159.48ZM1258.4 165.92C1259.14 166.522 1259.95 167.39 1260.3 167.992L1261.6 167.096C1261.24 166.508 1260.47 165.766 1259.77 165.234H1264.4V158.206H1260.5C1260.65 157.912 1260.83 157.59 1261 157.24L1258.99 157.002C1258.93 157.352 1258.8 157.8 1258.68 158.206H1255.46V165.234H1259.45L1258.4 165.92ZM1254.59 169.742C1255.43 168.916 1255.93 167.67 1256.28 166.522L1254.8 165.99C1254.51 167.026 1253.95 168.104 1253.19 168.776L1254.59 169.742ZM1259.28 168.692C1258.61 168.692 1258.51 168.65 1258.51 168.244V166.242H1256.86V168.272C1256.86 169.714 1257.29 170.176 1259.11 170.176H1261.38C1262.74 170.176 1263.2 169.756 1263.38 168.104C1262.95 168.006 1262.25 167.754 1261.91 167.516C1261.84 168.552 1261.74 168.692 1261.23 168.692H1259.28ZM1262.74 166.662C1263.7 167.586 1264.7 168.874 1265.09 169.77L1266.52 168.832C1266.1 167.894 1265.05 166.676 1264.07 165.808L1262.74 166.662ZM1271.53 169.966L1273.03 168.678C1272.33 167.81 1270.97 166.424 1269.98 165.612L1268.52 166.872C1269.49 167.712 1270.68 168.916 1271.53 169.966ZM1293.79 168.342H1289.04V166.956H1293.79V168.342ZM1286.68 159.284H1293.89V160.236H1286.68V159.284ZM1296.35 164.352V162.868H1292.18V161.692H1295.57V157.828H1285.01V161.93C1285.01 164.142 1284.89 167.264 1283.44 169.392C1283.85 169.56 1284.61 169.98 1284.93 170.26C1286.45 167.978 1286.68 164.352 1286.68 161.93V161.692H1290.53V162.868H1286.82V164.352H1290.53V165.5H1287.45V170.218H1289.04V169.798H1293.79V170.204H1295.46V165.5H1292.18V164.352H1296.35ZM1302.05 163.764V162.378H1305.1C1305.14 162.854 1305.2 163.316 1305.27 163.764H1302.05ZM1308.77 159.326V160.838H1302.05V159.326H1308.77ZM1311.46 165.318V163.764H1307.01C1306.92 163.316 1306.87 162.854 1306.82 162.378H1310.46V157.772H1300.34V168.09C1299.81 168.16 1299.31 168.202 1298.87 168.244L1299.21 169.98C1301.03 169.742 1303.51 169.42 1305.82 169.098L1305.76 167.446C1304.53 167.6 1303.24 167.754 1302.05 167.908V165.318H1305.61C1306.38 168.146 1307.86 170.218 1309.68 170.232C1310.94 170.232 1311.53 169.714 1311.77 167.362C1311.33 167.236 1310.7 166.9 1310.32 166.564C1310.25 167.978 1310.1 168.566 1309.78 168.566C1308.97 168.58 1308 167.222 1307.4 165.318H1311.46ZM1323.65 163.89H1319.16L1319.05 163.134L1317.76 163.498V161.356H1318.68V162.63H1323.65V163.89ZM1326.83 162.63V161.09H1323.65V159.9H1326.23V158.388H1323.65V157.142H1322V158.388H1319.52V159.9H1322V161.09H1318.92V159.774H1317.76V157.156H1316.23V159.774H1315.57C1315.66 159.214 1315.73 158.654 1315.78 158.094L1314.4 157.87C1314.27 159.522 1314.05 161.258 1313.6 162.378C1313.92 162.546 1314.52 162.924 1314.78 163.134C1314.97 162.63 1315.15 162.028 1315.29 161.356H1316.23V163.932C1315.29 164.184 1314.43 164.408 1313.74 164.562L1314.13 166.158C1314.76 165.976 1315.48 165.766 1316.23 165.542V170.218H1317.76V165.08C1318.16 164.954 1318.58 164.814 1318.99 164.688V165.43H1320.68L1319.48 166.172C1320.08 166.844 1320.8 167.768 1321.08 168.37L1322.41 167.516C1322.07 166.9 1321.34 166.046 1320.73 165.43H1323.65V168.328C1323.65 168.51 1323.6 168.552 1323.36 168.566C1323.13 168.566 1322.38 168.566 1321.68 168.538C1321.9 169 1322.13 169.714 1322.18 170.19C1323.23 170.19 1324.02 170.162 1324.59 169.91C1325.15 169.644 1325.29 169.196 1325.29 168.356V165.43H1326.7V163.89H1325.29V162.63H1326.83ZM1338.6 168.188V165.388H1341.17V163.834H1338.6V161.538H1341.46V159.97H1338.6V157.226H1336.94V159.97H1335.82C1335.96 159.34 1336.07 158.682 1336.17 158.024L1334.54 157.8C1334.4 158.99 1334.15 160.194 1333.8 161.216C1333.61 160.67 1333.31 159.998 1333.03 159.452L1332.22 159.788V157.142H1330.55V159.998L1329.38 159.83C1329.28 160.978 1329.03 162.546 1328.69 163.47L1329.92 163.918C1330.25 162.924 1330.47 161.384 1330.55 160.208V170.218H1332.22V160.656C1332.46 161.23 1332.67 161.846 1332.75 162.266L1333.55 161.902C1333.41 162.196 1333.27 162.462 1333.13 162.714C1333.52 162.882 1334.28 163.26 1334.61 163.47C1334.91 162.938 1335.19 162.266 1335.4 161.538H1336.94V163.834H1334.24V165.388H1336.94V168.188H1333.2V169.77H1341.91V168.188H1338.6ZM1347.13 169.966L1348.63 168.678C1347.93 167.81 1346.57 166.424 1345.58 165.612L1344.12 166.872C1345.09 167.712 1346.28 168.916 1347.13 169.966ZM1364.69 162.182H1362.18V160.81H1364.7C1364.55 161.02 1364.36 161.202 1364.18 161.37C1364.57 161.608 1365.25 162.14 1365.54 162.434C1366.07 161.874 1366.56 161.16 1366.97 160.334H1371.97V158.822H1367.61C1367.77 158.374 1367.91 157.912 1368.02 157.45L1366.38 157.142C1366.11 158.304 1365.67 159.424 1365.06 160.32V159.27H1362.99V157.142H1361.4V159.27H1359.3V160.81H1360.72V162.966C1360.72 164.828 1360.53 167.208 1358.99 169.238C1359.39 169.504 1359.93 169.924 1360.22 170.26C1361.77 168.23 1362.12 165.822 1362.17 163.68H1363.17C1363.12 167.054 1363.05 168.244 1362.85 168.538C1362.75 168.706 1362.63 168.748 1362.46 168.748C1362.24 168.748 1361.87 168.734 1361.44 168.692C1361.66 169.098 1361.82 169.728 1361.84 170.176C1362.4 170.19 1362.95 170.176 1363.29 170.12C1363.66 170.05 1363.93 169.91 1364.2 169.532C1364.55 169.014 1364.62 167.348 1364.69 162.826V162.182ZM1371.18 162.924C1370.82 163.372 1370.29 163.904 1369.75 164.366C1369.63 163.848 1369.52 163.302 1369.43 162.756C1370.29 162.308 1371.07 161.832 1371.64 161.356L1370.45 160.488C1369.21 161.454 1366.7 162.476 1364.73 162.868C1365.08 163.232 1365.48 163.848 1365.71 164.254L1366 164.17V170.204H1367.58V163.596C1367.75 163.526 1367.91 163.456 1368.07 163.386C1368.58 166.396 1369.43 168.832 1371.28 170.176C1371.53 169.728 1372.04 169.084 1372.41 168.776C1371.41 168.132 1370.69 167.068 1370.2 165.766C1370.89 165.262 1371.7 164.604 1372.36 163.988L1371.18 162.924ZM1378.57 165.85C1379.33 165.584 1380.06 165.262 1380.73 164.912C1381.47 165.276 1382.27 165.598 1383.12 165.85H1378.57ZM1378.49 168.412V167.222H1383.15V168.412H1378.49ZM1379.16 161.944H1382.27C1381.85 162.378 1381.32 162.784 1380.73 163.148C1380.1 162.812 1379.55 162.42 1379.09 162L1379.16 161.944ZM1383.68 160.628L1383.4 160.698H1380.35C1380.51 160.502 1380.66 160.306 1380.8 160.11L1379.25 159.802H1385.1V161.356H1386.81V158.29H1381.61V157.156H1379.9V158.29H1374.79V161.356H1376.43V159.802H1379.01C1378.31 160.838 1377.02 161.874 1375.07 162.616C1375.44 162.868 1375.96 163.456 1376.18 163.848C1376.81 163.554 1377.37 163.246 1377.89 162.91C1378.28 163.288 1378.7 163.638 1379.15 163.96C1377.66 164.618 1375.94 165.08 1374.23 165.346C1374.51 165.696 1374.86 166.382 1375 166.83C1375.63 166.704 1376.25 166.564 1376.87 166.396V170.218H1378.49V169.784H1383.15V170.19H1384.87V166.298C1385.34 166.382 1385.81 166.466 1386.3 166.536C1386.53 166.06 1387 165.318 1387.35 164.926C1385.55 164.744 1383.85 164.394 1382.4 163.876C1383.38 163.148 1384.2 162.308 1384.8 161.3L1383.68 160.628ZM1398.61 162.336C1399.73 163.876 1400.71 166.018 1400.99 167.446L1402.68 166.606C1402.33 165.15 1401.34 163.106 1400.15 161.566L1398.61 162.336ZM1390.6 162.126C1390.42 163.988 1390.01 165.794 1389.19 166.998L1390.74 167.894C1391.66 166.522 1392.03 164.38 1392.24 162.462L1390.6 162.126ZM1393.15 158.486C1394.8 159.116 1396.75 160.194 1397.82 161.09L1398.92 159.62C1397.81 158.808 1395.88 157.772 1394.23 157.184L1393.15 158.486ZM1393.11 161.132V167.782C1393.11 169.532 1393.6 170.078 1395.37 170.078H1397.66C1399.34 170.078 1399.78 169.252 1399.97 166.648C1399.5 166.522 1398.8 166.228 1398.41 165.92C1398.31 168.118 1398.2 168.552 1397.52 168.552H1395.6C1394.94 168.552 1394.84 168.454 1394.84 167.782V161.132H1393.11ZM1414.36 159.312C1414.25 159.648 1414.08 160.054 1413.94 160.362L1414.01 160.376H1412.23L1412.41 160.334C1412.34 160.04 1412.2 159.648 1412.02 159.312H1414.36ZM1417.52 160.376H1415.52C1415.67 160.096 1415.86 159.76 1416.04 159.382L1415.69 159.312H1417.27V158.024H1413.95V157.17H1412.31V158.024H1409.28V159.312H1410.98L1410.47 159.424C1410.61 159.704 1410.75 160.068 1410.82 160.376H1408.97V161.734H1417.52V160.376ZM1408.94 164.618C1408.51 164.8 1408.07 164.996 1407.64 165.178V162.028H1408.91V160.46H1407.64V157.338H1406.1V160.46H1404.71V162.028H1406.1V165.808C1405.45 166.06 1404.87 166.284 1404.39 166.452L1404.95 168.118C1406.22 167.53 1407.83 166.802 1409.3 166.088L1408.94 164.618ZM1411.31 164.968H1415.24V165.682H1411.31V164.968ZM1411.31 163.302H1415.24V164.002H1411.31V163.302ZM1415.45 168.734C1415.2 168.734 1415.16 168.692 1415.16 168.342V166.718H1416.88V162.28H1409.75V166.718H1410.94C1410.69 167.74 1410.07 168.44 1407.88 168.86C1408.2 169.182 1408.63 169.854 1408.79 170.26C1411.46 169.574 1412.27 168.398 1412.58 166.718H1413.57V168.356C1413.57 169.686 1413.85 170.148 1415.17 170.148H1416.26C1417.24 170.148 1417.63 169.728 1417.79 168.118C1417.35 168.034 1416.71 167.768 1416.4 167.53C1416.37 168.594 1416.3 168.734 1416.08 168.734H1415.45ZM1160.61 185.072H1155.97V194.018H1157.63V186.584H1160.61V185.072ZM1172.72 190.182H1168.91V189.328C1169.13 189.496 1169.44 189.846 1169.58 190.056C1170.07 189.79 1170.46 189.398 1170.77 188.936C1171.19 189.328 1171.61 189.748 1171.86 190.042L1172.62 189.328C1172.31 189.006 1171.71 188.488 1171.21 188.068C1171.32 187.788 1171.42 187.494 1171.47 187.2L1170.37 187.074C1170.24 187.956 1169.78 188.838 1168.91 189.3V186.976H1172.72V190.182ZM1174.3 185.744H1167.41V191.428H1174.3V185.744ZM1166.63 186.542C1166.1 186.08 1165.02 185.52 1164.21 185.184L1163.27 186.444C1164.11 186.808 1165.16 187.438 1165.66 187.914L1166.63 186.542ZM1165.87 190.224C1165.34 189.776 1164.28 189.244 1163.45 188.95L1162.55 190.196C1163.38 190.56 1164.42 191.148 1164.91 191.61L1165.87 190.224ZM1165.05 192.59C1164.33 194.228 1163.44 195.992 1162.79 197.07L1164.28 198.05C1164.99 196.692 1165.73 195.082 1166.35 193.584L1165.05 192.59ZM1168.42 193.542H1169.2V196.356H1168.42V193.542ZM1171.22 193.542V196.356H1170.44V193.542H1171.22ZM1173.26 193.542V196.356H1172.47V193.542H1173.26ZM1174.83 196.356V192.142H1166.94V196.356H1165.77V197.798H1175.69V196.356H1174.83ZM1177.63 198.288H1182.28V189.342H1180.61V196.776H1177.63V198.288ZM1202.52 187.494H1196.11V186.794H1202.52V187.494ZM1202.52 189.3H1196.11V188.586H1202.52V189.3ZM1204.22 185.618H1194.5V190.476H1204.22V185.618ZM1200.35 195.054H1204.67V193.612H1200.35V192.562H1205.55V191.092H1193.2V192.562H1198.66V196.118C1197.76 195.838 1197.08 195.32 1196.64 194.368C1196.76 193.962 1196.87 193.542 1196.97 193.094L1195.3 192.842C1194.98 194.718 1194.12 196.202 1192.7 197.084C1193.07 197.322 1193.72 197.938 1193.96 198.246C1194.77 197.686 1195.41 196.944 1195.92 196.02C1197.09 197.644 1198.83 197.994 1201.39 197.994H1205.38C1205.46 197.518 1205.72 196.79 1205.94 196.412C1204.95 196.454 1202.26 196.454 1201.47 196.454C1201.1 196.454 1200.72 196.44 1200.35 196.412V195.054ZM1215.03 193.234V190.98H1218.37V193.234H1215.03ZM1218.37 187.27V189.44H1215.03V187.27H1218.37ZM1220.08 185.688H1213.43V194.802H1220.08V185.688ZM1212.55 192.842C1212.11 192.996 1211.67 193.136 1211.23 193.276V189.944H1212.48V188.362H1211.23V185.31H1209.65V188.362H1208.14V189.944H1209.65V193.78C1208.96 193.99 1208.35 194.186 1207.83 194.326L1208.38 196.02C1209.68 195.558 1211.32 194.97 1212.84 194.382L1212.55 192.842ZM1211.6 196.09V197.672H1221.02V196.09H1211.6ZM1235.93 187.116C1235.69 186.584 1235.09 185.828 1234.58 185.268L1233.38 185.926C1233.87 186.514 1234.43 187.326 1234.65 187.858L1235.93 187.116ZM1224.76 198.232C1225.43 197.504 1226.02 196.356 1226.32 195.292L1224.71 194.9C1224.39 195.922 1223.79 197 1223.17 197.588L1224.76 198.232ZM1227.26 195.39C1227.42 196.244 1227.53 197.392 1227.53 198.064L1229.15 197.826C1229.14 197.168 1228.97 196.062 1228.8 195.208L1227.26 195.39ZM1226.87 190.728C1226.45 190.35 1225.83 189.93 1225.27 189.58C1225.44 189.37 1225.61 189.16 1225.76 188.936C1226.34 189.258 1226.95 189.65 1227.36 189.972C1227.21 190.238 1227.05 190.49 1226.87 190.728ZM1228.35 187.62C1228.23 188.04 1228.09 188.446 1227.93 188.824C1227.5 188.53 1226.94 188.208 1226.42 187.956L1226.62 187.62H1228.35ZM1235.83 189.44V187.886H1233.23V185.338H1231.66V187.886H1229.94C1230.05 187.494 1230.16 187.088 1230.24 186.668L1229.18 186.248L1228.91 186.304H1227.3C1227.44 186.01 1227.57 185.702 1227.68 185.408L1226.11 185.016C1225.57 186.654 1224.38 188.656 1222.89 189.818C1223.23 190.07 1223.72 190.574 1224 190.882C1224.14 190.756 1224.29 190.63 1224.43 190.49C1225.01 190.882 1225.61 191.344 1226 191.736C1225.23 192.492 1224.32 193.094 1223.31 193.528C1223.68 193.78 1224.25 194.424 1224.49 194.802C1226.84 193.668 1228.75 191.54 1229.8 188.334V189.44H1231.56C1231.32 190.882 1230.54 192.408 1228.21 193.584C1228.62 193.878 1229.11 194.382 1229.38 194.746C1231.1 193.864 1232.08 192.744 1232.61 191.554C1233.17 192.968 1233.98 194.074 1235.17 194.802C1235.41 194.354 1235.91 193.682 1236.29 193.374C1234.84 192.632 1233.95 191.204 1233.45 189.44H1235.83ZM1230.03 195.418C1230.34 196.272 1230.66 197.406 1230.75 198.078L1232.41 197.756C1232.29 197.07 1231.94 195.978 1231.6 195.152L1230.03 195.418ZM1232.83 195.348C1233.45 196.244 1234.21 197.476 1234.49 198.218L1236.19 197.644C1235.84 196.874 1235.06 195.698 1234.43 194.844L1232.83 195.348ZM1241.42 189.944H1242.83V188.362H1241.42V185.324H1239.86V188.362H1238.22V189.944H1239.86V193.892C1239.16 194.158 1238.55 194.396 1238.04 194.578L1238.71 196.258C1240 195.67 1241.6 194.914 1243.08 194.172L1242.7 192.702C1242.28 192.884 1241.85 193.066 1241.42 193.248V189.944ZM1246.19 196.468C1245.34 196.468 1245.21 196.342 1245.21 195.53V191.204L1246.37 190.7V194.97H1247.93V190.028L1249.13 189.496C1249.13 191.484 1249.12 192.506 1249.09 192.73C1249.03 192.982 1248.95 193.038 1248.78 193.038C1248.65 193.038 1248.35 193.038 1248.11 193.01C1248.29 193.36 1248.42 193.976 1248.46 194.41C1248.91 194.41 1249.51 194.396 1249.91 194.214C1250.33 194.032 1250.59 193.696 1250.63 193.052C1250.7 192.478 1250.73 190.798 1250.73 188.138L1250.78 187.858L1249.62 187.452L1249.33 187.648L1249.03 187.844L1247.93 188.32V185.128H1246.37V188.992L1245.21 189.482V186.486H1243.61V190.168L1242.24 190.742L1242.86 192.226L1243.61 191.904V195.502C1243.61 197.434 1244.16 197.952 1246.05 197.952H1249.03C1250.67 197.952 1251.16 197.28 1251.38 195.32C1250.92 195.236 1250.28 194.97 1249.93 194.718C1249.8 196.146 1249.66 196.468 1248.89 196.468H1246.19ZM1256.42 185.17C1255.7 187.158 1254.42 189.146 1253.12 190.406C1253.4 190.812 1253.86 191.708 1254.02 192.114C1254.38 191.736 1254.73 191.316 1255.08 190.868V198.19H1256.66V188.432C1257.17 187.536 1257.6 186.584 1257.96 185.674L1256.42 185.17ZM1259.83 187.214H1263.93V189.09H1259.83V187.214ZM1266.28 193.332V191.82H1262.67V190.56H1265.59V185.744H1258.24V190.56H1260.99V191.82H1257.32V193.332H1260.19C1259.32 194.564 1258.08 195.698 1256.82 196.356C1257.19 196.678 1257.71 197.28 1257.96 197.686C1259.07 196.972 1260.13 195.908 1260.99 194.676V198.218H1262.67V194.606C1263.47 195.852 1264.49 196.986 1265.51 197.714C1265.78 197.294 1266.31 196.706 1266.69 196.384C1265.51 195.698 1264.31 194.55 1263.48 193.332H1266.28ZM1272.72 191.078L1271.61 191.386V189.328H1272.8V187.788H1271.61V185.156H1270.09V187.788H1268.51V189.328H1270.09V191.778C1269.4 191.946 1268.79 192.1 1268.28 192.226L1268.65 193.822L1270.09 193.402V196.356C1270.09 196.538 1270.02 196.594 1269.85 196.594C1269.68 196.608 1269.21 196.608 1268.69 196.58C1268.9 197.028 1269.08 197.714 1269.12 198.12C1270.02 198.134 1270.63 198.078 1271.04 197.812C1271.47 197.546 1271.61 197.14 1271.61 196.37V192.968C1272.06 192.842 1272.5 192.702 1272.93 192.576L1272.72 191.078ZM1273.91 194.396C1274.48 195.138 1275.13 196.16 1275.38 196.846L1276.79 196.034C1276.51 195.348 1275.81 194.354 1275.23 193.654L1273.91 194.396ZM1281.51 190.98V189.468H1278.07V188.25H1280.9V186.738H1278.07V185.212H1276.49V186.738H1273.62V188.25H1276.49V189.468H1273.01V190.98H1278.29V192.086H1273.14V193.598H1278.29V196.426C1278.29 196.622 1278.24 196.664 1278.01 196.664C1277.8 196.678 1277.07 196.678 1276.44 196.65C1276.64 197.098 1276.85 197.756 1276.92 198.218C1277.91 198.218 1278.67 198.19 1279.17 197.952C1279.72 197.7 1279.87 197.294 1279.87 196.454V193.598H1281.41V192.086H1279.87V190.98H1281.51ZM1285.21 198.218C1285.87 197.56 1286.51 196.51 1286.86 195.558L1285.25 195.138C1284.89 196.076 1284.24 197.042 1283.63 197.588L1285.21 198.218ZM1287.69 195.614C1287.83 196.412 1287.91 197.476 1287.91 198.092L1289.56 197.882C1289.55 197.28 1289.41 196.244 1289.24 195.46L1287.69 195.614ZM1290.47 195.6C1290.78 196.384 1291.05 197.448 1291.13 198.078L1292.8 197.756C1292.68 197.126 1292.36 196.118 1292.04 195.348L1290.47 195.6ZM1293.26 195.572C1293.86 196.384 1294.57 197.546 1294.87 198.232L1296.58 197.686C1296.23 196.958 1295.46 195.88 1294.87 195.082L1293.26 195.572ZM1293.71 188.404V191.302C1293.44 191.064 1293.09 190.784 1292.7 190.504C1292.81 189.86 1292.87 189.16 1292.91 188.404H1293.71ZM1295.36 193.374C1295.3 193.374 1295.26 193.36 1295.23 193.304C1295.2 193.248 1295.2 193.066 1295.2 192.758V186.934H1292.98C1292.99 186.36 1292.99 185.758 1293.01 185.142H1291.51C1291.51 185.772 1291.49 186.36 1291.48 186.934H1290.26V188.404H1291.44C1291.42 188.824 1291.4 189.23 1291.35 189.622C1291.1 189.468 1290.86 189.328 1290.64 189.202L1289.97 190.434C1290.32 190.644 1290.71 190.91 1291.09 191.176C1290.86 192.086 1290.5 192.842 1289.93 193.472V193.038C1289.18 193.108 1288.43 193.164 1287.69 193.234V192.492H1289.59V191.33H1287.69V190.616C1287.85 190.686 1288.08 190.714 1288.37 190.714H1289.07C1289.73 190.714 1290.04 190.476 1290.14 189.468C1289.83 189.398 1289.35 189.244 1289.14 189.076C1289.11 189.65 1289.07 189.72 1288.9 189.72H1288.58C1288.43 189.72 1288.4 189.692 1288.4 189.44V188.866H1289.94V187.718H1287.69V187.032H1289.55V185.912H1287.69V185.156H1286.22V185.912H1284.35V187.032H1286.22V187.718H1283.86V188.866H1285.26C1285.14 189.524 1284.76 189.902 1283.58 190.112C1283.84 190.336 1284.14 190.798 1284.24 191.092C1285.87 190.714 1286.37 190.014 1286.54 188.866H1287.24V189.44C1287.24 190.056 1287.31 190.406 1287.6 190.574H1286.22V191.33H1284.16V192.492H1286.22V193.346C1285.29 193.416 1284.45 193.472 1283.77 193.514L1283.86 194.872C1285.5 194.718 1287.77 194.494 1289.94 194.27V194.242C1290.18 194.48 1290.4 194.76 1290.53 194.97C1291.41 194.228 1291.98 193.276 1292.33 192.114C1292.66 192.38 1292.94 192.646 1293.15 192.87L1293.71 191.764V192.786C1293.71 193.808 1293.79 194.102 1294.01 194.354C1294.25 194.592 1294.6 194.69 1294.92 194.69H1295.54C1295.81 194.69 1296.1 194.634 1296.28 194.48C1296.46 194.326 1296.6 194.102 1296.67 193.766C1296.76 193.444 1296.81 192.576 1296.83 191.876C1296.48 191.75 1296.07 191.54 1295.81 191.316C1295.81 192.044 1295.79 192.618 1295.76 192.87C1295.75 193.136 1295.72 193.248 1295.68 193.304C1295.64 193.36 1295.58 193.374 1295.53 193.374H1295.36ZM1301.38 187.886H1311.47V186.402H1306.5V185.156H1304.77V186.402H1299.78V190.322C1299.78 192.366 1299.7 195.278 1298.54 197.266C1298.91 197.434 1299.61 197.896 1299.89 198.176C1301.17 196.02 1301.38 192.59 1301.38 190.322V187.886ZM1307.73 190.378V191.302H1305.19V190.378H1307.73ZM1309.39 192.562V190.378H1311.4V189.062H1309.39V188.138H1307.73V189.062H1305.19V188.138H1303.62V189.062H1301.73V190.378H1303.62V192.562H1309.39ZM1308.25 194.424C1307.79 194.872 1307.22 195.264 1306.57 195.572C1305.91 195.25 1305.35 194.872 1304.93 194.424H1308.25ZM1309.67 193.052L1309.37 193.122H1301.83V194.424H1303.91L1303.25 194.662C1303.7 195.264 1304.25 195.782 1304.86 196.216C1303.76 196.538 1302.53 196.734 1301.24 196.846C1301.49 197.196 1301.78 197.826 1301.91 198.246C1303.58 198.036 1305.14 197.7 1306.52 197.154C1307.73 197.7 1309.16 198.064 1310.77 198.26C1310.98 197.826 1311.42 197.182 1311.75 196.832C1310.49 196.72 1309.33 196.524 1308.31 196.23C1309.32 195.558 1310.14 194.69 1310.7 193.57L1309.67 193.052ZM1162.48 224.44C1161.11 224.44 1160.91 224.286 1160.91 223.236V219.036L1163.07 218.35V223.068H1164.72V217.832L1167.22 217.034C1167.2 218.714 1167.14 219.75 1167 220.226C1166.83 220.716 1166.65 220.828 1166.36 220.828C1166.1 220.828 1165.57 220.828 1165.18 220.786C1165.36 221.164 1165.53 221.92 1165.56 222.312C1166.09 222.34 1166.83 222.298 1167.32 222.172C1167.83 222.032 1168.22 221.696 1168.47 220.94C1168.75 220.142 1168.83 218.49 1168.88 215.872L1168.95 215.564L1167.77 215.06L1167.45 215.284L1167.27 215.41L1164.72 216.194V213.17H1163.07V216.726L1160.91 217.398V214.122H1159.27V217.916L1156.88 218.672L1157.31 220.17L1159.27 219.554V223.236C1159.27 225.392 1160 225.938 1162.46 225.938H1166.83C1169.1 225.938 1169.66 225.196 1169.94 222.872C1169.49 222.774 1168.79 222.494 1168.39 222.242C1168.19 224.076 1167.98 224.44 1166.72 224.44H1162.48ZM1181.8 215.494H1175.39V214.794H1181.8V215.494ZM1181.8 217.3H1175.39V216.586H1181.8V217.3ZM1183.49 213.618H1173.78V218.476H1183.49V213.618ZM1179.63 223.054H1183.94V221.612H1179.63V220.562H1184.82V219.092H1172.47V220.562H1177.93V224.118C1177.04 223.838 1176.35 223.32 1175.92 222.368C1176.03 221.962 1176.14 221.542 1176.24 221.094L1174.57 220.842C1174.25 222.718 1173.4 224.202 1171.97 225.084C1172.35 225.322 1172.99 225.938 1173.23 226.246C1174.04 225.686 1174.69 224.944 1175.19 224.02C1176.37 225.644 1178.1 225.994 1180.66 225.994H1184.65C1184.74 225.518 1184.99 224.79 1185.21 224.412C1184.22 224.454 1181.53 224.454 1180.75 224.454C1180.37 224.454 1179.99 224.44 1179.63 224.412V223.054ZM1195.7 218.336C1196.05 218.07 1196.34 217.72 1196.58 217.3C1196.9 217.622 1197.23 217.986 1197.39 218.266L1198.11 217.58V218.336H1195.7ZM1195 217.72C1195.2 217.888 1195.42 218.154 1195.56 218.336H1195V217.72ZM1195 214.976H1198.11V217.51C1197.87 217.188 1197.41 216.726 1196.97 216.362C1197.09 216.026 1197.16 215.662 1197.21 215.284L1196.15 214.976C1196.02 216.11 1195.66 217.02 1195 217.538V214.976ZM1199.51 213.716H1193.67V219.596H1199.51V213.716ZM1190.32 216.362H1189.89V214.99H1190.32V216.362ZM1191.61 219.862H1191.3C1191.14 219.862 1191.12 219.848 1191.12 219.652V217.706H1191.61V219.862ZM1188.69 224.006V223.04H1191.61V224.006H1188.69ZM1189.12 217.706V218.896C1189.12 219.47 1189.08 220.128 1188.69 220.702V217.706H1189.12ZM1191.61 220.688V221.864H1188.69V220.968C1188.85 221.094 1189.05 221.29 1189.15 221.402C1189.78 220.702 1189.9 219.68 1189.9 218.91V217.706H1190.32V219.68C1190.32 220.492 1190.52 220.688 1191.21 220.688H1191.61ZM1187.38 214.99H1188.88V216.362H1187.52V226.12H1188.69V225.28H1191.61V225.924H1192.82V216.362H1191.4V214.99H1192.97V213.702H1187.38V214.99ZM1194.66 221.654H1195.25V224.566H1194.66V221.654ZM1196.82 221.654V224.566H1196.25V221.654H1196.82ZM1198.43 221.654V224.566H1197.83V221.654H1198.43ZM1199.72 224.566V220.338H1193.43V224.566H1193.07V225.91H1200.29V224.566H1199.72ZM1215.38 214.122H1212.56V213.198H1210.95V214.122H1208.3V215.27H1215.38V214.122ZM1211.16 221.08H1212.37V221.57H1211.16V221.08ZM1211.16 219.652H1212.37V220.128H1211.16V219.652ZM1203.85 223.992V223.11H1206.82V223.992H1203.85ZM1204.28 217.734V218.644C1204.28 219.246 1204.23 219.988 1203.85 220.646V217.734H1204.28ZM1205.07 215.06H1205.49V216.432H1205.07V215.06ZM1206.82 219.736C1206.79 219.764 1206.76 219.778 1206.65 219.778H1206.44C1206.34 219.778 1206.31 219.764 1206.31 219.568V217.734H1206.82V219.736ZM1206.82 221.864H1203.85V220.884C1204.03 220.996 1204.28 221.178 1204.41 221.304C1204.95 220.534 1205.08 219.456 1205.08 218.658V217.734H1205.51V219.582C1205.51 220.422 1205.7 220.618 1206.33 220.618H1206.8H1206.82V221.864ZM1209.66 216.6H1210.51V217.188H1209.66V216.6ZM1213.05 216.6H1213.91V217.188H1213.05V216.6ZM1214.63 222.732C1214.32 222.956 1213.86 223.25 1213.42 223.502C1213.23 223.236 1213.06 222.942 1212.92 222.634H1215.43V221.57H1213.75V221.08H1214.98V220.128H1213.75V219.652H1215.2V218.672H1213.75V218.112H1215.03V215.662H1212.01V218.112H1212.37V218.672H1211.16V218.112H1211.59V215.662H1208.61V218.112H1209.81V218.672H1208.54V219.652H1209.81V220.128H1208.79V221.08H1209.81V221.57H1208.22V222.634H1210.11C1209.49 222.956 1208.75 223.222 1208.02 223.404V216.432H1206.55V215.06H1208.05V213.744H1202.53V215.06H1204.03V216.432H1202.7V226.162H1203.85V225.266H1206.82V225.896H1208.02V223.74C1208.24 224.006 1208.5 224.328 1208.62 224.51C1208.93 224.412 1209.25 224.3 1209.57 224.16V224.79C1209.2 224.846 1208.83 224.902 1208.52 224.944L1208.8 226.078C1209.87 225.882 1211.18 225.658 1212.47 225.42L1212.37 224.328L1210.9 224.58V223.502C1211.2 223.32 1211.46 223.138 1211.72 222.942C1212.29 224.426 1213.24 225.63 1214.63 226.246C1214.82 225.882 1215.22 225.364 1215.54 225.112C1215.02 224.916 1214.57 224.65 1214.17 224.3C1214.59 224.104 1215.03 223.852 1215.41 223.6L1214.63 222.732ZM1224.85 220.212V217.202H1228.01V220.212H1224.85ZM1219.93 220.212V217.202H1223.08V220.212H1219.93ZM1224.85 215.564V213.142H1223.08V215.564H1218.25V222.62H1219.93V221.85H1223.08V226.218H1224.85V221.85H1228.01V222.55H1229.76V215.564H1224.85ZM1235.33 220.492H1237.07V221.444H1235.33V220.492ZM1237.07 216.25V217.062H1235.33V216.25H1237.07ZM1235.33 218.336H1237.07V219.218H1235.33V218.336ZM1239.45 221.444H1238.6V216.25H1239.55V214.794H1238.6V213.31H1237.07V214.794H1235.33V213.31H1233.84V214.794H1232.74V216.25H1233.84V221.444H1232.58V222.9H1239.45V221.444ZM1234.31 222.998C1233.92 223.838 1233.19 224.72 1232.46 225.266C1232.84 225.49 1233.49 225.966 1233.79 226.26C1234.55 225.574 1235.38 224.482 1235.87 223.46L1234.31 222.998ZM1241.56 220.1C1241.58 219.666 1241.58 219.26 1241.58 218.896V218.378H1243.59V220.1H1241.56ZM1243.59 215.27V216.908H1241.58V215.27H1243.59ZM1245.2 213.758H1240.02V218.896C1240.02 220.716 1239.95 223.082 1239.14 224.832C1238.79 224.258 1238.13 223.488 1237.63 222.928L1236.37 223.614C1236.92 224.258 1237.59 225.182 1237.87 225.728L1239.03 225.07C1238.99 225.154 1238.93 225.224 1238.89 225.308C1239.25 225.448 1239.94 225.952 1240.21 226.246C1240.96 224.986 1241.31 223.236 1241.47 221.584H1243.59V224.342C1243.59 224.566 1243.52 224.636 1243.31 224.636C1243.12 224.636 1242.45 224.65 1241.84 224.608C1242.05 225.028 1242.26 225.756 1242.32 226.19C1243.36 226.204 1244.07 226.162 1244.56 225.896C1245.05 225.63 1245.2 225.196 1245.2 224.37V213.758ZM1250.54 213.17C1249.96 214.094 1248.75 215.242 1247.67 215.9C1247.92 216.264 1248.33 216.936 1248.48 217.314C1249.78 216.474 1251.2 215.102 1252.11 213.814L1250.54 213.17ZM1252.75 222.396C1253.35 223.138 1254.04 224.174 1254.29 224.846L1255.75 224.062C1255.45 223.376 1254.74 222.396 1254.11 221.682L1252.75 222.396ZM1260.81 218.98V217.468H1257.13V216.25H1260.16V214.738H1257.13V213.212H1255.48V214.738H1252.61V216.25H1255.48V217.468H1251.95C1252.09 217.258 1252.22 217.048 1252.34 216.852L1250.89 216.222C1250.1 217.58 1248.75 218.952 1247.53 219.82C1247.77 220.226 1248.19 221.164 1248.31 221.542C1248.73 221.206 1249.15 220.828 1249.57 220.394V226.204H1251.17V218.56C1251.41 218.266 1251.62 217.958 1251.83 217.664V218.98H1257.38V220.086H1251.97V221.598H1257.38V224.426C1257.38 224.622 1257.31 224.664 1257.1 224.664C1256.88 224.678 1256.11 224.678 1255.42 224.65C1255.63 225.098 1255.87 225.756 1255.94 226.218C1256.99 226.218 1257.78 226.19 1258.32 225.952C1258.88 225.7 1259.05 225.294 1259.05 224.454V221.598H1260.69V220.086H1259.05V218.98H1260.81ZM1266.86 214.542C1266.33 214.08 1265.25 213.52 1264.44 213.184L1263.5 214.444C1264.34 214.808 1265.39 215.438 1265.9 215.914L1266.86 214.542ZM1266.11 218.224C1265.57 217.776 1264.51 217.244 1263.68 216.95L1262.79 218.196C1263.61 218.56 1264.65 219.148 1265.14 219.61L1266.11 218.224ZM1264.64 226.05C1265.28 224.664 1265.95 223.026 1266.51 221.514L1265.15 220.576C1264.51 222.242 1263.68 224.02 1263.1 225.126L1264.64 226.05ZM1270.81 220.366C1270.82 219.974 1270.84 219.582 1270.84 219.19H1271.62V220.366H1270.81ZM1268.49 220.366C1268.54 219.988 1268.6 219.582 1268.64 219.19H1269.38C1269.38 219.596 1269.37 219.988 1269.34 220.366H1268.49ZM1270.84 216.404H1271.62V217.72H1270.84V216.404ZM1273.9 216.404V217.72H1273.09V216.404H1273.9ZM1273.09 220.366V219.19H1275.39V214.934H1273.09V213.17H1271.62V214.934H1270.84V213.142H1269.38V214.934H1267.06V216.404H1269.38V217.72H1267.38C1267.25 219.19 1266.99 221.038 1266.75 222.242L1268.18 222.34L1268.26 221.836H1269.13C1268.82 223.124 1268.16 224.272 1266.78 225.168C1267.16 225.392 1267.73 225.882 1268 226.19C1269.65 225.056 1270.36 223.544 1270.66 221.836H1271.62V226.19H1273.09V221.836H1274.23C1274.2 222.802 1274.16 223.18 1274.07 223.32C1273.99 223.432 1273.9 223.474 1273.75 223.46C1273.62 223.46 1273.41 223.46 1273.12 223.418C1273.3 223.782 1273.44 224.37 1273.46 224.804C1273.95 224.818 1274.37 224.804 1274.63 224.734C1274.94 224.678 1275.16 224.58 1275.39 224.286C1275.64 223.964 1275.71 223.012 1275.75 220.898C1275.77 220.73 1275.77 220.366 1275.77 220.366H1273.09ZM1283.31 226.19C1283.89 225.644 1284.21 224.734 1284.32 223.894L1283.2 223.684C1283.09 224.426 1282.77 225.21 1282.29 225.63L1283.31 226.19ZM1284.53 224.174C1284.66 224.748 1284.75 225.49 1284.78 225.98L1285.76 225.798C1285.73 225.322 1285.62 224.566 1285.47 224.02L1284.53 224.174ZM1285.85 224.09C1286.06 224.58 1286.28 225.252 1286.36 225.672L1287.23 225.406C1287.15 224.986 1286.91 224.342 1286.69 223.852L1285.85 224.09ZM1288.56 224.664C1288.44 224.37 1288.16 223.936 1287.89 223.586L1287.15 223.936C1287.4 224.272 1287.68 224.762 1287.79 225.07L1288.56 224.664ZM1286.29 220.072H1285.05V219.596H1286.29V220.072ZM1286.29 221.346H1285.05V220.856H1286.29V221.346ZM1286.29 222.634H1285.05V222.116H1286.29V222.634ZM1288.06 217.958C1288.18 218.196 1288.32 218.42 1288.46 218.63H1285.05C1285.22 218.42 1285.37 218.196 1285.51 217.958H1288.06ZM1287.25 216.082C1287.33 216.306 1287.4 216.53 1287.48 216.74H1286.14C1286.24 216.53 1286.32 216.306 1286.41 216.082H1287.25ZM1279.9 220.058C1279.91 219.582 1279.91 219.12 1279.91 218.7V218.322H1280.88V220.058H1279.9ZM1280.88 215.13V216.81H1279.91V215.13H1280.88ZM1289.23 219.596C1289.53 219.89 1289.84 220.156 1290.17 220.38C1290.4 220.016 1290.84 219.47 1291.18 219.204C1290.65 218.91 1290.16 218.476 1289.75 217.958H1290.9V216.74H1288.95C1288.84 216.53 1288.74 216.306 1288.66 216.082H1290.56V214.892H1289.32C1289.53 214.528 1289.79 214.066 1290.07 213.576L1288.51 213.198C1288.38 213.66 1288.13 214.304 1287.92 214.738L1288.46 214.892H1286.76C1286.88 214.388 1286.99 213.856 1287.08 213.296L1285.62 213.142C1285.54 213.758 1285.43 214.346 1285.29 214.892H1284.24L1284.88 214.696C1284.78 214.29 1284.56 213.688 1284.28 213.254L1283.06 213.604C1283.26 213.996 1283.45 214.5 1283.54 214.892H1282.85V216.082H1284.88C1284.78 216.306 1284.68 216.53 1284.57 216.74H1282.47V217.958H1283.73C1283.31 218.434 1282.82 218.84 1282.25 219.19V213.632H1278.59V218.7C1278.59 220.744 1278.55 223.572 1277.85 225.518C1278.17 225.644 1278.78 225.952 1279.03 226.176C1279.5 224.902 1279.73 223.208 1279.83 221.584H1280.88V224.538C1280.88 224.72 1280.82 224.762 1280.69 224.762C1280.54 224.762 1280.12 224.776 1279.7 224.748C1279.88 225.14 1280.05 225.812 1280.08 226.204C1280.86 226.204 1281.37 226.176 1281.76 225.91C1282.15 225.672 1282.25 225.238 1282.25 224.566V219.596C1282.5 219.904 1282.77 220.31 1282.88 220.534C1283.14 220.38 1283.38 220.212 1283.62 220.03V223.586H1289.16C1289.07 224.51 1288.97 224.93 1288.84 225.07C1288.76 225.168 1288.66 225.182 1288.51 225.182C1288.35 225.182 1288.06 225.182 1287.74 225.14C1287.89 225.434 1287.99 225.896 1288.02 226.232C1288.51 226.246 1288.98 226.232 1289.25 226.204C1289.54 226.176 1289.81 226.078 1290.03 225.826C1290.31 225.532 1290.47 224.776 1290.59 223.096C1290.62 222.942 1290.63 222.634 1290.63 222.634H1287.58V222.116H1289.67V221.346H1287.58V220.856H1289.67V220.072H1287.58V219.596H1289.23Z" fill="#262626"/>
<path d="M1127 150L1127 236" stroke="#262626" stroke-width="0.75"/>
<path d="M1519.6 162.182H1515.79V161.328C1516.01 161.496 1516.32 161.846 1516.46 162.056C1516.95 161.79 1517.34 161.398 1517.65 160.936C1518.07 161.328 1518.49 161.748 1518.74 162.042L1519.5 161.328C1519.19 161.006 1518.59 160.488 1518.09 160.068C1518.2 159.788 1518.3 159.494 1518.35 159.2L1517.25 159.074C1517.12 159.956 1516.66 160.838 1515.79 161.3V158.976H1519.6V162.182ZM1521.18 157.744H1514.29V163.428H1521.18V157.744ZM1513.51 158.542C1512.98 158.08 1511.9 157.52 1511.09 157.184L1510.15 158.444C1510.99 158.808 1512.04 159.438 1512.54 159.914L1513.51 158.542ZM1512.75 162.224C1512.22 161.776 1511.16 161.244 1510.33 160.95L1509.43 162.196C1510.26 162.56 1511.3 163.148 1511.79 163.61L1512.75 162.224ZM1511.93 164.59C1511.21 166.228 1510.32 167.992 1509.67 169.07L1511.16 170.05C1511.87 168.692 1512.61 167.082 1513.23 165.584L1511.93 164.59ZM1515.3 165.542H1516.08V168.356H1515.3V165.542ZM1518.1 165.542V168.356H1517.32V165.542H1518.1ZM1520.14 165.542V168.356H1519.35V165.542H1520.14ZM1521.71 168.356V164.142H1513.82V168.356H1512.65V169.798H1522.57V168.356H1521.71ZM1534.72 162.182H1530.91V161.328C1531.13 161.496 1531.44 161.846 1531.58 162.056C1532.07 161.79 1532.46 161.398 1532.77 160.936C1533.19 161.328 1533.61 161.748 1533.86 162.042L1534.62 161.328C1534.31 161.006 1533.71 160.488 1533.21 160.068C1533.32 159.788 1533.42 159.494 1533.47 159.2L1532.37 159.074C1532.24 159.956 1531.78 160.838 1530.91 161.3V158.976H1534.72V162.182ZM1536.3 157.744H1529.41V163.428H1536.3V157.744ZM1528.63 158.542C1528.1 158.08 1527.02 157.52 1526.21 157.184L1525.27 158.444C1526.11 158.808 1527.16 159.438 1527.66 159.914L1528.63 158.542ZM1527.87 162.224C1527.34 161.776 1526.28 161.244 1525.45 160.95L1524.55 162.196C1525.38 162.56 1526.42 163.148 1526.91 163.61L1527.87 162.224ZM1527.05 164.59C1526.33 166.228 1525.44 167.992 1524.79 169.07L1526.28 170.05C1526.99 168.692 1527.73 167.082 1528.35 165.584L1527.05 164.59ZM1530.42 165.542H1531.2V168.356H1530.42V165.542ZM1533.22 165.542V168.356H1532.44V165.542H1533.22ZM1535.26 165.542V168.356H1534.47V165.542H1535.26ZM1536.83 168.356V164.142H1528.94V168.356H1527.77V169.798H1537.69V168.356H1536.83ZM1541.82 167.306V164.562H1544.04V167.306H1541.82ZM1544.04 163.12H1541.82V160.852H1544.04V163.12ZM1548.49 159.298C1548.7 158.71 1548.89 158.122 1549.04 157.52L1547.44 157.156C1547.04 158.794 1546.37 160.488 1545.55 161.664V159.396H1543.38C1543.62 158.794 1543.87 158.094 1544.11 157.394L1542.29 157.142C1542.24 157.8 1542.07 158.696 1541.89 159.396H1540.3V169.798H1541.82V168.776H1545.55V162.238C1545.93 162.49 1546.41 162.812 1546.63 163.022C1547.07 162.42 1547.5 161.65 1547.86 160.81H1550.86C1550.71 165.752 1550.52 167.852 1550.12 168.3C1549.94 168.482 1549.78 168.538 1549.5 168.538C1549.14 168.538 1548.31 168.538 1547.42 168.454C1547.71 168.916 1547.93 169.616 1547.96 170.078C1548.79 170.106 1549.63 170.12 1550.16 170.05C1550.72 169.952 1551.11 169.798 1551.5 169.28C1552.08 168.538 1552.23 166.312 1552.41 160.054C1552.43 159.858 1552.43 159.298 1552.43 159.298H1548.49ZM1550.1 165.682C1549.67 164.87 1548.75 163.54 1548.05 162.574L1546.74 163.316C1547.43 164.338 1548.3 165.71 1548.69 166.55L1550.1 165.682ZM1559.3 158.948V159.704H1557.16V158.948H1559.3ZM1557.16 161.622V160.824H1559.3V161.622H1557.16ZM1560.86 162.882V157.674H1555.51V170.218H1557.16V162.882H1560.86ZM1562.47 165.22V166.872H1560.16V165.22H1562.47ZM1564.02 168.244V163.848H1558.6V169.028H1560.16V168.244H1564.02ZM1563.4 161.636V160.824H1565.62V161.636H1563.4ZM1565.62 158.934V159.704H1563.4V158.934H1565.62ZM1567.3 157.674H1561.82V162.896H1565.62V168.202C1565.62 168.454 1565.52 168.538 1565.25 168.538C1564.99 168.552 1564.03 168.566 1563.22 168.51C1563.46 168.958 1563.73 169.742 1563.78 170.218C1565.07 170.218 1565.95 170.176 1566.53 169.896C1567.11 169.63 1567.3 169.154 1567.3 168.23V157.674ZM1572.2 170.932C1573.93 170.414 1574.95 169.126 1574.95 167.53C1574.95 166.354 1574.44 165.612 1573.44 165.612C1572.7 165.612 1572.07 166.088 1572.07 166.872C1572.07 167.67 1572.7 168.118 1573.4 168.118C1573.46 168.118 1573.51 168.118 1573.55 168.104C1573.47 168.846 1572.84 169.448 1571.75 169.798L1572.2 170.932ZM1595.2 162.182H1591.39V161.328C1591.61 161.496 1591.92 161.846 1592.06 162.056C1592.55 161.79 1592.94 161.398 1593.25 160.936C1593.67 161.328 1594.09 161.748 1594.34 162.042L1595.1 161.328C1594.79 161.006 1594.19 160.488 1593.69 160.068C1593.8 159.788 1593.9 159.494 1593.95 159.2L1592.85 159.074C1592.72 159.956 1592.26 160.838 1591.39 161.3V158.976H1595.2V162.182ZM1596.78 157.744H1589.89V163.428H1596.78V157.744ZM1589.11 158.542C1588.58 158.08 1587.5 157.52 1586.69 157.184L1585.75 158.444C1586.59 158.808 1587.64 159.438 1588.14 159.914L1589.11 158.542ZM1588.35 162.224C1587.82 161.776 1586.76 161.244 1585.93 160.95L1585.03 162.196C1585.86 162.56 1586.9 163.148 1587.39 163.61L1588.35 162.224ZM1587.53 164.59C1586.81 166.228 1585.92 167.992 1585.27 169.07L1586.76 170.05C1587.47 168.692 1588.21 167.082 1588.83 165.584L1587.53 164.59ZM1590.9 165.542H1591.68V168.356H1590.9V165.542ZM1593.7 165.542V168.356H1592.92V165.542H1593.7ZM1595.74 165.542V168.356H1594.95V165.542H1595.74ZM1597.31 168.356V164.142H1589.42V168.356H1588.25V169.798H1598.17V168.356H1597.31ZM1610.32 162.182H1606.51V161.328C1606.73 161.496 1607.04 161.846 1607.18 162.056C1607.67 161.79 1608.06 161.398 1608.37 160.936C1608.79 161.328 1609.21 161.748 1609.46 162.042L1610.22 161.328C1609.91 161.006 1609.31 160.488 1608.81 160.068C1608.92 159.788 1609.02 159.494 1609.07 159.2L1607.97 159.074C1607.84 159.956 1607.38 160.838 1606.51 161.3V158.976H1610.32V162.182ZM1611.9 157.744H1605.01V163.428H1611.9V157.744ZM1604.23 158.542C1603.7 158.08 1602.62 157.52 1601.81 157.184L1600.87 158.444C1601.71 158.808 1602.76 159.438 1603.26 159.914L1604.23 158.542ZM1603.47 162.224C1602.94 161.776 1601.88 161.244 1601.05 160.95L1600.15 162.196C1600.98 162.56 1602.02 163.148 1602.51 163.61L1603.47 162.224ZM1602.65 164.59C1601.93 166.228 1601.04 167.992 1600.39 169.07L1601.88 170.05C1602.59 168.692 1603.33 167.082 1603.95 165.584L1602.65 164.59ZM1606.02 165.542H1606.8V168.356H1606.02V165.542ZM1608.82 165.542V168.356H1608.04V165.542H1608.82ZM1610.86 165.542V168.356H1610.07V165.542H1610.86ZM1612.43 168.356V164.142H1604.54V168.356H1603.37V169.798H1613.29V168.356H1612.43ZM1617.42 167.306V164.562H1619.64V167.306H1617.42ZM1619.64 163.12H1617.42V160.852H1619.64V163.12ZM1624.09 159.298C1624.3 158.71 1624.49 158.122 1624.64 157.52L1623.04 157.156C1622.64 158.794 1621.97 160.488 1621.15 161.664V159.396H1618.98C1619.22 158.794 1619.47 158.094 1619.71 157.394L1617.89 157.142C1617.84 157.8 1617.67 158.696 1617.49 159.396H1615.9V169.798H1617.42V168.776H1621.15V162.238C1621.53 162.49 1622.01 162.812 1622.23 163.022C1622.67 162.42 1623.1 161.65 1623.46 160.81H1626.46C1626.31 165.752 1626.12 167.852 1625.72 168.3C1625.54 168.482 1625.38 168.538 1625.1 168.538C1624.74 168.538 1623.91 168.538 1623.02 168.454C1623.31 168.916 1623.53 169.616 1623.56 170.078C1624.39 170.106 1625.23 170.12 1625.76 170.05C1626.32 169.952 1626.71 169.798 1627.1 169.28C1627.68 168.538 1627.83 166.312 1628.01 160.054C1628.03 159.858 1628.03 159.298 1628.03 159.298H1624.09ZM1625.7 165.682C1625.27 164.87 1624.35 163.54 1623.65 162.574L1622.34 163.316C1623.03 164.338 1623.9 165.71 1624.29 166.55L1625.7 165.682ZM1639.48 167.082V168.398H1634.4V167.082H1639.48ZM1632.8 170.218H1634.4V169.84H1639.48V170.176H1641.15V165.654H1632.8V170.218ZM1635.17 163.372C1635.85 162.854 1636.46 162.308 1636.9 161.776C1637.37 162.308 1638 162.854 1638.7 163.372H1635.17ZM1639.19 159.648C1639.56 160.208 1639.97 160.852 1640.14 161.3L1641.68 160.754C1641.54 160.432 1641.29 160.04 1641.01 159.648H1643.27V158.248H1639.37C1639.49 157.954 1639.62 157.66 1639.73 157.366L1638.09 156.988C1637.8 157.842 1637.31 158.696 1636.72 159.368V158.248H1633.68C1633.82 157.968 1633.94 157.674 1634.05 157.394L1632.45 156.988C1632 158.276 1631.19 159.62 1630.3 160.446C1630.69 160.656 1631.36 161.104 1631.68 161.356C1632.1 160.894 1632.54 160.306 1632.94 159.648H1633.08C1633.42 160.208 1633.73 160.866 1633.85 161.3L1635.32 160.81C1635.21 160.474 1634.99 160.054 1634.75 159.648H1636.46C1636.34 159.746 1636.25 159.844 1636.13 159.928C1636.33 160.026 1636.6 160.194 1636.86 160.376H1636.05C1634.92 161.832 1632.68 163.456 1630.32 164.324C1630.65 164.674 1631.04 165.262 1631.22 165.612C1632.24 165.192 1633.25 164.66 1634.17 164.058V164.73H1639.77V164.1C1640.71 164.702 1641.72 165.22 1642.66 165.584C1642.92 165.15 1643.26 164.59 1643.64 164.198C1641.54 163.568 1639.34 162.266 1637.83 160.586C1638.08 160.32 1638.32 159.998 1638.56 159.648H1639.19ZM1522.33 186.01H1519.04V185.142H1517.34V186.01H1514.19V187.2H1522.33V186.01ZM1513.7 185.576H1510.12V186.836H1513.7V185.576ZM1514.08 187.452H1509.46V188.768H1514.08V187.452ZM1512.39 194.55V196.16H1511.28V194.55H1512.39ZM1513.72 193.248H1509.99V198.022H1511.28V197.462H1513.72V193.248ZM1510.04 192.562H1513.75V191.316H1510.04V192.562ZM1510.04 190.672H1513.75V189.398H1510.04V190.672ZM1517.16 195.264C1517.47 195.082 1517.75 194.886 1517.99 194.676H1518.21C1518.41 195.236 1518.67 195.754 1518.98 196.216C1518.38 196.3 1517.75 196.398 1517.16 196.482V195.264ZM1517.5 193.08H1518.98V193.542H1517.5V193.08ZM1517.5 191.638H1518.98V192.086H1517.5V191.638ZM1515.87 189.174V188.446H1516.77V189.174H1515.87ZM1519.74 188.446H1520.68V189.174H1519.74V188.446ZM1521.53 194.718C1521.17 194.956 1520.62 195.292 1520.14 195.558C1519.92 195.292 1519.72 194.998 1519.57 194.676H1522.4V193.542H1520.48V193.08H1522.03V192.086H1520.48V191.638H1522.2V190.644H1520.48V190.028H1521.94V187.578H1518.55V190.028H1518.98V190.644H1517.5V190.028H1518.03V187.578H1514.68V190.028H1516.03V190.644H1514.49V191.638H1516.03V192.086H1514.67V193.08H1516.03V193.542H1514.04V194.676H1515.97C1515.3 194.97 1514.52 195.208 1513.77 195.376C1514 195.614 1514.38 196.16 1514.53 196.412C1514.94 196.286 1515.34 196.146 1515.75 195.978V196.706C1515.34 196.762 1514.96 196.818 1514.63 196.86L1515.02 198.106C1516.2 197.91 1517.71 197.658 1519.15 197.392L1519.07 196.314C1519.72 197.21 1520.62 197.882 1521.82 198.246C1521.99 197.882 1522.37 197.35 1522.68 197.084C1522.01 196.916 1521.42 196.65 1520.93 196.3C1521.4 196.09 1521.94 195.824 1522.37 195.53L1521.53 194.718ZM1537.73 185.072H1533.09V194.018H1534.75V186.584H1537.73V185.072ZM1544.18 186.948V187.704H1542.04V186.948H1544.18ZM1542.04 189.622V188.824H1544.18V189.622H1542.04ZM1545.74 190.882V185.674H1540.39V198.218H1542.04V190.882H1545.74ZM1547.35 193.22V194.872H1545.04V193.22H1547.35ZM1548.9 196.244V191.848H1543.48V197.028H1545.04V196.244H1548.9ZM1548.28 189.636V188.824H1550.5V189.636H1548.28ZM1550.5 186.934V187.704H1548.28V186.934H1550.5ZM1552.18 185.674H1546.7V190.896H1550.5V196.202C1550.5 196.454 1550.4 196.538 1550.13 196.538C1549.87 196.552 1548.91 196.566 1548.1 196.51C1548.34 196.958 1548.61 197.742 1548.66 198.218C1549.95 198.218 1550.83 198.176 1551.41 197.896C1551.99 197.63 1552.18 197.154 1552.18 196.23V185.674ZM1563.88 195.082V196.398H1558.8V195.082H1563.88ZM1557.2 198.218H1558.8V197.84H1563.88V198.176H1565.55V193.654H1557.2V198.218ZM1559.57 191.372C1560.25 190.854 1560.86 190.308 1561.3 189.776C1561.77 190.308 1562.4 190.854 1563.1 191.372H1559.57ZM1563.59 187.648C1563.96 188.208 1564.37 188.852 1564.54 189.3L1566.08 188.754C1565.94 188.432 1565.69 188.04 1565.41 187.648H1567.67V186.248H1563.77C1563.89 185.954 1564.02 185.66 1564.13 185.366L1562.49 184.988C1562.2 185.842 1561.71 186.696 1561.12 187.368V186.248H1558.08C1558.22 185.968 1558.34 185.674 1558.45 185.394L1556.85 184.988C1556.4 186.276 1555.59 187.62 1554.7 188.446C1555.09 188.656 1555.76 189.104 1556.08 189.356C1556.5 188.894 1556.94 188.306 1557.34 187.648H1557.48C1557.82 188.208 1558.13 188.866 1558.25 189.3L1559.72 188.81C1559.61 188.474 1559.39 188.054 1559.15 187.648H1560.86C1560.74 187.746 1560.65 187.844 1560.53 187.928C1560.73 188.026 1561 188.194 1561.26 188.376H1560.45C1559.32 189.832 1557.08 191.456 1554.72 192.324C1555.05 192.674 1555.44 193.262 1555.62 193.612C1556.64 193.192 1557.65 192.66 1558.57 192.058V192.73H1564.17V192.1C1565.11 192.702 1566.12 193.22 1567.06 193.584C1567.32 193.15 1567.66 192.59 1568.04 192.198C1565.94 191.568 1563.74 190.266 1562.23 188.586C1562.48 188.32 1562.72 187.998 1562.96 187.648H1563.59ZM1569.87 198.288H1574.52V189.342H1572.85V196.776H1569.87V198.288ZM1595.59 189.608C1595.25 190.742 1594.79 191.778 1594.25 192.716C1594.01 191.596 1593.81 190.28 1593.69 188.88H1598.01V187.228H1596.56L1597.23 186.514C1596.74 186.052 1595.72 185.408 1594.95 185.016L1593.94 186.01C1594.51 186.36 1595.21 186.808 1595.73 187.228H1593.59C1593.56 186.542 1593.55 185.856 1593.56 185.156H1591.81C1591.81 185.856 1591.84 186.542 1591.87 187.228H1586.15V191.316C1586.15 193.136 1586.06 195.572 1584.99 197.252C1585.37 197.448 1586.11 198.064 1586.41 198.386C1587.55 196.678 1587.85 193.948 1587.9 191.904H1589.72C1589.68 193.668 1589.63 194.34 1589.49 194.536C1589.37 194.676 1589.26 194.704 1589.07 194.704C1588.84 194.704 1588.37 194.69 1587.86 194.648C1588.11 195.068 1588.3 195.712 1588.32 196.202C1588.97 196.216 1589.57 196.216 1589.93 196.16C1590.35 196.09 1590.63 195.964 1590.9 195.6C1591.22 195.194 1591.31 193.948 1591.35 191.008C1591.35 190.812 1591.36 190.378 1591.36 190.378H1587.9V188.88H1591.96C1592.15 190.98 1592.45 192.94 1592.93 194.522C1592.12 195.432 1591.15 196.202 1590.07 196.79C1590.42 197.112 1591.03 197.798 1591.28 198.162C1592.15 197.63 1592.93 197 1593.64 196.258C1594.26 197.406 1595.03 198.106 1596.01 198.106C1597.31 198.106 1597.87 197.49 1598.14 194.9C1597.69 194.718 1597.1 194.354 1596.72 193.962C1596.65 195.712 1596.49 196.412 1596.15 196.412C1595.7 196.412 1595.25 195.824 1594.85 194.816C1595.86 193.458 1596.68 191.834 1597.26 190.014L1595.59 189.608ZM1604.13 194.802C1604.35 195.698 1604.49 196.902 1604.45 197.658L1605.88 197.49C1605.88 196.706 1605.74 195.53 1605.47 194.634L1604.13 194.802ZM1606.23 194.676C1606.52 195.46 1606.83 196.51 1606.92 197.196L1608.25 196.846C1608.15 196.188 1607.83 195.152 1607.5 194.382L1606.23 194.676ZM1609.23 188.908C1609.14 189.286 1609.06 189.65 1608.97 189.972H1606.27C1606.48 189.622 1606.66 189.272 1606.85 188.908H1609.23ZM1610.15 191.4C1610.08 191.792 1610 192.156 1609.91 192.492H1604.49C1604.8 192.142 1605.08 191.778 1605.36 191.4H1610.15ZM1612.96 192.492H1611.41C1611.61 191.736 1611.79 190.798 1611.94 189.972H1610.49C1610.67 189.202 1610.88 188.236 1611.05 187.41H1607.52C1607.76 186.794 1607.98 186.164 1608.18 185.534L1606.47 185.142C1606.27 185.898 1606.02 186.668 1605.7 187.41H1603.95L1605.04 186.962C1604.76 186.444 1604.17 185.674 1603.67 185.142L1602.17 185.73C1602.6 186.234 1603.08 186.906 1603.35 187.41H1600.62V188.908H1604.98C1603.85 190.994 1602.2 192.814 1599.96 193.948C1600.25 194.326 1600.66 194.984 1600.85 195.404C1601.33 195.138 1601.79 194.858 1602.21 194.55C1601.96 195.572 1601.51 196.594 1600.84 197.252L1602.13 198.162C1602.95 197.294 1603.37 195.992 1603.65 194.788L1602.45 194.382C1602.65 194.242 1602.84 194.074 1603.04 193.92H1611.2C1611.03 195.6 1610.84 196.356 1610.6 196.594C1610.46 196.734 1610.32 196.748 1610.09 196.748C1609.81 196.762 1609.23 196.748 1608.62 196.692C1608.88 197.112 1609.06 197.742 1609.09 198.204C1609.8 198.232 1610.46 198.232 1610.86 198.176C1611.33 198.12 1611.65 198.008 1611.98 197.644C1612.43 197.182 1612.68 195.964 1612.92 193.136L1612.96 192.492ZM1610.37 195.866C1610.23 195.348 1609.86 194.592 1609.48 194.018L1608.33 194.41C1608.68 194.998 1609.03 195.81 1609.16 196.3L1610.37 195.866ZM1622.4 191.442C1622.37 193.514 1622.33 194.256 1622.2 194.466C1622.11 194.592 1622.01 194.634 1621.85 194.634C1621.7 194.634 1621.43 194.634 1621.08 194.592C1621.25 193.598 1621.29 192.59 1621.29 191.722V191.442H1622.4ZM1626.7 189.972C1626.49 190.924 1626.22 191.82 1625.87 192.632C1625.72 191.442 1625.62 190.056 1625.55 188.586H1628.22V187.074H1627.45L1628.04 186.71C1627.79 186.248 1627.2 185.562 1626.68 185.072L1625.55 185.744C1625.93 186.136 1626.33 186.64 1626.61 187.074H1625.52C1625.51 186.43 1625.51 185.786 1625.52 185.128H1623.95C1623.95 185.772 1623.97 186.416 1623.98 187.074H1619.77V191.722C1619.77 192.576 1619.74 193.57 1619.54 194.508L1619.35 193.486L1618.27 193.864V190H1619.36V188.46H1618.27V185.324H1616.73V188.46H1615.51V190H1616.73V194.41C1616.18 194.592 1615.69 194.76 1615.27 194.872L1615.81 196.538C1616.87 196.104 1618.19 195.558 1619.42 195.054C1619.22 195.838 1618.86 196.608 1618.3 197.238C1618.65 197.448 1619.28 197.98 1619.5 198.26C1620.4 197.294 1620.85 195.978 1621.07 194.634C1621.27 194.984 1621.38 195.53 1621.42 195.95C1621.9 195.964 1622.34 195.95 1622.62 195.894C1622.96 195.838 1623.17 195.712 1623.39 195.404C1623.67 195.026 1623.73 193.78 1623.77 190.658C1623.79 190.476 1623.79 190.098 1623.79 190.098H1621.29V188.586H1624.04C1624.12 190.882 1624.32 193.066 1624.7 194.746C1623.98 195.712 1623.11 196.51 1622.08 197.126C1622.43 197.364 1623.02 197.952 1623.24 198.232C1623.97 197.742 1624.63 197.168 1625.2 196.496C1625.61 197.462 1626.14 198.05 1626.82 198.05C1627.9 198.05 1628.34 197.448 1628.55 195.292C1628.17 195.138 1627.69 194.774 1627.38 194.424C1627.34 195.852 1627.23 196.51 1627.02 196.51C1626.75 196.51 1626.5 195.978 1626.28 195.054C1627.13 193.71 1627.75 192.086 1628.2 190.252L1626.7 189.972ZM1643.37 188.53V186.906H1637.81V185.086H1636.04V186.906H1630.6V188.53H1636.05V190H1631.92V196.538H1633.6V191.624H1636.05V198.232H1637.79V191.624H1640.46V194.704C1640.46 194.858 1640.39 194.928 1640.17 194.928C1639.94 194.928 1639.12 194.928 1638.42 194.9C1638.65 195.348 1638.91 196.062 1638.98 196.538C1640.07 196.538 1640.87 196.51 1641.45 196.258C1642.03 196.006 1642.2 195.53 1642.2 194.732V190H1637.79V188.53H1643.37ZM1647.66 195.306V192.562H1649.88V195.306H1647.66ZM1649.88 191.12H1647.66V188.852H1649.88V191.12ZM1654.33 187.298C1654.54 186.71 1654.73 186.122 1654.88 185.52L1653.28 185.156C1652.88 186.794 1652.21 188.488 1651.39 189.664V187.396H1649.22C1649.46 186.794 1649.71 186.094 1649.95 185.394L1648.13 185.142C1648.08 185.8 1647.91 186.696 1647.73 187.396H1646.14V197.798H1647.66V196.776H1651.39V190.238C1651.77 190.49 1652.25 190.812 1652.47 191.022C1652.91 190.42 1653.34 189.65 1653.7 188.81H1656.7C1656.55 193.752 1656.36 195.852 1655.96 196.3C1655.78 196.482 1655.62 196.538 1655.34 196.538C1654.98 196.538 1654.15 196.538 1653.26 196.454C1653.55 196.916 1653.77 197.616 1653.8 198.078C1654.63 198.106 1655.47 198.12 1656 198.05C1656.56 197.952 1656.95 197.798 1657.34 197.28C1657.92 196.538 1658.07 194.312 1658.25 188.054C1658.27 187.858 1658.27 187.298 1658.27 187.298H1654.33ZM1655.94 193.682C1655.51 192.87 1654.59 191.54 1653.89 190.574L1652.58 191.316C1653.27 192.338 1654.14 193.71 1654.53 194.55L1655.94 193.682ZM1665.02 195.32H1667.55V194.144H1665.02V193.598H1667.49V189.272H1665.02V188.726H1667.7V189.818H1668.98C1668.88 192.324 1668.54 194.326 1667.45 195.838C1666.64 195.908 1665.81 195.978 1665.02 196.034V195.32ZM1662.41 192.562V191.932H1663.5V192.562H1662.41ZM1666.11 191.932V192.562H1665.02V191.932H1666.11ZM1665.02 190.938V190.322H1666.11V190.938H1665.02ZM1662.41 190.322H1663.5V190.938H1662.41V190.322ZM1670.6 188.292C1670.63 187.368 1670.63 186.388 1670.63 185.366H1669.03C1669.03 186.402 1669.03 187.368 1669.02 188.292H1667.7V187.522H1665.02V186.836C1665.93 186.738 1666.79 186.612 1667.54 186.458L1666.81 185.212C1665.27 185.548 1662.85 185.786 1660.77 185.898C1660.93 186.22 1661.08 186.738 1661.14 187.074C1661.89 187.06 1662.69 187.018 1663.5 186.962V187.522H1660.75V188.726H1663.5V189.272H1661.1V193.598H1663.5V194.144H1661.04V195.32H1663.5V196.16C1662.43 196.23 1661.45 196.3 1660.66 196.356L1660.86 197.756C1662.37 197.63 1664.39 197.42 1666.4 197.21C1666.77 197.518 1667.17 197.98 1667.38 198.316C1669.73 196.454 1670.38 193.57 1670.56 189.818H1671.82C1671.74 194.34 1671.6 196.048 1671.3 196.426C1671.18 196.608 1671.04 196.664 1670.83 196.664C1670.56 196.664 1670.03 196.65 1669.41 196.594C1669.69 197.056 1669.87 197.728 1669.9 198.19C1670.57 198.204 1671.22 198.218 1671.64 198.134C1672.1 198.036 1672.42 197.896 1672.74 197.434C1673.19 196.79 1673.3 194.76 1673.43 189.034C1673.43 188.838 1673.44 188.292 1673.44 188.292H1670.6ZM1680.6 185.576H1676.48V186.836H1680.6V185.576ZM1679.24 194.564V196.174H1677.8V194.564H1679.24ZM1680.65 193.248H1676.4V198.022H1677.8V197.476H1680.65V193.248ZM1676.44 192.562H1680.64V191.316H1676.44V192.562ZM1680.64 189.398H1676.44V190.672H1680.64V189.398ZM1675.78 188.768H1681.03V187.452H1675.78V188.768ZM1684.32 191.988V193.752H1683.05V191.988H1684.32ZM1685.78 195.152V190.588H1681.62V195.88H1683.05V195.152H1685.78ZM1686.09 188.236H1681.42V189.678H1686.09V188.236ZM1688.4 185.73H1681.38V187.284H1686.77V196.202C1686.77 196.44 1686.69 196.524 1686.42 196.524C1686.16 196.538 1685.26 196.538 1684.45 196.482C1684.69 196.944 1684.94 197.742 1684.99 198.218C1686.25 198.218 1687.09 198.176 1687.65 197.896C1688.21 197.63 1688.4 197.126 1688.4 196.23V185.73ZM1522.33 214.01H1519.04V213.142H1517.34V214.01H1514.19V215.2H1522.33V214.01ZM1513.7 213.576H1510.12V214.836H1513.7V213.576ZM1514.08 215.452H1509.46V216.768H1514.08V215.452ZM1512.39 222.55V224.16H1511.28V222.55H1512.39ZM1513.72 221.248H1509.99V226.022H1511.28V225.462H1513.72V221.248ZM1510.04 220.562H1513.75V219.316H1510.04V220.562ZM1510.04 218.672H1513.75V217.398H1510.04V218.672ZM1517.16 223.264C1517.47 223.082 1517.75 222.886 1517.99 222.676H1518.21C1518.41 223.236 1518.67 223.754 1518.98 224.216C1518.38 224.3 1517.75 224.398 1517.16 224.482V223.264ZM1517.5 221.08H1518.98V221.542H1517.5V221.08ZM1517.5 219.638H1518.98V220.086H1517.5V219.638ZM1515.87 217.174V216.446H1516.77V217.174H1515.87ZM1519.74 216.446H1520.68V217.174H1519.74V216.446ZM1521.53 222.718C1521.17 222.956 1520.62 223.292 1520.14 223.558C1519.92 223.292 1519.72 222.998 1519.57 222.676H1522.4V221.542H1520.48V221.08H1522.03V220.086H1520.48V219.638H1522.2V218.644H1520.48V218.028H1521.94V215.578H1518.55V218.028H1518.98V218.644H1517.5V218.028H1518.03V215.578H1514.68V218.028H1516.03V218.644H1514.49V219.638H1516.03V220.086H1514.67V221.08H1516.03V221.542H1514.04V222.676H1515.97C1515.3 222.97 1514.52 223.208 1513.77 223.376C1514 223.614 1514.38 224.16 1514.53 224.412C1514.94 224.286 1515.34 224.146 1515.75 223.978V224.706C1515.34 224.762 1514.96 224.818 1514.63 224.86L1515.02 226.106C1516.2 225.91 1517.71 225.658 1519.15 225.392L1519.07 224.314C1519.72 225.21 1520.62 225.882 1521.82 226.246C1521.99 225.882 1522.37 225.35 1522.68 225.084C1522.01 224.916 1521.42 224.65 1520.93 224.3C1521.4 224.09 1521.94 223.824 1522.37 223.53L1521.53 222.718ZM1529.66 215.928H1532.62V217.244H1534.28V215.928H1537.32V214.332H1534.28V213.142H1532.62V214.332H1529.66V213.142H1528.01V214.332H1524.92V215.928H1528.01V217.076C1527.23 218.728 1525.84 220.38 1524.39 221.388C1524.78 221.654 1525.45 222.242 1525.76 222.564C1526.16 222.228 1526.58 221.836 1526.99 221.402V226.218H1528.64V219.33C1529.02 218.77 1529.37 218.182 1529.66 217.58L1528.47 217.216H1529.66V215.928ZM1533.57 224.468C1532.95 224.468 1532.87 224.384 1532.87 223.768V221.598C1534.33 221.024 1535.94 220.296 1537.17 219.54L1535.92 218.28C1535.14 218.854 1534.02 219.526 1532.87 220.072V217.314H1531.22V223.768C1531.22 225.504 1531.67 226.008 1533.36 226.008H1535.54C1537.04 226.008 1537.48 225.336 1537.67 223.068C1537.22 222.956 1536.52 222.704 1536.16 222.41C1536.08 224.146 1535.98 224.468 1535.4 224.468H1533.57ZM1550.1 219.022V219.568H1548.62V219.022H1550.1ZM1550.1 221.052H1548.62V220.492H1550.1V221.052ZM1545.65 221.052V220.492H1547.08V221.052H1545.65ZM1545.65 219.022H1547.08V219.568H1545.65V219.022ZM1542.96 216.096H1544.62V215.242H1547.82V215.816H1547.08V216.432H1543.73V217.538H1547.08V218.056H1544.15V222.032H1547.08V222.564H1543.52V223.74H1547.08V224.426H1548.62V223.74H1552.33V222.564H1548.62V222.032H1551.69V218.056H1548.62V217.538H1552.13V216.432H1548.62V216.054H1549.47V215.242H1552.48V213.884H1549.47V213.156H1547.82V213.884H1544.62V213.156H1542.96V213.884H1540.01V215.242H1542.96V216.096ZM1543.08 217.664C1542.7 217.132 1541.86 216.404 1541.2 215.928L1540.01 216.81C1540.67 217.328 1541.45 218.112 1541.8 218.658L1543.08 217.664ZM1542.96 219.554H1539.9V220.954H1541.42V223.544C1540.84 223.964 1540.19 224.356 1539.65 224.678L1540.32 226.148C1541.07 225.602 1541.72 225.084 1542.35 224.566C1543.15 225.574 1544.2 225.966 1545.79 226.036C1547.5 226.092 1550.64 226.064 1552.39 225.98C1552.46 225.574 1552.67 224.888 1552.83 224.552C1550.94 224.692 1547.49 224.734 1545.79 224.664C1544.45 224.608 1543.5 224.23 1542.96 223.348V219.554ZM1565.35 217.608C1565.01 218.742 1564.55 219.778 1564.01 220.716C1563.77 219.596 1563.57 218.28 1563.45 216.88H1567.77V215.228H1566.32L1566.99 214.514C1566.5 214.052 1565.48 213.408 1564.71 213.016L1563.7 214.01C1564.27 214.36 1564.97 214.808 1565.49 215.228H1563.35C1563.32 214.542 1563.31 213.856 1563.32 213.156H1561.57C1561.57 213.856 1561.6 214.542 1561.63 215.228H1555.91V219.316C1555.91 221.136 1555.82 223.572 1554.75 225.252C1555.13 225.448 1555.87 226.064 1556.17 226.386C1557.31 224.678 1557.61 221.948 1557.66 219.904H1559.48C1559.44 221.668 1559.39 222.34 1559.25 222.536C1559.13 222.676 1559.02 222.704 1558.83 222.704C1558.6 222.704 1558.13 222.69 1557.62 222.648C1557.87 223.068 1558.06 223.712 1558.08 224.202C1558.73 224.216 1559.33 224.216 1559.69 224.16C1560.11 224.09 1560.39 223.964 1560.66 223.6C1560.98 223.194 1561.07 221.948 1561.11 219.008C1561.11 218.812 1561.12 218.378 1561.12 218.378H1557.66V216.88H1561.72C1561.91 218.98 1562.21 220.94 1562.69 222.522C1561.88 223.432 1560.91 224.202 1559.83 224.79C1560.18 225.112 1560.79 225.798 1561.04 226.162C1561.91 225.63 1562.69 225 1563.4 224.258C1564.02 225.406 1564.79 226.106 1565.77 226.106C1567.07 226.106 1567.63 225.49 1567.9 222.9C1567.45 222.718 1566.86 222.354 1566.48 221.962C1566.41 223.712 1566.25 224.412 1565.91 224.412C1565.46 224.412 1565.01 223.824 1564.61 222.816C1565.62 221.458 1566.44 219.834 1567.02 218.014L1565.35 217.608ZM1573.89 222.802C1574.11 223.698 1574.25 224.902 1574.21 225.658L1575.64 225.49C1575.64 224.706 1575.5 223.53 1575.23 222.634L1573.89 222.802ZM1575.99 222.676C1576.28 223.46 1576.59 224.51 1576.68 225.196L1578.01 224.846C1577.91 224.188 1577.59 223.152 1577.26 222.382L1575.99 222.676ZM1578.99 216.908C1578.9 217.286 1578.82 217.65 1578.73 217.972H1576.03C1576.24 217.622 1576.42 217.272 1576.61 216.908H1578.99ZM1579.91 219.4C1579.84 219.792 1579.76 220.156 1579.67 220.492H1574.25C1574.56 220.142 1574.84 219.778 1575.12 219.4H1579.91ZM1582.72 220.492H1581.17C1581.37 219.736 1581.55 218.798 1581.7 217.972H1580.25C1580.43 217.202 1580.64 216.236 1580.81 215.41H1577.28C1577.52 214.794 1577.74 214.164 1577.94 213.534L1576.23 213.142C1576.03 213.898 1575.78 214.668 1575.46 215.41H1573.71L1574.8 214.962C1574.52 214.444 1573.93 213.674 1573.43 213.142L1571.93 213.73C1572.36 214.234 1572.84 214.906 1573.11 215.41H1570.38V216.908H1574.74C1573.61 218.994 1571.96 220.814 1569.72 221.948C1570.01 222.326 1570.42 222.984 1570.61 223.404C1571.09 223.138 1571.55 222.858 1571.97 222.55C1571.72 223.572 1571.27 224.594 1570.6 225.252L1571.89 226.162C1572.71 225.294 1573.13 223.992 1573.41 222.788L1572.21 222.382C1572.41 222.242 1572.6 222.074 1572.8 221.92H1580.96C1580.79 223.6 1580.6 224.356 1580.36 224.594C1580.22 224.734 1580.08 224.748 1579.85 224.748C1579.57 224.762 1578.99 224.748 1578.38 224.692C1578.64 225.112 1578.82 225.742 1578.85 226.204C1579.56 226.232 1580.22 226.232 1580.62 226.176C1581.09 226.12 1581.41 226.008 1581.74 225.644C1582.19 225.182 1582.44 223.964 1582.68 221.136L1582.72 220.492ZM1580.13 223.866C1579.99 223.348 1579.62 222.592 1579.24 222.018L1578.09 222.41C1578.44 222.998 1578.79 223.81 1578.92 224.3L1580.13 223.866ZM1585.17 218.644V220.45H1598.05V218.644H1585.17ZM1608.69 223.068H1612.42V221.626H1608.69V220.45C1608.99 220.688 1609.28 220.954 1609.44 221.136C1609.94 220.744 1610.36 220.254 1610.7 219.694C1611.31 220.226 1611.91 220.786 1612.28 221.192L1613.24 220.044C1612.81 219.596 1612.03 218.938 1611.31 218.364C1611.48 217.874 1611.61 217.328 1611.69 216.754L1610.21 216.586C1610.02 217.944 1609.55 219.064 1608.69 219.82V216.404H1607.08V219.666C1606.76 219.288 1606.26 218.812 1605.78 218.378C1605.94 217.874 1606.05 217.3 1606.12 216.698L1604.61 216.586C1604.44 218.21 1603.91 219.484 1602.76 220.254C1602.8 219.512 1602.81 218.826 1602.81 218.224V215.942H1613.08V214.416H1608.02V213.156H1606.29V214.416H1601.18V218.21C1601.18 220.254 1601.09 223.18 1600 225.182C1600.39 225.35 1601.12 225.826 1601.41 226.106C1602.28 224.51 1602.63 222.242 1602.76 220.254C1603.09 220.478 1603.71 220.968 1603.96 221.234C1604.47 220.828 1604.89 220.324 1605.22 219.736C1605.64 220.17 1606.06 220.618 1606.29 220.954L1607.08 220.002V221.626H1603.57V223.068H1607.08V224.454H1602.69V225.882H1613.17V224.454H1608.69V223.068ZM1619 216.894C1617.65 217.356 1616.28 217.832 1615.37 218.112L1615.95 219.47C1616.94 219.064 1618.13 218.574 1619.25 218.084L1619 216.894ZM1624.89 222.424H1618.9V221.612H1624.89V222.424ZM1618.9 224.482V223.67H1624.89V224.482H1618.9ZM1621.24 219.12C1621.32 218.938 1621.35 218.7 1621.35 218.392V213.758H1615.74V215.046H1616.8L1616.1 215.886C1616.73 216.222 1617.51 216.768 1617.86 217.16L1618.7 216.096C1618.37 215.774 1617.71 215.354 1617.15 215.046H1619.85V218.378C1619.85 218.518 1619.8 218.574 1619.64 218.574C1619.49 218.574 1618.94 218.574 1618.47 218.56C1618.63 218.882 1618.83 219.372 1618.89 219.736C1619.74 219.736 1620.36 219.736 1620.79 219.554L1620.83 219.54C1620.75 219.792 1620.65 220.086 1620.54 220.352H1617.25V226.246H1618.9V225.742H1624.89V226.246H1626.63V220.352H1622.19C1622.37 220.044 1622.57 219.694 1622.74 219.33L1621.24 219.12ZM1627.68 213.758H1622.11V215.046H1623.02L1622.34 215.872C1622.95 216.194 1623.72 216.698 1624.11 217.09C1623.2 217.398 1622.34 217.664 1621.7 217.86L1622.26 219.106C1623.3 218.728 1624.58 218.252 1625.79 217.79L1625.54 216.6C1625.1 216.754 1624.67 216.894 1624.25 217.048L1625 216.04C1624.67 215.746 1624.02 215.34 1623.45 215.046H1626.12V218.336C1626.12 218.49 1626.07 218.532 1625.89 218.546C1625.72 218.546 1625.1 218.546 1624.57 218.518C1624.75 218.868 1624.95 219.386 1625.02 219.778C1625.93 219.792 1626.6 219.778 1627.06 219.568C1627.54 219.358 1627.68 219.022 1627.68 218.35V213.758ZM1630.86 215.9C1630.86 217.146 1630.69 218.672 1630.27 219.554L1631.26 219.988C1631.72 218.952 1631.91 217.328 1631.88 216.026L1630.86 215.9ZM1637 222.396H1640.87V222.942H1637V222.396ZM1637 220.856H1640.87V221.416H1637V220.856ZM1637 219.33H1640.87V219.876H1637V219.33ZM1642.5 224.006V218.28H1635.45V224.006H1636.76C1636.11 224.454 1635.08 224.846 1634.12 225.098C1634.44 225.378 1634.99 225.966 1635.22 226.288C1636.37 225.854 1637.69 225.14 1638.49 224.342L1637.49 224.006H1640.21L1639.55 224.594C1640.49 225.098 1641.61 225.784 1642.21 226.232L1643.5 225.308C1642.94 224.944 1642.04 224.454 1641.17 224.006H1642.5ZM1639.49 216.768L1639.55 216.194H1640.81L1640.77 216.768H1639.49ZM1637.07 216.194H1638.18C1638.16 216.39 1638.14 216.586 1638.12 216.768H1637.02L1637.07 216.194ZM1638.29 214.654L1638.26 215.2H1637.16L1637.21 214.654H1638.29ZM1640.87 215.2H1639.65L1639.69 214.654H1640.91L1640.87 215.2ZM1642.36 214.99L1642.46 213.59H1635.88L1635.76 214.99H1634.5V216.25C1634.41 215.998 1634.33 215.76 1634.24 215.522L1633.49 215.76V213.142H1631.99V226.204H1633.49V216.306C1633.73 217.132 1633.89 218.084 1633.92 218.7L1634.9 218.364C1634.89 217.846 1634.75 217.104 1634.54 216.39H1635.63L1635.49 217.832H1642.18L1642.28 216.39H1643.5V214.99H1642.36ZM1649.35 222.284C1648.61 223.222 1647.12 224.37 1645.81 225.07C1646.2 225.336 1646.82 225.868 1647.18 226.232C1648.52 225.434 1650.06 224.174 1651.11 222.97L1649.35 222.284ZM1653.05 223.068C1654.29 224.02 1655.96 225.378 1656.73 226.232L1658.38 225.252C1657.5 224.398 1655.76 223.096 1654.57 222.242L1653.05 223.068ZM1650.47 217.44H1653.69V220.128H1650.47V217.44ZM1655.43 220.128V217.44H1658.04V215.83H1655.43V213.24H1653.69V215.83H1650.47V213.24H1648.73V215.83H1646.21V217.44H1648.73V220.128H1645.72V221.752H1658.48V220.128H1655.43ZM1664.71 213.576H1661.28V214.836H1664.71V213.576ZM1665.06 215.452H1660.66V216.768H1665.06V215.452ZM1664.72 217.398H1661.21V218.672H1664.72V217.398ZM1661.21 220.562H1664.72V219.316H1661.21V220.562ZM1663.46 222.55V224.16H1662.43V222.55H1663.46ZM1664.76 221.248H1661.17V226.022H1662.43V225.462H1664.76V221.248ZM1666.74 223.516V222.774H1668.11V223.516H1666.74ZM1668.11 220.954V221.654H1666.74V220.954H1668.11ZM1672.24 219.764C1672.04 220.366 1671.81 220.926 1671.54 221.458C1671.48 220.786 1671.43 220.03 1671.4 219.176H1673.65V217.846H1671.37C1671.34 216.838 1671.34 215.746 1671.36 214.57C1671.86 215.34 1672.3 216.348 1672.45 217.048L1673.78 216.502C1673.58 215.802 1673.09 214.752 1672.53 213.996L1671.36 214.444L1671.37 213.156H1669.96C1669.96 214.878 1669.97 216.446 1670 217.846H1668.92C1669.06 217.342 1669.23 216.642 1669.41 215.97L1668.15 215.774H1669.71V214.528H1668.25V213.156H1666.72V214.528H1665.24V215.774H1668.07C1668.01 216.334 1667.89 217.146 1667.77 217.692L1668.5 217.846H1666.23L1667.17 217.622C1667.16 217.132 1666.99 216.376 1666.77 215.816L1665.66 216.054C1665.84 216.614 1665.97 217.342 1666 217.846H1664.95V219.176H1670.04C1670.11 220.772 1670.22 222.116 1670.42 223.194C1670.11 223.572 1669.79 223.908 1669.45 224.23V219.806H1665.49V225.196H1666.74V224.664H1668.95C1668.66 224.902 1668.35 225.112 1668.04 225.294C1668.35 225.532 1668.78 225.938 1668.98 226.218C1669.61 225.812 1670.24 225.308 1670.81 224.72C1671.18 225.672 1671.71 226.19 1672.45 226.246C1672.98 226.274 1673.58 225.784 1673.93 223.796C1673.7 223.642 1673.15 223.194 1672.91 222.858C1672.86 223.852 1672.72 224.468 1672.53 224.454C1672.25 224.426 1672.03 224.076 1671.86 223.474C1672.51 222.578 1673.07 221.57 1673.47 220.45L1672.24 219.764ZM1677.9 223.306V220.562H1680.12V223.306H1677.9ZM1680.12 219.12H1677.9V216.852H1680.12V219.12ZM1684.57 215.298C1684.78 214.71 1684.97 214.122 1685.12 213.52L1683.52 213.156C1683.12 214.794 1682.45 216.488 1681.63 217.664V215.396H1679.46C1679.7 214.794 1679.95 214.094 1680.19 213.394L1678.37 213.142C1678.32 213.8 1678.15 214.696 1677.97 215.396H1676.38V225.798H1677.9V224.776H1681.63V218.238C1682.01 218.49 1682.49 218.812 1682.71 219.022C1683.15 218.42 1683.58 217.65 1683.94 216.81H1686.94C1686.79 221.752 1686.6 223.852 1686.2 224.3C1686.02 224.482 1685.86 224.538 1685.58 224.538C1685.22 224.538 1684.39 224.538 1683.5 224.454C1683.79 224.916 1684.01 225.616 1684.04 226.078C1684.87 226.106 1685.71 226.12 1686.24 226.05C1686.8 225.952 1687.19 225.798 1687.58 225.28C1688.16 224.538 1688.31 222.312 1688.49 216.054C1688.51 215.858 1688.51 215.298 1688.51 215.298H1684.57ZM1686.18 221.682C1685.75 220.87 1684.83 219.54 1684.13 218.574L1682.82 219.316C1683.51 220.338 1684.38 221.71 1684.77 222.55L1686.18 221.682ZM1698 219.442C1697.97 221.514 1697.93 222.256 1697.8 222.466C1697.71 222.592 1697.61 222.634 1697.45 222.634C1697.3 222.634 1697.03 222.634 1696.68 222.592C1696.85 221.598 1696.89 220.59 1696.89 219.722V219.442H1698ZM1702.3 217.972C1702.09 218.924 1701.82 219.82 1701.47 220.632C1701.32 219.442 1701.22 218.056 1701.15 216.586H1703.82V215.074H1703.05L1703.64 214.71C1703.39 214.248 1702.8 213.562 1702.28 213.072L1701.15 213.744C1701.53 214.136 1701.93 214.64 1702.21 215.074H1701.12C1701.11 214.43 1701.11 213.786 1701.12 213.128H1699.55C1699.55 213.772 1699.57 214.416 1699.58 215.074H1695.37V219.722C1695.37 220.576 1695.34 221.57 1695.14 222.508L1694.95 221.486L1693.87 221.864V218H1694.96V216.46H1693.87V213.324H1692.33V216.46H1691.11V218H1692.33V222.41C1691.78 222.592 1691.29 222.76 1690.87 222.872L1691.41 224.538C1692.47 224.104 1693.79 223.558 1695.02 223.054C1694.82 223.838 1694.46 224.608 1693.9 225.238C1694.25 225.448 1694.88 225.98 1695.1 226.26C1696 225.294 1696.45 223.978 1696.67 222.634C1696.87 222.984 1696.98 223.53 1697.02 223.95C1697.5 223.964 1697.94 223.95 1698.22 223.894C1698.56 223.838 1698.77 223.712 1698.99 223.404C1699.27 223.026 1699.33 221.78 1699.37 218.658C1699.39 218.476 1699.39 218.098 1699.39 218.098H1696.89V216.586H1699.64C1699.72 218.882 1699.92 221.066 1700.3 222.746C1699.58 223.712 1698.71 224.51 1697.68 225.126C1698.03 225.364 1698.62 225.952 1698.84 226.232C1699.57 225.742 1700.23 225.168 1700.8 224.496C1701.21 225.462 1701.74 226.05 1702.42 226.05C1703.5 226.05 1703.94 225.448 1704.15 223.292C1703.77 223.138 1703.29 222.774 1702.98 222.424C1702.94 223.852 1702.83 224.51 1702.62 224.51C1702.35 224.51 1702.1 223.978 1701.88 223.054C1702.73 221.71 1703.35 220.086 1703.8 218.252L1702.3 217.972ZM1718.97 216.53V214.906H1713.41V213.086H1711.64V214.906H1706.2V216.53H1711.65V218H1707.52V224.538H1709.2V219.624H1711.65V226.232H1713.39V219.624H1716.06V222.704C1716.06 222.858 1715.99 222.928 1715.77 222.928C1715.54 222.928 1714.72 222.928 1714.02 222.9C1714.25 223.348 1714.51 224.062 1714.58 224.538C1715.67 224.538 1716.47 224.51 1717.05 224.258C1717.63 224.006 1717.8 223.53 1717.8 222.732V218H1713.39V216.53H1718.97Z" fill="#262626"/>
<path d="M1481 150L1481 236" stroke="#262626" stroke-width="0.75"/>
</svg>
