<svg width="235" height="266" viewBox="0 0 235 266" fill="none" xmlns="http://www.w3.org/2000/svg">
<path d="M131 0L131 246" stroke="#262626" stroke-width="0.5"/>
<path fill-rule="evenodd" clip-rule="evenodd" d="M130.824 12.3453H96.9666C96.5718 12.3447 96.1807 12.422 95.8158 12.5726C95.4508 12.7233 95.1192 12.9445 94.8398 13.2235C94.5604 13.5024 94.3388 13.8337 94.1876 14.1984C94.0363 14.5631 93.9585 14.9541 93.9585 15.3489V51.03H130.824V45.4251H101.834C101.303 45.4239 100.795 45.2126 100.419 44.8373C100.044 44.4621 99.8328 43.9534 99.8316 43.4227V19.9571C99.8316 19.4256 100.042 18.9158 100.418 18.5396C100.793 18.1634 101.303 17.9514 101.834 17.9502H130.824V12.3453ZM130.824 34.2922L123.932 30.1918C123.647 30.0212 123.41 29.7797 123.246 29.4907C123.081 29.2017 122.994 28.875 122.994 28.5425V22.285C122.994 22.0301 122.892 21.7857 122.712 21.6055C122.532 21.4252 122.287 21.324 122.033 21.324H117.04V28.5201C117.04 28.8534 116.953 29.181 116.789 29.4709C116.624 29.7608 116.388 30.003 116.101 30.1739L103.747 37.5443L106.08 41.5312C106.144 41.6401 106.229 41.7354 106.329 41.8115C106.43 41.8875 106.545 41.943 106.667 41.9745C106.789 42.0061 106.916 42.0132 107.041 41.9954C107.166 41.9776 107.286 41.9353 107.394 41.8709L119.033 34.9787C119.33 34.8033 119.668 34.7108 120.012 34.7108C120.357 34.7108 120.695 34.8033 120.991 34.9787L130.824 40.7951V34.2922ZM130.824 59.7317H93.8435C93.0469 59.7317 92.2829 60.0482 91.7197 60.6114C91.1564 61.1747 90.8399 61.9387 90.8399 62.7353V88.5251C90.8399 89.0562 90.629 89.5655 90.2534 89.941C89.8779 90.3166 89.3686 90.5275 88.8375 90.5275H80.4033V96.7359H130.824V89.9911C130.746 89.8467 130.705 89.6842 130.705 89.5174V66.3289C130.705 66.1621 130.746 65.9996 130.824 65.8552V59.7317ZM84.0843 19.9563L66.0448 8L62.335 13.5915L82.0506 26.6518L84.6475 22.7319C84.7934 22.5129 84.8946 22.2672 84.9452 22.009C84.9959 21.7507 84.995 21.485 84.9427 21.2271C84.8904 20.9692 84.7876 20.7241 84.6403 20.506C84.493 20.288 84.304 20.1011 84.0843 19.9563ZM125.095 66.3378V89.5085C125.095 89.774 124.99 90.0286 124.802 90.2164C124.614 90.4042 124.36 90.5097 124.094 90.5097H114.708C114.442 90.5097 114.188 90.4042 114 90.2164C113.812 90.0286 113.707 89.774 113.707 89.5085V66.32C113.708 66.0548 113.814 65.8008 114.001 65.6133C114.189 65.4258 114.443 65.3199 114.708 65.3188H124.094C124.227 65.3187 124.359 65.3452 124.481 65.3966C124.604 65.4481 124.715 65.5234 124.808 65.6183C124.902 65.7132 124.975 65.8257 125.024 65.9492C125.073 66.0727 125.098 66.2049 125.095 66.3378ZM99.0507 65.3277H107.096C107.361 65.3289 107.615 65.4347 107.803 65.6222C107.99 65.8097 108.096 66.0637 108.097 66.3289V89.5085C108.097 89.774 107.992 90.0286 107.804 90.2164C107.616 90.4042 107.362 90.5097 107.096 90.5097H99.0507C98.7875 90.5102 98.5269 90.4588 98.2837 90.3584C98.0405 90.258 97.8195 90.1105 97.6334 89.9245C97.4474 89.7384 97.2999 89.5174 97.1995 89.2742C97.0991 89.031 97.0477 88.7704 97.0483 88.5073V67.3212C97.053 66.7932 97.266 66.2885 97.641 65.9168C98.016 65.5451 98.5227 65.3366 99.0507 65.3366V65.3277ZM67.7847 75.4226L67.8025 75.3881L67.8088 75.3758C70.3855 70.3699 72.8219 65.6364 72.8219 56.0077H79.8303C79.9001 60.5746 79.2778 65.1256 77.9843 69.506C76.8759 73.0862 75.4322 75.8932 74.0332 78.6107C71.4497 83.6212 69.0138 88.35 69.0138 98H62.0054C61.935 93.4287 62.5574 88.8732 63.8513 84.4883C64.9507 80.9277 66.3912 78.1294 67.7847 75.4226ZM62.2692 35.0413L65.9611 29.4363L82.6328 40.4048C82.8527 40.549 83.0419 40.7351 83.1897 40.9525C83.3375 41.1698 83.4409 41.4143 83.494 41.6717C83.5472 41.9291 83.549 42.1945 83.4994 42.4527C83.4498 42.7108 83.3497 42.9566 83.205 43.176L80.6215 47.1093L62.2692 35.0413Z" fill="#262626"/>
<path d="M150.084 16.21H145.504V15.71H150.084V16.21ZM150.084 17.5H145.504V16.99H150.084V17.5ZM151.294 14.87H144.354V18.34H151.294V14.87ZM148.534 21.61H151.614V20.58H148.534V19.83H152.244V18.78H143.424V19.83H147.324V22.37C146.684 22.17 146.194 21.8 145.884 21.12C145.964 20.83 146.044 20.53 146.114 20.21L144.924 20.03C144.694 21.37 144.084 22.43 143.064 23.06C143.334 23.23 143.794 23.67 143.964 23.89C144.544 23.49 145.004 22.96 145.364 22.3C146.204 23.46 147.444 23.71 149.274 23.71H152.124C152.184 23.37 152.364 22.85 152.524 22.58C151.814 22.61 149.894 22.61 149.334 22.61C149.064 22.61 148.794 22.6 148.534 22.58V21.61ZM158.424 19.03C158.404 20.51 158.374 21.04 158.284 21.19C158.214 21.28 158.144 21.31 158.034 21.31C157.924 21.31 157.734 21.31 157.484 21.28C157.604 20.57 157.634 19.85 157.634 19.23V19.03H158.424ZM161.494 17.98C161.344 18.66 161.154 19.3 160.904 19.88C160.794 19.03 160.724 18.04 160.674 16.99H162.584V15.91H162.034L162.454 15.65C162.274 15.32 161.854 14.83 161.484 14.48L160.674 14.96C160.944 15.24 161.234 15.6 161.434 15.91H160.654C160.644 15.45 160.644 14.99 160.654 14.52H159.534C159.534 14.98 159.544 15.44 159.554 15.91H156.544V19.23C156.544 19.84 156.524 20.55 156.384 21.22L156.244 20.49L155.474 20.76V18H156.254V16.9H155.474V14.66H154.374V16.9H153.504V18H154.374V21.15C153.984 21.28 153.634 21.4 153.334 21.48L153.714 22.67C154.474 22.36 155.414 21.97 156.294 21.61C156.154 22.17 155.894 22.72 155.494 23.17C155.744 23.32 156.194 23.7 156.354 23.9C156.994 23.21 157.314 22.27 157.474 21.31C157.614 21.56 157.694 21.95 157.724 22.25C158.064 22.26 158.384 22.25 158.584 22.21C158.824 22.17 158.974 22.08 159.134 21.86C159.334 21.59 159.374 20.7 159.404 18.47C159.414 18.34 159.414 18.07 159.414 18.07H157.634V16.99H159.594C159.654 18.63 159.794 20.19 160.064 21.39C159.554 22.08 158.934 22.65 158.194 23.09C158.444 23.26 158.864 23.68 159.024 23.88C159.544 23.53 160.014 23.12 160.424 22.64C160.714 23.33 161.094 23.75 161.584 23.75C162.354 23.75 162.664 23.32 162.814 21.78C162.544 21.67 162.204 21.41 161.984 21.16C161.954 22.18 161.874 22.65 161.724 22.65C161.534 22.65 161.354 22.27 161.194 21.61C161.804 20.65 162.244 19.49 162.564 18.18L161.494 17.98ZM172.804 16.95V15.79H168.834V14.49H167.564V15.79H163.684V16.95H167.574V18H164.624V22.67H165.824V19.16H167.574V23.88H168.814V19.16H170.724V21.36C170.724 21.47 170.674 21.52 170.514 21.52C170.354 21.52 169.764 21.52 169.264 21.5C169.434 21.82 169.614 22.33 169.664 22.67C170.444 22.67 171.014 22.65 171.434 22.47C171.844 22.29 171.964 21.95 171.964 21.38V18H168.814V16.95H172.804ZM178.804 19.07C178.644 19.44 178.344 19.97 178.104 20.32L178.624 20.52H177.814V19.02H176.694V20.52H175.664L176.334 20.26C176.234 19.92 175.954 19.46 175.664 19.1L174.774 19.46C175.004 19.77 175.234 20.2 175.344 20.52H174.214V21.43H176.024C175.454 22.02 174.644 22.56 173.894 22.86C174.124 23.07 174.464 23.47 174.624 23.74C175.354 23.38 176.104 22.79 176.694 22.12V23.84H177.814V22.35C178.414 22.73 179.014 23.16 179.354 23.47L180.134 22.76C179.674 22.38 178.804 21.83 178.104 21.43H180.134V20.52H178.944C179.204 20.21 179.524 19.8 179.844 19.39L178.804 19.07ZM175.204 17.93C175.484 17.63 175.764 17.29 176.014 16.92V17.52H181.864V16.66H176.184C176.264 16.54 176.344 16.41 176.414 16.28H182.714V15.39H176.874C176.954 15.21 177.034 15.03 177.104 14.84L175.844 14.53C175.414 15.74 174.604 16.9 173.664 17.6C173.974 17.77 174.524 18.14 174.774 18.36L174.874 18.27V18.82H180.264C180.324 21.65 180.604 23.85 182.064 23.85C182.804 23.85 183.024 23.3 183.114 22.02C182.874 21.85 182.574 21.54 182.354 21.27C182.334 22.12 182.284 22.66 182.144 22.66C181.584 22.66 181.444 20.46 181.454 17.93H175.204ZM186.644 18.9H190.684V19.41H186.644V18.9ZM186.644 17.54H190.684V18.05H186.644V17.54ZM186.644 16.2H190.684V16.69H186.644V16.2ZM187.594 20.8C188.124 21.23 188.704 21.85 188.954 22.28L189.884 21.64C189.624 21.22 189.074 20.69 188.574 20.31H191.884V15.29H189.094C189.204 15.08 189.334 14.85 189.454 14.6L188.014 14.43C187.974 14.68 187.884 15 187.794 15.29H185.494V20.31H188.344L187.594 20.8ZM184.874 23.53C185.474 22.94 185.834 22.05 186.084 21.23L185.024 20.85C184.814 21.59 184.414 22.36 183.874 22.84L184.874 23.53ZM188.224 22.78C187.744 22.78 187.674 22.75 187.674 22.46V21.03H186.494V22.48C186.494 23.51 186.804 23.84 188.104 23.84H189.724C190.694 23.84 191.024 23.54 191.154 22.36C190.844 22.29 190.344 22.11 190.104 21.94C190.054 22.68 189.984 22.78 189.614 22.78H188.224ZM190.694 21.33C191.384 21.99 192.094 22.91 192.374 23.55L193.394 22.88C193.094 22.21 192.344 21.34 191.644 20.72L190.694 21.33ZM150.474 40.53H147.084V39.54H150.474V40.53ZM145.394 34.06H150.544V34.74H145.394V34.06ZM152.304 37.68V36.62H149.324V35.78H151.744V33.02H144.204V35.95C144.204 37.53 144.114 39.76 143.084 41.28C143.374 41.4 143.914 41.7 144.144 41.9C145.234 40.27 145.394 37.68 145.394 35.95V35.78H148.144V36.62H145.494V37.68H148.144V38.5H145.944V41.87H147.084V41.57H150.474V41.86H151.664V38.5H149.324V37.68H152.304ZM155.774 37.26V36.27H157.954C157.984 36.61 158.024 36.94 158.074 37.26H155.774ZM160.574 34.09V35.17H155.774V34.09H160.574ZM162.494 38.37V37.26H159.314C159.254 36.94 159.214 36.61 159.184 36.27H161.784V32.98H154.554V40.35C154.174 40.4 153.814 40.43 153.504 40.46L153.744 41.7C155.044 41.53 156.814 41.3 158.464 41.07L158.424 39.89C157.544 40 156.624 40.11 155.774 40.22V38.37H158.314C158.864 40.39 159.924 41.87 161.224 41.88C162.124 41.88 162.544 41.51 162.714 39.83C162.404 39.74 161.954 39.5 161.684 39.26C161.634 40.27 161.524 40.69 161.294 40.69C160.714 40.7 160.024 39.73 159.594 38.37H162.494ZM170.604 37.35H167.394L167.314 36.81L166.394 37.07V35.54H167.054V36.45H170.604V37.35ZM172.874 36.45V35.35H170.604V34.5H172.444V33.42H170.604V32.53H169.424V33.42H167.654V34.5H169.424V35.35H167.224V34.41H166.394V32.54H165.304V34.41H164.834C164.894 34.01 164.944 33.61 164.984 33.21L163.994 33.05C163.904 34.23 163.744 35.47 163.424 36.27C163.654 36.39 164.084 36.66 164.264 36.81C164.404 36.45 164.534 36.02 164.634 35.54H165.304V37.38C164.634 37.56 164.014 37.72 163.524 37.83L163.804 38.97C164.254 38.84 164.764 38.69 165.304 38.53V41.87H166.394V38.2C166.684 38.11 166.984 38.01 167.274 37.92V38.45H168.484L167.624 38.98C168.054 39.46 168.564 40.12 168.764 40.55L169.714 39.94C169.474 39.5 168.954 38.89 168.514 38.45H170.604V40.52C170.604 40.65 170.564 40.68 170.394 40.69C170.234 40.69 169.694 40.69 169.194 40.67C169.354 41 169.514 41.51 169.554 41.85C170.304 41.85 170.864 41.83 171.274 41.65C171.674 41.46 171.774 41.14 171.774 40.54V38.45H172.784V37.35H171.774V36.45H172.874ZM180.684 40.42V38.42H182.514V37.31H180.684V35.67H182.724V34.55H180.684V32.59H179.494V34.55H178.694C178.794 34.1 178.874 33.63 178.944 33.16L177.784 33C177.684 33.85 177.504 34.71 177.254 35.44C177.114 35.05 176.904 34.57 176.704 34.18L176.124 34.42V32.53H174.934V34.57L174.094 34.45C174.024 35.27 173.844 36.39 173.604 37.05L174.484 37.37C174.714 36.66 174.874 35.56 174.934 34.72V41.87H176.124V35.04C176.294 35.45 176.444 35.89 176.504 36.19L177.074 35.93C176.974 36.14 176.874 36.33 176.774 36.51C177.054 36.63 177.594 36.9 177.834 37.05C178.044 36.67 178.244 36.19 178.394 35.67H179.494V37.31H177.564V38.42H179.494V40.42H176.824V41.55H183.044V40.42H180.684ZM147.114 54.13H145.324V53.15H147.124C147.014 53.3 146.884 53.43 146.754 53.55C147.034 53.72 147.514 54.1 147.724 54.31C148.104 53.91 148.454 53.4 148.744 52.81H152.314V51.73H149.204C149.314 51.41 149.414 51.08 149.494 50.75L148.324 50.53C148.134 51.36 147.814 52.16 147.384 52.8V52.05H145.904V50.53H144.764V52.05H143.264V53.15H144.284V54.69C144.284 56.02 144.144 57.72 143.044 59.17C143.334 59.36 143.714 59.66 143.924 59.9C145.034 58.45 145.284 56.73 145.314 55.2H146.034C145.994 57.61 145.944 58.46 145.804 58.67C145.734 58.79 145.644 58.82 145.524 58.82C145.364 58.82 145.104 58.81 144.794 58.78C144.954 59.07 145.064 59.52 145.084 59.84C145.484 59.85 145.874 59.84 146.114 59.8C146.384 59.75 146.574 59.65 146.764 59.38C147.014 59.01 147.064 57.82 147.114 54.59V54.13ZM151.754 54.66C151.494 54.98 151.114 55.36 150.734 55.69C150.644 55.32 150.564 54.93 150.504 54.54C151.114 54.22 151.674 53.88 152.084 53.54L151.234 52.92C150.344 53.61 148.554 54.34 147.144 54.62C147.394 54.88 147.684 55.32 147.844 55.61L148.054 55.55V59.86H149.184V55.14C149.304 55.09 149.414 55.04 149.534 54.99C149.894 57.14 150.504 58.88 151.824 59.84C152.004 59.52 152.364 59.06 152.634 58.84C151.914 58.38 151.404 57.62 151.054 56.69C151.544 56.33 152.124 55.86 152.594 55.42L151.754 54.66ZM156.434 56.75C156.974 56.56 157.494 56.33 157.974 56.08C158.504 56.34 159.074 56.57 159.684 56.75H156.434ZM156.374 58.58V57.73H159.704V58.58H156.374ZM156.854 53.96H159.074C158.774 54.27 158.394 54.56 157.974 54.82C157.524 54.58 157.134 54.3 156.804 54L156.854 53.96ZM160.084 53.02L159.884 53.07H157.704C157.814 52.93 157.924 52.79 158.024 52.65L156.914 52.43H161.094V53.54H162.314V51.35H158.604V50.54H157.384V51.35H153.734V53.54H154.904V52.43H156.744C156.244 53.17 155.324 53.91 153.934 54.44C154.194 54.62 154.564 55.04 154.724 55.32C155.174 55.11 155.574 54.89 155.944 54.65C156.224 54.92 156.524 55.17 156.844 55.4C155.784 55.87 154.554 56.2 153.334 56.39C153.534 56.64 153.784 57.13 153.884 57.45C154.334 57.36 154.774 57.26 155.214 57.14V59.87H156.374V59.56H159.704V59.85H160.934V57.07C161.264 57.13 161.604 57.19 161.954 57.24C162.114 56.9 162.454 56.37 162.704 56.09C161.414 55.96 160.204 55.71 159.164 55.34C159.864 54.82 160.454 54.22 160.884 53.5L160.084 53.02ZM170.144 54.24C170.944 55.34 171.644 56.87 171.844 57.89L173.054 57.29C172.804 56.25 172.094 54.79 171.244 53.69L170.144 54.24ZM164.424 54.09C164.294 55.42 164.004 56.71 163.414 57.57L164.524 58.21C165.184 57.23 165.444 55.7 165.594 54.33L164.424 54.09ZM166.244 51.49C167.424 51.94 168.814 52.71 169.584 53.35L170.364 52.3C169.574 51.72 168.194 50.98 167.014 50.56L166.244 51.49ZM166.214 53.38V58.13C166.214 59.38 166.564 59.77 167.834 59.77H169.464C170.664 59.77 170.984 59.18 171.114 57.32C170.784 57.23 170.284 57.02 170.004 56.8C169.934 58.37 169.854 58.68 169.364 58.68H167.994C167.524 58.68 167.454 58.61 167.454 58.13V53.38H166.214ZM180.794 52.08C180.714 52.32 180.594 52.61 180.494 52.83L180.544 52.84H179.274L179.404 52.81C179.354 52.6 179.254 52.32 179.124 52.08H180.794ZM183.054 52.84H181.624C181.734 52.64 181.864 52.4 181.994 52.13L181.744 52.08H182.874V51.16H180.504V50.55H179.334V51.16H177.164V52.08H178.384L178.014 52.16C178.114 52.36 178.214 52.62 178.264 52.84H176.944V53.81H183.054V52.84ZM176.924 55.87C176.614 56 176.304 56.14 175.994 56.27V54.02H176.904V52.9H175.994V50.67H174.894V52.9H173.904V54.02H174.894V56.72C174.434 56.9 174.014 57.06 173.674 57.18L174.074 58.37C174.984 57.95 176.134 57.43 177.184 56.92L176.924 55.87ZM178.614 56.12H181.424V56.63H178.614V56.12ZM178.614 54.93H181.424V55.43H178.614V54.93ZM181.574 58.81C181.394 58.81 181.364 58.78 181.364 58.53V57.37H182.594V54.2H177.504V57.37H178.354C178.174 58.1 177.734 58.6 176.164 58.9C176.394 59.13 176.704 59.61 176.814 59.9C178.724 59.41 179.304 58.57 179.524 57.37H180.234V58.54C180.234 59.49 180.434 59.82 181.374 59.82H182.154C182.854 59.82 183.134 59.52 183.244 58.37C182.934 58.31 182.474 58.12 182.254 57.95C182.234 58.71 182.184 58.81 182.024 58.81H181.574ZM150.084 70.21H145.504V69.71H150.084V70.21ZM150.084 71.5H145.504V70.99H150.084V71.5ZM151.294 68.87H144.354V72.34H151.294V68.87ZM148.534 75.61H151.614V74.58H148.534V73.83H152.244V72.78H143.424V73.83H147.324V76.37C146.684 76.17 146.194 75.8 145.884 75.12C145.964 74.83 146.044 74.53 146.114 74.21L144.924 74.03C144.694 75.37 144.084 76.43 143.064 77.06C143.334 77.23 143.794 77.67 143.964 77.89C144.544 77.49 145.004 76.96 145.364 76.3C146.204 77.46 147.444 77.71 149.274 77.71H152.124C152.184 77.37 152.364 76.85 152.524 76.58C151.814 76.61 149.894 76.61 149.334 76.61C149.064 76.61 148.794 76.6 148.534 76.58V75.61ZM158.414 74.31V72.7H160.804V74.31H158.414ZM160.804 70.05V71.6H158.414V70.05H160.804ZM162.024 68.92H157.274V75.43H162.024V68.92ZM156.644 74.03C156.334 74.14 156.014 74.24 155.704 74.34V71.96H156.594V70.83H155.704V68.65H154.574V70.83H153.494V71.96H154.574V74.7C154.084 74.85 153.644 74.99 153.274 75.09L153.664 76.3C154.594 75.97 155.764 75.55 156.854 75.13L156.644 74.03ZM155.964 76.35V77.48H162.694V76.35H155.964ZM172.744 69.94C172.574 69.56 172.144 69.02 171.784 68.62L170.924 69.09C171.274 69.51 171.674 70.09 171.834 70.47L172.744 69.94ZM164.764 77.88C165.244 77.36 165.664 76.54 165.884 75.78L164.734 75.5C164.504 76.23 164.074 77 163.634 77.42L164.764 77.88ZM166.554 75.85C166.664 76.46 166.744 77.28 166.744 77.76L167.904 77.59C167.894 77.12 167.774 76.33 167.654 75.72L166.554 75.85ZM166.274 72.52C165.974 72.25 165.534 71.95 165.134 71.7C165.254 71.55 165.374 71.4 165.484 71.24C165.894 71.47 166.334 71.75 166.624 71.98C166.514 72.17 166.404 72.35 166.274 72.52ZM167.334 70.3C167.244 70.6 167.144 70.89 167.034 71.16C166.724 70.95 166.324 70.72 165.954 70.54L166.094 70.3H167.334ZM172.674 71.6V70.49H170.814V68.67H169.694V70.49H168.464C168.544 70.21 168.624 69.92 168.684 69.62L167.924 69.32L167.734 69.36H166.584C166.684 69.15 166.774 68.93 166.854 68.72L165.734 68.44C165.344 69.61 164.494 71.04 163.434 71.87C163.674 72.05 164.024 72.41 164.224 72.63C164.324 72.54 164.434 72.45 164.534 72.35C164.944 72.63 165.374 72.96 165.654 73.24C165.104 73.78 164.454 74.21 163.734 74.52C163.994 74.7 164.404 75.16 164.574 75.43C166.254 74.62 167.614 73.1 168.364 70.81V71.6H169.624C169.454 72.63 168.894 73.72 167.234 74.56C167.524 74.77 167.874 75.13 168.064 75.39C169.294 74.76 169.994 73.96 170.374 73.11C170.774 74.12 171.354 74.91 172.204 75.43C172.374 75.11 172.734 74.63 173.004 74.41C171.964 73.88 171.334 72.86 170.974 71.6H172.674ZM168.534 75.87C168.754 76.48 168.984 77.29 169.044 77.77L170.234 77.54C170.144 77.05 169.894 76.27 169.654 75.68L168.534 75.87ZM170.534 75.82C170.974 76.46 171.514 77.34 171.714 77.87L172.934 77.46C172.684 76.91 172.124 76.07 171.674 75.46L170.534 75.82ZM176.064 71.96H177.074V70.83H176.064V68.66H174.954V70.83H173.784V71.96H174.954V74.78C174.454 74.97 174.014 75.14 173.654 75.27L174.134 76.47C175.054 76.05 176.194 75.51 177.254 74.98L176.984 73.93C176.684 74.06 176.374 74.19 176.064 74.32V71.96ZM179.474 76.62C178.864 76.62 178.774 76.53 178.774 75.95V72.86L179.604 72.5V75.55H180.714V72.02L181.574 71.64C181.574 73.06 181.564 73.79 181.544 73.95C181.504 74.13 181.444 74.17 181.324 74.17C181.234 74.17 181.014 74.17 180.844 74.15C180.974 74.4 181.064 74.84 181.094 75.15C181.414 75.15 181.844 75.14 182.134 75.01C182.434 74.88 182.614 74.64 182.644 74.18C182.694 73.77 182.714 72.57 182.714 70.67L182.754 70.47L181.924 70.18L181.714 70.32L181.504 70.46L180.714 70.8V68.52H179.604V71.28L178.774 71.63V69.49H177.634V72.12L176.654 72.53L177.094 73.59L177.634 73.36V75.93C177.634 77.31 178.024 77.68 179.374 77.68H181.504C182.674 77.68 183.024 77.2 183.184 75.8C182.854 75.74 182.394 75.55 182.144 75.37C182.054 76.39 181.954 76.62 181.404 76.62H179.474ZM186.184 68.55C185.664 69.97 184.754 71.39 183.824 72.29C184.024 72.58 184.354 73.22 184.464 73.51C184.724 73.24 184.974 72.94 185.224 72.62V77.85H186.354V70.88C186.714 70.24 187.024 69.56 187.284 68.91L186.184 68.55ZM188.614 70.01H191.544V71.35H188.614V70.01ZM193.224 74.38V73.3H190.644V72.4H192.734V68.96H187.484V72.4H189.444V73.3H186.824V74.38H188.874C188.254 75.26 187.364 76.07 186.464 76.54C186.734 76.77 187.104 77.2 187.284 77.49C188.074 76.98 188.834 76.22 189.444 75.34V77.87H190.644V75.29C191.214 76.18 191.944 76.99 192.674 77.51C192.864 77.21 193.244 76.79 193.514 76.56C192.674 76.07 191.814 75.25 191.224 74.38H193.224ZM197.224 72.77L196.434 72.99V71.52H197.284V70.42H196.434V68.54H195.344V70.42H194.214V71.52H195.344V73.27C194.854 73.39 194.414 73.5 194.054 73.59L194.314 74.73L195.344 74.43V76.54C195.344 76.67 195.294 76.71 195.174 76.71C195.054 76.72 194.714 76.72 194.344 76.7C194.494 77.02 194.624 77.51 194.654 77.8C195.294 77.81 195.734 77.77 196.024 77.58C196.334 77.39 196.434 77.1 196.434 76.55V74.12C196.754 74.03 197.064 73.93 197.374 73.84L197.224 72.77ZM198.074 75.14C198.484 75.67 198.944 76.4 199.124 76.89L200.134 76.31C199.934 75.82 199.434 75.11 199.014 74.61L198.074 75.14ZM203.504 72.7V71.62H201.044V70.75H203.064V69.67H201.044V68.58H199.914V69.67H197.864V70.75H199.914V71.62H197.434V72.7H201.204V73.49H197.524V74.57H201.204V76.59C201.204 76.73 201.164 76.76 201.004 76.76C200.854 76.77 200.334 76.77 199.884 76.75C200.024 77.07 200.174 77.54 200.224 77.87C200.934 77.87 201.474 77.85 201.834 77.68C202.224 77.5 202.334 77.21 202.334 76.61V74.57H203.434V73.49H202.334V72.7H203.504ZM205.544 77.87C206.014 77.4 206.474 76.65 206.724 75.97L205.574 75.67C205.314 76.34 204.854 77.03 204.414 77.42L205.544 77.87ZM207.314 76.01C207.414 76.58 207.474 77.34 207.474 77.78L208.654 77.63C208.644 77.2 208.544 76.46 208.424 75.9L207.314 76.01ZM209.304 76C209.524 76.56 209.714 77.32 209.774 77.77L210.964 77.54C210.884 77.09 210.654 76.37 210.424 75.82L209.304 76ZM211.294 75.98C211.724 76.56 212.234 77.39 212.444 77.88L213.664 77.49C213.414 76.97 212.864 76.2 212.444 75.63L211.294 75.98ZM211.614 70.86V72.93C211.424 72.76 211.174 72.56 210.894 72.36C210.974 71.9 211.014 71.4 211.044 70.86H211.614ZM212.794 74.41C212.754 74.41 212.724 74.4 212.704 74.36C212.684 74.32 212.684 74.19 212.684 73.97V69.81H211.094C211.104 69.4 211.104 68.97 211.114 68.53H210.044C210.044 68.98 210.034 69.4 210.024 69.81H209.154V70.86H209.994C209.984 71.16 209.964 71.45 209.934 71.73C209.754 71.62 209.584 71.52 209.424 71.43L208.944 72.31C209.194 72.46 209.474 72.65 209.744 72.84C209.584 73.49 209.324 74.03 208.914 74.48V74.17C208.384 74.22 207.844 74.26 207.314 74.31V73.78H208.674V72.95H207.314V72.44C207.434 72.49 207.594 72.51 207.804 72.51H208.304C208.774 72.51 208.994 72.34 209.064 71.62C208.844 71.57 208.504 71.46 208.354 71.34C208.334 71.75 208.304 71.8 208.184 71.8H207.954C207.844 71.8 207.824 71.78 207.824 71.6V71.19H208.924V70.37H207.314V69.88H208.644V69.08H207.314V68.54H206.264V69.08H204.934V69.88H206.264V70.37H204.584V71.19H205.584C205.494 71.66 205.224 71.93 204.384 72.08C204.564 72.24 204.784 72.57 204.854 72.78C206.014 72.51 206.374 72.01 206.494 71.19H206.994V71.6C206.994 72.04 207.044 72.29 207.254 72.41H206.264V72.95H204.794V73.78H206.264V74.39C205.604 74.44 205.004 74.48 204.514 74.51L204.584 75.48C205.754 75.37 207.374 75.21 208.924 75.05V75.03C209.094 75.2 209.254 75.4 209.344 75.55C209.974 75.02 210.384 74.34 210.634 73.51C210.864 73.7 211.064 73.89 211.214 74.05L211.614 73.26V73.99C211.614 74.72 211.674 74.93 211.834 75.11C212.004 75.28 212.254 75.35 212.484 75.35H212.924C213.114 75.35 213.324 75.31 213.454 75.2C213.584 75.09 213.684 74.93 213.734 74.69C213.794 74.46 213.834 73.84 213.844 73.34C213.594 73.25 213.304 73.1 213.114 72.94C213.114 73.46 213.104 73.87 213.084 74.05C213.074 74.24 213.054 74.32 213.024 74.36C212.994 74.4 212.954 74.41 212.914 74.41H212.794ZM216.494 70.49H223.704V69.43H220.154V68.54H218.914V69.43H215.354V72.23C215.354 73.69 215.294 75.77 214.464 77.19C214.734 77.31 215.234 77.64 215.434 77.84C216.344 76.3 216.494 73.85 216.494 72.23V70.49ZM221.034 72.27V72.93H219.214V72.27H221.034ZM222.214 73.83V72.27H223.654V71.33H222.214V70.67H221.034V71.33H219.214V70.67H218.094V71.33H216.744V72.27H218.094V73.83H222.214ZM221.404 75.16C221.074 75.48 220.664 75.76 220.204 75.98C219.734 75.75 219.334 75.48 219.034 75.16H221.404ZM222.414 74.18L222.204 74.23H216.814V75.16H218.304L217.834 75.33C218.154 75.76 218.544 76.13 218.984 76.44C218.194 76.67 217.314 76.81 216.394 76.89C216.574 77.14 216.784 77.59 216.874 77.89C218.064 77.74 219.184 77.5 220.164 77.11C221.034 77.5 222.054 77.76 223.204 77.9C223.354 77.59 223.664 77.13 223.904 76.88C223.004 76.8 222.174 76.66 221.444 76.45C222.164 75.97 222.754 75.35 223.154 74.55L222.414 74.18ZM147.084 94.6C146.104 94.6 145.964 94.49 145.964 93.74V90.74L147.504 90.25V93.62H148.684V89.88L150.474 89.31C150.454 90.51 150.414 91.25 150.314 91.59C150.194 91.94 150.064 92.02 149.854 92.02C149.674 92.02 149.294 92.02 149.014 91.99C149.144 92.26 149.264 92.8 149.284 93.08C149.664 93.1 150.194 93.07 150.544 92.98C150.904 92.88 151.184 92.64 151.364 92.1C151.564 91.53 151.624 90.35 151.654 88.48L151.704 88.26L150.864 87.9L150.634 88.06L150.504 88.15L148.684 88.71V86.55H147.504V89.09L145.964 89.57V87.23H144.794V89.94L143.084 90.48L143.394 91.55L144.794 91.11V93.74C144.794 95.28 145.314 95.67 147.074 95.67H150.194C151.814 95.67 152.214 95.14 152.414 93.48C152.094 93.41 151.594 93.21 151.304 93.03C151.164 94.34 151.014 94.6 150.114 94.6H147.084ZM160.284 88.21H155.704V87.71H160.284V88.21ZM160.284 89.5H155.704V88.99H160.284V89.5ZM161.494 86.87H154.554V90.34H161.494V86.87ZM158.734 93.61H161.814V92.58H158.734V91.83H162.444V90.78H153.624V91.83H157.524V94.37C156.884 94.17 156.394 93.8 156.084 93.12C156.164 92.83 156.244 92.53 156.314 92.21L155.124 92.03C154.894 93.37 154.284 94.43 153.264 95.06C153.534 95.23 153.994 95.67 154.164 95.89C154.744 95.49 155.204 94.96 155.564 94.3C156.404 95.46 157.644 95.71 159.474 95.71H162.324C162.384 95.37 162.564 94.85 162.724 94.58C162.014 94.61 160.094 94.61 159.534 94.61C159.264 94.61 158.994 94.6 158.734 94.58V93.61ZM169.614 90.24C169.864 90.05 170.074 89.8 170.244 89.5C170.474 89.73 170.704 89.99 170.824 90.19L171.334 89.7V90.24H169.614ZM169.114 89.8C169.254 89.92 169.414 90.11 169.514 90.24H169.114V89.8ZM169.114 87.84H171.334V89.65C171.164 89.42 170.834 89.09 170.524 88.83C170.604 88.59 170.654 88.33 170.694 88.06L169.934 87.84C169.844 88.65 169.584 89.3 169.114 89.67V87.84ZM172.334 86.94H168.164V91.14H172.334V86.94ZM165.774 88.83H165.464V87.85H165.774V88.83ZM166.694 91.33H166.474C166.354 91.33 166.344 91.32 166.344 91.18V89.79H166.694V91.33ZM164.604 94.29V93.6H166.694V94.29H164.604ZM164.914 89.79V90.64C164.914 91.05 164.884 91.52 164.604 91.93V89.79H164.914ZM166.694 91.92V92.76H164.604V92.12C164.724 92.21 164.864 92.35 164.934 92.43C165.384 91.93 165.474 91.2 165.474 90.65V89.79H165.774V91.2C165.774 91.78 165.914 91.92 166.404 91.92H166.694ZM163.674 87.85H164.744V88.83H163.774V95.8H164.604V95.2H166.694V95.66H167.554V88.83H166.544V87.85H167.664V86.93H163.674V87.85ZM168.874 92.61H169.294V94.69H168.874V92.61ZM170.414 92.61V94.69H170.004V92.61H170.414ZM171.564 92.61V94.69H171.134V92.61H171.564ZM172.484 94.69V91.67H167.994V94.69H167.734V95.65H172.894V94.69H172.484ZM183.074 87.23H181.054V86.57H179.904V87.23H178.014V88.05H183.074V87.23ZM180.054 92.2H180.924V92.55H180.054V92.2ZM180.054 91.18H180.924V91.52H180.054V91.18ZM174.834 94.28V93.65H176.954V94.28H174.834ZM175.144 89.81V90.46C175.144 90.89 175.104 91.42 174.834 91.89V89.81H175.144ZM175.704 87.9H176.004V88.88H175.704V87.9ZM176.954 91.24C176.934 91.26 176.914 91.27 176.834 91.27H176.684C176.614 91.27 176.594 91.26 176.594 91.12V89.81H176.954V91.24ZM176.954 92.76H174.834V92.06C174.964 92.14 175.144 92.27 175.234 92.36C175.624 91.81 175.714 91.04 175.714 90.47V89.81H176.024V91.13C176.024 91.73 176.154 91.87 176.604 91.87H176.944H176.954V92.76ZM178.984 89H179.594V89.42H178.984V89ZM181.404 89H182.024V89.42H181.404V89ZM182.534 93.38C182.314 93.54 181.984 93.75 181.674 93.93C181.534 93.74 181.414 93.53 181.314 93.31H183.104V92.55H181.904V92.2H182.784V91.52H181.904V91.18H182.944V90.48H181.904V90.08H182.824V88.33H180.664V90.08H180.924V90.48H180.054V90.08H180.364V88.33H178.234V90.08H179.094V90.48H178.184V91.18H179.094V91.52H178.364V92.2H179.094V92.55H177.954V93.31H179.304C178.864 93.54 178.334 93.73 177.814 93.86V88.88H176.764V87.9H177.834V86.96H173.894V87.9H174.964V88.88H174.014V95.83H174.834V95.19H176.954V95.64H177.814V94.1C177.974 94.29 178.154 94.52 178.244 94.65C178.464 94.58 178.694 94.5 178.924 94.4V94.85C178.654 94.89 178.394 94.93 178.174 94.96L178.374 95.77C179.134 95.63 180.074 95.47 180.994 95.3L180.924 94.52L179.874 94.7V93.93C180.084 93.8 180.274 93.67 180.454 93.53C180.864 94.59 181.544 95.45 182.534 95.89C182.674 95.63 182.954 95.26 183.184 95.08C182.814 94.94 182.494 94.75 182.204 94.5C182.504 94.36 182.824 94.18 183.094 94L182.534 93.38ZM189.234 91.58V89.43H191.494V91.58H189.234ZM185.724 91.58V89.43H187.974V91.58H185.724ZM189.234 88.26V86.53H187.974V88.26H184.524V93.3H185.724V92.75H187.974V95.87H189.234V92.75H191.494V93.25H192.744V88.26H189.234ZM196.124 91.78H197.364V92.46H196.124V91.78ZM197.364 88.75V89.33H196.124V88.75H197.364ZM196.124 90.24H197.364V90.87H196.124V90.24ZM199.064 92.46H198.454V88.75H199.134V87.71H198.454V86.65H197.364V87.71H196.124V86.65H195.054V87.71H194.274V88.75H195.054V92.46H194.154V93.5H199.064V92.46ZM195.394 93.57C195.114 94.17 194.594 94.8 194.074 95.19C194.344 95.35 194.804 95.69 195.024 95.9C195.564 95.41 196.154 94.63 196.504 93.9L195.394 93.57ZM200.574 91.5C200.584 91.19 200.584 90.9 200.584 90.64V90.27H202.024V91.5H200.574ZM202.024 88.05V89.22H200.584V88.05H202.024ZM203.174 86.97H199.474V90.64C199.474 91.94 199.424 93.63 198.844 94.88C198.594 94.47 198.124 93.92 197.764 93.52L196.864 94.01C197.254 94.47 197.734 95.13 197.934 95.52L198.764 95.05C198.734 95.11 198.694 95.16 198.664 95.22C198.924 95.32 199.414 95.68 199.604 95.89C200.144 94.99 200.394 93.74 200.504 92.56H202.024V94.53C202.024 94.69 201.974 94.74 201.824 94.74C201.684 94.74 201.204 94.75 200.774 94.72C200.924 95.02 201.074 95.54 201.114 95.85C201.854 95.86 202.364 95.83 202.714 95.64C203.064 95.45 203.174 95.14 203.174 94.55V86.97ZM206.384 86.55C205.974 87.21 205.104 88.03 204.334 88.5C204.514 88.76 204.804 89.24 204.914 89.51C205.844 88.91 206.854 87.93 207.504 87.01L206.384 86.55ZM207.964 93.14C208.394 93.67 208.884 94.41 209.064 94.89L210.104 94.33C209.894 93.84 209.384 93.14 208.934 92.63L207.964 93.14ZM213.724 90.7V89.62H211.094V88.75H213.254V87.67H211.094V86.58H209.914V87.67H207.864V88.75H209.914V89.62H207.394C207.494 89.47 207.584 89.32 207.674 89.18L206.634 88.73C206.074 89.7 205.104 90.68 204.234 91.3C204.404 91.59 204.704 92.26 204.794 92.53C205.094 92.29 205.394 92.02 205.694 91.71V95.86H206.834V90.4C207.004 90.19 207.154 89.97 207.304 89.76V90.7H211.274V91.49H207.404V92.57H211.274V94.59C211.274 94.73 211.224 94.76 211.074 94.76C210.914 94.77 210.364 94.77 209.874 94.75C210.024 95.07 210.194 95.54 210.244 95.87C210.994 95.87 211.554 95.85 211.944 95.68C212.344 95.5 212.464 95.21 212.464 94.61V92.57H213.634V91.49H212.464V90.7H213.724ZM217.444 87.53C217.064 87.2 216.294 86.8 215.714 86.56L215.044 87.46C215.644 87.72 216.394 88.17 216.754 88.51L217.444 87.53ZM216.904 90.16C216.524 89.84 215.764 89.46 215.174 89.25L214.534 90.14C215.124 90.4 215.864 90.82 216.214 91.15L216.904 90.16ZM215.854 95.75C216.314 94.76 216.794 93.59 217.194 92.51L216.224 91.84C215.764 93.03 215.174 94.3 214.754 95.09L215.854 95.75ZM220.264 91.69C220.274 91.41 220.284 91.13 220.284 90.85H220.844V91.69H220.264ZM218.604 91.69C218.644 91.42 218.684 91.13 218.714 90.85H219.244C219.244 91.14 219.234 91.42 219.214 91.69H218.604ZM220.284 88.86H220.844V89.8H220.284V88.86ZM222.474 88.86V89.8H221.894V88.86H222.474ZM221.894 91.69V90.85H223.534V87.81H221.894V86.55H220.844V87.81H220.284V86.53H219.244V87.81H217.584V88.86H219.244V89.8H217.814C217.724 90.85 217.534 92.17 217.364 93.03L218.384 93.1L218.444 92.74H219.064C218.844 93.66 218.374 94.48 217.384 95.12C217.654 95.28 218.064 95.63 218.254 95.85C219.434 95.04 219.944 93.96 220.154 92.74H220.844V95.85H221.894V92.74H222.704C222.684 93.43 222.654 93.7 222.594 93.8C222.534 93.88 222.474 93.91 222.364 93.9C222.274 93.9 222.124 93.9 221.914 93.87C222.044 94.13 222.144 94.55 222.154 94.86C222.504 94.87 222.804 94.86 222.994 94.81C223.214 94.77 223.374 94.7 223.534 94.49C223.714 94.26 223.764 93.58 223.794 92.07C223.804 91.95 223.804 91.69 223.804 91.69H221.894ZM228.594 95.85C229.004 95.46 229.234 94.81 229.314 94.21L228.514 94.06C228.434 94.59 228.204 95.15 227.864 95.45L228.594 95.85ZM229.464 94.41C229.554 94.82 229.624 95.35 229.644 95.7L230.344 95.57C230.324 95.23 230.244 94.69 230.134 94.3L229.464 94.41ZM230.404 94.35C230.554 94.7 230.714 95.18 230.774 95.48L231.394 95.29C231.334 94.99 231.164 94.53 231.004 94.18L230.404 94.35ZM232.344 94.76C232.254 94.55 232.054 94.24 231.864 93.99L231.334 94.24C231.514 94.48 231.714 94.83 231.794 95.05L232.344 94.76ZM230.724 91.48H229.834V91.14H230.724V91.48ZM230.724 92.39H229.834V92.04H230.724V92.39ZM230.724 93.31H229.834V92.94H230.724V93.31ZM231.984 89.97C232.074 90.14 232.174 90.3 232.274 90.45H229.834C229.954 90.3 230.064 90.14 230.164 89.97H231.984ZM231.404 88.63C231.464 88.79 231.514 88.95 231.574 89.1H230.614C230.684 88.95 230.744 88.79 230.804 88.63H231.404ZM226.154 91.47C226.164 91.13 226.164 90.8 226.164 90.5V90.23H226.854V91.47H226.154ZM226.854 87.95V89.15H226.164V87.95H226.854ZM232.824 91.14C233.034 91.35 233.254 91.54 233.494 91.7C233.654 91.44 233.974 91.05 234.214 90.86C233.834 90.65 233.484 90.34 233.194 89.97H234.014V89.1H232.624C232.544 88.95 232.474 88.79 232.414 88.63H233.774V87.78H232.884C233.034 87.52 233.224 87.19 233.424 86.84L232.304 86.57C232.214 86.9 232.034 87.36 231.884 87.67L232.274 87.78H231.054C231.144 87.42 231.224 87.04 231.284 86.64L230.244 86.53C230.184 86.97 230.104 87.39 230.004 87.78H229.254L229.714 87.64C229.644 87.35 229.484 86.92 229.284 86.61L228.414 86.86C228.554 87.14 228.694 87.5 228.754 87.78H228.264V88.63H229.714C229.644 88.79 229.574 88.95 229.494 89.1H227.994V89.97H228.894C228.594 90.31 228.244 90.6 227.834 90.85V86.88H225.224V90.5C225.224 91.96 225.194 93.98 224.694 95.37C224.924 95.46 225.354 95.68 225.534 95.84C225.874 94.93 226.034 93.72 226.104 92.56H226.854V94.67C226.854 94.8 226.814 94.83 226.724 94.83C226.614 94.83 226.314 94.84 226.014 94.82C226.144 95.1 226.264 95.58 226.284 95.86C226.844 95.86 227.204 95.84 227.484 95.65C227.764 95.48 227.834 95.17 227.834 94.69V91.14C228.014 91.36 228.204 91.65 228.284 91.81C228.474 91.7 228.644 91.58 228.814 91.45V93.99H232.774C232.704 94.65 232.634 94.95 232.544 95.05C232.484 95.12 232.414 95.13 232.304 95.13C232.194 95.13 231.984 95.13 231.754 95.1C231.864 95.31 231.934 95.64 231.954 95.88C232.304 95.89 232.644 95.88 232.834 95.86C233.044 95.84 233.234 95.77 233.394 95.59C233.594 95.38 233.704 94.84 233.794 93.64C233.814 93.53 233.824 93.31 233.824 93.31H231.644V92.94H233.134V92.39H231.644V92.04H233.134V91.48H231.644V91.14H232.824Z" fill="#262626"/>
<path d="M83.3747 148.13H80.6547V147.52C80.8147 147.64 81.0347 147.89 81.1347 148.04C81.4847 147.85 81.7647 147.57 81.9847 147.24C82.2847 147.52 82.5847 147.82 82.7647 148.03L83.3047 147.52C83.0847 147.29 82.6547 146.92 82.2947 146.62C82.3747 146.42 82.4447 146.21 82.4847 146L81.6947 145.91C81.6047 146.54 81.2747 147.17 80.6547 147.5V145.84H83.3747V148.13ZM84.5047 144.96H79.5847V149.02H84.5047V144.96ZM79.0247 145.53C78.6447 145.2 77.8747 144.8 77.2947 144.56L76.6247 145.46C77.2247 145.72 77.9747 146.17 78.3347 146.51L79.0247 145.53ZM78.4847 148.16C78.1047 147.84 77.3447 147.46 76.7547 147.25L76.1147 148.14C76.7047 148.4 77.4447 148.82 77.7947 149.15L78.4847 148.16ZM77.8947 149.85C77.3847 151.02 76.7447 152.28 76.2847 153.05L77.3447 153.75C77.8547 152.78 78.3847 151.63 78.8247 150.56L77.8947 149.85ZM80.3047 150.53H80.8647V152.54H80.3047V150.53ZM82.3047 150.53V152.54H81.7447V150.53H82.3047ZM83.7647 150.53V152.54H83.1947V150.53H83.7647ZM84.8847 152.54V149.53H79.2447V152.54H78.4147V153.57H85.4947V152.54H84.8847ZM94.1747 148.13H91.4547V147.52C91.6147 147.64 91.8347 147.89 91.9347 148.04C92.2847 147.85 92.5647 147.57 92.7847 147.24C93.0847 147.52 93.3847 147.82 93.5647 148.03L94.1047 147.52C93.8847 147.29 93.4547 146.92 93.0947 146.62C93.1747 146.42 93.2447 146.21 93.2847 146L92.4947 145.91C92.4047 146.54 92.0747 147.17 91.4547 147.5V145.84H94.1747V148.13ZM95.3047 144.96H90.3847V149.02H95.3047V144.96ZM89.8247 145.53C89.4447 145.2 88.6747 144.8 88.0947 144.56L87.4247 145.46C88.0247 145.72 88.7747 146.17 89.1347 146.51L89.8247 145.53ZM89.2847 148.16C88.9047 147.84 88.1447 147.46 87.5547 147.25L86.9147 148.14C87.5047 148.4 88.2447 148.82 88.5947 149.15L89.2847 148.16ZM88.6947 149.85C88.1847 151.02 87.5447 152.28 87.0847 153.05L88.1447 153.75C88.6547 152.78 89.1847 151.63 89.6247 150.56L88.6947 149.85ZM91.1047 150.53H91.6647V152.54H91.1047V150.53ZM93.1047 150.53V152.54H92.5447V150.53H93.1047ZM94.5647 150.53V152.54H93.9947V150.53H94.5647ZM95.6847 152.54V149.53H90.0447V152.54H89.2147V153.57H96.2947V152.54H95.6847ZM99.2447 151.79V149.83H100.835V151.79H99.2447ZM100.835 148.8H99.2447V147.18H100.835V148.8ZM104.015 146.07C104.165 145.65 104.295 145.23 104.405 144.8L103.265 144.54C102.975 145.71 102.495 146.92 101.915 147.76V146.14H100.365C100.535 145.71 100.715 145.21 100.885 144.71L99.5847 144.53C99.5447 145 99.4247 145.64 99.2947 146.14H98.1647V153.57H99.2447V152.84H101.915V148.17C102.185 148.35 102.525 148.58 102.685 148.73C102.995 148.3 103.305 147.75 103.565 147.15H105.705C105.595 150.68 105.465 152.18 105.175 152.5C105.045 152.63 104.935 152.67 104.735 152.67C104.475 152.67 103.885 152.67 103.245 152.61C103.455 152.94 103.615 153.44 103.635 153.77C104.225 153.79 104.825 153.8 105.205 153.75C105.605 153.68 105.885 153.57 106.165 153.2C106.575 152.67 106.685 151.08 106.815 146.61C106.825 146.47 106.825 146.07 106.825 146.07H104.015ZM105.165 150.63C104.855 150.05 104.195 149.1 103.695 148.41L102.765 148.94C103.255 149.67 103.875 150.65 104.155 151.25L105.165 150.63ZM111.735 145.82V146.36H110.205V145.82H111.735ZM110.205 147.73V147.16H111.735V147.73H110.205ZM112.845 148.63V144.91H109.025V153.87H110.205V148.63H112.845ZM113.995 150.3V151.48H112.345V150.3H113.995ZM115.105 152.46V149.32H111.235V153.02H112.345V152.46H115.105ZM114.665 147.74V147.16H116.245V147.74H114.665ZM116.245 145.81V146.36H114.665V145.81H116.245ZM117.445 144.91H113.535V148.64H116.245V152.43C116.245 152.61 116.175 152.67 115.985 152.67C115.795 152.68 115.115 152.69 114.535 152.65C114.705 152.97 114.895 153.53 114.935 153.87C115.855 153.87 116.485 153.84 116.895 153.64C117.315 153.45 117.445 153.11 117.445 152.45V144.91ZM83.3747 166.13H80.6547V165.52C80.8147 165.64 81.0347 165.89 81.1347 166.04C81.4847 165.85 81.7647 165.57 81.9847 165.24C82.2847 165.52 82.5847 165.82 82.7647 166.03L83.3047 165.52C83.0847 165.29 82.6547 164.92 82.2947 164.62C82.3747 164.42 82.4447 164.21 82.4847 164L81.6947 163.91C81.6047 164.54 81.2747 165.17 80.6547 165.5V163.84H83.3747V166.13ZM84.5047 162.96H79.5847V167.02H84.5047V162.96ZM79.0247 163.53C78.6447 163.2 77.8747 162.8 77.2947 162.56L76.6247 163.46C77.2247 163.72 77.9747 164.17 78.3347 164.51L79.0247 163.53ZM78.4847 166.16C78.1047 165.84 77.3447 165.46 76.7547 165.25L76.1147 166.14C76.7047 166.4 77.4447 166.82 77.7947 167.15L78.4847 166.16ZM77.8947 167.85C77.3847 169.02 76.7447 170.28 76.2847 171.05L77.3447 171.75C77.8547 170.78 78.3847 169.63 78.8247 168.56L77.8947 167.85ZM80.3047 168.53H80.8647V170.54H80.3047V168.53ZM82.3047 168.53V170.54H81.7447V168.53H82.3047ZM83.7647 168.53V170.54H83.1947V168.53H83.7647ZM84.8847 170.54V167.53H79.2447V170.54H78.4147V171.57H85.4947V170.54H84.8847ZM94.1747 166.13H91.4547V165.52C91.6147 165.64 91.8347 165.89 91.9347 166.04C92.2847 165.85 92.5647 165.57 92.7847 165.24C93.0847 165.52 93.3847 165.82 93.5647 166.03L94.1047 165.52C93.8847 165.29 93.4547 164.92 93.0947 164.62C93.1747 164.42 93.2447 164.21 93.2847 164L92.4947 163.91C92.4047 164.54 92.0747 165.17 91.4547 165.5V163.84H94.1747V166.13ZM95.3047 162.96H90.3847V167.02H95.3047V162.96ZM89.8247 163.53C89.4447 163.2 88.6747 162.8 88.0947 162.56L87.4247 163.46C88.0247 163.72 88.7747 164.17 89.1347 164.51L89.8247 163.53ZM89.2847 166.16C88.9047 165.84 88.1447 165.46 87.5547 165.25L86.9147 166.14C87.5047 166.4 88.2447 166.82 88.5947 167.15L89.2847 166.16ZM88.6947 167.85C88.1847 169.02 87.5447 170.28 87.0847 171.05L88.1447 171.75C88.6547 170.78 89.1847 169.63 89.6247 168.56L88.6947 167.85ZM91.1047 168.53H91.6647V170.54H91.1047V168.53ZM93.1047 168.53V170.54H92.5447V168.53H93.1047ZM94.5647 168.53V170.54H93.9947V168.53H94.5647ZM95.6847 170.54V167.53H90.0447V170.54H89.2147V171.57H96.2947V170.54H95.6847ZM99.2447 169.79V167.83H100.835V169.79H99.2447ZM100.835 166.8H99.2447V165.18H100.835V166.8ZM104.015 164.07C104.165 163.65 104.295 163.23 104.405 162.8L103.265 162.54C102.975 163.71 102.495 164.92 101.915 165.76V164.14H100.365C100.535 163.71 100.715 163.21 100.885 162.71L99.5847 162.53C99.5447 163 99.4247 163.64 99.2947 164.14H98.1647V171.57H99.2447V170.84H101.915V166.17C102.185 166.35 102.525 166.58 102.685 166.73C102.995 166.3 103.305 165.75 103.565 165.15H105.705C105.595 168.68 105.465 170.18 105.175 170.5C105.045 170.63 104.935 170.67 104.735 170.67C104.475 170.67 103.885 170.67 103.245 170.61C103.455 170.94 103.615 171.44 103.635 171.77C104.225 171.79 104.825 171.8 105.205 171.75C105.605 171.68 105.885 171.57 106.165 171.2C106.575 170.67 106.685 169.08 106.815 164.61C106.825 164.47 106.825 164.07 106.825 164.07H104.015ZM105.165 168.63C104.855 168.05 104.195 167.1 103.695 166.41L102.765 166.94C103.255 167.67 103.875 168.65 104.155 169.25L105.165 168.63ZM115.005 169.63V170.57H111.375V169.63H115.005ZM110.235 171.87H111.375V171.6H115.005V171.84H116.195V168.61H110.235V171.87ZM111.925 166.98C112.415 166.61 112.845 166.22 113.165 165.84C113.495 166.22 113.945 166.61 114.445 166.98H111.925ZM114.795 164.32C115.065 164.72 115.355 165.18 115.475 165.5L116.575 165.11C116.475 164.88 116.295 164.6 116.095 164.32H117.715V163.32H114.925C115.015 163.11 115.105 162.9 115.185 162.69L114.015 162.42C113.805 163.03 113.455 163.64 113.035 164.12V163.32H110.865C110.965 163.12 111.045 162.91 111.125 162.71L109.985 162.42C109.665 163.34 109.085 164.3 108.445 164.89C108.725 165.04 109.205 165.36 109.435 165.54C109.735 165.21 110.045 164.79 110.335 164.32H110.435C110.675 164.72 110.895 165.19 110.985 165.5L112.035 165.15C111.955 164.91 111.795 164.61 111.625 164.32H112.845C112.765 164.39 112.695 164.46 112.615 164.52C112.755 164.59 112.945 164.71 113.135 164.84H112.555C111.745 165.88 110.145 167.04 108.465 167.66C108.695 167.91 108.975 168.33 109.105 168.58C109.835 168.28 110.555 167.9 111.215 167.47V167.95H115.215V167.5C115.885 167.93 116.605 168.3 117.275 168.56C117.465 168.25 117.705 167.85 117.975 167.57C116.475 167.12 114.905 166.19 113.825 164.99C114.005 164.8 114.175 164.57 114.345 164.32H114.795ZM81.32 181.15H78.97V180.53H77.76V181.15H75.51V182H81.32V181.15ZM75.16 180.84H72.6V181.74H75.16V180.84ZM75.43 182.18H72.13V183.12H75.43V182.18ZM74.22 187.25V188.4H73.43V187.25H74.22ZM75.17 186.32H72.51V189.73H73.43V189.33H75.17V186.32ZM72.54 185.83H75.19V184.94H72.54V185.83ZM72.54 184.48H75.19V183.57H72.54V184.48ZM77.63 187.76C77.85 187.63 78.05 187.49 78.22 187.34H78.38C78.52 187.74 78.71 188.11 78.93 188.44C78.5 188.5 78.05 188.57 77.63 188.63V187.76ZM77.87 186.2H78.93V186.53H77.87V186.2ZM77.87 185.17H78.93V185.49H77.87V185.17ZM76.71 183.41V182.89H77.35V183.41H76.71ZM79.47 182.89H80.14V183.41H79.47V182.89ZM80.75 187.37C80.49 187.54 80.1 187.78 79.76 187.97C79.6 187.78 79.46 187.57 79.35 187.34H81.37V186.53H80V186.2H81.11V185.49H80V185.17H81.23V184.46H80V184.02H81.04V182.27H78.62V184.02H78.93V184.46H77.87V184.02H78.25V182.27H75.86V184.02H76.82V184.46H75.72V185.17H76.82V185.49H75.85V186.2H76.82V186.53H75.4V187.34H76.78C76.3 187.55 75.74 187.72 75.21 187.84C75.37 188.01 75.64 188.4 75.75 188.58C76.04 188.49 76.33 188.39 76.62 188.27V188.79C76.33 188.83 76.06 188.87 75.82 188.9L76.1 189.79C76.94 189.65 78.02 189.47 79.05 189.28L78.99 188.51C79.46 189.15 80.1 189.63 80.96 189.89C81.08 189.63 81.35 189.25 81.57 189.06C81.09 188.94 80.67 188.75 80.32 188.5C80.66 188.35 81.04 188.16 81.35 187.95L80.75 187.37ZM92.32 180.48H89.01V186.87H90.19V181.56H92.32V180.48ZM96.93 181.82V182.36H95.4V181.82H96.93ZM95.4 183.73V183.16H96.93V183.73H95.4ZM98.04 184.63V180.91H94.22V189.87H95.4V184.63H98.04ZM99.19 186.3V187.48H97.54V186.3H99.19ZM100.3 188.46V185.32H96.43V189.02H97.54V188.46H100.3ZM99.86 183.74V183.16H101.44V183.74H99.86ZM101.44 181.81V182.36H99.86V181.81H101.44ZM102.64 180.91H98.73V184.64H101.44V188.43C101.44 188.61 101.37 188.67 101.18 188.67C100.99 188.68 100.31 188.69 99.73 188.65C99.9 188.97 100.09 189.53 100.13 189.87C101.05 189.87 101.68 189.84 102.09 189.64C102.51 189.45 102.64 189.11 102.64 188.45V180.91ZM111 187.63V188.57H107.37V187.63H111ZM106.23 189.87H107.37V189.6H111V189.84H112.19V186.61H106.23V189.87ZM107.92 184.98C108.41 184.61 108.84 184.22 109.16 183.84C109.49 184.22 109.94 184.61 110.44 184.98H107.92ZM110.79 182.32C111.06 182.72 111.35 183.18 111.47 183.5L112.57 183.11C112.47 182.88 112.29 182.6 112.09 182.32H113.71V181.32H110.92C111.01 181.11 111.1 180.9 111.18 180.69L110.01 180.42C109.8 181.03 109.45 181.64 109.03 182.12V181.32H106.86C106.96 181.12 107.04 180.91 107.12 180.71L105.98 180.42C105.66 181.34 105.08 182.3 104.44 182.89C104.72 183.04 105.2 183.36 105.43 183.54C105.73 183.21 106.04 182.79 106.33 182.32H106.43C106.67 182.72 106.89 183.19 106.98 183.5L108.03 183.15C107.95 182.91 107.79 182.61 107.62 182.32H108.84C108.76 182.39 108.69 182.46 108.61 182.52C108.75 182.59 108.94 182.71 109.13 182.84H108.55C107.74 183.88 106.14 185.04 104.46 185.66C104.69 185.91 104.97 186.33 105.1 186.58C105.83 186.28 106.55 185.9 107.21 185.47V185.95H111.21V185.5C111.88 185.93 112.6 186.3 113.27 186.56C113.46 186.25 113.7 185.85 113.97 185.57C112.47 185.12 110.9 184.19 109.82 182.99C110 182.8 110.17 182.57 110.34 182.32H110.79ZM115.28 189.92H118.6V183.53H117.41V188.84H115.28V189.92ZM51.2547 201.72C51.0147 202.53 50.6847 203.27 50.2947 203.94C50.1247 203.14 49.9847 202.2 49.8947 201.2H52.9847V200.02H51.9447L52.4247 199.51C52.0747 199.18 51.3447 198.72 50.7947 198.44L50.0747 199.15C50.4847 199.4 50.9847 199.72 51.3547 200.02H49.8247C49.8047 199.53 49.7947 199.04 49.8047 198.54H48.5547C48.5547 199.04 48.5747 199.53 48.5947 200.02H44.5147V202.94C44.5147 204.24 44.4447 205.98 43.6847 207.18C43.9547 207.32 44.4847 207.76 44.6947 207.99C45.5147 206.77 45.7247 204.82 45.7647 203.36H47.0647C47.0347 204.62 46.9947 205.1 46.8947 205.24C46.8147 205.34 46.7347 205.36 46.5947 205.36C46.4347 205.36 46.0947 205.35 45.7347 205.32C45.9147 205.62 46.0447 206.08 46.0647 206.43C46.5247 206.44 46.9547 206.44 47.2147 206.4C47.5147 206.35 47.7147 206.26 47.9047 206C48.1347 205.71 48.1947 204.82 48.2247 202.72C48.2247 202.58 48.2347 202.27 48.2347 202.27H45.7647V201.2H48.6647C48.7947 202.7 49.0147 204.1 49.3547 205.23C48.7747 205.88 48.0847 206.43 47.3147 206.85C47.5647 207.08 47.9947 207.57 48.1747 207.83C48.7947 207.45 49.3547 207 49.8647 206.47C50.3047 207.29 50.8547 207.79 51.5547 207.79C52.4847 207.79 52.8847 207.35 53.0747 205.5C52.7547 205.37 52.3347 205.11 52.0647 204.83C52.0147 206.08 51.8947 206.58 51.6547 206.58C51.3347 206.58 51.0147 206.16 50.7247 205.44C51.4447 204.47 52.0347 203.31 52.4447 202.01L51.2547 201.72ZM57.3547 205.43C57.5147 206.07 57.6147 206.93 57.5847 207.47L58.6047 207.35C58.6047 206.79 58.5047 205.95 58.3147 205.31L57.3547 205.43ZM58.8547 205.34C59.0647 205.9 59.2847 206.65 59.3447 207.14L60.2947 206.89C60.2247 206.42 59.9947 205.68 59.7647 205.13L58.8547 205.34ZM60.9947 201.22C60.9347 201.49 60.8747 201.75 60.8147 201.98H58.8847C59.0347 201.73 59.1647 201.48 59.2947 201.22H60.9947ZM61.6547 203C61.6047 203.28 61.5447 203.54 61.4847 203.78H57.6147C57.8347 203.53 58.0347 203.27 58.2347 203H61.6547ZM63.6647 203.78H62.5547C62.6947 203.24 62.8247 202.57 62.9347 201.98H61.8947C62.0247 201.43 62.1747 200.74 62.2947 200.15H59.7747C59.9447 199.71 60.1047 199.26 60.2447 198.81L59.0247 198.53C58.8847 199.07 58.7047 199.62 58.4747 200.15H57.2247L58.0047 199.83C57.8047 199.46 57.3847 198.91 57.0247 198.53L55.9547 198.95C56.2647 199.31 56.6047 199.79 56.7947 200.15H54.8447V201.22H57.9647C57.1547 202.71 55.9747 204.01 54.3747 204.82C54.5847 205.09 54.8747 205.56 55.0147 205.86C55.3547 205.67 55.6847 205.47 55.9847 205.25C55.8047 205.98 55.4847 206.71 55.0047 207.18L55.9247 207.83C56.5147 207.21 56.8147 206.28 57.0147 205.42L56.1547 205.13C56.2947 205.03 56.4347 204.91 56.5747 204.8H62.4047C62.2847 206 62.1447 206.54 61.9747 206.71C61.8747 206.81 61.7747 206.82 61.6147 206.82C61.4147 206.83 60.9947 206.82 60.5647 206.78C60.7447 207.08 60.8747 207.53 60.8947 207.86C61.4047 207.88 61.8747 207.88 62.1647 207.84C62.4947 207.8 62.7247 207.72 62.9647 207.46C63.2847 207.13 63.4647 206.26 63.6347 204.24L63.6647 203.78ZM61.8147 206.19C61.7147 205.82 61.4447 205.28 61.1747 204.87L60.3547 205.15C60.6047 205.57 60.8547 206.15 60.9447 206.5L61.8147 206.19ZM70.4047 203.03C70.3847 204.51 70.3547 205.04 70.2647 205.19C70.1947 205.28 70.1247 205.31 70.0147 205.31C69.9047 205.31 69.7147 205.31 69.4647 205.28C69.5847 204.57 69.6147 203.85 69.6147 203.23V203.03H70.4047ZM73.4747 201.98C73.3247 202.66 73.1347 203.3 72.8847 203.88C72.7747 203.03 72.7047 202.04 72.6547 200.99H74.5647V199.91H74.0147L74.4347 199.65C74.2547 199.32 73.8347 198.83 73.4647 198.48L72.6547 198.96C72.9247 199.24 73.2147 199.6 73.4147 199.91H72.6347C72.6247 199.45 72.6247 198.99 72.6347 198.52H71.5147C71.5147 198.98 71.5247 199.44 71.5347 199.91H68.5247V203.23C68.5247 203.84 68.5047 204.55 68.3647 205.22L68.2247 204.49L67.4547 204.76V202H68.2347V200.9H67.4547V198.66H66.3547V200.9H65.4847V202H66.3547V205.15C65.9647 205.28 65.6147 205.4 65.3147 205.48L65.6947 206.67C66.4547 206.36 67.3947 205.97 68.2747 205.61C68.1347 206.17 67.8747 206.72 67.4747 207.17C67.7247 207.32 68.1747 207.7 68.3347 207.9C68.9747 207.21 69.2947 206.27 69.4547 205.31C69.5947 205.56 69.6747 205.95 69.7047 206.25C70.0447 206.26 70.3647 206.25 70.5647 206.21C70.8047 206.17 70.9547 206.08 71.1147 205.86C71.3147 205.59 71.3547 204.7 71.3847 202.47C71.3947 202.34 71.3947 202.07 71.3947 202.07H69.6147V200.99H71.5747C71.6347 202.63 71.7747 204.19 72.0447 205.39C71.5347 206.08 70.9147 206.65 70.1747 207.09C70.4247 207.26 70.8447 207.68 71.0047 207.88C71.5247 207.53 71.9947 207.12 72.4047 206.64C72.6947 207.33 73.0747 207.75 73.5647 207.75C74.3347 207.75 74.6447 207.32 74.7947 205.78C74.5247 205.67 74.1847 205.41 73.9647 205.16C73.9347 206.18 73.8547 206.65 73.7047 206.65C73.5147 206.65 73.3347 206.27 73.1747 205.61C73.7847 204.65 74.2247 203.49 74.5447 202.18L73.4747 201.98ZM85.3847 200.95V199.79H81.4147V198.49H80.1447V199.79H76.2647V200.95H80.1547V202H77.2047V206.67H78.4047V203.16H80.1547V207.88H81.3947V203.16H83.3047V205.36C83.3047 205.47 83.2547 205.52 83.0947 205.52C82.9347 205.52 82.3447 205.52 81.8447 205.5C82.0147 205.82 82.1947 206.33 82.2447 206.67C83.0247 206.67 83.5947 206.65 84.0147 206.47C84.4247 206.29 84.5447 205.95 84.5447 205.38V202H81.3947V200.95H85.3847ZM88.4447 205.79V203.83H90.0347V205.79H88.4447ZM90.0347 202.8H88.4447V201.18H90.0347V202.8ZM93.2147 200.07C93.3647 199.65 93.4947 199.23 93.6047 198.8L92.4647 198.54C92.1747 199.71 91.6947 200.92 91.1147 201.76V200.14H89.5647C89.7347 199.71 89.9147 199.21 90.0847 198.71L88.7847 198.53C88.7447 199 88.6247 199.64 88.4947 200.14H87.3647V207.57H88.4447V206.84H91.1147V202.17C91.3847 202.35 91.7247 202.58 91.8847 202.73C92.1947 202.3 92.5047 201.75 92.7647 201.15H94.9047C94.7947 204.68 94.6647 206.18 94.3747 206.5C94.2447 206.63 94.1347 206.67 93.9347 206.67C93.6747 206.67 93.0847 206.67 92.4447 206.61C92.6547 206.94 92.8147 207.44 92.8347 207.77C93.4247 207.79 94.0247 207.8 94.4047 207.75C94.8047 207.68 95.0847 207.57 95.3647 207.2C95.7747 206.67 95.8847 205.08 96.0147 200.61C96.0247 200.47 96.0247 200.07 96.0247 200.07H93.2147ZM94.3647 204.63C94.0547 204.05 93.3947 203.1 92.8947 202.41L91.9647 202.94C92.4547 203.67 93.0747 204.65 93.3547 205.25L94.3647 204.63ZM100.845 205.8H102.655V204.96H100.845V204.57H102.615V201.48H100.845V201.09H102.765V201.87H103.675C103.605 203.66 103.365 205.09 102.585 206.17C102.005 206.22 101.415 206.27 100.845 206.31V205.8ZM98.9847 203.83V203.38H99.7647V203.83H98.9847ZM101.625 203.38V203.83H100.845V203.38H101.625ZM100.845 202.67V202.23H101.625V202.67H100.845ZM98.9847 202.23H99.7647V202.67H98.9847V202.23ZM104.835 200.78C104.855 200.12 104.855 199.42 104.855 198.69H103.715C103.715 199.43 103.715 200.12 103.705 200.78H102.765V200.23H100.845V199.74C101.495 199.67 102.115 199.58 102.645 199.47L102.125 198.58C101.025 198.82 99.2947 198.99 97.8147 199.07C97.9247 199.3 98.0347 199.67 98.0747 199.91C98.6147 199.9 99.1847 199.87 99.7647 199.83V200.23H97.7947V201.09H99.7647V201.48H98.0447V204.57H99.7647V204.96H98.0047V205.8H99.7647V206.4C98.9947 206.45 98.2947 206.5 97.7347 206.54L97.8747 207.54C98.9547 207.45 100.395 207.3 101.835 207.15C102.095 207.37 102.385 207.7 102.535 207.94C104.215 206.61 104.675 204.55 104.805 201.87H105.705C105.645 205.1 105.545 206.32 105.335 206.59C105.245 206.72 105.145 206.76 104.995 206.76C104.805 206.76 104.425 206.75 103.985 206.71C104.185 207.04 104.315 207.52 104.335 207.85C104.815 207.86 105.275 207.87 105.575 207.81C105.905 207.74 106.135 207.64 106.365 207.31C106.685 206.85 106.765 205.4 106.855 201.31C106.855 201.17 106.865 200.78 106.865 200.78H104.835ZM111.975 198.84H109.035V199.74H111.975V198.84ZM111.005 205.26V206.41H109.975V205.26H111.005ZM112.015 204.32H108.975V207.73H109.975V207.34H112.015V204.32ZM109.005 203.83H112.005V202.94H109.005V203.83ZM112.005 201.57H109.005V202.48H112.005V201.57ZM108.535 201.12H112.285V200.18H108.535V201.12ZM114.635 203.42V204.68H113.725V203.42H114.635ZM115.675 205.68V202.42H112.705V206.2H113.725V205.68H115.675ZM115.895 200.74H112.565V201.77H115.895V200.74ZM117.545 198.95H112.535V200.06H116.385V206.43C116.385 206.6 116.325 206.66 116.135 206.66C115.945 206.67 115.305 206.67 114.725 206.63C114.895 206.96 115.075 207.53 115.115 207.87C116.015 207.87 116.615 207.84 117.015 207.64C117.415 207.45 117.545 207.09 117.545 206.45V198.95ZM96.1247 217.15H93.7747V216.53H92.5647V217.15H90.3147V218H96.1247V217.15ZM89.9647 216.84H87.4047V217.74H89.9647V216.84ZM90.2347 218.18H86.9347V219.12H90.2347V218.18ZM89.0247 223.25V224.4H88.2347V223.25H89.0247ZM89.9747 222.32H87.3147V225.73H88.2347V225.33H89.9747V222.32ZM87.3447 221.83H89.9947V220.94H87.3447V221.83ZM87.3447 220.48H89.9947V219.57H87.3447V220.48ZM92.4347 223.76C92.6547 223.63 92.8547 223.49 93.0247 223.34H93.1847C93.3247 223.74 93.5147 224.11 93.7347 224.44C93.3047 224.5 92.8547 224.57 92.4347 224.63V223.76ZM92.6747 222.2H93.7347V222.53H92.6747V222.2ZM92.6747 221.17H93.7347V221.49H92.6747V221.17ZM91.5147 219.41V218.89H92.1547V219.41H91.5147ZM94.2747 218.89H94.9447V219.41H94.2747V218.89ZM95.5547 223.37C95.2947 223.54 94.9047 223.78 94.5647 223.97C94.4047 223.78 94.2647 223.57 94.1547 223.34H96.1747V222.53H94.8047V222.2H95.9147V221.49H94.8047V221.17H96.0347V220.46H94.8047V220.02H95.8447V218.27H93.4247V220.02H93.7347V220.46H92.6747V220.02H93.0547V218.27H90.6647V220.02H91.6247V220.46H90.5247V221.17H91.6247V221.49H90.6547V222.2H91.6247V222.53H90.2047V223.34H91.5847C91.1047 223.55 90.5447 223.72 90.0147 223.84C90.1747 224.01 90.4447 224.4 90.5547 224.58C90.8447 224.49 91.1347 224.39 91.4247 224.27V224.79C91.1347 224.83 90.8647 224.87 90.6247 224.9L90.9047 225.79C91.7447 225.65 92.8247 225.47 93.8547 225.28L93.7947 224.51C94.2647 225.15 94.9047 225.63 95.7647 225.89C95.8847 225.63 96.1547 225.25 96.3747 225.06C95.8947 224.94 95.4747 224.75 95.1247 224.5C95.4647 224.35 95.8447 224.16 96.1547 223.95L95.5547 223.37ZM101.365 218.52H103.475V219.46H104.665V218.52H106.835V217.38H104.665V216.53H103.475V217.38H101.365V216.53H100.185V217.38H97.9747V218.52H100.185V219.34C99.6247 220.52 98.6347 221.7 97.5947 222.42C97.8747 222.61 98.3547 223.03 98.5747 223.26C98.8647 223.02 99.1647 222.74 99.4547 222.43V225.87H100.635V220.95C100.905 220.55 101.155 220.13 101.365 219.7L100.515 219.44H101.365V218.52ZM104.155 224.62C103.715 224.62 103.655 224.56 103.655 224.12V222.57C104.695 222.16 105.845 221.64 106.725 221.1L105.835 220.2C105.275 220.61 104.475 221.09 103.655 221.48V219.51H102.475V224.12C102.475 225.36 102.795 225.72 104.005 225.72H105.565C106.635 225.72 106.945 225.24 107.085 223.62C106.765 223.54 106.265 223.36 106.005 223.15C105.945 224.39 105.875 224.62 105.465 224.62H104.155ZM115.965 220.73V221.12H114.905V220.73H115.965ZM115.965 222.18H114.905V221.78H115.965V222.18ZM112.785 222.18V221.78H113.805V222.18H112.785ZM112.785 220.73H113.805V221.12H112.785V220.73ZM110.865 218.64H112.045V218.03H114.335V218.44H113.805V218.88H111.415V219.67H113.805V220.04H111.715V222.88H113.805V223.26H111.265V224.1H113.805V224.59H114.905V224.1H117.555V223.26H114.905V222.88H117.095V220.04H114.905V219.67H117.415V218.88H114.905V218.61H115.515V218.03H117.665V217.06H115.515V216.54H114.335V217.06H112.045V216.54H110.865V217.06H108.755V218.03H110.865V218.64ZM110.945 219.76C110.675 219.38 110.075 218.86 109.605 218.52L108.755 219.15C109.225 219.52 109.785 220.08 110.035 220.47L110.945 219.76ZM110.865 221.11H108.675V222.11H109.765V223.96C109.345 224.26 108.885 224.54 108.495 224.77L108.975 225.82C109.515 225.43 109.975 225.06 110.425 224.69C110.995 225.41 111.745 225.69 112.885 225.74C114.105 225.78 116.345 225.76 117.595 225.7C117.645 225.41 117.795 224.92 117.915 224.68C116.565 224.78 114.095 224.81 112.885 224.76C111.925 224.72 111.245 224.45 110.865 223.82V221.11ZM8.05469 237.72C7.81469 238.53 7.48469 239.27 7.09469 239.94C6.92469 239.14 6.78469 238.2 6.69469 237.2H9.78469V236.02H8.74469L9.22469 235.51C8.87469 235.18 8.14469 234.72 7.59469 234.44L6.87469 235.15C7.28469 235.4 7.78469 235.72 8.15469 236.02H6.62469C6.60469 235.53 6.59469 235.04 6.60469 234.54H5.35469C5.35469 235.04 5.37469 235.53 5.39469 236.02H1.31469V238.94C1.31469 240.24 1.24469 241.98 0.484689 243.18C0.754689 243.32 1.28469 243.76 1.49469 243.99C2.31469 242.77 2.52469 240.82 2.56469 239.36H3.86469C3.83469 240.62 3.79469 241.1 3.69469 241.24C3.61469 241.34 3.53469 241.36 3.39469 241.36C3.23469 241.36 2.89469 241.35 2.53469 241.32C2.71469 241.62 2.84469 242.08 2.86469 242.43C3.32469 242.44 3.75469 242.44 4.01469 242.4C4.31469 242.35 4.51469 242.26 4.70469 242C4.93469 241.71 4.99469 240.82 5.02469 238.72C5.02469 238.58 5.03469 238.27 5.03469 238.27H2.56469V237.2H5.46469C5.59469 238.7 5.81469 240.1 6.15469 241.23C5.57469 241.88 4.88469 242.43 4.11469 242.85C4.36469 243.08 4.79469 243.57 4.97469 243.83C5.59469 243.45 6.15469 243 6.66469 242.47C7.10469 243.29 7.65469 243.79 8.35469 243.79C9.28469 243.79 9.68469 243.35 9.87469 241.5C9.55469 241.37 9.13469 241.11 8.86469 240.83C8.81469 242.08 8.69469 242.58 8.45469 242.58C8.13469 242.58 7.81469 242.16 7.52469 241.44C8.24469 240.47 8.83469 239.31 9.24469 238.01L8.05469 237.72ZM14.1547 241.43C14.3147 242.07 14.4147 242.93 14.3847 243.47L15.4047 243.35C15.4047 242.79 15.3047 241.95 15.1147 241.31L14.1547 241.43ZM15.6547 241.34C15.8647 241.9 16.0847 242.65 16.1447 243.14L17.0947 242.89C17.0247 242.42 16.7947 241.68 16.5647 241.13L15.6547 241.34ZM17.7947 237.22C17.7347 237.49 17.6747 237.75 17.6147 237.98H15.6847C15.8347 237.73 15.9647 237.48 16.0947 237.22H17.7947ZM18.4547 239C18.4047 239.28 18.3447 239.54 18.2847 239.78H14.4147C14.6347 239.53 14.8347 239.27 15.0347 239H18.4547ZM20.4647 239.78H19.3547C19.4947 239.24 19.6247 238.57 19.7347 237.98H18.6947C18.8247 237.43 18.9747 236.74 19.0947 236.15H16.5747C16.7447 235.71 16.9047 235.26 17.0447 234.81L15.8247 234.53C15.6847 235.07 15.5047 235.62 15.2747 236.15H14.0247L14.8047 235.83C14.6047 235.46 14.1847 234.91 13.8247 234.53L12.7547 234.95C13.0647 235.31 13.4047 235.79 13.5947 236.15H11.6447V237.22H14.7647C13.9547 238.71 12.7747 240.01 11.1747 240.82C11.3847 241.09 11.6747 241.56 11.8147 241.86C12.1547 241.67 12.4847 241.47 12.7847 241.25C12.6047 241.98 12.2847 242.71 11.8047 243.18L12.7247 243.83C13.3147 243.21 13.6147 242.28 13.8147 241.42L12.9547 241.13C13.0947 241.03 13.2347 240.91 13.3747 240.8H19.2047C19.0847 242 18.9447 242.54 18.7747 242.71C18.6747 242.81 18.5747 242.82 18.4147 242.82C18.2147 242.83 17.7947 242.82 17.3647 242.78C17.5447 243.08 17.6747 243.53 17.6947 243.86C18.2047 243.88 18.6747 243.88 18.9647 243.84C19.2947 243.8 19.5247 243.72 19.7647 243.46C20.0847 243.13 20.2647 242.26 20.4347 240.24L20.4647 239.78ZM18.6147 242.19C18.5147 241.82 18.2447 241.28 17.9747 240.87L17.1547 241.15C17.4047 241.57 17.6547 242.15 17.7447 242.5L18.6147 242.19ZM22.2147 238.46V239.75H31.4147V238.46H22.2147ZM39.0147 241.62H41.6747V240.59H39.0147V239.75C39.2247 239.92 39.4347 240.11 39.5447 240.24C39.9047 239.96 40.2047 239.61 40.4447 239.21C40.8847 239.59 41.3147 239.99 41.5747 240.28L42.2647 239.46C41.9547 239.14 41.3947 238.67 40.8847 238.26C41.0047 237.91 41.0947 237.52 41.1547 237.11L40.0947 236.99C39.9647 237.96 39.6247 238.76 39.0147 239.3V236.86H37.8647V239.19C37.6347 238.92 37.2747 238.58 36.9347 238.27C37.0447 237.91 37.1247 237.5 37.1747 237.07L36.0947 236.99C35.9747 238.15 35.5947 239.06 34.7747 239.61C34.8047 239.08 34.8147 238.59 34.8147 238.16V236.53H42.1447V235.44H38.5347V234.54H37.2947V235.44H33.6447V238.15C33.6447 239.61 33.5847 241.7 32.8047 243.13C33.0847 243.25 33.6047 243.59 33.8147 243.79C34.4347 242.65 34.6847 241.03 34.7747 239.61C35.0147 239.77 35.4547 240.12 35.6347 240.31C35.9947 240.02 36.2947 239.66 36.5347 239.24C36.8347 239.55 37.1347 239.87 37.2947 240.11L37.8647 239.43V240.59H35.3547V241.62H37.8647V242.61H34.7247V243.63H42.2147V242.61H39.0147V241.62ZM46.3747 237.21C45.4147 237.54 44.4347 237.88 43.7847 238.08L44.1947 239.05C44.9047 238.76 45.7547 238.41 46.5547 238.06L46.3747 237.21ZM50.5847 241.16H46.3047V240.58H50.5847V241.16ZM46.3047 242.63V242.05H50.5847V242.63H46.3047ZM47.9747 238.8C48.0347 238.67 48.0547 238.5 48.0547 238.28V234.97H44.0447V235.89H44.8047L44.3047 236.49C44.7547 236.73 45.3147 237.12 45.5647 237.4L46.1647 236.64C45.9247 236.41 45.4547 236.11 45.0547 235.89H46.9847V238.27C46.9847 238.37 46.9447 238.41 46.8347 238.41C46.7247 238.41 46.3347 238.41 45.9947 238.4C46.1147 238.63 46.2547 238.98 46.2947 239.24C46.9047 239.24 47.3447 239.24 47.6547 239.11L47.6847 239.1C47.6247 239.28 47.5547 239.49 47.4747 239.68H45.1247V243.89H46.3047V243.53H50.5847V243.89H51.8247V239.68H48.6547C48.7847 239.46 48.9247 239.21 49.0447 238.95L47.9747 238.8ZM52.5747 234.97H48.5947V235.89H49.2447L48.7647 236.48C49.1947 236.71 49.7447 237.07 50.0247 237.35C49.3747 237.57 48.7647 237.76 48.3047 237.9L48.7047 238.79C49.4447 238.52 50.3647 238.18 51.2247 237.85L51.0447 237C50.7347 237.11 50.4247 237.21 50.1247 237.32L50.6647 236.6C50.4247 236.39 49.9647 236.1 49.5547 235.89H51.4647V238.24C51.4647 238.35 51.4247 238.38 51.2947 238.39C51.1747 238.39 50.7347 238.39 50.3547 238.37C50.4847 238.62 50.6247 238.99 50.6747 239.27C51.3247 239.28 51.8047 239.27 52.1347 239.12C52.4747 238.97 52.5747 238.73 52.5747 238.25V234.97ZM54.8447 236.5C54.8447 237.39 54.7247 238.48 54.4247 239.11L55.1347 239.42C55.4647 238.68 55.5947 237.52 55.5747 236.59L54.8447 236.5ZM59.2347 241.14H61.9947V241.53H59.2347V241.14ZM59.2347 240.04H61.9947V240.44H59.2347V240.04ZM59.2347 238.95H61.9947V239.34H59.2347V238.95ZM63.1647 242.29V238.2H58.1247V242.29H59.0647C58.5947 242.61 57.8647 242.89 57.1747 243.07C57.4047 243.27 57.7947 243.69 57.9647 243.92C58.7847 243.61 59.7247 243.1 60.2947 242.53L59.5847 242.29H61.5247L61.0547 242.71C61.7247 243.07 62.5247 243.56 62.9547 243.88L63.8747 243.22C63.4747 242.96 62.8347 242.61 62.2147 242.29H63.1647ZM61.0147 237.12L61.0547 236.71H61.9547L61.9247 237.12H61.0147ZM59.2847 236.71H60.0747C60.0647 236.85 60.0447 236.99 60.0347 237.12H59.2447L59.2847 236.71ZM60.1547 235.61L60.1347 236H59.3447L59.3847 235.61H60.1547ZM61.9947 236H61.1247L61.1547 235.61H62.0247L61.9947 236ZM63.0647 235.85L63.1347 234.85H58.4347L58.3447 235.85H57.4447V236.75C57.3847 236.57 57.3247 236.4 57.2647 236.23L56.7247 236.4V234.53H55.6547V243.86H56.7247V236.79C56.8947 237.38 57.0147 238.06 57.0347 238.5L57.7347 238.26C57.7247 237.89 57.6247 237.36 57.4747 236.85H58.2547L58.1547 237.88H62.9347L63.0047 236.85H63.8747V235.85H63.0647ZM68.0547 241.06C67.5247 241.73 66.4647 242.55 65.5247 243.05C65.8047 243.24 66.2447 243.62 66.5047 243.88C67.4647 243.31 68.5647 242.41 69.3147 241.55L68.0547 241.06ZM70.6947 241.62C71.5847 242.3 72.7747 243.27 73.3247 243.88L74.5047 243.18C73.8747 242.57 72.6347 241.64 71.7847 241.03L70.6947 241.62ZM68.8547 237.6H71.1547V239.52H68.8547V237.6ZM72.3947 239.52V237.6H74.2647V236.45H72.3947V234.6H71.1547V236.45H68.8547V234.6H67.6147V236.45H65.8147V237.6H67.6147V239.52H65.4647V240.68H74.5747V239.52H72.3947ZM79.0247 234.84H76.5747V235.74H79.0247V234.84ZM79.2747 236.18H76.1347V237.12H79.2747V236.18ZM79.0347 237.57H76.5247V238.48H79.0347V237.57ZM76.5247 239.83H79.0347V238.94H76.5247V239.83ZM78.1347 241.25V242.4H77.3947V241.25H78.1347ZM79.0647 240.32H76.4947V243.73H77.3947V243.33H79.0647V240.32ZM80.4747 241.94V241.41H81.4547V241.94H80.4747ZM81.4547 240.11V240.61H80.4747V240.11H81.4547ZM84.4047 239.26C84.2647 239.69 84.0947 240.09 83.9047 240.47C83.8647 239.99 83.8247 239.45 83.8047 238.84H85.4147V237.89H83.7847C83.7647 237.17 83.7647 236.39 83.7747 235.55C84.1347 236.1 84.4447 236.82 84.5547 237.32L85.5047 236.93C85.3647 236.43 85.0147 235.68 84.6147 235.14L83.7747 235.46L83.7847 234.54H82.7747C82.7747 235.77 82.7847 236.89 82.8047 237.89H82.0347C82.1347 237.53 82.2547 237.03 82.3847 236.55L81.4847 236.41H82.5947V235.52H81.5547V234.54H80.4647V235.52H79.4047V236.41H81.4247C81.3847 236.81 81.2947 237.39 81.2147 237.78L81.7347 237.89H80.1147L80.7847 237.73C80.7747 237.38 80.6547 236.84 80.4947 236.44L79.7047 236.61C79.8347 237.01 79.9247 237.53 79.9447 237.89H79.1947V238.84H82.8347C82.8847 239.98 82.9647 240.94 83.1047 241.71C82.8847 241.98 82.6547 242.22 82.4147 242.45V239.29H79.5847V243.14H80.4747V242.76H82.0547C81.8447 242.93 81.6247 243.08 81.4047 243.21C81.6247 243.38 81.9347 243.67 82.0747 243.87C82.5247 243.58 82.9747 243.22 83.3847 242.8C83.6447 243.48 84.0247 243.85 84.5547 243.89C84.9347 243.91 85.3647 243.56 85.6147 242.14C85.4447 242.03 85.0547 241.71 84.8847 241.47C84.8447 242.18 84.7447 242.62 84.6147 242.61C84.4147 242.59 84.2547 242.34 84.1347 241.91C84.5947 241.27 84.9947 240.55 85.2847 239.75L84.4047 239.26ZM88.4447 241.79V239.83H90.0347V241.79H88.4447ZM90.0347 238.8H88.4447V237.18H90.0347V238.8ZM93.2147 236.07C93.3647 235.65 93.4947 235.23 93.6047 234.8L92.4647 234.54C92.1747 235.71 91.6947 236.92 91.1147 237.76V236.14H89.5647C89.7347 235.71 89.9147 235.21 90.0847 234.71L88.7847 234.53C88.7447 235 88.6247 235.64 88.4947 236.14H87.3647V243.57H88.4447V242.84H91.1147V238.17C91.3847 238.35 91.7247 238.58 91.8847 238.73C92.1947 238.3 92.5047 237.75 92.7647 237.15H94.9047C94.7947 240.68 94.6647 242.18 94.3747 242.5C94.2447 242.63 94.1347 242.67 93.9347 242.67C93.6747 242.67 93.0847 242.67 92.4447 242.61C92.6547 242.94 92.8147 243.44 92.8347 243.77C93.4247 243.79 94.0247 243.8 94.4047 243.75C94.8047 243.68 95.0847 243.57 95.3647 243.2C95.7747 242.67 95.8847 241.08 96.0147 236.61C96.0247 236.47 96.0247 236.07 96.0247 236.07H93.2147ZM94.3647 240.63C94.0547 240.05 93.3947 239.1 92.8947 238.41L91.9647 238.94C92.4547 239.67 93.0747 240.65 93.3547 241.25L94.3647 240.63ZM102.805 239.03C102.785 240.51 102.755 241.04 102.665 241.19C102.595 241.28 102.525 241.31 102.415 241.31C102.305 241.31 102.115 241.31 101.865 241.28C101.985 240.57 102.015 239.85 102.015 239.23V239.03H102.805ZM105.875 237.98C105.725 238.66 105.535 239.3 105.285 239.88C105.175 239.03 105.105 238.04 105.055 236.99H106.965V235.91H106.415L106.835 235.65C106.655 235.32 106.235 234.83 105.865 234.48L105.055 234.96C105.325 235.24 105.615 235.6 105.815 235.91H105.035C105.025 235.45 105.025 234.99 105.035 234.52H103.915C103.915 234.98 103.925 235.44 103.935 235.91H100.925V239.23C100.925 239.84 100.905 240.55 100.765 241.22L100.625 240.49L99.8547 240.76V238H100.635V236.9H99.8547V234.66H98.7547V236.9H97.8847V238H98.7547V241.15C98.3647 241.28 98.0147 241.4 97.7147 241.48L98.0947 242.67C98.8547 242.36 99.7947 241.97 100.675 241.61C100.535 242.17 100.275 242.72 99.8747 243.17C100.125 243.32 100.575 243.7 100.735 243.9C101.375 243.21 101.695 242.27 101.855 241.31C101.995 241.56 102.075 241.95 102.105 242.25C102.445 242.26 102.765 242.25 102.965 242.21C103.205 242.17 103.355 242.08 103.515 241.86C103.715 241.59 103.755 240.7 103.785 238.47C103.795 238.34 103.795 238.07 103.795 238.07H102.015V236.99H103.975C104.035 238.63 104.175 240.19 104.445 241.39C103.935 242.08 103.315 242.65 102.575 243.09C102.825 243.26 103.245 243.68 103.405 243.88C103.925 243.53 104.395 243.12 104.805 242.64C105.095 243.33 105.475 243.75 105.965 243.75C106.735 243.75 107.045 243.32 107.195 241.78C106.925 241.67 106.585 241.41 106.365 241.16C106.335 242.18 106.255 242.65 106.105 242.65C105.915 242.65 105.735 242.27 105.575 241.61C106.185 240.65 106.625 239.49 106.945 238.18L105.875 237.98ZM117.785 236.95V235.79H113.815V234.49H112.545V235.79H108.665V236.95H112.555V238H109.605V242.67H110.805V239.16H112.555V243.88H113.795V239.16H115.705V241.36C115.705 241.47 115.655 241.52 115.495 241.52C115.335 241.52 114.745 241.52 114.245 241.5C114.415 241.82 114.595 242.33 114.645 242.67C115.425 242.67 115.995 242.65 116.415 242.47C116.825 242.29 116.945 241.95 116.945 241.38V238H113.795V236.95H117.785Z" fill="#262626"/>
</svg>
