<svg width="290" height="117" viewBox="0 0 290 117" fill="none" xmlns="http://www.w3.org/2000/svg">
<path d="M26.4042 1L26.4042 31.6212H20.5978V18.5453L6.36302 18.5453L6.36302 31.6212H0.556641L0.556641 1L6.36302 1L6.36302 13.3013L20.5978 13.3013L20.5978 1L26.4042 1Z" fill="#262626" stroke="#262626" stroke-width="0.3" stroke-miterlimit="10"/>
<path d="M32.2964 20.0945V1L38.1028 1V20.1404C38.1028 24.9542 40.7306 27.2377 45.114 27.2377C49.4975 27.2377 52.1253 24.9427 52.1253 20.1404V1L57.9317 1V20.0945C57.9317 28.0524 52.9859 32.2695 45.114 32.2695C37.42 32.2695 32.2964 28.0524 32.2964 20.0945Z" fill="#262626" stroke="#262626" stroke-width="0.3" stroke-miterlimit="10"/>
<path d="M81.3752 24.8681L67.9552 24.8681L65.5913 31.6212H59.6128L71.2657 1L78.0647 1L89.9356 31.6212H83.785L81.3752 24.8681ZM79.6138 19.9224L78.4089 16.6118C77.336 13.8176 75.8729 9.72678 74.6222 6.11788C73.3771 9.73252 71.914 13.8176 70.8813 16.6118L69.7338 19.9224L79.6138 19.9224Z" fill="#262626" stroke="#262626" stroke-width="0.3" stroke-miterlimit="10"/>
<path d="M113.896 26.4058V31.6097L93.5044 31.6097V1L99.3108 1V26.4058L113.896 26.4058Z" fill="#262626" stroke="#262626" stroke-width="0.3" stroke-miterlimit="10"/>
<path d="M118.412 1L124.218 1V31.6212H118.412V1Z" fill="#262626" stroke="#262626" stroke-width="0.3" stroke-miterlimit="10"/>
<path d="M136.393 6.20394V13.4275L151.574 13.4275V18.4191L136.393 18.4191V26.4058L153.095 26.4058V31.6097L130.604 31.6097V1L153.181 1V6.20394L136.393 6.20394Z" fill="#262626" stroke="#262626" stroke-width="0.3" stroke-miterlimit="10"/>
<path d="M183.917 1V31.6212H177.468L168.953 17.9888C167.014 14.9364 165.034 11.7521 163.485 8.80876C163.657 14.225 163.657 19.1363 163.657 23.646V31.6441H158.069V1L164.518 1L173.078 14.6324C174.8 17.4265 176.951 20.9436 178.5 23.8124C178.368 18.3962 178.328 13.4849 178.328 8.97516V1L183.917 1Z" fill="#262626" stroke="#262626" stroke-width="0.3" stroke-miterlimit="10"/>
<path d="M24.8551 53.0078C24.8551 58.9003 21.0683 62.9452 14.0169 62.9452H6.36301L6.36301 73.6514H0.556641L0.556641 43.0303H14.0169C21.0683 43.0303 24.8551 47.0695 24.8551 53.0078ZM19.0085 53.0078C19.0085 49.8235 17.1553 48.0162 13.7587 48.0162H6.36301L6.36301 57.9536H13.7587C17.1553 57.9536 19.0085 56.1921 19.0085 53.0078Z" stroke="#262626" stroke-width="0.3" stroke-miterlimit="10"/>
<path d="M35.5671 48.2342V55.4578H50.7486V60.4494H35.5671L35.5671 68.436H52.2576V73.64H29.7607L29.7607 43.0303L52.3437 43.0303V48.2342H35.5671Z" stroke="#262626" stroke-width="0.3" stroke-miterlimit="10"/>
<path d="M82.4488 73.6514H76.4703C75.8897 72.5232 75.6092 71.2646 75.6556 69.9966L75.5236 66.6402C75.3515 62.7272 73.7163 61.6543 70.6238 61.6543H63.0503L63.0503 73.6514H57.2439L57.2439 43.0303H71.1402C78.1916 43.0303 81.9325 46.513 81.9325 51.6767C81.9325 55.1996 80.1251 57.8273 76.8146 58.9863C80.2112 60.0592 81.1177 62.3428 81.2439 65.5214L81.5021 70.0827C81.4979 71.3349 81.8245 72.566 82.4488 73.6514V73.6514ZM70.7959 57.093C73.9344 57.093 75.9597 55.4578 75.9597 52.3193C75.9597 49.3071 73.9401 47.8039 70.5836 47.8039H63.0503V57.093H70.7959Z" stroke="#262626" stroke-width="0.3" stroke-miterlimit="10"/>
<path d="M92.9883 48.2342V55.4578H107.395V60.4494H92.9883V73.6457H87.1819V43.0303H108.801V48.2342H92.9883Z" stroke="#262626" stroke-width="0.3" stroke-miterlimit="10"/>
<path d="M111.699 58.3395C111.699 48.7062 117.809 42.3433 127.012 42.3433C136.215 42.3433 142.28 48.7062 142.28 58.3395C142.28 67.9728 136.175 74.3414 127.012 74.3414C117.85 74.3414 111.699 67.9785 111.699 58.3395ZM136.261 58.3395C136.261 51.5922 132.607 47.4382 127.012 47.4382C121.418 47.4382 117.764 51.5692 117.764 58.3395C117.764 65.1098 121.418 69.2408 127.012 69.2408C132.607 69.2408 136.261 65.0983 136.261 58.3395V58.3395Z" stroke="#262626" stroke-width="0.3" stroke-miterlimit="10"/>
<path d="M172.562 73.6524H166.584C166.001 72.5247 165.719 71.2661 165.763 69.9976L165.637 66.6412C165.465 62.7282 163.83 61.6553 160.731 61.6553H153.164V73.6524H147.357V43.0312H161.248C168.305 43.0312 172.046 46.5139 172.046 51.6777C172.046 55.2005 170.239 57.8283 166.928 58.9873C170.325 60.0602 171.225 62.3438 171.357 65.5224L171.616 70.0837C171.609 71.3362 171.935 72.568 172.562 73.6524V73.6524ZM160.904 57.0939C164.048 57.0939 166.067 55.4587 166.067 52.3203C166.067 49.3081 164.048 47.8049 160.691 47.8049H153.164V57.0939H160.904Z" stroke="#262626" stroke-width="0.3" stroke-miterlimit="10"/>
<path d="M209.897 43.0316V73.6528H204.349V64.3236C204.349 59.6762 204.394 54.6845 204.521 49.1363C203.832 51.46 203.144 53.5256 202.197 56.1935L196.012 73.6528H191.238L184.996 56.1935C184.089 53.5657 183.401 51.506 182.701 49.2224C182.833 54.7304 182.873 59.7163 182.873 64.3236V73.6528H177.285V43.0316H185.713L191.003 57.9148C191.91 60.663 192.851 63.6523 193.625 66.2112C194.4 63.549 195.392 60.3647 196.339 57.6049L201.457 43.0259L209.897 43.0316Z" stroke="#262626" stroke-width="0.3" stroke-miterlimit="10"/>
<path d="M216.265 43.0312H222.072V73.6524H216.265V43.0312Z" stroke="#262626" stroke-width="0.3" stroke-miterlimit="10"/>
<path d="M254.288 43.0312V73.6524H247.833L239.319 60.0201C237.385 56.9677 235.406 53.7834 233.856 50.84C234.029 56.2562 234.029 61.1676 234.029 65.6773V73.6754H228.434V43.0312H234.889L243.45 56.6636C245.171 59.4578 247.317 62.9749 248.866 65.8437C248.74 60.4274 248.694 55.5161 248.694 51.0064V43.0312L254.288 43.0312Z" stroke="#262626" stroke-width="0.3" stroke-miterlimit="10"/>
<path d="M289 57.1401V73.6527H284.783L283.962 69.6364C281.817 72.6888 278.288 74.3641 273.985 74.3641C265.166 74.3641 259.36 68.0012 259.36 58.3622C259.36 48.7231 265.166 42.366 274.501 42.366C282.247 42.366 287.623 46.6232 288.656 53.2673L282.677 53.2673C281.817 49.6985 278.759 47.4609 274.547 47.4609C268.913 47.4609 265.425 51.6378 265.425 58.3622C265.425 65.0866 268.999 69.2922 274.76 69.2922C279.275 69.2922 283.022 66.3201 283.32 61.8334H275.322V57.1458L289 57.1401Z" stroke="#262626" stroke-width="0.3" stroke-miterlimit="10"/>
<path d="M24.8551 95.0438C24.8551 100.936 21.074 104.975 14.0169 104.975H6.36302L6.36302 115.687H0.556641L0.556641 85.0605H14.0169C21.074 85.0605 24.8551 89.1112 24.8551 95.0438ZM19.0085 95.0438C19.0085 91.8595 17.161 90.0522 13.7587 90.0522H6.36302L6.36302 100.013H13.7587C17.161 100.013 19.0085 98.2224 19.0085 95.0438Z" fill="#262626" stroke="#262626" stroke-width="0.3" stroke-miterlimit="10"/>
<path d="M29.2039 104.161L29.2039 85.0605H35.0102V104.201C35.0102 109.02 37.6323 111.298 42.0215 111.298C46.4107 111.298 49.0327 109.003 49.0327 104.201V85.0605H54.8391V104.161C54.8391 112.119 49.8934 116.33 42.0215 116.33C34.3275 116.33 29.2039 112.119 29.2039 104.161Z" fill="#262626" stroke="#262626" stroke-width="0.3" stroke-miterlimit="10"/>
<path d="M85.7191 106.897C85.7191 112.141 82.2766 115.67 75.053 115.67H60.7207L60.7207 85.0603H74.5711C81.6225 85.0603 84.4626 88.8012 84.4626 92.9781C84.4909 94.3526 84.1201 95.7058 83.3951 96.8738C82.67 98.0418 81.6218 98.9746 80.3775 99.559C83.9978 100.89 85.7191 103.856 85.7191 106.897ZM66.5386 89.8167V97.8206H74.1523C77.1587 97.8206 78.7079 96.2255 78.7079 93.6895C78.7079 91.3945 77.1587 89.8167 74.1523 89.8167H66.5386ZM79.7865 106.639C79.7865 103.77 77.8931 102.376 74.7547 102.376H66.5386V110.85H74.7547C78.0194 110.868 79.7865 109.319 79.7865 106.656V106.639Z" fill="#262626" stroke="#262626" stroke-width="0.3" stroke-miterlimit="10"/>
<path d="M110.797 110.483V115.687H90.4058V85.0603H96.2179V110.483H110.797Z" fill="#262626" stroke="#262626" stroke-width="0.3" stroke-miterlimit="10"/>
<path d="M115.313 85.0603H121.12V115.687H115.313V85.0603Z" fill="#262626" stroke="#262626" stroke-width="0.3" stroke-miterlimit="10"/>
<path d="M126.197 100.376C126.197 90.484 132.176 84.3735 141.035 84.3735C147.834 84.3735 153.594 88.0341 154.925 95.6019H149.033C147.96 91.2987 144.776 89.4512 141.035 89.4512C135.573 89.4512 132.262 93.5364 132.262 100.353C132.262 107.169 135.573 111.254 141.035 111.254C144.948 111.254 148.562 108.93 149.251 104.116H155.057C154.197 112.201 148.046 116.332 141.035 116.332C132.302 116.377 126.197 110.267 126.197 100.376Z" fill="#262626" stroke="#262626" stroke-width="0.3" stroke-miterlimit="10"/>
</svg>
