<svg width="202" height="117" viewBox="0 0 202 117" fill="none" xmlns="http://www.w3.org/2000/svg">
<path d="M26.8551 11.6703C26.8551 17.5627 23.074 21.602 16.0169 21.602L8.36302 21.602L8.36302 32.3139H2.55664L2.55664 1.68701L16.0169 1.68701C23.074 1.68701 26.8551 5.7377 26.8551 11.6703ZM21.0085 11.6703C21.0085 8.48598 19.161 6.67867 15.7587 6.67867L8.36302 6.67867L8.36302 16.639H15.7587C19.161 16.639 21.0085 14.8489 21.0085 11.6703Z" stroke="#262626" stroke-width="0.3" stroke-miterlimit="10"/>
<path d="M31.2039 20.7872L31.2039 1.68701L37.0102 1.68701V20.8274C37.0102 25.6469 39.6323 27.9247 44.0215 27.9247C48.4107 27.9247 51.0327 25.6297 51.0327 20.8274V1.68701L56.8391 1.68701V20.7872C56.8391 28.7452 51.8934 32.9565 44.0215 32.9565C36.3275 32.9565 31.2039 28.7452 31.2039 20.7872Z" stroke="#262626" stroke-width="0.3" stroke-miterlimit="10"/>
<path d="M87.7191 23.5238C87.7191 28.7679 84.2766 32.2965 77.053 32.2965H62.7207L62.7207 1.68677L76.5711 1.68677C83.6225 1.68677 86.4626 5.42763 86.4626 9.60455C86.4909 10.979 86.1201 12.3322 85.3951 13.5003C84.67 14.6683 83.6218 15.601 82.3775 16.1855C85.9978 17.5166 87.7191 20.4829 87.7191 23.5238ZM68.5386 6.44318V14.447H76.1523C79.1587 14.447 80.7079 12.852 80.7079 10.316C80.7079 8.021 79.1587 6.44318 76.1523 6.44318L68.5386 6.44318ZM81.7865 23.2656C81.7865 20.3968 79.8931 19.0026 76.7547 19.0026L68.5386 19.0026V27.477L76.7547 27.477C80.0193 27.4942 81.7865 25.945 81.7865 23.2828V23.2656Z" stroke="#262626" stroke-width="0.3" stroke-miterlimit="10"/>
<path d="M112.797 27.1097V32.3137H92.4058V1.68677L98.2179 1.68677V27.1097L112.797 27.1097Z" stroke="#262626" stroke-width="0.3" stroke-miterlimit="10"/>
<path d="M117.313 1.68677L123.12 1.68677V32.3137H117.313V1.68677Z" stroke="#262626" stroke-width="0.3" stroke-miterlimit="10"/>
<path d="M128.197 17.002C128.197 7.11047 134.176 1 143.035 1C149.834 1 155.594 4.66055 156.925 12.2283L151.033 12.2283C149.96 7.9252 146.776 6.07771 143.035 6.07771C137.573 6.07771 134.262 10.1628 134.262 16.979C134.262 23.7952 137.573 27.8803 143.035 27.8803C146.948 27.8803 150.562 25.5566 151.251 20.7428H157.057C156.197 28.827 150.046 32.958 143.035 32.958C134.302 33.0039 128.197 26.8935 128.197 17.002Z" stroke="#262626" stroke-width="0.3" stroke-miterlimit="10"/>
<path d="M1 63.2059H6.73753C6.82359 68.0254 10.0481 69.3164 14.3053 69.3164C18.3216 69.3164 20.5018 67.7672 20.5018 64.887C20.5018 62.4772 18.9068 61.3986 14.1906 60.4519L11.6144 59.9355C5.67608 58.8224 1.76308 56.1946 1.76308 50.6465C1.76308 45.5745 5.77936 42 13.1177 42C21.7239 42 25.373 46.045 25.591 51.8112H19.9568C19.7388 48.5408 18.0634 46.6876 13.2037 46.6876C9.50301 46.6876 7.6957 48.1506 7.6957 50.4743C7.6957 52.9243 9.1186 54.0431 13.6742 54.9898L16.3421 55.5061C23.5714 56.929 26.4918 59.7232 26.4918 64.5829C26.4918 70.6475 21.7641 74.0039 14.1045 74.0039C5.95148 74.0039 1.0459 70.2631 1 63.2059Z" fill="#262626" stroke="#262626" stroke-width="0.3" stroke-miterlimit="10"/>
<path d="M55.5058 52.6701C55.5058 58.5625 51.719 62.6017 44.6676 62.6017H37.008L37.008 73.3137H31.2017L31.2017 42.6868H44.6619C51.7133 42.6868 55.5058 46.7375 55.5058 52.6701ZM49.6593 52.6701C49.6593 49.4857 47.8061 47.6784 44.4094 47.6784H37.008V57.6388H44.4037C47.8003 57.6388 49.6535 55.8486 49.6535 52.6701H49.6593Z" fill="#262626" stroke="#262626" stroke-width="0.3" stroke-miterlimit="10"/>
<path d="M75.4613 66.5606H62.0412L59.6716 73.3137H53.6931L65.3518 42.6868H72.145L84.0159 73.3137H77.8825L75.4613 66.5606ZM73.6941 61.6149L72.4893 58.3043C71.4163 55.5044 69.9533 51.4193 68.7082 47.8046C67.4574 51.4193 65.9944 55.5044 64.9616 58.3043L63.8141 61.6149H73.6941Z" fill="#262626" stroke="#262626" stroke-width="0.3" stroke-miterlimit="10"/>
<path d="M84.6648 58.002C84.6648 48.1105 90.6433 42 99.502 42C106.301 42 112.061 45.6605 113.398 53.2283L107.506 53.2283C106.427 48.9252 103.249 47.0777 99.502 47.0777C94.0399 47.0777 90.7294 51.1628 90.7294 57.979C90.7294 64.7952 94.0399 68.8803 99.502 68.8803C103.415 68.8803 107.03 66.5566 107.718 61.7428H113.525C112.664 69.827 106.513 73.958 99.502 73.958C90.7695 74.0039 84.6648 67.8935 84.6648 58.002Z" fill="#262626" stroke="#262626" stroke-width="0.3" stroke-miterlimit="10"/>
<path d="M124.276 47.885V55.1142H139.464V60.1002H124.276V68.104H140.996V73.3079H118.47V42.6868L141.053 42.6868V47.885H124.276Z" fill="#262626" stroke="#262626" stroke-width="0.3" stroke-miterlimit="10"/>
<path d="M8.36301 89.9227L8.36301 97.1462H22.7699V102.138H8.36301L8.36301 115.334H2.55664L2.55664 84.7188H24.1928V89.9227H8.36301Z" stroke="#262626" stroke-width="0.3" stroke-miterlimit="10"/>
<path d="M34.4685 89.9227V97.1462H49.6557V102.138H34.4685L34.4685 110.136H51.1589V115.34H28.6621L28.6621 84.7188H51.245V89.9227H34.4685Z" stroke="#262626" stroke-width="0.3" stroke-miterlimit="10"/>
<path d="M54.6418 105.236H60.3794C60.4654 110.05 63.6957 111.341 67.9529 111.341C71.9692 111.341 74.1437 109.792 74.1437 106.912C74.1437 104.502 72.5544 103.429 67.8668 102.482L65.285 101.966C59.3466 100.819 55.4336 98.2252 55.4336 92.677C55.4336 87.5993 59.4499 84.0305 66.7882 84.0305C75.3945 84.0305 79.0493 88.0468 79.2616 93.8359H73.6216C73.4093 90.5656 71.7339 88.7181 66.8685 88.7181C63.1735 88.7181 61.3662 90.1811 61.3662 92.5048C61.3662 94.9548 62.7834 96.0736 67.3447 97.0203L70.0127 97.5367C77.2362 98.9538 80.1624 101.754 80.1624 106.613C80.1624 112.678 75.4289 116.029 67.775 116.029C59.5876 116.029 54.6877 112.288 54.6418 105.236Z" stroke="#262626" stroke-width="0.3" stroke-miterlimit="10"/>
<path d="M106.899 89.9227H97.0996V115.34H91.2473V89.9227H81.4419V84.7188H106.899V89.9227Z" stroke="#262626" stroke-width="0.3" stroke-miterlimit="10"/>
<path d="M111.162 84.7188H116.969V115.34H111.162V84.7188Z" stroke="#262626" stroke-width="0.3" stroke-miterlimit="10"/>
<path d="M149.834 84.7188L138.864 115.34H132.071L120.842 84.7188H127.033L132.587 100.549C133.574 103.555 134.607 106.825 135.507 110.096C136.368 106.825 137.401 103.555 138.376 100.549L143.792 84.7188H149.834Z" stroke="#262626" stroke-width="0.3" stroke-miterlimit="10"/>
<path d="M168.543 108.587H155.123L152.753 115.34H146.775L158.434 84.7188H165.233L177.103 115.34H170.953L168.543 108.587ZM166.776 103.641L165.571 100.331C164.498 97.5364 163.035 93.4455 161.79 89.8366C160.539 93.4513 159.076 97.5364 158.049 100.331L156.902 103.641H166.776Z" stroke="#262626" stroke-width="0.3" stroke-miterlimit="10"/>
<path d="M201.058 110.136V115.34H180.673V84.7192H186.479V110.136H201.058Z" stroke="#262626" stroke-width="0.3" stroke-miterlimit="10"/>
</svg>
