<svg width="24" height="24" viewBox="0 0 24 24" fill="none" xmlns="http://www.w3.org/2000/svg">
<path d="M12.2259 0.857422C12.1508 0.857422 12.0743 0.857422 11.9993 0.857422C11.9228 0.857422 11.8478 0.857422 11.7727 0.857422C8.13776 1.00384 5.84095 4.98193 7.30371 8.4256L11.9993 17.1431L16.6934 8.4256C18.1633 4.98193 15.8594 1.00969 12.2259 0.857422ZM11.9993 7.54125C11.677 7.54068 11.3622 7.44135 11.0946 7.25582C10.8269 7.07029 10.6184 6.80689 10.4955 6.49891C10.3726 6.19092 10.3407 5.85217 10.4039 5.52546C10.4671 5.19875 10.6226 4.89874 10.8506 4.66335C11.0787 4.42796 11.3691 4.26775 11.6852 4.20296C12.0013 4.13817 12.3288 4.17172 12.6265 4.29935C12.9241 4.42699 13.1785 4.64299 13.3575 4.92006C13.5365 5.19713 13.632 5.52284 13.632 5.85602C13.632 6.07758 13.5897 6.29696 13.5076 6.50161C13.4256 6.70626 13.3052 6.89217 13.1536 7.0487C13.002 7.20523 12.8219 7.3293 12.6239 7.41382C12.4258 7.49833 12.2136 7.54164 11.9993 7.54125Z" fill="#262626"/>
<path d="M23.3476 22.0744C23.3891 22.3749 23.1556 22.6429 22.8523 22.6429H1.14774C0.844374 22.6429 0.610906 22.3749 0.652444 22.0744L1.91623 12.9315C1.95042 12.6842 2.16183 12.5 2.41152 12.5H21.5885C21.8382 12.5 22.0496 12.6842 22.0838 12.9315L23.3476 22.0744Z" stroke="#262626"/>
</svg>
