<svg width="16" height="16" viewBox="0 0 16 16" fill="none" xmlns="http://www.w3.org/2000/svg">
<path d="M15.9971 4.5651C15.9608 3.36388 15.4667 2.22198 14.6159 1.37328C13.7651 0.524568 12.6221 0.0332703 11.4209 0C9.15851 0 6.89609 0 4.63367 0C3.39989 0.0196536 2.22312 0.52288 1.35654 1.40141C0.489973 2.27994 0.00285727 3.46356 0 4.69761C0 5.79276 0 6.88807 0 7.98355C0 9.1337 0 10.2838 0 11.434C0.03674 12.6293 0.52677 13.7659 1.37067 14.6131C2.21457 15.4603 3.34913 15.9548 4.54417 15.9961C6.83692 15.9961 9.12934 15.9961 11.4214 15.9961C12.6334 15.9618 13.7855 15.4613 14.6378 14.5988C15.4901 13.7364 15.977 12.5784 15.9971 11.366C15.9991 9.09936 15.9991 6.83239 15.9971 4.5651ZM13.2025 10.8009C13.115 11.9341 12.0279 13.0797 10.8524 13.1452C9.33185 13.2297 7.80579 13.2077 6.28223 13.2227C5.94055 13.2253 5.599 13.2086 5.2592 13.1727C4.61505 13.1089 4.01404 12.82 3.56194 12.3567C3.10985 11.8934 2.83565 11.2855 2.7876 10.6399C2.65193 8.82773 2.65527 7.00783 2.7976 5.19618C2.88411 4.08353 3.94765 3.00489 5.09769 2.84287C5.19704 2.82659 5.29719 2.81558 5.3977 2.80987C6.27173 2.77986 7.14777 2.75186 7.9873 2.72486C8.85383 2.75186 9.68736 2.77936 10.5194 2.80287C12.0419 2.84587 13.1635 4.12804 13.2285 5.40821C13.3185 7.20644 13.3415 9.00368 13.2025 10.8009Z" fill="#262626"/>
<path d="M10.6759 3.58695C10.1954 3.54344 9.71088 3.51394 9.22886 3.51794C7.91331 3.52944 6.59626 3.53044 5.28322 3.59745C4.36818 3.64396 3.60965 4.49057 3.54515 5.40669C3.42465 7.11913 3.42465 8.83792 3.54515 10.5504C3.61465 11.5385 4.38468 12.3416 5.37422 12.4086C6.22975 12.4666 7.08828 12.4806 8.00232 12.5161C8.87085 12.4806 9.79588 12.4636 10.7174 12.3986C11.5869 12.3366 12.3945 11.494 12.452 10.6594C12.5726 8.92198 12.5748 7.17838 12.4585 5.44069C12.3945 4.47907 11.6329 3.67346 10.6759 3.58695ZM8.00782 10.7104C6.46576 10.7049 5.27972 9.50672 5.28572 7.96002C5.29876 7.24567 5.5928 6.56524 6.10409 6.06624C6.61538 5.56724 7.30272 5.28988 8.01711 5.29429C8.73151 5.2987 9.41537 5.58452 9.92047 6.08979C10.4256 6.59506 10.7112 7.27907 10.7154 7.99353C10.7084 9.51073 9.50737 10.7154 8.00782 10.7104ZM10.9139 5.72473C10.5809 5.72023 10.3024 5.44069 10.3099 5.11815C10.3117 5.03886 10.3292 4.96072 10.3614 4.88824C10.3936 4.81576 10.4398 4.75039 10.4974 4.69589C10.555 4.64139 10.6229 4.59885 10.697 4.57073C10.7712 4.54261 10.8502 4.52948 10.9294 4.53207C11.2754 4.53907 11.5179 4.79611 11.5094 5.14715C11.5089 5.22438 11.4931 5.30074 11.4627 5.37176C11.4324 5.44278 11.3882 5.50705 11.3328 5.56082C11.2773 5.61459 11.2118 5.65677 11.1398 5.68491C11.0679 5.71305 10.9911 5.72659 10.9139 5.72473Z" fill="#262626"/>
<path d="M8.00836 6.04494C7.62116 6.04336 7.24224 6.15696 6.91975 6.37128C6.59726 6.5856 6.34577 6.89097 6.19723 7.24859C6.0487 7.6062 6.00983 7.9999 6.08557 8.37966C6.16131 8.75941 6.34824 9.10807 6.6226 9.38133C6.89695 9.65458 7.24635 9.84009 7.62638 9.91427C8.00641 9.98845 8.39991 9.94796 8.75688 9.79794C9.11384 9.64792 9.41815 9.39514 9.63112 9.07174C9.84409 8.74834 9.95611 8.36892 9.95294 7.98169C9.95043 7.46742 9.74449 6.97505 9.38013 6.61215C9.01576 6.24925 8.52259 6.04533 8.00836 6.04494Z" fill="#262626"/>
</svg>
