<svg width="20" height="19" viewBox="0 0 20 19" fill="none" xmlns="http://www.w3.org/2000/svg">
<path d="M0.921631 14.2062V3.94617C0.941665 3.829 0.967771 3.71183 0.982341 3.59345C1.19179 1.75332 2.45578 0.412831 4.27588 0.105636C4.49383 0.0686031 4.71178 0.035212 4.92973 0H15.1291C15.2274 0.0194273 15.3246 0.0467465 15.4235 0.0564602C17.2964 0.238591 18.6576 1.5038 18.9763 3.35364C19.0103 3.55095 19.0425 3.74887 19.0752 3.94617V14.2669C19.0552 14.375 19.0297 14.4819 19.0145 14.5905C18.7753 16.4555 17.5484 17.739 15.6937 18.0601C15.5055 18.0929 15.3167 18.1208 15.1279 18.1524H5.89988C5.76146 18.1312 5.62426 18.1014 5.48523 18.0917C5.08272 18.0619 4.67596 18.0668 4.2777 18.0109C2.58813 17.7736 1.32535 16.5375 1.03394 14.8589C0.996303 14.6411 0.958867 14.4236 0.921631 14.2062ZM16.6669 9.06406C16.6377 8.04412 16.6329 7.01205 16.5722 5.98361C16.5115 4.98068 16.1557 4.09309 15.3859 3.40707C14.7223 2.81575 13.9252 2.54437 13.057 2.49641C11.017 2.38774 8.97261 2.38774 6.93257 2.49641C4.94309 2.60205 3.54189 3.97471 3.42472 5.96054C3.30391 8.03063 3.30391 10.106 3.42472 12.1761C3.47814 13.1092 3.79809 13.95 4.47805 14.6288C5.13433 15.2838 5.9442 15.608 6.84575 15.6608C8.95603 15.7839 11.0718 15.7788 13.1815 15.6457C13.9156 15.6092 14.6208 15.3483 15.2019 14.8983C16.1004 14.1977 16.5121 13.2428 16.5758 12.1366C16.6317 11.1191 16.6377 10.0967 16.6669 9.06406V9.06406Z" fill="#262626"/>
<path d="M15.4358 9.10629C15.4358 9.94591 15.4437 10.7855 15.4316 11.6252C15.4271 11.9183 15.3954 12.2103 15.3369 12.4976C15.105 13.6389 14.3613 14.3189 13.2017 14.4531C12.8904 14.4912 12.5773 14.5114 12.2637 14.5138C10.6962 14.5162 9.12843 14.5121 7.56048 14.5016C7.23688 14.4989 6.9142 14.4668 6.5964 14.4057C5.4508 14.1853 4.76963 13.4477 4.62453 12.2869C4.58734 12.0061 4.56706 11.7233 4.56382 11.44C4.55815 9.83158 4.55815 8.22336 4.56382 6.61534C4.56546 6.30174 4.59615 5.98895 4.65549 5.68101C4.88134 4.52387 5.62686 3.83481 6.801 3.70003C7.19282 3.65531 7.58684 3.63241 7.98121 3.63143C9.48804 3.62657 10.9951 3.63042 12.5023 3.64296C12.8055 3.64696 13.1078 3.67907 13.4051 3.73889C14.5586 3.96716 15.2713 4.71996 15.3691 5.8935C15.4425 6.76833 15.4298 7.65106 15.4553 8.53015C15.4607 8.72199 15.4553 8.91444 15.4553 9.10629H15.4358ZM9.9974 12.4897C10.9039 12.4858 11.7719 12.1231 12.4115 11.4808C13.0512 10.8385 13.4104 9.96904 13.4105 9.06258C13.4034 8.16112 13.0413 7.2988 12.4028 6.66244C11.7642 6.02607 10.9007 5.66692 9.99922 5.6628C9.09282 5.66697 8.22495 6.02992 7.58545 6.67228C6.94594 7.31463 6.58684 8.18409 6.58669 9.0905C6.59324 9.99199 6.95505 10.8545 7.59359 11.4909C8.23214 12.1273 9.09589 12.4862 9.9974 12.4897V12.4897ZM13.5374 6.30815C13.6413 6.31108 13.7446 6.29311 13.8414 6.25531C13.9381 6.21751 14.0263 6.16065 14.1007 6.08811C14.175 6.01556 14.2341 5.92882 14.2742 5.83302C14.3144 5.73722 14.3349 5.63433 14.3345 5.53045C14.3381 5.326 14.2609 5.1284 14.1196 4.98061C13.9783 4.83282 13.7843 4.74678 13.5799 4.74121C13.4761 4.73649 13.3724 4.75261 13.2749 4.78862C13.1774 4.82462 13.0881 4.87979 13.0123 4.95086C12.9365 5.02193 12.8757 5.10747 12.8334 5.20242C12.7912 5.29738 12.7684 5.39983 12.7664 5.50374C12.7628 5.60753 12.7801 5.71099 12.8171 5.80801C12.8542 5.90502 12.9103 5.99364 12.9822 6.06861C13.0541 6.14359 13.1402 6.20342 13.2356 6.24456C13.3309 6.2857 13.4336 6.30732 13.5374 6.30815V6.30815Z" fill="#262626"/>
<path d="M12.2243 9.08441C12.2238 9.67249 11.9898 10.2363 11.5736 10.6518C11.1575 11.0674 10.5934 11.3007 10.0053 11.3003C9.71169 11.3023 9.42061 11.2459 9.14894 11.1345C8.87728 11.0231 8.63043 10.8588 8.42272 10.6513C8.21501 10.4437 8.05057 10.197 7.93894 9.92546C7.8273 9.65389 7.77068 9.36285 7.77238 9.06923C7.77302 8.48151 8.00673 7.91804 8.42226 7.5024C8.83778 7.08676 9.40119 6.85289 9.98891 6.85209C10.2827 6.8504 10.5739 6.90697 10.8456 7.01851C11.1174 7.13006 11.3644 7.29438 11.5722 7.50197C11.7801 7.70956 11.9448 7.95629 12.0567 8.22791C12.1686 8.49953 12.2256 8.79064 12.2243 9.08441V9.08441Z" fill="#262626"/>
</svg>
