<svg width="13" height="13" viewBox="0 0 13 13" fill="none" xmlns="http://www.w3.org/2000/svg">
<path d="M0.265869 9.57377V2.65938C0.279371 2.58042 0.296963 2.50146 0.306783 2.42167C0.447934 1.18158 1.29975 0.278212 2.52634 0.0711898C2.67322 0.0462325 2.8201 0.0237299 2.96698 0H9.84046C9.90674 0.0130923 9.9722 0.0315031 10.0389 0.0380493C11.3011 0.16079 12.2184 1.01343 12.4332 2.26007C12.4561 2.39303 12.4777 2.52641 12.4998 2.65938V9.61469C12.4863 9.68751 12.4692 9.75952 12.4589 9.83276C12.2977 11.0896 11.4709 11.9545 10.221 12.171C10.0941 12.1931 9.96688 12.2119 9.83964 12.2332H3.62078C3.5275 12.2188 3.43503 12.1988 3.34134 12.1922C3.07008 12.1722 2.79596 12.1755 2.52757 12.1378C1.38895 11.9779 0.537943 11.1449 0.341558 10.0136C0.316192 9.86685 0.290963 9.72024 0.265869 9.57377ZM10.8768 6.10839C10.8572 5.42105 10.8539 4.72552 10.813 4.03244C10.7721 3.35655 10.5323 2.75839 10.0135 2.29607C9.56634 1.89757 9.02914 1.71469 8.44408 1.68237C7.06927 1.60913 5.69153 1.60913 4.31672 1.68237C2.97598 1.75355 2.0317 2.67861 1.95273 4.01689C1.87132 5.41195 1.87132 6.81057 1.95273 8.20562C1.98874 8.83447 2.20435 9.40112 2.66259 9.85853C3.10486 10.3 3.65065 10.5185 4.25821 10.5541C5.68036 10.637 7.10622 10.6336 8.52795 10.5438C9.02267 10.5193 9.49793 10.3435 9.88956 10.0402C10.4951 9.56804 10.7725 8.92447 10.8154 8.17903C10.8531 7.49332 10.8572 6.80433 10.8768 6.10839Z" fill="#262626"/>
<path d="M10.0472 6.13676C10.0472 6.70259 10.0525 7.26842 10.0443 7.83426C10.0413 8.03179 10.0199 8.22861 9.98051 8.42219C9.82422 9.19136 9.32302 9.64959 8.54158 9.74001C8.33182 9.7657 8.12077 9.77936 7.90946 9.78093C6.85307 9.78256 5.79655 9.77984 4.73989 9.77274C4.52181 9.77089 4.30435 9.74925 4.09018 9.7081C3.31814 9.55959 2.85909 9.06248 2.76131 8.28022C2.73624 8.09096 2.72258 7.90037 2.72039 7.70947C2.71657 6.62554 2.71657 5.54174 2.72039 4.45807C2.7215 4.24673 2.74218 4.03594 2.78217 3.82841C2.93437 3.0486 3.43679 2.58423 4.22806 2.4934C4.49212 2.46327 4.75765 2.44783 5.02342 2.44717C6.03889 2.4439 7.0545 2.44649 8.07025 2.45494C8.27461 2.45764 8.47828 2.47928 8.67864 2.51959C9.45599 2.67342 9.93632 3.18075 10.0022 3.97161C10.0517 4.56117 10.0431 5.15606 10.0603 5.74849C10.064 5.87777 10.0603 6.00747 10.0603 6.13676H10.0472ZM6.38216 8.41687C6.99303 8.41427 7.578 8.16981 8.00907 7.73697C8.44014 7.30414 8.68222 6.71817 8.68232 6.1073C8.67748 5.4998 8.43347 4.91866 8.00317 4.48981C7.57286 4.06095 6.9909 3.81892 6.38339 3.81614C5.77255 3.81895 5.18768 4.06355 4.75671 4.49644C4.32574 4.92933 4.08374 5.51527 4.08363 6.12612C4.08805 6.73364 4.33187 7.31492 4.7622 7.74379C5.19252 8.17266 5.77462 8.41452 6.38216 8.41687ZM8.76783 4.25105C8.83781 4.25302 8.90747 4.24091 8.97267 4.21544C9.03788 4.18997 9.0973 4.15165 9.14741 4.10276C9.19752 4.05387 9.2373 3.99541 9.26437 3.93085C9.29145 3.86629 9.30527 3.79695 9.30502 3.72695C9.30745 3.58917 9.25538 3.456 9.16015 3.3564C9.06492 3.2568 8.93422 3.19882 8.79647 3.19507C8.7265 3.19189 8.65661 3.20275 8.59091 3.22702C8.52521 3.25128 8.46504 3.28846 8.41394 3.33635C8.36284 3.38425 8.32186 3.44189 8.29339 3.50589C8.26493 3.56988 8.24957 3.63892 8.24823 3.70895C8.24582 3.77889 8.25745 3.84862 8.28242 3.914C8.3074 3.97938 8.34522 4.0391 8.39365 4.08962C8.44208 4.14015 8.50014 4.18047 8.56441 4.20819C8.62867 4.23592 8.69784 4.25049 8.76783 4.25105Z" fill="#262626"/>
<path d="M7.88291 6.12209C7.88258 6.51841 7.72486 6.89837 7.44443 7.17841C7.16401 7.45846 6.78383 7.61565 6.38752 7.61544C6.18964 7.61674 5.99348 7.57875 5.8104 7.50366C5.62732 7.42858 5.46097 7.31789 5.32099 7.17803C5.18101 7.03817 5.0702 6.87191 4.99496 6.68889C4.91973 6.50587 4.88157 6.30974 4.88272 6.11186C4.88315 5.71579 5.04065 5.33606 5.32068 5.05595C5.60071 4.77585 5.9804 4.61824 6.37647 4.6177C6.57444 4.61656 6.77068 4.65468 6.95383 4.72986C7.13698 4.80503 7.30341 4.91577 7.44349 5.05567C7.58358 5.19556 7.69454 5.36184 7.76996 5.54489C7.84539 5.72793 7.88377 5.92412 7.88291 6.12209Z" fill="#262626"/>
</svg>
