<svg width="30" height="29" viewBox="0 0 30 29" fill="none" xmlns="http://www.w3.org/2000/svg">
<path d="M0 22.6957V6.30435C0.0320067 6.11716 0.0737124 5.92997 0.09699 5.74084C0.431605 2.80107 2.45094 0.659532 5.3587 0.168763C5.70689 0.109599 6.05509 0.0562542 6.40328 0H22.6976C22.8547 0.0310368 23.0099 0.0746816 23.168 0.0902C26.1601 0.38117 28.3346 2.40244 28.8438 5.35773C28.8982 5.67294 28.9496 5.98913 29.0019 6.30435V22.7926C28.9699 22.9653 28.9292 23.136 28.9049 23.3096C28.5228 26.2891 26.5626 28.3395 23.5996 28.8526C23.2989 28.905 22.9973 28.9496 22.6957 29H7.95318C7.73204 28.9661 7.51284 28.9185 7.29073 28.903C6.64769 28.8555 5.99786 28.8632 5.3616 28.774C2.66237 28.3948 0.644981 26.4201 0.179429 23.7383C0.119295 23.3904 0.0594872 23.0429 0 22.6957ZM25.1543 14.4806C25.1078 12.8512 25.1 11.2023 25.003 9.55933C24.9061 7.95706 24.3377 6.53906 23.1079 5.44308C22.0478 4.49839 20.7743 4.06485 19.3873 3.98823C16.1282 3.81462 12.8621 3.81462 9.60298 3.98823C6.42462 4.15699 4.18609 6.34993 3.99889 9.52247C3.80588 12.8296 3.80588 16.1452 3.99889 19.4523C4.08425 20.943 4.59539 22.2864 5.68167 23.3707C6.73014 24.4172 8.02398 24.9351 9.46428 25.0195C12.8356 25.2161 16.2158 25.208 19.5862 24.9953C20.7589 24.937 21.8856 24.5203 22.814 23.8013C24.2494 22.6821 24.907 21.1564 25.0089 19.3893C25.0981 17.7637 25.1078 16.1304 25.1543 14.4806V14.4806Z" fill="white"/>
<path d="M23.1875 14.5486C23.1875 15.89 23.2001 17.2314 23.1807 18.5727C23.1735 19.041 23.1229 19.5076 23.0294 19.9665C22.6589 21.7899 21.4707 22.8762 19.6182 23.0905C19.121 23.1514 18.6207 23.1838 18.1197 23.1875C15.6155 23.1914 13.1108 23.1849 10.6059 23.1681C10.0889 23.1637 9.57343 23.1124 9.06572 23.0149C7.23552 22.6628 6.14729 21.4844 5.91549 19.6299C5.85607 19.1813 5.82368 18.7295 5.8185 18.2769C5.80944 15.7073 5.80944 13.1381 5.8185 10.5691C5.82111 10.0681 5.87014 9.56842 5.96495 9.07646C6.32575 7.22783 7.51679 6.12699 9.39257 5.91168C10.0186 5.84023 10.648 5.80364 11.2781 5.80208C13.6854 5.79432 16.093 5.80046 18.5009 5.8205C18.9854 5.82689 19.4682 5.8782 19.9431 5.97375C21.786 6.33843 22.9246 7.54111 23.0808 9.41592C23.1981 10.8135 23.1778 12.2238 23.2185 13.6282C23.2272 13.9347 23.2185 14.2421 23.2185 14.5486H23.1875ZM14.4991 19.9539C15.9472 19.9477 17.334 19.3682 18.3559 18.3421C19.3778 17.316 19.9516 15.9269 19.9519 14.4788C19.9404 13.0386 19.362 11.661 18.3419 10.6444C17.3218 9.62772 15.9422 9.05395 14.502 9.04736C13.054 9.05403 11.6675 9.63388 10.6458 10.6601C9.62414 11.6863 9.05044 13.0753 9.0502 14.5234C9.06066 15.9636 9.63868 17.3416 10.6588 18.3583C11.6789 19.375 13.0589 19.9483 14.4991 19.9539V19.9539ZM20.1546 10.0784C20.3205 10.083 20.4856 10.0543 20.6402 9.99395C20.7948 9.93356 20.9356 9.84272 21.0544 9.72683C21.1732 9.61093 21.2675 9.47235 21.3317 9.3193C21.3959 9.16626 21.4286 9.00188 21.4281 8.83592C21.4338 8.5093 21.3104 8.19362 21.0846 7.95751C20.8589 7.72139 20.549 7.58395 20.2225 7.57505C20.0566 7.56751 19.8909 7.59326 19.7352 7.65079C19.5794 7.70831 19.4368 7.79644 19.3157 7.90998C19.1945 8.02352 19.0974 8.16017 19.0299 8.31187C18.9624 8.46357 18.926 8.62725 18.9228 8.79325C18.9171 8.95907 18.9447 9.12435 19.0039 9.27935C19.0631 9.43434 19.1528 9.57591 19.2676 9.69569C19.3824 9.81547 19.52 9.91104 19.6724 9.97677C19.8247 10.0425 19.9887 10.077 20.1546 10.0784V10.0784Z" fill="white"/>
<path d="M18.0566 14.5136C18.0558 15.4532 17.6819 16.3539 17.0171 17.0178C16.3523 17.6816 15.4511 18.0543 14.5116 18.0538C14.0425 18.0569 13.5775 17.9668 13.1435 17.7888C12.7095 17.6108 12.3151 17.3484 11.9833 17.0169C11.6514 16.6853 11.3887 16.2912 11.2104 15.8573C11.032 15.4234 10.9416 14.9585 10.9443 14.4894C10.9453 13.5505 11.3187 12.6503 11.9825 11.9863C12.6464 11.3222 13.5465 10.9486 14.4854 10.9473C14.9547 10.9446 15.4199 11.035 15.8541 11.2132C16.2883 11.3914 16.6828 11.6539 17.0149 11.9856C17.347 12.3172 17.61 12.7114 17.7888 13.1453C17.9676 13.5793 18.0586 14.0443 18.0566 14.5136V14.5136Z" fill="white"/>
</svg>
