<svg width="81" height="24" viewBox="0 0 81 24" fill="none" xmlns="http://www.w3.org/2000/svg">
<path d="M0.0336914 6.9016C0.327463 6.73744 0.60631 6.54794 0.867048 6.33526C1.13926 6.11632 1.39858 5.88185 1.64371 5.63301C1.91909 5.35266 2.1748 5.05367 2.40904 4.7382C2.64912 4.42846 2.85267 4.09212 3.01563 3.73581L4.0304 4.17753L3.95103 4.2738C3.70932 4.73842 3.42864 5.18176 3.11201 5.59904V10.0108C3.10273 10.1768 3.10273 10.3432 3.11201 10.5091H1.90449C1.9167 10.3432 1.9167 10.1767 1.90449 10.0108C1.90449 9.76725 1.90449 9.29156 1.93851 8.5893C1.97252 7.88705 1.98386 7.26405 2.00087 6.72037C1.57596 7.14681 1.10652 7.52654 0.6006 7.85304C0.53625 7.72612 0.464309 7.60322 0.385172 7.48494C0.27853 7.28436 0.161203 7.08963 0.0336914 6.9016ZM3.43514 1.71399H3.74127C4.17779 1.71399 4.50093 1.71399 4.71636 1.71399V2.7787H3.74127H3.43514V3.34503C3.43514 3.51493 3.43514 3.62819 3.43514 3.69049H2.30133V3.34503V2.7787H1.25255H0.260456V1.71399C0.453205 1.71399 0.782012 1.71399 1.25255 1.71399H2.29566V1.03438V0.7229H2.86256H3.42947V0.989061L3.43514 1.71399ZM8.98518 7.7511C9.41603 8.02294 9.75617 8.22682 10.0056 8.35142C10.0053 8.85471 9.85753 9.34691 9.58043 9.76725C9.3576 10.0472 9.04886 10.2462 8.70173 10.3336C8.28169 10.4303 7.8515 10.4759 7.42051 10.4695C6.97569 10.4783 6.53074 10.4594 6.08828 10.4129C5.88582 10.3988 5.69049 10.3324 5.52137 10.2203C5.37136 10.1092 5.26186 9.95204 5.20957 9.77292C5.13782 9.51302 5.10534 9.24389 5.11319 8.9744C5.11319 8.43072 5.11319 6.81289 5.11319 4.12091C5.12213 4.04187 5.12213 3.96209 5.11319 3.88306C5.40799 3.88306 5.78781 3.88306 6.24701 3.95102C6.2374 4.01864 6.2374 4.08727 6.24701 4.15489V6.27298C6.80969 6.01598 7.35507 5.72277 7.87971 5.39516C8.31782 5.13399 8.72646 4.8264 9.09856 4.4777L9.83554 5.44611L9.63712 5.53108C9.16228 5.89803 8.65574 6.22213 8.12348 6.49952C7.51464 6.83484 6.88826 7.13731 6.24701 7.40565V8.92909C6.23998 9.03689 6.2678 9.14409 6.32638 9.2349C6.38642 9.29933 6.46283 9.3463 6.54747 9.37081C6.88972 9.41243 7.23467 9.42759 7.57925 9.41613C7.7917 9.41615 8.00389 9.401 8.21418 9.37081C8.40034 9.34551 8.57642 9.27127 8.7244 9.15564C8.84457 9.02535 8.92689 8.86478 8.9625 8.69124C9.00032 8.3792 9.00412 8.06396 8.97384 7.7511H8.98518ZM6.51912 2.73338H6.33205H5.23791V1.66867C5.52137 1.66867 5.88986 1.66867 6.33205 1.66867H6.51912V1.03438V0.7229H7.08603H7.65294V0.989061V1.65733H8.92282C9.39902 1.65733 9.69381 1.65733 9.8072 1.65733V2.72204C9.69381 2.72204 9.39902 2.72204 8.92282 2.72204H7.65294V3.28838C7.65294 3.45828 7.65294 3.57157 7.65294 3.63387H6.51912V3.28838V2.73338Z" fill="#262626"/>
<path d="M17.7613 9.4953C18.2431 9.4953 18.8497 9.49529 19.5811 9.42167C20.3124 9.34805 21.0834 9.30274 21.8884 9.20646C21.8373 9.34238 21.7863 9.51227 21.724 9.72748C21.6616 9.94269 21.6276 10.1126 21.5992 10.2485C21.1684 10.2882 20.5675 10.3278 19.7908 10.3674C19.0141 10.4071 18.3282 10.4184 17.7216 10.4184C17.5572 10.4184 17.2681 10.4184 16.8712 10.3844C16.4716 10.3567 16.0751 10.2942 15.6864 10.1975C15.3163 10.1094 14.9583 9.97622 14.6206 9.8011C14.3142 9.64299 14.0455 9.42089 13.8326 9.14984C13.6783 9.37502 13.5058 9.58717 13.3167 9.78413C13.0976 10.0247 12.8434 10.2309 12.5627 10.3958L12.2339 9.97103C12.0979 9.81246 11.9788 9.67653 11.8711 9.56892C12.2748 9.35735 12.633 9.06873 12.9255 8.71942C13.2179 8.37196 13.4377 7.96947 13.5718 7.53576H12.8915C12.7557 7.5249 12.6192 7.5249 12.4834 7.53576L12.3019 6.73725C12.4508 6.66638 12.5823 6.56393 12.6874 6.43707C12.8689 6.23886 13.0616 5.99536 13.2544 5.71785H12.4437H12.0128V4.80039H12.4437H13.98L14.0424 4.73807C14.3995 4.98159 14.6093 5.12319 14.6716 5.17416L14.8417 5.3044L14.6433 5.3837L14.1954 5.95003L13.6399 6.6976H14.0253L14.0877 6.62964C14.1973 6.69152 14.3033 6.75958 14.4052 6.83352L14.8134 7.13936L14.6489 7.20165C14.5659 7.57929 14.4443 7.94744 14.2861 8.30034C14.4135 8.5126 14.5827 8.69681 14.7834 8.84185C14.9842 8.9869 15.2123 9.08975 15.454 9.14417C16.198 9.38946 16.9779 9.50815 17.7613 9.4953ZM14.2294 2.20657H13.209H12.1716V1.28344H13.209H14.2294V1.03425V0.739746H14.7963H15.3349V0.988935V1.26643H15.6807H16.5991V2.18956H15.6807H15.3066V2.45009C15.3066 2.58601 15.3066 2.68797 15.3066 2.75026H14.1727C14.1727 2.69363 14.1727 2.59167 14.1727 2.45009L14.2294 2.20657ZM13.294 2.7729C13.4811 2.93714 13.6795 3.13536 13.9006 3.33924C14.1022 3.53306 14.2916 3.73921 14.4675 3.95652L13.7249 4.61349C13.3986 4.14722 13.018 3.72137 12.5911 3.34491L13.294 2.7729ZM20.9076 8.39661H18.7987V8.88931C18.7899 8.99674 18.7899 9.1047 18.7987 9.21213H17.7216C17.7343 9.1049 17.7343 8.99654 17.7216 8.88931V8.39661H15.4936C15.1478 8.39661 14.9267 8.39661 14.7623 8.39661V7.49048C14.9041 7.49048 15.1478 7.49048 15.4936 7.49048H17.7216V7.06006H15.454C15.462 6.95261 15.462 6.8447 15.454 6.73725V4.75508C15.4614 4.65516 15.4614 4.55482 15.454 4.4549H17.7216V4.03582H15.6864C15.4579 4.02401 15.2289 4.02401 15.0004 4.03582V3.17501C15.1422 3.17501 15.3689 3.17501 15.6864 3.17501H17.7216V2.98811V2.69928H18.2885C18.5323 2.69928 18.708 2.69927 18.8044 2.72759V2.97111V3.29959H20.7546C21.0664 3.29959 21.3215 3.29959 21.4405 3.29959V4.16043C21.212 4.14836 20.983 4.14836 20.7546 4.16043H18.7987V4.57951H21.0664C21.0664 4.64181 21.0664 4.74373 21.0664 4.87965V7.18464H18.7987V7.61506H20.9076C21.2534 7.61506 21.4745 7.61506 21.6389 7.61506V8.52118C21.4972 8.42491 21.2534 8.39661 20.9076 8.39661ZM17.784 5.12317H16.5651V5.50264H17.784V5.12317ZM16.5651 6.06331V6.48239H17.784V6.06331H16.5651ZM18.4189 2.18393H18.2261H17.1263V1.2608H18.2261H18.4189V1.03425V0.739746H18.9858H19.5527V0.988935V1.26643H20.7489H21.6729V2.18956H20.7489H19.5527V2.36512V2.6653H18.4189V2.36512V2.18393ZM20.0346 5.50264V5.12317H18.776V5.50264H20.0346ZM18.776 6.48239H20.0346V6.06331H18.776V6.48239Z" fill="#262626"/>
<path d="M2.71549 19.1854L2.82321 20.3181C2.6588 20.4031 2.37535 20.5333 1.97851 20.7089C1.58168 20.8844 1.1735 21.06 0.75399 21.2299C0.597661 21.288 0.446041 21.3581 0.300465 21.4395L0 20.3408L0.504553 20.1765L1.07146 19.9726V16.8918H0.629269H0.209758V15.8554H0.629269H1.07146V13.7373C1.07146 13.6051 1.07146 13.4692 1.07146 13.3295H1.60435H2.10324C2.0959 13.4559 2.0959 13.5826 2.10324 13.709V15.8157H2.37535H2.79486V16.8918H2.37535H2.07489V19.5253L2.47739 19.3327C2.55998 19.289 2.63953 19.2398 2.71549 19.1854ZM9.30865 20.0689C9.56908 20.3667 9.84537 20.6503 10.1363 20.9184C10.1165 21.2593 10.0711 21.5982 10.0003 21.9322C9.95934 22.1588 9.88078 22.377 9.76784 22.5778C9.68427 22.7193 9.56504 22.8365 9.42203 22.9176C9.27549 22.9884 9.11421 23.0233 8.95149 23.0195C8.66471 23.0022 8.39522 22.8767 8.1975 22.6684C7.8865 22.3604 7.64153 21.9923 7.47753 21.5867C6.84312 22.2195 6.09748 22.7302 5.27792 23.0932C5.19947 22.9683 5.11233 22.849 5.01715 22.7364C4.88109 22.5702 4.72802 22.3947 4.55795 22.2097C5.54012 21.8648 6.4101 21.2599 7.07502 20.4597C6.92763 19.8971 6.80291 19.2968 6.70087 18.6587C6.59882 18.0245 6.53079 17.4638 6.49111 16.9937C6.45142 16.5237 6.42308 16.1952 6.41174 16.014H4.17812V17.2939H6.13962C6.13962 17.4072 6.13962 17.5091 6.13962 17.594C6.13962 18.3926 6.13962 19.0042 6.13962 19.4403C6.13225 19.7815 6.0808 20.1203 5.98656 20.4484C5.92463 20.6381 5.80833 20.8055 5.65208 20.9298C5.48757 21.0632 5.29299 21.1545 5.08517 21.1959C4.86684 21.2402 4.64468 21.263 4.42189 21.2639L4.06474 20.1312C4.14225 20.1599 4.22185 20.1827 4.30284 20.1992C4.38262 20.2193 4.46436 20.2307 4.54661 20.2332C4.66721 20.2461 4.78841 20.2148 4.88754 20.1449C4.98666 20.0751 5.05692 19.9715 5.08517 19.8537C5.12641 19.7252 5.15117 19.592 5.15887 19.4573C5.15887 19.2761 5.19288 18.8513 5.20422 18.1887H4.23481V18.2397C4.23539 18.6581 4.20888 19.0762 4.15544 19.4913C4.10299 19.9372 4.00807 20.3772 3.87199 20.8051C3.73015 21.2385 3.53998 21.6545 3.30508 22.0454C3.08642 22.4212 2.80228 22.755 2.46606 23.0309C2.4207 22.9629 2.35834 22.878 2.27898 22.776L2.01253 22.4362L1.75175 22.1361C2.23963 21.713 2.61217 21.1732 2.83454 20.5673C3.08942 19.8029 3.20838 18.9998 3.18603 18.1943V15.3344C3.19297 15.2269 3.19297 15.119 3.18603 15.0115H6.40607C6.40607 14.7227 6.40607 14.281 6.36639 13.675V13.2786L7.38683 13.3579C7.38864 13.3937 7.38864 13.4296 7.38683 13.4655C7.38683 13.5278 7.38683 13.6014 7.38683 13.6863C7.38683 14.1432 7.39816 14.5849 7.42084 15.0115H8.77575C8.63484 14.7938 8.47954 14.5857 8.31088 14.3886C8.13605 14.1862 7.94657 13.9969 7.74398 13.8223L8.41293 13.3635C8.61168 13.5423 8.80091 13.7313 8.97984 13.9299C9.18131 14.1218 9.37065 14.3261 9.54675 14.5415L8.83811 15.0455H9.10456C9.33872 15.0577 9.57336 15.0577 9.80752 15.0455V16.0819C9.57336 16.0697 9.33872 16.0697 9.10456 16.0819H7.44919C7.49743 17.2091 7.62626 18.3314 7.83468 19.4403C8.02242 19.0431 8.1742 18.6299 8.28821 18.2057C8.40674 17.7698 8.4995 17.3272 8.56599 16.8804L9.53541 17.3505L9.50706 17.4468C9.35337 18.0929 9.16412 18.73 8.94015 19.3553C8.75129 19.8771 8.50205 20.3751 8.1975 20.8391C8.29555 21.1344 8.44107 21.4118 8.62835 21.6603C8.67282 21.7347 8.73376 21.7978 8.80649 21.8449C8.87922 21.8921 8.96179 21.9219 9.04787 21.9322C9.07792 21.93 9.10702 21.9207 9.13268 21.9049C9.15835 21.8891 9.17981 21.8674 9.19526 21.8415C9.27501 21.6894 9.31774 21.5206 9.31998 21.3488C9.34205 20.9224 9.33827 20.4949 9.30865 20.0689Z" fill="#262626"/>
<path d="M20.63 15.8381H17.3816V17.1406H20.8398V17.4748V20.0459V20.8558C20.8398 21.0666 20.7586 21.2694 20.613 21.4221C20.417 21.6028 20.1763 21.728 19.9157 21.7846C19.4975 21.8799 19.0689 21.9217 18.6401 21.9091C18.5494 21.6713 18.3737 21.3032 18.1129 20.7765C18.4173 20.8188 18.724 20.8415 19.0313 20.8444C19.2075 20.8567 19.3842 20.8276 19.5472 20.7595C19.5932 20.7366 19.6316 20.7009 19.6578 20.6567C19.6839 20.6125 19.6967 20.5616 19.6946 20.5103V18.0864H17.3816V22.3906C17.3816 22.5491 17.3816 22.736 17.3816 22.9569H16.2478C16.2478 22.7417 16.2478 22.5529 16.2478 22.3906V18.0864H14.2239V21.609C14.2118 21.7579 14.2118 21.9075 14.2239 22.0564H13.0164C13.0285 21.9075 13.0285 21.7579 13.0164 21.609V17.4521V17.0953H16.2478V15.7927H13.1128C12.6366 15.7927 12.3078 15.7927 12.1377 15.7927V14.7167C12.3078 14.7167 12.6366 14.7167 13.1128 14.7167H16.5142C16.4405 14.5808 16.3612 14.4279 16.2648 14.258L15.987 13.8162L15.7829 13.5217L16.9167 13.0913C17.0358 13.2555 17.1832 13.4821 17.3533 13.7709C17.5233 14.0597 17.6594 14.2863 17.7444 14.4562L17.0755 14.7167H20.6753C21.1459 14.7167 21.4747 14.7167 21.6561 14.7167V15.7927C21.4293 15.8494 21.1005 15.8381 20.63 15.8381Z" fill="#262626"/>
<path d="M32.4784 21.6092C32.9489 21.6092 33.272 21.6092 33.4478 21.6092V22.6965C33.272 22.6965 32.9489 22.6965 32.4784 22.6965H24.9668C24.4963 22.6965 24.1675 22.6965 23.9861 22.6965V21.6092C24.1675 21.6092 24.4963 21.6092 24.9668 21.6092H28.0905V19.9101H25.7775C25.375 19.9101 25.0916 19.9101 24.9385 19.9101V18.8794C25.0916 18.8794 25.375 18.8794 25.7775 18.8794H31.7131C32.1156 18.8794 32.3933 18.8794 32.5521 18.8794V19.9101C32.3933 19.9101 32.1156 19.9101 31.7131 19.9101H29.2357V21.6092H32.4784ZM24.1845 16.682C24.1845 16.5631 24.1845 16.4668 24.1845 16.3762V14.7338C24.1845 14.6489 24.1845 14.5469 24.1845 14.4337H28.3286C28.0867 14.0335 27.9223 13.7786 27.8354 13.6691L28.7821 13.2161C29.0611 13.6065 29.3167 14.013 29.5475 14.4337H33.3061C33.3061 14.496 33.3061 14.5979 33.3061 14.7338V16.3762V16.682H32.1722V15.3342H25.3183V16.682H24.1845ZM24.2469 17.5938C24.5366 17.5408 24.8226 17.4689 25.1029 17.3786C25.4022 17.2863 25.6896 17.159 25.9589 16.9992C26.2041 16.8583 26.4291 16.6849 26.6279 16.4838C26.7781 16.3273 26.9076 16.1522 27.0134 15.9628C27.0929 15.8239 27.1593 15.6779 27.2118 15.5267L28.2436 16.0364L28.1699 16.144C27.8868 16.7697 27.4404 17.3077 26.8773 17.7014C26.1997 18.1468 25.4467 18.4654 24.655 18.6416C24.6267 18.5453 24.5757 18.4037 24.502 18.2055C24.4283 18.0073 24.3319 17.809 24.2355 17.5938H24.2469ZM29.6438 18.0129C29.5549 17.9413 29.4897 17.8446 29.4568 17.7354C29.3975 17.5043 29.3727 17.2658 29.3831 17.0275V15.6909C29.3892 15.6307 29.3892 15.57 29.3831 15.5097L30.4715 15.5833C30.462 15.632 30.462 15.682 30.4715 15.7306V17.0161C30.4607 17.0589 30.4607 17.1037 30.4715 17.1464C30.4983 17.1847 30.5358 17.2142 30.5792 17.2314C30.8797 17.3503 31.679 17.3163 32.9773 17.1238C32.9773 17.3843 32.9376 17.7184 32.9262 18.1205C32.2084 18.2141 31.4845 18.2538 30.7606 18.2395C30.3721 18.2696 29.9826 18.1953 29.6325 18.0242L29.6438 18.0129Z" fill="#262626"/>
<path d="M37.2234 17.3387V22.3168V22.9851H36.0896V22.3168V13.969C36.0896 13.8727 36.0896 13.7651 36.0896 13.6349H40.0863V14.0086V16.9593V17.3387H37.2234ZM39.0545 14.507H37.2234V15.1017H39.0545V14.507ZM37.2234 16.4892H39.0545V15.8492H37.2234V16.4892ZM42.49 18.1202V18.4997V21.5862V21.9657H39.6044V22.532H38.567C38.575 22.4 38.575 22.2676 38.567 22.1356V18.5223C38.5741 18.3884 38.5741 18.2542 38.567 18.1202H42.49ZM41.4639 18.9641H39.6044V19.6267H41.4639V18.9641ZM39.6044 21.1218H41.4639V20.4252H39.6044V21.1218ZM44.9674 14.2182V21.1331V21.9657C44.9674 22.6623 44.3041 23.0077 42.9832 23.0077C42.9692 22.965 42.9521 22.9234 42.9322 22.8831C42.9322 22.8208 42.8301 22.6509 42.6998 22.3734C42.5694 22.0959 42.5013 21.9373 42.4843 21.909C42.575 21.909 42.6941 21.909 42.8528 21.9543C43.0116 21.9996 43.1533 21.9543 43.2723 21.9543C43.4295 21.9647 43.5869 21.9375 43.7315 21.875C43.7741 21.8534 43.8095 21.82 43.8336 21.7789C43.8577 21.7377 43.8695 21.6905 43.8676 21.6429V17.3274H40.9707C40.9707 17.1801 40.9707 17.0555 40.9707 16.9479V13.9973C40.9707 13.8916 40.9707 13.767 40.9707 13.6235H44.9674V14.2182ZM43.8903 14.507H42.0705V15.1017H43.8903V14.507ZM42.0705 16.4892H43.8903V15.8492H42.0705V16.4892Z" fill="#262626"/>
<path d="M48.3405 17.9279L48.1705 17.9789L48.0004 18.0129L47.5469 17.3786C48.088 17.361 48.6074 17.1615 49.0208 16.8122H48.2668H47.6999V16.127H49.6614V15.8721H48.5616H48.0571V15.2265H48.5616H49.6501V14.9547H50.166H50.6422C50.6371 15.0339 50.6371 15.1133 50.6422 15.1925H51.827H52.3373V15.8382H51.827H50.6025V16.093H52.6717V16.7783H52.1048H51.2261V16.8972C51.2261 16.9992 51.2998 17.0501 51.4529 17.0614H51.9631C52.1672 17.0614 52.3543 17.0614 52.53 17.0161L52.4223 17.6278C52.066 17.6585 51.7083 17.6698 51.3508 17.6618C51.1029 17.6821 50.8544 17.6289 50.6365 17.5089L50.5515 17.4126V17.8147H51.5096H51.9744V18.4773H50.5515V18.7435L51.6343 18.6982C51.9688 18.6982 52.2012 18.6528 52.3713 18.6245V18.7208C52.5969 18.6298 52.8087 18.5079 53.0005 18.3584C53.1794 18.2179 53.3344 18.0496 53.4597 17.86C53.199 17.7127 52.9779 17.5881 52.7908 17.4975L53.1819 16.8293C53.4767 16.9652 53.6808 17.0671 53.8055 17.1294C53.8452 16.9652 53.8962 16.7443 53.9473 16.4725H53.3067H52.8475V15.6116H53.3067H54.0096V15.2888V15.0396L54.8827 15.0849V15.2662V15.6116H56.453C56.4247 15.9288 56.4133 16.3252 56.4133 16.8066C56.3946 17.2548 56.4308 17.7037 56.521 18.1432C56.5947 18.398 56.6911 18.5283 56.8215 18.5283C56.9519 18.5283 56.9179 18.4433 56.9405 18.2791C56.9582 18.0151 56.9582 17.7502 56.9405 17.4862C57.1549 17.6894 57.3821 17.8786 57.6208 18.0525C57.6318 18.4267 57.5459 18.7973 57.3714 19.1286C57.3114 19.2334 57.2248 19.3206 57.1203 19.3813C57.0158 19.442 56.897 19.474 56.7761 19.474C56.5863 19.4782 56.3999 19.4228 56.2433 19.3155C56.0721 19.1904 55.9372 19.0224 55.8521 18.8284C55.7275 18.5511 55.6435 18.2574 55.6026 17.9563C55.5416 17.5362 55.5132 17.1121 55.5176 16.6877V16.4271H54.7976C54.7535 16.7938 54.6699 17.1545 54.5482 17.5032C54.945 17.758 55.2455 17.9619 55.4552 18.1261L54.979 18.902C54.7306 18.677 54.4674 18.4689 54.191 18.2791C53.8882 18.7688 53.4515 19.1618 52.9325 19.4117L52.3656 18.7944L52.3146 19.2475C52.1672 19.2475 51.8667 19.2872 51.4018 19.3155C50.937 19.3438 50.3984 19.3891 49.7805 19.423L48.3405 19.508H47.887L47.7906 18.7038H48.3576H49.7748V18.4036H48.3859L48.3405 17.9279ZM48.556 20.6633H56.3226C56.7648 20.6633 57.0653 20.6633 57.241 20.6633V21.5015C57.0653 21.5015 56.7648 21.5015 56.3226 21.5015H54.8827C55.221 21.6484 55.5488 21.8187 55.8634 22.0112C56.2319 22.2321 56.5494 22.4416 56.8102 22.6342L56.0335 23.1609C55.9405 23.0682 55.8421 22.9812 55.7387 22.9003L55.3986 22.6455C54.5482 22.7078 53.5108 22.7701 52.2749 22.8211C51.039 22.872 49.9676 22.9117 49.0662 22.923L48.5786 22.957L48.4199 22.0622C48.6741 22.0157 48.9229 21.9436 49.1626 21.847C49.4217 21.7497 49.6737 21.6343 49.9165 21.5015H48.5616C48.1251 21.5015 47.819 21.5015 47.6489 21.5015V20.6633C47.8133 20.652 48.1194 20.6633 48.5616 20.6633H48.556ZM49.7408 14.6036H48.6467C48.1818 14.6036 47.8643 14.6036 47.6886 14.6036V13.6748C47.8643 13.6748 48.1818 13.6748 48.6467 13.6748H49.7408V13.4935V13.216C49.8712 13.216 50.0639 13.216 50.3077 13.216H50.8746V13.4539V13.6351H51.2204C51.6853 13.6351 52.0084 13.6351 52.1785 13.6351V14.6262C52.0084 14.6262 51.6853 14.6262 51.2204 14.6262H50.8293V14.6772C50.8293 14.8074 50.8293 14.9037 50.8293 14.9604H49.6955C49.7033 14.8661 49.7033 14.7714 49.6955 14.6772L49.7408 14.6036ZM49.8599 16.8406C49.7876 17.071 49.6398 17.2705 49.4403 17.4069C49.1666 17.606 48.8621 17.759 48.539 17.86H49.7295V17.4919V17.2144H50.4948C50.4874 17.1618 50.4874 17.1084 50.4948 17.0558V16.8066L49.8599 16.8406ZM49.8599 19.5873H55.0527C55.3702 19.5873 55.6196 19.5873 55.7444 19.5873V20.3632C55.514 20.3514 55.2831 20.3514 55.0527 20.3632H49.8599C49.6314 20.3515 49.4024 20.3515 49.1739 20.3632V19.5873C49.293 19.576 49.5254 19.5873 49.8372 19.5873H49.8599ZM54.2251 21.9432L53.5674 21.6544L53.9473 21.4562H51.3962C50.9937 21.6941 50.6479 21.8866 50.3531 22.0225C52.0084 21.9999 53.301 21.9734 54.2307 21.9432H54.2251ZM53.9983 14.5809H53.6525C53.1933 14.5809 52.8758 14.5809 52.6944 14.5809V13.6521C52.8758 13.6521 53.1933 13.6521 53.6525 13.6521H53.9983V13.4709V13.1934C54.1287 13.1934 54.3214 13.1934 54.5652 13.1934H55.1321V13.4312V13.6125H56.2319C56.6968 13.6125 57.0142 13.6125 57.19 13.6125V14.6262C57.0142 14.6262 56.6968 14.6262 56.2319 14.6262H55.1321V14.7678C55.1321 14.8924 55.1321 14.9887 55.1321 15.0453H53.9983C54.0031 14.9528 54.0031 14.8602 53.9983 14.7678V14.5809Z" fill="#262626"/>
<path d="M64.7355 16.3252V22.3001C64.7355 22.4756 64.7355 22.7022 64.7355 22.974H63.6583C63.6583 22.7022 63.6583 22.4756 63.6583 22.3001V16.3252H62.7343H62.2467L62.2127 16.3649C62.122 16.5405 61.9916 16.7556 61.8329 17.0162C61.6742 17.2767 61.5381 17.4806 61.4417 17.6278V22.5096V23.008H60.3476C60.3476 22.9061 60.3476 22.7418 60.3476 22.5096C60.3476 21.8187 60.3778 20.5973 60.4383 18.8454C60.1692 19.1503 59.8774 19.4343 59.5653 19.6949C59.3612 19.1286 59.2195 18.8001 59.1458 18.6472C59.2421 18.5679 59.3669 18.466 59.5142 18.3301C59.6814 18.1801 59.8404 18.0213 59.9904 17.8544C60.1549 17.6675 60.3306 17.4523 60.512 17.2144C60.6976 16.9651 60.8698 16.7061 61.0279 16.4385C61.1737 16.1956 61.3007 15.9419 61.4077 15.6796L62.1617 16.1723V15.3342H62.7003H63.647V13.7428C63.647 13.5842 63.647 13.4199 63.647 13.2444H64.2139H64.7411C64.7292 13.3952 64.7292 13.5467 64.7411 13.6974V15.2888H65.6369H66.1754V16.3252H65.6369H64.7355ZM62.1674 13.9806C61.8368 14.4677 61.4569 14.9193 61.0336 15.3285C60.6708 15.7061 60.2656 16.0406 59.826 16.3252C59.6644 16.0312 59.4845 15.7474 59.2875 15.4757C59.6217 15.2602 59.9349 15.0137 60.2229 14.7395C60.516 14.4773 60.7889 14.1933 61.0392 13.89C61.2003 13.6987 61.3392 13.4897 61.4531 13.267L62.2694 13.873L62.1674 13.9806ZM62.4508 17.5429V17.2824C62.7343 17.2824 63.0291 17.2937 63.3352 17.3163C63.3272 17.3954 63.3272 17.4751 63.3352 17.5542V18.8341C63.34 19.4075 63.2675 19.979 63.1198 20.5331C63.017 20.9479 62.8234 21.3348 62.5529 21.6658C62.289 21.5161 62.012 21.391 61.7252 21.292C61.9071 21.0763 62.0544 20.8336 62.1617 20.5728C62.2861 20.2808 62.3737 19.9745 62.4225 19.661C62.472 19.3671 62.4985 19.0698 62.5018 18.7718L62.4508 17.5429ZM66.3455 14.7112L65.6482 15.1756C65.5518 14.9887 65.4384 14.7735 65.2967 14.5356C65.155 14.2978 65.0529 14.1279 64.9849 14.0259L64.8488 13.839L65.4838 13.4313C65.6443 13.6094 65.7921 13.7987 65.926 13.9976C66.0847 14.2695 66.2208 14.5017 66.3285 14.6999L66.3455 14.7112ZM66.7593 21.4279C66.4386 21.4526 66.1164 21.4526 65.7956 21.4279C65.5065 21.4279 65.3364 21.3486 65.2797 21.2637C65.247 21.2109 65.2221 21.1537 65.206 21.0938C65.1685 20.9075 65.1532 20.7174 65.1607 20.5274V17.4579V17.305L66.0337 17.3503V17.4862V20.5331C66.0337 20.6011 66.0337 20.6351 66.0677 20.6521C66.3249 20.6943 66.5872 20.6943 66.8444 20.6521L66.7593 21.4279ZM68.6982 16.4668H69.1574V17.4579H68.6982H68.4997V21.2354V21.9886C68.501 22.0948 68.48 22.2001 68.438 22.2976C68.396 22.3952 68.334 22.4828 68.256 22.5549C68.0508 22.724 67.8042 22.8355 67.5417 22.8777C67.14 22.9534 66.7315 22.9876 66.3228 22.9797C66.2718 22.8664 66.1981 22.7022 66.096 22.4926C65.994 22.2831 65.9033 22.1075 65.8296 21.9716C66.1357 22.0144 66.4445 22.0353 66.7537 22.0339C66.9236 22.038 67.0934 22.0189 67.2582 21.9773C67.3201 21.9628 67.375 21.9271 67.4133 21.8764C67.4516 21.8257 67.471 21.7632 67.468 21.6998V17.4296H66.5893H66.1357V16.4385H66.5893L68.6982 16.4668ZM68.5791 14.8301H66.8784H66.4532V13.8164H66.8784H68.5791H69.01V14.8301H68.5791Z" fill="#262626"/>
<path d="M73.1028 14.9264C72.9269 15.1491 72.7376 15.361 72.5359 15.5607C72.3609 15.7438 72.1713 15.9123 71.969 16.0647C71.6922 15.8378 71.4006 15.6297 71.0959 15.4417C71.3683 15.2653 71.6194 15.0582 71.8443 14.8244C72.0854 14.5786 72.3036 14.3113 72.4962 14.0259C72.6739 13.7696 72.8223 13.4941 72.9384 13.2047L73.9929 13.3973L73.9192 13.5275C73.846 13.7223 73.7589 13.9116 73.6584 14.0938H75.6652H76.1358V14.9773H75.6652H74.6505C74.8886 15.3285 75.07 15.6229 75.2174 15.8608L74.1913 16.1383C74.109 15.9437 74.0143 15.7545 73.9078 15.572C73.7888 15.3568 73.6754 15.1642 73.5677 15.0056L73.1028 14.9264ZM73.8568 20.3066L74.6675 19.8988C75.0019 20.2725 75.316 20.6638 75.6085 21.0711C75.96 21.5468 76.2435 21.9659 76.4646 22.3283L75.5632 22.7814C75.4158 22.5096 75.2287 22.2151 74.9963 21.8356C74.384 22.0508 73.6017 22.3057 72.6493 22.6002C72.4849 22.6625 72.3148 22.7305 72.1504 22.8041L71.7422 21.9432C71.8252 21.8981 71.888 21.8232 71.918 21.7337C71.9581 21.5997 71.9753 21.46 71.969 21.3203V16.648C71.9757 16.5443 71.9757 16.4403 71.969 16.3365H76.0621V16.682V19.3721V19.7175H73.0064V21.5864C73.5053 21.4449 74.0155 21.2919 74.5201 21.122L74.1799 20.669C74.0722 20.5217 73.9475 20.3972 73.8568 20.2896V20.3066ZM75.0246 17.1124H72.9894V17.6391H75.0246V17.1124ZM72.9894 18.9417H75.0246V18.3753H72.9894V18.9417ZM80.484 14.0599H80.9998V14.9433H80.484H79.2141C79.5259 15.3568 79.7356 15.6513 79.8377 15.8155L78.8116 16.093C78.7719 16.0081 78.6925 15.8665 78.5791 15.6683C78.4658 15.4701 78.307 15.2322 78.1029 14.9433H77.4056C77.1727 15.3123 76.8925 15.6492 76.5723 15.9458C76.2938 15.7384 76.0022 15.5492 75.6992 15.3794C76.0248 15.114 76.3061 14.7986 76.5326 14.445C76.7961 14.0595 77.0024 13.6379 77.1449 13.1934L78.1483 13.3746L78.0803 13.5049C78.0211 13.6982 77.9491 13.8874 77.8648 14.0712L80.484 14.0599ZM80.518 16.3252C80.511 16.4327 80.511 16.5405 80.518 16.648V20.046V20.8559C80.5212 20.996 80.488 21.1346 80.4216 21.258C80.3519 21.3739 80.2569 21.4726 80.1438 21.5468C79.9701 21.6547 79.7779 21.7296 79.5769 21.7677C79.2287 21.8425 78.8728 21.8748 78.5168 21.864C78.4034 21.5865 78.239 21.241 78.0349 20.8219C78.1256 20.8219 78.256 20.8219 78.4147 20.8672H78.8399C78.9838 20.871 79.1273 20.8519 79.2651 20.8106C79.3209 20.795 79.3696 20.7604 79.4027 20.7129C79.4358 20.6653 79.4513 20.6078 79.4465 20.5501V17.254H77.8705V22.453C77.8705 22.6002 77.8705 22.7758 77.8705 22.9796H76.7707C76.7707 22.7758 76.7707 22.6002 76.7707 22.453V16.6594C76.7776 16.5519 76.7776 16.444 76.7707 16.3365L80.518 16.3252Z" fill="#262626"/>
<path d="M27.5522 3.14089V1.92896H27.9887V4.83989H27.5522V3.543H26.0442V4.83989H25.6077V1.92896H26.0442V3.14089H27.5522Z" fill="#262626"/>
<path d="M30.9082 4.60204C30.7905 4.70666 30.6533 4.78703 30.5044 4.83854C30.3556 4.89005 30.198 4.9117 30.0408 4.90221C29.7235 4.91951 29.412 4.81172 29.1734 4.60204C29.0658 4.48945 28.9826 4.35591 28.9289 4.20975C28.8753 4.06358 28.8524 3.90794 28.8616 3.75254V1.92896H29.2868V3.75254C29.273 3.95844 29.3401 4.16161 29.4739 4.31887C29.5502 4.38794 29.6399 4.44068 29.7374 4.4738C29.8349 4.50692 29.9381 4.51972 30.0408 4.51144C30.1435 4.52041 30.2469 4.50792 30.3445 4.47477C30.4421 4.44161 30.5318 4.38852 30.6077 4.31887C30.676 4.24208 30.7283 4.15243 30.7614 4.05517C30.7945 3.9579 30.8077 3.85501 30.8004 3.75254V1.92896H31.237V3.75254C31.244 3.90916 31.2184 4.06552 31.1618 4.21175C31.1052 4.35798 31.0188 4.49088 30.9082 4.60204Z" fill="#262626"/>
<path d="M34.4848 4.83989H34.0256L33.7365 4.08102H32.4269L32.1435 4.83989H31.6899L32.8238 1.92896H33.3283L34.4848 4.83989ZM32.631 3.543L32.5686 3.70159H33.5948L33.5324 3.543C33.3907 3.18054 33.2376 2.78412 33.0789 2.34804C32.8918 2.85208 32.7387 3.2485 32.631 3.543Z" fill="#262626"/>
<path d="M35.5681 1.92912V4.43231H36.9967V4.82308H35.1316V1.91211L35.5681 1.92912Z" fill="#262626"/>
<path d="M38.1699 4.83989H37.7334V1.92896H38.1699V4.83989Z" fill="#262626"/>
<path d="M41.1914 1.92912V2.31989H39.5474V3.14105H41.0327V3.52618H39.5474V4.43231H41.18V4.82308H39.1108V1.91211L41.1914 1.92912Z" fill="#262626"/>
<path d="M43.8905 2.81244V1.92896H44.31V4.83989H43.8111L42.8927 3.42972C42.6263 3.02196 42.4392 2.70483 42.3258 2.48962C42.3258 2.8181 42.3258 3.30512 42.3258 3.95641V4.83989H41.9006V1.92896H42.4052L43.3066 3.33912C43.5447 3.72423 43.7374 4.0357 43.8735 4.27922C43.8962 3.95075 43.8905 3.46372 43.8905 2.81244Z" fill="#262626"/>
<path d="M46.4697 1.92926H47.7113C47.9793 1.91151 48.2437 1.99887 48.4482 2.17278C48.5365 2.26063 48.6053 2.36599 48.6502 2.48208C48.6952 2.59817 48.7152 2.72241 48.709 2.84672C48.7158 2.97026 48.6961 3.09381 48.6511 3.20908C48.6061 3.32435 48.5369 3.42866 48.4482 3.51499C48.2442 3.69042 47.98 3.77978 47.7113 3.76418H46.9062V4.8402H46.4697V1.92926ZM46.9062 3.37908H47.6999C47.7754 3.38557 47.8514 3.37688 47.9234 3.35353C47.9955 3.33019 48.0621 3.29267 48.1194 3.24316C48.1697 3.19077 48.2082 3.12835 48.2327 3.06003C48.2571 2.99172 48.2668 2.91904 48.2612 2.84672C48.2658 2.77449 48.2556 2.70206 48.2312 2.6339C48.2068 2.56574 48.1688 2.50327 48.1194 2.45028C48.0621 2.40078 47.9955 2.36326 47.9234 2.33991C47.8514 2.31657 47.7754 2.30787 47.6999 2.31437H46.9062V3.37908Z" fill="#262626"/>
<path d="M51.5602 1.92912V2.31989H49.9219V3.14105H51.3958V3.52618H49.9219V4.43231H51.5489V4.82308H49.4854V1.91211L51.5602 1.92912Z" fill="#262626"/>
<path d="M54.5311 4.03044L54.5595 4.48353C54.5646 4.60814 54.5975 4.73001 54.6558 4.84029H54.2307C54.1654 4.72704 54.1358 4.59682 54.1456 4.46653V4.15505C54.151 4.01158 54.1048 3.87092 54.0152 3.75861C53.9652 3.71469 53.9067 3.68148 53.8433 3.66103C53.7799 3.64057 53.713 3.63329 53.6467 3.63966H52.8021V4.84029H52.3599V1.92936H53.6354C53.8986 1.91328 54.1593 1.98939 54.3724 2.14457C54.4566 2.21282 54.5244 2.29918 54.5705 2.39725C54.6166 2.49531 54.64 2.60255 54.6388 2.7109C54.6434 2.87001 54.5978 3.02651 54.5084 3.15829C54.4207 3.28265 54.2925 3.37274 54.1456 3.41315C54.2716 3.44286 54.3824 3.51734 54.4574 3.62269C54.5232 3.74788 54.5489 3.89019 54.5311 4.03044ZM52.768 3.29988H53.6071C53.753 3.30998 53.8973 3.26331 54.0096 3.16963C54.0586 3.1211 54.0966 3.0626 54.1211 2.99811C54.1455 2.93363 54.1558 2.86464 54.1513 2.79583C54.1562 2.72983 54.1454 2.66364 54.1198 2.60261C54.0942 2.54157 54.0545 2.48745 54.0039 2.44471C53.8797 2.35813 53.7298 2.31623 53.5787 2.3258H52.768V3.29988Z" fill="#262626"/>
<path d="M57.3992 1.92896V2.31973H55.8516V3.14089H57.2462V3.52602H55.8516V4.83989H55.415V1.92896H57.3992Z" fill="#262626"/>
<path d="M59.3837 4.90234C59.1914 4.91254 58.9993 4.88028 58.821 4.80784C58.6426 4.7354 58.4825 4.62458 58.3519 4.48326C58.2167 4.33521 58.112 4.16194 58.0439 3.97341C57.9758 3.78487 57.9456 3.58478 57.9551 3.38457C57.9369 2.97866 58.0795 2.58194 58.3519 2.28021C58.6272 2.01211 58.9964 1.86206 59.3808 1.86206C59.7653 1.86206 60.1345 2.01211 60.4098 2.28021C60.6625 2.59183 60.8003 2.9807 60.8003 3.38174C60.8003 3.78277 60.6625 4.17164 60.4098 4.48326C60.2793 4.62321 60.12 4.73316 59.9429 4.80552C59.7657 4.87789 59.5749 4.91093 59.3837 4.90234ZM59.3837 4.51157C59.5163 4.51656 59.6484 4.49165 59.7701 4.4387C59.8917 4.38576 60 4.30613 60.0866 4.20573C60.2723 3.97365 60.3652 3.6811 60.3474 3.38457C60.365 3.08633 60.2722 2.79203 60.0866 2.55771C59.9952 2.46299 59.8855 2.38766 59.7643 2.33621C59.643 2.28475 59.5126 2.25823 59.3808 2.25823C59.2491 2.25823 59.1187 2.28475 58.9974 2.33621C58.8762 2.38766 58.7665 2.46299 58.675 2.55771C58.4884 2.79173 58.3937 3.08574 58.4086 3.38457C58.3935 3.68169 58.4883 3.97395 58.675 4.20573C58.7626 4.30658 58.8718 4.38645 58.9944 4.4394C59.1171 4.49234 59.2501 4.51701 59.3837 4.51157Z" fill="#262626"/>
<path d="M63.4031 3.43539L63.97 1.92896H64.5823V4.83989H64.1628V3.9281C64.1628 3.27115 64.1628 2.77845 64.1628 2.44997C64.1004 2.62554 64.021 2.85207 63.9133 3.12391L63.2557 4.82292H62.8872L62.2183 3.12391C62.1276 2.88605 62.0482 2.66519 61.9802 2.46131C61.9802 2.78979 61.9802 3.27681 61.9802 3.9281V4.83989H61.6003V1.92896H62.2069L62.8022 3.47504C62.9269 3.79785 63.0289 4.07537 63.1026 4.3019C63.1896 4.03006 63.2897 3.74121 63.4031 3.43539Z" fill="#262626"/>
<path d="M67.7059 4.03044V4.48353C67.7126 4.60862 67.7475 4.73055 67.8079 4.84029H67.3544C67.2945 4.72502 67.2652 4.59634 67.2694 4.46653V4.15505C67.2747 4.01158 67.2285 3.87092 67.139 3.75861C67.0889 3.71469 67.0304 3.68148 66.967 3.66103C66.9037 3.64057 66.8368 3.63329 66.7705 3.63966H65.9258V4.84029H65.4893V1.92936H66.7591C67.0224 1.91328 67.283 1.98939 67.4961 2.14457C67.6387 2.27279 67.7307 2.44764 67.7557 2.63766C67.7806 2.82767 67.7368 3.02032 67.6322 3.18093C67.5455 3.30391 67.4196 3.39379 67.275 3.43579C67.3995 3.46529 67.5087 3.53997 67.5812 3.64533C67.6603 3.75839 67.7037 3.89251 67.7059 4.03044ZM65.9428 3.29988H66.7875C66.9315 3.3085 67.0735 3.26193 67.1843 3.16963C67.2344 3.12161 67.2735 3.06335 67.2989 2.99884C67.3244 2.93433 67.3355 2.86506 67.3317 2.79583C67.336 2.72936 67.3243 2.66284 67.2977 2.60178C67.2711 2.54071 67.2303 2.48687 67.1786 2.44471C67.0549 2.3573 66.9047 2.31531 66.7535 2.3258H65.9428V3.29988Z" fill="#262626"/>
<path d="M69.0268 4.83989H68.5903V1.92896H69.0268V4.83989Z" fill="#262626"/>
<path d="M71.9012 2.81244V1.92896H72.3264V4.83989H71.8048L70.9091 3.42972C70.6483 3.02196 70.4556 2.70483 70.3422 2.48962C70.3422 2.8181 70.3422 3.30512 70.3422 3.95641V4.83989H69.917V1.92896H70.4215L71.3229 3.33912C71.5667 3.72423 71.7538 4.0357 71.8898 4.27922C71.9068 3.95075 71.9012 3.46372 71.9012 2.81244Z" fill="#262626"/>
<path d="M74.5992 3.68477V3.29967H75.8691V4.82878H75.5346L75.4552 4.43801C75.3488 4.58753 75.2061 4.70756 75.0405 4.78682C74.8749 4.86608 74.6918 4.90195 74.5085 4.89107C74.3205 4.90021 74.1329 4.86734 73.9593 4.79484C73.7857 4.72234 73.6305 4.61204 73.505 4.47199C73.2591 4.15738 73.1255 3.76965 73.1255 3.37046C73.1255 2.97128 73.2591 2.58355 73.505 2.26894C73.6357 2.12929 73.7951 2.01953 73.9722 1.94719C74.1493 1.87485 74.34 1.84165 74.5311 1.84985C74.8506 1.83987 75.1641 1.93762 75.4212 2.12735C75.6515 2.31303 75.8 2.58132 75.835 2.87492H75.3872C75.3532 2.68768 75.2474 2.52106 75.0924 2.41052C74.9276 2.29255 74.7281 2.23278 74.5255 2.24063C74.3936 2.23482 74.2621 2.2594 74.1412 2.31242C74.0203 2.36545 73.9132 2.4455 73.8282 2.54644C73.6587 2.78891 73.5678 3.07755 73.5678 3.3733C73.5678 3.66905 73.6587 3.95768 73.8282 4.20016C73.9149 4.30056 74.0231 4.38016 74.1448 4.4331C74.2665 4.48604 74.3985 4.51096 74.5311 4.50597C74.7691 4.51226 75.0004 4.42713 75.1774 4.26812C75.2614 4.19311 75.3289 4.10156 75.3757 3.99922C75.4226 3.89689 75.4477 3.78595 75.4495 3.67344L74.5992 3.68477Z" fill="#262626"/>
<path d="M25.6077 6.79962H26.8492C27.1172 6.78187 27.3816 6.86923 27.5862 7.04314C27.6744 7.13099 27.7433 7.23639 27.7882 7.35248C27.8331 7.46857 27.8531 7.59277 27.847 7.71708C27.8554 7.84248 27.8365 7.96821 27.7915 8.08556C27.7464 8.20291 27.6764 8.30908 27.5862 8.39669C27.3822 8.57212 27.1179 8.66147 26.8492 8.64588H26.0442V9.72193H25.6077V6.79962ZM26.0442 8.24944H26.8435C26.9181 8.25517 26.993 8.24612 27.064 8.22279C27.1351 8.19946 27.2008 8.16232 27.2574 8.11353C27.3076 8.06113 27.3462 7.99874 27.3706 7.93043C27.395 7.86211 27.4047 7.78941 27.3991 7.71708C27.4037 7.64485 27.3935 7.57246 27.3691 7.50429C27.3448 7.43613 27.3067 7.37363 27.2574 7.32064C27.2008 7.27184 27.1351 7.23474 27.064 7.21141C26.993 7.18809 26.9181 7.179 26.8435 7.18473H26.0442V8.24944Z" fill="#262626"/>
<path d="M30.6133 9.47268C30.365 9.66695 30.0586 9.77251 29.7431 9.77251C29.4277 9.77251 29.1213 9.66695 28.8729 9.47268C28.7663 9.35962 28.6841 9.22583 28.6315 9.07969C28.5788 8.93355 28.5568 8.77818 28.5668 8.62318V6.79956H29.0033V8.62881C28.9889 8.83479 29.0561 9.03818 29.1904 9.19515C29.3477 9.31964 29.5425 9.3874 29.7431 9.3874C29.9438 9.3874 30.1386 9.31964 30.2959 9.19515C30.4302 9.03818 30.4974 8.83479 30.483 8.62881V6.79956H30.9251V8.62318C30.9344 8.77858 30.9115 8.93419 30.8578 9.08035C30.8042 9.22651 30.721 9.36009 30.6133 9.47268Z" fill="#262626"/>
<path d="M33.5836 8.18703C33.7333 8.24004 33.8637 8.33671 33.9578 8.46453C34.0446 8.5869 34.0902 8.73364 34.0882 8.88361C34.0934 8.99721 34.0733 9.11058 34.0291 9.21541C33.985 9.32024 33.918 9.4139 33.8331 9.48959C33.6285 9.64925 33.3721 9.7279 33.1131 9.71047H31.7979V6.7995H33.0564C33.2997 6.78152 33.5408 6.8564 33.731 7.00904C33.8174 7.08721 33.8837 7.18502 33.9243 7.29421C33.9649 7.4034 33.9785 7.52078 33.964 7.63635C33.9496 7.75192 33.9074 7.86227 33.8412 7.95813C33.775 8.05399 33.6866 8.13251 33.5836 8.18703ZM33.0167 7.1733H32.223V8.04544H33.0167C33.3569 8.04544 33.5269 7.89254 33.5269 7.59238C33.5296 7.53435 33.5187 7.47647 33.4951 7.42339C33.4715 7.3703 33.4358 7.32345 33.3909 7.28654C33.2866 7.2082 33.1584 7.16822 33.0281 7.1733H33.0167ZM32.223 9.33103H33.0791C33.224 9.34016 33.3678 9.30026 33.4872 9.21776C33.5362 9.17619 33.575 9.12393 33.6005 9.06501C33.6261 9.00609 33.6378 8.94207 33.6346 8.87794C33.6346 8.56645 33.4476 8.40791 33.0677 8.40791H32.2344L32.223 9.33103Z" fill="#262626"/>
<path d="M35.2845 6.79956V9.31976H36.7131V9.71053H34.8423V6.79956H35.2845Z" fill="#262626"/>
<path d="M37.8862 9.71053H37.4497V6.79956H37.8862V9.71053Z" fill="#262626"/>
<path d="M40.0579 9.77277C39.8725 9.77976 39.6877 9.7464 39.5164 9.67502C39.3451 9.60364 39.1914 9.49594 39.0658 9.35936C38.9298 9.20544 38.8256 9.02607 38.7594 8.83163C38.6933 8.6372 38.6664 8.43158 38.6803 8.22669C38.6531 7.81395 38.7895 7.40707 39.0602 7.09402C39.1863 6.95669 39.341 6.84852 39.5133 6.77711C39.6856 6.7057 39.8715 6.67275 40.0579 6.68057C40.3552 6.67269 40.6466 6.76441 40.8856 6.9411C41.1282 7.13097 41.2886 7.4067 41.3335 7.7113H40.8913C40.8544 7.52146 40.7493 7.35163 40.5959 7.23377C40.4424 7.11591 40.2511 7.05813 40.0579 7.07134C39.9294 7.06601 39.8013 7.09092 39.6842 7.14404C39.567 7.19715 39.464 7.27702 39.3833 7.37719C39.2055 7.61496 39.1172 7.90768 39.1339 8.20401C39.1191 8.50012 39.2072 8.79224 39.3833 9.03087C39.464 9.13104 39.567 9.21091 39.6842 9.26402C39.8013 9.31714 39.9294 9.34201 40.0579 9.33668C40.2633 9.33846 40.4631 9.27059 40.6248 9.14415C40.7093 9.07456 40.7785 8.98837 40.8283 8.89095C40.878 8.79353 40.9072 8.68696 40.914 8.57781H41.3561C41.3467 8.74002 41.3042 8.89857 41.231 9.0437C41.1579 9.18883 41.0558 9.31747 40.931 9.42165C40.6927 9.64135 40.3821 9.76625 40.0579 9.77277Z" fill="#262626"/>
<path d="M44.4458 9.77267C44.1259 9.79303 43.809 9.70084 43.5501 9.51215C43.4409 9.41792 43.3545 9.30014 43.2976 9.16769C43.2406 9.03524 43.2145 8.8916 43.2213 8.74761H43.6634C43.6634 9.18369 43.9356 9.40458 44.4571 9.40458C44.6304 9.41393 44.8024 9.37047 44.9503 9.27996C45.0081 9.23953 45.0546 9.18498 45.0854 9.12155C45.1161 9.05811 45.1301 8.98787 45.1261 8.9175C45.1291 8.85967 45.1177 8.80202 45.0929 8.74965C45.0682 8.69728 45.0309 8.65184 44.9843 8.61736C44.8254 8.52484 44.6504 8.46334 44.4685 8.43613L44.219 8.37948C43.97 8.34389 43.735 8.24221 43.5387 8.08501C43.4611 8.01346 43.4004 7.92548 43.3612 7.82749C43.3219 7.7295 43.3051 7.62399 43.312 7.51867C43.3095 7.40895 43.3334 7.30022 43.3818 7.20166C43.4301 7.10311 43.5014 7.01761 43.5897 6.95234C43.8099 6.7984 44.0754 6.72263 44.3437 6.73713C44.6505 6.71654 44.9549 6.80257 45.2054 6.98065C45.3006 7.0661 45.3762 7.17104 45.427 7.28832C45.4779 7.4056 45.5029 7.53247 45.5002 7.66025H45.0637C45.0635 7.58123 45.0468 7.50312 45.0146 7.43094C44.9823 7.35876 44.9354 7.29412 44.8766 7.24117C44.7179 7.14092 44.5308 7.09515 44.3437 7.11089C44.1906 7.10084 44.0381 7.13843 43.9072 7.2185C43.8578 7.25092 43.8177 7.29566 43.7908 7.34829C43.764 7.40093 43.7513 7.45966 43.7542 7.51867C43.7501 7.57687 43.7603 7.63518 43.7841 7.68849C43.8078 7.74181 43.8442 7.7885 43.8902 7.82448C44.0408 7.92243 44.2111 7.98624 44.3891 8.01138L44.6442 8.06233C44.9056 8.10381 45.1529 8.20885 45.3642 8.36817C45.4392 8.44123 45.4973 8.52974 45.5345 8.62756C45.5717 8.72537 45.5871 8.83014 45.5796 8.93451C45.5853 9.05672 45.5609 9.17846 45.5085 9.28906C45.4561 9.39965 45.3774 9.49571 45.2791 9.5688C45.0323 9.72873 44.7386 9.80057 44.4458 9.77267Z" fill="#262626"/>
<path d="M46.3386 6.79962H47.5802C47.8482 6.78187 48.1126 6.86923 48.3171 7.04314C48.4046 7.1316 48.4728 7.23709 48.5177 7.35303C48.5625 7.46897 48.583 7.59289 48.5779 7.71708C48.5833 7.84046 48.5629 7.96359 48.518 8.07865C48.4731 8.19371 48.4047 8.29816 48.3171 8.38536C48.1131 8.56078 47.8489 8.65014 47.5802 8.63454H46.7751V9.7106H46.3386V6.79962ZM46.7751 8.24944H47.5688C47.6443 8.25593 47.7203 8.24724 47.7923 8.2239C47.8644 8.20055 47.931 8.16303 47.9883 8.11353C48.0386 8.06113 48.0771 7.99874 48.1016 7.93043C48.126 7.86211 48.1357 7.78941 48.1301 7.71708C48.1347 7.64485 48.1245 7.57246 48.1001 7.50429C48.0757 7.43613 48.0377 7.37363 47.9883 7.32064C47.931 7.27114 47.8644 7.23362 47.7923 7.21027C47.7203 7.18693 47.6443 7.17824 47.5688 7.18473H46.7751V8.24944Z" fill="#262626"/>
<path d="M51.4863 9.71053H51.0271L50.7379 8.95163H49.4284L49.1449 9.71053H48.6914L49.8252 6.79956H50.3298L51.4863 9.71053ZM49.6268 8.39663L49.5701 8.55522H50.5962L50.5339 8.39663C50.3921 8.03417 50.2391 7.63775 50.0803 7.20167C49.8933 7.7227 49.7402 8.11913 49.6268 8.39663Z" fill="#262626"/>
<path d="M53.2269 9.77277C53.0414 9.77976 52.8566 9.7464 52.6853 9.67502C52.514 9.60364 52.3603 9.49594 52.2348 9.35936C52.0987 9.20544 51.9946 9.02607 51.9284 8.83163C51.8622 8.6372 51.8353 8.43158 51.8493 8.22669C51.822 7.81395 51.9585 7.40707 52.2291 7.09402C52.3553 6.95669 52.5099 6.84852 52.6823 6.77711C52.8546 6.7057 53.0405 6.67275 53.2269 6.68057C53.5241 6.67269 53.8155 6.76441 54.0546 6.9411C54.2972 7.13097 54.4575 7.4067 54.5024 7.7113H54.0602C54.0234 7.52146 53.9183 7.35163 53.7648 7.23377C53.6113 7.11591 53.42 7.05813 53.2269 7.07134C53.0983 7.06601 52.9703 7.09092 52.8531 7.14404C52.736 7.19715 52.6329 7.27702 52.5523 7.37719C52.3744 7.61496 52.2861 7.90768 52.3028 8.20401C52.288 8.50012 52.3762 8.79224 52.5523 9.03087C52.6329 9.13104 52.736 9.21091 52.8531 9.26402C52.9703 9.31714 53.0983 9.34201 53.2269 9.33668C53.4322 9.33846 53.6321 9.27059 53.7938 9.14415C53.8782 9.07456 53.9475 8.98837 53.9972 8.89095C54.0469 8.79353 54.0761 8.68696 54.0829 8.57781H54.5251C54.5157 8.74002 54.4731 8.89857 54.4 9.0437C54.3268 9.18883 54.2247 9.31747 54.0999 9.42165C53.8616 9.64135 53.5511 9.76625 53.2269 9.77277Z" fill="#262626"/>
<path d="M57.3765 6.79956V7.19033H55.7324V8.01153H57.2177V8.39663H55.7324V9.31976H57.3594V9.71053H55.2959V6.79956H57.3765Z" fill="#262626"/>
<path d="M61.3624 6.79956V7.19033H59.8147V8.01153H61.2093V8.39663H59.8147V9.71053H59.3782V6.79956H61.3624Z" fill="#262626"/>
<path d="M64.1797 6.79956V7.19033H62.5356V8.01153H64.0209V8.39663H62.5356V9.31976H64.1683V9.71053H62.0991V6.79956H64.1797Z" fill="#262626"/>
<path d="M66.0166 9.77292C65.6966 9.79425 65.3794 9.70197 65.1209 9.5124C65.0117 9.41817 64.9253 9.30039 64.8684 9.16794C64.8114 9.0355 64.7853 8.89185 64.7921 8.74786H65.2286C65.2286 9.18394 65.5007 9.40483 66.0222 9.40483C66.1973 9.41427 66.3711 9.37084 66.5211 9.28021C66.5789 9.23978 66.6254 9.18524 66.6562 9.1218C66.6869 9.05836 66.7009 8.98812 66.6969 8.91775C66.6984 8.86013 66.6864 8.80297 66.6618 8.75083C66.6372 8.6987 66.6006 8.65306 66.5551 8.61761C66.3958 8.52607 66.2209 8.46463 66.0393 8.43638L65.7898 8.37973C65.5408 8.34414 65.3058 8.24246 65.1095 8.08526C65.0312 8.01399 64.9696 7.92621 64.9294 7.82826C64.8892 7.7303 64.8714 7.62463 64.8771 7.51892C64.8755 7.40935 64.8999 7.30094 64.9482 7.20254C64.9964 7.10413 65.0672 7.0185 65.1549 6.95259C65.3754 6.79945 65.6406 6.72375 65.9089 6.73738C66.2157 6.71584 66.5205 6.80196 66.7706 6.9809C66.8676 7.06509 66.9449 7.16967 66.9969 7.28715C67.0488 7.40463 67.0741 7.53211 67.071 7.66051H66.6345C66.6343 7.58148 66.6176 7.50337 66.5854 7.43119C66.5531 7.35902 66.5062 7.29437 66.4474 7.24142C66.2884 7.14193 66.1016 7.09623 65.9145 7.11114C65.7613 7.09954 65.6083 7.13725 65.478 7.21875C65.4286 7.25117 65.3885 7.29591 65.3616 7.34854C65.3348 7.40118 65.3221 7.45992 65.325 7.51892C65.3209 7.57713 65.3311 7.63543 65.3549 7.68875C65.3786 7.74206 65.415 7.78875 65.461 7.82473C65.6116 7.92269 65.7819 7.98649 65.9599 8.01163L66.215 8.06258C66.4747 8.10405 66.7201 8.20914 66.9293 8.36842C67.0063 8.44025 67.0661 8.52844 67.1044 8.62646C67.1426 8.72449 67.1584 8.82984 67.1504 8.93476C67.1546 9.05677 67.1296 9.17802 67.0773 9.28837C67.025 9.39873 66.9471 9.49497 66.8499 9.56905C66.6031 9.72898 66.3094 9.80082 66.0166 9.77292Z" fill="#262626"/>
<path d="M67.5474 6.79956H69.9284V7.19033H68.9703V9.71053H68.5224V7.19033H67.5587L67.5474 6.79956Z" fill="#262626"/>
<path d="M71.0679 9.71053H70.6313V6.79956H71.0679V9.71053Z" fill="#262626"/>
<path d="M73.3409 8.49295L73.9078 6.79395H74.3613L73.3012 9.70491H72.8023L71.7139 6.79395H72.1787L72.7853 8.49295C72.8874 8.77612 72.9781 9.0593 73.0518 9.2915C73.1198 9.15558 73.2048 8.88938 73.3409 8.49295Z" fill="#262626"/>
<path d="M77.1618 9.71053H76.7026L76.4135 8.95163H75.1039L74.8205 9.71053H74.3669L75.5008 6.79956H76.0053L77.1618 9.71053ZM75.3023 8.39663L75.24 8.55522H76.2718L76.2094 8.39663C76.062 8.03417 75.9146 7.63775 75.7559 7.20167C75.5688 7.7227 75.4157 8.11913 75.3023 8.39663Z" fill="#262626"/>
<path d="M78.2449 6.79956V9.31976H79.6735V9.71053H77.8083V6.79956H78.2449Z" fill="#262626"/>
</svg>
