<svg width="291" height="21" viewBox="0 0 291 21" fill="none" xmlns="http://www.w3.org/2000/svg">
<path d="M218.108 1.06836V5.88806H217.194V3.8333H214.955V5.8928H214.041V1.06836H214.955V3.00476H217.194V1.06836H218.108Z" fill="#262626"/>
<path d="M219.04 4.07476V1.06836H219.954V4.07949C219.954 4.83701 220.366 5.19683 221.057 5.19683C221.749 5.19683 222.16 4.83701 222.16 4.07949V1.06836H223.074V4.07476C223.074 5.32939 222.298 5.99222 221.057 5.99222C219.845 5.99222 219.04 5.32939 219.04 4.07476Z" fill="#262626"/>
<path d="M226.767 4.82754H224.656L224.282 5.88806H223.339L225.176 1.06836H226.246L228.117 5.88806H227.151L226.767 4.82754ZM226.488 4.05108L226.299 3.53029C226.128 3.08998 225.901 2.44609 225.702 1.87796C225.508 2.44609 225.276 3.08998 225.115 3.53029L224.93 4.05108H226.488Z" fill="#262626"/>
<path d="M231.885 5.069V5.88806H228.675V1.06836H229.589V5.069H231.885Z" fill="#262626"/>
<path d="M232.6 1.06836H233.514V5.88806H232.6V1.06836Z" fill="#262626"/>
<path d="M235.426 1.88742V3.0237H237.817V3.80962H235.426V5.069H238.054V5.88806H234.513V1.06836H238.068V1.88742H235.426Z" fill="#262626"/>
<path d="M242.912 1.06836V5.88806H241.898L240.558 3.74334C240.255 3.26516 239.943 2.7633 239.697 2.29459C239.725 3.1468 239.725 3.91852 239.725 4.62869V5.88806H238.845V1.06836H239.858L241.207 3.21308C241.477 3.65339 241.818 4.20732 242.059 4.66183C242.04 3.80962 242.031 3.0379 242.031 2.32773V1.06836H242.912Z" fill="#262626"/>
<path d="M249.412 2.64021C249.412 3.56817 248.815 4.20259 247.708 4.20259H246.5V5.88806H245.587V1.06836H247.703C248.815 1.06836 249.412 1.70751 249.412 2.64021ZM248.489 2.64021C248.489 2.13835 248.195 1.85428 247.665 1.85428H246.5V3.41666H247.665C248.2 3.4214 248.489 3.14206 248.489 2.64021Z" fill="#262626"/>
<path d="M251.097 1.88742V3.0237H253.488V3.80962H251.097V5.069H253.725V5.88806H250.184V1.06836H253.739V1.88742H251.097Z" fill="#262626"/>
<path d="M258.479 5.88806H257.537C257.447 5.74603 257.414 5.55191 257.409 5.31519L257.39 4.78493C257.362 4.16945 257.106 3.999 256.618 3.999H255.425V5.88806H254.511V1.06836H256.699C257.807 1.06836 258.398 1.61756 258.398 2.42716C258.398 2.98109 258.114 3.39299 257.594 3.57763C258.129 3.74808 258.271 4.10316 258.289 4.60502L258.332 5.32466C258.337 5.53771 258.384 5.74603 258.479 5.88806ZM256.647 3.2841C257.139 3.2841 257.456 3.02843 257.456 2.53131C257.456 2.05787 257.139 1.82114 256.609 1.82114H255.425V3.2841H256.647Z" fill="#262626"/>
<path d="M260.141 1.88742V3.0237H262.408V3.80962H260.141V5.88806H259.227V1.06836H262.631V1.88742H260.141Z" fill="#262626"/>
<path d="M263.086 3.48359C263.086 1.96855 264.047 0.964844 265.496 0.964844C266.94 0.964844 267.901 1.96855 267.901 3.48359C267.901 4.99862 266.94 6.00233 265.496 6.00233C264.047 5.9976 263.086 4.99862 263.086 3.48359ZM266.949 3.48359C266.949 2.42306 266.376 1.76971 265.496 1.76971C264.615 1.76971 264.042 2.41833 264.042 3.48359C264.042 4.54411 264.615 5.19747 265.496 5.19747C266.376 5.19274 266.949 4.54411 266.949 3.48359Z" fill="#262626"/>
<path d="M272.668 5.88806H271.726C271.636 5.74603 271.603 5.55191 271.598 5.31519L271.579 4.78493C271.551 4.16945 271.295 3.999 270.807 3.999H269.614V5.88806H268.7V1.06836H270.888C271.996 1.06836 272.587 1.61756 272.587 2.42716C272.587 2.98109 272.303 3.39299 271.783 3.57763C272.318 3.74808 272.46 4.10316 272.479 4.60502L272.521 5.32466C272.526 5.53771 272.573 5.74603 272.668 5.88806ZM270.831 3.2841C271.323 3.2841 271.641 3.02843 271.641 2.53131C271.641 2.05787 271.323 1.82114 270.793 1.82114H269.609V3.2841H270.831Z" fill="#262626"/>
<path d="M278.543 1.06836V5.88806H277.667V4.42037C277.667 3.69126 277.677 2.90534 277.696 2.02946C277.587 2.39401 277.478 2.72069 277.331 3.13733L276.356 5.88333H275.603L274.623 3.13733C274.481 2.72543 274.372 2.39875 274.263 2.03893C274.282 2.90534 274.292 3.69126 274.292 4.41564V5.88333H273.411V1.06836H274.737L275.57 3.41193C275.712 3.8475 275.863 4.32095 275.982 4.71864C276.105 4.29728 276.261 3.80016 276.408 3.36458L277.213 1.06836H278.543Z" fill="#262626"/>
<path d="M279.552 1.06836H280.465V5.88806H279.552V1.06836Z" fill="#262626"/>
<path d="M285.536 1.06836V5.88806H284.523L283.183 3.74334C282.88 3.26516 282.568 2.7633 282.322 2.29459C282.35 3.1468 282.35 3.91852 282.35 4.62869V5.88806H281.469V1.06836H282.483L283.832 3.21308C284.102 3.65339 284.443 4.20732 284.684 4.66183C284.665 3.80962 284.656 3.0379 284.656 2.32773V1.06836H285.536Z" fill="#262626"/>
<path d="M291 3.28835V5.88758H290.337L290.209 5.25316C289.868 5.73608 289.314 5.99647 288.637 5.99647C287.25 5.99647 286.336 4.99276 286.336 3.47773C286.336 1.96269 287.25 0.958984 288.718 0.958984C289.935 0.958984 290.782 1.63128 290.943 2.67287H290.001C289.864 2.10946 289.385 1.75911 288.723 1.75911C287.837 1.75911 287.288 2.4172 287.288 3.47773C287.288 4.53825 287.851 5.19635 288.756 5.19635C289.466 5.19635 290.058 4.72763 290.105 4.02693H288.846V3.28835H291Z" fill="#262626"/>
<path d="M217.866 9.25461C217.866 10.1826 217.27 10.817 216.162 10.817H214.955V12.5025H214.041V7.6875H216.157C217.27 7.6875 217.866 8.32192 217.866 9.25461ZM216.943 9.25461C216.943 8.75276 216.65 8.46869 216.119 8.46869H214.955V10.0311H216.119C216.654 10.0358 216.943 9.75647 216.943 9.25461Z" fill="#262626"/>
<path d="M218.553 10.688V7.68164H219.467V10.6928C219.467 11.4503 219.879 11.8101 220.57 11.8101C221.261 11.8101 221.673 11.4503 221.673 10.6928V7.68164H222.587V10.688C222.587 11.9427 221.81 12.6055 220.57 12.6055C219.358 12.6055 218.553 11.9427 218.553 10.688Z" fill="#262626"/>
<path d="M227.449 11.1247C227.449 11.9485 226.909 12.5072 225.768 12.5072H223.515V7.6875H225.692C226.805 7.6875 227.25 8.27458 227.25 8.93267C227.25 9.40612 227.004 9.76594 226.606 9.96952C227.179 10.1778 227.449 10.6466 227.449 11.1247ZM224.428 8.43555V9.69492H225.626C226.1 9.69492 226.346 9.44399 226.346 9.0463C226.346 8.68648 226.104 8.43555 225.626 8.43555H224.428ZM226.516 11.0821C226.516 10.6276 226.218 10.4098 225.726 10.4098H224.433V11.745H225.726C226.237 11.7497 226.516 11.5035 226.516 11.0821Z" fill="#262626"/>
<path d="M231.397 11.6881V12.5072H228.188V7.6875H229.101V11.6881H231.397Z" fill="#262626"/>
<path d="M232.108 7.6875H233.021V12.5072H232.108V7.6875Z" fill="#262626"/>
<path d="M233.821 10.0969C233.821 8.53922 234.763 7.57812 236.155 7.57812C237.225 7.57812 238.13 8.15573 238.343 9.34409H237.415C237.244 8.66706 236.742 8.37352 236.155 8.37352C235.294 8.37352 234.773 9.01741 234.773 10.0921C234.773 11.1763 235.294 11.8108 236.155 11.8108C236.771 11.8108 237.339 11.4462 237.448 10.6887H238.362C238.224 11.9623 237.259 12.6109 236.155 12.6109C234.782 12.6156 233.821 11.6498 233.821 10.0969Z" fill="#262626"/>
<path d="M240.587 10.9171H241.487C241.501 11.6746 242.007 11.8782 242.68 11.8782C243.309 11.8782 243.655 11.6367 243.655 11.1822C243.655 10.8034 243.404 10.633 242.665 10.4862L242.258 10.4057C241.326 10.2306 240.71 9.81866 240.71 8.94278C240.71 8.14265 241.34 7.58398 242.495 7.58398C243.849 7.58398 244.422 8.21841 244.46 9.12743H243.574C243.541 8.61137 243.276 8.32256 242.514 8.32256C241.932 8.32256 241.648 8.55455 241.648 8.91911C241.648 9.3026 241.87 9.48251 242.59 9.62928L243.011 9.70977C244.147 9.93229 244.607 10.3726 244.607 11.1396C244.607 12.0959 243.863 12.6215 242.656 12.6215C241.368 12.6167 240.597 12.0249 240.587 10.9171Z" fill="#262626"/>
<path d="M249.166 9.25461C249.166 10.1826 248.569 10.817 247.461 10.817H246.254V12.5025H245.34V7.6875H247.457C248.569 7.6875 249.166 8.32192 249.166 9.25461ZM248.247 9.25461C248.247 8.75276 247.954 8.46869 247.424 8.46869H246.259V10.0311H247.424C247.954 10.0358 248.247 9.75647 248.247 9.25461Z" fill="#262626"/>
<path d="M252.31 11.4408H250.198L249.824 12.5013H248.882L250.719 7.68164H251.789L253.659 12.5013H252.693L252.31 11.4408ZM252.03 10.6644L251.841 10.1436C251.671 9.70326 251.443 9.05937 251.244 8.49124C251.05 9.05937 250.818 9.70326 250.657 10.1436L250.473 10.6644H252.03Z" fill="#262626"/>
<path d="M253.758 10.0969C253.758 8.53922 254.701 7.57812 256.093 7.57812C257.163 7.57812 258.067 8.15573 258.28 9.34409H257.352C257.181 8.66706 256.68 8.37352 256.093 8.37352C255.231 8.37352 254.71 9.01741 254.71 10.0921C254.71 11.1763 255.231 11.8108 256.093 11.8108C256.708 11.8108 257.276 11.4462 257.385 10.6887H258.299C258.162 11.9623 257.196 12.6109 256.093 12.6109C254.72 12.6156 253.758 11.6498 253.758 10.0969Z" fill="#262626"/>
<path d="M259.998 8.50657V9.64284H262.389V10.4288H259.998V11.6881H262.626V12.5072H259.085V7.6875H262.64V8.50657H259.998Z" fill="#262626"/>
<path d="M214.955 15.1198V16.2561H217.222V17.042H214.955V19.1205H214.041V14.3008H217.445V15.1198H214.955Z" fill="#262626"/>
<path d="M219.064 15.1198V16.2561H221.455V17.042H219.064V18.3014H221.692V19.1205H218.151V14.3008H221.706V15.1198H219.064Z" fill="#262626"/>
<path d="M222.241 17.5303H223.141C223.155 18.2879 223.661 18.4914 224.334 18.4914C224.963 18.4914 225.309 18.2452 225.309 17.7955C225.309 17.4167 225.058 17.2463 224.319 17.0995L223.912 17.019C222.98 16.8438 222.364 16.4319 222.364 15.5561C222.364 14.7559 222.994 14.1973 224.149 14.1973C225.503 14.1973 226.076 14.8317 226.114 15.7407H225.228C225.195 15.2246 224.93 14.9358 224.168 14.9358C223.586 14.9358 223.301 15.1678 223.301 15.5324C223.301 15.9159 223.524 16.0958 224.244 16.2426L224.665 16.323C225.801 16.5456 226.261 16.9859 226.261 17.7529C226.261 18.7092 225.517 19.2348 224.31 19.2348C223.022 19.23 222.25 18.6382 222.241 17.5303Z" fill="#262626"/>
<path d="M230.47 15.1198H228.926V19.1205H228.008V15.1198H226.464V14.3008H230.47V15.1198Z" fill="#262626"/>
<path d="M231.142 14.3008H232.056V19.1205H231.142V14.3008Z" fill="#262626"/>
<path d="M237.226 14.3008L235.498 19.1205H234.428L232.662 14.3008H233.637L234.508 16.7911C234.664 17.2646 234.825 17.7806 234.967 18.2919C235.105 17.7759 235.266 17.2646 235.422 16.7911L236.274 14.3008H237.226Z" fill="#262626"/>
<path d="M240.175 18.0561H238.064L237.69 19.1166H236.748L238.585 14.2969H239.655L241.525 19.1166H240.559L240.175 18.0561ZM239.896 17.2796L239.707 16.7588C239.536 16.3185 239.309 15.6746 239.11 15.1065C238.916 15.6746 238.684 16.3185 238.523 16.7588L238.338 17.2796H239.896Z" fill="#262626"/>
<path d="M245.293 18.3014V19.1205H242.083V14.3008H242.997V18.3014H245.293Z" fill="#262626"/>
<path d="M8.07229 6.68116H6.24952L8.07229 7.22562C7.84977 7.68487 7.60358 8.13938 7.33845 8.58915C7.07332 9.03893 6.79872 9.47924 6.51938 9.91007V20.4538H3.9817V13.0727C3.65975 13.4089 3.34728 13.7261 3.03954 14.0243C2.7318 14.3226 2.41932 14.6019 2.09738 14.8529C1.98375 14.725 1.84171 14.583 1.66654 14.422C1.49136 14.2611 1.30672 14.0954 1.1126 13.9296C0.91849 13.7639 0.719641 13.5982 0.525528 13.4373C0.326679 13.281 0.156238 13.1485 0 13.0538C0.558669 12.675 1.10313 12.2347 1.6334 11.7329C2.16366 11.231 2.67025 10.696 3.15317 10.1279C3.63608 9.55972 4.08112 8.96791 4.48355 8.3477C4.89072 7.72748 5.24581 7.10253 5.55355 6.47284V4.70688H0.819065V2.25442H5.55828V0.431641H8.07229V2.25442H12.5985V0.431641H15.1551V2.25442H19.7901V4.70688H15.1551V6.71903H12.5985V4.70688H8.07229V6.68116ZM16.8548 17.7693C17.0773 17.7693 17.2572 17.7314 17.3898 17.6557C17.5223 17.5799 17.6312 17.4237 17.7164 17.1964C17.8017 16.9645 17.8632 16.6472 17.9058 16.2448C17.9484 15.8376 17.991 15.3026 18.0336 14.6304C18.313 14.8529 18.6823 15.0565 19.1368 15.2364C19.5913 15.4163 19.9937 15.5488 20.3441 15.6341C20.2731 16.5005 20.1736 17.2248 20.0411 17.8025C19.9085 18.3848 19.7191 18.8488 19.4729 19.1944C19.2267 19.5447 18.9143 19.7862 18.5308 19.9282C18.1473 20.0703 17.6691 20.1366 17.0962 20.1366H13.73C13.0861 20.1366 12.5511 20.0797 12.125 19.9708C11.6989 19.862 11.3628 19.6726 11.1213 19.4169C10.8751 19.1565 10.7047 18.8109 10.61 18.3706C10.5106 17.9303 10.4632 17.3764 10.4632 16.7041V6.82793H12.9772V11.0416C13.8578 10.6202 14.7053 10.1705 15.5244 9.68755C16.3434 9.20464 17.0489 8.74539 17.6501 8.31455L19.5581 10.2415C18.6065 10.8286 17.5555 11.3872 16.405 11.9175C15.2498 12.4478 14.1088 12.9401 12.9772 13.3852V16.6993C12.9772 16.936 12.9867 17.1254 13.0104 17.2675C13.034 17.4095 13.0814 17.5137 13.1571 17.5941C13.2329 17.6699 13.3418 17.722 13.4838 17.7409C13.6211 17.7598 13.8105 17.774 14.0519 17.774H16.8548V17.7693Z" fill="#262626"/>
<path d="M28.705 12.1735V16.1789C29.5004 17.4099 30.9397 18.0585 33.0228 18.1295C35.9724 18.2431 39.1919 18.2052 42.6859 18.0253C43.1215 17.9969 43.5097 17.9685 43.8601 17.9401C43.5523 18.584 43.3298 19.3178 43.1878 20.1416C39.5375 20.2789 36.1571 20.3026 33.0418 20.2032C30.9444 20.118 29.3915 19.6019 28.3878 18.6503C28.1795 18.442 27.9806 18.2242 27.8007 18.0017C26.8349 18.7971 25.817 19.5972 24.7422 20.3926L23.7385 18.1484C25.1068 17.3246 25.9827 16.7802 26.3614 16.515V14.1857H23.9942V12.1735H28.705ZM28.4541 10.3271L26.6928 11.7948C26.1626 11.0798 25.2536 10.2703 23.9658 9.36123L25.5992 8.02137C26.9296 8.87358 27.8812 9.64057 28.4541 10.3271ZM28.705 4.98184V3.66092H24.1788V1.58721H28.705V0.474609H31.2427V1.58721H36.1713V0.474609H38.709V1.58721H43.3203V3.66092H38.709V4.92029H37.388V5.48843H42.7759V7.18811H37.3833V7.96456H42.0799V14.0862H37.3833V14.9053H43.0647V16.7091H37.3833V17.7555H35.0161V16.7091H29.5619V14.9053H35.0113V14.0862H30.523V7.95983H35.0113V7.18337H29.8981V5.48369H35.0113V4.54153H36.1665V3.66092H31.2427V4.98184H28.705ZM24.8464 5.90506L26.5224 4.60308C27.6681 5.35586 28.5677 6.12758 29.2258 6.90877C29.2542 6.93718 29.2731 6.96558 29.2873 6.99399L27.5072 8.44274C26.9343 7.67576 26.0584 6.84249 24.8843 5.94767C24.8748 5.91926 24.8606 5.90506 24.8464 5.90506ZM32.8335 9.47013V10.3081H35.0161V9.47013H32.8335ZM32.8335 12.5712H35.0161V11.7095H32.8335V12.5712ZM39.6701 9.47013H37.3833V10.3081H39.6701V9.47013ZM39.6701 12.5712V11.7095H37.3833V12.5712H39.6701Z" fill="#262626"/>
<path d="M64.5779 7.85572L66.8836 8.27709C66.1403 11.2693 65.165 13.7265 63.9483 15.6581C64.2986 17.1258 64.6726 17.8691 65.0798 17.8786C65.3875 17.8786 65.5769 16.8323 65.6479 14.7349C65.6479 14.7207 65.6479 14.7065 65.6479 14.6923C66.2208 15.3362 66.8079 15.7765 67.4092 16.0132C67.215 18.0112 66.8268 19.2706 66.2539 19.7866C65.8894 20.0944 65.4017 20.2459 64.7863 20.2459C63.792 20.2174 62.9635 19.4221 62.2912 17.8549C61.439 18.835 60.4305 19.7203 59.2706 20.5157C58.8113 19.9286 58.2858 19.4126 57.6987 18.9628C57.6135 18.906 57.5425 18.8587 57.4904 18.816C59.0859 17.8644 60.4163 16.6571 61.4958 15.1894C60.9939 12.8553 60.6578 9.70216 60.4921 5.73467H56.2973V8.04036H60.1133C60.1133 8.05456 60.1039 8.34337 60.0944 8.90204C60.0376 12.7748 59.9145 15.0569 59.7156 15.7576C59.6588 15.9375 59.5973 16.0795 59.5262 16.1789C59.2185 16.6003 58.8208 16.8512 58.3332 16.9317C57.926 17.0169 57.3105 17.0453 56.4867 17.0169C56.4015 16.1789 56.2263 15.5066 55.9612 15.0048C55.554 17.3957 54.7539 19.2469 53.5513 20.5583C53.1868 20.0991 52.6612 19.6304 51.9795 19.1522C51.8659 19.0812 51.7759 19.0244 51.7049 18.9865C52.5287 18.0491 53.1016 16.9412 53.4235 15.6534C52.7133 15.9469 51.6433 16.3873 50.2183 16.9743C49.1435 17.4099 48.3671 17.7224 47.8889 17.9165L47.0698 15.3599C47.3918 15.2747 48.1303 15.0474 49.2903 14.6686V7.89833H47.4249V5.53109H49.2903V0.725587H51.6575V5.52635H53.3335V7.89359H51.6575V13.8259L53.3146 13.2388L53.6081 14.8107C53.8307 13.6933 53.9443 12.2683 53.9443 10.5354V3.41004H60.4211C60.3927 2.07018 60.3785 1.07594 60.3785 0.432049H62.7694C62.7552 1.43576 62.7552 2.43 62.7694 3.41004H64.4454C64.0382 2.76615 63.4937 2.08912 62.812 1.37895L64.5495 0.351562C65.5864 1.3316 66.2824 2.16013 66.6469 2.84663L65.7474 3.41477H66.9215V5.74414H62.812C62.9256 8.09244 63.0913 10.1614 63.3138 11.951C63.8252 10.81 64.2418 9.4465 64.5779 7.85572ZM57.997 10.0951H56.2973V10.5354C56.2973 12.1972 56.1932 13.6649 55.9849 14.9385C56.3636 14.9811 56.7518 15.0001 57.159 15.0001C57.3957 14.9858 57.5804 14.9006 57.7035 14.7491C57.855 14.484 57.9544 12.9453 57.997 10.1377C57.997 10.1235 57.997 10.1093 57.997 10.0951Z" fill="#262626"/>
<path d="M90.3673 5.6311H81.7932V7.89419H88.5635V15.1521C88.5635 16.2553 88.2747 16.9891 87.7065 17.3537C87.6213 17.4105 87.5314 17.4578 87.4319 17.5005C86.7454 17.7798 85.4766 17.9218 83.6159 17.9218C83.5023 17.1406 83.2182 16.3026 82.7543 15.4078C83.4692 15.4362 84.3593 15.4504 85.4387 15.4504C85.7323 15.4362 85.8885 15.3226 85.898 15.1143V10.3987H81.7884V20.5258H79.1277V10.3893H75.3732V17.9171H72.7929V7.89419H79.1229V5.6311H70.7808V3.1597H79.104V0.371094H81.831V3.1597H90.3626V5.6311H90.3673Z" fill="#262626"/>
<path d="M104.963 4.68853H102.89C102.681 6.64387 102.141 8.11156 101.275 9.0916C100.2 10.28 98.3965 11.1464 95.8683 11.6908C95.6458 11.0611 95.2386 10.4125 94.6515 9.74022C94.5947 9.66921 94.5379 9.60766 94.4858 9.55085C96.9478 9.12001 98.567 8.39563 99.3481 7.39192C99.8074 6.77644 100.115 5.87689 100.271 4.68853H97.3171V7.1836H94.803V2.38284H102.558V0.451172H105.181V2.37811H113.149V6.82378H110.507V4.68853H107.487V8.08316C107.487 8.44771 107.577 8.65603 107.761 8.71284C107.889 8.74125 108.06 8.75545 108.287 8.75545H110.195C110.503 8.75545 110.697 8.62762 110.782 8.37669C110.839 8.15417 110.886 7.75648 110.929 7.1836C111.459 7.56236 112.188 7.8559 113.111 8.06422C112.955 9.41828 112.581 10.2658 111.98 10.6019C111.615 10.8102 111.104 10.9191 110.451 10.9191H107.894C106.578 10.9191 105.74 10.654 105.38 10.1237C105.115 9.71655 104.982 9.04899 104.982 8.11156V4.68853H104.963ZM105.172 17.6042H113.348V19.9099H94.5616V17.6042H102.549V14.3942H96.8057V12.1075H111.502V14.3942H105.172V17.6042Z" fill="#262626"/>
<path d="M126.562 9.00568H120.88V20.4963H118.343V1.26953H126.562V9.00568ZM124.171 3.11598H120.88V4.24752H124.171V3.11598ZM120.88 7.1829H124.171V5.96614H120.88V7.1829ZM136.457 1.26953V17.4757C136.457 18.6498 136.192 19.431 135.662 19.824C135.548 19.895 135.439 19.9565 135.325 20.0133C134.573 20.3353 133.261 20.4963 131.405 20.4963C131.348 20.0228 131.159 19.3553 130.837 18.503H125.511V19.592H123.186V10.3077H131.467V17.916C132.418 17.9444 133.053 17.9444 133.375 17.916C133.697 17.8592 133.862 17.7077 133.877 17.4567V9.04829H128.048V1.26953H136.457ZM129.052 12.192H125.511V13.4703H129.052V12.192ZM125.511 16.6377H129.052V15.2978H125.511V16.6377ZM133.877 3.11598H130.482V4.24752H133.877V3.11598ZM130.482 7.22551H133.877V5.96614H130.482V7.22551Z" fill="#262626"/>
<path d="M158.596 11.4399H158.87C158.984 11.4257 159.06 11.4068 159.102 11.3784C159.173 11.3073 159.23 11.1748 159.273 10.9807C159.301 10.7865 159.33 10.2942 159.358 9.51297C159.751 9.84912 160.206 10.1 160.722 10.2658C160.693 11.2458 160.617 11.8944 160.49 12.2164C160.348 12.5667 160.149 12.8176 159.879 12.9691C159.656 13.1112 159.334 13.1775 158.913 13.1775H158.056C157.512 13.1633 157.086 13.0118 156.778 12.7182C156.498 12.4247 156.352 11.8518 156.337 10.9996C156.337 10.9002 156.337 10.8055 156.337 10.7061V10.5404L155.414 11.7761C154.955 11.3831 154.548 11.0753 154.197 10.8528C153.596 11.8991 152.716 12.8082 151.556 13.5799C151.376 13.3716 151.087 13.0922 150.694 12.7419V12.9739C147.938 13.168 144.852 13.3526 141.429 13.5183L141.301 12.0933C141.552 12.0791 141.949 12.0649 142.494 12.0507C143.597 12.008 144.449 11.9749 145.05 11.9465V11.2363H142.286V9.97695H145.05V8.93063H146.684C146.627 8.73652 146.599 8.45718 146.599 8.09263V7.81329H145.131C144.88 8.6655 144.236 9.27151 143.204 9.63607C142.797 9.77337 142.328 9.89646 141.798 9.99115C141.642 9.58399 141.391 9.2289 141.045 8.92116C141.017 8.89275 140.998 8.87382 140.984 8.85961C142.323 8.69391 143.142 8.3767 143.436 7.91745C143.464 7.87484 143.483 7.8417 143.498 7.81329H141.443V6.51131H145.027V5.92423H142.404V4.66486H145.027V4.14407H147.167V4.6696H149.766V5.92897H147.167V6.51604H150.751V7.81803H148.109V8.09263C148.194 8.34355 148.289 8.48559 148.402 8.51399H149.198C149.392 8.51399 149.52 8.40037 149.577 8.17785C149.577 8.10683 149.586 8.03108 149.596 7.94586C149.861 8.11156 150.258 8.25833 150.789 8.38616C150.703 9.04426 150.434 9.42775 149.97 9.54138C149.813 9.56978 149.643 9.58399 149.444 9.58399H148.185C147.725 9.58399 147.38 9.54138 147.157 9.45616V9.98168H149.946V11.2411H147.157V11.8281C148.024 11.7997 149.203 11.7429 150.699 11.6624V11.8092C151.48 11.1937 152.067 10.5451 152.46 9.85859C151.731 9.45142 151.134 9.15788 150.656 8.97797L151.745 7.61444C152.432 7.89378 152.891 8.08316 153.127 8.18258C153.184 7.91745 153.227 7.64285 153.255 7.36352H151.115V5.58335H153.317V4.26716H155.206V5.56915H158.35V10.6824C158.35 11.0753 158.364 11.2884 158.392 11.331C158.463 11.402 158.525 11.4399 158.596 11.4399ZM141.092 17.3107V15.824H160.319V17.3107H156.148C157.587 18.0777 158.733 18.8352 159.585 19.5737L157.824 20.6627C157.474 20.3123 157.062 19.9714 156.588 19.6353C151.906 19.9288 147.238 20.194 142.584 20.4307L142.333 18.7547C142.57 18.7547 142.939 18.7405 143.445 18.7121C144.184 18.6979 144.757 18.6837 145.164 18.6695C145.529 18.1392 145.808 17.6847 146.002 17.3059H141.092V17.3107ZM145.955 4.07779V3.38655H141.197V1.60639H145.955V0.451172H148.407V1.60639H153V0.451172H155.495V1.60639H160.338V3.38655H155.495V4.07779H153V3.38655H148.407V4.07779H145.955ZM143.796 13.684H157.843V15.1707H143.796V13.684ZM153.942 17.3107H148.473C148.279 17.59 147.948 18.0161 147.489 18.589C148.942 18.5322 151.257 18.4375 154.429 18.2954C153.719 17.9167 153.326 17.7131 153.255 17.6894L153.942 17.3107ZM156.333 7.34931H155.182C155.154 7.9648 155.064 8.5424 154.908 9.0916C155.452 9.39934 155.926 9.72129 156.333 10.0574V7.34931Z" fill="#262626"/>
<path d="M177.993 7.05577H175.038V20.4733H172.671V7.05577H170.029V6.36454C169.594 7.24515 169.168 8.00741 168.751 8.65129V20.497H166.403V11.795C165.674 12.5762 165.238 13.0402 165.082 13.1775C164.731 12.3679 164.315 11.634 163.822 10.9759C163.78 10.9049 163.737 10.8481 163.695 10.8102C165.247 9.50824 166.559 7.84643 167.638 5.82007C167.79 5.52654 167.932 5.24247 168.06 4.9584L170.029 5.60702V4.75008H172.671V0.451172H175.038V4.75008H177.993V7.05577ZM167.572 0.474844L169.859 1.29391C168.813 3.01253 167.477 4.57964 165.854 5.99052C165.645 6.15622 165.446 6.31719 165.266 6.47343C164.845 5.70645 164.414 5.06729 163.964 4.56544C165.181 3.64221 166.242 2.51067 167.151 1.17081C167.307 0.915151 167.449 0.683162 167.572 0.474844ZM170.067 12.0459V8.73178H171.786V12.0838C171.786 14.5978 171.435 16.4727 170.739 17.7036C170.64 17.8599 170.55 17.9972 170.465 18.125C170.048 17.6515 169.556 17.2633 168.997 16.9698C168.969 16.9556 168.95 16.9508 168.936 16.9508C169.693 15.8619 170.067 14.2285 170.067 12.0459ZM178.537 3.66115L176.795 4.43761C176.558 3.5712 176.089 2.54381 175.389 1.35546L177.069 0.664224C177.813 1.90466 178.3 2.90837 178.537 3.66115ZM177.784 15.2985H177.974C178.087 15.2843 178.168 15.2559 178.225 15.2133C178.267 15.1281 178.31 14.9624 178.353 14.7114C178.367 14.4321 178.386 13.7835 178.414 12.7608C178.693 12.9833 179.077 13.1869 179.569 13.3668C179.541 14.4274 179.484 15.2133 179.399 15.7151C179.285 16.0939 179.115 16.3732 178.873 16.5531C178.679 16.7189 178.39 16.8041 178.012 16.8041H177.32C176.833 16.7899 176.459 16.6431 176.208 16.3638C175.971 16.127 175.843 15.6299 175.829 14.8771C175.829 14.7398 175.829 14.5931 175.829 14.4368V8.73652H177.571V14.5457C177.571 14.9387 177.576 15.1517 177.59 15.1943C177.652 15.2606 177.713 15.2985 177.784 15.2985ZM184.133 7.51975V9.80651H182.604V17.8173C182.604 18.8494 182.396 19.5359 181.974 19.872C181.889 19.943 181.809 19.9998 181.723 20.0377C181.165 20.3313 180.171 20.478 178.746 20.478C178.674 19.7679 178.457 18.963 178.097 18.0682C178.613 18.0824 179.214 18.0871 179.901 18.0871C180.123 18.0587 180.242 17.9593 180.256 17.7936V9.80177H178.286V7.51502H184.133V7.51975ZM183.736 1.60639V3.85053H178.703V1.60639H183.736Z" fill="#262626"/>
<path d="M207.158 4.0399H203.574C203.796 4.36184 204 4.67432 204.18 4.97259C204.36 5.27086 204.506 5.5502 204.62 5.80112L202.901 6.49236H206.613V15.3411C206.613 15.9282 206.547 16.3969 206.414 16.7472C206.282 17.0976 206.007 17.3627 205.586 17.5426C205.193 17.7368 204.724 17.8551 204.17 17.8977C203.616 17.9403 202.944 17.9593 202.149 17.9593C202.106 17.6231 202.011 17.2302 201.864 16.7757C201.718 16.3211 201.566 15.9329 201.415 15.611C201.694 15.6252 201.978 15.6346 202.262 15.6441C202.546 15.6488 202.811 15.6536 203.048 15.6536C203.214 15.6536 203.361 15.6488 203.479 15.6441C203.597 15.6394 203.692 15.6346 203.763 15.6346C204.042 15.6346 204.184 15.521 204.184 15.2985V8.79805H200.851V20.2034H198.46V6.49236H202.338C202.182 6.1278 201.973 5.73011 201.708 5.29927C201.443 4.86843 201.164 4.44706 200.87 4.0399H200.009C199.393 4.96312 198.744 5.75851 198.058 6.43081C197.93 6.31718 197.783 6.19882 197.608 6.06152C197.433 5.92896 197.248 5.79639 197.054 5.66382C196.86 5.53126 196.666 5.40343 196.477 5.28507C196.287 5.1667 196.122 5.06728 195.984 4.98206C196.155 4.84476 196.325 4.69799 196.5 4.54175C196.675 4.39025 196.836 4.21981 196.993 4.0399H194.057C194.209 4.34764 194.356 4.64591 194.488 4.92998C194.621 5.21878 194.73 5.47918 194.815 5.7159L193.096 6.49236H197.182V14.1007H191.373V16.9745C191.832 16.9035 192.301 16.8325 192.765 16.7567C193.233 16.681 193.712 16.6052 194.199 16.5389C194.034 16.3022 193.858 16.0607 193.688 15.8146C193.513 15.5684 193.333 15.3411 193.153 15.1328L195.146 14.2096C195.454 14.5599 195.757 14.9339 196.06 15.3316C196.358 15.7293 196.642 16.1365 196.898 16.5484C197.158 16.9603 197.386 17.3675 197.589 17.7652C197.793 18.1629 197.954 18.5321 198.082 18.8683L195.984 19.9146C195.913 19.7063 195.828 19.4838 195.724 19.2565C195.62 19.0245 195.506 18.7783 195.378 18.5132C194.024 18.7499 192.703 18.9725 191.415 19.1713C190.128 19.3749 188.963 19.5643 187.912 19.7489L187.514 17.4858C187.973 17.4432 188.48 17.3817 189.025 17.2964V6.50183H192.651C192.538 6.13727 192.386 5.73958 192.192 5.30874C191.998 4.8779 191.78 4.45653 191.543 4.04937H191.335C190.719 4.98679 190.09 5.79639 189.451 6.48289C189.337 6.36926 189.195 6.2509 189.02 6.1278C188.845 6.00471 188.665 5.87688 188.475 5.74905C188.286 5.62121 188.097 5.50285 187.907 5.37976C187.718 5.26139 187.547 5.16197 187.396 5.07675C188.054 4.50388 188.669 3.78897 189.242 2.93676C189.815 2.08456 190.26 1.20394 190.582 0.294922L192.949 0.900936C192.878 1.12346 192.793 1.33651 192.699 1.54009C192.599 1.74367 192.495 1.94726 192.386 2.16031H197.187V3.83631C197.632 3.32026 198.034 2.76159 198.38 2.16031C198.73 1.55903 199.024 0.938811 199.26 0.294922L201.67 0.881998C201.571 1.10452 201.481 1.3223 201.396 1.53062C201.311 1.73894 201.216 1.94726 201.102 2.16031H207.162V4.0399H207.158ZM194.81 8.40036H191.373V9.34252H194.81V8.40036ZM194.81 12.1927V11.1653H191.373V12.1927H194.81Z" fill="#262626"/>
</svg>
