<svg width="160" height="21" viewBox="0 0 160 21" fill="none" xmlns="http://www.w3.org/2000/svg">
<path d="M4.46611 3.53468H3.45763L4.46611 3.83591C4.343 4.09 4.20679 4.34146 4.0601 4.59031C3.91341 4.83915 3.76148 5.08276 3.60694 5.32113V11.1546H2.20293V7.0709C2.02481 7.25688 1.85193 7.43238 1.68167 7.5974C1.5114 7.76242 1.33852 7.91697 1.1604 8.0558C1.09754 7.98507 1.01895 7.90649 0.922035 7.81743C0.825117 7.72837 0.722959 7.63669 0.615563 7.54501C0.508167 7.45333 0.398152 7.36165 0.290755 7.27259C0.18074 7.18615 0.0864408 7.11281 0 7.06042C0.309091 6.85087 0.610325 6.60726 0.903699 6.3296C1.19707 6.05194 1.47735 5.75595 1.74453 5.44162C2.01171 5.12729 2.25794 4.79986 2.48059 4.45672C2.70586 4.11357 2.90232 3.76781 3.07258 3.41943V2.44238H0.453159V1.08553H3.0752V0.0770499H4.46611V1.08553H6.97027V0.0770499H8.38476V1.08553H10.9492V2.44238H8.38476V3.55564H6.97027V2.44238H4.46611V3.53468ZM9.32513 9.66936C9.44824 9.66936 9.54778 9.6484 9.62112 9.60649C9.69447 9.56458 9.75471 9.47814 9.80186 9.35241C9.84901 9.22406 9.88307 9.04856 9.90664 8.82591C9.93022 8.60064 9.95379 8.30464 9.97737 7.93268C10.1319 8.0558 10.3362 8.16843 10.5877 8.26797C10.8392 8.36751 11.0618 8.44085 11.2556 8.488C11.2164 8.96735 11.1613 9.36813 11.088 9.68769C11.0147 10.0099 10.9099 10.2666 10.7737 10.4578C10.6375 10.6516 10.4646 10.7852 10.2524 10.8638C10.0402 10.9424 9.77567 10.9791 9.45872 10.9791H7.59631C7.24007 10.9791 6.94408 10.9476 6.70833 10.8874C6.47258 10.8271 6.2866 10.7224 6.15301 10.5809C6.0168 10.4368 5.92251 10.2456 5.87012 10.002C5.81511 9.75842 5.78892 9.45195 5.78892 9.07999V3.61588H7.17983V5.94717C7.66704 5.71404 8.13591 5.46519 8.58907 5.19801C9.04223 4.93083 9.43253 4.67675 9.76519 4.43838L10.8208 5.50448C10.2943 5.82929 9.7128 6.13838 9.07629 6.43176C8.43715 6.72513 7.80587 6.99755 7.17983 7.24378V9.07737C7.17983 9.20834 7.18506 9.31312 7.19816 9.3917C7.21126 9.47028 7.23745 9.52791 7.27936 9.57244C7.32127 9.61435 7.38152 9.64316 7.4601 9.65364C7.53607 9.66412 7.64084 9.67198 7.77443 9.67198H9.32513V9.66936Z" fill="#262626"/>
<path d="M15.8818 6.57219V8.78822C16.3218 9.46927 17.1181 9.82813 18.2707 9.86742C19.9026 9.93028 21.6838 9.90933 23.6169 9.80979C23.8579 9.79408 24.0727 9.77836 24.2665 9.76264C24.0963 10.1189 23.9731 10.5249 23.8946 10.9807C21.875 11.0566 20.0047 11.0697 18.2811 11.0147C17.1207 10.9676 16.2616 10.6821 15.7063 10.1556C15.591 10.0403 15.481 9.91981 15.3814 9.79669C14.8471 10.2368 14.2839 10.6794 13.6893 11.1195L13.134 9.8779C13.891 9.42212 14.3756 9.12088 14.5851 8.9742V7.68544H13.2754V6.57219H15.8818ZM15.7429 5.55062L14.7685 6.36264C14.4751 5.9671 13.9722 5.51918 13.2597 5.01626L14.1634 4.27496C14.8995 4.74646 15.426 5.1708 15.7429 5.55062ZM15.8818 2.59329V1.86248H13.3776V0.71517H15.8818V0.0996065H17.2858V0.71517H20.0126V0.0996065H21.4166V0.71517H23.9679V1.86248H21.4166V2.55924H20.6858V2.87357H23.6667V3.81394H20.6832V4.24353H23.2816V7.63044H20.6832V8.0836H23.8265V9.08159H20.6832V9.66049H19.3734V9.08159H16.3559V8.0836H19.3708V7.63044H16.8876V4.24091H19.3708V3.81132H16.5419V2.87095H19.3708V2.34969H20.01V1.86248H17.2858V2.59329H15.8818ZM13.7469 3.10408L14.6742 2.38374C15.3081 2.80023 15.8058 3.22719 16.1699 3.6594C16.1856 3.67511 16.1961 3.69083 16.2039 3.70655L15.219 4.50809C14.9021 4.08374 14.4175 3.62272 13.7679 3.12765C13.7626 3.11194 13.7548 3.10408 13.7469 3.10408ZM18.1659 5.0765V5.54014H19.3734V5.0765H18.1659ZM18.1659 6.79222H19.3734V6.31549H18.1659V6.79222ZM21.9483 5.0765H20.6832V5.54014H21.9483V5.0765ZM21.9483 6.79222V6.31549H20.6832V6.79222H21.9483Z" fill="#262626"/>
<path d="M35.7286 4.18349L37.0042 4.41662C36.593 6.07209 36.0534 7.43157 35.3802 8.50029C35.574 9.31231 35.781 9.72356 36.0062 9.7288C36.1765 9.7288 36.2813 9.14991 36.3206 7.98951C36.3206 7.98165 36.3206 7.97379 36.3206 7.96593C36.6375 8.32217 36.9623 8.56578 37.295 8.69675C37.1876 9.80215 36.9728 10.4989 36.6558 10.7844C36.4542 10.9547 36.1843 11.0385 35.8438 11.0385C35.2937 11.0228 34.8354 10.5827 34.4634 9.7157C33.9919 10.2579 33.434 10.7478 32.7922 11.1878C32.5381 10.863 32.2474 10.5775 31.9226 10.3286C31.8754 10.2972 31.8361 10.271 31.8073 10.2474C32.69 9.72094 33.4261 9.05299 34.0233 8.24097C33.7457 6.9496 33.5597 5.20507 33.468 3.00999H31.1472V4.28565H33.2585C33.2585 4.29351 33.2532 4.45329 33.248 4.76238C33.2165 6.90507 33.1484 8.16763 33.0384 8.5553C33.007 8.65484 32.9729 8.73342 32.9337 8.78843C32.7634 9.02156 32.5434 9.16039 32.2736 9.20492C32.0483 9.25207 31.7078 9.26778 31.252 9.25207C31.2048 8.78843 31.1079 8.41647 30.9612 8.13881C30.736 9.46162 30.2933 10.4858 29.6279 11.2114C29.4262 10.9573 29.1355 10.698 28.7583 10.4334C28.6954 10.3941 28.6457 10.3627 28.6064 10.3417C29.0621 9.8231 29.3791 9.21016 29.5572 8.49767C29.1643 8.66008 28.5723 8.90368 27.7839 9.22849C27.1893 9.46948 26.7597 9.64236 26.4951 9.74976L26.042 8.33527C26.2201 8.28812 26.6287 8.16239 27.2705 7.95284V4.20707H26.2384V2.89736H27.2705V0.238647H28.5802V2.89474H29.5075V4.20445H28.5802V7.48658L29.497 7.16177L29.6594 8.03142C29.7825 7.41324 29.8454 6.62479 29.8454 5.66608V1.72386H33.4287C33.413 0.982562 33.4051 0.432484 33.4051 0.0762434H34.728C34.7201 0.63156 34.7201 1.18164 34.728 1.72386H35.6552C35.43 1.36762 35.1287 0.99304 34.7515 0.600127L35.7129 0.0317133C36.2865 0.573933 36.6716 1.03233 36.8733 1.41215L36.3756 1.72648H37.0252V3.01523H34.7515C34.8144 4.31446 34.9061 5.45915 35.0292 6.44929C35.3121 5.81801 35.5426 5.06362 35.7286 4.18349ZM32.0876 5.42248H31.1472V5.66608C31.1472 6.5855 31.0896 7.39752 30.9743 8.10214C31.1839 8.12572 31.3987 8.1362 31.6239 8.1362C31.7549 8.12834 31.8571 8.08119 31.9252 7.99737C32.009 7.85068 32.064 6.99937 32.0876 5.44605C32.0876 5.43819 32.0876 5.43034 32.0876 5.42248Z" fill="#262626"/>
<path d="M49.9971 2.95216H45.2533V4.20424H48.9991V8.21981C48.9991 8.83014 48.8393 9.23615 48.525 9.43784C48.4778 9.46927 48.428 9.49547 48.373 9.51904C47.9932 9.67359 47.2912 9.75217 46.2618 9.75217C46.1989 9.31997 46.0417 8.85633 45.785 8.36126C46.1806 8.37698 46.673 8.38483 47.2703 8.38483C47.4327 8.37698 47.5191 8.31411 47.5243 8.19886V5.58992H45.2507V11.1929H43.7786V5.58468H41.7014V9.74955H40.2738V4.20424H43.776V2.95216H39.1605V1.58482H43.7655V0.0419866H45.2743V1.58482H49.9945V2.95216H49.9971Z" fill="#262626"/>
<path d="M56.9252 2.43059C56.81 3.51241 56.5114 4.32443 56.032 4.86664C55.4374 5.52412 54.4394 6.00347 53.0406 6.30471C52.9175 5.95632 52.6923 5.59746 52.3674 5.2255C52.336 5.18621 52.3046 5.15216 52.2758 5.12073C53.6379 4.88236 54.5337 4.48159 54.9659 3.92627C55.22 3.58575 55.3902 3.08806 55.4767 2.43059H53.8422V3.81102H52.4513V1.15493H56.7419V0.0862065H58.193V1.15231H62.6015V3.61194H61.1399V2.43059H59.4687V4.30871C59.4687 4.5104 59.5185 4.62566 59.6206 4.65709C59.6913 4.67281 59.7856 4.68067 59.9114 4.68067H60.967C61.1373 4.68067 61.2447 4.60994 61.2918 4.47111C61.3232 4.348 61.3494 4.12797 61.373 3.81102C61.6664 4.02057 62.0698 4.18298 62.5806 4.29823C62.4941 5.04738 62.2872 5.51626 61.9545 5.70224C61.7528 5.81749 61.4699 5.87774 61.1084 5.87774H59.694C58.9658 5.87774 58.5021 5.73105 58.303 5.43768C58.1564 5.21241 58.083 4.84307 58.083 4.32443V2.43059H56.9252ZM58.1878 9.57636H62.7115V10.852H52.3177V9.57636H56.7366V7.80039H53.5593V6.53521H61.69V7.80039H58.1878V9.57636Z" fill="#262626"/>
<path d="M70.022 4.8197H66.8787V11.177H65.4747V0.539572H70.022V4.8197ZM68.6992 1.56115H66.8787V2.18719H68.6992V1.56115ZM66.8787 3.81123H68.6992V3.13804H66.8787V3.81123ZM75.4966 0.539572V9.50584C75.4966 10.1555 75.3499 10.5877 75.0566 10.8051C74.9937 10.8444 74.9335 10.8784 74.8706 10.9098C74.4541 11.088 73.7285 11.177 72.7017 11.177C72.6703 10.9151 72.5655 10.5458 72.3874 10.0743H69.4405V10.6767H68.1544V5.54004H72.7358V9.74945C73.2623 9.76517 73.6133 9.76517 73.7914 9.74945C73.9695 9.71802 74.0612 9.63419 74.069 9.49537V4.84328H70.8445V0.539572H75.4966ZM71.3999 6.58257H69.4405V7.28981H71.3999V6.58257ZM69.4405 9.0422H71.3999V8.30091H69.4405V9.0422ZM74.069 1.56115H72.1909V2.18719H74.069V1.56115ZM72.1909 3.8348H74.069V3.13804H72.1909V3.8348Z" fill="#262626"/>
<path d="M87.7455 6.16588H87.8974C87.9603 6.15802 88.0022 6.14754 88.0258 6.13182C88.0651 6.09253 88.0965 6.01919 88.1201 5.91179C88.1358 5.8044 88.1515 5.53198 88.1672 5.09977C88.3846 5.28575 88.6361 5.42458 88.9216 5.51626C88.9059 6.05848 88.864 6.41734 88.7933 6.59546C88.7147 6.7893 88.6047 6.92813 88.4554 7.01195C88.3322 7.09053 88.1541 7.1272 87.921 7.1272H87.4469C87.1457 7.11935 86.9099 7.03552 86.7396 6.87312C86.5851 6.71072 86.5039 6.39377 86.496 5.92227C86.496 5.86726 86.496 5.81488 86.496 5.75987V5.66819L85.9853 6.35186C85.7312 6.13444 85.5059 5.96418 85.3121 5.84107C84.9794 6.41996 84.4922 6.92289 83.8504 7.34985C83.7509 7.2346 83.5911 7.08005 83.3737 6.88622V7.01457C81.8492 7.12196 80.1413 7.22412 78.2475 7.3158L78.1768 6.52736C78.3156 6.5195 78.5356 6.51164 78.8369 6.50378C79.4472 6.48021 79.9187 6.46187 80.2513 6.44616V6.05324H78.7216V5.35648H80.2513V4.77759H81.155C81.1236 4.67019 81.1079 4.51564 81.1079 4.31395V4.1594H80.2959C80.157 4.6309 79.8008 4.96618 79.2298 5.16788C79.0045 5.24384 78.7452 5.31195 78.4518 5.36434C78.3654 5.13907 78.2265 4.94261 78.0353 4.77235C78.0196 4.75663 78.0091 4.74615 78.0013 4.73829C78.7426 4.64661 79.1957 4.47111 79.3581 4.21703C79.3738 4.19346 79.3843 4.17512 79.3922 4.1594H78.2553V3.43906H80.2382V3.11425H78.7871V2.41749H80.2382V2.12935H81.4222V2.42011H82.8603V3.11687H81.4222V3.44168H83.4051V4.16202H81.9435V4.31395C81.9906 4.45278 82.043 4.53136 82.1059 4.54708H82.546C82.6533 4.54708 82.7241 4.48421 82.7555 4.3611C82.7555 4.32181 82.7607 4.2799 82.766 4.23275C82.9127 4.32443 83.1327 4.40563 83.4261 4.47635C83.3789 4.84045 83.2296 5.05262 82.9729 5.11549C82.8865 5.13121 82.7922 5.13907 82.6822 5.13907H81.9854C81.7313 5.13907 81.5401 5.11549 81.417 5.06834V5.3591H82.9598V6.05586H81.417V6.38067C81.8963 6.36495 82.5486 6.33352 83.3763 6.28899V6.37019C83.8085 6.02967 84.1333 5.67081 84.3507 5.29099C83.9473 5.06572 83.6173 4.90332 83.3527 4.80378L83.9552 4.04939C84.335 4.20393 84.5891 4.30871 84.7201 4.36372C84.7515 4.21703 84.7751 4.0651 84.7908 3.91056H83.6068V2.92566H84.8248V2.19746H85.87V2.9178H87.6093V5.74677C87.6093 5.96418 87.6171 6.08206 87.6329 6.10563C87.6721 6.14492 87.7062 6.16588 87.7455 6.16588ZM78.0615 9.41396V8.59146H88.699V9.41396H86.3913C87.1876 9.8383 87.8215 10.2574 88.293 10.666L87.3185 11.2685C87.1247 11.0747 86.8968 10.8861 86.6349 10.7001C84.0443 10.8625 81.4615 11.0092 78.8866 11.1402L78.7478 10.2129C78.8788 10.2129 79.0831 10.205 79.3634 10.1893C79.772 10.1814 80.0889 10.1736 80.3142 10.1657C80.5159 9.87236 80.6705 9.62089 80.7778 9.41134H78.0615V9.41396ZM80.7516 2.09268V1.71025H78.1191V0.725345H80.7516V0.0862065H82.1085V0.725345H84.6493V0.0862065H86.0298V0.725345H88.7094V1.71025H86.0298V2.09268H84.6493V1.71025H82.1085V2.09268H80.7516ZM79.5572 7.40748H87.329V8.22998H79.5572V7.40748ZM85.1706 9.41396H82.1452C82.0378 9.5685 81.8544 9.80425 81.6003 10.1212C82.4045 10.0898 83.6854 10.0374 85.4404 9.9588C85.0475 9.74924 84.8301 9.63661 84.7908 9.62351L85.1706 9.41396ZM86.4934 3.9027H85.8569C85.8412 4.24322 85.7914 4.56279 85.705 4.86665C86.0062 5.03691 86.2681 5.21503 86.4934 5.40101V3.9027Z" fill="#262626"/>
<path d="M98.4768 3.74029H96.8423V11.1637H95.5326V3.74029H94.071V3.35786C93.83 3.84507 93.5942 4.2668 93.3637 4.62304V11.1768H92.0645V6.36233C91.6611 6.79454 91.4201 7.05124 91.3337 7.1272C91.1398 6.67928 90.9093 6.27327 90.6369 5.90917C90.6133 5.86988 90.5898 5.83845 90.5662 5.81749C91.4254 5.09715 92.1509 4.17774 92.7482 3.05663C92.832 2.89422 92.9106 2.73706 92.9813 2.57989L94.071 2.93875V2.46464H95.5326V0.0862065H96.8423V2.46464H98.4768V3.74029ZM92.7115 0.0993036L93.9767 0.552463C93.3978 1.50331 92.6591 2.37034 91.7607 3.15093C91.6454 3.24261 91.5354 3.33167 91.4358 3.41811C91.2027 2.99376 90.9643 2.64014 90.7155 2.36248C91.3887 1.85169 91.9754 1.22565 92.4784 0.484358C92.5648 0.342909 92.6434 0.214558 92.7115 0.0993036ZM94.0919 6.50116V4.66757H95.0428V6.52212C95.0428 7.91303 94.8489 8.95032 94.4639 9.63137C94.4089 9.71781 94.3591 9.79377 94.312 9.8645C94.0814 9.60255 93.809 9.38776 93.4999 9.22536C93.4842 9.2175 93.4737 9.21488 93.4659 9.21488C93.885 8.61241 94.0919 7.70871 94.0919 6.50116ZM98.7781 1.86217L97.8141 2.29176C97.6832 1.8124 97.4238 1.24399 97.0362 0.586515L97.966 0.20408C98.3773 0.890368 98.6471 1.44568 98.7781 1.86217ZM98.3616 8.3007H98.4664C98.5292 8.29284 98.5738 8.27713 98.6052 8.25355C98.6288 8.2064 98.6523 8.11472 98.6759 7.97589C98.6838 7.82135 98.6942 7.46249 98.71 6.89669C98.8645 7.01981 99.0767 7.13244 99.3491 7.23198C99.3334 7.81873 99.302 8.25355 99.2548 8.53121C99.1919 8.74076 99.0976 8.89531 98.9641 8.99485C98.8567 9.08653 98.6969 9.13368 98.4873 9.13368H98.1049C97.8351 9.12582 97.6281 9.04462 97.4893 8.89007C97.3583 8.7591 97.2876 8.48406 97.2798 8.06757C97.2798 7.99161 97.2798 7.91041 97.2798 7.82397V4.67019H98.2437V7.88421C98.2437 8.10163 98.2463 8.2195 98.2542 8.24307C98.2882 8.27975 98.3223 8.3007 98.3616 8.3007ZM101.874 5.26218H101.028V9.69423C101.028 10.2653 100.913 10.6451 100.68 10.8311C100.633 10.8704 100.588 10.9018 100.541 10.9227C100.232 11.0851 99.6818 11.1663 98.8933 11.1663C98.854 10.7734 98.7335 10.3281 98.5345 9.83306C98.82 9.84092 99.1526 9.84354 99.5325 9.84354C99.6556 9.82782 99.7211 9.77282 99.7289 9.68114V5.25956H98.6392V3.99438H101.874V5.26218ZM101.654 0.725345V1.96695H98.8698V0.725345H101.654Z" fill="#262626"/>
<path d="M112.63 2.07196C112.753 2.25008 112.865 2.42296 112.965 2.58799C113.065 2.75301 113.146 2.90755 113.209 3.04638L112.258 3.42882H114.311V8.32451C114.311 8.64932 114.275 8.90864 114.201 9.10248C114.128 9.29632 113.976 9.44301 113.743 9.54254C113.526 9.64994 113.266 9.71543 112.96 9.739C112.653 9.76258 112.281 9.77305 111.841 9.77305C111.818 9.58707 111.765 9.36966 111.684 9.1182C111.603 8.86673 111.519 8.65194 111.435 8.47382C111.59 8.48168 111.747 8.48692 111.904 8.49216C112.061 8.49478 112.208 8.4974 112.339 8.4974C112.431 8.4974 112.512 8.49478 112.577 8.49216C112.643 8.48954 112.695 8.48692 112.735 8.48692C112.889 8.48692 112.968 8.42405 112.968 8.30094V4.70448H111.124V11.0147H109.801V3.42882H111.946C111.86 3.22712 111.744 3.00709 111.598 2.76873C111.451 2.53036 111.296 2.29723 111.134 2.07196H110.657C110.317 2.58275 109.958 3.02281 109.578 3.39477C109.507 3.3319 109.426 3.26642 109.329 3.19045C109.232 3.11711 109.13 3.04376 109.023 2.97042C108.915 2.89708 108.808 2.82635 108.703 2.76087C108.598 2.69538 108.507 2.64037 108.431 2.59322C108.525 2.51726 108.619 2.43606 108.716 2.34962C108.813 2.2658 108.902 2.1715 108.989 2.07196H107.365C107.449 2.24222 107.53 2.40725 107.603 2.56441C107.676 2.7242 107.737 2.86826 107.784 2.99923L106.833 3.42882H109.094V7.63823H105.88V9.22821C106.134 9.18892 106.393 9.14963 106.65 9.10772C106.909 9.06581 107.173 9.0239 107.443 8.98723C107.352 8.85626 107.255 8.72267 107.16 8.58646C107.063 8.45025 106.964 8.32451 106.864 8.20926L107.967 7.69847C108.137 7.89231 108.305 8.09924 108.473 8.31927C108.638 8.53931 108.795 8.76458 108.936 8.99247C109.08 9.22035 109.206 9.44562 109.319 9.66566C109.431 9.88569 109.521 10.09 109.591 10.276L108.431 10.8549C108.392 10.7396 108.344 10.6165 108.287 10.4908C108.229 10.3624 108.166 10.2262 108.096 10.0795C107.346 10.2105 106.616 10.3336 105.903 10.4436C105.191 10.5563 104.546 10.661 103.965 10.7632L103.745 9.51111C103.999 9.48754 104.279 9.45348 104.58 9.40633V3.43406H106.587C106.524 3.23236 106.44 3.01233 106.333 2.77396C106.225 2.5356 106.105 2.30247 105.974 2.0772H105.859C105.518 2.59584 105.17 3.04376 104.816 3.42358C104.753 3.36071 104.675 3.29523 104.578 3.22712C104.481 3.15902 104.381 3.0883 104.276 3.01757C104.172 2.94685 104.067 2.88136 103.962 2.81326C103.857 2.74777 103.763 2.69276 103.679 2.64561C104.043 2.32866 104.384 1.93313 104.701 1.46164C105.018 0.99014 105.264 0.502928 105.442 0L106.752 0.335286C106.712 0.458398 106.665 0.576272 106.613 0.688907C106.558 0.801542 106.5 0.914177 106.44 1.03205H109.096V1.95933C109.342 1.67381 109.565 1.36472 109.756 1.03205C109.95 0.699385 110.112 0.356241 110.243 0L111.577 0.324808C111.522 0.447921 111.472 0.568414 111.425 0.683668C111.378 0.798923 111.325 0.914177 111.262 1.03205H114.615V2.07196H112.63ZM107.781 4.48445H105.88V5.00571H107.781V4.48445ZM107.781 6.5826V6.01419H105.88V6.5826H107.781Z" fill="#262626"/>
<path d="M3.668 15.296V17.298H1.351V15.296H0.406V20.28H1.351V18.152H3.668V20.28H4.613V15.296H3.668Z" fill="#262626"/>
<path d="M7.43958 20.385C8.72058 20.385 9.52558 19.699 9.52558 18.404V15.296H8.58058V18.411C8.58058 19.195 8.15358 19.566 7.43958 19.566C6.72558 19.566 6.29858 19.195 6.29858 18.411V15.296H5.35358V18.404C5.35358 19.699 6.18658 20.385 7.43958 20.385Z" fill="#262626"/>
<path d="M13.519 20.28H14.52L12.588 15.296H11.482L9.58497 20.28H10.558L10.943 19.181H13.127L13.519 20.28ZM11.23 18.376L11.419 17.837C11.587 17.382 11.825 16.717 12.028 16.129C12.231 16.717 12.469 17.382 12.644 17.837L12.84 18.376H11.23Z" fill="#262626"/>
<path d="M15.8295 19.433V15.296H14.8845V20.28H18.2025V19.433H15.8295Z" fill="#262626"/>
<path d="M18.7195 20.28H19.6645V15.296H18.7195V20.28Z" fill="#262626"/>
<path d="M24.1581 16.143V15.296H20.4831V20.28H24.1441V19.433H21.4281V18.131H23.8991V17.319H21.4281V16.143H24.1581Z" fill="#262626"/>
<path d="M28.0389 15.296V16.598C28.0389 17.333 28.0459 18.131 28.0669 19.013C27.8149 18.544 27.4649 17.97 27.1849 17.515L25.7919 15.296H24.7419V20.28H25.6519V18.978C25.6519 18.243 25.6519 17.445 25.6239 16.563C25.8759 17.046 26.1979 17.564 26.5129 18.061L27.8989 20.28H28.9489V15.296H28.0389Z" fill="#262626"/>
<path d="M33.4681 15.296H31.2771V20.28H32.2221V18.537H33.4681C34.6161 18.537 35.2321 17.879 35.2321 16.92C35.2321 15.954 34.6161 15.296 33.4681 15.296ZM33.4261 17.725H32.2221V16.108H33.4261C33.9791 16.108 34.2801 16.402 34.2801 16.92C34.2801 17.438 33.9791 17.725 33.4261 17.725Z" fill="#262626"/>
<path d="M39.4912 16.143V15.296H35.8162V20.28H39.4772V19.433H36.7612V18.131H39.2322V17.319H36.7612V16.143H39.4912Z" fill="#262626"/>
<path d="M44.0229 19.699L43.9809 18.957C43.9599 18.439 43.8129 18.068 43.2599 17.893C43.7989 17.704 44.0929 17.277 44.0929 16.703C44.0929 15.863 43.4839 15.296 42.3359 15.296H40.0749V20.28H41.0199V18.327H42.2519C42.7559 18.327 43.0219 18.502 43.0499 19.139L43.0709 19.685C43.0779 19.93 43.1129 20.133 43.2039 20.28H44.1769C44.0789 20.133 44.0299 19.916 44.0229 19.699ZM41.0199 17.585V16.073H42.2449C42.7909 16.073 43.1199 16.318 43.1199 16.808C43.1199 17.319 42.7909 17.585 42.2799 17.585H41.0199Z" fill="#262626"/>
<path d="M48.2512 16.143V15.296H44.7302V20.28H45.6752V18.131H48.0202V17.319H45.6752V16.143H48.2512Z" fill="#262626"/>
<path d="M50.9976 20.392C52.4886 20.392 53.4826 19.356 53.4826 17.788C53.4826 16.22 52.4886 15.184 50.9976 15.184C49.4996 15.184 48.5056 16.22 48.5056 17.788C48.5056 19.356 49.4996 20.392 50.9976 20.392ZM50.9976 19.559C50.0876 19.559 49.4926 18.887 49.4926 17.788C49.4926 16.689 50.0876 16.017 50.9976 16.017C51.9076 16.017 52.5026 16.689 52.5026 17.788C52.5026 18.887 51.9076 19.559 50.9976 19.559Z" fill="#262626"/>
<path d="M58.0366 19.699L57.9946 18.957C57.9736 18.439 57.8266 18.068 57.2736 17.893C57.8126 17.704 58.1066 17.277 58.1066 16.703C58.1066 15.863 57.4976 15.296 56.3496 15.296H54.0886V20.28H55.0336V18.327H56.2656C56.7696 18.327 57.0356 18.502 57.0636 19.139L57.0846 19.685C57.0916 19.93 57.1266 20.133 57.2176 20.28H58.1906C58.0926 20.133 58.0436 19.916 58.0366 19.699ZM55.0336 17.585V16.073H56.2586C56.8046 16.073 57.1336 16.318 57.1336 16.808C57.1336 17.319 56.8046 17.585 56.2936 17.585H55.0336Z" fill="#262626"/>
<path d="M62.6779 15.296L61.8449 17.669C61.6909 18.117 61.5299 18.635 61.4039 19.069C61.2779 18.656 61.1239 18.166 60.9769 17.718L60.1159 15.296H58.7439V20.28H59.6539V18.761C59.6539 18.012 59.6469 17.2 59.6259 16.304C59.7379 16.675 59.8499 17.011 59.9969 17.438L61.0119 20.28H61.7889L62.7969 17.438C62.9509 17.004 63.0629 16.668 63.1749 16.29C63.1539 17.193 63.1469 18.005 63.1469 18.761V20.28H64.0499V15.296H62.6779Z" fill="#262626"/>
<path d="M64.8689 20.28H65.8139V15.296H64.8689V20.28Z" fill="#262626"/>
<path d="M69.9296 15.296V16.598C69.9296 17.333 69.9366 18.131 69.9576 19.013C69.7056 18.544 69.3556 17.97 69.0756 17.515L67.6826 15.296H66.6326V20.28H67.5426V18.978C67.5426 18.243 67.5426 17.445 67.5146 16.563C67.7666 17.046 68.0886 17.564 68.4036 18.061L69.7896 20.28H70.8396V15.296H69.9296Z" fill="#262626"/>
<path d="M74.044 17.592V18.355H75.346C75.297 19.083 74.688 19.566 73.953 19.566C73.015 19.566 72.434 18.887 72.434 17.788C72.434 16.689 73.001 16.01 73.918 16.01C74.604 16.01 75.101 16.374 75.241 16.955H76.214C76.046 15.877 75.171 15.184 73.911 15.184C72.392 15.184 71.447 16.22 71.447 17.788C71.447 19.356 72.392 20.392 73.827 20.392C74.527 20.392 75.101 20.119 75.451 19.622L75.584 20.28H76.27V17.592H74.044Z" fill="#262626"/>
<path d="M80.7113 15.296H78.5203V20.28H79.4653V18.537H80.7113C81.8593 18.537 82.4753 17.879 82.4753 16.92C82.4753 15.954 81.8593 15.296 80.7113 15.296ZM80.6693 17.725H79.4653V16.108H80.6693C81.2223 16.108 81.5233 16.402 81.5233 16.92C81.5233 17.438 81.2223 17.725 80.6693 17.725Z" fill="#262626"/>
<path d="M85.0548 20.385C86.3358 20.385 87.1408 19.699 87.1408 18.404V15.296H86.1958V18.411C86.1958 19.195 85.7688 19.566 85.0548 19.566C84.3408 19.566 83.9138 19.195 83.9138 18.411V15.296H82.9688V18.404C82.9688 19.699 83.8018 20.385 85.0548 20.385Z" fill="#262626"/>
<path d="M91.0845 17.655C91.4975 17.445 91.7495 17.074 91.7495 16.584C91.7495 15.905 91.2875 15.296 90.1395 15.296H87.8855V20.28H90.2165C91.3925 20.28 91.9525 19.706 91.9525 18.852C91.9525 18.355 91.6725 17.872 91.0845 17.655ZM90.0695 16.073C90.5595 16.073 90.8115 16.332 90.8115 16.703C90.8115 17.116 90.5595 17.375 90.0695 17.375H88.8305V16.073H90.0695ZM90.1675 19.496H88.8305V18.117H90.1675C90.6785 18.117 90.9865 18.341 90.9865 18.81C90.9865 19.244 90.6995 19.496 90.1675 19.496Z" fill="#262626"/>
<path d="M93.4447 19.433V15.296H92.4997V20.28H95.8177V19.433H93.4447Z" fill="#262626"/>
<path d="M96.3347 20.28H97.2797V15.296H96.3347V20.28Z" fill="#262626"/>
<path d="M100.303 20.392C101.444 20.392 102.445 19.72 102.585 18.404H101.64C101.528 19.188 100.94 19.566 100.303 19.566C99.4144 19.566 98.8754 18.908 98.8754 17.788C98.8754 16.675 99.4144 16.01 100.303 16.01C100.912 16.01 101.43 16.311 101.605 17.011H102.564C102.347 15.779 101.409 15.184 100.303 15.184C98.8614 15.184 97.8884 16.178 97.8884 17.788C97.8884 19.398 98.8824 20.392 100.303 20.392Z" fill="#262626"/>
<path d="M106.578 20.392C107.824 20.392 108.594 19.846 108.594 18.859C108.594 18.068 108.118 17.613 106.942 17.382L106.508 17.298C105.766 17.144 105.535 16.962 105.535 16.563C105.535 16.185 105.829 15.947 106.431 15.947C107.222 15.947 107.495 16.248 107.53 16.78H108.447C108.412 15.842 107.817 15.184 106.417 15.184C105.22 15.184 104.569 15.765 104.569 16.591C104.569 17.494 105.206 17.921 106.172 18.103L106.592 18.187C107.355 18.341 107.614 18.516 107.614 18.908C107.614 19.377 107.257 19.629 106.606 19.629C105.913 19.629 105.388 19.419 105.374 18.635H104.443C104.45 19.783 105.248 20.392 106.578 20.392Z" fill="#262626"/>
<path d="M111.329 15.296H109.138V20.28H110.083V18.537H111.329C112.477 18.537 113.093 17.879 113.093 16.92C113.093 15.954 112.477 15.296 111.329 15.296ZM111.287 17.725H110.083V16.108H111.287C111.84 16.108 112.141 16.402 112.141 16.92C112.141 17.438 111.84 17.725 111.287 17.725Z" fill="#262626"/>
<path d="M116.516 20.28H117.517L115.585 15.296H114.479L112.582 20.28H113.555L113.94 19.181H116.124L116.516 20.28ZM114.227 18.376L114.416 17.837C114.584 17.382 114.822 16.717 115.025 16.129C115.228 16.717 115.466 17.382 115.641 17.837L115.837 18.376H114.227Z" fill="#262626"/>
<path d="M119.82 20.392C120.961 20.392 121.962 19.72 122.102 18.404H121.157C121.045 19.188 120.457 19.566 119.82 19.566C118.931 19.566 118.392 18.908 118.392 17.788C118.392 16.675 118.931 16.01 119.82 16.01C120.429 16.01 120.947 16.311 121.122 17.011H122.081C121.864 15.779 120.926 15.184 119.82 15.184C118.378 15.184 117.405 16.178 117.405 17.788C117.405 19.398 118.399 20.392 119.82 20.392Z" fill="#262626"/>
<path d="M126.362 16.143V15.296H122.687V20.28H126.348V19.433H123.632V18.131H126.103V17.319H123.632V16.143H126.362Z" fill="#262626"/>
<path d="M131.978 16.143V15.296H128.457V20.28H129.402V18.131H131.747V17.319H129.402V16.143H131.978Z" fill="#262626"/>
<path d="M136.165 16.143V15.296H132.49V20.28H136.151V19.433H133.435V18.131H135.906V17.319H133.435V16.143H136.165Z" fill="#262626"/>
<path d="M138.639 20.392C139.885 20.392 140.655 19.846 140.655 18.859C140.655 18.068 140.179 17.613 139.003 17.382L138.569 17.298C137.827 17.144 137.596 16.962 137.596 16.563C137.596 16.185 137.89 15.947 138.492 15.947C139.283 15.947 139.556 16.248 139.591 16.78H140.508C140.473 15.842 139.878 15.184 138.478 15.184C137.281 15.184 136.63 15.765 136.63 16.591C136.63 17.494 137.267 17.921 138.233 18.103L138.653 18.187C139.416 18.341 139.675 18.516 139.675 18.908C139.675 19.377 139.318 19.629 138.667 19.629C137.974 19.629 137.449 19.419 137.435 18.635H136.504C136.511 19.783 137.309 20.392 138.639 20.392Z" fill="#262626"/>
<path d="M144.789 15.296H140.645V16.143H142.241V20.28H143.193V16.143H144.789V15.296Z" fill="#262626"/>
<path d="M145.266 20.28H146.211V15.296H145.266V20.28Z" fill="#262626"/>
<path d="M150.363 15.296L149.481 17.872C149.32 18.362 149.152 18.894 149.012 19.426C148.865 18.894 148.697 18.362 148.536 17.872L147.633 15.296H146.625L148.452 20.28H149.558L151.343 15.296H150.363Z" fill="#262626"/>
<path d="M154.558 20.28H155.559L153.627 15.296H152.521L150.624 20.28H151.597L151.982 19.181H154.166L154.558 20.28ZM152.269 18.376L152.458 17.837C152.626 17.382 152.864 16.717 153.067 16.129C153.27 16.717 153.508 17.382 153.683 17.837L153.879 18.376H152.269Z" fill="#262626"/>
<path d="M156.869 19.433V15.296H155.924V20.28H159.242V19.433H156.869Z" fill="#262626"/>
</svg>
