<svg width="19" height="19" viewBox="0 0 19 19" fill="none" xmlns="http://www.w3.org/2000/svg">
<rect width="19" height="19" rx="9.5" fill="#262626"/>
<path d="M9.41607 16.4571C13.3047 16.4571 16.4571 13.3047 16.4571 9.41607C16.4571 5.52739 13.3047 2.375 9.41607 2.375C5.52739 2.375 2.375 5.52739 2.375 9.41607C2.375 13.3047 5.52739 16.4571 9.41607 16.4571Z" stroke="white" stroke-miterlimit="10"/>
<path d="M9.41606 16.4571C11.6913 16.4571 13.5357 13.3047 13.5357 9.41607C13.5357 5.52739 11.6913 2.375 9.41606 2.375C7.14083 2.375 5.29639 5.52739 5.29639 9.41607C5.29639 13.3047 7.14083 16.4571 9.41606 16.4571Z" stroke="white" stroke-miterlimit="10"/>
<path d="M9.41602 2.375V16.4588" stroke="white" stroke-miterlimit="10"/>
<path d="M15.7918 12.4099H3.04199" stroke="white" stroke-miterlimit="10"/>
<path d="M15.7918 6.42358H3.04199" stroke="white" stroke-miterlimit="10"/>
<path d="M16.4588 9.41602H2.375" stroke="white" stroke-miterlimit="10"/>
</svg>
