<svg width="23" height="16" viewBox="0 0 23 16" fill="none" xmlns="http://www.w3.org/2000/svg">
<g clip-path="url(#clip0)">
<path d="M10.662 0.148315H13.3174C13.3676 0.148315 13.4178 0.164644 13.468 0.166683C15.0086 0.217654 16.5533 0.250234 18.0879 0.327711C18.8687 0.366016 19.6467 0.450479 20.4179 0.580576C20.9162 0.644115 21.3858 0.852158 21.7706 1.17979C22.1554 1.50742 22.4389 1.94069 22.5872 2.42774C22.7306 2.95364 22.8373 3.48917 22.9066 4.0303C22.9467 4.24846 22.9648 4.47273 22.9929 4.69293V11.3172C22.9929 11.362 22.9728 11.4068 22.9668 11.4517C22.8804 12.0634 22.8222 12.675 22.7077 13.2684C22.6087 13.8346 22.3394 14.3558 21.937 14.7606C21.5346 15.1654 21.0187 15.4339 20.46 15.5294C19.5793 15.6849 18.6883 15.7735 17.7946 15.7945C16.2279 15.8577 14.6611 15.9107 13.0944 15.9331C10.684 15.9678 8.29178 15.9189 5.89549 15.768C5.11367 15.724 4.33462 15.6389 3.56146 15.5131C3.05826 15.4477 2.58476 15.2348 2.1988 14.9006C1.81283 14.5664 1.53114 14.1253 1.38814 13.6312C1.22046 13.0727 1.11467 12.4969 1.07277 11.9145C0.976354 10.7891 0.900036 9.65754 0.881958 8.52802C0.867898 7.44539 0.92815 6.36068 0.976358 5.27805C1.00187 4.44557 1.10546 3.61748 1.28569 2.80495C1.57293 1.58163 2.31811 0.82522 3.52932 0.562208C4.40466 0.401717 5.29134 0.31307 6.18072 0.297148C7.49436 0.235982 8.80599 0.21154 10.1196 0.168724C10.3044 0.168724 10.4832 0.148315 10.662 0.148315ZM9.78821 4.66231V11.4313L15.5851 8.04683L9.78821 4.66231Z" fill="black"/>
</g>
<defs>
<clipPath id="clip0">
<rect width="22.113" height="15.795" fill="white" transform="translate(0.887085 0.148315)"/>
</clipPath>
</defs>
</svg>
