<svg width="20" height="20" viewBox="0 0 20 20" fill="none" xmlns="http://www.w3.org/2000/svg">
<path d="M9.85298 19.3463C9.2951 19.3463 8.75455 19.3463 8.21226 19.3463C6.69976 19.3463 5.18725 19.3463 3.67301 19.3463C1.84345 19.3463 0.393311 17.8938 0.393311 16.0621C0.393311 11.9243 0.393311 7.78834 0.393311 3.65059C0.393311 1.84834 1.85384 0.392334 3.65915 0.392334C7.80512 0.392334 11.9528 0.392334 16.0988 0.392334C17.8781 0.392334 19.3473 1.85526 19.3473 3.63155C19.3473 7.7866 19.3473 11.9434 19.3473 16.0985C19.3473 17.8869 17.8816 19.3463 16.0884 19.3463C15.0731 19.3463 14.0596 19.3463 13.0443 19.3463C12.9767 19.3463 12.9109 19.3463 12.8329 19.3463C12.8329 16.9554 12.8329 14.5819 12.8329 12.191C13.8794 12.191 14.9155 12.191 15.9671 12.191C15.9671 11.1314 15.9671 10.0909 15.9671 9.02793C14.9241 9.02793 13.8863 9.02793 12.8381 9.02793C12.8312 8.96041 12.8226 8.91366 12.8226 8.86692C12.8208 8.49296 12.8018 8.11901 12.8295 7.74852C12.8451 7.55288 12.9213 7.35032 13.0131 7.17546C13.1067 6.99714 13.2869 6.92097 13.5 6.9227C14.2467 6.92789 14.9934 6.92443 15.7419 6.92443C15.8095 6.92443 15.877 6.92443 15.9636 6.92443C15.9636 5.87182 15.9636 4.83132 15.9636 3.78736C15.9515 3.78044 15.9359 3.76312 15.9203 3.76312C15.0246 3.76312 14.1272 3.73542 13.2314 3.77697C12.1867 3.82545 11.3863 4.36214 10.7608 5.17065C10.1718 5.93414 9.87897 6.8067 9.86857 7.76929C9.86337 8.17787 9.86857 8.58818 9.86857 9.02273C9.09066 9.02273 8.33008 9.02273 7.5591 9.02273C7.5591 10.0857 7.5591 11.1228 7.5591 12.1771C8.32141 12.1771 9.07853 12.1771 9.85125 12.1771C9.85298 14.5715 9.85298 16.9485 9.85298 19.3463Z" fill="black"/>
</svg>
