<svg width="20" height="20" viewBox="0 0 20 20" fill="none" xmlns="http://www.w3.org/2000/svg">
<path d="M19.9509 9.84165C19.9509 11.2359 19.9997 12.6318 19.9387 14.0226C19.8517 16.014 19.0714 17.6496 17.2428 18.6497C16.4643 19.0751 15.6074 19.3025 14.7296 19.3112C11.8543 19.339 8.97544 19.3772 6.10182 19.3043C4.23832 19.2574 2.67612 18.49 1.66774 16.8353C1.15048 15.9863 0.903178 15.04 0.88402 14.0608C0.836998 11.6248 0.821324 9.18708 0.824807 6.75111C0.826549 5.70935 0.877056 4.66238 1.25324 3.67098C1.94813 1.84791 3.29438 0.776636 5.19968 0.445011C6.00603 0.304374 6.83851 0.260967 7.66054 0.257495C9.99427 0.25055 12.3297 0.240132 14.66 0.323473C16.6593 0.394659 18.2947 1.20376 19.2856 3.03377C19.7228 3.84113 19.9231 4.72315 19.9422 5.63122C19.9718 7.03412 19.9509 8.43875 19.9509 9.84165ZM18.3069 9.83817C18.2703 8.41618 18.2477 7.00286 18.1954 5.59128C18.1205 3.53208 16.776 2.11182 14.7157 2.06841C11.8421 2.00764 8.96499 2.0389 6.09137 2.06494C5.42957 2.07015 4.7817 2.26287 4.20871 2.62575C3.12545 3.31158 2.68308 4.36375 2.63606 5.57739C2.56814 7.32928 2.54898 9.08464 2.55421 10.84C2.55769 12.071 2.5664 13.3107 2.70224 14.5313C2.86421 15.9915 3.67579 17.0263 5.15266 17.3892C5.80923 17.5506 6.50065 17.6253 7.17812 17.627C9.66163 17.6375 12.1451 17.6236 14.6286 17.5732C16.729 17.5315 18.1257 16.1252 18.1989 14.0399C18.2477 12.6353 18.272 11.2324 18.3069 9.83817Z" fill="black"/>
<path d="M15.3547 9.80344C15.3582 12.5189 13.1377 14.7414 10.4173 14.7431C7.6935 14.7448 5.466 12.5242 5.46949 9.81385C5.47297 7.1105 7.68653 4.89677 10.393 4.88809C13.1168 4.87941 15.3513 7.09314 15.3547 9.80344ZM10.4139 6.62608C8.65485 6.62608 7.21282 8.06544 7.21282 9.82254C7.21282 11.5605 8.65485 13.0016 10.3964 13.0051C12.1607 13.0086 13.6097 11.5762 13.6114 9.82427C13.6132 8.06718 12.1711 6.62608 10.4139 6.62608Z" fill="black"/>
<path d="M15.5163 5.85016C14.8771 5.84842 14.3912 5.35012 14.3929 4.69728C14.3947 4.03924 14.898 3.55135 15.565 3.55656C16.2007 3.56177 16.6953 4.07049 16.6936 4.71291C16.6884 5.36921 16.1885 5.85189 15.5163 5.85016Z" fill="black"/>
</svg>
