<svg width="171" height="433" viewBox="0 0 171 433" fill="none" xmlns="http://www.w3.org/2000/svg">
<path d="M105.598 31.6525C105.598 50.3191 118.568 62.7635 138.199 62.7635C157.829 62.7635 170.8 50.3191 170.8 31.6525C170.8 12.8982 157.829 0.453827 138.199 0.453826C118.568 0.453826 105.598 12.8982 105.598 31.6525ZM116.027 31.6525C116.027 20.2597 124.44 12.8106 138.199 12.8106C151.958 12.8106 160.371 20.2597 160.371 31.6525C160.371 43.0453 151.958 50.4944 138.199 50.4944C124.44 50.4944 116.027 43.0453 116.027 31.6525ZM153.272 94.5387C153.272 88.1412 150.03 83.3212 145.735 80.4292L152.221 80.4292L152.221 69.7375L107 69.7375L107 80.7797L132.327 80.7797C140.39 80.7797 143.72 86.0379 143.72 90.858C143.72 96.4667 140.915 99.3587 135.131 99.3587L107 99.3587L107 110.401L136.972 110.401C147.751 110.401 153.272 104.003 153.272 94.5387ZM128.822 162.055C143.194 162.055 153.272 153.554 153.272 139.707C153.272 126.299 143.807 117.36 129.61 117.36C115.15 117.36 105.948 126.562 105.948 139.882C105.948 150.749 111.82 158.637 121.022 160.915L121.022 150.311C116.991 148.646 114.537 145.228 114.537 139.97C114.537 133.573 118.13 129.016 126.192 128.227L126.192 162.055L128.822 162.055ZM144.684 139.62C144.684 146.192 140.302 150.136 133.904 151.012L133.904 128.314C141.354 129.366 144.684 133.748 144.684 139.62ZM169.397 212.549L169.397 188.712L107 188.712L107 212.549C107 232.881 119.181 243.835 138.199 243.835C157.216 243.835 169.397 232.881 169.397 212.549ZM117.166 212.374L117.166 200.543L159.231 200.543L159.231 212.374C159.231 224.468 152.045 231.566 138.199 231.566C124.352 231.566 117.166 224.468 117.166 212.374ZM107 290.809C108.753 289.582 112.346 288.969 115.588 288.969L139.688 288.969C147.839 288.969 153.272 283.623 153.272 270.127C153.272 256.018 147.401 250.409 137.848 249.795L137.848 260.662C143.369 261.101 145.034 263.73 145.034 270.039C145.034 276.437 142.931 278.277 139.426 278.277C136.095 278.277 134.781 276.086 134.255 271.88L133.642 265.044C132.415 252.249 127.069 247.692 119.532 247.692C110.768 247.692 105.948 254.352 105.948 263.993C105.948 270.653 108.315 275.561 112.521 278.54C110.33 278.715 108.227 279.066 107 279.767L107 290.809ZM113.836 266.622C113.836 261.539 116.202 258.997 119.97 258.997C123.563 258.997 125.754 261.013 126.455 267.147L127.156 273.107C127.419 275.473 127.945 277.138 128.997 278.277L124.878 278.277C116.991 278.277 113.836 272.493 113.836 266.622ZM152.221 324.696L140.828 321.015C132.853 318.561 124.615 316.108 115.676 313.741C124.527 311.463 133.028 309.009 140.915 306.555L152.221 302.874L152.221 290.956L115.063 304.101C112.083 305.153 108.665 306.205 105.948 306.205C102.18 306.205 98.6745 304.189 98.6745 298.756L98.6745 294.549L89.9985 294.549C89.8232 295.951 89.7356 297.266 89.7356 299.369C89.7356 310.324 93.241 315.231 103.319 318.824L152.221 336.264L152.221 324.696ZM19 3.08292L19 14.9139L81.3973 14.9139L81.3974 3.08293L19 3.08292ZM65.2722 49.351C65.2722 42.9535 62.0296 38.1335 57.7354 35.2415L64.2206 35.2415L64.2206 24.5498L19 24.5498L19 35.592L44.327 35.592C52.3896 35.592 55.7198 40.8502 55.7198 45.6703C55.7198 51.279 52.9154 54.171 47.1314 54.171L19 54.171L19 65.2133L48.9718 65.2133C59.7511 65.2133 65.2722 58.8158 65.2722 49.351ZM70.7933 137.796L81.3973 137.796L81.3973 93.7151L19 93.715L19 105.546L45.9045 105.546L45.9045 134.904L56.0703 134.904L56.0703 105.546L70.7933 105.546L70.7933 137.796ZM40.8215 185.247C55.194 185.247 65.2722 176.747 65.2722 162.9C65.2722 149.492 55.8074 140.553 41.6103 140.553C27.1502 140.553 17.9484 149.755 17.9484 163.075C17.9484 173.942 23.82 181.83 33.0219 184.108L33.0219 173.504C28.9906 171.839 26.5368 168.421 26.5368 163.163C26.5368 156.766 30.1299 152.208 38.1924 151.42L38.1924 185.247L40.8215 185.247ZM56.6838 162.812C56.6838 169.385 52.302 173.329 45.9045 174.205L45.9045 151.507C53.3536 152.559 56.6838 156.941 56.6838 162.812ZM65.2722 217.179C65.2722 210.781 62.0296 205.961 57.7354 203.069L64.2205 203.069L64.2205 192.378L19 192.378L19 203.42L44.327 203.42C52.3896 203.42 55.7198 208.678 55.7198 213.498C55.7198 219.107 52.9154 221.999 47.1314 221.999L19 221.999L19 233.041L48.9718 233.041C59.7511 233.041 65.2722 226.644 65.2722 217.179ZM64.2205 274.616L57.9983 274.616C62.5554 271.637 65.2722 266.904 65.2722 260.332C65.2722 247.975 56.0703 240 42.2237 240C28.4648 240 19.1753 248.15 19.1753 260.419C19.1753 266.729 21.7167 271.286 25.9233 274.266L20.2269 274.266C13.1283 274.266 9.27231 270.41 9.27231 263.136C9.27231 257.089 11.7261 253.584 16.5462 253.058L16.5462 242.191C7.16903 242.892 0.77155 249.903 0.771549 262.961C0.771548 277.684 8.57122 285.308 20.4898 285.308L64.2205 285.308L64.2205 274.616ZM28.2895 262.873C28.2895 255.775 33.3724 251.305 42.1361 251.305C50.8998 251.305 56.158 255.775 56.158 262.873C56.158 270.059 51.2503 274.529 42.2237 274.529C33.2848 274.529 28.2895 270.059 28.2895 262.873ZM55.8074 317.795L64.2205 317.795L64.2205 308.856L77.366 308.856L77.366 297.902L64.2205 297.902L64.2205 290.891L55.8074 290.891L55.8074 297.902L30.2175 297.902C21.892 297.902 18.6494 302.459 18.6494 312.011C18.6494 313.764 18.8247 315.78 19 317.795L27.4131 317.795L27.4131 314.027C27.4131 310.346 28.3771 308.856 31.3568 308.856L55.8074 308.856L55.8074 317.795ZM70.0922 324.348L70.0922 335.215L80.4333 335.215L80.4333 324.348L70.0922 324.348ZM19 324.261L19 335.303L64.2205 335.303L64.2205 324.261L19 324.261ZM19 384.865C20.7527 383.638 24.3458 383.024 27.5884 383.024L51.6885 383.024C59.8387 383.024 65.2722 377.679 65.2722 364.183C65.2722 350.073 59.4005 344.464 49.8481 343.851L49.8481 354.718C55.3692 355.156 57.0343 357.785 57.0343 364.095C57.0343 370.492 54.931 372.333 51.4256 372.333C48.0954 372.333 46.7808 370.142 46.255 365.935L45.6416 359.1C44.4146 346.305 39.0688 341.748 31.532 341.748C22.7684 341.748 17.9483 348.408 17.9483 358.048C17.9483 364.708 20.3145 369.616 24.5211 372.596C22.3302 372.771 20.2269 373.121 19 373.823L19 384.865ZM25.8356 360.677C25.8356 355.594 28.2018 353.053 31.9702 353.053C35.5633 353.053 37.7542 355.068 38.4553 361.203L39.1564 367.162C39.4193 369.528 39.9452 371.193 40.9968 372.333L36.8779 372.333C28.9906 372.333 25.8356 366.549 25.8356 360.677ZM65.2722 416.244C65.2722 409.847 62.0296 405.027 57.7354 402.135L64.2205 402.135L64.2205 391.443L19 391.443L19 402.485L44.327 402.485C52.3896 402.485 55.7198 407.743 55.7198 412.563C55.7198 418.172 52.9154 421.064 47.1314 421.064L19 421.064L19 432.106L48.9717 432.106C59.7511 432.106 65.2722 425.709 65.2722 416.244Z" fill="#C8E6FA"/>
</svg>
