<svg width="192" height="82" viewBox="0 0 192 82" fill="none" xmlns="http://www.w3.org/2000/svg">
<path d="M4.82809 31.6708C13.7575 31.6708 19.7104 25.4663 19.7104 16.0758C19.7104 6.68531 13.7575 0.480864 4.82809 0.480863C-4.14319 0.480861 -10.0961 6.6853 -10.0961 16.0758C-10.0961 25.4663 -4.1432 31.6708 4.82809 31.6708ZM4.82809 26.682C-0.621757 26.682 -4.18512 22.6575 -4.18512 16.0758C-4.18511 9.49407 -0.621753 5.46957 4.82809 5.46957C10.2779 5.46957 13.8413 9.49407 13.8413 16.0758C13.8413 22.6575 10.2779 26.682 4.82809 26.682ZM34.9103 8.86525C31.85 8.86525 29.5443 10.4164 28.1609 12.4705L28.1609 9.36831L23.0464 9.36831L23.0464 31L28.3286 31L28.3286 18.8846C28.3286 15.0278 30.8439 13.4347 33.1496 13.4347C35.8326 13.4347 37.216 14.7762 37.216 17.5431L37.216 31L42.4982 31L42.4982 16.6627C42.4982 11.5063 39.4379 8.86525 34.9103 8.86525ZM67.2072 20.5615C67.2072 13.6863 63.1408 8.86525 56.5171 8.86525C50.1031 8.86525 45.827 13.3928 45.827 20.1842C45.827 27.1013 50.2288 31.5031 56.601 31.5031C61.7993 31.5031 65.5723 28.6943 66.6622 24.2925L61.5897 24.2925C60.7932 26.2209 59.1582 27.3947 56.6429 27.3947C53.5826 27.3947 51.4027 25.6759 51.0254 21.8191L67.2072 21.8191L67.2072 20.5615ZM56.4752 12.9736C59.6194 12.9736 61.5058 15.0697 61.9251 18.13L51.0673 18.13C51.5703 14.5666 53.6664 12.9736 56.4752 12.9736ZM91.3618 1.15163L79.959 1.15163L79.959 31L91.3618 31C101.088 31 106.328 25.1729 106.328 16.0758C106.328 6.97878 101.088 1.15163 91.3618 1.15163ZM91.2779 26.1371L85.6185 26.1371L85.6185 6.01457L91.2779 6.01457C97.0631 6.01457 100.459 9.45217 100.459 16.0758C100.459 22.6995 97.0631 26.1371 91.2779 26.1371ZM128.798 31C128.211 30.1616 127.918 28.4428 127.918 26.8917L127.918 15.3632C127.918 11.4644 125.361 8.86526 118.905 8.86526C112.155 8.86526 109.472 11.674 109.179 16.2435L114.377 16.2435C114.587 13.6024 115.844 12.8059 118.863 12.8059C121.923 12.8059 122.804 13.812 122.804 15.4889C122.804 17.082 121.755 17.7108 119.743 17.9623L116.473 18.2558C110.353 18.8427 108.173 21.3999 108.173 25.0052C108.173 29.1974 111.359 31.5031 115.97 31.5031C119.156 31.5031 121.504 30.3712 122.929 28.3589C123.013 29.407 123.181 30.4131 123.516 31L128.798 31ZM117.228 27.7301C114.796 27.7301 113.581 26.5982 113.581 24.7956C113.581 23.0768 114.545 22.0287 117.479 21.6934L120.33 21.358C121.462 21.2322 122.259 20.9807 122.804 20.4776L122.804 22.448C122.804 26.2209 120.037 27.7301 117.228 27.7301ZM145.008 9.36833L143.248 14.8182C142.074 18.6331 140.9 22.5737 139.768 26.8498C138.678 22.6156 137.504 18.5492 136.331 14.7763L134.57 9.36833L128.868 9.36833L135.157 27.1432C135.66 28.5686 136.163 30.2035 136.163 31.5031C136.163 33.3057 135.199 34.9826 132.599 34.9826L130.587 34.9826L130.587 39.1329C131.258 39.2167 131.887 39.2586 132.893 39.2586C138.133 39.2586 140.481 37.5818 142.2 32.7607L150.542 9.36833L145.008 9.36833ZM162.124 31L167.784 31L167.784 1.15164L162.124 1.15164L162.124 31ZM184.257 8.86528C181.197 8.86527 178.891 10.4164 177.508 12.4706L177.508 9.36834L172.393 9.36833L172.393 31L177.675 31L177.675 18.8846C177.675 15.0278 180.191 13.4348 182.496 13.4348C185.179 13.4348 186.563 14.7763 186.563 17.5431L186.563 31L191.845 31L191.845 16.6627C191.845 11.5064 188.785 8.86528 184.257 8.86528ZM51.0588 48.2242L51.0588 43.1516L29.972 43.1516L29.972 73L35.6315 73L35.6315 60.13L49.6753 60.13L49.6753 55.267L35.6315 55.267L35.6315 48.2242L51.0588 48.2242ZM73.7575 62.5615C73.7575 55.6863 69.6911 50.8653 63.0674 50.8653C56.6534 50.8653 52.3773 55.3928 52.3773 62.1842C52.3773 69.1013 56.7791 73.5031 63.1513 73.5031C68.3496 73.5031 72.1225 70.6943 73.2125 66.2925L68.14 66.2925C67.3435 68.2209 65.7085 69.3947 63.1932 69.3947C60.1329 69.3947 57.9529 67.6759 57.5757 63.8191L73.7575 63.8191L73.7575 62.5615ZM63.0255 54.9736C66.1696 54.9736 68.0561 57.0697 68.4753 60.13L57.6176 60.13C58.1206 56.5666 60.2167 54.9736 63.0255 54.9736ZM89.0321 50.8653C85.9718 50.8653 83.6661 52.4164 82.2827 54.4705L82.2827 51.3683L77.1682 51.3683L77.1682 73L82.4504 73L82.4504 60.8846C82.4504 57.0278 84.9657 55.4347 87.2714 55.4347C89.9544 55.4347 91.3378 56.7762 91.3378 59.5431L91.3378 73L96.62 73L96.62 58.6627C96.62 53.5063 93.5597 50.8653 89.0321 50.8653ZM116.508 51.3683L116.508 54.3448C115.083 52.1648 112.819 50.8653 109.675 50.8653C103.764 50.8653 99.9489 55.2671 99.9489 61.8907C99.9489 68.4725 103.848 72.9162 109.717 72.9162C112.735 72.9162 114.915 71.7004 116.34 69.6882L116.34 72.4131C116.34 75.8088 114.496 77.6534 111.016 77.6534C108.124 77.6534 106.447 76.4795 106.195 74.1738L100.997 74.1738C101.332 78.6595 104.686 81.7198 110.932 81.7198C117.975 81.7198 121.622 77.9887 121.622 72.2874L121.622 51.3683L116.508 51.3683ZM110.89 68.5563C107.495 68.5563 105.357 66.1248 105.357 61.9326C105.357 57.7405 107.495 55.2251 110.89 55.2251C114.328 55.2251 116.466 57.5728 116.466 61.8907C116.466 66.1668 114.328 68.5563 110.89 68.5563ZM137.163 55.3928L137.163 51.3683L132.887 51.3683L132.887 45.08L127.647 45.08L127.647 51.3683L124.293 51.3683L124.293 55.3928L127.647 55.3928L127.647 67.634C127.647 71.6166 129.827 73.1677 134.396 73.1677C135.235 73.1677 136.199 73.0839 137.163 73L137.163 68.9755L135.36 68.9755C133.6 68.9755 132.887 68.5144 132.887 67.089L132.887 55.3928L137.163 55.3928ZM140.298 48.5596L145.496 48.5596L145.496 43.6128L140.298 43.6128L140.298 48.5596ZM140.256 73L145.538 73L145.538 51.3683L140.256 51.3683L140.256 73ZM169.246 73C168.66 72.1616 168.366 70.4428 168.366 68.8917L168.366 57.3632C168.366 53.4644 165.809 50.8653 159.353 50.8653C152.603 50.8653 149.92 53.674 149.627 58.2435L154.825 58.2435C155.035 55.6024 156.293 54.8059 159.311 54.8059C162.371 54.8059 163.252 55.8121 163.252 57.4889C163.252 59.082 162.204 59.7108 160.191 59.9623L156.921 60.2558C150.801 60.8427 148.621 63.3999 148.621 67.0052C148.621 71.1974 151.807 73.5031 156.418 73.5031C159.604 73.5031 161.952 72.3712 163.377 70.359C163.461 71.407 163.629 72.4131 163.964 73L169.246 73ZM157.676 69.7301C155.244 69.7301 154.029 68.5982 154.029 66.7956C154.029 65.0768 154.993 64.0287 157.927 63.6934L160.778 63.358C161.91 63.2322 162.707 62.9807 163.252 62.4776L163.252 64.448C163.252 68.2209 160.485 69.7301 157.676 69.7301ZM184.257 50.8653C181.197 50.8653 178.891 52.4164 177.508 54.4706L177.508 51.3683L172.393 51.3683L172.393 73L177.675 73L177.675 60.8846C177.675 57.0278 180.191 55.4348 182.496 55.4348C185.179 55.4348 186.563 56.7763 186.563 59.5431L186.563 73L191.845 73L191.845 58.6627C191.845 53.5064 188.785 50.8653 184.257 50.8653Z" fill="#C8E6FA"/>
</svg>
