<svg width="212" height="64" viewBox="0 0 212 64" fill="none" xmlns="http://www.w3.org/2000/svg">
<path d="M97.2532 11.336H101.051V13.028H103.193V11.336H107.099V9.284H103.193V7.754H101.051V9.284H97.2532V7.754H95.1292V9.284H91.1512V11.336H95.1292V12.812C94.1212 14.936 92.3392 17.06 90.4672 18.356C90.9712 18.698 91.8352 19.454 92.2312 19.868C92.7532 19.436 93.2932 18.932 93.8152 18.374V24.566H95.9392V15.71C96.4252 14.99 96.8752 14.234 97.2532 13.46L95.7232 12.992H97.2532V11.336ZM102.275 22.316C101.483 22.316 101.375 22.208 101.375 21.416V18.626C103.247 17.888 105.317 16.952 106.901 15.98L105.299 14.36C104.291 15.098 102.851 15.962 101.375 16.664V13.118H99.2512V21.416C99.2512 23.648 99.8272 24.296 102.005 24.296H104.813C106.739 24.296 107.297 23.432 107.549 20.516C106.973 20.372 106.073 20.048 105.605 19.67C105.497 21.902 105.371 22.316 104.633 22.316H102.275ZM122.633 15.314V16.016H120.725V15.314H122.633ZM122.633 17.924H120.725V17.204H122.633V17.924ZM116.909 17.924V17.204H118.745V17.924H116.909ZM116.909 15.314H118.745V16.016H116.909V15.314ZM113.453 11.552H115.577V10.454H119.699V11.192H118.745V11.984H114.443V13.406H118.745V14.072H114.983V19.184H118.745V19.868H114.173V21.38H118.745V22.262H120.725V21.38H125.495V19.868H120.725V19.184H124.667V14.072H120.725V13.406H125.243V11.984H120.725V11.498H121.823V10.454H125.693V8.708H121.823V7.772H119.699V8.708H115.577V7.772H113.453V8.708H109.655V10.454H113.453V11.552ZM113.597 13.568C113.111 12.884 112.031 11.948 111.185 11.336L109.655 12.47C110.501 13.136 111.509 14.144 111.959 14.846L113.597 13.568ZM113.453 15.998H109.511V17.798H111.473V21.128C110.717 21.668 109.889 22.172 109.187 22.586L110.051 24.476C111.023 23.774 111.851 23.108 112.661 22.442C113.687 23.738 115.037 24.242 117.089 24.332C119.285 24.404 123.317 24.368 125.567 24.26C125.657 23.738 125.927 22.856 126.143 22.424C123.713 22.604 119.267 22.658 117.089 22.568C115.361 22.496 114.137 22.01 113.453 20.876V15.998ZM137.915 13.154C139.535 14.342 141.587 16.016 142.487 17.168L144.395 15.692C143.387 14.558 141.299 12.974 139.733 11.912H144.161V9.824H137.267V7.736H135.071V9.824H128.267V11.912H139.625L137.915 13.154ZM132.569 12.056C131.525 13.442 129.707 14.828 128.015 15.674C128.519 16.052 129.401 16.88 129.815 17.33C131.489 16.286 133.505 14.594 134.783 12.92L132.569 12.056ZM138.329 15.134C137.843 16.466 137.123 17.618 136.223 18.572C135.341 17.618 134.657 16.502 134.153 15.242L132.101 15.854C132.767 17.438 133.577 18.824 134.585 19.994C132.785 21.236 130.499 22.064 127.799 22.586C128.213 23.072 128.915 24.08 129.149 24.602C131.867 23.936 134.225 22.946 136.169 21.524C137.987 23 140.309 24.008 143.261 24.566C143.549 23.972 144.179 23.018 144.647 22.532C141.875 22.1 139.625 21.254 137.879 20.012C139.013 18.86 139.931 17.456 140.633 15.8L138.329 15.134ZM156.329 13.802V14.774H154.259V13.802H156.329ZM160.361 14.774H158.237V13.802H160.361V14.774ZM158.237 17.276V16.268H160.361V17.276H158.237ZM154.259 17.276V16.268H156.329V17.276H154.259ZM154.259 18.824H156.329V21.452H158.237V18.824H160.361V19.652C160.361 19.832 160.307 19.904 160.091 19.922C159.911 19.922 159.281 19.922 158.723 19.904C158.957 20.354 159.173 21.056 159.245 21.578C160.325 21.578 161.099 21.578 161.675 21.272C162.251 20.984 162.413 20.534 162.413 19.67V12.254H160.235C159.929 12.074 159.551 11.894 159.155 11.696C160.325 10.976 161.459 10.112 162.359 9.266L161.081 8.24L160.667 8.348H152.405V9.968H158.813C158.363 10.292 157.877 10.634 157.373 10.922C156.635 10.598 155.879 10.31 155.249 10.076L153.863 11.228C154.601 11.516 155.465 11.876 156.275 12.254H152.243V21.524H154.259V18.824ZM151.253 10.904C150.605 10.04 149.219 8.888 148.121 8.132L146.645 9.5C147.743 10.328 149.093 11.57 149.651 12.434L151.253 10.904ZM150.713 14.738H146.375V16.7H148.661V20.624C147.833 21.236 146.915 21.83 146.141 22.262L147.131 24.404C148.139 23.648 148.985 22.946 149.813 22.244C150.893 23.63 152.315 24.152 154.475 24.242C156.671 24.332 160.487 24.296 162.701 24.188C162.791 23.594 163.115 22.604 163.367 22.1C160.901 22.298 156.635 22.352 154.493 22.262C152.657 22.19 151.415 21.686 150.713 20.48V14.738ZM169.739 12.992C171.095 12.992 172.169 13.382 172.961 14.162C173.753 14.93 174.149 16.028 174.149 17.456V18.752H167.813C167.837 19.508 168.059 20.102 168.479 20.534C168.911 20.966 169.505 21.182 170.261 21.182C170.885 21.182 171.455 21.122 171.971 21.002C172.499 20.87 173.039 20.672 173.591 20.408V22.478C173.099 22.718 172.589 22.892 172.061 23C171.533 23.12 170.891 23.18 170.135 23.18C169.151 23.18 168.281 23 167.525 22.64C166.769 22.268 166.175 21.716 165.743 20.984C165.311 20.24 165.095 19.298 165.095 18.158C165.095 17.018 165.287 16.064 165.671 15.296C166.067 14.528 166.613 13.952 167.309 13.568C168.005 13.184 168.815 12.992 169.739 12.992ZM169.757 14.9C169.229 14.9 168.797 15.068 168.461 15.404C168.125 15.74 167.927 16.262 167.867 16.97H171.629C171.617 16.382 171.455 15.89 171.143 15.494C170.843 15.098 170.381 14.9 169.757 14.9ZM178.286 10.616C178.538 11.426 178.718 12.434 178.754 13.118L179.708 12.83C179.654 12.128 179.42 11.066 179.132 10.238L178.286 10.49V9.734H179.798V13.64H178.286V10.616ZM182.642 10.526L181.778 10.22C181.652 10.94 181.346 11.984 181.094 12.704V9.734H182.642V10.526ZM181.094 13.64V12.866L181.832 13.136C182.066 12.614 182.354 11.84 182.642 11.084V13.64H181.094ZM176.342 20.246C178.52 20.156 181.598 19.994 184.514 19.814L184.55 18.158C183.506 18.194 182.426 18.248 181.382 18.284V17.492H184.262V15.872H181.382V15.08H184.298V8.294H176.684V15.08H179.492V15.872H176.72V17.492H179.492V18.356C178.286 18.392 177.188 18.428 176.288 18.446L176.342 20.246ZM177.278 24.566C178.034 23.738 178.34 22.37 178.556 21.092L177.116 20.66C176.954 21.848 176.54 23.09 175.892 23.846L177.278 24.566ZM178.682 20.768C178.88 21.776 179.024 23.072 178.988 23.918L180.374 23.756C180.356 22.892 180.212 21.614 179.996 20.606L178.682 20.768ZM180.482 20.696C180.824 21.65 181.13 22.892 181.202 23.702L182.534 23.432C182.426 22.604 182.102 21.398 181.76 20.444L180.482 20.696ZM182.228 20.534C182.786 21.434 183.326 22.622 183.542 23.414L184.892 22.856C184.658 22.064 184.082 20.912 183.506 20.066L182.228 20.534ZM190.202 21.92H186.872V18.158H190.202V21.92ZM192.848 13.442V11.462H189.374V7.772H187.286V16.214H184.928V24.548H186.872V23.846H190.202V24.476H192.254V16.214H189.374V13.442H192.848ZM204.584 13.802V14.774H202.514V13.802H204.584ZM208.616 14.774H206.492V13.802H208.616V14.774ZM206.492 17.276V16.268H208.616V17.276H206.492ZM202.514 17.276V16.268H204.584V17.276H202.514ZM202.514 18.824H204.584V21.452H206.492V18.824H208.616V19.652C208.616 19.832 208.562 19.904 208.346 19.922C208.166 19.922 207.536 19.922 206.978 19.904C207.212 20.354 207.428 21.056 207.5 21.578C208.58 21.578 209.354 21.578 209.93 21.272C210.506 20.984 210.668 20.534 210.668 19.67V12.254H208.49C208.184 12.074 207.806 11.894 207.41 11.696C208.58 10.976 209.714 10.112 210.614 9.266L209.336 8.24L208.922 8.348H200.66V9.968H207.068C206.618 10.292 206.132 10.634 205.628 10.922C204.89 10.598 204.134 10.31 203.504 10.076L202.118 11.228C202.856 11.516 203.72 11.876 204.53 12.254H200.498V21.524H202.514V18.824ZM199.508 10.904C198.86 10.04 197.474 8.888 196.376 8.132L194.9 9.5C195.998 10.328 197.348 11.57 197.906 12.434L199.508 10.904ZM198.968 14.738H194.63V16.7H196.916V20.624C196.088 21.236 195.17 21.83 194.396 22.262L195.386 24.404C196.394 23.648 197.24 22.946 198.068 22.244C199.148 23.63 200.57 24.152 202.73 24.242C204.926 24.332 208.742 24.296 210.956 24.188C211.046 23.594 211.37 22.604 211.622 22.1C209.156 22.298 204.89 22.352 202.748 22.262C200.912 22.19 199.67 21.686 198.968 20.48V14.738Z" fill="#8C8C8C"/>
<path d="M106.155 42.94C105.651 42.22 104.553 41.122 103.671 40.384L102.681 41.05C103.563 41.824 104.607 42.958 105.093 43.714L106.155 42.94ZM97.6765 48.898L97.5145 47.674C96.7585 47.872 96.0025 48.106 95.2825 48.304V44.812H97.4785V43.552H95.2825V39.952H93.9865V43.552H91.4125V44.812H93.9865V48.664C92.9425 48.952 91.9705 49.222 91.1965 49.402L91.5925 50.698C92.3125 50.482 93.1225 50.266 93.9865 49.996V54.676C93.9865 54.928 93.8785 55.018 93.6265 55.018C93.4105 55.018 92.6365 55.036 91.7725 55C91.9525 55.36 92.1325 55.9 92.1865 56.242C93.4285 56.242 94.1665 56.206 94.6345 55.99C95.1025 55.792 95.2825 55.432 95.2825 54.676V49.6L97.6765 48.898ZM105.399 46.648C104.805 47.998 103.923 49.366 102.843 50.572C102.465 49.24 102.141 47.638 101.907 45.838L107.415 45.244L107.271 44.02L101.763 44.578C101.619 43.138 101.511 41.608 101.439 40.006H100.107C100.179 41.662 100.305 43.228 100.449 44.722L97.6945 45.01L97.8205 46.27L100.575 45.982C100.863 48.178 101.223 50.122 101.763 51.706C100.395 52.984 98.8105 54.064 97.1545 54.712C97.5325 54.982 97.9465 55.414 98.1985 55.756C99.6205 55.108 101.025 54.154 102.267 53.02C103.131 55 104.337 56.17 105.939 56.296C106.839 56.368 107.541 55.468 107.955 52.552C107.667 52.444 107.091 52.12 106.821 51.814C106.641 53.812 106.353 54.784 105.867 54.748C104.841 54.64 103.995 53.632 103.329 51.976C104.643 50.572 105.741 48.952 106.497 47.314L105.399 46.648ZM113.229 49.978V48.124H117.351V49.978H113.229ZM113.229 45.226H117.351V47.062H113.229V45.226ZM122.913 45.226V47.062H118.701V45.226H122.913ZM122.913 49.978H118.701V48.124H122.913V49.978ZM126.135 52.552H118.701V51.076H124.245V44.11H118.701V42.796H125.523V41.572H118.701V39.952H117.351V41.572H110.619V42.796H117.351V44.11H111.951V51.076H117.351V52.552H110.079V53.758H117.351V56.422H118.701V53.758H126.135V52.552ZM133.533 43.462V44.722H144.459V43.462H139.545V40.15H138.195V43.462H133.533ZM137.673 53.146C137.511 51.364 136.899 48.304 136.215 45.928L135.027 46.144C135.675 48.52 136.233 51.634 136.359 53.434L137.673 53.146ZM132.633 39.988C131.589 42.706 129.843 45.352 128.025 47.044C128.259 47.368 128.655 48.052 128.799 48.358C129.483 47.692 130.149 46.882 130.779 46.018V56.314H132.039V44.092C132.741 42.904 133.371 41.644 133.875 40.384L132.633 39.988ZM140.607 54.28C141.435 52.048 142.371 48.682 142.983 46.018L141.543 45.766C141.075 48.376 140.139 52.012 139.311 54.28H133.101V55.54H144.909V54.28H140.607ZM157.126 42.148L149.278 55H147.928L155.776 42.148H157.126ZM165.202 40.456C164.14 43.102 162.376 45.676 160.414 47.296C160.792 47.494 161.404 47.998 161.692 48.25C163.6 46.486 165.454 43.75 166.66 40.87L165.202 40.456ZM170.44 50.32C171.286 51.328 172.204 52.552 173.014 53.722C170.296 53.848 167.524 53.974 165.094 54.064C166.282 51.94 167.578 49.132 168.55 46.81L167.002 46.432C166.228 48.754 164.806 51.94 163.6 54.136C162.7 54.154 161.872 54.19 161.134 54.208L161.314 55.612C164.518 55.45 169.306 55.234 173.842 54.964C174.184 55.504 174.49 56.026 174.724 56.458L176.038 55.72C175.156 54.118 173.32 51.616 171.682 49.744L170.44 50.32ZM170.26 40.996C171.628 43.516 173.878 46.522 175.534 48.25C175.804 47.89 176.29 47.368 176.65 47.116C175.012 45.604 172.762 42.796 171.556 40.456L170.26 40.996ZM182.158 49.978V48.124H186.28V49.978H182.158ZM182.158 45.226H186.28V47.062H182.158V45.226ZM191.842 45.226V47.062H187.63V45.226H191.842ZM191.842 49.978H187.63V48.124H191.842V49.978ZM195.064 52.552H187.63V51.076H193.174V44.11H187.63V42.796H194.452V41.572H187.63V39.952H186.28V41.572H179.548V42.796H186.28V44.11H180.88V51.076H186.28V52.552H179.008V53.758H186.28V56.422H187.63V53.758H195.064V52.552Z" fill="#8C8C8C"/>
<path d="M29.891 2.00742C36.1841 2.00742 42.478 2.00742 48.7725 2.00742C49.7434 1.9914 50.712 2.10708 51.6519 2.35128C54.5095 3.13637 56.6959 4.81013 58.2185 7.34769C58.9713 8.59295 59.4481 9.98525 59.6167 11.4306C59.6813 11.946 59.7159 12.4647 59.7203 12.9842C59.7265 25.6016 59.7286 38.2189 59.7265 50.8363C59.7378 52.9429 59.1351 55.007 57.992 56.7765C56.849 58.546 55.2153 59.9442 53.2904 60.8001C52.3381 61.2412 51.3199 61.5232 50.2764 61.6349C49.684 61.6929 49.0864 61.7385 48.4908 61.7385C35.9238 61.7433 23.3569 61.7433 10.7899 61.7385C5.72823 61.7333 1.66295 58.2957 0.40867 53.8596C0.128516 52.848 -0.00884032 51.8021 0.000588521 50.7524C0.00542197 43.0755 0.00542197 35.399 0.000588521 27.7228C0.000588521 22.7429 0.000588521 17.7627 0.000588521 12.7822C-0.0140873 11.4166 0.245851 10.062 0.764963 8.79876C2.06896 5.67808 4.33827 3.58278 7.54284 2.50768C8.63583 2.15492 9.77927 1.98382 10.9276 2.0012C17.2484 2.00811 23.5695 2.01018 29.891 2.00742ZM29.8755 11.4844C29.2229 11.5165 28.6844 11.5362 28.1468 11.5704C27.5917 11.6067 27.0334 11.6346 26.4813 11.705C25.435 11.8351 24.3974 12.0278 23.3741 12.282C20.4264 13.0235 17.69 14.2281 15.226 16.0189C12.6594 17.8832 10.6128 20.194 9.27563 23.0951C8.4429 24.9068 7.98188 26.8671 7.91985 28.86C7.9011 29.6741 7.95169 30.4884 8.07107 31.294C8.2908 32.8793 8.76653 34.4184 9.47968 35.8512C10.591 38.1123 12.1674 40.0066 14.0918 41.6182C15.7828 43.024 17.6778 44.1643 19.7117 44.9999C21.702 45.8285 23.7906 46.3973 25.9262 46.6923C26.4921 46.7607 27.0387 46.9406 27.5347 47.2216C27.8754 47.4215 28.1126 47.7011 28.1437 48.104C28.19 48.5021 28.1998 48.9036 28.1727 49.3034C28.1012 49.9735 27.9656 50.6364 27.862 51.3034C27.8049 51.6012 27.7651 51.9021 27.7429 52.2045C27.718 52.857 28.095 53.1874 28.7393 53.1108C29.15 53.0585 29.5475 52.9307 29.9117 52.7338C30.7268 52.3071 31.5471 51.8866 32.3374 51.4163C35.4367 49.5702 38.4156 47.5291 41.2562 45.3055C43.3049 43.7042 45.2676 42.0056 46.9931 40.0501C47.8659 39.0812 48.6546 38.0396 49.3505 36.9367C50.6835 34.7782 51.453 32.4406 51.5835 29.902C51.6327 28.8933 51.5716 27.8823 51.4012 26.8869C50.993 24.4707 50.016 22.1862 48.5509 20.2219C46.7756 17.7993 44.5167 15.936 41.8911 14.5046C38.9475 12.8993 35.7875 11.9857 32.4658 11.6408C31.5668 11.5507 30.6647 11.531 29.8786 11.4844H29.8755Z" fill="#262626"/>
<path d="M33.9477 30.5357V25.2866C33.9477 25.1986 33.9477 25.1105 33.9477 25.0214C33.959 24.72 34.0999 24.5719 34.4034 24.5668C34.8536 24.5585 35.3045 24.5585 35.7561 24.5668C36.072 24.5719 36.1952 24.7045 36.2066 25.0183C36.2066 25.0971 36.2066 25.1758 36.2066 25.2545C36.2066 28.2132 36.2066 31.173 36.2066 34.1339C36.2066 34.6932 36.1641 34.8392 35.5147 34.8133C35.1915 34.7931 34.8674 34.7931 34.5442 34.8133C34.2335 34.8392 34.0357 34.7098 33.8596 34.4632C33.3511 33.7548 32.8239 33.0588 32.306 32.3586C31.5016 31.2711 30.6968 30.1843 29.8917 29.0981C29.8192 29.0008 29.7353 28.9117 29.6576 28.8185L29.5872 28.8402C29.5758 28.9604 29.5551 29.0805 29.5551 29.2007C29.5551 30.8578 29.5551 32.515 29.5551 34.1722C29.5582 34.2703 29.5561 34.3685 29.5489 34.4664C29.5282 34.6735 29.4132 34.7999 29.2102 34.804C28.6916 34.8144 28.1738 34.8144 27.6566 34.804C27.438 34.804 27.3231 34.6704 27.3034 34.4487C27.2951 34.3617 27.2982 34.2727 27.2982 34.1846C27.2982 31.181 27.3055 28.1856 27.292 25.1872C27.292 24.6268 27.5219 24.5419 27.9383 24.5595C28.2801 24.574 28.625 24.5771 28.9668 24.5595C29.0935 24.5479 29.2209 24.5716 29.3349 24.6279C29.449 24.6842 29.5452 24.7709 29.6131 24.8785C30.306 25.8283 31.0093 26.7708 31.7094 27.7154C32.3612 28.5965 33.0148 29.4786 33.6701 30.3617C33.725 30.4363 33.7892 30.5036 33.8493 30.574L33.9477 30.5357Z" fill="#262626"/>
<path d="M37.8195 29.6726V25.3805C37.8195 25.2914 37.8195 25.2034 37.8195 25.1153C37.8195 24.672 37.9314 24.5633 38.3788 24.5633H44.0806C44.1396 24.5596 44.1987 24.5596 44.2577 24.5633C44.5084 24.5923 44.6554 24.7331 44.6606 24.9848C44.6699 25.4644 44.671 25.9449 44.6606 26.4245C44.6544 26.7207 44.4856 26.8585 44.1521 26.8595C42.9478 26.8595 41.7426 26.8595 40.5363 26.8595C40.4586 26.8595 40.3799 26.8595 40.3012 26.8595C40.1562 26.8533 40.0816 26.9154 40.0826 27.0667C40.0826 27.4882 40.0826 27.9097 40.0826 28.3313C40.0826 28.5157 40.1241 28.5384 40.3157 28.555C40.3934 28.5602 40.4721 28.555 40.5508 28.555H44.1376C44.5332 28.555 44.6554 28.6834 44.6616 29.0843C44.6679 29.4851 44.6616 29.9129 44.6616 30.3199C44.6616 30.6907 44.5394 30.816 44.1676 30.8171C42.962 30.8222 41.7564 30.8171 40.5518 30.8171C40.0795 30.8171 40.0795 30.8171 40.0795 31.2832C40.0795 31.5939 40.0795 31.9108 40.0795 32.2246C40.0795 32.4908 40.1158 32.5219 40.3902 32.5354C40.4783 32.5354 40.5663 32.5354 40.6544 32.5354H43.977C44.0744 32.5354 44.1728 32.5354 44.2701 32.5405C44.5125 32.5602 44.6502 32.6669 44.6575 32.8999C44.672 33.4085 44.672 33.9191 44.6575 34.4277C44.6502 34.6607 44.4876 34.7881 44.2432 34.7995C44.1645 34.7995 44.0858 34.7995 44.0081 34.7995H38.4586C38.3799 34.7995 38.3012 34.7995 38.2235 34.7995C37.9542 34.786 37.8392 34.6711 37.8227 34.3966C37.8175 34.2992 37.8227 34.2008 37.8227 34.1035C37.8199 32.6293 37.8189 31.1523 37.8195 29.6726Z" fill="#262626"/>
<path d="M15.1838 29.6692C15.1838 28.1991 15.1838 26.7294 15.1838 25.26C15.1838 25.1627 15.1838 25.0643 15.1838 24.9669C15.1983 24.7277 15.3267 24.5733 15.566 24.5671C16.0652 24.5537 16.5655 24.5526 17.0647 24.5671C17.2978 24.5744 17.4262 24.737 17.4386 24.9752C17.4438 25.0788 17.4386 25.171 17.4386 25.2694V32.0586C17.4386 32.5392 17.4386 32.5392 17.9327 32.5403H21.3123C21.4107 32.5403 21.5091 32.5403 21.6064 32.5403C21.8913 32.5589 22.0145 32.6801 22.0207 32.9649C22.0259 33.4248 22.0269 33.8857 22.0207 34.3455C22.0207 34.6687 21.8768 34.8013 21.5464 34.8013C19.5867 34.8013 17.6271 34.8013 15.6675 34.8013C15.2905 34.8013 15.1807 34.6915 15.1807 34.3093C15.1773 32.764 15.1783 31.2173 15.1838 29.6692Z" fill="#262626"/>
<path d="M25.6942 29.6961C25.6942 31.1959 25.6942 32.6953 25.6942 34.1943C25.6942 34.7371 25.6237 34.8075 25.0872 34.8075C24.6854 34.8075 24.2835 34.8075 23.8816 34.8075C23.5709 34.8075 23.4373 34.6666 23.4238 34.3611C23.4238 34.2927 23.4238 34.2244 23.4238 34.1539V25.2165C23.4238 25.1482 23.4238 25.0788 23.4238 25.0094C23.4363 24.7401 23.5709 24.5744 23.8381 24.5671C24.328 24.5526 24.8179 24.5537 25.3078 24.5671C25.5575 24.5733 25.6703 24.707 25.6921 24.9617C25.7014 25.0653 25.6983 25.1772 25.6983 25.2849L25.6942 29.6961Z" fill="#262626"/>
<path d="M77 6L77 58" stroke="#8C8C8C" stroke-width="0.75"/>
</svg>
