<svg width="68" height="71" viewBox="0 0 68 71" fill="none" xmlns="http://www.w3.org/2000/svg">
<path d="M4.25179 41.52H6.36179V42.46H7.55179V41.52H9.72179V40.38H7.55179V39.53H6.36179V40.38H4.25179V39.53H3.07179V40.38H0.861794V41.52H3.07179V42.34C2.51179 43.52 1.52179 44.7 0.481794 45.42C0.761794 45.61 1.24179 46.03 1.46179 46.26C1.75179 46.02 2.05179 45.74 2.34179 45.43V48.87H3.52179V43.95C3.79179 43.55 4.04179 43.13 4.25179 42.7L3.40179 42.44H4.25179V41.52ZM7.04179 47.62C6.60179 47.62 6.54179 47.56 6.54179 47.12V45.57C7.58179 45.16 8.73179 44.64 9.61179 44.1L8.72179 43.2C8.16179 43.61 7.36179 44.09 6.54179 44.48V42.51H5.36179V47.12C5.36179 48.36 5.68179 48.72 6.89179 48.72H8.45179C9.52179 48.72 9.83179 48.24 9.97179 46.62C9.65179 46.54 9.15179 46.36 8.89179 46.15C8.83179 47.39 8.76179 47.62 8.35179 47.62H7.04179ZM18.3518 43.73V44.12H17.2918V43.73H18.3518ZM18.3518 45.18H17.2918V44.78H18.3518V45.18ZM15.1718 45.18V44.78H16.1918V45.18H15.1718ZM15.1718 43.73H16.1918V44.12H15.1718V43.73ZM13.2518 41.64H14.4318V41.03H16.7218V41.44H16.1918V41.88H13.8018V42.67H16.1918V43.04H14.1018V45.88H16.1918V46.26H13.6518V47.1H16.1918V47.59H17.2918V47.1H19.9418V46.26H17.2918V45.88H19.4818V43.04H17.2918V42.67H19.8018V41.88H17.2918V41.61H17.9018V41.03H20.0518V40.06H17.9018V39.54H16.7218V40.06H14.4318V39.54H13.2518V40.06H11.1418V41.03H13.2518V41.64ZM13.3318 42.76C13.0618 42.38 12.4618 41.86 11.9918 41.52L11.1418 42.15C11.6118 42.52 12.1718 43.08 12.4218 43.47L13.3318 42.76ZM13.2518 44.11H11.0618V45.11H12.1518V46.96C11.7318 47.26 11.2718 47.54 10.8818 47.77L11.3618 48.82C11.9018 48.43 12.3618 48.06 12.8118 47.69C13.3818 48.41 14.1318 48.69 15.2718 48.74C16.4918 48.78 18.7318 48.76 19.9818 48.7C20.0318 48.41 20.1818 47.92 20.3018 47.68C18.9518 47.78 16.4818 47.81 15.2718 47.76C14.3118 47.72 13.6318 47.45 13.2518 46.82V44.11ZM26.8418 42.53C27.7418 43.19 28.8818 44.12 29.3818 44.76L30.4418 43.94C29.8818 43.31 28.7218 42.43 27.8518 41.84H30.3118V40.68H26.4818V39.52H25.2618V40.68H21.4818V41.84H27.7918L26.8418 42.53ZM23.8718 41.92C23.2918 42.69 22.2818 43.46 21.3418 43.93C21.6218 44.14 22.1118 44.6 22.3418 44.85C23.2718 44.27 24.3918 43.33 25.1018 42.4L23.8718 41.92ZM27.0718 43.63C26.8018 44.37 26.4018 45.01 25.9018 45.54C25.4118 45.01 25.0318 44.39 24.7518 43.69L23.6118 44.03C23.9818 44.91 24.4318 45.68 24.9918 46.33C23.9918 47.02 22.7218 47.48 21.2218 47.77C21.4518 48.04 21.8418 48.6 21.9718 48.89C23.4818 48.52 24.7918 47.97 25.8718 47.18C26.8818 48 28.1718 48.56 29.8118 48.87C29.9718 48.54 30.3218 48.01 30.5818 47.74C29.0418 47.5 27.7918 47.03 26.8218 46.34C27.4518 45.7 27.9618 44.92 28.3518 44L27.0718 43.63ZM37.0718 42.89V43.43H35.9218V42.89H37.0718ZM39.3118 43.43H38.1318V42.89H39.3118V43.43ZM38.1318 44.82V44.26H39.3118V44.82H38.1318ZM35.9218 44.82V44.26H37.0718V44.82H35.9218ZM35.9218 45.68H37.0718V47.14H38.1318V45.68H39.3118V46.14C39.3118 46.24 39.2818 46.28 39.1618 46.29C39.0618 46.29 38.7118 46.29 38.4018 46.28C38.5318 46.53 38.6518 46.92 38.6918 47.21C39.2918 47.21 39.7218 47.21 40.0418 47.04C40.3618 46.88 40.4518 46.63 40.4518 46.15V42.03H39.2418C39.0718 41.93 38.8618 41.83 38.6418 41.72C39.2918 41.32 39.9218 40.84 40.4218 40.37L39.7118 39.8L39.4818 39.86H34.8918V40.76H38.4518C38.2018 40.94 37.9318 41.13 37.6518 41.29C37.2418 41.11 36.8218 40.95 36.4718 40.82L35.7018 41.46C36.1118 41.62 36.5918 41.82 37.0418 42.03H34.8018V47.18H35.9218V45.68ZM34.2518 41.28C33.8918 40.8 33.1218 40.16 32.5118 39.74L31.6918 40.5C32.3018 40.96 33.0518 41.65 33.3618 42.13L34.2518 41.28ZM33.9518 43.41H31.5418V44.5H32.8118V46.68C32.3518 47.02 31.8418 47.35 31.4118 47.59L31.9618 48.78C32.5218 48.36 32.9918 47.97 33.4518 47.58C34.0518 48.35 34.8418 48.64 36.0418 48.69C37.2618 48.74 39.3818 48.72 40.6118 48.66C40.6618 48.33 40.8418 47.78 40.9818 47.5C39.6118 47.61 37.2418 47.64 36.0518 47.59C35.0318 47.55 34.3418 47.27 33.9518 46.6V43.41ZM44.5218 42.44C45.2751 42.44 45.8718 42.6567 46.3118 43.09C46.7518 43.5167 46.9718 44.1267 46.9718 44.92V45.64H43.4518C43.4651 46.06 43.5885 46.39 43.8218 46.63C44.0618 46.87 44.3918 46.99 44.8118 46.99C45.1585 46.99 45.4751 46.9567 45.7618 46.89C46.0551 46.8167 46.3551 46.7067 46.6618 46.56V47.71C46.3885 47.8433 46.1051 47.94 45.8118 48C45.5185 48.0667 45.1618 48.1 44.7418 48.1C44.1951 48.1 43.7118 48 43.2918 47.8C42.8718 47.5933 42.5418 47.2867 42.3018 46.88C42.0618 46.4667 41.9418 45.9433 41.9418 45.31C41.9418 44.6767 42.0485 44.1467 42.2618 43.72C42.4818 43.2933 42.7851 42.9733 43.1718 42.76C43.5585 42.5467 44.0085 42.44 44.5218 42.44ZM44.5318 43.5C44.2385 43.5 43.9985 43.5933 43.8118 43.78C43.6251 43.9667 43.5151 44.2567 43.4818 44.65H45.5718C45.5651 44.3233 45.4751 44.05 45.3018 43.83C45.1351 43.61 44.8785 43.5 44.5318 43.5ZM49.27 41.12C49.41 41.57 49.51 42.13 49.53 42.51L50.06 42.35C50.03 41.96 49.9 41.37 49.74 40.91L49.27 41.05V40.63H50.11V42.8H49.27V41.12ZM51.69 41.07L51.21 40.9C51.14 41.3 50.97 41.88 50.83 42.28V40.63H51.69V41.07ZM50.83 42.8V42.37L51.24 42.52C51.37 42.23 51.53 41.8 51.69 41.38V42.8H50.83ZM48.19 46.47C49.4 46.42 51.11 46.33 52.73 46.23L52.75 45.31C52.17 45.33 51.57 45.36 50.99 45.38V44.94H52.59V44.04H50.99V43.6H52.61V39.83H48.38V43.6H49.94V44.04H48.4V44.94H49.94V45.42C49.27 45.44 48.66 45.46 48.16 45.47L48.19 46.47ZM48.71 48.87C49.13 48.41 49.3 47.65 49.42 46.94L48.62 46.7C48.53 47.36 48.3 48.05 47.94 48.47L48.71 48.87ZM49.49 46.76C49.6 47.32 49.68 48.04 49.66 48.51L50.43 48.42C50.42 47.94 50.34 47.23 50.22 46.67L49.49 46.76ZM50.49 46.72C50.68 47.25 50.85 47.94 50.89 48.39L51.63 48.24C51.57 47.78 51.39 47.11 51.2 46.58L50.49 46.72ZM51.46 46.63C51.77 47.13 52.07 47.79 52.19 48.23L52.94 47.92C52.81 47.48 52.49 46.84 52.17 46.37L51.46 46.63ZM55.89 47.4H54.04V45.31H55.89V47.4ZM57.36 42.69V41.59H55.43V39.54H54.27V44.23H52.96V48.86H54.04V48.47H55.89V48.82H57.03V44.23H55.43V42.69H57.36ZM63.88 42.89V43.43H62.73V42.89H63.88ZM66.12 43.43H64.94V42.89H66.12V43.43ZM64.94 44.82V44.26H66.12V44.82H64.94ZM62.73 44.82V44.26H63.88V44.82H62.73ZM62.73 45.68H63.88V47.14H64.94V45.68H66.12V46.14C66.12 46.24 66.09 46.28 65.97 46.29C65.87 46.29 65.52 46.29 65.21 46.28C65.34 46.53 65.46 46.92 65.5 47.21C66.1 47.21 66.53 47.21 66.85 47.04C67.17 46.88 67.26 46.63 67.26 46.15V42.03H66.05C65.88 41.93 65.67 41.83 65.45 41.72C66.1 41.32 66.73 40.84 67.23 40.37L66.52 39.8L66.29 39.86H61.7V40.76H65.26C65.01 40.94 64.74 41.13 64.46 41.29C64.05 41.11 63.63 40.95 63.28 40.82L62.51 41.46C62.92 41.62 63.4 41.82 63.85 42.03H61.61V47.18H62.73V45.68ZM61.06 41.28C60.7 40.8 59.93 40.16 59.32 39.74L58.5 40.5C59.11 40.96 59.86 41.65 60.17 42.13L61.06 41.28ZM60.76 43.41H58.35V44.5H59.62V46.68C59.16 47.02 58.65 47.35 58.22 47.59L58.77 48.78C59.33 48.36 59.8 47.97 60.26 47.58C60.86 48.35 61.65 48.64 62.85 48.69C64.07 48.74 66.19 48.72 67.42 48.66C67.47 48.33 67.65 47.78 67.79 47.5C66.42 47.61 64.05 47.64 62.86 47.59C61.84 47.55 61.15 47.27 60.76 46.6V43.41Z" fill="#8C8C8C"/>
<path d="M13.5859 59.3C13.3059 58.9 12.6959 58.29 12.2059 57.88L11.6559 58.25C12.1459 58.68 12.7259 59.31 12.9959 59.73L13.5859 59.3ZM8.87586 62.61L8.78586 61.93C8.36586 62.04 7.94586 62.17 7.54586 62.28V60.34H8.76586V59.64H7.54586V57.64H6.82586V59.64H5.39586V60.34H6.82586V62.48C6.24586 62.64 5.70586 62.79 5.27586 62.89L5.49586 63.61C5.89586 63.49 6.34586 63.37 6.82586 63.22V65.82C6.82586 65.96 6.76586 66.01 6.62586 66.01C6.50586 66.01 6.07586 66.02 5.59586 66C5.69586 66.2 5.79586 66.5 5.82586 66.69C6.51586 66.69 6.92586 66.67 7.18586 66.55C7.44586 66.44 7.54586 66.24 7.54586 65.82V63L8.87586 62.61ZM13.1659 61.36C12.8359 62.11 12.3459 62.87 11.7459 63.54C11.5359 62.8 11.3559 61.91 11.2259 60.91L14.2859 60.58L14.2059 59.9L11.1459 60.21C11.0659 59.41 11.0059 58.56 10.9659 57.67H10.2259C10.2659 58.59 10.3359 59.46 10.4159 60.29L8.88586 60.45L8.95586 61.15L10.4859 60.99C10.6459 62.21 10.8459 63.29 11.1459 64.17C10.3859 64.88 9.50586 65.48 8.58586 65.84C8.79586 65.99 9.02586 66.23 9.16586 66.42C9.95586 66.06 10.7359 65.53 11.4259 64.9C11.9059 66 12.5759 66.65 13.4659 66.72C13.9659 66.76 14.3559 66.26 14.5859 64.64C14.4259 64.58 14.1059 64.4 13.9559 64.23C13.8559 65.34 13.6959 65.88 13.4259 65.86C12.8559 65.8 12.3859 65.24 12.0159 64.32C12.7459 63.54 13.3559 62.64 13.7759 61.73L13.1659 61.36ZM17.5159 63.21V62.18H19.8059V63.21H17.5159ZM17.5159 60.57H19.8059V61.59H17.5159V60.57ZM22.8959 60.57V61.59H20.5559V60.57H22.8959ZM22.8959 63.21H20.5559V62.18H22.8959V63.21ZM24.6859 64.64H20.5559V63.82H23.6359V59.95H20.5559V59.22H24.3459V58.54H20.5559V57.64H19.8059V58.54H16.0659V59.22H19.8059V59.95H16.8059V63.82H19.8059V64.64H15.7659V65.31H19.8059V66.79H20.5559V65.31H24.6859V64.64ZM28.7959 59.59V60.29H34.8659V59.59H32.1359V57.75H31.3859V59.59H28.7959ZM31.0959 64.97C31.0059 63.98 30.6659 62.28 30.2859 60.96L29.6259 61.08C29.9859 62.4 30.2959 64.13 30.3659 65.13L31.0959 64.97ZM28.2959 57.66C27.7159 59.17 26.7459 60.64 25.7359 61.58C25.8659 61.76 26.0859 62.14 26.1659 62.31C26.5459 61.94 26.9159 61.49 27.2659 61.01V66.73H27.9659V59.94C28.3559 59.28 28.7059 58.58 28.9859 57.88L28.2959 57.66ZM32.7259 65.6C33.1859 64.36 33.7059 62.49 34.0459 61.01L33.2459 60.87C32.9859 62.32 32.4659 64.34 32.0059 65.6H28.5559V66.3H35.1159V65.6H32.7259ZM41.9035 58.86L37.5435 66H36.7935L41.1535 58.86H41.9035ZM46.39 57.92C45.8 59.39 44.82 60.82 43.73 61.72C43.94 61.83 44.28 62.11 44.44 62.25C45.5 61.27 46.53 59.75 47.2 58.15L46.39 57.92ZM49.3 63.4C49.77 63.96 50.28 64.64 50.73 65.29C49.22 65.36 47.68 65.43 46.33 65.48C46.99 64.3 47.71 62.74 48.25 61.45L47.39 61.24C46.96 62.53 46.17 64.3 45.5 65.52C45 65.53 44.54 65.55 44.13 65.56L44.23 66.34C46.01 66.25 48.67 66.13 51.19 65.98C51.38 66.28 51.55 66.57 51.68 66.81L52.41 66.4C51.92 65.51 50.9 64.12 49.99 63.08L49.3 63.4ZM49.2 58.22C49.96 59.62 51.21 61.29 52.13 62.25C52.28 62.05 52.55 61.76 52.75 61.62C51.84 60.78 50.59 59.22 49.92 57.92L49.2 58.22ZM55.81 63.21V62.18H58.1V63.21H55.81ZM55.81 60.57H58.1V61.59H55.81V60.57ZM61.19 60.57V61.59H58.85V60.57H61.19ZM61.19 63.21H58.85V62.18H61.19V63.21ZM62.98 64.64H58.85V63.82H61.93V59.95H58.85V59.22H62.64V58.54H58.85V57.64H58.1V58.54H54.36V59.22H58.1V59.95H55.1V63.82H58.1V64.64H54.06V65.31H58.1V66.79H58.85V65.31H62.98V64.64Z" fill="#8C8C8C"/>
<path d="M33.8773 0.00369175C37.0095 0.00369175 40.142 0.00369175 43.2749 0.00369175C43.7582 -0.00427872 44.2402 0.0532951 44.708 0.17484C46.1303 0.565593 47.2185 1.39865 47.9763 2.66164C48.351 3.28142 48.5883 3.9744 48.6723 4.69376C48.7044 4.95029 48.7216 5.20848 48.7238 5.46701C48.7269 11.7469 48.7279 18.0268 48.7269 24.3067C48.7325 25.3551 48.4325 26.3825 47.8636 27.2632C47.2947 28.1439 46.4816 28.8398 45.5235 29.2658C45.0496 29.4854 44.5428 29.6257 44.0234 29.6813C43.7286 29.7102 43.4311 29.7329 43.1347 29.7329C36.8799 29.7353 30.6251 29.7353 24.3703 29.7329C21.851 29.7303 19.8277 28.0193 19.2034 25.8114C19.064 25.3079 18.9956 24.7874 19.0003 24.2649C19.0027 20.444 19.0027 16.6232 19.0003 12.8027C19.0003 10.3241 19.0003 7.84538 19.0003 5.36649C18.993 4.6868 19.1224 4.01257 19.3807 3.38386C20.0298 1.83064 21.1592 0.787776 22.7542 0.252682C23.2982 0.077105 23.8673 -0.0080535 24.4389 0.00059885C27.5848 0.00403555 30.731 0.00506643 33.8773 0.00369175ZM33.8695 4.72056C33.5448 4.73654 33.2767 4.74634 33.0091 4.76335C32.7328 4.78139 32.455 4.79531 32.1802 4.83037C31.6594 4.89511 31.143 4.99099 30.6337 5.1175C29.1666 5.4866 27.8046 6.08614 26.5782 6.97744C25.3008 7.90535 24.2822 9.05545 23.6166 10.4994C23.2022 11.4011 22.9727 12.3768 22.9418 13.3687C22.9325 13.7739 22.9577 14.1792 23.0171 14.5801C23.1265 15.3692 23.3632 16.1352 23.7182 16.8483C24.2713 17.9737 25.0559 18.9165 26.0137 19.7187C26.8553 20.4183 27.7985 20.9859 28.8109 21.4018C29.8014 21.8142 30.841 22.0973 31.9039 22.2441C32.1855 22.2782 32.4576 22.3677 32.7045 22.5076C32.8741 22.607 32.9921 22.7462 33.0076 22.9468C33.0307 23.1449 33.0355 23.3447 33.022 23.5437C32.9865 23.8772 32.9189 24.2072 32.8674 24.5392C32.839 24.6874 32.8192 24.8371 32.8081 24.9876C32.7957 25.3124 32.9834 25.4769 33.304 25.4387C33.5084 25.4127 33.7063 25.3491 33.8876 25.2511C34.2933 25.0387 34.7015 24.8294 35.0949 24.5953C36.6374 23.6765 38.1201 22.6606 39.5339 21.5539C40.5536 20.7569 41.5304 19.9115 42.3893 18.9382C42.8237 18.4559 43.2162 17.9375 43.5626 17.3886C44.226 16.3143 44.609 15.1508 44.674 13.8873C44.6985 13.3853 44.6681 12.8821 44.5833 12.3866C44.3801 11.184 43.8938 10.047 43.1646 9.06936C42.281 7.8636 41.1567 6.9362 39.8499 6.22378C38.3848 5.42474 36.812 4.97007 35.1588 4.79841C34.7113 4.75356 34.2623 4.74376 33.8711 4.72056H33.8695Z" fill="#262626"/>
<path d="M35.8961 14.2032V11.5906C35.8961 11.5468 35.8961 11.503 35.8961 11.4586C35.9018 11.3086 35.9719 11.2349 36.123 11.2323C36.347 11.2282 36.5714 11.2282 36.7962 11.2323C36.9534 11.2349 37.0148 11.3009 37.0204 11.4571C37.0204 11.4963 37.0204 11.5354 37.0204 11.5746C37.0204 13.0473 37.0204 14.5204 37.0204 15.9941C37.0204 16.2724 36.9993 16.3451 36.6761 16.3322C36.5152 16.3222 36.3539 16.3222 36.1931 16.3322C36.0384 16.3451 35.9399 16.2807 35.8523 16.158C35.5992 15.8054 35.3368 15.459 35.0791 15.1105C34.6787 14.5692 34.2781 14.0283 33.8774 13.4877C33.8413 13.4392 33.7996 13.3949 33.7609 13.3485L33.7259 13.3593C33.7202 13.4191 33.7099 13.4789 33.7099 13.5387C33.7099 14.3635 33.7099 15.1883 33.7099 16.0131C33.7114 16.0619 33.7104 16.1108 33.7068 16.1595C33.6965 16.2626 33.6393 16.3255 33.5382 16.3276C33.2801 16.3327 33.0224 16.3327 32.765 16.3276C32.6562 16.3276 32.599 16.2611 32.5892 16.1508C32.585 16.1075 32.5866 16.0631 32.5866 16.0193C32.5866 14.5243 32.5902 13.0335 32.5835 11.5411C32.5835 11.2622 32.6979 11.22 32.9052 11.2287C33.0753 11.2359 33.247 11.2375 33.4171 11.2287C33.4801 11.223 33.5435 11.2347 33.6003 11.2628C33.6571 11.2908 33.705 11.3339 33.7387 11.3875C34.0836 11.8602 34.4336 12.3293 34.7821 12.7995C35.1065 13.238 35.4318 13.677 35.758 14.1166C35.7853 14.1537 35.8173 14.1872 35.8472 14.2223L35.8961 14.2032Z" fill="#262626"/>
<path d="M37.8233 13.773V11.6367C37.8233 11.5924 37.8233 11.5486 37.8233 11.5048C37.8233 11.2841 37.879 11.23 38.1017 11.23H40.9396C40.9689 11.2282 40.9984 11.2282 41.0277 11.23C41.1525 11.2444 41.2257 11.3145 41.2283 11.4398C41.2329 11.6785 41.2334 11.9177 41.2283 12.1564C41.2252 12.3038 41.1411 12.3724 40.9751 12.3729C40.3758 12.3729 39.7759 12.3729 39.1755 12.3729C39.1369 12.3729 39.0977 12.3729 39.0585 12.3729C38.9863 12.3698 38.9492 12.4007 38.9497 12.476C38.9497 12.6858 38.9497 12.8956 38.9497 13.1054C38.9497 13.1972 38.9703 13.2085 39.0657 13.2168C39.1044 13.2193 39.1436 13.2168 39.1827 13.2168H40.9679C41.1648 13.2168 41.2257 13.2807 41.2288 13.4802C41.2319 13.6797 41.2288 13.8926 41.2288 14.0952C41.2288 14.2797 41.1679 14.3421 40.9829 14.3426C40.3828 14.3452 39.7828 14.3426 39.1832 14.3426C38.9482 14.3426 38.9482 14.3426 38.9482 14.5746C38.9482 14.7292 38.9482 14.887 38.9482 15.0432C38.9482 15.1757 38.9662 15.1911 39.1028 15.1978C39.1466 15.1978 39.1905 15.1978 39.2343 15.1978H40.888C40.9365 15.1978 40.9855 15.1978 41.0339 15.2004C41.1545 15.2102 41.2231 15.2633 41.2267 15.3793C41.2339 15.6324 41.2339 15.8866 41.2267 16.1397C41.2231 16.2557 41.1422 16.3191 41.0205 16.3247C40.9813 16.3247 40.9422 16.3247 40.9035 16.3247H38.1414C38.1022 16.3247 38.0631 16.3247 38.0244 16.3247C37.8904 16.318 37.8331 16.2608 37.8249 16.1242C37.8223 16.0757 37.8249 16.0268 37.8249 15.9783C37.8235 15.2446 37.823 14.5095 37.8233 13.773Z" fill="#262626"/>
<path d="M26.5572 13.7719C26.5572 13.0402 26.5572 12.3087 26.5572 11.5774C26.5572 11.5289 26.5572 11.48 26.5572 11.4315C26.5644 11.3124 26.6284 11.2356 26.7474 11.2325C26.9959 11.2258 27.2449 11.2253 27.4934 11.2325C27.6094 11.2361 27.6733 11.3171 27.6795 11.4356C27.6821 11.4872 27.6795 11.5331 27.6795 11.582V14.9612C27.6795 15.2004 27.6795 15.2004 27.9254 15.2009H29.6075C29.6564 15.2009 29.7054 15.2009 29.7539 15.2009C29.8956 15.2102 29.957 15.2705 29.9601 15.4122C29.9627 15.6411 29.9632 15.8705 29.9601 16.0994C29.9601 16.2602 29.8884 16.3262 29.724 16.3262C28.7486 16.3262 27.7733 16.3262 26.798 16.3262C26.6103 16.3262 26.5557 16.2716 26.5557 16.0814C26.554 15.3122 26.5545 14.5424 26.5572 13.7719Z" fill="#262626"/>
<path d="M31.7884 13.7853C31.7884 14.5317 31.7884 15.278 31.7884 16.0241C31.7884 16.2943 31.7534 16.3293 31.4863 16.3293C31.2863 16.3293 31.0863 16.3293 30.8863 16.3293C30.7316 16.3293 30.6651 16.2592 30.6584 16.1071C30.6584 16.0731 30.6584 16.0391 30.6584 16.004V11.5557C30.6584 11.5217 30.6584 11.4872 30.6584 11.4526C30.6646 11.3186 30.7316 11.2361 30.8646 11.2325C31.1085 11.2253 31.3523 11.2258 31.5962 11.2325C31.7204 11.2356 31.7766 11.3021 31.7874 11.4289C31.792 11.4805 31.7905 11.5361 31.7905 11.5898L31.7884 13.7853Z" fill="#262626"/>
</svg>
